<svg width="80" height="100" viewBox="0 0 80 100" fill="none" xmlns="http://www.w3.org/2000/svg">
<path d="M79.6619 74.8H80.6619V73.8H79.6619V74.8ZM79.6619 100V101H80.6619V100H79.6619ZM4.06191 100H3.06191V101H4.06191V100ZM4.06191 74.8V73.8H3.06191V74.8H4.06191ZM28.9119 74.8V75.8H29.9119V74.8H28.9119ZM28.9119 30.175H29.9119V27.175L28.1119 29.575L28.9119 30.175ZM24.0119 34.375L23.4779 33.5295H23.4779L24.0119 34.375ZM16.4869 38.4L16.0703 37.4909L16.0628 37.4943L16.0555 37.4979L16.4869 38.4ZM8.26191 41.55L8.50445 42.5201L8.52328 42.5154L8.54191 42.51L8.26191 41.55ZM0.561914 42.6H-0.438086V43.6H0.561914V42.6ZM0.561914 16.7V15.7H-0.438086V16.7H0.561914ZM7.91191 14.95L8.28331 15.8785L8.29909 15.8722L8.31465 15.8653L7.91191 14.95ZM16.6619 10.225L16.1378 9.37334L16.1303 9.37797L16.1229 9.38273L16.6619 10.225ZM24.5369 4.625L23.9122 3.84413L23.9024 3.85198L23.8928 3.86008L24.5369 4.625ZM28.9119 0.0749893V-0.925007H28.2939L28.0175 -0.372219L28.9119 0.0749893ZM57.4369 0.0749893H58.4369V-0.925007H57.4369V0.0749893ZM57.4369 74.8H56.4369V75.8H57.4369V74.8ZM78.6619 74.8V100H80.6619V74.8H78.6619ZM79.6619 99H4.06191V101H79.6619V99ZM5.06191 100V74.8H3.06191V100H5.06191ZM4.06191 75.8H28.9119V73.8H4.06191V75.8ZM29.9119 74.8V30.175H27.9119V74.8H29.9119ZM28.1119 29.575C27.1618 30.8419 25.638 32.1653 23.4779 33.5295L24.5459 35.2205C26.8192 33.7847 28.5621 32.3081 29.7119 30.775L28.1119 29.575ZM23.4779 33.5295C21.3047 34.902 18.8366 36.223 16.0703 37.4909L16.9036 39.3091C19.7373 38.0103 22.2858 36.6479 24.5459 35.2205L23.4779 33.5295ZM16.0555 37.4979C13.42 38.7583 10.7289 39.7888 7.98191 40.59L8.54191 42.51C11.3949 41.6779 14.1872 40.6084 16.9184 39.3021L16.0555 37.4979ZM8.01938 40.5799C5.28081 41.2645 2.7969 41.6 0.561914 41.6V43.6C2.9936 43.6 5.64302 43.2355 8.50445 42.5201L8.01938 40.5799ZM1.56191 42.6V16.7H-0.438086V42.6H1.56191ZM0.561914 17.7C2.72483 17.7 5.30952 17.068 8.28331 15.8785L7.54052 14.0215C4.68098 15.1653 2.36566 15.7 0.561914 15.7V17.7ZM8.31465 15.8653C11.2824 14.5595 14.2445 12.9594 17.201 11.0673L16.1229 9.38273C13.246 11.2239 10.3747 12.7738 7.50918 14.0347L8.31465 15.8653ZM17.186 11.0767C20.2523 9.1897 22.9192 7.29465 25.181 5.38991L23.8928 3.86008C21.7213 5.68867 19.1382 7.52695 16.1378 9.37334L17.186 11.0767ZM25.1616 5.40587C27.4985 3.53633 29.1162 1.90258 29.8063 0.522209L28.0175 -0.372219C27.541 0.580734 26.242 1.98032 23.9122 3.84413L25.1616 5.40587ZM28.9119 1.07499H57.4369V-0.925007H28.9119V1.07499ZM56.4369 0.0749893V74.8H58.4369V0.0749893H56.4369ZM57.4369 75.8H79.6619V73.8H57.4369V75.8Z" fill="white"/>
</svg>
