<svg width="89" height="102" viewBox="0 0 89 102" fill="none" xmlns="http://www.w3.org/2000/svg">
<path d="M0.368164 102H-0.631836V103H0.368164V102ZM1.59316 87.3L0.61575 87.0887L0.613007 87.1013L0.610594 87.1141L1.59316 87.3ZM5.96816 75.575L5.10333 75.0728L5.09814 75.082L5.96816 75.575ZM14.1932 65.6L14.8607 66.3446L14.8621 66.3433L14.1932 65.6ZM27.3182 56.675L26.8486 55.7921L26.8476 55.7926L27.3182 56.675ZM40.9682 49.325L41.449 50.2019L41.4584 50.1966L40.9682 49.325ZM49.8932 44.075L49.3592 43.2295L49.8932 44.075ZM54.4432 40.05L53.6111 39.4953L53.6052 39.5042L53.5995 39.5131L54.4432 40.05ZM49.7182 26.05L49.2924 26.9548L49.3146 26.9653L49.3374 26.9747L49.7182 26.05ZM35.7182 25.525L35.9858 26.4885H35.9858L35.7182 25.525ZM29.5932 28.15L29.0861 27.2881L29.0746 27.2949L29.0632 27.302L29.5932 28.15ZM24.1682 32.35L24.8231 33.1057L24.837 33.0936L24.8505 33.081L24.1682 32.35ZM18.9182 37.6L18.1585 38.2503L18.9067 39.1244L19.668 38.2616L18.9182 37.6ZM1.24316 16.95L0.536058 16.2429L-0.118287 16.8972L0.483454 17.6003L1.24316 16.95ZM8.76816 11L8.23535 10.1538L8.22809 10.1583L8.22091 10.163L8.76816 11ZM19.4432 5.75L19.8003 6.68405L19.8122 6.67951L19.8239 6.67467L19.4432 5.75ZM32.3932 1.89999L32.5893 2.88058L32.5984 2.87875L32.6076 2.87674L32.3932 1.89999ZM68.4432 4.175L68.0336 5.08727L68.0447 5.09226L68.0559 5.09698L68.4432 4.175ZM81.7432 14.675L80.9111 15.2297H80.9111L81.7432 14.675ZM84.3682 41.275L83.4472 40.8854L83.4434 40.8944L83.4397 40.9036L84.3682 41.275ZM79.6432 49.15L80.4051 49.7976H80.4051L79.6432 49.15ZM72.8182 55.45L72.23 54.6413L72.221 54.6478L72.2121 54.6546L72.8182 55.45ZM65.4682 60.525L65.9154 61.4194L65.9559 61.3991L65.9945 61.3753L65.4682 60.525ZM57.5932 64.725L58.0572 65.6108L58.0734 65.6023L58.0893 65.5932L57.5932 64.725ZM50.7682 68.575L51.2538 69.4492L51.2719 69.4391L51.2896 69.4283L50.7682 68.575ZM44.8182 72.425L45.4096 73.2314L45.4182 73.225L44.8182 72.425ZM39.7432 76.8L39.0361 76.0929L37.329 77.8H39.7432V76.8ZM88.2182 76.8H89.2182V75.8H88.2182V76.8ZM88.2182 102V103H89.2182V102H88.2182ZM1.36816 102C1.36816 96.5644 1.7731 91.7284 2.57574 87.4859L0.610594 87.1141C-0.220101 91.5049 -0.631836 96.4689 -0.631836 102H1.36816ZM2.57058 87.5113C3.48463 83.2839 4.9093 79.4719 6.83819 76.068L5.09814 75.082C3.06037 78.6781 1.56837 82.6828 0.61575 87.0887L2.57058 87.5113ZM6.83295 76.0771C8.87596 72.5586 11.5487 69.314 14.8607 66.3446L13.5256 64.8554C10.071 67.9527 7.26037 71.358 5.10338 75.0729L6.83295 76.0771ZM14.8621 66.3433C18.2885 63.2595 22.5924 60.3287 27.7888 57.5574L26.8476 55.7926C21.5439 58.6213 17.0978 61.6405 13.5242 64.8567L14.8621 66.3433ZM27.7878 57.5579C33.2732 54.6401 37.8273 52.1879 41.449 50.2018L40.4873 48.4482C36.8757 50.4287 32.3298 52.8766 26.8486 55.7921L27.7878 57.5579ZM41.4584 50.1966C45.1986 48.0927 48.1901 46.3334 50.4272 44.9205L49.3592 43.2295C47.1629 44.6166 44.2044 46.3573 40.4779 48.4534L41.4584 50.1966ZM50.4272 44.9205C52.6908 43.4908 54.3532 42.0541 55.2868 40.5869L53.5995 39.5131C52.8998 40.6126 51.5289 41.8592 49.3592 43.2295L50.4272 44.9205ZM55.2752 40.6047C56.3146 39.0457 56.8432 37.337 56.8432 35.5H54.8432C54.8432 36.9297 54.4384 38.2543 53.6111 39.4953L55.2752 40.6047ZM56.8432 35.5C56.8432 33.1195 56.2771 31.0008 55.1093 29.1842L53.427 30.2658C54.3592 31.7158 54.8432 33.4472 54.8432 35.5H56.8432ZM55.1093 29.1842C53.9372 27.361 52.2507 26.0113 50.0989 25.1253L49.3374 26.9747C51.1523 27.722 52.4991 28.8224 53.427 30.2658L55.1093 29.1842ZM50.144 25.1452C47.991 24.132 45.3857 23.65 42.3682 23.65V25.65C45.184 25.65 47.4786 26.1013 49.2924 26.9548L50.144 25.1452ZM42.3682 23.65C39.9507 23.65 37.6436 23.9523 35.4505 24.5615L35.9858 26.4885C37.9927 25.931 40.1189 25.65 42.3682 25.65V23.65ZM35.4505 24.5615C33.2621 25.1694 31.1403 26.0797 29.0861 27.2881L30.1002 29.0119C32.0127 27.8869 33.9742 27.0473 35.9858 26.4885L35.4505 24.5615ZM29.0632 27.302C27.1376 28.5055 25.2787 29.9456 23.4858 31.6189L24.8505 33.081C26.5576 31.4877 28.3154 30.1278 30.1232 28.998L29.0632 27.302ZM23.5132 31.5943C21.7252 33.1439 19.9438 34.9262 18.1683 36.9384L19.668 38.2616C21.3926 36.3071 23.1111 34.5894 24.8231 33.1057L23.5132 31.5943ZM19.6779 36.9497L2.00288 16.2997L0.483454 17.6003L18.1585 38.2503L19.6779 36.9497ZM1.95027 17.6571C3.87322 15.7342 6.32395 13.7929 9.31541 11.837L8.22091 10.163C5.14571 12.1737 2.57977 14.1992 0.536058 16.2429L1.95027 17.6571ZM9.30098 11.8462C12.3883 9.90234 15.8865 8.18049 19.8003 6.68405L19.086 4.81595C15.0665 6.35284 11.448 8.13098 8.23535 10.1538L9.30098 11.8462ZM19.8239 6.67467C23.7249 5.06838 27.979 3.80263 32.5893 2.88058L32.197 0.919415C27.474 1.86404 23.0947 3.16495 19.0624 4.82532L19.8239 6.67467ZM32.6076 2.87674C37.3172 1.84292 42.2035 1.32499 47.2682 1.32499V-0.675007C42.0662 -0.675007 37.0358 -0.142933 32.1788 0.923252L32.6076 2.87674ZM47.2682 1.32499C55.5725 1.32499 62.4816 2.59456 68.0336 5.08727L68.8528 3.26273C62.9714 0.622101 55.7638 -0.675007 47.2682 -0.675007V1.32499ZM68.0559 5.09698C73.7373 7.48315 78.0031 10.8676 80.9111 15.2297L82.5752 14.1203C79.4166 9.38235 74.8157 5.76684 68.8304 3.25301L68.0559 5.09698ZM80.9111 15.2297C83.821 19.5946 85.2932 24.7624 85.2932 30.775H87.2932C87.2932 24.4209 85.732 18.8554 82.5752 14.1203L80.9111 15.2297ZM85.2932 30.775C85.2932 34.6346 84.6689 37.9978 83.4472 40.8854L85.2891 41.6646C86.6341 38.4856 87.2932 34.8488 87.2932 30.775H85.2932ZM83.4397 40.9036C82.3122 43.7224 80.7927 46.2536 78.8812 48.5023L80.4051 49.7976C82.4603 47.3797 84.0908 44.6609 85.2966 41.6464L83.4397 40.9036ZM78.8812 48.5023C76.9511 50.7731 74.7349 52.8195 72.23 54.6413L73.4063 56.2587C76.0348 54.3471 78.3686 52.1935 80.4051 49.7976L78.8812 48.5023ZM72.2121 54.6546C69.786 56.503 67.3626 58.1762 64.9418 59.6747L65.9945 61.3753C68.4738 59.8405 70.9503 58.1303 73.4242 56.2454L72.2121 54.6546ZM65.021 59.6306C62.2062 61.038 59.5647 62.4466 57.097 63.8568L58.0893 65.5932C60.5216 64.2033 63.1302 62.812 65.9154 61.4194L65.021 59.6306ZM57.1292 63.8392C54.662 65.1315 52.3676 66.4256 50.2467 67.7217L51.2896 69.4283C53.3687 68.1577 55.6243 66.8852 58.0572 65.6108L57.1292 63.8392ZM50.2825 67.7008C48.1439 68.8889 46.1223 70.1969 44.2182 71.625L45.4182 73.225C47.2474 71.8531 49.1924 70.5944 51.2538 69.4492L50.2825 67.7008ZM44.2268 71.6186C42.4332 72.9339 40.7031 74.4259 39.0361 76.0929L40.4503 77.5071C42.0499 75.9075 43.7031 74.4828 45.4095 73.2314L44.2268 71.6186ZM39.7432 77.8H88.2182V75.8H39.7432V77.8ZM87.2182 76.8V102H89.2182V76.8H87.2182ZM88.2182 101H0.368164V103H88.2182V101Z" fill="white"/>
</svg>
