<svg width="90" height="127" viewBox="0 0 90 127" fill="none" xmlns="http://www.w3.org/2000/svg">
<path d="M64.9581 59.525L64.7769 58.5415L64.7937 60.5114L64.9581 59.525ZM77.7331 65.3L77.0905 66.0662L77.1038 66.0773L77.1175 66.088L77.7331 65.3ZM86.3081 76.325L85.3953 76.7334L85.4019 76.748L85.4089 76.7625L86.3081 76.325ZM83.6831 109.925L82.8706 109.342L83.6831 109.925ZM67.2331 122.35L67.6123 123.275V123.275L67.2331 122.35ZM18.2331 122.7L18.5911 121.766L18.5825 121.763L18.2331 122.7ZM0.383105 111.15L-0.415211 110.548L-0.93296 111.234L-0.332082 111.849L0.383105 111.15ZM15.4331 91.2L16.1402 90.4929L15.3272 89.6799L14.6348 90.5978L15.4331 91.2ZM26.2831 98.55L25.8892 99.4691L26.2831 98.55ZM55.5081 97.675L56.0893 98.4887L56.0988 98.482L56.1081 98.475L55.5081 97.675ZM54.4581 74.75L53.8863 75.5705L53.8978 75.5783L54.4581 74.75ZM30.8331 70.725H29.8331V71.725H30.8331V70.725ZM30.8331 50.6V49.6H29.8331V50.6H30.8331ZM51.8331 46.575L52.4167 47.387L52.425 47.3811L52.4331 47.375L51.8331 46.575ZM55.5081 29.425L54.6761 29.9797L54.6885 29.9983L54.7017 30.0164L55.5081 29.425ZM50.4331 25.575L50.027 26.4888L50.0568 26.5021L50.0874 26.5133L50.4331 25.575ZM29.7831 27.5L29.2953 26.6271L29.7831 27.5ZM19.8081 37.3L19.0539 37.9567L19.9428 38.9775L20.6574 37.8279L19.8081 37.3ZM2.13311 17L1.33641 16.3956L0.844976 17.0434L1.37892 17.6567L2.13311 17ZM12.6331 8.24999L13.1168 9.12527L13.1244 9.12097L12.6331 8.24999ZM28.0331 2.3L28.271 3.27129L28.0331 2.3ZM67.5831 4.05L67.1997 4.97361L67.2058 4.97609L67.5831 4.05ZM82.1081 14.9L81.2985 15.487L81.3068 15.4985L81.3155 15.5097L82.1081 14.9ZM84.5581 44.125L85.463 44.5508L85.4676 44.5408L84.5581 44.125ZM76.6831 54.275L77.3045 55.0585L77.3127 55.052L77.3207 55.0454L76.6831 54.275ZM64.7937 60.5114C69.5271 61.3003 73.618 63.1538 77.0905 66.0662L78.3757 64.5338C74.6149 61.3796 70.1891 59.383 65.1225 58.5386L64.7937 60.5114ZM77.1175 66.088C80.7189 68.9017 83.4768 72.445 85.3953 76.7334L87.2209 75.9166C85.1727 71.3383 82.2139 67.5317 78.3488 64.512L77.1175 66.088ZM85.4089 76.7625C87.4337 80.9246 88.4581 85.6716 88.4581 91.025H90.4581C90.4581 85.4117 89.3825 80.3587 87.2074 75.8875L85.4089 76.7625ZM88.4581 91.025C88.4581 98.0701 86.587 104.162 82.8706 109.342L84.4956 110.508C88.4792 104.955 90.4581 98.4465 90.4581 91.025H88.4581ZM82.8706 109.342C79.147 114.533 73.8259 118.567 66.8539 121.425L67.6123 123.275C74.8736 120.299 80.5192 116.051 84.4956 110.508L82.8706 109.342ZM66.8539 121.425C59.8843 124.281 51.6188 125.725 42.0331 125.725V127.725C51.8141 127.725 60.3486 126.252 67.6123 123.275L66.8539 121.425ZM42.0331 125.725C33.2669 125.725 25.458 124.399 18.591 121.766L17.8752 123.634C25.0082 126.368 33.066 127.725 42.0331 127.725V125.725ZM18.5825 121.763C11.8338 119.247 6.00957 115.477 1.09829 110.451L-0.332082 111.849C4.78997 117.09 10.8658 121.02 17.8837 123.637L18.5825 121.763ZM1.18142 111.752L16.2314 91.8022L14.6348 90.5978L-0.415211 110.548L1.18142 111.752ZM14.726 91.9071C17.9657 95.1468 21.6886 97.6689 25.8892 99.4691L26.677 97.6309C22.711 95.9311 19.2005 93.5532 16.1402 90.4929L14.726 91.9071ZM25.8892 99.4691C30.1225 101.283 35.0452 102.175 40.6331 102.175V100.175C35.2544 100.175 30.6104 99.3166 26.677 97.6309L25.8892 99.4691ZM40.6331 102.175C47.3674 102.175 52.5742 101 56.0893 98.4887L54.9269 96.8613C51.9087 99.0171 47.1989 100.175 40.6331 100.175V102.175ZM56.1081 98.475C59.6783 95.7974 61.4081 91.794 61.4081 86.65H59.4081C59.4081 91.306 57.8713 94.6526 54.9081 96.875L56.1081 98.475ZM61.4081 86.65C61.4081 81.1057 59.2898 76.8112 55.0184 73.9217L53.8978 75.5783C57.5597 78.0555 59.4081 81.6943 59.4081 86.65H61.4081ZM55.0299 73.9296C50.9249 71.0686 44.5463 69.725 36.0831 69.725V71.725C44.4199 71.725 50.2913 73.0648 53.8863 75.5704L55.0299 73.9296ZM36.0831 69.725H30.8331V71.725H36.0831V69.725ZM31.8331 70.725V50.6H29.8331V70.725H31.8331ZM30.8331 51.6H36.6081V49.6H30.8331V51.6ZM36.6081 51.6C43.1537 51.6 48.4579 50.2324 52.4167 47.387L51.2495 45.763C47.7416 48.2842 42.8959 49.6 36.6081 49.6V51.6ZM52.4331 47.375C56.3946 44.4039 58.4331 40.5599 58.4331 35.9H56.4331C56.4331 39.8734 54.7383 43.1461 51.2331 45.775L52.4331 47.375ZM58.4331 35.9C58.4331 33.1607 57.7454 30.7848 56.3145 28.8336L54.7017 30.0164C55.8375 31.5651 56.4331 33.506 56.4331 35.9H58.4331ZM56.3402 28.8703C55.0418 26.9228 53.1685 25.5171 50.7788 24.6367L50.0874 26.5133C52.131 27.2663 53.6411 28.4272 54.6761 29.9797L56.3402 28.8703ZM50.8392 24.6612C48.5775 23.6559 45.8637 23.175 42.7331 23.175V25.175C45.6691 25.175 48.0888 25.6274 50.027 26.4888L50.8392 24.6612ZM42.7331 23.175C37.9005 23.175 33.4152 24.3248 29.2953 26.6271L30.2709 28.3729C34.0844 26.2419 38.2324 25.175 42.7331 25.175V23.175ZM29.2953 26.6271C25.164 28.9357 21.7207 32.329 18.9588 36.7721L20.6574 37.8279C23.2622 33.6376 26.4689 30.4976 30.2709 28.3729L29.2953 26.6271ZM20.5623 36.6433L2.88729 16.3433L1.37892 17.6567L19.0539 37.9567L20.5623 36.6433ZM2.9298 17.6044C5.39752 14.3515 8.78239 11.5206 13.1168 9.12524L12.1494 7.37476C7.61715 9.87943 4.00202 12.8819 1.33641 16.3956L2.9298 17.6044ZM13.1244 9.12097C17.5856 6.60442 22.6319 4.65228 28.271 3.27129L27.7952 1.3287C22.0009 2.74771 16.7806 4.76224 12.1418 7.37901L13.1244 9.12097ZM28.271 3.27129C33.906 1.8913 39.7759 1.2 45.8831 1.2V-0.800007C39.6237 -0.800007 33.5936 -0.0913086 27.7952 1.3287L28.271 3.27129ZM45.8831 1.2C54.0651 1.2 61.163 2.4678 67.1997 4.97359L67.9665 3.1264C61.6365 0.498863 54.2678 -0.800007 45.8831 -0.800007V1.2ZM67.2058 4.97609C73.3644 7.48516 78.0432 10.9969 81.2985 15.487L82.9177 14.313C79.4063 9.46976 74.4018 5.74817 67.9604 3.1239L67.2058 4.97609ZM81.3155 15.5097C84.6678 19.8677 86.3581 25.0728 86.3581 31.175H88.3581C88.3581 24.6772 86.5485 19.0323 82.9007 14.2903L81.3155 15.5097ZM86.3581 31.175C86.3581 35.5835 85.4548 39.7582 83.6486 43.7092L85.4676 44.5408C87.3947 40.3251 88.3581 35.8665 88.3581 31.175H86.3581ZM83.6533 43.6992C81.8494 47.5325 79.3157 50.7982 76.0455 53.5046L77.3207 55.0454C80.8172 52.1518 83.5335 48.6508 85.4629 44.5508L83.6533 43.6992ZM76.0617 53.4915C72.8123 56.0686 69.0567 57.7532 64.7769 58.5415L65.1393 60.5085C69.7262 59.6635 73.7873 57.848 77.3045 55.0585L76.0617 53.4915Z" fill="white"/>
</svg>
