<svg width="22" height="22" viewBox="0 0 22 22" fill="none" xmlns="http://www.w3.org/2000/svg">
<path d="M18.9819 10.9991C18.9819 11.163 18.9216 11.3269 18.7921 11.4563L13.5553 16.6932C13.3051 16.9434 12.891 16.9434 12.6408 16.6932C12.3906 16.443 12.3906 16.0289 12.6408 15.7787L17.4204 10.9991L12.6408 6.21949C12.3906 5.96929 12.3906 5.55517 12.6408 5.30498C12.891 5.05478 13.3051 5.05478 13.5553 5.30498L18.7921 10.5418C18.9216 10.6713 18.9819 10.8352 18.9819 10.9991Z" fill="#292D32"/>
<path d="M18.8356 10.9994C18.8356 11.3532 18.5423 11.6465 18.1885 11.6465L3.66854 11.6465C3.31482 11.6465 3.02148 11.3532 3.02148 10.9994C3.02148 10.6457 3.31482 10.3524 3.66854 10.3524L18.1885 10.3524C18.5423 10.3524 18.8356 10.6457 18.8356 10.9994Z" fill="#292D32"/>
</svg>
