<svg width="23" height="23" viewBox="0 0 23 23" fill="none" xmlns="http://www.w3.org/2000/svg">
<path d="M19.8987 11.4989C19.8987 11.6769 19.8331 11.8548 19.6927 11.9952L14.0087 17.6791C13.7372 17.9507 13.2877 17.9507 13.0162 17.6791C12.7446 17.4076 12.7446 16.9581 13.0162 16.6866L18.2038 11.4989L13.0162 6.31132C12.7446 6.03977 12.7446 5.5903 13.0162 5.31874C13.2877 5.04719 13.7372 5.04719 14.0087 5.31874L19.6927 11.0027C19.8331 11.1431 19.8987 11.321 19.8987 11.4989Z" fill="white"/>
<path d="M19.7383 11.4999C19.7383 11.8838 19.4199 12.2021 19.036 12.2021L3.27651 12.2021C2.89259 12.2021 2.57422 11.8838 2.57422 11.4999C2.57422 11.1159 2.89259 10.7976 3.27651 10.7976L19.036 10.7976C19.4199 10.7976 19.7383 11.1159 19.7383 11.4999Z" fill="white"/>
</svg>
