<svg width="22" height="22" viewBox="0 0 22 22" fill="none" xmlns="http://www.w3.org/2000/svg">
<path d="M3.02 10.9999C3.02 10.836 3.0804 10.6721 3.20981 10.5427L8.44667 5.30581C8.69687 5.05562 9.11098 5.05562 9.36118 5.30581C9.61138 5.55601 9.61138 5.97012 9.36118 6.22032L4.58157 10.9999L9.36118 15.7795C9.61138 16.0297 9.61138 16.4439 9.36118 16.694C9.11098 16.9442 8.69687 16.9442 8.44667 16.694L3.20981 11.4572C3.0804 11.3278 3.02 11.1639 3.02 10.9999Z" fill="#292D32"/>
<path d="M3.16635 10.9986C3.16635 10.6449 3.45968 10.3516 3.81341 10.3516L18.3334 10.3516C18.6871 10.3516 18.9805 10.6449 18.9805 10.9986C18.9805 11.3523 18.6871 11.6457 18.3334 11.6457L3.81341 11.6457C3.45968 11.6457 3.16635 11.3523 3.16635 10.9986Z" fill="#292D32"/>
</svg>
