<svg width="46" height="61" viewBox="0 0 46 61" fill="none" xmlns="http://www.w3.org/2000/svg">
<path d="M46 2.55262V58.4474C46 59.8363 44.873 61 43.4454 61H27.5546C26.1646 61 25 59.8738 25 58.4474V2.55262C25 1.16369 26.127 0 27.5546 0H43.4454C44.8354 0.0375385 46 1.16369 46 2.55262Z" fill="white" fill-opacity="0.6"/>
<path d="M33 17.566V61H13V17.566C13 16.1698 14.0733 15 15.4329 15H30.5671C31.8909 15 33 16.1321 33 17.566Z" fill="white" fill-opacity="0.6"/>
<path d="M0 32.5929V58.4071C0 59.818 1.12701 61 2.55456 61H21V32.5929C21 31.182 19.873 30 18.4454 30H2.55456C1.16458 30 0 31.1439 0 32.5929Z" fill="white" fill-opacity="0.6"/>
</svg>
