<svg width="101" height="60" viewBox="0 0 101 60" fill="none" xmlns="http://www.w3.org/2000/svg">
<path d="M98.0586 59.3867H100.042" stroke="#263238" stroke-width="0.260655" stroke-linecap="round" stroke-linejoin="round"/>
<path d="M5.10938 59.3867H97.0671" stroke="#263238" stroke-width="0.260655" stroke-linecap="round" stroke-linejoin="round"/>
<path d="M1 59.3867H3.97552" stroke="#263238" stroke-width="0.260655" stroke-linecap="round" stroke-linejoin="round"/>
<g opacity="0.2">
<path d="M17.0465 29.2041C16.6757 29.2041 16.3133 29.314 16.005 29.52C15.6967 29.726 15.4565 30.0188 15.3146 30.3613C15.1727 30.7038 15.1356 31.0808 15.2079 31.4444C15.2802 31.808 15.4588 32.142 15.7209 32.4042C15.9831 32.6664 16.3171 32.8449 16.6807 32.9172C17.0444 32.9896 17.4213 32.9524 17.7638 32.8106C18.1064 32.6687 18.3991 32.4284 18.6051 32.1201C18.8111 31.8119 18.921 31.4494 18.921 31.0787C18.9207 30.5816 18.723 30.105 18.3716 29.7536C18.0201 29.4021 17.5435 29.2045 17.0465 29.2041ZM17.2377 32.2235V32.4035H16.9189V32.2235C16.6355 32.1669 16.4939 31.9515 16.4939 31.6157V31.4457H16.8693V31.6412C16.8693 31.8169 16.9473 31.8807 17.0705 31.8807C17.1938 31.8807 17.2717 31.8169 17.2717 31.6412C17.2717 31.1325 16.5123 31.107 16.5123 30.4014C16.5123 30.0698 16.654 29.8573 16.9218 29.7978V29.6122H17.2406V29.7964C17.5155 29.853 17.6571 30.0642 17.6571 30.4V30.4779H17.2944V30.3745C17.2944 30.1988 17.2236 30.1308 17.1003 30.1308C16.977 30.1308 16.9062 30.1988 16.9062 30.3745C16.9062 30.8831 17.6642 30.9087 17.6642 31.6143C17.6571 31.9515 17.5126 32.1626 17.2377 32.2235Z" stroke="black" stroke-width="0.260655" stroke-miterlimit="10"/>
<path d="M17.0463 28.4512C16.5267 28.4509 16.0187 28.6047 15.5865 28.8932C15.1543 29.1817 14.8174 29.5919 14.6183 30.0719C14.4193 30.5518 14.3671 31.0801 14.4683 31.5898C14.5695 32.0994 14.8196 32.5676 15.1869 32.9352C15.5542 33.3027 16.0223 33.553 16.5319 33.6545C17.0415 33.756 17.5698 33.704 18.0499 33.5053C18.53 33.3065 18.9404 32.9698 19.2291 32.5377C19.5178 32.1057 19.6719 31.5978 19.6719 31.0781C19.6719 30.3817 19.3953 29.7137 18.903 29.2211C18.4106 28.7285 17.7428 28.4515 17.0463 28.4512ZM17.0463 33.2347C16.6195 33.2347 16.2022 33.1081 15.8473 32.8709C15.4924 32.6337 15.2158 32.2966 15.0525 31.9022C14.8892 31.5078 14.8466 31.0738 14.93 30.6552C15.0133 30.2366 15.219 29.852 15.5209 29.5503C15.8229 29.2486 16.2075 29.0432 16.6262 28.96C17.0449 28.8769 17.4789 28.9199 17.8731 29.0834C18.2674 29.247 18.6044 29.5238 18.8413 29.8788C19.0783 30.2339 19.2046 30.6513 19.2043 31.0781C19.2036 31.6501 18.9759 32.1984 18.5713 32.6027C18.1668 33.007 17.6183 33.2343 17.0463 33.2347Z" stroke="black" stroke-width="0.260655" stroke-miterlimit="10"/>
</g>
<g opacity="0.2">
<path d="M54.9829 10.1309C54.5037 10.1306 54.0351 10.2724 53.6364 10.5385C53.2378 10.8046 52.927 11.1829 52.7434 11.6256C52.5598 12.0683 52.5116 12.5555 52.605 13.0256C52.6983 13.4957 52.929 13.9276 53.2678 14.2665C53.6065 14.6055 54.0383 14.8364 54.5083 14.93C54.9783 15.0237 55.4656 14.9758 55.9084 14.7924C56.3512 14.6091 56.7297 14.2985 56.996 13.9C57.2623 13.5016 57.4044 13.0331 57.4044 12.5538C57.4037 11.9117 57.1484 11.296 56.6945 10.8418C56.2405 10.3877 55.6251 10.132 54.9829 10.1309ZM55.2337 14.0302V14.2626H54.8228V14.0302C54.4629 13.9565 54.2801 13.6774 54.2801 13.2438V13.0242H54.7548V13.2764C54.7548 13.5045 54.8554 13.5867 55.0155 13.5867C55.1756 13.5867 55.2748 13.5045 55.2748 13.2764C55.2748 12.619 54.2929 12.5864 54.2929 11.6725C54.2929 11.2474 54.4714 10.964 54.8228 10.8917V10.6551H55.2337V10.8917C55.5908 10.9654 55.7736 11.2389 55.7736 11.6725V11.7731H55.2975V11.6413C55.2975 11.4132 55.2068 11.3253 55.0467 11.3253C54.8866 11.3253 54.7959 11.4132 54.7959 11.6413C54.7959 12.2987 55.7778 12.3313 55.7778 13.2438C55.7778 13.6831 55.5908 13.9622 55.2337 14.0302Z" stroke="black" stroke-width="0.260655" stroke-miterlimit="10"/>
<path d="M54.9846 9.15918C54.312 9.15918 53.6545 9.35862 53.0953 9.73228C52.5361 10.1059 52.1002 10.637 51.8428 11.2584C51.5855 11.8798 51.5181 12.5635 51.6493 13.2232C51.7805 13.8828 52.1044 14.4888 52.58 14.9644C53.0556 15.4399 53.6615 15.7638 54.3212 15.895C54.9808 16.0262 55.6646 15.9589 56.2859 15.7015C56.9073 15.4441 57.4384 15.0083 57.8121 14.449C58.1857 13.8898 58.3852 13.2323 58.3852 12.5598C58.3852 11.6579 58.0269 10.7929 57.3892 10.1552C56.7514 9.51746 55.8865 9.15918 54.9846 9.15918ZM54.9846 15.344C54.4327 15.3443 53.8932 15.1809 53.4342 14.8745C52.9752 14.5681 52.6174 14.1325 52.406 13.6227C52.1947 13.113 52.1392 12.552 52.2467 12.0107C52.3542 11.4694 52.6198 10.9722 53.0099 10.5818C53.4 10.1915 53.8971 9.92568 54.4384 9.81791C54.9796 9.71015 55.5406 9.76532 56.0505 9.97644C56.5604 10.1876 56.9962 10.5451 57.3028 11.004C57.6094 11.4628 57.7731 12.0023 57.7731 12.5541C57.7723 13.2936 57.4783 14.0025 56.9556 14.5255C56.4329 15.0485 55.724 15.3429 54.9846 15.344Z" stroke="black" stroke-width="0.260655" stroke-miterlimit="10"/>
</g>
<g opacity="0.2">
<path d="M37.1865 2.3916C36.5008 2.39188 35.8306 2.59547 35.2606 2.97662C34.6906 3.35777 34.2464 3.89937 33.9842 4.53294C33.722 5.16651 33.6536 5.8636 33.7875 6.53608C33.9214 7.20855 34.2518 7.82621 34.7367 8.31097C35.2217 8.79572 35.8395 9.1258 36.512 9.25946C37.1845 9.39313 37.8816 9.32439 38.5151 9.06192C39.1485 8.79946 39.6899 8.35506 40.0709 7.78491C40.4518 7.21477 40.6551 6.54448 40.6551 5.85879C40.6543 4.93922 40.2886 4.05755 39.6382 3.40745C38.9879 2.75734 38.106 2.39198 37.1865 2.3916ZM37.5393 7.9785V8.31147H36.9513V7.9785C36.4355 7.87364 36.1734 7.47549 36.1734 6.85488V6.54033H36.8535V6.90022C36.8535 7.22753 36.9952 7.34513 37.2262 7.34513C37.4571 7.34513 37.5988 7.22753 37.5988 6.90022C37.5988 5.95939 36.1932 5.90838 36.1932 4.60624C36.1932 3.9913 36.4483 3.59881 36.9513 3.48829V3.14823H37.5393V3.48829C38.0494 3.59314 38.3101 3.98421 38.3101 4.60624V4.74793H37.6314V4.55948C37.6314 4.23359 37.4996 4.1089 37.2715 4.1089C37.0434 4.1089 36.9116 4.23359 36.9116 4.55948C36.9116 5.50173 38.3172 5.55132 38.3172 6.85488C38.3172 7.47549 38.0494 7.87364 37.5393 7.9785Z" stroke="black" stroke-width="0.260655" stroke-miterlimit="10"/>
<path d="M37.1867 1C36.2256 1.00028 35.2861 1.28555 34.487 1.81975C33.688 2.35395 33.0653 3.11307 32.6977 4.00115C32.33 4.88923 32.234 5.86637 32.4217 6.80903C32.6094 7.75169 33.0724 8.61752 33.7521 9.29707C34.4318 9.97661 35.2978 10.4393 36.2405 10.6268C37.1832 10.8142 38.1604 10.7178 39.0483 10.35C39.9363 9.98207 40.6952 9.35915 41.2292 8.55995C41.7632 7.76076 42.0482 6.82118 42.0482 5.86002C42.0482 5.22167 41.9224 4.58958 41.6781 3.99984C41.4338 3.41011 41.0756 2.87428 40.6242 2.42297C40.1727 1.97165 39.6368 1.6137 39.047 1.36954C38.4572 1.12539 37.8251 0.999814 37.1867 1ZM37.1867 9.85288C36.397 9.85288 35.625 9.61871 34.9684 9.17996C34.3118 8.74122 33.8 8.11762 33.4978 7.38802C33.1956 6.65842 33.1165 5.85559 33.2706 5.08105C33.4247 4.30651 33.8049 3.59505 34.3633 3.03664C34.9218 2.47822 35.6332 2.09794 36.4078 1.94387C37.1823 1.78981 37.9851 1.86888 38.7147 2.17109C39.4443 2.4733 40.0679 2.98508 40.5067 3.6417C40.9454 4.29832 41.1796 5.0703 41.1796 5.86002C41.1785 6.91865 40.7574 7.93359 40.0089 8.68216C39.2603 9.43072 38.2454 9.85176 37.1867 9.85288Z" stroke="black" stroke-width="0.260655" stroke-miterlimit="10"/>
</g>
<g opacity="0.2">
<path d="M72.4384 7.57129H71.0215V10.8302H72.4384V7.57129Z" stroke="black" stroke-width="0.260655" stroke-miterlimit="10"/>
<path d="M74.2802 5.63281H72.8633V10.8329H74.2802V5.63281Z" stroke="black" stroke-width="0.260655" stroke-miterlimit="10"/>
<path d="M76.122 6.32031H74.7051V10.8304H76.122V6.32031Z" stroke="black" stroke-width="0.260655" stroke-miterlimit="10"/>
<path d="M77.9638 5.2002H76.5469V10.8324H77.9638V5.2002Z" stroke="black" stroke-width="0.260655" stroke-miterlimit="10"/>
<path d="M73.5317 4.28565L75.181 5.93352L77.3305 4.33383L77.6762 3.73164L78.0432 3.94417L78.0418 2.81348L77.0641 3.38024L77.4311 3.59136L77.1137 4.14113L75.2079 5.56087L73.4906 3.84357L71.4531 6.83185L71.6869 6.99196L73.5317 4.28565Z" stroke="black" stroke-width="0.260655" stroke-miterlimit="10"/>
</g>
<g opacity="0.2">
<path d="M13.408 9.75098H12.2051V12.5168H13.408V9.75098Z" stroke="black" stroke-width="0.260655" stroke-miterlimit="10"/>
<path d="M14.9725 8.10547H13.7695V12.5206H14.9725V8.10547Z" stroke="black" stroke-width="0.260655" stroke-miterlimit="10"/>
<path d="M16.5369 8.68945H15.334V12.518H16.5369V8.68945Z" stroke="black" stroke-width="0.260655" stroke-miterlimit="10"/>
<path d="M18.0994 7.73926H16.8965V12.5199H18.0994V7.73926Z" stroke="black" stroke-width="0.260655" stroke-miterlimit="10"/>
<path d="M14.3377 6.96359L15.7362 8.36208L17.5612 7.00326L17.8545 6.49317L18.1662 6.67312L18.1648 5.71387L17.3345 6.1942L17.6462 6.37273L17.377 6.84031L15.7589 8.04469L14.3023 6.5881L12.5723 9.12438L12.7706 9.2604L14.3377 6.96359Z" stroke="black" stroke-width="0.260655" stroke-miterlimit="10"/>
</g>
<g opacity="0.2">
<path d="M88.9918 30.667H86.8281V35.6418H88.9918V30.667Z" stroke="black" stroke-width="0.260655" stroke-miterlimit="10"/>
<path d="M91.8023 27.7031H89.6387V35.6421H91.8023V27.7031Z" stroke="black" stroke-width="0.260655" stroke-miterlimit="10"/>
<path d="M94.6168 28.7568H92.4531V35.6416H94.6168V28.7568Z" stroke="black" stroke-width="0.260655" stroke-miterlimit="10"/>
<path d="M97.4273 27.0449H95.2637V35.6413H97.4273V27.0449Z" stroke="black" stroke-width="0.260655" stroke-miterlimit="10"/>
<path d="M90.6602 25.6496L93.1767 28.1646L96.4582 25.7218L96.9853 24.8037L97.5464 25.1267L97.5436 23.4023L96.0516 24.2667L96.6113 24.5883L96.1281 25.4285L93.2177 27.595L90.5979 24.9737L87.4863 29.5362L87.8434 29.7799L90.6602 25.6496Z" stroke="black" stroke-width="0.260655" stroke-miterlimit="10"/>
</g>
<path d="M25.7945 14.1299H87.1341C87.3712 14.1299 87.6059 14.1766 87.825 14.2673C88.044 14.358 88.243 14.491 88.4106 14.6586C88.5782 14.8262 88.7112 15.0252 88.8019 15.2442C88.8926 15.4632 88.9393 15.698 88.9393 15.935V56.2845H23.9922V15.9336C23.9926 15.4556 24.1825 14.9972 24.5204 14.6591C24.8583 14.321 25.3165 14.1306 25.7945 14.1299Z" fill="#263238" stroke="#263238" stroke-width="0.260655" stroke-linecap="round" stroke-linejoin="round"/>
<path d="M78.9291 54.2549H34.2949V56.4539H78.9291V54.2549Z" fill="#263238" stroke="#263238" stroke-width="0.260655" stroke-linecap="round" stroke-linejoin="round"/>
<path d="M78.9291 55.3125H34.2949V56.4531H78.9291V55.3125Z" fill="white" stroke="#263238" stroke-width="0.260655" stroke-linecap="round" stroke-linejoin="round"/>
<path d="M18.7383 57.7568C18.7383 57.7568 19.4722 58.6523 21.6713 59.3863H91.5549C91.5549 59.3863 93.1844 58.9782 93.9169 57.8376L18.7383 57.7568Z" fill="#263238" stroke="#263238" stroke-width="0.260655" stroke-linecap="round" stroke-linejoin="round"/>
<path d="M93.5276 56.1523H19.1368C18.8347 56.1523 18.5898 56.3972 18.5898 56.6993V57.3185C18.5898 57.6205 18.8347 57.8654 19.1368 57.8654H93.5276C93.8297 57.8654 94.0746 57.6205 94.0746 57.3185V56.6993C94.0746 56.3972 93.8297 56.1523 93.5276 56.1523Z" fill="white" stroke="#263238" stroke-width="0.260655" stroke-linecap="round" stroke-linejoin="round"/>
<path d="M57.0203 15.4047C57.0203 15.2926 56.987 15.183 56.9247 15.0898C56.8625 14.9966 56.7739 14.9239 56.6704 14.881C56.5668 14.8381 56.4529 14.8269 56.3429 14.8488C56.233 14.8706 56.132 14.9246 56.0527 15.0039C55.9735 15.0832 55.9195 15.1841 55.8976 15.2941C55.8757 15.404 55.887 15.518 55.9299 15.6215C55.9728 15.7251 56.0454 15.8136 56.1386 15.8759C56.2318 15.9382 56.3414 15.9714 56.4535 15.9714C56.6038 15.9714 56.748 15.9117 56.8542 15.8054C56.9605 15.6991 57.0203 15.555 57.0203 15.4047Z" fill="#263238"/>
<path d="M24.6044 25.9913C24.5611 25.9913 24.5197 25.9741 24.4891 25.9436C24.4586 25.913 24.4414 25.8716 24.4414 25.8283V21.1044C24.4418 21.0613 24.4591 21.02 24.4895 20.9895C24.52 20.9591 24.5613 20.9418 24.6044 20.9414C24.6476 20.9414 24.689 20.9586 24.7196 20.9891C24.7501 21.0197 24.7673 21.0611 24.7673 21.1044V25.8283C24.7675 25.8498 24.7634 25.8711 24.7553 25.8909C24.7472 25.9108 24.7352 25.9288 24.72 25.944C24.7048 25.9592 24.6868 25.9712 24.6669 25.9793C24.6471 25.9874 24.6258 25.9915 24.6044 25.9913Z" fill="#263238" stroke="white" stroke-width="0.180292" stroke-linejoin="round"/>
<path d="M86.3012 17.4229H26.625V51.1468H86.3012V17.4229Z" fill="white" stroke="#263238" stroke-width="0.260655" stroke-linecap="round" stroke-linejoin="round"/>
<path d="M86.3022 17.4229H36.543V19.4179H86.3022V17.4229Z" fill="black" stroke="#263238" stroke-width="0.260655" stroke-linecap="round" stroke-linejoin="round"/>
<path d="M29.084 38.2871H70.4012" stroke="#CCCCCC" stroke-width="0.260655" stroke-linecap="round" stroke-linejoin="round"/>
<path d="M29.084 37.4346H70.4012" stroke="#CCCCCC" stroke-width="0.260655" stroke-linecap="round" stroke-linejoin="round"/>
<path d="M29.084 36.583H70.4012" stroke="#CCCCCC" stroke-width="0.260655" stroke-linecap="round" stroke-linejoin="round"/>
<path d="M29.084 35.7314H70.4012" stroke="#CCCCCC" stroke-width="0.260655" stroke-linecap="round" stroke-linejoin="round"/>
<path d="M29.084 34.875H70.4012" stroke="#CCCCCC" stroke-width="0.260655" stroke-linecap="round" stroke-linejoin="round"/>
<path d="M29.084 34.0234H70.4012" stroke="#CCCCCC" stroke-width="0.260655" stroke-linecap="round" stroke-linejoin="round"/>
<path d="M29.084 33.1709H70.4012" stroke="#CCCCCC" stroke-width="0.260655" stroke-linecap="round" stroke-linejoin="round"/>
<path d="M29.084 32.3193H70.4012" stroke="#CCCCCC" stroke-width="0.260655" stroke-linecap="round" stroke-linejoin="round"/>
<path d="M29.084 31.4629H70.4012" stroke="#CCCCCC" stroke-width="0.260655" stroke-linecap="round" stroke-linejoin="round"/>
<path d="M29.084 30.6113H70.4012" stroke="#CCCCCC" stroke-width="0.260655" stroke-linecap="round" stroke-linejoin="round"/>
<path d="M29.084 29.7588H70.4012" stroke="#CCCCCC" stroke-width="0.260655" stroke-linecap="round" stroke-linejoin="round"/>
<path d="M29.084 28.9072H70.4012" stroke="#CCCCCC" stroke-width="0.260655" stroke-linecap="round" stroke-linejoin="round"/>
<path d="M29.084 28.0547H70.4012" stroke="#CCCCCC" stroke-width="0.260655" stroke-linecap="round" stroke-linejoin="round"/>
<path d="M29.084 27.1992H70.4012" stroke="#CCCCCC" stroke-width="0.260655" stroke-linecap="round" stroke-linejoin="round"/>
<path d="M29.084 26.3467H70.4012" stroke="#CCCCCC" stroke-width="0.260655" stroke-linecap="round" stroke-linejoin="round"/>
<path d="M29.084 25.4951H70.4012" stroke="#CCCCCC" stroke-width="0.260655" stroke-linecap="round" stroke-linejoin="round"/>
<path d="M32.1169 24.5488H30.5059V38.1951H32.1169V24.5488Z" fill="black"/>
<path d="M34.2497 31.9404H32.6387V38.1947H34.2497V31.9404Z" fill="black"/>
<path d="M36.3806 33.0762H34.7695V38.1941H36.3806V33.0762Z" fill="black"/>
<path d="M38.5134 26.5361H36.9023V38.1917H38.5134V26.5361Z" fill="black"/>
<path d="M40.6462 32.3193H39.0352V38.1953H40.6462V32.3193Z" fill="black"/>
<path d="M42.779 29.6641H41.168V38.1925H42.779V29.6641Z" fill="black"/>
<path d="M44.9099 26.3467H43.2988V38.1921H44.9099V26.3467Z" fill="black"/>
<path d="M47.0427 22.7461H45.4316V38.1933H47.0427V22.7461Z" fill="black"/>
<path d="M49.1755 30.1377H47.5645V38.1929H49.1755V30.1377Z" fill="black"/>
<path d="M51.3063 33.5498H49.6953V38.193H51.3063V33.5498Z" fill="black"/>
<path d="M53.4392 35.4473H51.8281V38.1961H53.4392V35.4473Z" fill="black"/>
<path d="M55.57 33.2656H53.959V38.1937H55.57V33.2656Z" fill="black"/>
<path d="M57.7028 28.5283H56.0918V38.1945H57.7028V28.5283Z" fill="black"/>
<path d="M59.8356 36.4883H58.2246V38.1942H59.8356V36.4883Z" fill="black"/>
<path d="M61.9665 33.0762H60.3555V38.1941H61.9665V33.0762Z" fill="black"/>
<path d="M64.1013 35.3525H62.4902V38.1949H64.1013V35.3525Z" fill="black"/>
<path d="M66.2321 22.8408H64.6211V38.1931H66.2321V22.8408Z" fill="black"/>
<path d="M68.363 25.4951H66.752V38.1935H68.363V25.4951Z" fill="black"/>
<path d="M29.7104 20.8896V20.7578H29.9399V20.8896C30.1383 20.9307 30.2403 21.0837 30.2403 21.3246V21.3813H29.9753V21.3076C29.9753 21.1801 29.9243 21.1319 29.8336 21.1319C29.7429 21.1319 29.6919 21.1801 29.6919 21.3076C29.6919 21.6731 30.2374 21.6916 30.2374 22.2002C30.2374 22.4411 30.134 22.597 29.9356 22.6366V22.767H29.7061V22.6366C29.5063 22.597 29.4043 22.4411 29.4043 22.2002V22.077H29.6678V22.2187C29.6678 22.3462 29.7245 22.3915 29.8095 22.3915C29.8945 22.3915 29.9512 22.3462 29.9512 22.2187C29.9512 21.8531 29.4043 21.8347 29.4043 21.326C29.4156 21.0865 29.5148 20.9335 29.7104 20.8896Z" fill="#263238"/>
<path d="M30.8397 21.114C30.7504 21.114 30.698 21.1622 30.698 21.2897V21.4795H30.4331V21.3067C30.4331 21.0233 30.5747 20.8604 30.8496 20.8604C31.1245 20.8604 31.2676 21.0219 31.2676 21.3067C31.2676 21.8664 30.7108 22.0746 30.7108 22.3679C30.7101 22.3807 30.7101 22.3935 30.7108 22.4062H31.2407V22.6598H30.4316V22.4416C30.4316 21.9174 30.9857 21.8309 30.9857 21.318C30.9842 21.1494 30.929 21.114 30.8397 21.114Z" fill="#263238"/>
<path d="M31.4141 21.2989C31.4141 21.0155 31.5643 20.8525 31.8391 20.8525C32.114 20.8525 32.2642 21.0141 32.2642 21.2989V22.2255C32.2642 22.5089 32.114 22.6719 31.8391 22.6719C31.5643 22.6719 31.4141 22.5089 31.4141 22.2255V21.2989ZM31.6974 22.2425C31.6974 22.3701 31.7527 22.4182 31.8391 22.4182C31.9256 22.4182 31.9808 22.3701 31.9808 22.2425V21.2819C31.9808 21.1543 31.9256 21.1062 31.8391 21.1062C31.7527 21.1062 31.6974 21.1543 31.6974 21.2819V22.2425Z" fill="#263238"/>
<path d="M32.7126 22.3877V22.6569H32.4434V22.3877H32.7126Z" fill="#263238"/>
<path d="M33.4551 21.3102C33.4551 21.1487 33.3985 21.1062 33.3134 21.1062C33.2284 21.1062 33.1717 21.1543 33.1717 21.2819V21.3966H32.9082V21.2989C32.9082 21.0155 33.0499 20.8525 33.3248 20.8525C33.5997 20.8525 33.7413 21.0141 33.7413 21.2989V21.3456C33.7413 21.5355 33.6804 21.6559 33.5458 21.7112C33.6135 21.7452 33.6688 21.7996 33.7039 21.8667C33.739 21.9338 33.7521 22.0103 33.7413 22.0853V22.2269C33.7413 22.5103 33.5997 22.6733 33.3248 22.6733C33.0499 22.6733 32.9082 22.5103 32.9082 22.2269V22.0853H33.1632V22.2468C33.1632 22.3743 33.2199 22.4225 33.3049 22.4225C33.39 22.4225 33.4466 22.3786 33.4466 22.2213V22.0796C33.4466 21.9152 33.39 21.8543 33.2638 21.8543H33.1689V21.5993H33.278C33.3829 21.5993 33.4466 21.5539 33.4466 21.4122L33.4551 21.3102Z" fill="#263238"/>
<path d="M33.9057 21.3145C33.9057 21.0141 34.0474 20.8525 34.3308 20.8525C34.6142 20.8525 34.7474 21.0141 34.7474 21.2989V21.3456H34.4824V21.2819C34.4824 21.1543 34.4271 21.1062 34.3407 21.1062C34.2543 21.1062 34.1848 21.1543 34.1848 21.3244V21.6503C34.2072 21.6007 34.2441 21.5591 34.2907 21.531C34.3372 21.5029 34.3913 21.4896 34.4456 21.493C34.651 21.493 34.7544 21.6347 34.7544 21.8996V22.2255C34.7544 22.5089 34.6057 22.6719 34.3294 22.6719C34.0531 22.6719 33.9043 22.5089 33.9043 22.2255L33.9057 21.3145ZM34.1891 21.9223V22.2468C34.1891 22.3743 34.2458 22.4196 34.3308 22.4196C34.4158 22.4196 34.4725 22.3743 34.4725 22.2468V21.9266C34.4725 21.799 34.4172 21.7509 34.3308 21.7509C34.2444 21.7509 34.1848 21.7948 34.1848 21.9223H34.1891Z" fill="#263238"/>
<path d="M35.3281 22.6731C35.2684 22.679 35.2082 22.6715 35.1518 22.6511C35.0955 22.6306 35.0445 22.5977 35.0025 22.5548C34.9606 22.512 34.9289 22.4602 34.9097 22.4034C34.8905 22.3466 34.8843 22.2862 34.8917 22.2267V22.085C34.8833 22.0132 34.8951 21.9405 34.9256 21.875C34.9561 21.8095 35.0042 21.7537 35.0645 21.7138C35.0044 21.6769 34.9562 21.6235 34.9255 21.5599C34.8949 21.4964 34.8831 21.4254 34.8917 21.3553V21.2987C34.8883 21.2392 34.8971 21.1796 34.9175 21.1236C34.9379 21.0676 34.9696 21.0164 35.0105 20.9731C35.0514 20.9298 35.1008 20.8953 35.1555 20.8717C35.2102 20.8481 35.2692 20.8359 35.3288 20.8359C35.3884 20.8359 35.4473 20.8481 35.5021 20.8717C35.5568 20.8953 35.6061 20.9298 35.647 20.9731C35.688 21.0164 35.7196 21.0676 35.7401 21.1236C35.7605 21.1796 35.7693 21.2392 35.7659 21.2987V21.3553C35.7739 21.4253 35.7619 21.4961 35.7313 21.5596C35.7007 21.623 35.6528 21.6765 35.593 21.7138C35.6533 21.7537 35.7014 21.8095 35.7319 21.875C35.7625 21.9405 35.7742 22.0132 35.7659 22.085V22.2267C35.773 22.2863 35.7666 22.3467 35.7472 22.4035C35.7278 22.4603 35.696 22.512 35.654 22.5548C35.6119 22.5977 35.5609 22.6305 35.5045 22.651C35.448 22.6715 35.3878 22.679 35.3281 22.6731ZM35.1708 21.4106C35.1708 21.5523 35.2374 21.5976 35.3281 21.5976C35.4188 21.5976 35.4868 21.5523 35.4868 21.4106V21.3114C35.4868 21.1499 35.4173 21.1074 35.3281 21.1074C35.2388 21.1074 35.1708 21.1499 35.1708 21.3114V21.4106ZM35.3281 22.4194C35.4173 22.4194 35.4839 22.3755 35.4868 22.2182V22.0525C35.4868 21.9108 35.4273 21.8527 35.3281 21.8527C35.2289 21.8527 35.1708 21.9136 35.1708 22.0525V22.2182C35.1708 22.3755 35.2402 22.4194 35.3281 22.4194Z" fill="#263238"/>
<path d="M35.9355 22.6512V22.3877H36.2062V22.6286L36.0829 22.912H35.9696L36.0432 22.6583L35.9355 22.6512Z" fill="#263238"/>
<path d="M36.8177 21.114C36.7284 21.114 36.676 21.1622 36.676 21.2897V21.4795H36.4082V21.3067C36.4082 21.0233 36.5499 20.8604 36.8248 20.8604C37.0997 20.8604 37.2499 21.0219 37.2499 21.3067C37.2499 21.8664 36.693 22.0746 36.693 22.3679C36.6923 22.3807 36.6923 22.3935 36.693 22.4062H37.2229V22.6598H36.4082V22.4416C36.4082 21.9174 36.9622 21.8309 36.9622 21.318C36.9622 21.1494 36.907 21.114 36.8177 21.114Z" fill="#263238"/>
<path d="M37.9544 21.3102C37.9544 21.1487 37.8977 21.1062 37.8127 21.1062C37.7277 21.1062 37.671 21.1543 37.671 21.2819V21.3966H37.4004V21.2989C37.4004 21.0155 37.5421 20.8525 37.817 20.8525C38.0918 20.8525 38.2335 21.0141 38.2335 21.2989V21.3456C38.2335 21.5355 38.1726 21.6559 38.038 21.7112C38.1057 21.7452 38.161 21.7996 38.1961 21.8667C38.2312 21.9338 38.2443 22.0103 38.2335 22.0853V22.2269C38.2335 22.5103 38.0918 22.6733 37.817 22.6733C37.5421 22.6733 37.4004 22.5103 37.4004 22.2269V22.0853H37.6639V22.2468C37.6639 22.3743 37.7206 22.4225 37.8056 22.4225C37.8906 22.4225 37.9473 22.3786 37.9473 22.2213V22.0796C37.9473 21.9152 37.8906 21.8543 37.7645 21.8543H37.6696V21.5993H37.7787C37.8836 21.5993 37.9473 21.5539 37.9473 21.4122L37.9544 21.3102Z" fill="#263238"/>
<path d="M84.5278 21.1035H71.332V38.2482H84.5278V21.1035Z" fill="#263238"/>
<path d="M73.6172 22.1533H75.3642" stroke="#757575" stroke-width="0.260655" stroke-miterlimit="10"/>
<path d="M76.3477 22.1533H78.0947" stroke="#757575" stroke-width="0.260655" stroke-miterlimit="10"/>
<path d="M79.0781 22.1533H80.8252" stroke="#757575" stroke-width="0.260655" stroke-miterlimit="10"/>
<path d="M81.8066 22.1533H83.5537" stroke="#757575" stroke-width="0.260655" stroke-miterlimit="10"/>
<path d="M75.8633 21.3584V38.01" stroke="white" stroke-width="0.260655" stroke-miterlimit="10"/>
<path d="M73.1289 21.3584V38.01" stroke="white" stroke-width="0.260655" stroke-miterlimit="10"/>
<path d="M78.6406 21.3584V38.01" stroke="white" stroke-width="0.260655" stroke-miterlimit="10"/>
<path d="M81.418 21.3584V38.01" stroke="white" stroke-width="0.260655" stroke-miterlimit="10"/>
<path d="M72.328 21.8154L72.0078 22.3723H72.6497L72.328 21.8154Z" fill="white"/>
<path d="M73.6172 23.4453H75.3642" stroke="#757575" stroke-width="0.260655" stroke-miterlimit="10"/>
<path d="M76.3477 23.4453H78.0947" stroke="#757575" stroke-width="0.260655" stroke-miterlimit="10"/>
<path d="M79.0781 23.4453H80.8252" stroke="#757575" stroke-width="0.260655" stroke-miterlimit="10"/>
<path d="M81.8066 23.4453H83.5537" stroke="#757575" stroke-width="0.260655" stroke-miterlimit="10"/>
<path d="M72.328 23.6652L72.6497 23.1084H72.0078L72.328 23.6652Z" fill="black"/>
<path d="M73.6172 24.7334H75.3642" stroke="#757575" stroke-width="0.260655" stroke-miterlimit="10"/>
<path d="M76.3477 24.7334H78.0947" stroke="#757575" stroke-width="0.260655" stroke-miterlimit="10"/>
<path d="M79.0781 24.7334H80.8252" stroke="#757575" stroke-width="0.260655" stroke-miterlimit="10"/>
<path d="M81.8066 24.7334H83.5537" stroke="#757575" stroke-width="0.260655" stroke-miterlimit="10"/>
<path d="M72.328 24.3965L72.0078 24.9533H72.6497L72.328 24.3965Z" fill="white"/>
<path d="M73.6172 26.0264H75.3642" stroke="#757575" stroke-width="0.260655" stroke-miterlimit="10"/>
<path d="M76.3477 26.0264H78.0947" stroke="#757575" stroke-width="0.260655" stroke-miterlimit="10"/>
<path d="M79.0781 26.0264H80.8252" stroke="#757575" stroke-width="0.260655" stroke-miterlimit="10"/>
<path d="M81.8066 26.0264H83.5537" stroke="#757575" stroke-width="0.260655" stroke-miterlimit="10"/>
<path d="M72.328 26.2439L72.6497 25.6885H72.0078L72.328 26.2439Z" fill="black"/>
<path d="M73.6172 27.3184H75.3642" stroke="#757575" stroke-width="0.260655" stroke-miterlimit="10"/>
<path d="M76.3477 27.3184H78.0947" stroke="#757575" stroke-width="0.260655" stroke-miterlimit="10"/>
<path d="M79.0781 27.3184H80.8252" stroke="#757575" stroke-width="0.260655" stroke-miterlimit="10"/>
<path d="M81.8066 27.3184H83.5537" stroke="#757575" stroke-width="0.260655" stroke-miterlimit="10"/>
<path d="M72.328 27.5359L72.6497 26.9805H72.0078L72.328 27.5359Z" fill="black"/>
<path d="M73.6172 28.6064H75.3642" stroke="#757575" stroke-width="0.260655" stroke-miterlimit="10"/>
<path d="M76.3477 28.6064H78.0947" stroke="#757575" stroke-width="0.260655" stroke-miterlimit="10"/>
<path d="M79.0781 28.6064H80.8252" stroke="#757575" stroke-width="0.260655" stroke-miterlimit="10"/>
<path d="M81.8066 28.6064H83.5537" stroke="#757575" stroke-width="0.260655" stroke-miterlimit="10"/>
<path d="M72.328 28.825L72.6497 28.2695H72.0078L72.328 28.825Z" fill="black"/>
<path d="M73.6172 29.8994H75.3642" stroke="#757575" stroke-width="0.260655" stroke-miterlimit="10"/>
<path d="M76.3477 29.8994H78.0947" stroke="#757575" stroke-width="0.260655" stroke-miterlimit="10"/>
<path d="M79.0781 29.8994H80.8252" stroke="#757575" stroke-width="0.260655" stroke-miterlimit="10"/>
<path d="M81.8066 29.8994H83.5537" stroke="#757575" stroke-width="0.260655" stroke-miterlimit="10"/>
<path d="M72.328 29.5615L72.0078 30.1184H72.6497L72.328 29.5615Z" fill="white"/>
<path d="M73.6172 31.1875H75.3642" stroke="#757575" stroke-width="0.260655" stroke-miterlimit="10"/>
<path d="M76.3477 31.1875H78.0947" stroke="#757575" stroke-width="0.260655" stroke-miterlimit="10"/>
<path d="M79.0781 31.1875H80.8252" stroke="#757575" stroke-width="0.260655" stroke-miterlimit="10"/>
<path d="M81.8066 31.1875H83.5537" stroke="#757575" stroke-width="0.260655" stroke-miterlimit="10"/>
<path d="M72.328 30.8496L72.0078 31.4065H72.6497L72.328 30.8496Z" fill="white"/>
<path d="M73.6172 32.4795H75.3642" stroke="#757575" stroke-width="0.260655" stroke-miterlimit="10"/>
<path d="M76.3477 32.4795H78.0947" stroke="#757575" stroke-width="0.260655" stroke-miterlimit="10"/>
<path d="M79.0781 32.4795H80.8252" stroke="#757575" stroke-width="0.260655" stroke-miterlimit="10"/>
<path d="M81.8066 32.4795H83.5537" stroke="#757575" stroke-width="0.260655" stroke-miterlimit="10"/>
<path d="M72.328 32.6985L72.6497 32.1416H72.0078L72.328 32.6985Z" fill="black"/>
<path d="M73.6172 33.7676H75.3642" stroke="#757575" stroke-width="0.260655" stroke-miterlimit="10"/>
<path d="M76.3477 33.7676H78.0947" stroke="#757575" stroke-width="0.260655" stroke-miterlimit="10"/>
<path d="M79.0781 33.7676H80.8252" stroke="#757575" stroke-width="0.260655" stroke-miterlimit="10"/>
<path d="M81.8066 33.7676H83.5537" stroke="#757575" stroke-width="0.260655" stroke-miterlimit="10"/>
<path d="M72.328 33.4307L72.0078 33.9875H72.6497L72.328 33.4307Z" fill="white"/>
<path d="M73.6172 35.0605H75.3642" stroke="#757575" stroke-width="0.260655" stroke-miterlimit="10"/>
<path d="M76.3477 35.0605H78.0947" stroke="#757575" stroke-width="0.260655" stroke-miterlimit="10"/>
<path d="M79.0781 35.0605H80.8252" stroke="#757575" stroke-width="0.260655" stroke-miterlimit="10"/>
<path d="M81.8066 35.0605H83.5537" stroke="#757575" stroke-width="0.260655" stroke-miterlimit="10"/>
<path d="M72.328 35.2781L72.6497 34.7227H72.0078L72.328 35.2781Z" fill="black"/>
<path d="M71.8301 22.75H84.187" stroke="white" stroke-width="0.260655" stroke-miterlimit="10"/>
<path d="M71.8301 24.042H84.187" stroke="white" stroke-width="0.260655" stroke-miterlimit="10"/>
<path d="M71.8301 25.335H84.187" stroke="white" stroke-width="0.260655" stroke-miterlimit="10"/>
<path d="M71.8301 26.623H84.187" stroke="white" stroke-width="0.260655" stroke-miterlimit="10"/>
<path d="M71.8301 27.915H84.187" stroke="white" stroke-width="0.260655" stroke-miterlimit="10"/>
<path d="M71.8301 29.208H84.187" stroke="white" stroke-width="0.260655" stroke-miterlimit="10"/>
<path d="M71.8301 30.4961H84.187" stroke="white" stroke-width="0.260655" stroke-miterlimit="10"/>
<path d="M71.8301 31.7842H84.187" stroke="white" stroke-width="0.260655" stroke-miterlimit="10"/>
<path d="M71.8301 33.0762H84.187" stroke="white" stroke-width="0.260655" stroke-miterlimit="10"/>
<path d="M71.8301 34.3691H84.187" stroke="white" stroke-width="0.260655" stroke-miterlimit="10"/>
<path d="M71.8301 35.6572H84.187" stroke="white" stroke-width="0.260655" stroke-miterlimit="10"/>
<path d="M71.8301 36.9492H84.187" stroke="white" stroke-width="0.260655" stroke-miterlimit="10"/>
<path d="M73.6172 36.3525H75.3642" stroke="#757575" stroke-width="0.260655" stroke-miterlimit="10"/>
<path d="M76.3477 36.3525H78.0947" stroke="#757575" stroke-width="0.260655" stroke-miterlimit="10"/>
<path d="M79.0781 36.3525H80.8252" stroke="#757575" stroke-width="0.260655" stroke-miterlimit="10"/>
<path d="M81.8066 36.3525H83.5537" stroke="#757575" stroke-width="0.260655" stroke-miterlimit="10"/>
<path d="M72.328 36.0146L72.0078 36.5701H72.6497L72.328 36.0146Z" fill="white"/>
<path d="M73.6172 37.6406H75.3642" stroke="#757575" stroke-width="0.260655" stroke-miterlimit="10"/>
<path d="M76.3477 37.6406H78.0947" stroke="#757575" stroke-width="0.260655" stroke-miterlimit="10"/>
<path d="M79.0781 37.6406H80.8252" stroke="#757575" stroke-width="0.260655" stroke-miterlimit="10"/>
<path d="M81.8066 37.6406H83.5537" stroke="#757575" stroke-width="0.260655" stroke-miterlimit="10"/>
<path d="M72.328 37.8606L72.6497 37.3037H72.0078L72.328 37.8606Z" fill="black"/>
<path d="M69.112 43.1697C69.112 42.9501 69.2126 42.8311 69.4252 42.8311C69.6377 42.8311 69.7298 42.9501 69.7298 43.1584V43.1924H69.5357V43.1456C69.5357 43.0521 69.496 43.0167 69.4308 43.0167C69.3657 43.0167 69.3175 43.0521 69.3175 43.1768V43.4148C69.3334 43.3787 69.36 43.3483 69.3937 43.3278C69.4274 43.3073 69.4666 43.2976 69.5059 43.3001C69.6575 43.3001 69.7341 43.4063 69.7341 43.5976V43.8356C69.7369 43.8783 69.731 43.921 69.7167 43.9612C69.7024 44.0015 69.6799 44.0383 69.6508 44.0695C69.6216 44.1007 69.5864 44.1256 69.5472 44.1426C69.508 44.1596 69.4658 44.1684 69.423 44.1684C69.3803 44.1684 69.3381 44.1596 69.2989 44.1426C69.2597 44.1256 69.2245 44.1007 69.1953 44.0695C69.1662 44.0383 69.1437 44.0015 69.1294 43.9612C69.1151 43.921 69.1092 43.8783 69.112 43.8356V43.1697ZM69.3175 43.6146V43.8484C69.3175 43.9419 69.3572 43.9759 69.4223 43.9759C69.4875 43.9759 69.5286 43.9419 69.5286 43.8484V43.6146C69.5286 43.5211 69.4875 43.4857 69.4223 43.4857C69.3572 43.4857 69.3175 43.5211 69.3175 43.6146Z" fill="#263238"/>
<path d="M69.8484 43.1599C69.8455 43.1173 69.8514 43.0745 69.8657 43.0343C69.88 42.9941 69.9025 42.9572 69.9316 42.926C69.9608 42.8948 69.9961 42.8699 70.0352 42.8529C70.0744 42.8359 70.1167 42.8271 70.1594 42.8271C70.2021 42.8271 70.2443 42.8359 70.2835 42.8529C70.3227 42.8699 70.3579 42.8948 70.3871 42.926C70.4163 42.9572 70.4387 42.9941 70.453 43.0343C70.4674 43.0745 70.4733 43.1173 70.4704 43.1599V43.8372C70.4733 43.8798 70.4674 43.9225 70.453 43.9627C70.4387 44.003 70.4163 44.0398 70.3871 44.071C70.3579 44.1022 70.3227 44.1271 70.2835 44.1441C70.2443 44.1611 70.2021 44.1699 70.1594 44.1699C70.1167 44.1699 70.0744 44.1611 70.0352 44.1441C69.9961 44.1271 69.9608 44.1022 69.9316 44.071C69.9025 44.0398 69.88 44.003 69.8657 43.9627C69.8514 43.9225 69.8455 43.8798 69.8484 43.8372V43.1599ZM70.0524 43.8499C70.0524 43.9434 70.0935 43.9788 70.1587 43.9788C70.2238 43.9788 70.2649 43.9434 70.2649 43.8499V43.1415C70.2649 43.0479 70.2238 43.0125 70.1587 43.0125C70.0935 43.0125 70.0524 43.0479 70.0524 43.1415V43.8499Z" fill="#263238"/>
<path d="M70.5906 43.0462C70.5882 43.0188 70.5916 42.9913 70.6005 42.9653C70.6094 42.9393 70.6236 42.9154 70.6421 42.8952C70.6607 42.875 70.6833 42.8588 70.7084 42.8478C70.7336 42.8368 70.7607 42.8311 70.7882 42.8311C70.8157 42.8311 70.8428 42.8368 70.868 42.8478C70.8931 42.8588 70.9157 42.875 70.9343 42.8952C70.9529 42.9154 70.967 42.9393 70.9759 42.9653C70.9848 42.9913 70.9882 43.0188 70.9859 43.0462V43.4712C70.9882 43.4986 70.9848 43.5262 70.9759 43.5521C70.967 43.5781 70.9529 43.602 70.9343 43.6222C70.9157 43.6424 70.8931 43.6586 70.868 43.6696C70.8428 43.6807 70.8157 43.6864 70.7882 43.6864C70.7607 43.6864 70.7336 43.6807 70.7084 43.6696C70.6833 43.6586 70.6607 43.6424 70.6421 43.6222C70.6236 43.602 70.6094 43.5781 70.6005 43.5521C70.5916 43.5262 70.5882 43.4986 70.5906 43.4712V43.0462ZM70.7209 43.484C70.7209 43.5407 70.745 43.5648 70.7875 43.5648C70.83 43.5648 70.8555 43.5407 70.8555 43.484V43.0363C70.8555 42.9782 70.8286 42.9541 70.7875 42.9541C70.7464 42.9541 70.7209 42.9782 70.7209 43.0363V43.484ZM71.3018 42.8464H71.4209L70.9079 44.1499H70.7861L71.3018 42.8464ZM71.2367 43.5223C71.2343 43.4949 71.2377 43.4673 71.2466 43.4414C71.2555 43.4154 71.2697 43.3915 71.2883 43.3713C71.3068 43.3511 71.3294 43.3349 71.3546 43.3239C71.3797 43.3128 71.4069 43.3071 71.4343 43.3071C71.4618 43.3071 71.4889 43.3128 71.5141 43.3239C71.5392 43.3349 71.5618 43.3511 71.5804 43.3713C71.599 43.3915 71.6132 43.4154 71.622 43.4414C71.6309 43.4673 71.6343 43.4949 71.632 43.5223V43.9473C71.6343 43.9747 71.6309 44.0022 71.622 44.0282C71.6132 44.0542 71.599 44.0781 71.5804 44.0983C71.5618 44.1185 71.5392 44.1347 71.5141 44.1457C71.4889 44.1567 71.4618 44.1624 71.4343 44.1624C71.4069 44.1624 71.3797 44.1567 71.3546 44.1457C71.3294 44.1347 71.3068 44.1185 71.2883 44.0983C71.2697 44.0781 71.2555 44.0542 71.2466 44.0282C71.2377 44.0022 71.2343 43.9747 71.2367 43.9473V43.5223ZM71.367 43.9601C71.367 44.0182 71.3911 44.0423 71.4336 44.0423C71.4761 44.0423 71.5016 44.0182 71.5016 43.9601V43.5123C71.5016 43.4557 71.4747 43.4316 71.4336 43.4316C71.3925 43.4316 71.367 43.4557 71.367 43.5123V43.9601Z" fill="#263238"/>
<path d="M69.5196 45.2134C69.5196 45.0957 69.4786 45.0717 69.4134 45.0717C69.3482 45.0717 69.3071 45.1057 69.3071 45.1992V45.2828H69.113V45.2006C69.1061 45.1579 69.1091 45.1142 69.1217 45.0728C69.1343 45.0314 69.1562 44.9935 69.1858 44.9619C69.2153 44.9303 69.2517 44.9059 69.2921 44.8905C69.3326 44.8752 69.376 44.8693 69.419 44.8733C69.6203 44.8733 69.7237 44.9923 69.7237 45.2006V45.2346C69.732 45.2885 69.7227 45.3437 69.6972 45.392C69.6717 45.4402 69.6313 45.479 69.582 45.5024C69.631 45.5277 69.671 45.5676 69.6964 45.6166C69.7218 45.6656 69.7313 45.7212 69.7237 45.7759V45.8793C69.7237 46.0876 69.6203 46.2066 69.419 46.2066C69.376 46.2106 69.3326 46.2047 69.2921 46.1894C69.2517 46.174 69.2153 46.1496 69.1858 46.118C69.1562 46.0864 69.1343 46.0485 69.1217 46.0071C69.1091 45.9657 69.1061 45.922 69.113 45.8793V45.7702H69.3071V45.8921C69.3071 45.9842 69.3482 46.0196 69.4134 46.0196C69.4786 46.0196 69.5196 45.9884 69.5196 45.8779V45.7744C69.5196 45.654 69.4786 45.6087 69.378 45.6087H69.3099V45.4231H69.3893C69.4658 45.4231 69.5126 45.3891 69.5126 45.2814L69.5196 45.2134Z" fill="#263238"/>
<path d="M69.8484 45.2009C69.8455 45.1583 69.8514 45.1155 69.8657 45.0753C69.88 45.0351 69.9025 44.9982 69.9316 44.967C69.9608 44.9358 69.9961 44.9109 70.0352 44.8939C70.0744 44.8769 70.1167 44.8682 70.1594 44.8682C70.2021 44.8682 70.2443 44.8769 70.2835 44.8939C70.3227 44.9109 70.3579 44.9358 70.3871 44.967C70.4163 44.9982 70.4387 45.0351 70.453 45.0753C70.4674 45.1155 70.4733 45.1583 70.4704 45.2009V45.8796C70.4733 45.9222 70.4674 45.9649 70.453 46.0052C70.4387 46.0454 70.4163 46.0823 70.3871 46.1135C70.3579 46.1447 70.3227 46.1695 70.2835 46.1865C70.2443 46.2035 70.2021 46.2123 70.1594 46.2123C70.1167 46.2123 70.0744 46.2035 70.0352 46.1865C69.9961 46.1695 69.9608 46.1447 69.9316 46.1135C69.9025 46.0823 69.88 46.0454 69.8657 46.0052C69.8514 45.9649 69.8455 45.9222 69.8484 45.8796V45.2009ZM70.0524 45.8923C70.0524 45.9844 70.0935 46.0199 70.1587 46.0199C70.2238 46.0199 70.2649 45.9844 70.2649 45.8923V45.1839C70.2649 45.0904 70.2238 45.0564 70.1587 45.0564C70.0935 45.0564 70.0524 45.0904 70.0524 45.1839V45.8923Z" fill="#263238"/>
<path d="M70.5906 45.0911C70.5882 45.0637 70.5916 45.0362 70.6005 45.0102C70.6094 44.9842 70.6236 44.9604 70.6421 44.9401C70.6607 44.9199 70.6833 44.9038 70.7084 44.8927C70.7336 44.8817 70.7607 44.876 70.7882 44.876C70.8157 44.876 70.8428 44.8817 70.868 44.8927C70.8931 44.9038 70.9157 44.9199 70.9343 44.9401C70.9529 44.9604 70.967 44.9842 70.9759 45.0102C70.9848 45.0362 70.9882 45.0637 70.9859 45.0911V45.5162C70.9882 45.5435 70.9848 45.5711 70.9759 45.5971C70.967 45.6231 70.9529 45.6469 70.9343 45.6671C70.9157 45.6874 70.8931 45.7035 70.868 45.7145C70.8428 45.7256 70.8157 45.7313 70.7882 45.7313C70.7607 45.7313 70.7336 45.7256 70.7084 45.7145C70.6833 45.7035 70.6607 45.6874 70.6421 45.6671C70.6236 45.6469 70.6094 45.6231 70.6005 45.5971C70.5916 45.5711 70.5882 45.5435 70.5906 45.5162V45.0911ZM70.7209 45.5289C70.7209 45.587 70.745 45.6111 70.7875 45.6111C70.83 45.6111 70.8555 45.587 70.8555 45.5289V45.0826C70.8555 45.0245 70.8286 45.0004 70.7875 45.0004C70.7464 45.0004 70.7209 45.0245 70.7209 45.0826V45.5289ZM71.3018 44.8927H71.4209L70.9094 46.192H70.7875L71.3018 44.8927ZM71.2367 45.5672C71.2343 45.5398 71.2377 45.5123 71.2466 45.4863C71.2555 45.4603 71.2697 45.4364 71.2883 45.4162C71.3068 45.396 71.3294 45.3798 71.3546 45.3688C71.3797 45.3578 71.4069 45.3521 71.4343 45.3521C71.4618 45.3521 71.4889 45.3578 71.5141 45.3688C71.5392 45.3798 71.5618 45.396 71.5804 45.4162C71.599 45.4364 71.6132 45.4603 71.622 45.4863C71.6309 45.5123 71.6343 45.5398 71.632 45.5672V45.9923C71.6343 46.0196 71.6309 46.0472 71.622 46.0732C71.6132 46.0991 71.599 46.123 71.5804 46.1432C71.5618 46.1634 71.5392 46.1796 71.5141 46.1906C71.4889 46.2017 71.4618 46.2074 71.4343 46.2074C71.4069 46.2074 71.3797 46.2017 71.3546 46.1906C71.3294 46.1796 71.3068 46.1634 71.2883 46.1432C71.2697 46.123 71.2555 46.0991 71.2466 46.0732C71.2377 46.0472 71.2343 46.0196 71.2367 45.9923V45.5672ZM71.367 46.005C71.367 46.0631 71.3911 46.0872 71.4336 46.0872C71.4761 46.0872 71.5016 46.0631 71.5016 46.005V45.5587C71.5016 45.5006 71.4747 45.4765 71.4336 45.4765C71.3925 45.4765 71.367 45.5006 71.367 45.5587V46.005Z" fill="#263238"/>
<path d="M69.4271 47.1098C69.3619 47.1098 69.3208 47.1452 69.3208 47.2387V47.3804H69.1267V47.2543C69.1198 47.2116 69.1228 47.1679 69.1354 47.1265C69.148 47.0851 69.1699 47.0472 69.1994 47.0156C69.229 46.984 69.2654 46.9596 69.3058 46.9442C69.3462 46.9289 69.3896 46.923 69.4327 46.927C69.6325 46.927 69.7374 47.046 69.7374 47.2543C69.7374 47.6638 69.3293 47.8211 69.3293 48.0308C69.3279 48.0397 69.3279 48.0488 69.3293 48.0577H69.7204V48.2447H69.1281V48.0846C69.1281 47.7006 69.5347 47.6369 69.5347 47.2614C69.5333 47.141 69.4922 47.1098 69.4271 47.1098Z" fill="#263238"/>
<path d="M69.8484 47.2546C69.8455 47.212 69.8514 47.1692 69.8657 47.129C69.88 47.0888 69.9025 47.0519 69.9316 47.0207C69.9608 46.9895 69.9961 46.9647 70.0352 46.9477C70.0744 46.9306 70.1167 46.9219 70.1594 46.9219C70.2021 46.9219 70.2443 46.9306 70.2835 46.9477C70.3227 46.9647 70.3579 46.9895 70.3871 47.0207C70.4163 47.0519 70.4387 47.0888 70.453 47.129C70.4674 47.1692 70.4733 47.212 70.4704 47.2546V47.9319C70.4733 47.9745 70.4674 48.0172 70.453 48.0575C70.4387 48.0977 70.4163 48.1346 70.3871 48.1658C70.3579 48.197 70.3227 48.2218 70.2835 48.2388C70.2443 48.2558 70.2021 48.2646 70.1594 48.2646C70.1167 48.2646 70.0744 48.2558 70.0352 48.2388C69.9961 48.2218 69.9608 48.197 69.9316 48.1658C69.9025 48.1346 69.88 48.0977 69.8657 48.0575C69.8514 48.0172 69.8455 47.9745 69.8484 47.9319V47.2546ZM70.0524 47.9446C70.0524 48.0382 70.0935 48.0736 70.1587 48.0736C70.2238 48.0736 70.2649 48.0382 70.2649 47.9446V47.2362C70.2649 47.1427 70.2238 47.1072 70.1587 47.1072C70.0935 47.1072 70.0524 47.1427 70.0524 47.2362V47.9446Z" fill="#263238"/>
<path d="M70.5906 47.1409C70.5882 47.1135 70.5916 47.086 70.6005 47.06C70.6094 47.034 70.6236 47.0102 70.6421 46.9899C70.6607 46.9697 70.6833 46.9536 70.7084 46.9425C70.7336 46.9315 70.7607 46.9258 70.7882 46.9258C70.8157 46.9258 70.8428 46.9315 70.868 46.9425C70.8931 46.9536 70.9157 46.9697 70.9343 46.9899C70.9529 47.0102 70.967 47.034 70.9759 47.06C70.9848 47.086 70.9882 47.1135 70.9859 47.1409V47.566C70.9882 47.5933 70.9848 47.6209 70.9759 47.6469C70.967 47.6729 70.9529 47.6967 70.9343 47.7169C70.9157 47.7372 70.8931 47.7533 70.868 47.7644C70.8428 47.7754 70.8157 47.7811 70.7882 47.7811C70.7607 47.7811 70.7336 47.7754 70.7084 47.7644C70.6833 47.7533 70.6607 47.7372 70.6421 47.7169C70.6236 47.6967 70.6094 47.6729 70.6005 47.6469C70.5916 47.6209 70.5882 47.5933 70.5906 47.566V47.1409ZM70.7209 47.5773C70.7209 47.6354 70.745 47.6595 70.7875 47.6595C70.83 47.6595 70.8555 47.6354 70.8555 47.5773V47.131C70.8555 47.0729 70.8286 47.0488 70.7875 47.0488C70.7464 47.0488 70.7209 47.0729 70.7209 47.131V47.5773ZM71.3018 46.9411H71.4209L70.9079 48.2447H70.7861L71.3018 46.9411ZM71.2367 47.6113C71.2343 47.584 71.2377 47.5564 71.2466 47.5304C71.2555 47.5044 71.2697 47.4806 71.2883 47.4603C71.3068 47.4401 71.3294 47.424 71.3546 47.4129C71.3797 47.4019 71.4069 47.3962 71.4343 47.3962C71.4618 47.3962 71.4889 47.4019 71.5141 47.4129C71.5392 47.424 71.5618 47.4401 71.5804 47.4603C71.599 47.4806 71.6132 47.5044 71.622 47.5304C71.6309 47.5564 71.6343 47.584 71.632 47.6113V48.0364C71.6343 48.0638 71.6309 48.0913 71.622 48.1173C71.6132 48.1433 71.599 48.1671 71.5804 48.1874C71.5618 48.2076 71.5392 48.2237 71.5141 48.2348C71.4889 48.2458 71.4618 48.2515 71.4343 48.2515C71.4069 48.2515 71.3797 48.2458 71.3546 48.2348C71.3294 48.2237 71.3068 48.2076 71.2883 48.1874C71.2697 48.1671 71.2555 48.1433 71.2466 48.1173C71.2377 48.0913 71.2343 48.0638 71.2367 48.0364V47.6113ZM71.367 48.0491C71.367 48.1072 71.3911 48.1313 71.4336 48.1313C71.4761 48.1313 71.5016 48.1072 71.5016 48.0491V47.6113C71.5016 47.5546 71.4747 47.5306 71.4336 47.5306C71.3925 47.5306 71.367 47.5546 71.367 47.6113V48.0491Z" fill="#263238"/>
<path d="M60.4221 48.4459C60.0562 48.2118 59.742 47.9054 59.4987 47.5456C59.2554 47.1858 59.0881 46.78 59.0071 46.3533C58.9261 45.9265 58.9331 45.4877 59.0277 45.0638C59.1222 44.6398 59.3023 44.2396 59.5569 43.8877C59.8116 43.5358 60.1354 43.2396 60.5085 43.0172C60.8816 42.7949 61.2962 42.651 61.7269 42.5945C62.1576 42.538 62.5953 42.57 63.0132 42.6886C63.431 42.8072 63.8203 43.0098 64.1571 43.2841" stroke="#263238" stroke-width="1.56393" stroke-linejoin="round"/>
<path d="M64.6882 47.7002C64.2014 48.3384 63.4921 48.7699 62.7015 48.9088C61.911 49.0477 61.0971 48.8838 60.4219 48.4497" stroke="#757575" stroke-width="1.56393" stroke-linejoin="round"/>
<path d="M64.1543 43.2832C64.7991 43.8053 65.2152 44.5579 65.3144 45.3816C65.4136 46.2053 65.1881 47.0353 64.6856 47.6955" stroke="black" stroke-width="1.56393" stroke-linejoin="round"/>
<path d="M67.6858 44.1235C67.9847 44.1235 68.2271 43.8812 68.2271 43.5823C68.2271 43.2833 67.9847 43.041 67.6858 43.041C67.3869 43.041 67.1445 43.2833 67.1445 43.5823C67.1445 43.8812 67.3869 44.1235 67.6858 44.1235Z" fill="#263238"/>
<path d="M67.6858 46.1069C67.9847 46.1069 68.2271 45.8646 68.2271 45.5657C68.2271 45.2667 67.9847 45.0244 67.6858 45.0244C67.3869 45.0244 67.1445 45.2667 67.1445 45.5657C67.1445 45.8646 67.3869 46.1069 67.6858 46.1069Z" fill="#C4F0D1"/>
<path d="M67.6858 48.0952C67.9847 48.0952 68.2271 47.8529 68.2271 47.554C68.2271 47.255 67.9847 47.0127 67.6858 47.0127C67.3869 47.0127 67.1445 47.255 67.1445 47.554C67.1445 47.8529 67.3869 48.0952 67.6858 48.0952Z" fill="#757575"/>
<path d="M71.9067 40.1182H59.377V40.5475H71.9067V40.1182Z" fill="#CCCCCC"/>
<path d="M30.9512 41.543H55.9243" stroke="#CCCCCC" stroke-width="0.260655" stroke-linecap="round" stroke-linejoin="round"/>
<path d="M30.9512 42.7119H55.9243" stroke="#CCCCCC" stroke-width="0.260655" stroke-linecap="round" stroke-linejoin="round"/>
<path d="M30.9512 43.8799H55.9243" stroke="#CCCCCC" stroke-width="0.260655" stroke-linecap="round" stroke-linejoin="round"/>
<path d="M30.9512 45.0488H55.9243" stroke="#CCCCCC" stroke-width="0.260655" stroke-linecap="round" stroke-linejoin="round"/>
<path d="M30.9512 46.2178H55.9243" stroke="#CCCCCC" stroke-width="0.260655" stroke-linecap="round" stroke-linejoin="round"/>
<path d="M30.9512 47.3867H55.9243" stroke="#CCCCCC" stroke-width="0.260655" stroke-linecap="round" stroke-linejoin="round"/>
<path d="M30.9512 48.5557H55.9243" stroke="#CCCCCC" stroke-width="0.260655" stroke-linecap="round" stroke-linejoin="round"/>
<path d="M30.9512 49.7246H55.9243" stroke="#CCCCCC" stroke-width="0.260655" stroke-linecap="round" stroke-linejoin="round"/>
<path d="M29.1816 41.543H30.3846" stroke="#CCCCCC" stroke-width="0.260655" stroke-linecap="round" stroke-linejoin="round"/>
<path d="M29.1816 42.7119H30.3846" stroke="#CCCCCC" stroke-width="0.260655" stroke-linecap="round" stroke-linejoin="round"/>
<path d="M29.1816 43.8799H30.3846" stroke="#CCCCCC" stroke-width="0.260655" stroke-linecap="round" stroke-linejoin="round"/>
<path d="M29.1816 45.0488H30.3846" stroke="#CCCCCC" stroke-width="0.260655" stroke-linecap="round" stroke-linejoin="round"/>
<path d="M29.1816 46.2178H30.3846" stroke="#CCCCCC" stroke-width="0.260655" stroke-linecap="round" stroke-linejoin="round"/>
<path d="M29.1816 47.3867H30.3846" stroke="#CCCCCC" stroke-width="0.260655" stroke-linecap="round" stroke-linejoin="round"/>
<path d="M29.1816 48.5557H30.3846" stroke="#CCCCCC" stroke-width="0.260655" stroke-linecap="round" stroke-linejoin="round"/>
<path d="M29.1816 49.7246H30.3846" stroke="#CCCCCC" stroke-width="0.260655" stroke-linecap="round" stroke-linejoin="round"/>
<path d="M31.3945 44.2324L31.6921 43.9674L31.8579 44.3656L32.2546 44.1006L32.3878 44.4322L32.7519 43.4715L32.9177 43.7691L33.0169 44.3982L33.381 44.5314L33.5468 45.0939L33.7792 45.3262L33.9776 44.8615L34.4409 45.8222L34.6393 45.7556L35.07 48.2068L35.2358 47.8427L35.5333 48.571L35.9967 45.723L36.3948 46.3847L36.7264 45.7556L36.9573 46.2855L37.2549 46.0205L37.4873 46.5845L38.0172 46.0205L38.2496 46.7502L38.7781 47.0152L39.043 46.3847L39.3094 46.3521L39.5404 45.9554H39.7727L39.9371 46.9146L40.2035 45.9213L40.5336 45.8562L40.8652 45.6238L41.1627 45.8222L41.3951 46.7162L41.6261 46.5505L42.0242 47.2136L42.2552 46.8154L42.455 47.2136L42.6207 47.0804L42.8857 47.147L43.3816 46.4853L43.7132 46.8494L43.9441 46.1863L44.2091 46.3847L44.4741 44.7963L44.6739 45.0273L45.1032 43.5381H45.269L45.3681 42.8084L45.6997 42.7758L45.8315 42.0475L46.163 42.9416L46.3614 42.5448L46.5938 44.034L46.8913 44.1332L47.0571 43.6373L47.621 43.2391L47.9186 43.9674L47.9512 45.2596L48.3493 45.458L48.7135 44.7963L49.011 44.8955L49.3752 44.8615L49.6076 45.3262L49.8725 44.6971H50.0709L50.7 46.1211L50.8658 45.6238L51.1307 45.6564L51.4609 46.4513L51.825 45.8888L52.09 43.2065L52.4541 43.6373L52.5873 41.5176L52.9189 41.9143L53.0847 43.0408L53.4814 42.875L53.779 43.8031L54.0113 43.9022L54.1431 45.6238L54.3429 45.2271L54.4421 44.7623L54.972 44.8955L55.2029 44.7623L55.6337 45.3588" stroke="black" stroke-width="0.52131" stroke-miterlimit="10"/>
<path d="M32.29 39.4766H29.3145V40.9842H32.29V39.4766Z" fill="white" stroke="#263238" stroke-width="0.260655" stroke-linecap="round" stroke-linejoin="round"/>
<path d="M32.2901 39.4766V39.835C32.195 39.835 32.1039 39.7973 32.0366 39.73C31.9694 39.6628 31.9316 39.5716 31.9316 39.4766H32.2901Z" fill="white" stroke="#263238" stroke-width="0.260655" stroke-linecap="round" stroke-linejoin="round"/>
<path d="M31.9336 40.9819C31.9336 40.9663 31.9336 40.9507 31.9336 40.9337C31.9336 40.8386 31.9714 40.7474 32.0386 40.6802C32.1058 40.613 32.197 40.5752 32.2921 40.5752" fill="white"/>
<path d="M31.9336 40.9819C31.9336 40.9663 31.9336 40.9507 31.9336 40.9337C31.9336 40.8386 31.9714 40.7474 32.0386 40.6802C32.1058 40.613 32.197 40.5752 32.2921 40.5752" stroke="#263238" stroke-width="0.260655" stroke-linecap="round" stroke-linejoin="round"/>
<path d="M29.3145 39.835H29.3244C29.4194 39.835 29.5106 39.7973 29.5779 39.73C29.6451 39.6628 29.6829 39.5716 29.6829 39.4766" fill="white"/>
<path d="M29.3145 39.835H29.3244C29.4194 39.835 29.5106 39.7973 29.5779 39.73C29.6451 39.6628 29.6829 39.5716 29.6829 39.4766" stroke="#263238" stroke-width="0.260655" stroke-linecap="round" stroke-linejoin="round"/>
<path d="M29.6839 40.9337C29.6839 40.9507 29.6839 40.9663 29.6839 40.9819H29.3184V40.5752H29.3283C29.4229 40.5759 29.5133 40.614 29.5799 40.6812C29.6465 40.7483 29.6839 40.8391 29.6839 40.9337Z" fill="white" stroke="#263238" stroke-width="0.260655" stroke-linecap="round" stroke-linejoin="round"/>
<path d="M31.2674 40.2294C31.2674 40.1375 31.2401 40.0476 31.1891 39.9712C31.138 39.8948 31.0654 39.8352 30.9805 39.8C30.8956 39.7648 30.8021 39.7556 30.712 39.7736C30.6218 39.7915 30.539 39.8358 30.474 39.9008C30.409 39.9658 30.3648 40.0486 30.3468 40.1387C30.3289 40.2289 30.3381 40.3223 30.3733 40.4072C30.4084 40.4922 30.468 40.5648 30.5444 40.6158C30.6209 40.6669 30.7107 40.6941 30.8026 40.6941C30.9259 40.6941 31.0441 40.6452 31.1313 40.558C31.2184 40.4709 31.2674 40.3527 31.2674 40.2294Z" fill="white" stroke="#263238" stroke-width="0.260655" stroke-linecap="round" stroke-linejoin="round"/>
<path d="M30.7635 39.9404V39.8965H30.84V39.9404C30.9052 39.9532 30.9392 40.0042 30.9392 40.0821V40.1005H30.8514V40.075C30.8514 40.0339 30.8344 40.0169 30.8046 40.0169C30.7749 40.0169 30.7593 40.0339 30.7593 40.075C30.7593 40.1969 30.9392 40.2025 30.9392 40.3712C30.9429 40.4028 30.9348 40.4347 30.9165 40.4608C30.8982 40.4869 30.871 40.5054 30.84 40.5128V40.5553H30.7635V40.5256C30.7323 40.5185 30.7047 40.5001 30.6862 40.474C30.6676 40.4478 30.6593 40.4158 30.6629 40.3839V40.3442H30.7536V40.3839C30.7536 40.425 30.772 40.4406 30.8018 40.4406C30.8315 40.4406 30.85 40.425 30.85 40.3839C30.85 40.262 30.6686 40.2564 30.6686 40.0878C30.6629 40.0558 30.6696 40.0228 30.6872 39.9955C30.7048 39.9682 30.732 39.9485 30.7635 39.9404Z" fill="#263238"/>
<path d="M45.731 40.1182H33.2012V40.5475H45.731V40.1182Z" fill="#CCCCCC"/>
<path d="M84.2399 41.4316H74.4277V42.3668H84.2399V41.4316Z" fill="#CCCCCC"/>
<path d="M77.5577 41.4316H74.4277V42.3668H77.5577V41.4316Z" fill="black"/>
<path d="M84.2399 43.8477H74.4277V44.7828H84.2399V43.8477Z" fill="#CCCCCC"/>
<path d="M80.9895 43.8477H74.4277V44.7828H80.9895V43.8477Z" fill="black"/>
<path d="M84.2399 46.2637H74.4277V47.1988H84.2399V46.2637Z" fill="#CCCCCC"/>
<path d="M75.8121 46.2637H74.4277V47.1988H75.8121V46.2637Z" fill="black"/>
<path d="M84.2399 48.6797H74.4277V49.6149H84.2399V48.6797Z" fill="#CCCCCC"/>
<path d="M83.0355 48.6797H74.4277V49.6149H83.0355V48.6797Z" fill="black"/>
<path d="M84.1769 40.1182H74.3945V40.5475H84.1769V40.1182Z" fill="#CCCCCC"/>
</svg>
