<svg width="149" height="135" viewBox="0 0 149 135" fill="none" xmlns="http://www.w3.org/2000/svg">
<circle cx="81.5" cy="67.5" r="67.5" fill="#2AB7CA"/>
<path d="M143.18 103.53H146.086" stroke="#263238" stroke-width="0.260655" stroke-linecap="round" stroke-linejoin="round"/>
<path d="M7.01953 103.53H141.727" stroke="#263238" stroke-width="0.260655" stroke-linecap="round" stroke-linejoin="round"/>
<path d="M1 103.53H5.35879" stroke="#263238" stroke-width="0.260655" stroke-linecap="round" stroke-linejoin="round"/>
<g opacity="0.2">
<path d="M24.5038 59.3154C23.9607 59.3154 23.4298 59.4765 22.9782 59.7782C22.5267 60.08 22.1747 60.5088 21.9668 61.0106C21.759 61.5124 21.7046 62.0645 21.8106 62.5972C21.9165 63.1299 22.1781 63.6192 22.5621 64.0032C22.9461 64.3872 23.4354 64.6488 23.9681 64.7547C24.5008 64.8607 25.0529 64.8063 25.5547 64.5985C26.0565 64.3906 26.4854 64.0387 26.7871 63.5871C27.0888 63.1355 27.2499 62.6046 27.2499 62.0615C27.2493 61.3333 26.9598 60.6352 26.445 60.1203C25.9301 59.6055 25.232 59.316 24.5038 59.3154ZM24.7841 63.7386V64.0022H24.317V63.7386C23.9019 63.6555 23.6944 63.34 23.6944 62.8481V62.599H24.2444V62.8855C24.2444 63.1429 24.3586 63.2363 24.5391 63.2363C24.7197 63.2363 24.8339 63.1429 24.8339 62.8855C24.8339 62.1403 23.7213 62.103 23.7213 61.0693C23.7213 60.5836 23.9289 60.2723 24.3212 60.1851V59.9132H24.7882V60.183C25.1909 60.2661 25.3984 60.5753 25.3984 61.0672V61.1814H24.8671V61.0299C24.8671 60.7725 24.7633 60.6729 24.5827 60.6729C24.4021 60.6729 24.2984 60.7725 24.2984 61.0299C24.2984 61.775 25.4088 61.8124 25.4088 62.846C25.3984 63.34 25.1867 63.6493 24.7841 63.7386Z" stroke="black" stroke-width="0.260655" stroke-miterlimit="10"/>
<path d="M24.5046 58.2139C23.7434 58.2135 22.9992 58.4388 22.3661 58.8614C21.733 59.284 21.2394 59.8849 20.9478 60.588C20.6562 61.2911 20.5797 62.0649 20.728 62.8115C20.8762 63.5581 21.2426 64.244 21.7807 64.7824C22.3188 65.3208 23.0044 65.6875 23.751 65.8361C24.4975 65.9848 25.2714 65.9087 25.9746 65.6175C26.6779 65.3263 27.2791 64.8331 27.702 64.2002C28.1249 63.5673 28.3507 62.8232 28.3507 62.0621C28.3507 61.0418 27.9455 60.0633 27.2243 59.3417C26.5031 58.6201 25.5248 58.2144 24.5046 58.2139ZM24.5046 65.2211C23.8793 65.2211 23.268 65.0357 22.7481 64.6882C22.2282 64.3408 21.823 63.847 21.5838 63.2692C21.3446 62.6915 21.2822 62.0558 21.4043 61.4425C21.5264 60.8292 21.8277 60.266 22.27 59.824C22.7123 59.382 23.2758 59.081 23.8891 58.9593C24.5025 58.8376 25.1381 58.9005 25.7157 59.14C26.2933 59.3796 26.7869 59.7851 27.134 60.3052C27.4811 60.8254 27.6661 61.4367 27.6657 62.0621C27.6646 62.8999 27.3311 63.7031 26.7385 64.2954C26.1458 64.8876 25.3424 65.2206 24.5046 65.2211Z" stroke="black" stroke-width="0.260655" stroke-miterlimit="10"/>
</g>
<g opacity="0.2">
<path d="M80.0807 31.374C79.3786 31.3736 78.6922 31.5814 78.1082 31.9712C77.5243 32.3609 77.069 32.9151 76.8001 33.5636C76.5311 34.2121 76.4605 34.9258 76.5972 35.6145C76.734 36.3031 77.0718 36.9357 77.5681 37.4323C78.0644 37.9289 78.6968 38.2671 79.3854 38.4043C80.074 38.5414 80.7877 38.4712 81.4364 38.2026C82.085 37.9341 82.6395 37.4791 83.0296 36.8954C83.4197 36.3117 83.6279 35.6254 83.6279 34.9233C83.6268 33.9827 83.2528 33.0809 82.5879 32.4155C81.9229 31.7502 81.0213 31.3757 80.0807 31.374ZM80.4481 37.0861V37.4265H79.8461V37.0861C79.3189 36.9782 79.0512 36.5693 79.0512 35.9341V35.6124H79.7465V35.9819C79.7465 36.3161 79.8939 36.4364 80.1284 36.4364C80.363 36.4364 80.5082 36.3161 80.5082 35.9819C80.5082 35.0188 79.0699 34.9711 79.0699 33.6323C79.0699 33.0096 79.3314 32.5945 79.8461 32.4886V32.142H80.4481V32.4886C80.9711 32.5966 81.2389 32.9972 81.2389 33.6323V33.7797H80.5415V33.5866C80.5415 33.2525 80.4086 33.1238 80.1741 33.1238C79.9395 33.1238 79.8067 33.2525 79.8067 33.5866C79.8067 34.5497 81.2451 34.5974 81.2451 35.9341C81.2451 36.5776 80.9711 36.9865 80.4481 37.0861Z" stroke="black" stroke-width="0.260655" stroke-miterlimit="10"/>
<path d="M80.083 29.9512C79.0978 29.9512 78.1347 30.2433 77.3155 30.7907C76.4963 31.3381 75.8578 32.1161 75.4808 33.0263C75.1037 33.9366 75.0051 34.9382 75.1973 35.9045C75.3895 36.8708 75.8639 37.7584 76.5606 38.4551C77.2573 39.1517 78.1449 39.6262 79.1112 39.8184C80.0775 40.0106 81.0791 39.912 81.9894 39.5349C82.8996 39.1579 83.6776 38.5194 84.225 37.7002C84.7723 36.881 85.0645 35.9179 85.0645 34.9326C85.0645 33.6115 84.5397 32.3444 83.6055 31.4102C82.6713 30.476 81.4042 29.9512 80.083 29.9512ZM80.083 39.0112C79.2746 39.0116 78.4843 38.7723 77.8119 38.3235C77.1396 37.8746 76.6154 37.2365 76.3058 36.4898C75.9961 35.743 75.9149 34.9212 76.0724 34.1283C76.2298 33.3354 76.6189 32.607 77.1904 32.0352C77.7618 31.4634 78.49 31.074 79.2829 30.9161C80.0757 30.7583 80.8976 30.8391 81.6445 31.1484C82.3914 31.4576 83.0298 31.9814 83.4789 32.6536C83.9281 33.3257 84.1678 34.1159 84.1678 34.9243C84.1667 36.0075 83.7361 37.0461 82.9703 37.8123C82.2046 38.5784 81.1662 39.0096 80.083 39.0112Z" stroke="black" stroke-width="0.260655" stroke-miterlimit="10"/>
</g>
<g opacity="0.2">
<path d="M54.0105 20.0381C53.0061 20.0385 52.0243 20.3367 51.1894 20.8951C50.3544 21.4534 49.7037 22.2468 49.3196 23.1749C48.9355 24.103 48.8352 25.1242 49.0314 26.1092C49.2277 27.0943 49.7115 27.9991 50.4219 28.7093C51.1323 29.4194 52.0373 29.9029 53.0225 30.0987C54.0077 30.2945 55.0288 30.1938 55.9568 29.8093C56.8847 29.4248 57.6778 28.7738 58.2358 27.9386C58.7938 27.1035 59.0916 26.1216 59.0916 25.1171C59.0905 23.77 58.5548 22.4785 57.6021 21.5262C56.6494 20.5739 55.3576 20.0386 54.0105 20.0381ZM54.5274 28.2222V28.71H53.666V28.2222C52.9105 28.0686 52.5265 27.4854 52.5265 26.5763V26.1155H53.5228V26.6427C53.5228 27.1221 53.7303 27.2944 54.0687 27.2944C54.407 27.2944 54.6145 27.1221 54.6145 26.6427C54.6145 25.2645 52.5555 25.1898 52.5555 23.2823C52.5555 22.3815 52.9291 21.8065 53.666 21.6446V21.1465H54.5274V21.6446C55.2746 21.7982 55.6565 22.3711 55.6565 23.2823V23.4898H54.6623V23.2138C54.6623 22.7364 54.4693 22.5537 54.1351 22.5537C53.8009 22.5537 53.6079 22.7364 53.6079 23.2138C53.6079 24.5941 55.6669 24.6667 55.6669 26.5763C55.6669 27.4854 55.2746 28.0686 54.5274 28.2222Z" stroke="black" stroke-width="0.260655" stroke-miterlimit="10"/>
<path d="M54.0099 18C52.6019 18.0004 51.2256 18.4183 50.0551 19.2008C48.8846 19.9834 47.9724 21.0954 47.4339 22.3963C46.8954 23.6973 46.7547 25.1287 47.0296 26.5095C47.3046 27.8904 47.9828 29.1588 48.9785 30.1542C49.9743 31.1497 51.2428 31.8275 52.6238 32.1021C54.0047 32.3766 55.4361 32.2355 56.7369 31.6966C58.0376 31.1577 59.1494 30.2452 59.9316 29.0744C60.7138 27.9037 61.1313 26.5273 61.1313 25.1193C61.1313 24.1842 60.9471 23.2583 60.5892 22.3944C60.2312 21.5305 59.7066 20.7456 59.0453 20.0845C58.384 19.4234 57.5989 18.899 56.735 18.5413C55.871 18.1837 54.945 17.9997 54.0099 18ZM54.0099 30.9684C52.853 30.9684 51.7222 30.6254 50.7603 29.9827C49.7984 29.34 49.0487 28.4265 48.606 27.3577C48.1633 26.2889 48.0475 25.1129 48.2732 23.9783C48.4989 22.8436 49.0559 21.8014 49.8739 20.9834C50.6919 20.1654 51.7341 19.6084 52.8688 19.3827C54.0034 19.157 55.1794 19.2728 56.2482 19.7155C57.317 20.1582 58.2305 20.9079 58.8732 21.8698C59.5159 22.8317 59.8589 23.9625 59.8589 25.1193C59.8573 26.6701 59.2405 28.1569 58.144 29.2535C57.0474 30.35 55.5606 30.9668 54.0099 30.9684Z" stroke="black" stroke-width="0.260655" stroke-miterlimit="10"/>
</g>
<g opacity="0.2">
<path d="M105.65 27.627H103.574V32.4009H105.65V27.627Z" stroke="black" stroke-width="0.260655" stroke-miterlimit="10"/>
<path d="M108.347 24.7871H106.271V32.4046H108.347V24.7871Z" stroke="black" stroke-width="0.260655" stroke-miterlimit="10"/>
<path d="M111.046 25.7939H108.971V32.4006H111.046V25.7939Z" stroke="black" stroke-width="0.260655" stroke-miterlimit="10"/>
<path d="M113.744 24.1533H111.668V32.4039H113.744V24.1533Z" stroke="black" stroke-width="0.260655" stroke-miterlimit="10"/>
<path d="M107.25 22.8138L109.666 25.2277L112.815 22.8844L113.321 22.0022L113.859 22.3136L113.857 20.6572L112.425 21.4875L112.962 21.7967L112.497 22.6021L109.705 24.6818L107.19 22.1662L104.205 26.5437L104.548 26.7782L107.25 22.8138Z" stroke="black" stroke-width="0.260655" stroke-miterlimit="10"/>
</g>
<g opacity="0.2">
<path d="M19.1782 30.8184H17.416V34.87H19.1782V30.8184Z" stroke="black" stroke-width="0.260655" stroke-miterlimit="10"/>
<path d="M21.4712 28.4082H19.709V34.8758H21.4712V28.4082Z" stroke="black" stroke-width="0.260655" stroke-miterlimit="10"/>
<path d="M23.7622 29.2637H22V34.872H23.7622V29.2637Z" stroke="black" stroke-width="0.260655" stroke-miterlimit="10"/>
<path d="M26.0513 27.8721H24.2891V34.8752H26.0513V27.8721Z" stroke="black" stroke-width="0.260655" stroke-miterlimit="10"/>
<path d="M20.5393 26.736L22.588 28.7846L25.2614 26.7941L25.691 26.0469L26.1476 26.3105L26.1456 24.9053L24.9293 25.6089L25.3859 25.8704L24.9915 26.5554L22.6212 28.3197L20.4874 26.1859L17.9531 29.9013L18.2437 30.1005L20.5393 26.736Z" stroke="black" stroke-width="0.260655" stroke-miterlimit="10"/>
</g>
<g opacity="0.2">
<path d="M129.898 61.458H126.729V68.7455H129.898V61.458Z" stroke="black" stroke-width="0.260655" stroke-miterlimit="10"/>
<path d="M134.013 57.1172H130.844V68.7468H134.013V57.1172Z" stroke="black" stroke-width="0.260655" stroke-miterlimit="10"/>
<path d="M138.138 58.6611H134.969V68.7465H138.138V58.6611Z" stroke="black" stroke-width="0.260655" stroke-miterlimit="10"/>
<path d="M142.255 56.1533H139.086V68.7461H142.255V56.1533Z" stroke="black" stroke-width="0.260655" stroke-miterlimit="10"/>
<path d="M132.341 54.1093L136.027 57.7935L140.834 54.2152L141.606 52.8702L142.428 53.3434L142.424 50.8174L140.238 52.0835L141.058 52.5547L140.351 53.7855L136.087 56.9591L132.249 53.1192L127.691 59.8027L128.214 60.1597L132.341 54.1093Z" stroke="black" stroke-width="0.260655" stroke-miterlimit="10"/>
</g>
<path d="M37.3218 37.2334H127.177C127.524 37.2334 127.868 37.3018 128.189 37.4347C128.51 37.5676 128.801 37.7624 129.047 38.0079C129.293 38.2535 129.487 38.545 129.62 38.8658C129.753 39.1866 129.821 39.5305 129.821 39.8777V98.9849H34.6816V39.8757C34.6822 39.1754 34.9605 38.504 35.4554 38.0086C35.9504 37.5133 36.6216 37.2345 37.3218 37.2334Z" fill="#263238" stroke="#263238" stroke-width="0.260655" stroke-linecap="round" stroke-linejoin="round"/>
<path d="M115.155 96.0117H49.7715V99.2331H115.155V96.0117Z" fill="#263238" stroke="#263238" stroke-width="0.260655" stroke-linecap="round" stroke-linejoin="round"/>
<path d="M115.155 97.5615H49.7715V99.2324H115.155V97.5615Z" fill="white" stroke="#263238" stroke-width="0.260655" stroke-linecap="round" stroke-linejoin="round"/>
<path d="M26.9824 101.142C26.9824 101.142 28.0576 102.453 31.2789 103.529H133.65C133.65 103.529 136.037 102.931 137.11 101.26L26.9824 101.142Z" fill="#263238" stroke="#263238" stroke-width="0.260655" stroke-linecap="round" stroke-linejoin="round"/>
<path d="M136.541 98.792H27.5668C27.1243 98.792 26.7656 99.1507 26.7656 99.5932V100.5C26.7656 100.943 27.1243 101.301 27.5668 101.301H136.541C136.983 101.301 137.342 100.943 137.342 100.5V99.5932C137.342 99.1507 136.983 98.792 136.541 98.792Z" fill="white" stroke="#263238" stroke-width="0.260655" stroke-linecap="round" stroke-linejoin="round"/>
<path d="M83.0628 39.1008C83.0628 38.9365 83.0141 38.776 82.9229 38.6395C82.8317 38.503 82.702 38.3965 82.5503 38.3337C82.3986 38.2709 82.2317 38.2544 82.0706 38.2865C81.9096 38.3185 81.7616 38.3976 81.6455 38.5137C81.5294 38.6298 81.4503 38.7777 81.4183 38.9388C81.3863 39.0998 81.4027 39.2668 81.4655 39.4185C81.5284 39.5702 81.6348 39.6998 81.7713 39.7911C81.9079 39.8823 82.0684 39.931 82.2326 39.931C82.4528 39.931 82.664 39.8435 82.8197 39.6878C82.9754 39.5321 83.0628 39.3209 83.0628 39.1008Z" fill="#263238"/>
<path d="M35.5746 54.6084C35.5113 54.6084 35.4506 54.5833 35.4059 54.5385C35.3611 54.4937 35.3359 54.433 35.3359 54.3697V47.4496C35.3365 47.3865 35.3618 47.3261 35.4065 47.2815C35.4511 47.2368 35.5115 47.2115 35.5746 47.2109C35.6379 47.2109 35.6987 47.2361 35.7434 47.2809C35.7882 47.3256 35.8133 47.3863 35.8133 47.4496V54.3697C35.8136 54.4011 35.8076 54.4323 35.7957 54.4614C35.7838 54.4905 35.7663 54.5169 35.744 54.5391C35.7218 54.5613 35.6954 54.5789 35.6663 54.5908C35.6372 54.6027 35.6061 54.6087 35.5746 54.6084Z" fill="#263238" stroke="white" stroke-width="0.180292" stroke-linejoin="round"/>
<path d="M125.954 42.0566H38.5352V91.4583H125.954V42.0566Z" fill="white" stroke="#263238" stroke-width="0.260655" stroke-linecap="round" stroke-linejoin="round"/>
<path d="M125.956 42.0566H53.0645V44.9791H125.956V42.0566Z" fill="black" stroke="#263238" stroke-width="0.260655" stroke-linecap="round" stroke-linejoin="round"/>
<path d="M42.1367 72.6221H102.662" stroke="#CCCCCC" stroke-width="0.260655" stroke-linecap="round" stroke-linejoin="round"/>
<path d="M42.1367 71.373H102.662" stroke="#CCCCCC" stroke-width="0.260655" stroke-linecap="round" stroke-linejoin="round"/>
<path d="M42.1367 70.125H102.662" stroke="#CCCCCC" stroke-width="0.260655" stroke-linecap="round" stroke-linejoin="round"/>
<path d="M42.1367 68.8779H102.662" stroke="#CCCCCC" stroke-width="0.260655" stroke-linecap="round" stroke-linejoin="round"/>
<path d="M42.1367 67.623H102.662" stroke="#CCCCCC" stroke-width="0.260655" stroke-linecap="round" stroke-linejoin="round"/>
<path d="M42.1367 66.375H102.662" stroke="#CCCCCC" stroke-width="0.260655" stroke-linecap="round" stroke-linejoin="round"/>
<path d="M42.1367 65.127H102.662" stroke="#CCCCCC" stroke-width="0.260655" stroke-linecap="round" stroke-linejoin="round"/>
<path d="M42.1367 63.8799H102.662" stroke="#CCCCCC" stroke-width="0.260655" stroke-linecap="round" stroke-linejoin="round"/>
<path d="M42.1367 62.625H102.662" stroke="#CCCCCC" stroke-width="0.260655" stroke-linecap="round" stroke-linejoin="round"/>
<path d="M42.1367 61.377H102.662" stroke="#CCCCCC" stroke-width="0.260655" stroke-linecap="round" stroke-linejoin="round"/>
<path d="M42.1367 60.1289H102.662" stroke="#CCCCCC" stroke-width="0.260655" stroke-linecap="round" stroke-linejoin="round"/>
<path d="M42.1367 58.8809H102.662" stroke="#CCCCCC" stroke-width="0.260655" stroke-linecap="round" stroke-linejoin="round"/>
<path d="M42.1367 57.6318H102.662" stroke="#CCCCCC" stroke-width="0.260655" stroke-linecap="round" stroke-linejoin="round"/>
<path d="M42.1367 56.3799H102.662" stroke="#CCCCCC" stroke-width="0.260655" stroke-linecap="round" stroke-linejoin="round"/>
<path d="M42.1367 55.1299H102.662" stroke="#CCCCCC" stroke-width="0.260655" stroke-linecap="round" stroke-linejoin="round"/>
<path d="M42.1367 53.8838H102.662" stroke="#CCCCCC" stroke-width="0.260655" stroke-linecap="round" stroke-linejoin="round"/>
<path d="M46.5787 52.4961H44.2188V72.4863H46.5787V52.4961Z" fill="black"/>
<path d="M49.7037 63.3242H47.3438V72.486H49.7037V63.3242Z" fill="black"/>
<path d="M52.8248 64.9883H50.4648V72.4854H52.8248V64.9883Z" fill="black"/>
<path d="M55.9518 55.4092H53.5918V72.4832H55.9518V55.4092Z" fill="black"/>
<path d="M59.0729 63.8799H56.7129V72.4874H59.0729V63.8799Z" fill="black"/>
<path d="M62.1979 59.9902H59.8379V72.4833H62.1979V59.9902Z" fill="black"/>
<path d="M65.319 55.1299H62.959V72.482H65.319V55.1299Z" fill="black"/>
<path d="M68.444 49.8555H66.084V72.4838H68.444V49.8555Z" fill="black"/>
<path d="M71.567 60.6846H69.207V72.4844H71.567V60.6846Z" fill="black"/>
<path d="M74.692 65.6816H72.332V72.4834H74.692V65.6816Z" fill="black"/>
<path d="M77.815 68.4619H75.4551V72.4886H77.815V68.4619Z" fill="black"/>
<path d="M80.9342 65.2656H78.5742V72.4846H80.9342V65.2656Z" fill="black"/>
<path d="M84.0592 58.3262H81.6992V72.486H84.0592V58.3262Z" fill="black"/>
<path d="M87.1822 69.9863H84.8223V72.4854H87.1822V69.9863Z" fill="black"/>
<path d="M90.3053 64.9883H87.9453V72.4854H90.3053V64.9883Z" fill="black"/>
<path d="M93.4342 68.3232H91.0742V72.4869H93.4342V68.3232Z" fill="black"/>
<path d="M96.5553 49.9941H94.1953V72.4834H96.5553V49.9941Z" fill="black"/>
<path d="M99.6764 53.8838H97.3164V72.4854H99.6764V53.8838Z" fill="black"/>
<path d="M43.0558 47.1364V46.9434H43.392V47.1364C43.6826 47.1966 43.832 47.4208 43.832 47.7736V47.8566H43.4439V47.7487C43.4439 47.5619 43.3692 47.4913 43.2363 47.4913C43.1035 47.4913 43.0288 47.5619 43.0288 47.7487C43.0288 48.2842 43.8279 48.3112 43.8279 49.0563C43.8279 49.4092 43.6764 49.6375 43.3858 49.6956V49.8866H43.0495V49.6956C42.7569 49.6375 42.6074 49.4092 42.6074 49.0563V48.8758H42.9935V49.0833C42.9935 49.2701 43.0765 49.3365 43.201 49.3365C43.3256 49.3365 43.4086 49.2701 43.4086 49.0833C43.4086 48.5478 42.6074 48.5208 42.6074 47.7757C42.624 47.4249 42.7693 47.2007 43.0558 47.1364Z" fill="#263238"/>
<path d="M44.7072 47.4653C44.5764 47.4653 44.4996 47.5359 44.4996 47.7227V48.0008H44.1114V47.7476C44.1114 47.3324 44.319 47.0938 44.7217 47.0938C45.1243 47.0938 45.334 47.3304 45.334 47.7476C45.334 48.5674 44.5183 48.8725 44.5183 49.3022C44.5172 49.3209 44.5172 49.3396 44.5183 49.3582H45.2945V49.7298H44.1094V49.4101C44.1094 48.6422 44.9209 48.5155 44.9209 47.7642C44.9189 47.5172 44.8379 47.4653 44.7072 47.4653Z" fill="#263238"/>
<path d="M45.5488 47.7368C45.5488 47.3217 45.7688 47.083 46.1715 47.083C46.5742 47.083 46.7942 47.3196 46.7942 47.7368V49.0943C46.7942 49.5094 46.5742 49.7481 46.1715 49.7481C45.7688 49.7481 45.5488 49.5094 45.5488 49.0943V47.7368ZM45.964 49.1192C45.964 49.306 46.0449 49.3766 46.1715 49.3766C46.2981 49.3766 46.3791 49.306 46.3791 49.1192V47.7119C46.3791 47.5251 46.2981 47.4545 46.1715 47.4545C46.0449 47.4545 45.964 47.5251 45.964 47.7119V49.1192Z" fill="#263238"/>
<path d="M47.453 49.3311V49.7254H47.0586V49.3311H47.453Z" fill="#263238"/>
<path d="M48.5395 47.7534C48.5395 47.5168 48.4564 47.4545 48.3319 47.4545C48.2074 47.4545 48.1243 47.5251 48.1243 47.7119V47.88H47.7383V47.7368C47.7383 47.3217 47.9458 47.083 48.3485 47.083C48.7512 47.083 48.9587 47.3196 48.9587 47.7368V47.8053C48.9587 48.0835 48.8695 48.2599 48.6723 48.3408C48.7715 48.3906 48.8525 48.4703 48.9039 48.5686C48.9553 48.667 48.9745 48.779 48.9587 48.8888V49.0964C48.9587 49.5115 48.7512 49.7502 48.3485 49.7502C47.9458 49.7502 47.7383 49.5115 47.7383 49.0964V48.8888H48.1119V49.1254C48.1119 49.3122 48.1949 49.3828 48.3195 49.3828C48.444 49.3828 48.527 49.3184 48.527 49.088V48.8805C48.527 48.6397 48.444 48.5505 48.2593 48.5505H48.1202V48.1769H48.28C48.4336 48.1769 48.527 48.1104 48.527 47.9029L48.5395 47.7534Z" fill="#263238"/>
<path d="M49.1993 47.7597C49.1993 47.3196 49.4069 47.083 49.822 47.083C50.2371 47.083 50.4323 47.3196 50.4323 47.7368V47.8053H50.0441V47.7119C50.0441 47.5251 49.9632 47.4545 49.8366 47.4545C49.7099 47.4545 49.6082 47.5251 49.6082 47.7742V48.2516C49.641 48.1789 49.695 48.118 49.7633 48.0768C49.8315 48.0357 49.9106 48.0163 49.9902 48.0212C50.2911 48.0212 50.4426 48.2287 50.4426 48.6169V49.0943C50.4426 49.5094 50.2247 49.7481 49.8199 49.7481C49.4152 49.7481 49.1973 49.5094 49.1973 49.0943L49.1993 47.7597ZM49.6145 48.6501V49.1254C49.6145 49.3122 49.6975 49.3786 49.822 49.3786C49.9466 49.3786 50.0296 49.3122 50.0296 49.1254V48.6563C50.0296 48.4695 49.9486 48.3989 49.822 48.3989C49.6954 48.3989 49.6082 48.4633 49.6082 48.6501H49.6145Z" fill="#263238"/>
<path d="M51.2843 49.7488C51.1969 49.7575 51.1087 49.7465 51.0261 49.7165C50.9436 49.6866 50.8688 49.6384 50.8074 49.5756C50.746 49.5128 50.6996 49.437 50.6714 49.3538C50.6433 49.2706 50.6343 49.1821 50.645 49.095V48.8874C50.6328 48.7822 50.65 48.6757 50.6947 48.5797C50.7394 48.4837 50.8099 48.402 50.8982 48.3436C50.8102 48.2895 50.7395 48.2113 50.6946 48.1182C50.6497 48.0251 50.6325 47.9211 50.645 47.8185V47.7355C50.64 47.6483 50.6529 47.561 50.6829 47.479C50.7128 47.397 50.7591 47.322 50.8191 47.2586C50.879 47.1951 50.9513 47.1445 51.0315 47.11C51.1117 47.0754 51.198 47.0576 51.2853 47.0576C51.3726 47.0576 51.459 47.0754 51.5392 47.11C51.6193 47.1445 51.6916 47.1951 51.7516 47.2586C51.8115 47.322 51.8579 47.397 51.8878 47.479C51.9177 47.561 51.9306 47.6483 51.9257 47.7355V47.8185C51.9374 47.921 51.9198 48.0247 51.875 48.1177C51.8302 48.2106 51.76 48.289 51.6724 48.3436C51.7608 48.402 51.8312 48.4837 51.8759 48.5797C51.9206 48.6757 51.9378 48.7822 51.9257 48.8874V49.095C51.936 49.1823 51.9267 49.2707 51.8983 49.3539C51.8699 49.4371 51.8232 49.5129 51.7617 49.5756C51.7001 49.6384 51.6253 49.6865 51.5427 49.7165C51.46 49.7464 51.3718 49.7575 51.2843 49.7488ZM51.0539 47.8994C51.0539 48.107 51.1514 48.1734 51.2843 48.1734C51.4171 48.1734 51.5168 48.107 51.5168 47.8994V47.7541C51.5168 47.5175 51.4151 47.4552 51.2843 47.4552C51.1535 47.4552 51.0539 47.5175 51.0539 47.7541V47.8994ZM51.2843 49.3773C51.4151 49.3773 51.5126 49.3129 51.5168 49.0825V48.8397C51.5168 48.6321 51.4296 48.547 51.2843 48.547C51.139 48.547 51.0539 48.6363 51.0539 48.8397V49.0825C51.0539 49.3129 51.1556 49.3773 51.2843 49.3773Z" fill="#263238"/>
<path d="M52.1738 49.7171V49.3311H52.5703V49.6839L52.3897 50.099H52.2236L52.3316 49.7275L52.1738 49.7171Z" fill="#263238"/>
<path d="M53.4651 47.4653C53.3343 47.4653 53.2575 47.5359 53.2575 47.7227V48.0008H52.8652V47.7476C52.8652 47.3324 53.0728 47.0938 53.4755 47.0938C53.8781 47.0938 54.0981 47.3304 54.0981 47.7476C54.0981 48.5674 53.2824 48.8725 53.2824 49.3022C53.2814 49.3209 53.2814 49.3396 53.2824 49.3582H54.0587V49.7298H52.8652V49.4101C52.8652 48.6422 53.6768 48.5155 53.6768 47.7642C53.6768 47.5172 53.5959 47.4653 53.4651 47.4653Z" fill="#263238"/>
<path d="M55.1319 47.7534C55.1319 47.5168 55.0489 47.4545 54.9243 47.4545C54.7998 47.4545 54.7168 47.5251 54.7168 47.7119V47.88H54.3203V47.7368C54.3203 47.3217 54.5279 47.083 54.9305 47.083C55.3332 47.083 55.5408 47.3196 55.5408 47.7368V47.8053C55.5408 48.0835 55.4515 48.2599 55.2543 48.3408C55.3535 48.3906 55.4345 48.4703 55.4859 48.5686C55.5373 48.667 55.5565 48.779 55.5408 48.8888V49.0964C55.5408 49.5115 55.3332 49.7502 54.9305 49.7502C54.5279 49.7502 54.3203 49.5115 54.3203 49.0964V48.8888H54.7064V49.1254C54.7064 49.3122 54.7894 49.3828 54.9139 49.3828C55.0385 49.3828 55.1215 49.3184 55.1215 49.088V48.8805C55.1215 48.6397 55.0385 48.5505 54.8537 48.5505H54.7147V48.1769H54.8745C55.0281 48.1769 55.1215 48.1104 55.1215 47.9029L55.1319 47.7534Z" fill="#263238"/>
<path d="M123.356 47.4492H104.025V72.5641H123.356V47.4492Z" fill="#263238"/>
<path d="M107.371 48.9883H109.93" stroke="#757575" stroke-width="0.260655" stroke-miterlimit="10"/>
<path d="M111.373 48.9883H113.932" stroke="#757575" stroke-width="0.260655" stroke-miterlimit="10"/>
<path d="M115.371 48.9883H117.93" stroke="#757575" stroke-width="0.260655" stroke-miterlimit="10"/>
<path d="M119.371 48.9883H121.93" stroke="#757575" stroke-width="0.260655" stroke-miterlimit="10"/>
<path d="M110.662 47.8232V72.2158" stroke="white" stroke-width="0.260655" stroke-miterlimit="10"/>
<path d="M106.658 47.8232V72.2158" stroke="white" stroke-width="0.260655" stroke-miterlimit="10"/>
<path d="M114.732 47.8232V72.2158" stroke="white" stroke-width="0.260655" stroke-miterlimit="10"/>
<path d="M118.799 47.8232V72.2158" stroke="white" stroke-width="0.260655" stroke-miterlimit="10"/>
<path d="M105.485 48.4932L105.016 49.3089H105.956L105.485 48.4932Z" fill="white"/>
<path d="M107.371 50.8809H109.93" stroke="#757575" stroke-width="0.260655" stroke-miterlimit="10"/>
<path d="M111.373 50.8809H113.932" stroke="#757575" stroke-width="0.260655" stroke-miterlimit="10"/>
<path d="M115.371 50.8809H117.93" stroke="#757575" stroke-width="0.260655" stroke-miterlimit="10"/>
<path d="M119.371 50.8809H121.93" stroke="#757575" stroke-width="0.260655" stroke-miterlimit="10"/>
<path d="M105.485 51.2024L105.956 50.3867H105.016L105.485 51.2024Z" fill="black"/>
<path d="M107.371 52.7676H109.93" stroke="#757575" stroke-width="0.260655" stroke-miterlimit="10"/>
<path d="M111.373 52.7676H113.932" stroke="#757575" stroke-width="0.260655" stroke-miterlimit="10"/>
<path d="M115.371 52.7676H117.93" stroke="#757575" stroke-width="0.260655" stroke-miterlimit="10"/>
<path d="M119.371 52.7676H121.93" stroke="#757575" stroke-width="0.260655" stroke-miterlimit="10"/>
<path d="M105.485 52.2734L105.016 53.0892H105.956L105.485 52.2734Z" fill="white"/>
<path d="M107.371 54.6611H109.93" stroke="#757575" stroke-width="0.260655" stroke-miterlimit="10"/>
<path d="M111.373 54.6611H113.932" stroke="#757575" stroke-width="0.260655" stroke-miterlimit="10"/>
<path d="M115.371 54.6611H117.93" stroke="#757575" stroke-width="0.260655" stroke-miterlimit="10"/>
<path d="M119.371 54.6611H121.93" stroke="#757575" stroke-width="0.260655" stroke-miterlimit="10"/>
<path d="M105.485 54.9806L105.956 54.167H105.016L105.485 54.9806Z" fill="black"/>
<path d="M107.371 56.5547H109.93" stroke="#757575" stroke-width="0.260655" stroke-miterlimit="10"/>
<path d="M111.373 56.5547H113.932" stroke="#757575" stroke-width="0.260655" stroke-miterlimit="10"/>
<path d="M115.371 56.5547H117.93" stroke="#757575" stroke-width="0.260655" stroke-miterlimit="10"/>
<path d="M119.371 56.5547H121.93" stroke="#757575" stroke-width="0.260655" stroke-miterlimit="10"/>
<path d="M105.485 56.8722L105.956 56.0586H105.016L105.485 56.8722Z" fill="black"/>
<path d="M107.371 58.4404H109.93" stroke="#757575" stroke-width="0.260655" stroke-miterlimit="10"/>
<path d="M111.373 58.4404H113.932" stroke="#757575" stroke-width="0.260655" stroke-miterlimit="10"/>
<path d="M115.371 58.4404H117.93" stroke="#757575" stroke-width="0.260655" stroke-miterlimit="10"/>
<path d="M119.371 58.4404H121.93" stroke="#757575" stroke-width="0.260655" stroke-miterlimit="10"/>
<path d="M105.485 58.7609L105.956 57.9473H105.016L105.485 58.7609Z" fill="black"/>
<path d="M107.371 60.335H109.93" stroke="#757575" stroke-width="0.260655" stroke-miterlimit="10"/>
<path d="M111.373 60.335H113.932" stroke="#757575" stroke-width="0.260655" stroke-miterlimit="10"/>
<path d="M115.371 60.335H117.93" stroke="#757575" stroke-width="0.260655" stroke-miterlimit="10"/>
<path d="M119.371 60.335H121.93" stroke="#757575" stroke-width="0.260655" stroke-miterlimit="10"/>
<path d="M105.485 59.8389L105.016 60.6546H105.956L105.485 59.8389Z" fill="white"/>
<path d="M107.371 62.2227H109.93" stroke="#757575" stroke-width="0.260655" stroke-miterlimit="10"/>
<path d="M111.373 62.2227H113.932" stroke="#757575" stroke-width="0.260655" stroke-miterlimit="10"/>
<path d="M115.371 62.2227H117.93" stroke="#757575" stroke-width="0.260655" stroke-miterlimit="10"/>
<path d="M119.371 62.2227H121.93" stroke="#757575" stroke-width="0.260655" stroke-miterlimit="10"/>
<path d="M105.485 61.7266L105.016 62.5423H105.956L105.485 61.7266Z" fill="white"/>
<path d="M107.371 64.1143H109.93" stroke="#757575" stroke-width="0.260655" stroke-miterlimit="10"/>
<path d="M111.373 64.1143H113.932" stroke="#757575" stroke-width="0.260655" stroke-miterlimit="10"/>
<path d="M115.371 64.1143H117.93" stroke="#757575" stroke-width="0.260655" stroke-miterlimit="10"/>
<path d="M119.371 64.1143H121.93" stroke="#757575" stroke-width="0.260655" stroke-miterlimit="10"/>
<path d="M105.485 64.4349L105.956 63.6191H105.016L105.485 64.4349Z" fill="black"/>
<path d="M107.371 66.002H109.93" stroke="#757575" stroke-width="0.260655" stroke-miterlimit="10"/>
<path d="M111.373 66.002H113.932" stroke="#757575" stroke-width="0.260655" stroke-miterlimit="10"/>
<path d="M115.371 66.002H117.93" stroke="#757575" stroke-width="0.260655" stroke-miterlimit="10"/>
<path d="M119.371 66.002H121.93" stroke="#757575" stroke-width="0.260655" stroke-miterlimit="10"/>
<path d="M105.485 65.5078L105.016 66.3235H105.956L105.485 65.5078Z" fill="white"/>
<path d="M107.371 67.8945H109.93" stroke="#757575" stroke-width="0.260655" stroke-miterlimit="10"/>
<path d="M111.373 67.8945H113.932" stroke="#757575" stroke-width="0.260655" stroke-miterlimit="10"/>
<path d="M115.371 67.8945H117.93" stroke="#757575" stroke-width="0.260655" stroke-miterlimit="10"/>
<path d="M119.371 67.8945H121.93" stroke="#757575" stroke-width="0.260655" stroke-miterlimit="10"/>
<path d="M105.485 68.214L105.956 67.4004H105.016L105.485 68.214Z" fill="black"/>
<path d="M104.754 49.8623H122.855" stroke="white" stroke-width="0.260655" stroke-miterlimit="10"/>
<path d="M104.754 51.7539H122.855" stroke="white" stroke-width="0.260655" stroke-miterlimit="10"/>
<path d="M104.754 53.6484H122.855" stroke="white" stroke-width="0.260655" stroke-miterlimit="10"/>
<path d="M104.754 55.5352H122.855" stroke="white" stroke-width="0.260655" stroke-miterlimit="10"/>
<path d="M104.754 57.4277H122.855" stroke="white" stroke-width="0.260655" stroke-miterlimit="10"/>
<path d="M104.754 59.3223H122.855" stroke="white" stroke-width="0.260655" stroke-miterlimit="10"/>
<path d="M104.754 61.208H122.855" stroke="white" stroke-width="0.260655" stroke-miterlimit="10"/>
<path d="M104.754 63.0957H122.855" stroke="white" stroke-width="0.260655" stroke-miterlimit="10"/>
<path d="M104.754 64.9883H122.855" stroke="white" stroke-width="0.260655" stroke-miterlimit="10"/>
<path d="M104.754 66.8818H122.855" stroke="white" stroke-width="0.260655" stroke-miterlimit="10"/>
<path d="M104.754 68.7695H122.855" stroke="white" stroke-width="0.260655" stroke-miterlimit="10"/>
<path d="M104.754 70.6611H122.855" stroke="white" stroke-width="0.260655" stroke-miterlimit="10"/>
<path d="M107.371 69.7881H109.93" stroke="#757575" stroke-width="0.260655" stroke-miterlimit="10"/>
<path d="M111.373 69.7881H113.932" stroke="#757575" stroke-width="0.260655" stroke-miterlimit="10"/>
<path d="M115.371 69.7881H117.93" stroke="#757575" stroke-width="0.260655" stroke-miterlimit="10"/>
<path d="M119.371 69.7881H121.93" stroke="#757575" stroke-width="0.260655" stroke-miterlimit="10"/>
<path d="M105.485 69.292L105.016 70.1056H105.956L105.485 69.292Z" fill="white"/>
<path d="M107.371 71.6748H109.93" stroke="#757575" stroke-width="0.260655" stroke-miterlimit="10"/>
<path d="M111.373 71.6748H113.932" stroke="#757575" stroke-width="0.260655" stroke-miterlimit="10"/>
<path d="M115.371 71.6748H117.93" stroke="#757575" stroke-width="0.260655" stroke-miterlimit="10"/>
<path d="M119.371 71.6748H121.93" stroke="#757575" stroke-width="0.260655" stroke-miterlimit="10"/>
<path d="M105.485 71.9964L105.956 71.1807H105.016L105.485 71.9964Z" fill="black"/>
<path d="M100.773 79.7754C100.773 79.4537 100.92 79.2793 101.231 79.2793C101.543 79.2793 101.677 79.4536 101.677 79.7588V79.8086H101.393V79.7401C101.393 79.6031 101.335 79.5512 101.24 79.5512C101.144 79.5512 101.073 79.6031 101.073 79.7857V80.1344C101.097 80.0815 101.136 80.037 101.185 80.007C101.234 79.9769 101.292 79.9627 101.35 79.9663C101.572 79.9663 101.684 80.122 101.684 80.4022V80.7509C101.688 80.8133 101.679 80.8759 101.658 80.9349C101.637 80.9938 101.604 81.0478 101.562 81.0935C101.519 81.1392 101.467 81.1756 101.41 81.2005C101.353 81.2255 101.291 81.2383 101.228 81.2383C101.166 81.2383 101.104 81.2255 101.046 81.2005C100.989 81.1756 100.937 81.1392 100.895 81.0935C100.852 81.0478 100.819 80.9938 100.798 80.9349C100.777 80.8759 100.768 80.8133 100.773 80.7509V79.7754ZM101.073 80.4271V80.7696C101.073 80.9066 101.132 80.9564 101.227 80.9564C101.323 80.9564 101.383 80.9066 101.383 80.7696V80.4271C101.383 80.2901 101.323 80.2382 101.227 80.2382C101.132 80.2382 101.073 80.2901 101.073 80.4271Z" fill="#263238"/>
<path d="M101.851 79.7599C101.846 79.6974 101.855 79.6348 101.876 79.5759C101.897 79.517 101.93 79.463 101.973 79.4173C102.015 79.3716 102.067 79.3351 102.124 79.3102C102.182 79.2853 102.244 79.2725 102.306 79.2725C102.369 79.2725 102.431 79.2853 102.488 79.3102C102.545 79.3351 102.597 79.3716 102.64 79.4173C102.683 79.463 102.715 79.517 102.736 79.5759C102.757 79.6348 102.766 79.6974 102.762 79.7599V80.752C102.766 80.8144 102.757 80.877 102.736 80.936C102.715 80.9949 102.683 81.0489 102.64 81.0946C102.597 81.1403 102.545 81.1767 102.488 81.2016C102.431 81.2266 102.369 81.2394 102.306 81.2394C102.244 81.2394 102.182 81.2266 102.124 81.2016C102.067 81.1767 102.015 81.1403 101.973 81.0946C101.93 81.0489 101.897 80.9949 101.876 80.936C101.855 80.877 101.846 80.8144 101.851 80.752V79.7599ZM102.15 80.7707C102.15 80.9077 102.21 80.9596 102.305 80.9596C102.401 80.9596 102.461 80.9077 102.461 80.7707V79.7329C102.461 79.5959 102.401 79.544 102.305 79.544C102.21 79.544 102.15 79.5959 102.15 79.7329V80.7707Z" fill="#263238"/>
<path d="M102.939 79.5944C102.935 79.5543 102.94 79.514 102.953 79.4759C102.966 79.4378 102.987 79.4029 103.014 79.3733C103.041 79.3436 103.074 79.32 103.111 79.3038C103.148 79.2876 103.188 79.2793 103.228 79.2793C103.268 79.2793 103.308 79.2876 103.345 79.3038C103.382 79.32 103.415 79.3436 103.442 79.3733C103.469 79.4029 103.49 79.4378 103.503 79.4759C103.516 79.514 103.521 79.5543 103.518 79.5944V80.2171C103.521 80.2572 103.516 80.2975 103.503 80.3356C103.49 80.3737 103.469 80.4086 103.442 80.4382C103.415 80.4679 103.382 80.4915 103.345 80.5077C103.308 80.5239 103.268 80.5322 103.228 80.5322C103.188 80.5322 103.148 80.5239 103.111 80.5077C103.074 80.4915 103.041 80.4679 103.014 80.4382C102.987 80.4086 102.966 80.3737 102.953 80.3356C102.94 80.2975 102.935 80.2572 102.939 80.2171V79.5944ZM103.129 80.2358C103.129 80.3188 103.165 80.3541 103.227 80.3541C103.289 80.3541 103.327 80.3188 103.327 80.2358V79.5799C103.327 79.4948 103.287 79.4595 103.227 79.4595C103.167 79.4595 103.129 79.4948 103.129 79.5799V80.2358ZM103.98 79.3018H104.155L103.403 81.2113H103.225L103.98 79.3018ZM103.885 80.2918C103.882 80.2517 103.887 80.2114 103.9 80.1733C103.913 80.1353 103.933 80.1003 103.961 80.0707C103.988 80.0411 104.021 80.0174 104.058 80.0012C104.095 79.9851 104.134 79.9767 104.175 79.9767C104.215 79.9767 104.255 79.9851 104.291 80.0012C104.328 80.0174 104.361 80.0411 104.389 80.0707C104.416 80.1003 104.437 80.1353 104.45 80.1733C104.463 80.2114 104.468 80.2517 104.464 80.2918V80.9145C104.468 80.9546 104.463 80.9949 104.45 81.033C104.437 81.0711 104.416 81.106 104.389 81.1357C104.361 81.1653 104.328 81.1889 104.291 81.2051C104.255 81.2213 104.215 81.2296 104.175 81.2296C104.134 81.2296 104.095 81.2213 104.058 81.2051C104.021 81.1889 103.988 81.1653 103.961 81.1357C103.933 81.106 103.913 81.0711 103.9 81.033C103.887 80.9949 103.882 80.9546 103.885 80.9145V80.2918ZM104.076 80.9332C104.076 81.0183 104.111 81.0536 104.174 81.0536C104.236 81.0536 104.273 81.0183 104.273 80.9332V80.2773C104.273 80.1943 104.234 80.159 104.174 80.159C104.113 80.159 104.076 80.1943 104.076 80.2773V80.9332Z" fill="#263238"/>
<path d="M101.371 82.7675C101.371 82.5952 101.31 82.56 101.215 82.56C101.119 82.56 101.059 82.6098 101.059 82.7468V82.8692H100.775V82.7488C100.765 82.6863 100.769 82.6222 100.788 82.5616C100.806 82.501 100.838 82.4455 100.881 82.3992C100.925 82.3529 100.978 82.3171 101.037 82.2946C101.096 82.2721 101.16 82.2635 101.223 82.2694C101.518 82.2694 101.669 82.4437 101.669 82.7488V82.7986C101.682 82.8777 101.668 82.9585 101.631 83.0292C101.593 83.0999 101.534 83.1566 101.462 83.1909C101.534 83.228 101.592 83.2864 101.629 83.3582C101.667 83.43 101.681 83.5115 101.669 83.5915V83.7431C101.669 84.0482 101.518 84.2225 101.223 84.2225C101.16 84.2284 101.096 84.2198 101.037 84.1973C100.978 84.1748 100.925 84.139 100.881 84.0927C100.838 84.0464 100.806 83.9909 100.788 83.9303C100.769 83.8696 100.765 83.8056 100.775 83.7431V83.5832H101.059V83.7617C101.059 83.8966 101.119 83.9485 101.215 83.9485C101.31 83.9485 101.371 83.9029 101.371 83.741V83.5895C101.371 83.413 101.31 83.3466 101.163 83.3466H101.063V83.0747H101.18C101.292 83.0747 101.36 83.0249 101.36 82.8671L101.371 82.7675Z" fill="#263238"/>
<path d="M101.851 82.7501C101.846 82.6877 101.855 82.6251 101.876 82.5661C101.897 82.5072 101.93 82.4532 101.973 82.4075C102.015 82.3618 102.067 82.3254 102.124 82.3005C102.182 82.2755 102.244 82.2627 102.306 82.2627C102.369 82.2627 102.431 82.2755 102.488 82.3005C102.545 82.3254 102.597 82.3618 102.64 82.4075C102.683 82.4532 102.715 82.5072 102.736 82.5661C102.757 82.6251 102.766 82.6877 102.762 82.7501V83.7443C102.766 83.8067 102.757 83.8694 102.736 83.9283C102.715 83.9872 102.683 84.0412 102.64 84.0869C102.597 84.1326 102.545 84.169 102.488 84.194C102.431 84.2189 102.369 84.2317 102.306 84.2317C102.244 84.2317 102.182 84.2189 102.124 84.194C102.067 84.169 102.015 84.1326 101.973 84.0869C101.93 84.0412 101.897 83.9872 101.876 83.9283C101.855 83.8694 101.846 83.8067 101.851 83.7443V82.7501ZM102.15 83.763C102.15 83.8979 102.21 83.9498 102.305 83.9498C102.401 83.9498 102.461 83.8979 102.461 83.763V82.7252C102.461 82.5882 102.401 82.5384 102.305 82.5384C102.21 82.5384 102.15 82.5882 102.15 82.7252V83.763Z" fill="#263238"/>
<path d="M102.939 82.5895C102.935 82.5495 102.94 82.5091 102.953 82.471C102.966 82.433 102.987 82.398 103.014 82.3684C103.041 82.3388 103.074 82.3151 103.111 82.2989C103.148 82.2828 103.188 82.2744 103.228 82.2744C103.268 82.2744 103.308 82.2828 103.345 82.2989C103.382 82.3151 103.415 82.3388 103.442 82.3684C103.469 82.398 103.49 82.433 103.503 82.471C103.516 82.5091 103.521 82.5495 103.518 82.5895V83.2122C103.521 83.2523 103.516 83.2927 103.503 83.3307C103.49 83.3688 103.469 83.4037 103.442 83.4334C103.415 83.463 103.382 83.4866 103.345 83.5028C103.308 83.519 103.268 83.5273 103.228 83.5273C103.188 83.5273 103.148 83.519 103.111 83.5028C103.074 83.4866 103.041 83.463 103.014 83.4334C102.987 83.4037 102.966 83.3688 102.953 83.3307C102.94 83.2927 102.935 83.2523 102.939 83.2122V82.5895ZM103.129 83.2309C103.129 83.316 103.165 83.3513 103.227 83.3513C103.289 83.3513 103.327 83.316 103.327 83.2309V82.5771C103.327 82.492 103.287 82.4567 103.227 82.4567C103.167 82.4567 103.129 82.492 103.129 82.5771V83.2309ZM103.98 82.2989H104.155L103.406 84.2023H103.227L103.98 82.2989ZM103.885 83.2869C103.882 83.2469 103.887 83.2065 103.9 83.1684C103.913 83.1304 103.933 83.0954 103.961 83.0658C103.988 83.0362 104.021 83.0125 104.058 82.9963C104.095 82.9802 104.134 82.9718 104.175 82.9718C104.215 82.9718 104.255 82.9802 104.291 82.9963C104.328 83.0125 104.361 83.0362 104.389 83.0658C104.416 83.0954 104.437 83.1304 104.45 83.1684C104.463 83.2065 104.468 83.2469 104.464 83.2869V83.9096C104.468 83.9497 104.463 83.9901 104.45 84.0281C104.437 84.0662 104.416 84.1011 104.389 84.1308C104.361 84.1604 104.328 84.184 104.291 84.2002C104.255 84.2164 104.215 84.2247 104.175 84.2247C104.134 84.2247 104.095 84.2164 104.058 84.2002C104.021 84.184 103.988 84.1604 103.961 84.1308C103.933 84.1011 103.913 84.0662 103.9 84.0281C103.887 83.9901 103.882 83.9497 103.885 83.9096V83.2869ZM104.076 83.9283C104.076 84.0134 104.111 84.0487 104.174 84.0487C104.236 84.0487 104.273 84.0134 104.273 83.9283V83.2745C104.273 83.1894 104.234 83.1541 104.174 83.1541C104.113 83.1541 104.076 83.1894 104.076 83.2745V83.9283Z" fill="#263238"/>
<path d="M101.236 85.5469C101.141 85.5469 101.081 85.5988 101.081 85.7358V85.9433H100.796V85.7586C100.786 85.696 100.791 85.632 100.809 85.5714C100.828 85.5108 100.86 85.4552 100.903 85.4089C100.946 85.3627 100.999 85.3269 101.059 85.3044C101.118 85.2819 101.182 85.2733 101.245 85.2791C101.537 85.2791 101.691 85.4535 101.691 85.7586C101.691 86.3585 101.093 86.5888 101.093 86.896C101.091 86.9091 101.091 86.9224 101.093 86.9355H101.666V87.2095H100.798V86.9749C100.798 86.4124 101.394 86.319 101.394 85.769C101.392 85.5925 101.332 85.5469 101.236 85.5469Z" fill="#263238"/>
<path d="M101.851 85.7579C101.846 85.6955 101.855 85.6329 101.876 85.5739C101.897 85.515 101.93 85.461 101.973 85.4153C102.015 85.3696 102.067 85.3332 102.124 85.3083C102.182 85.2834 102.244 85.2705 102.306 85.2705C102.369 85.2705 102.431 85.2834 102.488 85.3083C102.545 85.3332 102.597 85.3696 102.64 85.4153C102.683 85.461 102.715 85.515 102.736 85.5739C102.757 85.6329 102.766 85.6955 102.762 85.7579V86.7501C102.766 86.8125 102.757 86.8751 102.736 86.934C102.715 86.9929 102.683 87.0469 102.64 87.0926C102.597 87.1383 102.545 87.1748 102.488 87.1997C102.431 87.2246 102.369 87.2375 102.306 87.2375C102.244 87.2375 102.182 87.2246 102.124 87.1997C102.067 87.1748 102.015 87.1383 101.973 87.0926C101.93 87.0469 101.897 86.9929 101.876 86.934C101.855 86.8751 101.846 86.8125 101.851 86.7501V85.7579ZM102.15 86.7687C102.15 86.9057 102.21 86.9576 102.305 86.9576C102.401 86.9576 102.461 86.9057 102.461 86.7687V85.7309C102.461 85.5939 102.401 85.542 102.305 85.542C102.21 85.542 102.15 85.5939 102.15 85.7309V86.7687Z" fill="#263238"/>
<path d="M102.939 85.5925C102.935 85.5524 102.94 85.512 102.953 85.474C102.966 85.4359 102.987 85.4009 103.014 85.3713C103.041 85.3417 103.074 85.3181 103.111 85.3019C103.148 85.2857 103.188 85.2773 103.228 85.2773C103.268 85.2773 103.308 85.2857 103.345 85.3019C103.382 85.3181 103.415 85.3417 103.442 85.3713C103.469 85.4009 103.49 85.4359 103.503 85.474C103.516 85.512 103.521 85.5524 103.518 85.5925V86.2152C103.521 86.2552 103.516 86.2956 103.503 86.3337C103.49 86.3717 103.469 86.4067 103.442 86.4363C103.415 86.4659 103.382 86.4896 103.345 86.5057C103.308 86.5219 103.268 86.5303 103.228 86.5303C103.188 86.5303 103.148 86.5219 103.111 86.5057C103.074 86.4896 103.041 86.4659 103.014 86.4363C102.987 86.4067 102.966 86.3717 102.953 86.3337C102.94 86.2956 102.935 86.2552 102.939 86.2152V85.5925ZM103.129 86.2318C103.129 86.3169 103.165 86.3521 103.227 86.3521C103.289 86.3521 103.327 86.3169 103.327 86.2318V85.5779C103.327 85.4928 103.287 85.4576 103.227 85.4576C103.167 85.4576 103.129 85.4928 103.129 85.5779V86.2318ZM103.98 85.2998H104.155L103.403 87.2094H103.225L103.98 85.2998ZM103.885 86.2816C103.882 86.2415 103.887 86.2011 103.9 86.1631C103.913 86.125 103.933 86.09 103.961 86.0604C103.988 86.0308 104.021 86.0072 104.058 85.991C104.095 85.9748 104.134 85.9664 104.175 85.9664C104.215 85.9664 104.255 85.9748 104.291 85.991C104.328 86.0072 104.361 86.0308 104.389 86.0604C104.416 86.09 104.437 86.125 104.45 86.1631C104.463 86.2011 104.468 86.2415 104.464 86.2816V86.9043C104.468 86.9443 104.463 86.9847 104.45 87.0228C104.437 87.0608 104.416 87.0958 104.389 87.1254C104.361 87.155 104.328 87.1787 104.291 87.1948C104.255 87.211 104.215 87.2194 104.175 87.2194C104.134 87.2194 104.095 87.211 104.058 87.1948C104.021 87.1787 103.988 87.155 103.961 87.1254C103.933 87.0958 103.913 87.0608 103.9 87.0228C103.887 86.9847 103.882 86.9443 103.885 86.9043V86.2816ZM104.076 86.9229C104.076 87.008 104.111 87.0433 104.174 87.0433C104.236 87.0433 104.273 87.008 104.273 86.9229V86.2816C104.273 86.1985 104.234 86.1633 104.174 86.1633C104.113 86.1633 104.076 86.1985 104.076 86.2816V86.9229Z" fill="#263238"/>
<path d="M88.0415 87.503C87.5055 87.16 87.0452 86.7112 86.6888 86.1841C86.3324 85.657 86.0874 85.0627 85.9687 84.4375C85.8501 83.8124 85.8603 83.1696 85.9988 82.5485C86.1373 81.9275 86.4011 81.3413 86.7741 80.8258C87.1471 80.3103 87.6214 79.8763 88.168 79.5506C88.7146 79.2248 89.322 79.0141 89.9529 78.9313C90.5838 78.8485 91.2249 78.8954 91.837 79.0691C92.4492 79.2429 93.0194 79.5397 93.5128 79.9415" stroke="#263238" stroke-width="1.56393" stroke-linejoin="round"/>
<path d="M94.2926 86.4111C93.5795 87.346 92.5405 87.9781 91.3824 88.1816C90.2243 88.3851 89.0321 88.145 88.043 87.5091" stroke="#757575" stroke-width="1.56393" stroke-linejoin="round"/>
<path d="M93.5098 79.9404C94.4543 80.7052 95.0638 81.8078 95.2092 83.0144C95.3545 84.221 95.0241 85.4367 94.2881 86.4039" stroke="black" stroke-width="1.56393" stroke-linejoin="round"/>
<path d="M98.6835 81.1717C99.1214 81.1717 99.4764 80.8167 99.4764 80.3788C99.4764 79.9409 99.1214 79.5859 98.6835 79.5859C98.2456 79.5859 97.8906 79.9409 97.8906 80.3788C97.8906 80.8167 98.2456 81.1717 98.6835 81.1717Z" fill="#263238"/>
<path d="M98.6835 84.077C99.1214 84.077 99.4764 83.722 99.4764 83.2841C99.4764 82.8462 99.1214 82.4912 98.6835 82.4912C98.2456 82.4912 97.8906 82.8462 97.8906 83.2841C97.8906 83.722 98.2456 84.077 98.6835 84.077Z" fill="#C4F0D1"/>
<path d="M98.6835 86.9891C99.1214 86.9891 99.4764 86.6341 99.4764 86.1962C99.4764 85.7583 99.1214 85.4033 98.6835 85.4033C98.2456 85.4033 97.8906 85.7583 97.8906 86.1962C97.8906 86.6341 98.2456 86.9891 98.6835 86.9891Z" fill="#757575"/>
<path d="M104.866 75.3037H86.5117V75.9326H104.866V75.3037Z" fill="#CCCCCC"/>
<path d="M44.8711 77.3906H81.4538" stroke="#CCCCCC" stroke-width="0.260655" stroke-linecap="round" stroke-linejoin="round"/>
<path d="M44.8711 79.1035H81.4538" stroke="#CCCCCC" stroke-width="0.260655" stroke-linecap="round" stroke-linejoin="round"/>
<path d="M44.8711 80.8145H81.4538" stroke="#CCCCCC" stroke-width="0.260655" stroke-linecap="round" stroke-linejoin="round"/>
<path d="M44.8711 82.5273H81.4538" stroke="#CCCCCC" stroke-width="0.260655" stroke-linecap="round" stroke-linejoin="round"/>
<path d="M44.8711 84.2393H81.4538" stroke="#CCCCCC" stroke-width="0.260655" stroke-linecap="round" stroke-linejoin="round"/>
<path d="M44.8711 85.9521H81.4538" stroke="#CCCCCC" stroke-width="0.260655" stroke-linecap="round" stroke-linejoin="round"/>
<path d="M44.8711 87.6641H81.4538" stroke="#CCCCCC" stroke-width="0.260655" stroke-linecap="round" stroke-linejoin="round"/>
<path d="M44.8711 89.376H81.4538" stroke="#CCCCCC" stroke-width="0.260655" stroke-linecap="round" stroke-linejoin="round"/>
<path d="M42.2812 77.3906H44.0434" stroke="#CCCCCC" stroke-width="0.260655" stroke-linecap="round" stroke-linejoin="round"/>
<path d="M42.2812 79.1035H44.0434" stroke="#CCCCCC" stroke-width="0.260655" stroke-linecap="round" stroke-linejoin="round"/>
<path d="M42.2812 80.8145H44.0434" stroke="#CCCCCC" stroke-width="0.260655" stroke-linecap="round" stroke-linejoin="round"/>
<path d="M42.2812 82.5273H44.0434" stroke="#CCCCCC" stroke-width="0.260655" stroke-linecap="round" stroke-linejoin="round"/>
<path d="M42.2812 84.2393H44.0434" stroke="#CCCCCC" stroke-width="0.260655" stroke-linecap="round" stroke-linejoin="round"/>
<path d="M42.2812 85.9521H44.0434" stroke="#CCCCCC" stroke-width="0.260655" stroke-linecap="round" stroke-linejoin="round"/>
<path d="M42.2812 87.6641H44.0434" stroke="#CCCCCC" stroke-width="0.260655" stroke-linecap="round" stroke-linejoin="round"/>
<path d="M42.2812 89.376H44.0434" stroke="#CCCCCC" stroke-width="0.260655" stroke-linecap="round" stroke-linejoin="round"/>
<path d="M45.5234 81.3304L45.9593 80.9423L46.2022 81.5255L46.7833 81.1374L46.9784 81.6231L47.5119 80.2158L47.7547 80.6517L47.9 81.5732L48.4334 81.7683L48.6763 82.5924L49.0167 82.9328L49.3073 82.252L49.986 83.6592L50.2766 83.5617L50.9076 87.1525L51.1504 86.619L51.5863 87.6859L52.265 83.5139L52.8483 84.4832L53.334 83.5617L53.6723 84.3379L54.1082 83.9498L54.4486 84.7759L55.2249 83.9498L55.5652 85.0187L56.3395 85.4069L56.7276 84.4832L57.1178 84.4355L57.4561 83.8543H57.7965L58.0373 85.2595L58.4275 83.8045L58.9111 83.709L59.3968 83.3686L59.8327 83.6592L60.1731 84.9689L60.5114 84.7261L61.0947 85.6975L61.433 85.1142L61.7257 85.6975L61.9685 85.5024L62.3567 85.5999L63.0831 84.6306L63.5688 85.164L63.9071 84.1927L64.2953 84.4832L64.6834 82.1565L64.9761 82.4948L65.605 80.3133H65.8478L65.9931 79.2444L66.4788 79.1967L66.6719 78.1298L67.1575 79.4395L67.4481 78.8583L67.7885 81.0398L68.2244 81.1851L68.4673 80.4586L69.2934 79.8754L69.7292 80.9423L69.777 82.8352L70.3602 83.1258L70.8936 82.1565L71.3295 82.3018L71.863 82.252L72.2034 82.9328L72.5915 82.0112H72.8821L73.8037 84.0972L74.0465 83.3686L74.4346 83.4164L74.9183 84.5808L75.4517 83.7568L75.8398 79.8276L76.3733 80.4586L76.5684 77.3535L77.0541 77.9347L77.2969 79.5848L77.8781 79.3419L78.314 80.7015L78.6544 80.8468L78.8474 83.3686L79.1401 82.7875L79.2853 82.1067L80.0616 82.3018L80.3999 82.1067L81.0309 82.9805" stroke="black" stroke-width="0.52131" stroke-miterlimit="10"/>
<path d="M46.8334 74.3643H42.4746V76.5727H46.8334V74.3643Z" fill="white" stroke="#263238" stroke-width="0.260655" stroke-linecap="round" stroke-linejoin="round"/>
<path d="M46.8318 74.3643V74.8894C46.6925 74.8894 46.5589 74.8341 46.4604 74.7356C46.362 74.6371 46.3066 74.5035 46.3066 74.3643H46.8318Z" fill="white" stroke="#263238" stroke-width="0.260655" stroke-linecap="round" stroke-linejoin="round"/>
<path d="M46.3105 76.5693C46.3105 76.5465 46.3105 76.5237 46.3105 76.4988C46.3105 76.3595 46.3659 76.2259 46.4644 76.1274C46.5628 76.029 46.6964 75.9736 46.8357 75.9736" fill="white"/>
<path d="M46.3105 76.5693C46.3105 76.5465 46.3105 76.5237 46.3105 76.4988C46.3105 76.3595 46.3659 76.2259 46.4644 76.1274C46.5628 76.029 46.6964 75.9736 46.8357 75.9736" stroke="#263238" stroke-width="0.260655" stroke-linecap="round" stroke-linejoin="round"/>
<path d="M42.4746 74.8894H42.4891C42.6284 74.8894 42.762 74.8341 42.8605 74.7356C42.9589 74.6371 43.0143 74.5035 43.0143 74.3643" fill="white"/>
<path d="M42.4746 74.8894H42.4891C42.6284 74.8894 42.762 74.8341 42.8605 74.7356C42.9589 74.6371 43.0143 74.5035 43.0143 74.3643" stroke="#263238" stroke-width="0.260655" stroke-linecap="round" stroke-linejoin="round"/>
<path d="M43.014 76.4988C43.014 76.5237 43.014 76.5465 43.014 76.5693H42.4785V75.9736H42.493C42.6316 75.9747 42.7641 76.0305 42.8617 76.1289C42.9593 76.2273 43.014 76.3602 43.014 76.4988Z" fill="white" stroke="#263238" stroke-width="0.260655" stroke-linecap="round" stroke-linejoin="round"/>
<path d="M45.3343 75.4669C45.3343 75.3323 45.2943 75.2007 45.2195 75.0887C45.1447 74.9767 45.0384 74.8895 44.914 74.838C44.7896 74.7864 44.6527 74.7729 44.5206 74.7992C44.3886 74.8255 44.2673 74.8903 44.1721 74.9855C44.0768 75.0807 44.012 75.2021 43.9857 75.3341C43.9595 75.4662 43.973 75.6031 44.0245 75.7275C44.076 75.8519 44.1633 75.9582 44.2752 76.033C44.3872 76.1078 44.5188 76.1477 44.6535 76.1477C44.834 76.1477 45.0072 76.076 45.1349 75.9483C45.2625 75.8207 45.3343 75.6475 45.3343 75.4669Z" fill="white" stroke="#263238" stroke-width="0.260655" stroke-linecap="round" stroke-linejoin="round"/>
<path d="M44.5958 75.0438V74.9795H44.7079V75.0438C44.8034 75.0625 44.8532 75.1372 44.8532 75.2514V75.2784H44.7245V75.241C44.7245 75.1808 44.6996 75.1559 44.656 75.1559C44.6124 75.1559 44.5896 75.1808 44.5896 75.241C44.5896 75.4195 44.8532 75.4278 44.8532 75.6748C44.8585 75.7212 44.8467 75.7679 44.8199 75.8062C44.7932 75.8444 44.7533 75.8715 44.7079 75.8824V75.9447H44.5958V75.9011C44.55 75.8906 44.5097 75.8637 44.4825 75.8254C44.4553 75.7871 44.4432 75.7402 44.4485 75.6935V75.6354H44.5813V75.6935C44.5813 75.7537 44.6083 75.7765 44.6519 75.7765C44.6955 75.7765 44.7224 75.7537 44.7224 75.6935C44.7224 75.515 44.4568 75.5067 44.4568 75.2597C44.4485 75.2128 44.4582 75.1645 44.484 75.1245C44.5098 75.0845 44.5497 75.0557 44.5958 75.0438Z" fill="#263238"/>
<path d="M66.5226 75.3037H48.168V75.9326H66.5226V75.3037Z" fill="#CCCCCC"/>
<path d="M122.932 77.2285H108.559V78.5984H122.932V77.2285Z" fill="#CCCCCC"/>
<path d="M113.144 77.2285H108.559V78.5984H113.144V77.2285Z" fill="black"/>
<path d="M122.932 80.7676H108.559V82.1375H122.932V80.7676Z" fill="#CCCCCC"/>
<path d="M118.171 80.7676H108.559V82.1375H118.171V80.7676Z" fill="black"/>
<path d="M122.932 84.3066H108.559V85.6765H122.932V84.3066Z" fill="#CCCCCC"/>
<path d="M110.586 84.3066H108.559V85.6765H110.586V84.3066Z" fill="black"/>
<path d="M122.932 87.8447H108.559V89.2146H122.932V87.8447Z" fill="#CCCCCC"/>
<path d="M121.168 87.8447H108.559V89.2146H121.168V87.8447Z" fill="black"/>
<path d="M122.842 75.3037H108.512V75.9326H122.842V75.3037Z" fill="#CCCCCC"/>
</svg>
