<svg width="193" height="193" viewBox="0 0 193 193" fill="none" xmlns="http://www.w3.org/2000/svg">
<circle cx="96.5" cy="96.5" r="96.5" fill="#2AB7CA"/>
<path d="M185 149.898H8V149.987H185V149.898Z" fill="#EBEBEB"/>
<path d="M167.264 155.596H155.539V155.684H167.264V155.596Z" fill="#EBEBEB"/>
<path d="M125.252 156.559H122.176V156.647H125.252V156.559Z" fill="#EBEBEB"/>
<path d="M155.186 152.311H148.393V152.399H155.186V152.311Z" fill="#EBEBEB"/>
<path d="M41.8596 152.906H26.5703V152.995H41.8596V152.906Z" fill="#EBEBEB"/>
<path d="M47.2545 152.906H45.0137V152.995H47.2545V152.906Z" fill="#EBEBEB"/>
<path d="M87.7018 154.398H54.5391V154.487H87.7018V154.398Z" fill="#EBEBEB"/>
<path d="M91.8971 134.111H23.5432C23.0077 134.11 22.4945 133.897 22.1162 133.518C21.7379 133.139 21.5254 132.625 21.5254 132.09V36.0036C21.5301 35.4712 21.7446 34.9622 22.1224 34.587C22.5002 34.2119 23.0108 34.0009 23.5432 34H91.8971C92.4331 34 92.9473 34.213 93.3264 34.592C93.7054 34.9711 93.9184 35.4852 93.9184 36.0213V132.09C93.9184 132.626 93.7054 133.14 93.3264 133.519C92.9473 133.898 92.4331 134.111 91.8971 134.111ZM23.5432 34.0708C23.0312 34.0717 22.5405 34.2758 22.1788 34.6382C21.817 35.0005 21.6139 35.4916 21.6139 36.0036V132.09C21.6139 132.602 21.817 133.093 22.1788 133.455C22.5405 133.818 23.0312 134.022 23.5432 134.023H91.8971C92.4094 134.022 92.9005 133.818 93.2627 133.456C93.625 133.093 93.829 132.602 93.8299 132.09V36.0036C93.829 35.4913 93.625 35.0002 93.2627 34.6379C92.9005 34.2757 92.4094 34.0717 91.8971 34.0708H23.5432Z" fill="#EBEBEB"/>
<path d="M168.472 134.111H100.115C99.5793 134.11 99.0657 133.897 98.6868 133.518C98.308 133.139 98.0947 132.626 98.0938 132.09V36.0036C98.0993 35.4709 98.3147 34.9618 98.693 34.5868C99.0714 34.2117 99.5823 34.0009 100.115 34H168.472C169.004 34.0018 169.514 34.2132 169.891 34.5883C170.268 34.9633 170.482 35.4718 170.487 36.0036V132.09C170.487 132.625 170.275 133.138 169.897 133.517C169.52 133.896 169.007 134.109 168.472 134.111ZM100.115 34.0708C99.6028 34.0717 99.1117 34.2757 98.7494 34.6379C98.3871 35.0002 98.1832 35.4913 98.1823 36.0036V132.09C98.1832 132.602 98.3871 133.093 98.7494 133.456C99.1117 133.818 99.6028 134.022 100.115 134.023H168.472C168.985 134.022 169.476 133.818 169.838 133.456C170.2 133.093 170.404 132.602 170.405 132.09V36.0036C170.404 35.4913 170.2 35.0002 169.838 34.6379C169.476 34.2757 168.985 34.0717 168.472 34.0708H100.115Z" fill="#EBEBEB"/>
<path d="M94.9503 71.5225C94.3994 68.8781 93.3532 66.3617 91.867 64.1062L94.522 60.8989L88.858 55.2349L85.6507 57.8864C83.3942 56.4027 80.8782 55.3578 78.2344 54.8066L77.845 50.6719H69.8057L69.4163 54.8066C66.7734 55.3572 64.2584 56.4021 62.0035 57.8864L58.7963 55.2385L53.1323 60.9025L55.7873 64.1097C54.2979 66.3639 53.247 68.8788 52.6898 71.5225L48.5586 71.9119V79.9406L52.6898 80.33C53.2464 82.9778 54.2985 85.4965 55.7908 87.7534L53.1358 90.9606L58.7998 96.6246L62.0071 93.9696C64.2618 95.455 66.7768 96.5011 69.4198 97.053L69.8092 101.184H77.8379L78.2273 97.053C80.8713 96.5005 83.3873 95.4545 85.6436 93.9696L88.8509 96.6246L94.5149 90.9606L91.8599 87.7534C93.3461 85.4991 94.3923 82.9839 94.9432 80.3406L99.0779 79.9512V71.9225L94.9503 71.5225ZM84.6843 75.9262C84.6843 78.0757 84.0469 80.1769 82.8527 81.9641C81.6586 83.7513 79.9613 85.1442 77.9754 85.9668C75.9896 86.7893 73.8044 87.0046 71.6963 86.5852C69.5881 86.1659 67.6517 85.1308 66.1318 83.6109C64.6119 82.091 63.5769 80.1546 63.1575 78.0464C62.7382 75.9383 62.9534 73.7531 63.776 71.7673C64.5985 69.7815 65.9915 68.0842 67.7787 66.89C69.5659 65.6958 71.667 65.0584 73.8165 65.0584C75.2449 65.058 76.6593 65.3391 77.979 65.8857C79.2986 66.4323 80.4976 67.2337 81.5072 68.244C82.5169 69.2544 83.3175 70.4539 83.8633 71.7739C84.409 73.0938 84.6892 74.5085 84.6878 75.9369L84.6843 75.9262Z" fill="#F0F0F0"/>
<path d="M117.974 110.061L118.253 113.031H124.024L124.303 110.064C126.196 109.664 127.998 108.913 129.613 107.848L131.936 109.756L136.014 105.678L134.106 103.384C135.172 101.763 135.924 99.9557 136.322 98.0565L139.288 97.7769V92.0067L136.322 91.727C135.922 89.834 135.17 88.0328 134.106 86.417L136.014 84.1125L131.936 80.0202L129.631 81.9283C128.015 80.8639 126.214 80.1122 124.321 79.7122L124.041 76.7422H118.271L117.992 79.7122C116.092 80.1101 114.285 80.8619 112.664 81.9283L110.342 80.0202L106.264 84.0983L108.182 86.3922C107.118 88.008 106.366 89.8092 105.966 91.7022L102.996 91.9819V97.7521L105.966 98.0317C106.361 99.9396 107.113 101.756 108.182 103.384L106.274 105.689L110.342 109.756L112.646 107.848C114.267 108.915 116.074 109.666 117.974 110.061ZM121.139 102.676C119.593 102.676 118.082 102.218 116.798 101.359C115.513 100.5 114.512 99.2787 113.922 97.8505C113.331 96.4223 113.178 94.8511 113.481 93.3357C113.784 91.8202 114.53 90.4288 115.624 89.3375C116.718 88.2462 118.112 87.5041 119.628 87.2052C121.144 86.9063 122.715 87.064 124.142 87.6583C125.568 88.2526 126.787 89.2569 127.642 90.5439C128.498 91.8309 128.952 93.3428 128.948 94.8882C128.942 96.9557 128.117 98.9365 126.653 100.396C125.189 101.856 123.206 102.676 121.139 102.676Z" fill="#F0F0F0"/>
<path d="M87.3455 150.467H94.2131L94.5459 146.927C96.8072 146.454 98.9592 145.559 100.89 144.289L103.633 146.559L108.486 141.705L106.217 138.962C107.487 137.031 108.381 134.879 108.855 132.618L112.395 132.285V125.418L108.855 125.085C108.382 122.823 107.488 120.671 106.217 118.741L108.486 115.998L103.633 111.141L100.89 113.414C98.9601 112.142 96.8078 111.248 94.5459 110.776L94.2131 107.236H87.3455L87.0127 110.776C84.7508 111.248 82.5985 112.142 80.6691 113.414L77.9256 111.141L73.0687 115.998L75.3414 118.741C74.0711 120.671 73.1763 122.823 72.7041 125.085L69.1641 125.418V132.285L72.7041 132.618C73.1763 134.879 74.0711 137.03 75.3414 138.958L73.0687 141.705L77.9256 146.559L80.6691 144.289C82.5994 145.559 84.7514 146.454 87.0127 146.927L87.3455 150.467ZM90.7793 138.155C88.9407 138.155 87.1434 137.609 85.6147 136.588C84.086 135.567 82.8945 134.115 82.1909 132.416C81.4873 130.717 81.3032 128.848 81.6619 127.045C82.0206 125.242 82.9059 123.585 84.206 122.285C85.5061 120.985 87.1625 120.1 88.9657 119.741C90.769 119.383 92.6381 119.567 94.3367 120.27C96.0354 120.974 97.4872 122.165 98.5087 123.694C99.5301 125.223 100.075 127.02 100.075 128.859C100.072 131.322 99.0905 133.683 97.3476 135.423C95.6047 137.163 93.2423 138.141 90.7793 138.141V138.155Z" fill="#F0F0F0"/>
<path d="M123.421 67.0072C123.703 67.492 123.834 68.0496 123.799 68.6092C123.763 69.1688 123.562 69.7053 123.222 70.1506C122.881 70.596 122.416 70.9301 121.885 71.1107C121.354 71.2913 120.781 71.3103 120.24 71.1652C119.698 71.0201 119.212 70.7175 118.842 70.2957C118.473 69.8739 118.237 69.3519 118.164 68.7958C118.092 68.2398 118.186 67.6747 118.435 67.1723C118.684 66.6699 119.077 66.2526 119.563 65.9735C120.212 65.6009 120.982 65.5004 121.705 65.6941C122.429 65.8878 123.045 66.3599 123.421 67.0072Z" fill="#F0F0F0"/>
<path d="M120.263 68.1704C120.348 68.3226 120.525 68.3155 120.738 68.2624L120.416 67.7031C120.217 67.866 120.182 68.0323 120.263 68.1704Z" fill="#E0E0E0"/>
<path d="M121.254 68.5606L121.576 69.12C121.785 68.95 121.82 68.7872 121.742 68.6527C121.665 68.5182 121.473 68.504 121.254 68.5606Z" fill="#E0E0E0"/>
<path d="M119.768 66.3313C119.354 66.5696 119.02 66.9254 118.809 67.3535C118.597 67.7817 118.517 68.263 118.579 68.7366C118.641 69.2102 118.842 69.6547 119.157 70.014C119.471 70.3733 119.885 70.6312 120.347 70.7551C120.808 70.8789 121.296 70.8632 121.748 70.7099C122.2 70.5565 122.597 70.2725 122.888 69.8936C123.179 69.5148 123.351 69.0582 123.382 68.5816C123.413 68.1051 123.303 67.6299 123.064 67.2163C122.906 66.9415 122.695 66.7007 122.444 66.5075C122.192 66.3143 121.905 66.1725 121.599 66.0903C121.293 66.0081 120.974 65.9871 120.66 66.0284C120.345 66.0698 120.042 66.1727 119.768 66.3313ZM121.775 69.4606L121.977 69.8146L121.719 69.9633L121.517 69.6093C121.236 69.7632 120.915 69.8274 120.596 69.7934L120.572 69.4005C120.834 69.4341 121.101 69.391 121.34 69.2765L120.986 68.65C120.589 68.7668 120.147 68.8694 119.895 68.4305C119.711 68.1083 119.782 67.6942 120.249 67.3685L120.044 67.0145L120.303 66.8658L120.504 67.2198C120.736 67.1004 120.994 67.0396 121.255 67.0428L121.308 67.4358C121.098 67.4329 120.891 67.4752 120.699 67.5597L121.053 68.1969C121.449 68.08 121.896 67.9703 122.147 68.4057C122.317 68.7137 122.239 69.1279 121.775 69.4606Z" fill="#E0E0E0"/>
<path d="M49.6826 142.453C51.2956 140.492 51.013 137.594 49.0513 135.981C47.0897 134.368 44.1919 134.651 42.5788 136.612C40.9658 138.574 41.2484 141.472 43.2101 143.085C45.1717 144.698 48.0695 144.415 49.6826 142.453Z" fill="#F0F0F0"/>
<path d="M45.6558 138.396C45.5673 138.665 45.769 138.867 46.0664 139.069L46.3885 138.067C45.9673 138 45.7336 138.148 45.6558 138.396Z" fill="#E0E0E0"/>
<path d="M46.2717 140.016L45.9531 141.01C46.385 141.081 46.6186 140.947 46.6965 140.702C46.7744 140.458 46.5868 140.217 46.2717 140.016Z" fill="#E0E0E0"/>
<path d="M47.3336 135.786C46.5942 135.548 45.801 135.535 45.0542 135.749C44.3075 135.962 43.6408 136.392 43.1386 136.985C42.6363 137.577 42.321 138.305 42.2326 139.076C42.1441 139.848 42.2865 140.629 42.6418 141.319C42.997 142.01 43.5491 142.58 44.2282 142.956C44.9073 143.333 45.6829 143.5 46.4568 143.436C47.2308 143.372 47.9684 143.08 48.5763 142.596C49.1842 142.113 49.635 141.46 49.8718 140.721C50.1891 139.73 50.1 138.653 49.624 137.728C49.1481 136.803 48.3243 136.104 47.3336 135.786ZM45.7548 141.616L45.553 142.246L45.0928 142.098L45.291 141.475C44.7996 141.301 44.3716 140.984 44.0627 140.565L44.4981 140.076C44.7463 140.427 45.0887 140.701 45.4857 140.866L45.8397 139.74C45.2627 139.386 44.6574 138.968 44.9087 138.186C45.0928 137.609 45.6698 137.244 46.5761 137.439L46.7814 136.802L47.2451 136.95L47.0434 137.577C47.4419 137.723 47.7973 137.966 48.077 138.285L47.6629 138.781C47.4363 138.527 47.1588 138.325 46.8486 138.186L46.4946 139.322C47.0717 139.676 47.6876 140.09 47.4363 140.873C47.2487 141.46 46.6681 141.818 45.7548 141.616Z" fill="#E0E0E0"/>
<path d="M155.744 118.936C158.158 118.146 159.475 115.549 158.685 113.135C157.895 110.721 155.298 109.405 152.884 110.195C150.47 110.985 149.154 113.582 149.944 115.995C150.734 118.409 153.331 119.726 155.744 118.936Z" fill="#F0F0F0"/>
<path d="M153.139 114.167C153.285 114.411 153.571 114.393 153.918 114.305L153.377 113.398C153.065 113.671 153.019 113.944 153.139 114.167Z" fill="#E0E0E0"/>
<path d="M154.779 114.78L155.314 115.679C155.668 115.399 155.707 115.134 155.576 114.914C155.445 114.695 155.133 114.684 154.779 114.78Z" fill="#E0E0E0"/>
<path d="M152.307 111.172C151.64 111.57 151.107 112.156 150.773 112.857C150.44 113.558 150.322 114.343 150.434 115.111C150.546 115.879 150.883 116.597 151.403 117.173C151.923 117.75 152.603 118.159 153.355 118.35C154.108 118.54 154.9 118.503 155.631 118.243C156.363 117.984 157.001 117.513 157.465 116.891C157.93 116.268 158.199 115.522 158.239 114.747C158.279 113.972 158.089 113.202 157.692 112.535C157.158 111.641 156.291 110.995 155.281 110.739C154.272 110.484 153.202 110.639 152.307 111.172ZM155.645 116.22L155.982 116.79L155.568 117.038L155.231 116.475C154.775 116.729 154.254 116.84 153.734 116.794L153.656 116.146C154.084 116.192 154.516 116.115 154.902 115.926L154.297 114.91C153.652 115.109 152.937 115.286 152.527 114.578C152.219 114.061 152.325 113.385 153.072 112.836L152.718 112.262L153.136 112.015L153.472 112.578C153.845 112.376 154.262 112.271 154.686 112.273L154.785 112.91C154.445 112.913 154.108 112.986 153.798 113.126L154.41 114.153C155.058 113.955 155.776 113.763 156.198 114.471C156.506 114.999 156.392 115.675 155.645 116.231V116.22Z" fill="#E0E0E0"/>
<path d="M109.902 56.3686C109.355 57.0963 108.605 57.6454 107.746 57.9467C106.887 58.2479 105.958 58.2876 105.077 58.0608C104.195 57.834 103.4 57.3509 102.794 56.6726C102.187 55.9942 101.794 55.1511 101.667 54.2499C101.539 53.3486 101.681 52.4297 102.076 51.6094C102.47 50.7891 103.099 50.1042 103.883 49.6413C104.667 49.1785 105.57 48.9585 106.479 49.0091C107.388 49.0597 108.261 49.3787 108.989 49.9258C109.964 50.6591 110.608 51.7498 110.78 52.958C110.951 54.1662 110.635 55.393 109.902 56.3686Z" fill="#F0F0F0"/>
<path d="M106.144 52.379C105.974 52.6056 106.098 52.864 106.31 53.1507L106.944 52.3082C106.569 52.1064 106.3 52.1701 106.144 52.379Z" fill="#E0E0E0"/>
<path d="M106.193 54.1133L105.566 54.9487C105.949 55.1576 106.218 55.1045 106.37 54.9027C106.522 54.7009 106.412 54.4036 106.193 54.1133Z" fill="#E0E0E0"/>
<path d="M108.586 50.4635C107.965 49.997 107.22 49.725 106.445 49.6818C105.669 49.6387 104.899 49.8265 104.23 50.2213C103.562 50.6161 103.025 51.2003 102.689 51.9C102.352 52.5997 102.231 53.3835 102.34 54.1523C102.448 54.921 102.783 55.6402 103.301 56.219C103.818 56.7977 104.496 57.2099 105.248 57.4035C106 57.5971 106.792 57.5634 107.525 57.3067C108.258 57.0499 108.898 56.5817 109.364 55.9611C109.674 55.549 109.9 55.0799 110.028 54.5806C110.157 54.0813 110.186 53.5615 110.114 53.051C110.041 52.5405 109.869 52.0492 109.607 51.6053C109.345 51.1613 108.998 50.7733 108.586 50.4635ZM105.177 55.462L104.78 55.993L104.391 55.7027L104.787 55.1752C104.378 54.8523 104.077 54.4128 103.923 53.915L104.493 53.5964C104.616 54.0063 104.85 54.374 105.169 54.6584L105.877 53.7132C105.449 53.1928 105.014 52.5981 105.523 51.9432C105.877 51.4618 106.55 51.306 107.343 51.7875L107.743 51.2529L108.132 51.5467L107.736 52.0707C108.064 52.3394 108.32 52.6863 108.479 53.0796L107.927 53.4123C107.795 53.0986 107.6 52.8154 107.354 52.5804L106.646 53.5362C107.074 54.0566 107.52 54.6549 107.028 55.3062C106.642 55.7983 105.977 55.947 105.177 55.462Z" fill="#E0E0E0"/>
<path d="M40.3199 70.9044C40.8598 71.1896 41.303 71.6286 41.5934 72.1658C41.8838 72.703 42.0083 73.3142 41.9513 73.9222C41.8942 74.5301 41.6581 75.1075 41.2729 75.5813C40.8876 76.0551 40.3705 76.4039 39.7869 76.5838C39.2034 76.7636 38.5796 76.7663 37.9945 76.5915C37.4094 76.4168 36.8893 76.0724 36.4999 75.602C36.1106 75.1316 35.8695 74.5563 35.8071 73.9488C35.7448 73.3414 35.8641 72.7291 36.1498 72.1894C36.5326 71.4663 37.1869 70.9247 37.9689 70.6838C38.7508 70.4428 39.5964 70.5222 40.3199 70.9044Z" fill="#F0F0F0"/>
<path d="M38.0916 73.8133C38.2615 73.9054 38.4173 73.7956 38.5872 73.6222L37.9429 73.293C37.8509 73.562 37.9217 73.7319 38.0916 73.8133Z" fill="#E0E0E0"/>
<path d="M39.2168 73.5982L39.8398 73.9274C39.9354 73.6513 39.8752 73.4778 39.723 73.3999C39.5708 73.322 39.3903 73.4212 39.2168 73.5982Z" fill="#E0E0E0"/>
<path d="M36.5448 72.3976C36.2999 72.8584 36.1972 73.3815 36.2497 73.9008C36.3022 74.42 36.5076 74.9119 36.8399 75.3144C37.1721 75.7168 37.6163 76.0116 38.1161 76.1615C38.616 76.3114 39.1491 76.3096 39.648 76.1564C40.1469 76.0032 40.589 75.7054 40.9186 75.3007C41.2481 74.8961 41.4502 74.4028 41.4993 73.8832C41.5483 73.3636 41.4421 72.8412 41.1941 72.3821C40.9461 71.9229 40.5674 71.5476 40.1061 71.3037C39.4886 70.9774 38.7669 70.9092 38.0993 71.1143C37.4316 71.3194 36.8726 71.7809 36.5448 72.3976ZM40.2123 74.1287L40.6052 74.3375L40.453 74.6243L40.0636 74.4189C39.8913 74.7245 39.631 74.9712 39.3167 75.1269L39.0476 74.7729C39.3085 74.6487 39.5293 74.4536 39.6848 74.2101L38.9768 73.8384C38.6759 74.1924 38.3255 74.5287 37.8405 74.2703C37.4865 74.0826 37.3059 73.6578 37.5431 73.0808L37.1466 72.872L37.2988 72.5852L37.6883 72.7905C37.8324 72.545 38.0356 72.3394 38.2794 72.1923L38.5591 72.525C38.3705 72.6482 38.2101 72.8099 38.0883 72.9994L38.7963 73.3746C39.0972 73.0206 39.4441 72.6666 39.9291 72.9321C40.2831 73.1233 40.453 73.5481 40.2123 74.1287Z" fill="#E0E0E0"/>
<path d="M95.6332 98.6537C96.1463 98.9259 96.5673 99.344 96.8429 99.8553C97.1185 100.367 97.2364 100.948 97.1817 101.526C97.1269 102.105 96.902 102.654 96.5354 103.104C96.1687 103.555 95.6768 103.886 95.1217 104.057C94.5666 104.228 93.9733 104.231 93.4167 104.065C92.8601 103.899 92.3651 103.572 91.9945 103.125C91.6238 102.677 91.394 102.13 91.334 101.553C91.2741 100.975 91.3868 100.392 91.6578 99.8786C92.0226 99.189 92.6463 98.6726 93.3919 98.4429C94.1374 98.2132 94.9436 98.289 95.6332 98.6537Z" fill="#F0F0F0"/>
<path d="M93.4917 101.429C93.6546 101.514 93.8033 101.408 93.9626 101.245L93.3678 100.93C93.2793 101.185 93.3466 101.351 93.4917 101.429Z" fill="#E0E0E0"/>
<path d="M94.582 101.221L95.1732 101.536C95.2653 101.271 95.2051 101.108 95.0635 101.034C94.9219 100.959 94.7307 101.052 94.582 101.221Z" fill="#E0E0E0"/>
<path d="M92.0413 100.077C91.8084 100.516 91.7108 101.014 91.7608 101.508C91.8109 102.002 92.0063 102.47 92.3225 102.853C92.6386 103.236 93.0612 103.516 93.5368 103.659C94.0124 103.801 94.5196 103.8 94.9943 103.654C95.4689 103.508 95.8897 103.225 96.2034 102.84C96.5171 102.455 96.7096 101.986 96.7565 101.492C96.8035 100.998 96.7027 100.5 96.467 100.063C96.2314 99.6264 95.8714 99.2691 95.4326 99.0367C94.8446 98.7264 94.1576 98.6616 93.522 98.8567C92.8864 99.0518 92.3539 99.4907 92.0413 100.077ZM95.5388 101.727L95.914 101.925L95.7689 102.201L95.3972 102.003C95.2333 102.293 94.9868 102.527 94.6892 102.676L94.4308 102.347C94.6798 102.229 94.8908 102.044 95.0396 101.812L94.3706 101.458C94.0838 101.784 93.7546 102.117 93.2873 101.869C92.9333 101.688 92.7811 101.285 93.0077 100.736L92.6289 100.538L92.774 100.262L93.128 100.46C93.2646 100.225 93.4582 100.029 93.6909 99.8899L93.9564 100.205C93.7714 100.32 93.6123 100.472 93.4891 100.651L94.1653 101.005C94.452 100.683 94.7812 100.339 95.245 100.584C95.6025 100.768 95.7618 101.175 95.5388 101.727Z" fill="#E0E0E0"/>
<path d="M139.103 136.607C138.696 137.867 137.925 138.979 136.886 139.801C135.848 140.623 134.589 141.119 133.269 141.226C131.949 141.333 130.627 141.047 129.469 140.403C128.312 139.759 127.371 138.787 126.766 137.609C126.161 136.43 125.918 135.099 126.069 133.783C126.22 132.468 126.757 131.226 127.614 130.215C128.47 129.205 129.606 128.47 130.879 128.105C132.152 127.74 133.505 127.761 134.767 128.164C135.607 128.433 136.385 128.865 137.057 129.435C137.73 130.005 138.283 130.702 138.686 131.486C139.089 132.27 139.333 133.126 139.405 134.005C139.476 134.883 139.374 135.768 139.103 136.607Z" fill="#F0F0F0"/>
<path d="M132.021 132.914C131.897 133.307 132.191 133.601 132.623 133.895L133.09 132.433C132.477 132.337 132.138 132.553 132.021 132.914Z" fill="#E0E0E0"/>
<path d="M132.922 135.277L132.455 136.729C133.082 136.831 133.429 136.633 133.542 136.283C133.655 135.932 133.368 135.575 132.922 135.277Z" fill="#E0E0E0"/>
<path d="M134.466 129.113C133.388 128.767 132.233 128.749 131.145 129.061C130.057 129.373 129.086 130 128.355 130.863C127.624 131.727 127.165 132.788 127.037 133.912C126.909 135.036 127.117 136.173 127.634 137.179C128.152 138.185 128.957 139.015 129.946 139.563C130.936 140.112 132.066 140.355 133.193 140.262C134.321 140.168 135.395 139.742 136.281 139.038C137.166 138.334 137.823 137.383 138.169 136.306C138.398 135.59 138.485 134.837 138.423 134.088C138.361 133.339 138.152 132.61 137.808 131.942C137.464 131.273 136.992 130.68 136.419 130.194C135.845 129.709 135.181 129.341 134.466 129.113ZM132.168 137.609L131.874 138.529L131.202 138.313L131.492 137.4C130.774 137.15 130.15 136.689 129.701 136.076L130.335 135.368C130.697 135.879 131.196 136.278 131.775 136.518L132.303 134.876C131.464 134.362 130.582 133.753 130.947 132.614C131.216 131.778 132.055 131.24 133.375 131.527L133.673 130.599L134.345 130.815L134.055 131.729C134.635 131.942 135.152 132.297 135.56 132.762L134.958 133.47C134.628 133.1 134.224 132.803 133.772 132.599L133.237 134.256C134.08 134.773 134.979 135.378 134.614 136.518C134.345 137.368 133.499 137.906 132.168 137.623V137.609Z" fill="#E0E0E0"/>
<path d="M38.1431 114.069C41.63 112.829 43.4513 108.997 42.2111 105.51C40.9708 102.023 37.1386 100.201 33.6516 101.442C30.1646 102.682 28.3433 106.514 29.5836 110.001C30.8239 113.488 34.6561 115.309 38.1431 114.069Z" fill="#F0F0F0"/>
<path d="M36.5246 106.078C36.1706 106.28 36.1706 106.694 36.2839 107.204L37.6291 106.464C37.2503 105.972 36.8573 105.897 36.5246 106.078Z" fill="#E0E0E0"/>
<path d="M35.5569 108.41L34.2188 109.146C34.6046 109.653 34.9905 109.745 35.3162 109.564C35.6418 109.384 35.6772 108.934 35.5569 108.41Z" fill="#E0E0E0"/>
<path d="M40.9209 104.999C40.3758 104.008 39.549 103.201 38.545 102.679C37.5411 102.158 36.405 101.946 35.2805 102.07C34.156 102.194 33.0935 102.649 32.2275 103.376C31.3614 104.104 30.7306 105.073 30.4148 106.159C30.0991 107.245 30.1125 108.401 30.4535 109.48C30.7944 110.559 31.4476 111.512 32.3303 112.22C33.2131 112.927 34.2859 113.357 35.4129 113.455C36.54 113.553 37.6709 113.314 38.6624 112.77C39.9919 112.038 40.9765 110.809 41.4 109.352C41.8235 107.895 41.6512 106.329 40.9209 104.999ZM33.3984 109.601L32.5524 110.065L32.1984 109.446L33.0374 108.985C32.6897 108.31 32.554 107.545 32.648 106.791L33.5967 106.709C33.5064 107.33 33.5961 107.964 33.8551 108.536L35.3631 107.708C35.1083 106.755 34.8852 105.707 35.9366 105.13C36.7048 104.706 37.6854 104.897 38.4465 106.012L39.2996 105.545L39.6536 106.164L38.7969 106.624C39.0714 107.179 39.2028 107.794 39.1793 108.412L38.2482 108.518C38.2603 108.022 38.1699 107.53 37.9827 107.07L36.457 107.909C36.7119 108.862 36.9526 109.92 35.9012 110.497C35.1401 110.922 34.1666 110.72 33.3914 109.601H33.3984Z" fill="#E0E0E0"/>
<path d="M96.5004 165.888C134.408 165.888 165.137 164.093 165.137 161.88C165.137 159.667 134.408 157.873 96.5004 157.873C58.5931 157.873 27.8633 159.667 27.8633 161.88C27.8633 164.093 58.5931 165.888 96.5004 165.888Z" fill="#F5F5F5"/>
<path d="M144.012 52.3359H142.596C138.702 52.3359 135.541 56.1485 135.541 60.8532C135.541 65.5578 138.699 69.3704 142.596 69.3704H144.012C147.906 69.3704 151.071 65.5578 151.071 60.8532C151.071 56.1485 147.91 52.3359 144.012 52.3359Z" fill="black"/>
<path opacity="0.2" d="M144.012 52.3359H142.596C138.702 52.3359 135.541 56.1485 135.541 60.8532C135.541 65.5578 138.699 69.3704 142.596 69.3704H144.012C147.906 69.3704 151.071 65.5578 151.071 60.8532C151.071 56.1485 147.91 52.3359 144.012 52.3359Z" fill="black"/>
<path d="M142.592 69.3704C146.49 69.3704 149.651 65.5571 149.651 60.8532C149.651 56.1492 146.49 52.3359 142.592 52.3359C138.694 52.3359 135.533 56.1492 135.533 60.8532C135.533 65.5571 138.694 69.3704 142.592 69.3704Z" fill="black"/>
<path opacity="0.3" d="M142.591 68.1244C145.919 68.1244 148.617 64.8689 148.617 60.8532C148.617 56.8374 145.919 53.582 142.591 53.582C139.264 53.582 136.566 56.8374 136.566 60.8532C136.566 64.8689 139.264 68.1244 142.591 68.1244Z" fill="white"/>
<path d="M143.023 64.7705V65.9989H142.28V64.7989C141.456 64.761 140.671 64.4396 140.057 63.8891L140.464 62.7811C140.963 63.248 141.6 63.54 142.28 63.6129V61.4252C141.271 61.1279 140.191 60.7172 140.191 59.2127C140.191 58.0941 140.864 57.1206 142.28 56.9542V55.7188H143.023V56.933C143.69 56.9721 144.331 57.2046 144.867 57.602L144.496 58.7065C144.059 58.3947 143.554 58.192 143.023 58.1153V60.3278C144.032 60.6252 145.129 61.0075 145.129 62.5297C145.129 63.6342 144.45 64.5971 143.023 64.7705ZM142.28 60.0836V58.133C142.028 58.1502 141.793 58.2634 141.622 58.4492C141.451 58.6349 141.359 58.8791 141.363 59.1313C141.363 59.6588 141.752 59.8995 142.28 60.0836ZM143.968 62.6147C143.968 62.0766 143.568 61.8253 143.023 61.6412V63.5776C143.685 63.4572 143.968 63.0855 143.968 62.6147Z" fill="black"/>
<path d="M153.739 74.7852H134.375C133.939 74.7852 133.522 74.9582 133.214 75.2663C132.905 75.5743 132.732 75.9921 132.732 76.4278V161.795H155.388V76.4278C155.389 76.2113 155.347 75.9969 155.264 75.797C155.181 75.597 155.059 75.4154 154.906 75.2627C154.753 75.11 154.57 74.9892 154.37 74.9072C154.17 74.8253 153.955 74.7838 153.739 74.7852Z" fill="black"/>
<path opacity="0.1" d="M153.739 74.7852H134.375C133.939 74.7852 133.522 74.9582 133.214 75.2663C132.905 75.5743 132.732 75.9921 132.732 76.4278V161.795H155.388V76.4278C155.389 76.2113 155.347 75.9969 155.264 75.797C155.181 75.597 155.059 75.4154 154.906 75.2627C154.753 75.11 154.57 74.9892 154.37 74.9072C154.17 74.8253 153.955 74.7838 153.739 74.7852Z" fill="white"/>
<path opacity="0.3" d="M134.378 74.7852H152.694C153.129 74.7852 153.547 74.9582 153.855 75.2663C154.163 75.5743 154.336 75.9921 154.336 76.4277V161.795H132.742V76.4277C132.742 75.9933 132.914 75.5766 133.221 75.2687C133.527 74.9609 133.943 74.787 134.378 74.7852Z" fill="white"/>
<path d="M121.045 103.121H101.667C101.234 103.125 100.82 103.3 100.515 103.607C100.21 103.915 100.039 104.33 100.039 104.764V119.798H110.093C109.838 119.544 109.636 119.241 109.498 118.908C109.361 118.575 109.291 118.218 109.293 117.858C109.285 117.247 109.488 116.652 109.866 116.172C110.244 115.693 110.775 115.357 111.371 115.221C111.966 115.357 112.497 115.693 112.874 116.173C113.252 116.653 113.453 117.248 113.445 117.858C113.447 118.218 113.378 118.575 113.241 118.908C113.104 119.241 112.903 119.543 112.649 119.798H122.695V104.764C122.696 104.547 122.653 104.333 122.57 104.133C122.487 103.933 122.366 103.751 122.213 103.599C122.059 103.446 121.877 103.325 121.677 103.243C121.476 103.161 121.262 103.12 121.045 103.121Z" fill="black"/>
<path d="M113.696 136.111H112.634C112.889 136.366 113.09 136.669 113.227 137.002C113.364 137.334 113.433 137.691 113.431 138.051C113.439 138.662 113.237 139.257 112.86 139.737C112.482 140.217 111.952 140.553 111.356 140.689C110.761 140.553 110.23 140.217 109.852 139.737C109.474 139.257 109.271 138.662 109.278 138.051C109.277 137.691 109.347 137.334 109.484 137.001C109.621 136.668 109.823 136.366 110.078 136.111H100.039V161.794H122.695V136.111H113.696Z" fill="black"/>
<path opacity="0.1" d="M121.045 103.121H101.667C101.234 103.125 100.82 103.3 100.515 103.607C100.21 103.915 100.039 104.33 100.039 104.764V119.798H110.093C109.838 119.544 109.636 119.241 109.498 118.908C109.361 118.575 109.291 118.218 109.293 117.858C109.285 117.247 109.488 116.652 109.866 116.172C110.244 115.693 110.775 115.357 111.371 115.221C111.966 115.357 112.497 115.693 112.874 116.173C113.252 116.653 113.453 117.248 113.445 117.858C113.447 118.218 113.378 118.575 113.241 118.908C113.104 119.241 112.903 119.543 112.649 119.798H122.695V104.764C122.696 104.547 122.653 104.333 122.57 104.133C122.487 103.933 122.366 103.751 122.213 103.599C122.059 103.446 121.877 103.325 121.677 103.243C121.476 103.161 121.262 103.12 121.045 103.121Z" fill="white"/>
<path opacity="0.1" d="M113.696 136.111H112.634C112.889 136.366 113.09 136.669 113.227 137.002C113.364 137.334 113.433 137.691 113.431 138.051C113.439 138.662 113.237 139.257 112.86 139.737C112.482 140.217 111.952 140.553 111.356 140.689C110.761 140.553 110.23 140.217 109.852 139.737C109.474 139.257 109.271 138.662 109.278 138.051C109.277 137.691 109.347 137.334 109.484 137.001C109.621 136.668 109.823 136.366 110.078 136.111H100.039V161.794H122.695V136.111H113.696Z" fill="white"/>
<path opacity="0.3" d="M112.634 136.111C112.889 136.366 113.09 136.669 113.227 137.002C113.364 137.334 113.433 137.691 113.431 138.051C113.444 138.402 113.386 138.751 113.261 139.079C113.136 139.406 112.946 139.705 112.702 139.958C112.459 140.21 112.167 140.411 111.844 140.548C111.521 140.686 111.174 140.756 110.824 140.756C110.473 140.756 110.126 140.686 109.803 140.548C109.48 140.411 109.189 140.21 108.945 139.958C108.702 139.705 108.512 139.406 108.387 139.079C108.261 138.751 108.204 138.402 108.216 138.051C108.215 137.691 108.285 137.334 108.422 137.001C108.559 136.668 108.761 136.366 109.016 136.111H100.039V161.794H121.633V136.111H112.634Z" fill="white"/>
<path opacity="0.3" d="M100.039 104.764V119.798H109.031C108.776 119.544 108.574 119.241 108.436 118.908C108.299 118.575 108.229 118.218 108.231 117.858C108.218 117.508 108.276 117.158 108.401 116.831C108.526 116.503 108.716 116.204 108.959 115.951C109.203 115.699 109.495 115.498 109.817 115.361C110.14 115.224 110.487 115.153 110.838 115.153C111.189 115.153 111.536 115.224 111.858 115.361C112.181 115.498 112.473 115.699 112.716 115.951C112.96 116.204 113.15 116.503 113.275 116.831C113.4 117.158 113.458 117.508 113.445 117.858C113.447 118.218 113.378 118.575 113.241 118.908C113.104 119.241 112.903 119.543 112.649 119.798H121.633V104.764C121.634 104.548 121.591 104.335 121.509 104.135C121.427 103.936 121.306 103.755 121.154 103.602C121.002 103.45 120.821 103.329 120.622 103.246C120.423 103.164 120.21 103.121 119.994 103.121H101.667C101.234 103.125 100.82 103.3 100.515 103.607C100.21 103.915 100.039 104.33 100.039 104.764Z" fill="white"/>
<path d="M72.3662 70.1797H63.3675C63.0037 70.1792 62.6433 70.2505 62.3071 70.3894C61.9708 70.5283 61.6652 70.7321 61.4078 70.9893C61.1503 71.2464 60.9461 71.5517 60.8068 71.8878C60.6674 72.2239 60.5957 72.5841 60.5957 72.948V82.0352C60.5957 82.7697 60.8872 83.4742 61.4063 83.9939C61.9253 84.5136 62.6295 84.806 63.364 84.807H66.9252L67.8669 87.285L68.805 84.807H72.3662C73.1007 84.806 73.8048 84.5136 74.3239 83.9939C74.8429 83.4742 75.1345 82.7697 75.1345 82.0352V72.9409C75.1326 72.2079 74.8401 71.5056 74.3212 70.988C73.8022 70.4704 73.0992 70.1797 72.3662 70.1797Z" fill="black"/>
<path opacity="0.4" d="M72.3662 70.1797H63.3675C63.0037 70.1792 62.6433 70.2505 62.3071 70.3894C61.9708 70.5283 61.6652 70.7321 61.4078 70.9893C61.1503 71.2464 60.9461 71.5517 60.8068 71.8878C60.6674 72.2239 60.5957 72.5841 60.5957 72.948V82.0352C60.5957 82.7697 60.8872 83.4742 61.4063 83.9939C61.9253 84.5136 62.6295 84.806 63.364 84.807H66.9252L67.8669 87.285L68.805 84.807H72.3662C73.1007 84.806 73.8048 84.5136 74.3239 83.9939C74.8429 83.4742 75.1345 82.7697 75.1345 82.0352V72.9409C75.1326 72.2079 74.8401 71.5056 74.3212 70.988C73.8022 70.4704 73.0992 70.1797 72.3662 70.1797Z" fill="white"/>
<path d="M67.9107 83.1633C68.7377 83.1572 69.4052 82.7561 69.4016 82.2673C69.3981 81.7786 68.7247 81.3873 67.8978 81.3933C67.0708 81.3994 66.4033 81.8005 66.4069 82.2893C66.4105 82.778 67.0838 83.1693 67.9107 83.1633Z" fill="#263238"/>
<path opacity="0.4" d="M67.9107 83.1633C68.7377 83.1572 69.4052 82.7561 69.4016 82.2673C69.3981 81.7786 68.7247 81.3873 67.8978 81.3933C67.0708 81.3994 66.4033 81.8005 66.4069 82.2893C66.4105 82.778 67.0838 83.1693 67.9107 83.1633Z" fill="white"/>
<path d="M70.0387 80.6358C70.1182 80.5582 70.1651 80.4531 70.1696 80.342C70.1696 79.8641 69.143 79.4818 67.8863 79.4924C66.6296 79.503 65.6137 79.896 65.6172 80.3774C65.6232 80.4878 65.6714 80.5917 65.7517 80.6677C65.7296 80.7154 65.7175 80.7673 65.7163 80.8199C65.7189 80.8745 65.7324 80.9281 65.7562 80.9773C65.7799 81.0266 65.8133 81.0706 65.8544 81.1066C65.8296 81.1549 65.8163 81.2082 65.8154 81.2624C65.8189 81.3172 65.8331 81.3708 65.8574 81.42C65.8818 81.4692 65.9156 81.5131 65.957 81.5491C65.929 81.5975 65.9143 81.6525 65.9146 81.7084C65.9183 81.763 65.9331 81.8163 65.958 81.865C65.983 81.9136 66.0176 81.9567 66.0597 81.9916C66.031 82.04 66.0152 82.0948 66.0137 82.1509C66.0137 82.551 66.8668 82.8589 67.9111 82.8589C68.9554 82.8589 69.8015 82.5049 69.7979 82.1226C69.7968 82.0659 69.7796 82.0107 69.7484 81.9633C69.7907 81.9288 69.8252 81.8857 69.8496 81.8369C69.874 81.7881 69.8877 81.7347 69.89 81.6801C69.8907 81.6237 69.8747 81.5682 69.844 81.5208C69.91 81.4715 69.9568 81.4006 69.9762 81.3205C69.9955 81.2403 69.9863 81.1559 69.9502 81.0819C70.0305 81.0059 70.0787 80.902 70.0847 80.7916C70.0816 80.7368 70.0659 80.6835 70.0387 80.6358Z" fill="#263238"/>
<path d="M71.8949 76.3682C71.8922 75.6875 71.7171 75.0187 71.386 74.424C71.0548 73.8293 70.5784 73.3282 70.0011 72.9676C69.4239 72.6069 68.7646 72.3983 68.085 72.3614C67.4053 72.3245 66.7273 72.4604 66.1144 72.7564C65.5015 73.0524 64.9736 73.4989 64.5799 74.0542C64.1863 74.6095 63.9397 75.2555 63.8633 75.9319C63.787 76.6082 63.8832 77.2929 64.1431 77.922C64.4029 78.5512 64.818 79.1042 65.3494 79.5294C65.4347 79.5975 65.5021 79.6852 65.5459 79.7851C65.5897 79.8851 65.6085 79.9941 65.6008 80.1029C65.5991 80.1135 65.5991 80.1242 65.6008 80.1348C65.6008 80.6198 66.6415 81.0092 67.9195 80.9985C69.1974 80.9879 70.2276 80.5879 70.224 80.0994V80.0675C70.2145 79.9587 70.2318 79.8492 70.2744 79.7486C70.317 79.6481 70.3836 79.5594 70.4683 79.4905C70.9214 79.1073 71.2842 78.6287 71.5308 78.0889C71.7774 77.5492 71.9017 76.9616 71.8949 76.3682Z" fill="black"/>
<path opacity="0.9" d="M71.8949 76.3682C71.8922 75.6875 71.7171 75.0187 71.386 74.424C71.0548 73.8293 70.5784 73.3282 70.0011 72.9676C69.4239 72.6069 68.7646 72.3983 68.085 72.3614C67.4053 72.3245 66.7273 72.4604 66.1144 72.7564C65.5015 73.0524 64.9736 73.4989 64.5799 74.0542C64.1863 74.6095 63.9397 75.2555 63.8633 75.9319C63.787 76.6082 63.8832 77.2929 64.1431 77.922C64.4029 78.5512 64.818 79.1042 65.3494 79.5294C65.4347 79.5975 65.5021 79.6852 65.5459 79.7851C65.5897 79.8851 65.6085 79.9941 65.6008 80.1029C65.5991 80.1135 65.5991 80.1242 65.6008 80.1348C65.6008 80.6198 66.6415 81.0092 67.9195 80.9985C69.1974 80.9879 70.2276 80.5879 70.224 80.0994V80.0675C70.2145 79.9587 70.2318 79.8492 70.2744 79.7486C70.317 79.6481 70.3836 79.5594 70.4683 79.4905C70.9214 79.1073 71.2842 78.6287 71.5308 78.0889C71.7774 77.5492 71.9017 76.9616 71.8949 76.3682Z" fill="white"/>
<g opacity="0.2">
<path d="M67.0652 80.4409C67.0267 80.4409 66.9897 80.4256 66.9625 80.3984C66.9353 80.3712 66.92 80.3342 66.92 80.2957C66.92 78.9081 65.7837 77.8461 65.773 77.8354C65.7529 77.8154 65.7392 77.7898 65.7334 77.762C65.7277 77.7341 65.7303 77.7052 65.7408 77.6788C65.7514 77.6524 65.7695 77.6297 65.7928 77.6135C65.8162 77.5973 65.8438 77.5883 65.8722 77.5876H66.5342L66.7359 77.1062C66.7456 77.0809 66.7625 77.0591 66.7846 77.0433C66.8066 77.0276 66.8328 77.0187 66.8598 77.0177C66.8871 77.0154 66.9144 77.0212 66.9384 77.0344C66.9623 77.0477 66.9818 77.0677 66.9943 77.092L67.3731 77.7753L67.7271 77.085C67.741 77.0623 67.7601 77.0433 67.7829 77.0298C67.8058 77.0162 67.8316 77.0084 67.8581 77.0071C67.8844 77.009 67.9099 77.0175 67.9321 77.0317C67.9543 77.0459 67.9727 77.0654 67.9855 77.0885L68.3608 77.8602L68.7148 77.085C68.7269 77.0603 68.7455 77.0394 68.7686 77.0244C68.7916 77.0095 68.8183 77.001 68.8458 77C68.8737 77.0009 68.9008 77.0097 68.924 77.0254C68.9472 77.0411 68.9654 77.0629 68.9767 77.0885L69.1856 77.5699H69.8476C69.879 77.5703 69.9094 77.5809 69.9343 77.6C69.9592 77.6192 69.9772 77.6459 69.9857 77.6761C69.9942 77.7065 69.9926 77.7389 69.9811 77.7682C69.9696 77.7976 69.9488 77.8225 69.9219 77.839C68.9767 78.3983 68.7113 80.2993 68.7077 80.317C68.7 80.3527 68.679 80.3841 68.6491 80.405C68.6192 80.426 68.5825 80.4349 68.5464 80.43C68.5102 80.4251 68.4772 80.4067 68.4539 80.3785C68.4307 80.3504 68.4189 80.3145 68.421 80.278C68.421 80.2037 68.6475 78.6567 69.4334 77.8638H69.0794C69.0511 77.8647 69.0231 77.8571 68.9991 77.842C68.9751 77.8268 68.9562 77.8048 68.9449 77.7788L68.8245 77.5027L68.4705 78.2638C68.4586 78.2883 68.4399 78.3089 68.4167 78.3233C68.3936 78.3377 68.3668 78.3453 68.3395 78.3452C68.3124 78.3445 68.286 78.3366 68.263 78.3223C68.24 78.308 68.2212 78.2878 68.2086 78.2638L67.8227 77.4779L67.4687 78.154C67.4561 78.1767 67.4376 78.1955 67.4151 78.2086C67.3927 78.2217 67.3672 78.2285 67.3413 78.2284C67.2882 78.2284 67.2386 78.2001 67.2138 78.154L66.8598 77.4991L66.7395 77.793C66.7279 77.8191 66.7091 77.8413 66.6852 77.857C66.6614 77.8727 66.6335 77.8812 66.605 77.8815H66.1802C66.7845 78.5495 67.1386 79.4065 67.182 80.3064C67.182 80.3442 67.1672 80.3806 67.1407 80.4078C67.1143 80.4349 67.0782 80.4506 67.0404 80.4515L67.0652 80.4409Z" fill="black"/>
</g>
<path d="M55.6537 154.484H36.2793C36.0632 154.484 35.8491 154.526 35.6493 154.609C35.4496 154.691 35.2682 154.813 35.1155 154.966C34.9629 155.119 34.842 155.3 34.7598 155.5C34.6776 155.7 34.6358 155.914 34.6367 156.13V161.794H57.2927V156.13C57.2937 155.915 57.252 155.701 57.17 155.501C57.0881 155.301 56.9675 155.12 56.8152 154.967C56.6629 154.814 56.4819 154.693 56.2826 154.61C56.0833 154.527 55.8695 154.484 55.6537 154.484Z" fill="black"/>
<path opacity="0.1" d="M55.6537 154.484H36.2793C36.0632 154.484 35.8491 154.526 35.6493 154.609C35.4496 154.691 35.2682 154.813 35.1155 154.966C34.9629 155.119 34.842 155.3 34.7598 155.5C34.6776 155.7 34.6358 155.914 34.6367 156.13V161.794H57.2927V156.13C57.2937 155.915 57.252 155.701 57.17 155.501C57.0881 155.301 56.9675 155.12 56.8152 154.967C56.6629 154.814 56.4819 154.693 56.2826 154.61C56.0833 154.527 55.8695 154.484 55.6537 154.484Z" fill="white"/>
<path opacity="0.3" d="M36.28 154.484H54.596C55.0316 154.484 55.4494 154.657 55.7574 154.965C56.0655 155.274 56.2385 155.691 56.2385 156.127V161.794H34.6445V156.13C34.6436 155.695 34.8153 155.278 35.1219 154.969C35.4285 154.661 35.845 154.486 36.28 154.484Z" fill="white"/>
<path d="M88.3541 136.979H68.9691C68.7536 136.979 68.5401 137.021 68.3411 137.104C68.142 137.186 67.9611 137.307 67.8089 137.46C67.6566 137.612 67.536 137.794 67.4538 137.993C67.3717 138.192 67.3296 138.406 67.3301 138.621V161.794H89.9861V138.607C89.9824 138.176 89.8091 137.763 89.5038 137.458C89.1984 137.154 88.7855 136.981 88.3541 136.979Z" fill="black"/>
<path opacity="0.1" d="M88.3541 136.979H68.9691C68.7536 136.979 68.5401 137.021 68.3411 137.104C68.142 137.186 67.9611 137.307 67.8089 137.46C67.6566 137.612 67.536 137.794 67.4538 137.993C67.3717 138.192 67.3296 138.406 67.3301 138.621V161.794H89.9861V138.607C89.9824 138.176 89.8091 137.763 89.5038 137.458C89.1984 137.154 88.7855 136.981 88.3541 136.979Z" fill="white"/>
<path opacity="0.3" d="M68.9702 136.979H87.2932C87.7289 136.979 88.1467 137.152 88.4547 137.46C88.7627 137.768 88.9358 138.185 88.9358 138.621V161.794H67.3418V138.607C67.3455 138.176 67.5182 137.764 67.8228 137.46C68.1274 137.155 68.5395 136.982 68.9702 136.979Z" fill="white"/>
<path d="M73.4564 104.723C74.7945 105.562 77.315 110.606 77.315 110.606L75.0954 112.327L72.0723 108.914L73.4564 104.723Z" fill="#263238"/>
<path opacity="0.4" d="M77.315 110.606L75.0954 112.327L73.4245 110.465L72.0723 108.914L72.5679 107.431L73.4741 104.723C74.7945 105.562 77.315 110.606 77.315 110.606Z" fill="white"/>
<path opacity="0.2" d="M73.4245 110.463L72.0723 108.913L72.5679 107.43C72.9934 108.396 73.2818 109.417 73.4245 110.463Z" fill="black"/>
<path d="M70.93 121.156L61.7578 119.825L62.7419 109.807L72.0521 110.826L70.93 121.156Z" fill="#263238"/>
<path opacity="0.3" d="M70.93 121.156L61.7578 119.825L62.7419 109.807L72.0521 110.826L70.93 121.156Z" fill="white"/>
<path d="M57.8704 136.047L65.0813 136.546L64.9185 133.746L57.127 134.543" fill="#FFC2BC"/>
<path d="M56.0626 133.506L55.9529 133.899L56.406 134.143C55.8876 134.716 55.4494 135.356 55.1033 136.047C54.7487 136.835 54.5492 137.683 54.5156 138.547C54.5156 138.547 54.8909 139.216 55.7546 137.775C55.796 137.705 55.8447 137.64 55.8998 137.58C56.5299 136.872 58.1831 136.051 58.1831 136.051L58.6999 134.253C58.6314 134.175 58.5581 134.102 58.4804 134.033C58.1648 133.731 57.7722 133.523 57.3456 133.43C56.9191 133.337 56.4752 133.363 56.0626 133.506Z" fill="#263238"/>
<path d="M58.4801 134.033C58.6748 134.348 57.2057 135.095 56.5826 135.775C56.0304 136.38 55.6481 137.127 55.903 137.584C56.5331 136.876 58.6075 136.04 58.6075 136.04L59.0217 134.596C59.0217 134.596 58.6217 134.182 58.4801 134.033Z" fill="#FFC2BC"/>
<path d="M69.2079 115.971L70.2239 120.661C70.2239 120.661 79.5589 129.71 79.5199 133.228C79.5199 133.958 80.2633 136.174 74.5887 136.864C71.7248 137.218 60.1632 136.361 60.1632 136.361V133.83C60.1632 133.83 68.1884 132.595 72.4966 132.513L62.9846 124.038L59.7773 119.957L62.2553 114.254L69.2079 115.971Z" fill="#263238"/>
<path opacity="0.2" d="M74.5887 136.864C73.1147 136.967 71.6359 136.981 70.1602 136.906C65.7847 136.775 60.1632 136.361 60.1632 136.361V133.83C60.1632 133.83 65.7564 132.97 70.1106 132.637C70.9744 132.573 71.785 132.527 72.4966 132.513L69.2575 129.628L62.9846 124.038L61.7562 122.474L59.7773 119.957L62.2553 114.254L69.2185 115.978L70.2345 120.668C70.2345 120.668 79.5695 129.717 79.5305 133.235C79.5058 133.958 80.2633 136.174 74.5887 136.864Z" fill="white"/>
<path opacity="0.2" d="M62.9862 124.03L61.7578 122.465L64.1048 121.014C64.1048 121.014 67.1634 123.757 69.2591 129.619L62.9862 124.03Z" fill="black"/>
<path opacity="0.2" d="M70.161 136.906C65.7856 136.775 60.1641 136.361 60.1641 136.361V133.83C60.1641 133.83 65.7573 132.969 70.1115 132.637C70.3258 134.051 70.3425 135.487 70.161 136.906Z" fill="black"/>
<path d="M50.0625 154.298H50.4696L50.5971 153.799L51.9246 154.446L55.33 154.546C55.33 154.546 55.8858 154.018 54.268 153.537C54.1888 153.511 54.1119 153.479 54.0379 153.441C53.1848 153.009 51.9954 151.604 51.9954 151.604L50.1262 151.551C49.8511 151.951 49.6977 152.422 49.6845 152.908C49.6713 153.394 49.7989 153.873 50.0519 154.287L50.0625 154.298Z" fill="#263238"/>
<path d="M49.9746 151.826C50.2295 151.557 51.3163 152.8 52.1269 153.242C52.8349 153.628 53.6704 153.816 54.0456 153.455C53.1925 153.023 51.8862 151.214 51.8862 151.214L50.3817 151.168C50.3817 151.168 50.0666 151.653 49.9746 151.826Z" fill="#FFC2BC"/>
<path d="M52.0041 151.614L57.1761 146.569L54.9813 144.824L50.3828 151.164" fill="#FFC2BC"/>
<path d="M68.7081 134.537C68.085 130.324 66.8106 124.918 65.7486 120.731L65.2707 115.421L60.1625 114.539C60.1625 114.539 57.6845 118.925 58.8279 123.067C59.7058 126.288 61.6599 130.204 64.2335 134.809C58.6155 139.284 53.9923 145.054 51.3691 148.994C51.5805 149.352 51.8483 149.673 52.1621 149.946C52.5223 150.295 52.95 150.566 53.4188 150.743C57.5429 146.799 63.1892 141.893 67.1682 138.172C68.4992 136.972 69.0408 135.974 68.7081 134.537Z" fill="#263238"/>
<path opacity="0.2" d="M68.7081 134.537C68.085 130.324 66.8106 124.918 65.7486 120.731L65.2707 115.421L60.1625 114.539C60.1625 114.539 57.6845 118.925 58.8279 123.067C59.7058 126.288 61.6599 130.204 64.2335 134.809C58.6155 139.284 53.9923 145.054 51.3691 148.994C51.5805 149.352 51.8483 149.673 52.1621 149.946C52.5223 150.295 52.95 150.566 53.4188 150.743C57.5429 146.799 63.1892 141.893 67.1682 138.172C68.4992 136.972 69.0408 135.974 68.7081 134.537Z" fill="white"/>
<path d="M73.4568 104.723C73.4568 104.723 72.678 111.006 69.2088 115.969C69.2088 115.969 61.8102 115.038 60.1641 114.553C61.1871 111.523 61.7995 109.498 62.2243 103.813C62.327 102.443 63.5695 101.653 64.9254 101.898C66.2595 101.989 67.5765 102.25 68.8441 102.676C70.4206 103.267 71.9608 103.95 73.4568 104.723Z" fill="black"/>
<path opacity="0.8" d="M73.4564 104.722C73.224 106.293 72.8617 107.842 72.3732 109.353C71.6515 111.703 70.585 113.932 69.2084 115.969C69.2084 115.969 61.8098 115.038 60.1602 114.553C60.3549 113.983 60.5354 113.449 60.6982 112.918C61.2657 111.119 61.6593 109.269 61.8735 107.395C61.9903 106.51 62.0859 105.508 62.185 104.351C62.185 104.177 62.2098 103.997 62.224 103.816C62.3266 102.443 63.5692 101.653 64.925 101.898C65.1162 101.933 65.5233 101.94 66.164 102.032C66.2242 102.032 66.2808 102.032 66.3375 102.053C67.1877 102.191 68.0258 102.396 68.8438 102.666C69.2544 102.797 69.7394 102.988 70.2598 103.204C71.782 103.862 73.4564 104.722 73.4564 104.722Z" fill="white"/>
<path d="M66.0149 108.931C65.9229 109.714 65.8167 110.546 65.6786 111.431C65.6574 111.558 65.6432 111.629 65.6432 111.629C65.5016 112.528 65.3282 113.477 65.1228 114.461C64.6683 116.671 64.0952 118.855 63.4059 121.003L57.7207 119.374C57.7207 119.374 60.443 112.648 61.1014 110.429C61.1767 110.173 61.2381 109.913 61.2855 109.65C61.5262 108.376 61.6182 106.698 61.7598 105.278C61.8802 104.075 62.0395 103.051 62.3546 102.613C62.928 101.816 64.8326 101.905 65.7848 101.982H65.8202C65.9795 101.982 66.1105 102.014 66.199 102.028H66.3371C66.4111 104.334 66.3034 106.642 66.0149 108.931Z" fill="#263238"/>
<path d="M70.2461 103.211C70.2461 103.211 72.1966 107.431 70.5116 121.442L71.7294 121.116L72.4267 111.725C72.4267 111.725 73.4604 106.546 73.4675 104.723C73.4569 104.723 71.0851 103.268 70.2461 103.211Z" fill="#263238"/>
<path opacity="0.4" d="M66.0149 108.931C65.9229 109.714 65.8167 110.546 65.6786 111.431C65.6574 111.558 65.6432 111.629 65.6432 111.629C65.5016 112.528 65.3282 113.477 65.1228 114.461C64.6683 116.671 64.0952 118.855 63.4059 121.003L57.7207 119.374C57.7207 119.374 60.443 112.648 61.1014 110.429C61.1767 110.173 61.2381 109.913 61.2855 109.65C61.5262 108.376 61.6182 106.698 61.7598 105.278C61.8802 104.075 62.0395 103.051 62.3546 102.613C62.928 101.816 64.8326 101.905 65.7848 101.982H65.8202C65.9795 101.982 66.1105 102.014 66.199 102.028H66.3371C66.4111 104.334 66.3034 106.642 66.0149 108.931Z" fill="white"/>
<path opacity="0.4" d="M70.2461 103.211C70.2461 103.211 72.1966 107.431 70.5116 121.442L71.7294 121.116L72.4267 111.725C72.4267 111.725 73.4604 106.546 73.4675 104.723C73.4569 104.723 71.0851 103.268 70.2461 103.211Z" fill="white"/>
<path d="M66.0537 109.049C65.905 110.172 65.7528 111.067 65.6997 111.449C65.6784 111.577 65.6643 111.648 65.6643 111.648L64.7864 106.217L64.5244 104.546L65.7846 104.844L63.9297 103.212L65.7846 101.994H65.82L66.1988 102.04H66.3369C66.6449 103.814 66.344 106.851 66.0537 109.049Z" fill="#263238"/>
<path d="M70.2474 103.212L69.9961 102.879C69.9961 102.879 71.7661 104.001 72.4493 105.357L71.3661 105.821L72.2475 106.136L71.2103 112.065C71.2103 112.065 70.8563 105.488 70.2651 103.449" fill="#263238"/>
<path opacity="0.2" d="M66.0537 109.049C65.905 110.172 65.7528 111.067 65.6997 111.449C65.6784 111.577 65.6643 111.648 65.6643 111.648L64.7864 106.217L64.5244 104.546L65.7846 104.844L63.9297 103.212L65.7846 101.994H65.82L66.1988 102.04H66.3369C66.6449 103.814 66.344 106.851 66.0537 109.049Z" fill="white"/>
<path opacity="0.2" d="M70.2474 103.212L69.9961 102.879C69.9961 102.879 71.7661 104.001 72.4493 105.357L71.3661 105.821L72.2475 106.136L71.2103 112.065C71.2103 112.065 70.8563 105.488 70.2651 103.449" fill="white"/>
<path opacity="0.2" d="M66.0538 109.049C65.9051 110.171 65.7529 111.067 65.6998 111.449C65.6785 111.577 65.6644 111.648 65.6644 111.648C65.5228 112.547 65.3493 113.495 65.144 114.48C63.4802 113.966 62.1739 111.701 61.3066 109.669C61.5474 108.394 61.6394 106.716 61.781 105.297C62.6129 104.943 63.551 104.737 64.1032 105.198C64.3902 105.494 64.6291 105.833 64.8112 106.203C65.2893 107.082 65.6999 107.995 66.0396 108.936L66.0538 109.049Z" fill="black"/>
<path d="M65.7007 105.155C65.7007 105.155 64.837 100.234 68.731 101.849C71.1877 102.865 71.209 106.528 71.209 106.528L70.1222 105.413C69.8121 106.492 69.4241 107.546 68.9611 108.568C68.032 107.404 67.3556 106.06 66.9751 104.62L65.7007 105.155Z" fill="black"/>
<path opacity="0.7" d="M65.7007 105.155C65.7007 105.155 64.837 100.234 68.731 101.849C71.1877 102.865 71.209 106.528 71.209 106.528L70.1222 105.413C69.8121 106.492 69.4241 107.546 68.9611 108.568C68.032 107.404 67.3556 106.06 66.9751 104.62L65.7007 105.155Z" fill="white"/>
<path d="M69.8174 103.975C69.9413 105.444 68.943 108.482 68.943 108.482C67.4314 107.005 66.957 102.251 66.957 102.251C67.4031 102.202 67.6084 101.433 67.704 100.694C67.7606 100.231 67.7878 99.765 67.7854 99.2988L70.2209 100.127C69.8537 100.93 69.6412 101.795 69.5943 102.676C69.5808 102.936 69.6022 103.197 69.658 103.451C69.7015 103.629 69.7547 103.804 69.8174 103.975Z" fill="#FFC2BC"/>
<path opacity="0.2" d="M70.2209 100.128C69.8538 100.93 69.6412 101.795 69.5943 102.676C68.7742 102.225 68.111 101.535 67.6934 100.697C67.75 100.235 67.7772 99.7689 67.7748 99.3027L70.2209 100.128Z" fill="black"/>
<path d="M66.1746 93.9894C66.1746 93.9894 65.4666 92.5062 63.9479 93.1505C62.4293 93.7947 62.5001 96.963 64.9781 95.9825C67.4561 95.0019 66.1746 93.9894 66.1746 93.9894Z" fill="#263238"/>
<path d="M67.0645 93.866C67.0645 93.866 66.2043 93.4943 65.2945 94.5528C64.3848 95.6112 65.0043 96.8431 65.2414 96.7122C65.4786 96.5812 67.1849 94.5351 67.0645 93.866Z" fill="black"/>
<path d="M68.9664 100.277C68.9664 100.277 66.4318 101.732 65.0158 98.0821C63.5998 94.4323 68.8319 91.3561 70.4709 94.4642C72.1099 97.5723 68.9664 100.277 68.9664 100.277Z" fill="#263238"/>
<path d="M66.053 97.2419C66.761 99.327 67.023 100.223 68.393 101.076C70.4568 102.357 72.8675 101.171 72.7932 98.9517C72.7259 96.9516 71.5719 93.8789 69.2532 93.4895C68.7608 93.3938 68.2517 93.4306 67.7782 93.5962C67.3047 93.7617 66.8836 94.0501 66.5581 94.4318C66.2325 94.8135 66.0142 95.2748 65.9255 95.7686C65.8368 96.2623 65.8808 96.7708 66.053 97.2419Z" fill="#FFC2BC"/>
<path d="M67.6584 95.4295C66.6955 97.1252 69.3788 98.5306 66.9504 98.7784C64.522 99.0262 64.9963 95.4543 66.3274 94.4666C67.6584 93.479 67.6584 95.4295 67.6584 95.4295Z" fill="#263238"/>
<path d="M66.3223 94.4925C66.8356 95.9085 67.1258 96.2625 68.3684 95.6713C68.1325 95.4059 67.9961 95.0668 67.9825 94.712C68.1607 95.0499 68.4646 95.3042 68.8286 95.42C69.1546 95.2204 69.5011 95.0566 69.8623 94.9314C69.7633 94.7384 69.71 94.5253 69.7065 94.3084C69.8434 94.5367 70.0439 94.72 70.2835 94.8359C70.684 94.7818 71.0906 94.7938 71.4871 94.8713C71.257 93.3207 68.4073 92.057 66.3223 94.4925Z" fill="#263238"/>
<path d="M69.4846 97.1105C69.5377 97.2875 69.6722 97.4114 69.789 97.3831C69.9058 97.3548 69.9554 97.1955 69.9023 97.0291C69.8492 96.8627 69.7147 96.7282 69.5978 96.753C69.481 96.7777 69.435 96.93 69.4846 97.1105Z" fill="#263238"/>
<path d="M71.6594 96.6574C71.7089 96.8344 71.847 96.9583 71.9603 96.9299C72.0735 96.9016 72.1266 96.7423 72.0735 96.5759C72.0204 96.4096 71.8859 96.275 71.7726 96.2998C71.6594 96.3246 71.6063 96.4839 71.6594 96.6574Z" fill="#263238"/>
<path d="M71.7188 96.3058L72.1046 96.0898C72.1046 96.0898 71.9913 96.4828 71.7188 96.3058Z" fill="#263238"/>
<path d="M71.1426 97.0859C71.4178 97.4588 71.7403 97.7944 72.1019 98.0842C72.0291 98.1687 71.9381 98.2355 71.8357 98.2797C71.7332 98.3238 71.6221 98.3442 71.5107 98.3391L71.1426 97.0859Z" fill="#D4827D"/>
<path d="M70.6914 99.2217C70.7925 99.2168 70.8931 99.2038 70.9922 99.1828C70.9989 99.1812 71.0052 99.1782 71.0106 99.174C71.0161 99.1699 71.0206 99.1647 71.0239 99.1587C71.0272 99.1527 71.0293 99.1461 71.0299 99.1393C71.0306 99.1324 71.0298 99.1256 71.0277 99.1191C71.0264 99.1116 71.0237 99.1045 71.0195 99.0983C71.0154 99.092 71.01 99.0867 71.0036 99.0827C70.9972 99.0786 70.9901 99.076 70.9826 99.075C70.9752 99.0739 70.9676 99.0745 70.9604 99.0766C70.7359 99.1262 70.5032 99.1252 70.2791 99.0738C70.055 99.0224 69.8452 98.9217 69.6647 98.7792C69.6605 98.7723 69.6547 98.7664 69.6478 98.7621C69.6409 98.7577 69.6332 98.7551 69.6251 98.7542C69.617 98.7533 69.6088 98.7544 69.6012 98.7572C69.5935 98.76 69.5867 98.7645 69.5811 98.7704C69.5754 98.7763 69.5713 98.7834 69.5688 98.7911C69.5664 98.7989 69.5658 98.8071 69.567 98.8151C69.5683 98.8232 69.5714 98.8308 69.576 98.8375C69.5807 98.8441 69.5868 98.8496 69.594 98.8536C69.9023 99.1065 70.2928 99.2375 70.6914 99.2217Z" fill="#263238"/>
<path d="M66.1274 99.3427C66.2427 99.5191 66.3936 99.6694 66.5704 99.784C66.7471 99.8986 66.9459 99.975 67.154 100.008C67.6744 100.068 67.8054 99.4666 67.5576 98.9179C67.3345 98.4258 66.7965 97.8028 66.3256 97.9975C65.8548 98.1922 65.8053 98.8754 66.1274 99.3427Z" fill="#FFC2BC"/>
<path d="M68.7338 96.2222C68.748 96.2206 68.7616 96.216 68.7738 96.2086C68.786 96.2013 68.7965 96.1914 68.8046 96.1797C68.8769 96.072 68.9743 95.9835 69.0884 95.9219C69.2024 95.8602 69.3298 95.8272 69.4595 95.8257C69.4731 95.8267 69.4867 95.8248 69.4996 95.8203C69.5125 95.8157 69.5242 95.8086 69.5342 95.7993C69.5442 95.79 69.5521 95.7787 69.5575 95.7662C69.5629 95.7537 69.5657 95.7402 69.5657 95.7266C69.5641 95.6976 69.5521 95.6702 69.532 95.6494C69.5118 95.6286 69.4848 95.6158 69.4559 95.6133C69.29 95.6134 69.1267 95.6549 68.9808 95.734C68.835 95.8132 68.7111 95.9274 68.6205 96.0664C68.6127 96.0787 68.6075 96.0924 68.6051 96.1067C68.6026 96.1211 68.6031 96.1358 68.6064 96.1499C68.6097 96.1641 68.6157 96.1774 68.6242 96.1892C68.6327 96.201 68.6435 96.211 68.6559 96.2186C68.6809 96.2279 68.7081 96.2291 68.7338 96.2222Z" fill="#263238"/>
<path d="M71.9987 95.5508C72.0256 95.5499 72.051 95.5385 72.0696 95.519C72.087 95.4963 72.095 95.4677 72.0917 95.4393C72.0884 95.4108 72.0741 95.3848 72.0519 95.3668C71.923 95.2494 71.7686 95.1637 71.6008 95.1164C71.4331 95.069 71.2566 95.0615 71.0854 95.0942C71.072 95.0977 71.0595 95.1041 71.0487 95.1128C71.0379 95.1215 71.029 95.1324 71.0227 95.1447C71.0163 95.1571 71.0126 95.1706 71.0119 95.1845C71.0111 95.1983 71.0132 95.2122 71.0182 95.2252C71.0271 95.2522 71.046 95.2749 71.0709 95.2886C71.0958 95.3024 71.125 95.3063 71.1527 95.2995C71.2887 95.2773 71.428 95.2858 71.5603 95.3244C71.6926 95.363 71.8146 95.4307 71.9173 95.5225C71.9282 95.5327 71.941 95.5404 71.955 95.5453C71.9691 95.5502 71.984 95.5521 71.9987 95.5508Z" fill="#263238"/>
<path d="M69.5508 96.7648L69.9366 96.5488C69.9366 96.5488 69.8163 96.9276 69.5508 96.7648Z" fill="#263238"/>
<path d="M87.1244 130.066L93.369 114.996L85.1986 111.612C85.6087 111.435 85.9701 111.163 86.2524 110.817C86.5346 110.471 86.7293 110.063 86.82 109.626C86.9377 109.119 86.902 108.588 86.7173 108.101C86.5326 107.615 86.2073 107.194 85.7827 106.893C85.4955 106.698 85.1706 106.566 84.8291 106.505C84.4876 106.444 84.1372 106.456 83.8003 106.539C83.2488 106.521 82.705 106.673 82.2432 106.975C81.7814 107.278 81.424 107.715 81.2197 108.227C80.9986 108.76 80.9491 109.347 81.0781 109.909L73.7397 106.868L73.0317 106.935L66.7871 122.002L74.9574 125.389C74.5472 125.565 74.1853 125.837 73.9024 126.182C73.6196 126.527 73.4241 126.935 73.3326 127.372C73.2152 127.879 73.2514 128.41 73.4368 128.897C73.6221 129.383 73.9482 129.804 74.3733 130.105C74.6606 130.299 74.9855 130.431 75.3269 130.492C75.6684 130.553 76.0189 130.542 76.3557 130.459C76.9073 130.477 77.4511 130.324 77.9129 130.022C78.3747 129.72 78.7321 129.283 78.9364 128.77C79.1574 128.238 79.2069 127.65 79.078 127.089L86.4164 130.129L87.1244 130.066Z" fill="black"/>
<path opacity="0.3" d="M87.1244 130.066L93.369 114.996L85.1986 111.612C85.6087 111.435 85.9701 111.163 86.2524 110.817C86.5346 110.471 86.7293 110.063 86.82 109.626C86.9377 109.119 86.902 108.588 86.7173 108.101C86.5326 107.615 86.2073 107.194 85.7827 106.893C85.4955 106.698 85.1706 106.566 84.8291 106.505C84.4876 106.444 84.1372 106.456 83.8003 106.539C83.2488 106.521 82.705 106.673 82.2432 106.975C81.7814 107.278 81.424 107.715 81.2197 108.227C80.9986 108.76 80.9491 109.347 81.0781 109.909L73.7397 106.868L73.0317 106.935L66.7871 122.002L74.9574 125.389C74.5472 125.565 74.1853 125.837 73.9024 126.182C73.6196 126.527 73.4241 126.935 73.3326 127.372C73.2152 127.879 73.2514 128.41 73.4368 128.897C73.6221 129.383 73.9482 129.804 74.3733 130.105C74.6606 130.299 74.9855 130.431 75.3269 130.492C75.6684 130.553 76.0189 130.542 76.3557 130.459C76.9073 130.477 77.4511 130.324 77.9129 130.022C78.3747 129.72 78.7321 129.283 78.9364 128.77C79.1574 128.238 79.2069 127.65 79.078 127.089L86.4164 130.129L87.1244 130.066Z" fill="black"/>
<path d="M93.37 114.996L85.1996 111.612C85.6096 111.435 85.9711 111.163 86.2533 110.817C86.5356 110.471 86.7303 110.063 86.821 109.626C86.9917 108.984 86.9063 108.302 86.5829 107.722C86.2594 107.143 85.7233 106.712 85.0878 106.521C84.4524 106.329 83.7674 106.393 83.1778 106.697C82.5883 107.002 82.1403 107.524 81.9287 108.153C81.6468 108.822 81.6405 109.575 81.911 110.249L73.7407 106.861L67.4961 121.927L75.6664 125.333C75.2557 125.508 74.8936 125.781 74.6107 126.127C74.3278 126.472 74.1326 126.881 74.0415 127.319C73.8872 127.955 73.9827 128.627 74.3086 129.195C74.6345 129.763 75.1658 130.185 75.7933 130.373C76.4207 130.561 77.0964 130.502 77.6813 130.207C78.2662 129.912 78.7158 129.404 78.9374 128.788C79.2133 128.118 79.2133 127.366 78.9374 126.695L87.1112 130.083L93.37 114.996Z" fill="black"/>
<path d="M85.9672 112.392L85.2238 111.649C85.1914 111.618 85.1655 111.581 85.1479 111.54C85.1302 111.499 85.1211 111.455 85.1211 111.41C85.1211 111.365 85.1302 111.321 85.1479 111.28C85.1655 111.239 85.1914 111.202 85.2238 111.171L85.5778 110.866C85.6494 110.801 85.7339 110.752 85.8259 110.722C85.9178 110.692 86.0151 110.681 86.1114 110.691C86.2077 110.701 86.3007 110.731 86.3845 110.78C86.4682 110.829 86.5408 110.894 86.5974 110.973L87.4894 112.201L87.5921 112.555L87.0469 112.329L86.3743 112.488C86.3039 112.507 86.2297 112.509 86.1586 112.492C86.0874 112.475 86.0216 112.441 85.9672 112.392Z" fill="#FFC2BC"/>
<path d="M64.172 105.269C64.7313 107.364 65.1561 109.63 66.1332 111.563C66.1332 111.595 66.2394 111.694 66.4872 111.797C67.5173 112.207 68.9475 112.235 70.1298 112.267C71.475 112.285 72.8556 112.207 74.1973 112.119C74.368 112.106 74.5372 112.158 74.6719 112.263C74.8065 112.369 74.8969 112.521 74.9252 112.69C74.9536 112.859 74.9179 113.032 74.8251 113.176C74.7324 113.32 74.5893 113.424 74.4238 113.467C73.0499 113.839 71.65 114.106 70.236 114.267C68.6784 114.42 67.2695 114.533 65.6588 114.062C64.9882 113.862 64.4061 113.438 64.0092 112.862L63.8215 112.582C62.9472 111.117 62.4693 109.534 61.9914 107.941C61.8073 107.233 61.6374 106.579 61.4851 105.86C61.4463 105.683 61.4428 105.5 61.4747 105.321C61.5066 105.143 61.5734 104.972 61.6712 104.82C61.8687 104.511 62.1806 104.294 62.5383 104.216C62.7154 104.177 62.8984 104.173 63.0769 104.205C63.2554 104.237 63.4259 104.304 63.5786 104.402C63.8869 104.599 64.1042 104.911 64.1826 105.269H64.172Z" fill="#EBC0BB"/>
<path d="M73.7721 112.234L75.4005 111.154L75.7049 113.42C75.3232 113.525 74.9228 113.542 74.5336 113.47C74.1443 113.398 73.7763 113.24 73.457 113.006L73.7721 112.234Z" fill="#FFC2BC"/>
<path d="M77.3155 111.315L77.227 113.042L75.7048 113.414L75.4004 111.148L77.3155 111.315Z" fill="#FFC2BC"/>
<path d="M62.8211 102.252C60.8599 102.96 61.0298 105.749 62.0423 109.112C63.0547 112.475 64.63 114.557 66.1664 114.776L67.5611 112.029C67.132 111.794 66.7307 111.512 66.3646 111.187C65.7911 110.479 63.9291 103.463 63.9291 103.463L62.8211 102.252Z" fill="#263238"/>
<path opacity="0.4" d="M62.8211 102.252C60.8599 102.96 61.0298 105.749 62.0423 109.112C63.0547 112.475 64.63 114.557 66.1664 114.776L67.5611 112.029C67.132 111.794 66.7307 111.512 66.3646 111.187C65.7911 110.479 63.9291 103.463 63.9291 103.463L62.8211 102.252Z" fill="white"/>
<path d="M67.7458 111.866L66.9564 111.477L64.666 114.762L66.3652 114.921L67.7458 111.866Z" fill="#263238"/>
<path opacity="0.2" d="M67.7458 111.866L66.9564 111.477L64.666 114.762L66.3652 114.921L67.7458 111.866Z" fill="white"/>
</svg>
