<svg width="35" height="35" viewBox="0 0 35 35" fill="none" xmlns="http://www.w3.org/2000/svg">
<path d="M32.0409 26.7326C32.0409 27.2576 31.9242 27.7971 31.6763 28.3221C31.4284 28.8471 31.1076 29.343 30.6846 29.8096C29.9701 30.5971 29.1826 31.1659 28.293 31.5305C27.418 31.8951 26.4701 32.0846 25.4492 32.0846C23.9617 32.0846 22.3721 31.7346 20.6951 31.0201C19.018 30.3055 17.3409 29.343 15.6784 28.1326C14.0013 26.9076 12.4117 25.5513 10.8951 24.0492C9.39297 22.5326 8.03672 20.943 6.8263 19.2805C5.63047 17.618 4.66797 15.9555 3.96797 14.3076C3.26797 12.6451 2.91797 11.0555 2.91797 9.5388C2.91797 8.54713 3.09297 7.59922 3.44297 6.72422C3.79297 5.83464 4.34714 5.01797 5.12005 4.2888C6.05339 3.37005 7.07422 2.91797 8.15339 2.91797C8.56172 2.91797 8.97005 3.00547 9.33464 3.18047C9.7138 3.35547 10.0492 3.61797 10.3117 3.99714L13.6951 8.76589C13.9576 9.13047 14.1471 9.46589 14.2784 9.78672C14.4096 10.093 14.4826 10.3992 14.4826 10.6763C14.4826 11.0263 14.3805 11.3763 14.1763 11.7117C13.9867 12.0471 13.7096 12.3971 13.3596 12.7471L12.2513 13.8992C12.0909 14.0596 12.018 14.2492 12.018 14.4826C12.018 14.5992 12.0326 14.7013 12.0617 14.818C12.1055 14.9346 12.1492 15.0221 12.1784 15.1096C12.4409 15.5909 12.893 16.218 13.5346 16.9763C14.1909 17.7346 14.8909 18.5076 15.6492 19.2805C16.4367 20.0534 17.1951 20.768 17.968 21.4242C18.7263 22.0659 19.3534 22.5034 19.8492 22.7659C19.9221 22.795 20.0096 22.8388 20.1117 22.8826C20.2284 22.9263 20.3451 22.9409 20.4763 22.9409C20.7242 22.9409 20.9138 22.8534 21.0742 22.693L22.1826 21.5992C22.5471 21.2346 22.8971 20.9576 23.2326 20.7826C23.568 20.5784 23.9034 20.4763 24.268 20.4763C24.5451 20.4763 24.8367 20.5346 25.1576 20.6659C25.4784 20.7971 25.8138 20.9867 26.1784 21.2346L31.0055 24.6617C31.3846 24.9242 31.6471 25.2305 31.8076 25.595C31.9534 25.9596 32.0409 26.3242 32.0409 26.7326Z" fill="#FED631"/>
</svg>
