<svg width="199" height="193" viewBox="0 0 199 193" fill="none" xmlns="http://www.w3.org/2000/svg">
<circle cx="101.5" cy="96.5" r="96.5" fill="#FED631"/>
<path d="M122.754 143.568H172.682C173.636 143.568 174.551 143.189 175.226 142.515C175.901 141.84 176.279 140.925 176.279 139.971V47.5971C176.279 46.6431 175.901 45.7282 175.226 45.0536C174.551 44.379 173.636 44 172.682 44H28.2221C27.2681 44 26.3532 44.379 25.6786 45.0536C25.004 45.7282 24.625 46.6431 24.625 47.5971V139.971C24.625 140.925 25.004 141.84 25.6786 142.515C26.3532 143.189 27.2681 143.568 28.2221 143.568H78.1501" stroke="black" stroke-width="0.1932" stroke-linecap="round" stroke-linejoin="round"/>
<path d="M172.829 48.0293H27.793V132.921H172.829V48.0293Z" stroke="black" stroke-width="0.1932" stroke-linecap="round" stroke-linejoin="round"/>
<path d="M122.753 143.568H78.1484V153.626H122.753V143.568Z" stroke="black" stroke-width="0.1932" stroke-linecap="round" stroke-linejoin="round"/>
<path d="M122.753 153.625H130.523V157.464H70.3789V153.625H78.1487" stroke="black" stroke-width="0.1932" stroke-linecap="round" stroke-linejoin="round"/>
<path d="M49.4785 74.9359H38.1836V59.877H47.0584L49.4785 62.2424V74.9359Z" fill="white" stroke="#263238" stroke-width="0.1932" stroke-linecap="round" stroke-linejoin="round"/>
<path d="M47.3633 61.9941V62.61L49.4784 62.2445L47.3633 61.9941Z" fill="#263238" stroke="#263238" stroke-width="0.1932" stroke-linecap="round" stroke-linejoin="round"/>
<path d="M47.0586 59.877V62.2453H49.4787L47.0586 59.877Z" fill="white" stroke="#263238" stroke-width="0.1932" stroke-linecap="round" stroke-linejoin="round"/>
<path d="M39.6211 63.1484H48.3146" stroke="#263238" stroke-width="0.1932" stroke-linecap="round" stroke-linejoin="round"/>
<path d="M39.6211 65.3008H48.3146" stroke="#263238" stroke-width="0.1932" stroke-linecap="round" stroke-linejoin="round"/>
<path d="M39.6211 67.4512H48.3146" stroke="#263238" stroke-width="0.1932" stroke-linecap="round" stroke-linejoin="round"/>
<path d="M39.6211 69.6035H48.3146" stroke="#263238" stroke-width="0.1932" stroke-linecap="round" stroke-linejoin="round"/>
<path d="M39.6211 71.7539H48.3146" stroke="#263238" stroke-width="0.1932" stroke-linecap="round" stroke-linejoin="round"/>
<path d="M17.582 93.1348H21.6281" stroke="#263238" stroke-width="0.1932" stroke-linecap="round" stroke-linejoin="round"/>
<path d="M13.1094 93.1348H16.8504" stroke="#263238" stroke-width="0.1932" stroke-linecap="round" stroke-linejoin="round"/>
<path d="M20.0625 94.4121H21.628" stroke="#263238" stroke-width="0.1932" stroke-linecap="round" stroke-linejoin="round"/>
<path d="M13.1094 94.4121H19.331" stroke="#263238" stroke-width="0.1932" stroke-linecap="round" stroke-linejoin="round"/>
<path d="M21.0117 95.6895H21.6275" stroke="#263238" stroke-width="0.1932" stroke-linecap="round" stroke-linejoin="round"/>
<path d="M17.6523 95.6895H19.989" stroke="#263238" stroke-width="0.1932" stroke-linecap="round" stroke-linejoin="round"/>
<path d="M13.1094 95.6895H16.9971" stroke="#263238" stroke-width="0.1932" stroke-linecap="round" stroke-linejoin="round"/>
<path d="M13.1094 96.9668H21.6274" stroke="#263238" stroke-width="0.1932" stroke-linecap="round" stroke-linejoin="round"/>
<path d="M20.207 98.2461H21.6257" stroke="#263238" stroke-width="0.1932" stroke-linecap="round" stroke-linejoin="round"/>
<path d="M15.3164 98.2461H18.7466" stroke="#263238" stroke-width="0.1932" stroke-linecap="round" stroke-linejoin="round"/>
<path d="M13.1094 98.2461H14.2979" stroke="#263238" stroke-width="0.1932" stroke-linecap="round" stroke-linejoin="round"/>
<path d="M16.9961 99.5234H21.6263" stroke="#263238" stroke-width="0.1932" stroke-linecap="round" stroke-linejoin="round"/>
<path d="M13.1094 99.5234H16.1943" stroke="#263238" stroke-width="0.1932" stroke-linecap="round" stroke-linejoin="round"/>
<path d="M19.332 100.801H21.6284" stroke="#263238" stroke-width="0.1932" stroke-linecap="round" stroke-linejoin="round"/>
<path d="M17.0703 100.801H18.6761" stroke="#263238" stroke-width="0.1932" stroke-linecap="round" stroke-linejoin="round"/>
<path d="M13.1094 100.801H16.1943" stroke="#263238" stroke-width="0.1932" stroke-linecap="round" stroke-linejoin="round"/>
<path d="M43.5182 110.309H34.2031V97.8887H41.5211L43.5182 99.8369V110.309Z" fill="#555555" stroke="#263238" stroke-width="0.1932" stroke-linecap="round" stroke-linejoin="round"/>
<path d="M41.7695 99.6348V100.141L43.5163 99.8391L41.7695 99.6348Z" fill="#263238" stroke="#263238" stroke-width="0.1932" stroke-linecap="round" stroke-linejoin="round"/>
<path d="M41.5234 97.8887V99.8397H43.5206L41.5234 97.8887Z" fill="white" stroke="#263238" stroke-width="0.1932" stroke-linecap="round" stroke-linejoin="round"/>
<path d="M35.3867 100.586H42.5579" stroke="#263238" stroke-width="0.1932" stroke-linecap="round" stroke-linejoin="round"/>
<path d="M35.3867 102.359H42.5579" stroke="#263238" stroke-width="0.1932" stroke-linecap="round" stroke-linejoin="round"/>
<path d="M35.3867 104.137H42.5579" stroke="#263238" stroke-width="0.1932" stroke-linecap="round" stroke-linejoin="round"/>
<path d="M35.3867 105.908H42.5579" stroke="#263238" stroke-width="0.1932" stroke-linecap="round" stroke-linejoin="round"/>
<path d="M35.3867 107.684H42.5579" stroke="#263238" stroke-width="0.1932" stroke-linecap="round" stroke-linejoin="round"/>
<path d="M33.7246 76.3285H22.4297V61.2695H31.3045L33.7246 63.6321V76.3285Z" fill="#555555" stroke="#263238" stroke-width="0.1932" stroke-linecap="round" stroke-linejoin="round"/>
<path d="M31.6094 63.3867V64.0025L33.7274 63.6342L31.6094 63.3867Z" fill="#263238" stroke="#263238" stroke-width="0.1932" stroke-linecap="round" stroke-linejoin="round"/>
<path d="M31.3047 61.2695V63.635H33.7248L31.3047 61.2695Z" fill="white" stroke="#263238" stroke-width="0.1932" stroke-linecap="round" stroke-linejoin="round"/>
<path d="M23.8633 64.543H32.5597" stroke="#263238" stroke-width="0.1932" stroke-linecap="round" stroke-linejoin="round"/>
<path d="M23.8633 66.6914H32.5597" stroke="#263238" stroke-width="0.1932" stroke-linecap="round" stroke-linejoin="round"/>
<path d="M23.8633 68.8438H32.5597" stroke="#263238" stroke-width="0.1932" stroke-linecap="round" stroke-linejoin="round"/>
<path d="M23.8633 70.9961H32.5597" stroke="#263238" stroke-width="0.1932" stroke-linecap="round" stroke-linejoin="round"/>
<path d="M23.8633 73.1465H32.5597" stroke="#263238" stroke-width="0.1932" stroke-linecap="round" stroke-linejoin="round"/>
<path d="M57.916 83.2181H46.6211V68.1562H55.4959L57.916 70.5217V83.2181Z" fill="#555555" stroke="#263238" stroke-width="0.1932" stroke-linecap="round" stroke-linejoin="round"/>
<path d="M55.8008 70.2734V70.8921L57.9159 70.5238L55.8008 70.2734Z" fill="#263238" stroke="#263238" stroke-width="0.1932" stroke-linecap="round" stroke-linejoin="round"/>
<path d="M55.4961 68.1562V70.5246H57.9162L55.4961 68.1562Z" fill="white" stroke="#263238" stroke-width="0.1932" stroke-linecap="round" stroke-linejoin="round"/>
<path d="M48.0586 71.4297H56.7521" stroke="#263238" stroke-width="0.1932" stroke-linecap="round" stroke-linejoin="round"/>
<path d="M48.0586 73.5801H56.7521" stroke="#263238" stroke-width="0.1932" stroke-linecap="round" stroke-linejoin="round"/>
<path d="M48.0586 75.7344H56.7521" stroke="#263238" stroke-width="0.1932" stroke-linecap="round" stroke-linejoin="round"/>
<path d="M48.0586 77.8828H56.7521" stroke="#263238" stroke-width="0.1932" stroke-linecap="round" stroke-linejoin="round"/>
<path d="M48.0586 80.0352H56.7521" stroke="#263238" stroke-width="0.1932" stroke-linecap="round" stroke-linejoin="round"/>
<path d="M73.0684 99.9095H61.7734V84.8477H70.6482L73.0684 87.2131V99.9095Z" fill="white" stroke="#263238" stroke-width="0.1932" stroke-linecap="round" stroke-linejoin="round"/>
<path d="M70.9492 86.9648V87.5835L73.0672 87.2152L70.9492 86.9648Z" fill="#263238" stroke="#263238" stroke-width="0.1932" stroke-linecap="round" stroke-linejoin="round"/>
<path d="M70.6523 84.8477V87.216H73.0725L70.6523 84.8477Z" fill="white" stroke="#263238" stroke-width="0.1932" stroke-linecap="round" stroke-linejoin="round"/>
<path d="M63.207 88.1211H71.9034" stroke="#263238" stroke-width="0.1932" stroke-linecap="round" stroke-linejoin="round"/>
<path d="M63.207 90.2715H71.9034" stroke="#263238" stroke-width="0.1932" stroke-linecap="round" stroke-linejoin="round"/>
<path d="M63.207 92.4238H71.9034" stroke="#263238" stroke-width="0.1932" stroke-linecap="round" stroke-linejoin="round"/>
<path d="M63.207 94.5742H71.9034" stroke="#263238" stroke-width="0.1932" stroke-linecap="round" stroke-linejoin="round"/>
<path d="M63.207 96.7266H71.9034" stroke="#263238" stroke-width="0.1932" stroke-linecap="round" stroke-linejoin="round"/>
<path d="M41.551 72.4434H29.1222C27.7538 72.4434 26.6445 73.5527 26.6445 74.9211V89.6951C26.6445 91.0635 27.7538 92.1728 29.1222 92.1728H41.551C42.9194 92.1728 44.0287 91.0635 44.0287 89.6951V74.9211C44.0287 73.5527 42.9194 72.4434 41.551 72.4434Z" fill="white" stroke="#263238" stroke-width="0.1932" stroke-linecap="round" stroke-linejoin="round"/>
<path d="M42.0928 72.4434H28.5677C28.0555 72.4434 27.5644 72.6468 27.2023 73.0089C26.8402 73.371 26.6367 73.8622 26.6367 74.3743V74.7916H44.018V74.3772C44.0188 73.8656 43.8164 73.3745 43.4555 73.012C43.0945 72.6494 42.6044 72.4449 42.0928 72.4434Z" fill="#263238" stroke="#263238" stroke-width="0.1932" stroke-linecap="round" stroke-linejoin="round"/>
<path d="M29.125 78.2383H41.5423" stroke="#263238" stroke-width="0.1932" stroke-linecap="round" stroke-linejoin="round"/>
<path d="M29.125 81.2734H41.5423" stroke="#263238" stroke-width="0.1932" stroke-linecap="round" stroke-linejoin="round"/>
<path d="M29.125 84.3086H41.5423" stroke="#263238" stroke-width="0.1932" stroke-linecap="round" stroke-linejoin="round"/>
<path d="M29.125 87.3438H41.5423" stroke="#263238" stroke-width="0.1932" stroke-linecap="round" stroke-linejoin="round"/>
<path d="M39.5894 73.5486C39.5894 73.4393 39.557 73.3325 39.4963 73.2417C39.4356 73.1508 39.3493 73.08 39.2483 73.0382C39.1474 72.9963 39.0363 72.9854 38.9291 73.0067C38.8219 73.028 38.7235 73.0807 38.6462 73.1579C38.5689 73.2352 38.5163 73.3336 38.495 73.4408C38.4737 73.548 38.4846 73.6591 38.5264 73.76C38.5683 73.861 38.6391 73.9473 38.7299 74.008C38.8208 74.0687 38.9276 74.1011 39.0369 74.1011C39.1834 74.1011 39.324 74.0429 39.4276 73.9393C39.5312 73.8357 39.5894 73.6951 39.5894 73.5486Z" fill="white"/>
<path d="M41.4175 73.5486C41.4175 73.4393 41.3851 73.3325 41.3244 73.2417C41.2637 73.1508 41.1774 73.08 41.0765 73.0382C40.9755 72.9963 40.8644 72.9854 40.7572 73.0067C40.6501 73.028 40.5516 73.0807 40.4743 73.1579C40.3971 73.2352 40.3444 73.3336 40.3231 73.4408C40.3018 73.548 40.3127 73.6591 40.3546 73.76C40.3964 73.861 40.4672 73.9473 40.5581 74.008C40.6489 74.0687 40.7557 74.1011 40.865 74.1011C41.0116 74.1011 41.1521 74.0429 41.2557 73.9393C41.3593 73.8357 41.4175 73.6951 41.4175 73.5486Z" fill="white"/>
<path d="M43.2339 73.5486C43.2339 73.4392 43.2015 73.3323 43.1406 73.2413C43.0798 73.1504 42.9933 73.0796 42.8922 73.0379C42.7911 72.9961 42.6798 72.9854 42.5726 73.0069C42.4653 73.0285 42.3669 73.0814 42.2897 73.1589C42.2126 73.2365 42.1602 73.3352 42.1392 73.4426C42.1182 73.55 42.1295 73.6611 42.1718 73.762C42.2141 73.863 42.2853 73.949 42.3766 74.0094C42.4678 74.0698 42.5749 74.1017 42.6843 74.1011C42.7567 74.1011 42.8284 74.0868 42.8953 74.059C42.9622 74.0312 43.0229 73.9905 43.074 73.9391C43.1251 73.8878 43.1655 73.8268 43.1929 73.7598C43.2204 73.6928 43.2343 73.621 43.2339 73.5486Z" fill="white"/>
<path d="M29.6395 88.5996H22.5402C21.1718 88.5996 20.0625 89.7089 20.0625 91.0773V99.8025C20.0625 101.171 21.1718 102.28 22.5402 102.28H29.6395C31.0079 102.28 32.1172 101.171 32.1172 99.8025V91.0773C32.1172 89.7089 31.0079 88.5996 29.6395 88.5996Z" fill="white" stroke="#263238" stroke-width="0.1932" stroke-linecap="round" stroke-linejoin="round"/>
<path d="M30.7762 88.6055H21.4006C21.0457 88.6055 20.7054 88.7464 20.4544 88.9974C20.2035 89.2483 20.0625 89.5887 20.0625 89.9436V90.2314H32.1085V89.9436C32.1085 89.5897 31.9683 89.2502 31.7186 88.9994C31.4689 88.7486 31.1301 88.607 30.7762 88.6055Z" fill="#263238" stroke="#263238" stroke-width="0.1932" stroke-linecap="round" stroke-linejoin="round"/>
<path d="M21.7812 92.6172H30.3913" stroke="#263238" stroke-width="0.1932" stroke-linecap="round" stroke-linejoin="round"/>
<path d="M21.7812 94.7207H30.3913" stroke="#263238" stroke-width="0.1932" stroke-linecap="round" stroke-linejoin="round"/>
<path d="M21.7812 96.8262H30.3913" stroke="#263238" stroke-width="0.1932" stroke-linecap="round" stroke-linejoin="round"/>
<path d="M21.7812 98.9297H30.3913" stroke="#263238" stroke-width="0.1932" stroke-linecap="round" stroke-linejoin="round"/>
<path d="M28.6601 89.744C28.8715 89.744 29.0428 89.5726 29.0428 89.3612C29.0428 89.1499 28.8715 88.9785 28.6601 88.9785C28.4487 88.9785 28.2773 89.1499 28.2773 89.3612C28.2773 89.5726 28.4487 89.744 28.6601 89.744Z" fill="white"/>
<path d="M29.9218 89.744C30.1332 89.744 30.3045 89.5726 30.3045 89.3612C30.3045 89.1499 30.1332 88.9785 29.9218 88.9785C29.7104 88.9785 29.5391 89.1499 29.5391 89.3612C29.5391 89.5726 29.7104 89.744 29.9218 89.744Z" fill="white"/>
<path d="M31.5662 89.3612C31.5662 89.2856 31.5438 89.2116 31.5017 89.1486C31.4597 89.0857 31.3999 89.0366 31.33 89.0076C31.26 88.9787 31.1831 88.9711 31.1088 88.9859C31.0346 89.0006 30.9664 89.0371 30.9129 89.0906C30.8594 89.1441 30.8229 89.2123 30.8081 89.2866C30.7934 89.3608 30.8009 89.4378 30.8299 89.5077C30.8589 89.5776 30.9079 89.6374 30.9709 89.6795C31.0338 89.7215 31.1078 89.744 31.1835 89.744C31.2338 89.744 31.2835 89.7341 31.33 89.7148C31.3764 89.6956 31.4186 89.6674 31.4542 89.6319C31.4897 89.5963 31.5179 89.5541 31.5371 89.5077C31.5563 89.4613 31.5662 89.4115 31.5662 89.3612Z" fill="white"/>
<path d="M26.0195 106.398H30.0656" stroke="#263238" stroke-width="0.1932" stroke-linecap="round" stroke-linejoin="round"/>
<path d="M21.5469 106.398H25.2908" stroke="#263238" stroke-width="0.1932" stroke-linecap="round" stroke-linejoin="round"/>
<path d="M28.5 107.676H30.0655" stroke="#263238" stroke-width="0.1932" stroke-linecap="round" stroke-linejoin="round"/>
<path d="M21.5469 107.676H27.7713" stroke="#263238" stroke-width="0.1932" stroke-linecap="round" stroke-linejoin="round"/>
<path d="M29.4492 108.953H30.0679" stroke="#263238" stroke-width="0.1932" stroke-linecap="round" stroke-linejoin="round"/>
<path d="M26.0938 108.953H28.4276" stroke="#263238" stroke-width="0.1932" stroke-linecap="round" stroke-linejoin="round"/>
<path d="M21.5469 108.953H25.4375" stroke="#263238" stroke-width="0.1932" stroke-linecap="round" stroke-linejoin="round"/>
<path d="M21.5469 110.23H30.0677" stroke="#263238" stroke-width="0.1932" stroke-linecap="round" stroke-linejoin="round"/>
<path d="M28.6484 111.508H30.0671" stroke="#263238" stroke-width="0.1932" stroke-linecap="round" stroke-linejoin="round"/>
<path d="M23.7578 111.508H27.1851" stroke="#263238" stroke-width="0.1932" stroke-linecap="round" stroke-linejoin="round"/>
<path d="M21.5469 111.508H22.7382" stroke="#263238" stroke-width="0.1932" stroke-linecap="round" stroke-linejoin="round"/>
<path d="M25.4375 112.787H30.0677" stroke="#263238" stroke-width="0.1932" stroke-linecap="round" stroke-linejoin="round"/>
<path d="M21.5469 112.787H24.6346" stroke="#263238" stroke-width="0.1932" stroke-linecap="round" stroke-linejoin="round"/>
<path d="M27.7695 114.064H30.0659" stroke="#263238" stroke-width="0.1932" stroke-linecap="round" stroke-linejoin="round"/>
<path d="M25.5117 114.064H27.1175" stroke="#263238" stroke-width="0.1932" stroke-linecap="round" stroke-linejoin="round"/>
<path d="M21.5469 114.064H24.6346" stroke="#263238" stroke-width="0.1932" stroke-linecap="round" stroke-linejoin="round"/>
<path d="M54.6211 104.68H58.67" stroke="#263238" stroke-width="0.1932" stroke-linecap="round" stroke-linejoin="round"/>
<path d="M50.1523 104.68H53.8962" stroke="#263238" stroke-width="0.1932" stroke-linecap="round" stroke-linejoin="round"/>
<path d="M57.1016 105.961H58.6699" stroke="#263238" stroke-width="0.1932" stroke-linecap="round" stroke-linejoin="round"/>
<path d="M50.1523 105.961H56.3768" stroke="#263238" stroke-width="0.1932" stroke-linecap="round" stroke-linejoin="round"/>
<path d="M58.0547 107.238H58.6734" stroke="#263238" stroke-width="0.1932" stroke-linecap="round" stroke-linejoin="round"/>
<path d="M54.6992 107.238H57.033" stroke="#263238" stroke-width="0.1932" stroke-linecap="round" stroke-linejoin="round"/>
<path d="M50.1523 107.238H54.043" stroke="#263238" stroke-width="0.1932" stroke-linecap="round" stroke-linejoin="round"/>
<path d="M50.1523 108.516H58.6732" stroke="#263238" stroke-width="0.1932" stroke-linecap="round" stroke-linejoin="round"/>
<path d="M57.25 109.793H58.6716" stroke="#263238" stroke-width="0.1932" stroke-linecap="round" stroke-linejoin="round"/>
<path d="M52.3633 109.793H55.7935" stroke="#263238" stroke-width="0.1932" stroke-linecap="round" stroke-linejoin="round"/>
<path d="M50.1523 109.793H51.3408" stroke="#263238" stroke-width="0.1932" stroke-linecap="round" stroke-linejoin="round"/>
<path d="M54.0391 111.07H58.6693" stroke="#263238" stroke-width="0.1932" stroke-linecap="round" stroke-linejoin="round"/>
<path d="M50.1523 111.07H53.2401" stroke="#263238" stroke-width="0.1932" stroke-linecap="round" stroke-linejoin="round"/>
<path d="M56.375 112.35H58.6714" stroke="#263238" stroke-width="0.1932" stroke-linecap="round" stroke-linejoin="round"/>
<path d="M54.1133 112.35H55.719" stroke="#263238" stroke-width="0.1932" stroke-linecap="round" stroke-linejoin="round"/>
<path d="M50.1523 112.35H53.2401" stroke="#263238" stroke-width="0.1932" stroke-linecap="round" stroke-linejoin="round"/>
<path d="M64.0898 75.6953H68.1359" stroke="#263238" stroke-width="0.1932" stroke-linecap="round" stroke-linejoin="round"/>
<path d="M59.6133 75.6953H63.3572" stroke="#263238" stroke-width="0.1932" stroke-linecap="round" stroke-linejoin="round"/>
<path d="M66.5742 76.9727H68.1397" stroke="#263238" stroke-width="0.1932" stroke-linecap="round" stroke-linejoin="round"/>
<path d="M59.6133 76.9727H65.8377" stroke="#263238" stroke-width="0.1932" stroke-linecap="round" stroke-linejoin="round"/>
<path d="M67.5195 78.25H68.1382" stroke="#263238" stroke-width="0.1932" stroke-linecap="round" stroke-linejoin="round"/>
<path d="M64.1641 78.25H66.4979" stroke="#263238" stroke-width="0.1932" stroke-linecap="round" stroke-linejoin="round"/>
<path d="M59.6133 78.25H63.5039" stroke="#263238" stroke-width="0.1932" stroke-linecap="round" stroke-linejoin="round"/>
<path d="M59.6133 79.5273H68.1341" stroke="#263238" stroke-width="0.1932" stroke-linecap="round" stroke-linejoin="round"/>
<path d="M66.7148 80.8066H68.1335" stroke="#263238" stroke-width="0.1932" stroke-linecap="round" stroke-linejoin="round"/>
<path d="M61.8281 80.8066H65.2555" stroke="#263238" stroke-width="0.1932" stroke-linecap="round" stroke-linejoin="round"/>
<path d="M59.6133 80.8066H60.8046" stroke="#263238" stroke-width="0.1932" stroke-linecap="round" stroke-linejoin="round"/>
<path d="M63.5078 82.084H68.138" stroke="#263238" stroke-width="0.1932" stroke-linecap="round" stroke-linejoin="round"/>
<path d="M59.6133 82.084H62.701" stroke="#263238" stroke-width="0.1932" stroke-linecap="round" stroke-linejoin="round"/>
<path d="M65.8398 83.3613H68.1362" stroke="#263238" stroke-width="0.1932" stroke-linecap="round" stroke-linejoin="round"/>
<path d="M63.5781 83.3613H65.1839" stroke="#263238" stroke-width="0.1932" stroke-linecap="round" stroke-linejoin="round"/>
<path d="M59.6133 83.3613H62.701" stroke="#263238" stroke-width="0.1932" stroke-linecap="round" stroke-linejoin="round"/>
<path d="M19.6992 78.582H23.7453" stroke="#263238" stroke-width="0.1932" stroke-linecap="round" stroke-linejoin="round"/>
<path d="M15.2266 78.582H18.9704" stroke="#263238" stroke-width="0.1932" stroke-linecap="round" stroke-linejoin="round"/>
<path d="M22.1797 79.8594H23.7452" stroke="#263238" stroke-width="0.1932" stroke-linecap="round" stroke-linejoin="round"/>
<path d="M15.2266 79.8594H21.451" stroke="#263238" stroke-width="0.1932" stroke-linecap="round" stroke-linejoin="round"/>
<path d="M23.1289 81.1367H23.7447" stroke="#263238" stroke-width="0.1932" stroke-linecap="round" stroke-linejoin="round"/>
<path d="M19.7734 81.1367H22.1101" stroke="#263238" stroke-width="0.1932" stroke-linecap="round" stroke-linejoin="round"/>
<path d="M15.2266 81.1367H19.1172" stroke="#263238" stroke-width="0.1932" stroke-linecap="round" stroke-linejoin="round"/>
<path d="M15.2266 82.4141H23.7474" stroke="#263238" stroke-width="0.1932" stroke-linecap="round" stroke-linejoin="round"/>
<path d="M22.3281 83.6934H23.7468" stroke="#263238" stroke-width="0.1932" stroke-linecap="round" stroke-linejoin="round"/>
<path d="M17.4375 83.6934H20.8677" stroke="#263238" stroke-width="0.1932" stroke-linecap="round" stroke-linejoin="round"/>
<path d="M15.2266 83.6934H16.4179" stroke="#263238" stroke-width="0.1932" stroke-linecap="round" stroke-linejoin="round"/>
<path d="M19.1133 84.9707H23.7435" stroke="#263238" stroke-width="0.1932" stroke-linecap="round" stroke-linejoin="round"/>
<path d="M15.2266 84.9707H18.3143" stroke="#263238" stroke-width="0.1932" stroke-linecap="round" stroke-linejoin="round"/>
<path d="M21.4492 86.248H23.7456" stroke="#263238" stroke-width="0.1932" stroke-linecap="round" stroke-linejoin="round"/>
<path d="M19.1875 86.248H20.7933" stroke="#263238" stroke-width="0.1932" stroke-linecap="round" stroke-linejoin="round"/>
<path d="M15.2266 86.248H18.3143" stroke="#263238" stroke-width="0.1932" stroke-linecap="round" stroke-linejoin="round"/>
<path d="M45.0039 88.7063V101.403H56.2989V86.3438H47.4269L45.0039 88.7063Z" fill="white" stroke="#263238" stroke-width="0.1932" stroke-linecap="round" stroke-linejoin="round"/>
<path d="M47.1219 88.4609V89.0768L45.0039 88.7113L47.1219 88.4609Z" fill="#263238" stroke="#263238" stroke-width="0.1932" stroke-linecap="round" stroke-linejoin="round"/>
<path d="M47.424 86.3438V88.7121H45.0039L47.424 86.3438Z" fill="white" stroke="#263238" stroke-width="0.1932" stroke-linecap="round" stroke-linejoin="round"/>
<path d="M54.8644 89.6152H46.168" stroke="#263238" stroke-width="0.1932" stroke-linecap="round" stroke-linejoin="round"/>
<path d="M54.8644 91.7656H46.168" stroke="#263238" stroke-width="0.1932" stroke-linecap="round" stroke-linejoin="round"/>
<path d="M54.8644 93.918H46.168" stroke="#263238" stroke-width="0.1932" stroke-linecap="round" stroke-linejoin="round"/>
<path d="M54.8644 96.0703H46.168" stroke="#263238" stroke-width="0.1932" stroke-linecap="round" stroke-linejoin="round"/>
<path d="M56.2989 97.8887H45.0039V101.405H56.2989V97.8887Z" fill="#263238" stroke="#263238" stroke-width="0.1932" stroke-linecap="round" stroke-linejoin="round"/>
<path d="M58.0424 89.6934H50.2266V93.4574H58.0424V89.6934Z" fill="#263238" stroke="#263238" stroke-width="0.1932" stroke-linecap="round" stroke-linejoin="round"/>
<path d="M53.4366 90.2246C53.8366 90.2246 54.0121 90.4606 54.0121 90.8433V91.1483C54.0248 91.2284 54.019 91.3102 53.9952 91.3876C53.9713 91.4651 53.9299 91.536 53.8743 91.5949C53.8187 91.6538 53.7504 91.6992 53.6745 91.7276C53.5986 91.7559 53.5172 91.7665 53.4366 91.7584H53.1862V92.7599H52.8984V90.2246H53.4366ZM53.4164 91.5052C53.6265 91.5052 53.7272 91.4073 53.7272 91.1656V90.8289C53.7272 90.5987 53.6438 90.4807 53.4394 90.4807H53.1689V91.5052H53.4164Z" fill="white"/>
<path d="M54.8387 90.2246C55.2329 90.2246 55.4142 90.4635 55.4142 90.8548V92.1325C55.4142 92.521 55.2329 92.7599 54.8387 92.7599H54.2344V90.2246H54.8387ZM54.8387 92.5009C55.0401 92.5009 55.1265 92.3742 55.1265 92.144V90.8404C55.1265 90.6073 55.0286 90.4807 54.8243 90.4807H54.5193V92.4951L54.8387 92.5009Z" fill="white"/>
<path d="M56.5313 91.4045V91.6606H55.9557V92.7599H55.668V90.2246H56.6752V90.4807H55.95V91.4045H56.5313Z" fill="white"/>
<path opacity="0.2" d="M191.555 100.459L189.563 100.41L189.535 101.544C189.045 101.595 188.562 101.701 188.096 101.861L187.535 100.833L185.776 101.789L186.317 102.781C185.917 103.075 185.549 103.412 185.221 103.786L184.222 103.173L183.187 104.873L184.151 105.449C183.95 105.904 183.8 106.38 183.705 106.868L182.533 106.836L182.484 108.83L183.618 108.859C183.669 109.349 183.776 109.832 183.935 110.298L182.899 110.882L183.851 112.635L184.847 112.094C185.139 112.494 185.475 112.861 185.848 113.187L185.238 114.189L186.939 115.227L187.529 114.263C187.983 114.464 188.458 114.613 188.945 114.709L188.916 115.881L190.91 115.93L190.956 114.79C191.446 114.739 191.929 114.633 192.395 114.473L192.953 115.501L194.706 114.548L194.162 113.553C194.563 113.26 194.931 112.924 195.258 112.551L196.257 113.161L197.299 111.461L196.332 110.871C196.534 110.416 196.683 109.94 196.778 109.452L197.949 109.484L198.001 107.489L196.867 107.461C196.814 106.971 196.708 106.488 196.551 106.022L197.575 105.463L196.622 103.711L195.627 104.255C195.336 103.852 195 103.484 194.625 103.158L195.238 102.157L193.546 101.112L192.956 102.079C192.503 101.876 192.028 101.725 191.54 101.63L191.555 100.459ZM190.116 112.968C189.167 112.945 188.246 112.64 187.47 112.093C186.694 111.546 186.098 110.782 185.757 109.896C185.415 109.01 185.344 108.043 185.552 107.117C185.761 106.19 186.239 105.347 186.927 104.692C187.615 104.038 188.481 103.602 189.416 103.44C190.352 103.278 191.314 103.397 192.182 103.782C193.05 104.167 193.784 104.801 194.292 105.603C194.799 106.405 195.058 107.34 195.034 108.289C195.002 109.562 194.465 110.769 193.543 111.647C192.621 112.524 191.388 112.999 190.116 112.968Z" stroke="black" stroke-width="0.1932" stroke-linecap="round" stroke-linejoin="round"/>
<path opacity="0.2" d="M185.926 85.5645L183.934 85.5156L183.906 86.6466C183.416 86.6999 182.933 86.807 182.467 86.966L181.891 85.9386L180.142 86.8912L180.683 87.8868C180.282 88.1798 179.914 88.5156 179.586 88.8883L178.585 88.2782L177.546 89.9789L178.51 90.5689C178.309 91.0228 178.16 91.4977 178.064 91.9847L176.893 91.9559L176.844 93.9501L177.975 93.976C178.027 94.4708 178.134 94.9581 178.294 95.4293L177.267 95.9876L178.219 97.7372L179.215 97.1962C179.507 97.5976 179.843 97.9653 180.216 98.2926L179.606 99.2911L181.307 100.333L181.883 99.366C182.336 99.5679 182.811 99.7175 183.298 99.812L183.27 100.983L185.264 101.035L185.293 99.9012C185.783 99.8489 186.265 99.7418 186.732 99.5818L187.29 100.609L189.039 99.6566L188.53 98.6753C188.931 98.3831 189.299 98.0473 189.626 97.6739L190.625 98.284L191.667 96.5832L190.7 95.9933C190.902 95.54 191.052 95.0649 191.146 94.5775L192.317 94.6063L192.369 92.6149L191.235 92.5861C191.183 92.096 191.076 91.6133 190.916 91.1473L191.943 90.5861L190.99 88.8365L189.995 89.3775C189.703 88.976 189.367 88.6083 188.993 88.2811L189.603 87.2825L187.903 86.2437L187.327 87.2077C186.873 87.0067 186.398 86.857 185.911 86.7617L185.926 85.5645ZM184.487 98.071C183.538 98.0474 182.617 97.7427 181.841 97.1957C181.065 96.6487 180.468 95.8837 180.127 94.9977C179.786 94.1117 179.715 93.1444 179.924 92.2181C180.132 91.2918 180.611 90.4482 181.299 89.794C181.987 89.1397 182.854 88.7042 183.789 88.5426C184.725 88.3809 185.687 88.5004 186.555 88.8858C187.423 89.2713 188.157 89.9054 188.664 90.708C189.171 91.5106 189.429 92.4456 189.405 93.3947C189.372 94.6669 188.836 95.8741 187.914 96.751C186.992 97.6279 185.759 98.1027 184.487 98.071Z" stroke="black" stroke-width="0.1932" stroke-linecap="round" stroke-linejoin="round"/>
<path opacity="0.2" d="M88.9242 67.0222V65.0078H87.7904C87.7264 64.5165 87.6077 64.0339 87.4365 63.569L88.4494 62.9934L87.4508 61.2668L86.4696 61.8424C86.167 61.4493 85.8226 61.0903 85.4422 60.7719L86.0178 59.7589L84.2911 58.7604L83.7156 59.7417C83.2525 59.5522 82.77 59.4142 82.2768 59.3301V58.1445H80.2825V59.2783C79.7912 59.3423 79.3086 59.461 78.8437 59.6323L78.2681 58.6194L76.5415 59.6179L77.117 60.5992C76.7246 60.9025 76.3657 61.2469 76.0465 61.6265L75.0336 61.051L74.0379 62.7776L75.0163 63.3532C74.8269 63.8163 74.6889 64.2988 74.6048 64.792H73.4336V66.7862H74.5674C74.6314 67.2776 74.7501 67.7602 74.9214 68.2251L73.9084 68.8006L74.907 70.5272L75.8883 69.9517C76.1915 70.3442 76.5359 70.7031 76.9156 71.0222L76.3401 72.0352L78.0667 73.0308L78.6422 72.0524C79.1053 72.2419 79.5878 72.3799 80.0811 72.4639V73.6409H82.0753V72.4898C82.5666 72.4259 83.0492 72.3071 83.5142 72.1359L84.0897 73.1488L85.8163 72.1503L85.2408 71.169C85.6339 70.8665 85.9928 70.522 86.3113 70.1416L87.3242 70.7172L88.3228 68.9906L87.3415 68.415C87.5309 67.9519 87.6689 67.4694 87.753 66.9762L88.9242 67.0222ZM76.3832 65.897C76.3832 64.9477 76.6647 64.0197 77.1922 63.2303C77.7196 62.441 78.4693 61.8257 79.3463 61.4624C80.2234 61.0991 81.1886 61.0041 82.1197 61.1893C83.0508 61.3745 83.906 61.8316 84.5773 62.5029C85.2486 63.1742 85.7058 64.0295 85.891 64.9606C86.0762 65.8917 85.9811 66.8568 85.6178 67.7339C85.2545 68.611 84.6393 69.3607 83.85 69.8881C83.0606 70.4155 82.1326 70.697 81.1832 70.697C80.5519 70.697 79.9268 70.5725 79.3437 70.3306C78.7606 70.0886 78.2309 69.734 77.785 69.2871C77.3392 68.8401 76.9858 68.3096 76.7453 67.7259C76.5048 67.1423 76.3817 66.5168 76.3832 65.8855V65.897Z" stroke="black" stroke-width="0.1932" stroke-linecap="round" stroke-linejoin="round"/>
<path opacity="0.2" d="M103.674 61.0039V59.0097H102.544C102.48 58.5184 102.361 58.0358 102.19 57.5708L103.2 56.9953L102.204 55.2687L101.223 55.8442C100.921 55.4497 100.575 55.0906 100.192 54.7737L100.768 53.7579L99.0413 52.7622L98.4658 53.7406C98.0033 53.55 97.5206 53.4129 97.027 53.332V52.1406H95.0356V53.2744C94.5441 53.3376 94.0614 53.4563 93.5968 53.6284L93.0212 52.6154L91.2946 53.6111L91.8701 54.5924C91.4807 54.8952 91.1264 55.2408 90.814 55.6226L89.8011 55.0471L88.8025 56.7737L89.7838 57.3493C89.591 57.8112 89.4528 58.2941 89.3723 58.7881H88.1953V60.7823H89.3291C89.3938 61.2735 89.5125 61.7561 89.6831 62.2212L88.6701 62.7967L89.6658 64.5233L90.65 63.9478C90.9516 64.3382 91.2962 64.6935 91.6773 65.0068L91.1018 66.0197L92.8284 67.0183L93.4039 66.037C93.866 66.2295 94.3488 66.3676 94.8428 66.4485V67.6197H96.837V66.4859C97.3286 66.4233 97.8114 66.3046 98.2759 66.132L98.8514 67.1449L100.578 66.1492L100.002 65.1679C100.396 64.8652 100.755 64.5197 101.073 64.1377L102.089 64.7133L103.085 62.9867L102.106 62.4111C102.297 61.9486 102.434 61.4659 102.515 60.9723L103.674 61.0039ZM91.1363 59.8787C91.1363 58.9294 91.4178 58.0014 91.9453 57.212C92.4727 56.4227 93.2223 55.8074 94.0994 55.4441C94.9765 55.0808 95.9416 54.9858 96.8727 55.171C97.8039 55.3562 98.6591 55.8133 99.3304 56.4846C100.002 57.1559 100.459 58.0112 100.644 58.9423C100.829 59.8734 100.734 60.8385 100.371 61.7156C100.008 62.5927 99.3924 63.3424 98.603 63.8698C97.8137 64.3972 96.8857 64.6787 95.9363 64.6787C95.3059 64.6791 94.6815 64.5552 94.099 64.3141C93.5165 64.073 92.9872 63.7195 92.5414 63.2737C92.0956 62.8279 91.742 62.2986 91.5009 61.7161C91.2598 61.1335 91.1359 60.5092 91.1363 59.8787Z" stroke="black" stroke-width="0.1932" stroke-linecap="round" stroke-linejoin="round"/>
<g opacity="0.2">
<path d="M44.2576 124.808C47.0707 124.808 49.3511 122.528 49.3511 119.715C49.3511 116.902 47.0707 114.621 44.2576 114.621C41.4445 114.621 39.1641 116.902 39.1641 119.715C39.1641 122.528 41.4445 124.808 44.2576 124.808Z" stroke="black" stroke-width="0.1932" stroke-linecap="round" stroke-linejoin="round"/>
<path d="M48.0811 120.431C48.4782 118.319 47.0882 116.285 44.9765 115.888C42.8648 115.491 40.831 116.881 40.4339 118.993C40.0368 121.105 41.4267 123.138 43.5385 123.535C45.6502 123.933 47.684 122.543 48.0811 120.431Z" stroke="black" stroke-width="0.1932" stroke-linecap="round" stroke-linejoin="round"/>
<path d="M51.7175 123.207L48.9693 121.717L48.5117 122.56L51.2628 124.048C51.2024 124.16 51.1887 124.291 51.2249 124.413C51.261 124.535 51.344 124.637 51.4556 124.698L56.6959 127.535C56.8077 127.596 56.939 127.61 57.0609 127.573C57.1828 127.537 57.2854 127.454 57.3462 127.343L57.8038 126.5C57.8632 126.387 57.876 126.256 57.8394 126.134C57.8028 126.012 57.7197 125.91 57.6081 125.849L52.3678 123.012C52.2555 122.952 52.1242 122.94 52.0025 122.976C51.8808 123.013 51.7784 123.096 51.7175 123.207Z" stroke="black" stroke-width="0.1932" stroke-miterlimit="10"/>
</g>
<path opacity="0.2" d="M129.951 61.2657C129.952 62.3666 129.626 63.4429 129.015 64.3585C128.403 65.2741 127.534 65.9879 126.518 66.4096C125.501 66.8313 124.382 66.9419 123.302 66.7275C122.222 66.513 121.23 65.9832 120.451 65.205C119.673 64.4267 119.142 63.4351 118.927 62.3554C118.712 61.2757 118.823 60.1566 119.244 59.1394C119.665 58.1223 120.378 57.2529 121.293 56.6413C122.209 56.0296 123.285 55.7031 124.386 55.7031" stroke="black" stroke-width="0.1932" stroke-linecap="round" stroke-linejoin="round"/>
<path opacity="0.2" d="M129.948 61.2657H124.383V55.7031C125.858 55.7031 127.274 56.2891 128.317 57.3322C129.361 58.3753 129.948 59.7902 129.948 61.2657Z" stroke="black" stroke-width="0.1932" stroke-linecap="round" stroke-linejoin="round"/>
<path opacity="0.2" d="M129.375 57.4291L132.253 55.127H136.281" stroke="black" stroke-width="0.1932" stroke-linecap="round" stroke-linejoin="round"/>
<path opacity="0.2" d="M138.582 55.1289H143.952" stroke="black" stroke-width="0.1932" stroke-linecap="round" stroke-linejoin="round"/>
<path opacity="0.2" d="M138.582 56.8555H143.952" stroke="black" stroke-width="0.1932" stroke-linecap="round" stroke-linejoin="round"/>
<path opacity="0.2" d="M138.582 58.582H143.952" stroke="black" stroke-width="0.1932" stroke-linecap="round" stroke-linejoin="round"/>
<path opacity="0.2" d="M138.582 60.3086H143.952" stroke="black" stroke-width="0.1932" stroke-linecap="round" stroke-linejoin="round"/>
<g opacity="0.2">
<path d="M68.1394 120.577L67.9322 119.564H64.2891L64.4963 120.577L64.6833 121.481L65.9207 127.524H75.6473L74.2257 120.577H68.1394Z" stroke="black" stroke-width="0.1932" stroke-linecap="round" stroke-linejoin="round"/>
<path d="M75.6469 127.525L77.4397 121.047H74.375" stroke="black" stroke-width="0.1932" stroke-linecap="round" stroke-linejoin="round"/>
</g>
<g opacity="0.2">
<path d="M81.8035 120.577L81.5934 119.564H77.9531L78.1603 120.577L78.3474 121.481L79.5848 127.524H89.3114L87.8869 120.577H81.8035Z" stroke="black" stroke-width="0.1932" stroke-linecap="round" stroke-linejoin="round"/>
<path d="M89.311 127.525L91.1038 121.047H88.0391" stroke="black" stroke-width="0.1932" stroke-linecap="round" stroke-linejoin="round"/>
</g>
<path d="M102.454 104.412C102.523 104.411 102.592 104.424 102.656 104.45C102.72 104.476 102.778 104.514 102.827 104.562C102.877 104.611 102.916 104.669 102.943 104.732C102.969 104.796 102.983 104.864 102.984 104.933V108.225C102.974 108.359 102.914 108.485 102.815 108.576C102.717 108.667 102.587 108.718 102.453 108.718C102.318 108.718 102.189 108.667 102.09 108.576C101.992 108.485 101.932 108.359 101.922 108.225V104.933C101.923 104.864 101.937 104.796 101.964 104.732C101.991 104.668 102.031 104.611 102.08 104.562C102.13 104.514 102.188 104.476 102.252 104.45C102.316 104.424 102.385 104.411 102.454 104.412Z" fill="#263238"/>
<path d="M101.17 104.412C101.239 104.411 101.308 104.424 101.372 104.45C101.436 104.476 101.495 104.514 101.544 104.562C101.594 104.611 101.633 104.668 101.66 104.732C101.687 104.796 101.702 104.864 101.702 104.933V108.225C101.693 108.359 101.632 108.485 101.534 108.576C101.435 108.667 101.306 108.718 101.172 108.718C101.037 108.718 100.908 108.667 100.809 108.576C100.711 108.485 100.651 108.359 100.641 108.225V104.933C100.642 104.794 100.699 104.661 100.798 104.563C100.897 104.466 101.031 104.411 101.17 104.412Z" fill="#263238"/>
<path d="M99.9084 104.412C99.9774 104.411 100.046 104.424 100.11 104.45C100.174 104.476 100.232 104.514 100.281 104.562C100.331 104.611 100.37 104.669 100.397 104.732C100.424 104.796 100.438 104.864 100.438 104.933V108.225C100.438 108.294 100.424 108.362 100.397 108.426C100.37 108.49 100.331 108.547 100.281 108.596C100.232 108.644 100.174 108.682 100.11 108.708C100.046 108.734 99.9774 108.747 99.9084 108.746C99.8394 108.747 99.7709 108.734 99.7069 108.708C99.6429 108.682 99.5846 108.644 99.5354 108.596C99.4862 108.547 99.447 108.49 99.4201 108.426C99.3933 108.362 99.3793 108.294 99.3789 108.225V104.933C99.3793 104.864 99.3933 104.796 99.4201 104.732C99.447 104.669 99.4862 104.611 99.5354 104.562C99.5846 104.514 99.6429 104.476 99.7069 104.45C99.7709 104.424 99.8394 104.411 99.9084 104.412Z" fill="#263238"/>
<path d="M98.6311 104.412C98.7002 104.411 98.7688 104.424 98.833 104.45C98.8972 104.476 98.9557 104.514 99.0051 104.562C99.0546 104.611 99.094 104.668 99.1212 104.732C99.1483 104.796 99.1627 104.864 99.1634 104.933V108.225C99.1536 108.359 99.0933 108.485 98.9949 108.576C98.8964 108.667 98.7669 108.718 98.6325 108.718C98.4981 108.718 98.3686 108.667 98.2701 108.576C98.1717 108.485 98.1114 108.359 98.1016 108.225V104.933C98.1031 104.794 98.1596 104.661 98.2588 104.563C98.3581 104.466 98.4919 104.411 98.6311 104.412Z" fill="#263238"/>
<path d="M97.3615 104.412C97.4305 104.411 97.499 104.424 97.5631 104.45C97.6271 104.476 97.6854 104.514 97.7346 104.562C97.7838 104.611 97.8229 104.669 97.8498 104.732C97.8766 104.796 97.8906 104.864 97.891 104.933V108.225C97.891 108.366 97.8352 108.5 97.7359 108.599C97.6366 108.699 97.502 108.755 97.3615 108.755C97.2211 108.755 97.0864 108.699 96.9871 108.599C96.8878 108.5 96.832 108.366 96.832 108.225V104.933C96.8324 104.864 96.8464 104.796 96.8733 104.732C96.9001 104.669 96.9393 104.611 96.9885 104.562C97.0377 104.514 97.096 104.476 97.16 104.45C97.224 104.424 97.2925 104.411 97.3615 104.412Z" fill="#263238"/>
<path d="M96.0842 104.412C96.1533 104.411 96.222 104.424 96.2862 104.45C96.3503 104.476 96.4088 104.514 96.4583 104.562C96.5077 104.611 96.5471 104.668 96.5743 104.732C96.6014 104.796 96.6158 104.864 96.6166 104.933V108.225C96.6158 108.294 96.6014 108.363 96.5743 108.426C96.5471 108.49 96.5077 108.547 96.4583 108.596C96.4088 108.644 96.3503 108.682 96.2862 108.708C96.222 108.734 96.1533 108.747 96.0842 108.746C95.945 108.747 95.8112 108.692 95.712 108.595C95.6128 108.497 95.5562 108.364 95.5547 108.225V104.933C95.5562 104.794 95.6128 104.661 95.712 104.563C95.8112 104.466 95.945 104.411 96.0842 104.412Z" fill="#263238"/>
<path d="M94.8147 104.412C94.8837 104.411 94.9522 104.424 95.0162 104.45C95.0802 104.476 95.1385 104.514 95.1877 104.562C95.2369 104.611 95.2761 104.669 95.3029 104.732C95.3298 104.796 95.3438 104.864 95.3441 104.933V108.225C95.3441 108.366 95.2884 108.5 95.1891 108.599C95.0898 108.699 94.9551 108.755 94.8147 108.755C94.6742 108.755 94.5395 108.699 94.4402 108.599C94.3409 108.5 94.2852 108.366 94.2852 108.225V104.933C94.2855 104.864 94.2995 104.796 94.3264 104.732C94.3532 104.669 94.3924 104.611 94.4416 104.562C94.4908 104.514 94.5491 104.476 94.6131 104.45C94.6771 104.424 94.7456 104.411 94.8147 104.412Z" fill="#263238"/>
<path d="M93.5402 104.412C93.6794 104.411 93.8132 104.466 93.9124 104.563C94.0116 104.661 94.0682 104.794 94.0697 104.933V108.225C94.0598 108.359 93.9996 108.485 93.9011 108.576C93.8026 108.667 93.6732 108.718 93.5387 108.718C93.4043 108.718 93.2749 108.667 93.1764 108.576C93.0779 108.485 93.0177 108.359 93.0078 108.225V104.933C93.0086 104.864 93.0229 104.796 93.0501 104.732C93.0773 104.668 93.1167 104.611 93.1661 104.562C93.2155 104.514 93.274 104.476 93.3382 104.45C93.4024 104.424 93.471 104.411 93.5402 104.412Z" fill="#263238"/>
<path d="M92.2639 104.412C92.3329 104.411 92.4014 104.424 92.4654 104.45C92.5294 104.476 92.5877 104.514 92.6369 104.562C92.6861 104.611 92.7253 104.669 92.7521 104.732C92.779 104.796 92.793 104.864 92.7934 104.933V108.225C92.7934 108.366 92.7376 108.5 92.6383 108.599C92.539 108.699 92.4043 108.755 92.2639 108.755C92.1234 108.755 91.9888 108.699 91.8895 108.599C91.7902 108.5 91.7344 108.366 91.7344 108.225V104.933C91.7348 104.864 91.7488 104.796 91.7756 104.732C91.8025 104.669 91.8416 104.611 91.8908 104.562C91.94 104.514 91.9983 104.476 92.0623 104.45C92.1264 104.424 92.1948 104.411 92.2639 104.412Z" fill="#263238"/>
<path d="M90.9933 104.412C91.1325 104.411 91.2663 104.466 91.3655 104.563C91.4647 104.661 91.5213 104.794 91.5228 104.933V108.225C91.5129 108.359 91.4527 108.485 91.3542 108.576C91.2557 108.667 91.1263 108.718 90.9919 108.718C90.8574 108.718 90.728 108.667 90.6295 108.576C90.531 108.485 90.4708 108.359 90.4609 108.225V104.933C90.4617 104.864 90.4761 104.796 90.5032 104.732C90.5304 104.668 90.5698 104.611 90.6192 104.562C90.6687 104.514 90.7272 104.476 90.7913 104.45C90.8555 104.424 90.9242 104.411 90.9933 104.412Z" fill="#263238"/>
<path d="M89.717 104.412C89.786 104.411 89.8545 104.424 89.9185 104.45C89.9825 104.476 90.0408 104.514 90.09 104.562C90.1393 104.611 90.1784 104.669 90.2053 104.732C90.2321 104.796 90.2461 104.864 90.2465 104.933V108.225C90.2465 108.366 90.1907 108.5 90.0914 108.599C89.9921 108.699 89.8574 108.755 89.717 108.755C89.5766 108.755 89.4419 108.699 89.3426 108.599C89.2433 108.5 89.1875 108.366 89.1875 108.225V104.933C89.1879 104.864 89.2019 104.796 89.2287 104.732C89.2556 104.669 89.2947 104.611 89.344 104.562C89.3932 104.514 89.4514 104.476 89.5155 104.45C89.5795 104.424 89.648 104.411 89.717 104.412Z" fill="#263238"/>
<path d="M88.8101 104.412C88.7964 104.462 88.7964 104.515 88.8101 104.565C88.859 104.613 88.8979 104.67 88.9246 104.733C88.9513 104.797 88.9652 104.864 88.9655 104.933V108.225C88.9652 108.294 88.9513 108.362 88.9246 108.425C88.8979 108.488 88.859 108.545 88.8101 108.593C88.5803 108.702 88.3277 108.755 88.0735 108.746C87.4749 108.746 87.095 108.513 87.2245 108.225L88.5828 104.933C88.6714 104.765 88.7474 104.591 88.8101 104.412Z" fill="#263238"/>
<path d="M88.8098 104.412C88.708 104.579 88.6185 104.753 88.5421 104.933L86.8645 108.225C86.7292 108.513 86.1364 108.746 85.5378 108.746C84.9393 108.746 84.6947 108.513 84.9968 108.225L88.2889 104.933L88.6659 104.565C88.7608 104.47 88.8098 104.412 88.8098 104.412Z" fill="#263238"/>
<path d="M88.8104 104.412C88.7564 104.456 88.7055 104.503 88.6579 104.553L88.2895 104.933L84.9974 108.225C84.7097 108.513 84.4766 108.274 84.4766 107.65C84.4766 107.025 84.7097 106.435 84.9974 106.306L88.2895 104.66C88.4692 104.59 88.6433 104.508 88.8104 104.412Z" fill="#263238"/>
<path d="M88.8104 104.41C88.632 104.467 88.458 104.536 88.2895 104.617L84.9974 105.932C84.7097 106.059 84.4766 105.668 84.4766 105.055C84.4762 104.913 84.4897 104.771 84.5169 104.632C84.5294 104.569 84.5457 104.508 84.5658 104.448C84.5705 104.425 84.5803 104.405 84.5946 104.387L84.6291 104.35C84.6767 104.3 84.7338 104.26 84.7971 104.233C84.8604 104.206 84.9285 104.192 84.9974 104.191H88.2895C88.3584 104.192 88.4265 104.206 88.4898 104.233C88.5531 104.26 88.6103 104.3 88.6579 104.35L88.6895 104.387C88.6895 104.404 88.7097 104.416 88.7212 104.413H88.8104V104.41Z" fill="#263238"/>
<path d="M88.8095 103.433C88.811 103.502 88.7987 103.572 88.7733 103.637C88.748 103.702 88.71 103.761 88.6616 103.811C88.6131 103.862 88.5553 103.902 88.4913 103.93C88.4273 103.958 88.3584 103.972 88.2886 103.974H84.9965C84.8595 103.964 84.7313 103.902 84.6377 103.801C84.5442 103.701 84.4922 103.569 84.4922 103.431C84.4922 103.294 84.5442 103.161 84.6377 103.061C84.7313 102.96 84.8595 102.899 84.9965 102.889H88.2886C88.3585 102.89 88.4275 102.905 88.4915 102.934C88.5555 102.962 88.6134 103.002 88.6617 103.053C88.7101 103.103 88.748 103.163 88.7734 103.228C88.7987 103.293 88.811 103.363 88.8095 103.433Z" fill="#263238"/>
<path d="M88.8095 102.129C88.811 102.199 88.7987 102.268 88.7734 102.334C88.748 102.399 88.7101 102.458 88.6617 102.509C88.6134 102.559 88.5555 102.6 88.4915 102.628C88.4275 102.656 88.3585 102.671 88.2886 102.673H84.9965C84.8595 102.663 84.7313 102.601 84.6377 102.501C84.5442 102.4 84.4922 102.268 84.4922 102.13C84.4922 101.993 84.5442 101.861 84.6377 101.76C84.7313 101.659 84.8595 101.598 84.9965 101.588H88.2886C88.3584 101.589 88.4273 101.604 88.4913 101.632C88.5553 101.66 88.6131 101.7 88.6616 101.75C88.71 101.8 88.748 101.86 88.7733 101.925C88.7987 101.99 88.811 102.059 88.8095 102.129Z" fill="#263238"/>
<path d="M88.8095 100.828C88.811 100.898 88.7987 100.968 88.7734 101.033C88.748 101.098 88.7101 101.157 88.6617 101.208C88.6134 101.258 88.5555 101.299 88.4915 101.327C88.4275 101.355 88.3585 101.371 88.2886 101.372H84.9965C84.8595 101.362 84.7313 101.301 84.6377 101.2C84.5442 101.099 84.4922 100.967 84.4922 100.83C84.4922 100.692 84.5442 100.56 84.6377 100.459C84.7313 100.359 84.8595 100.297 84.9965 100.287H88.2886C88.3584 100.288 88.4273 100.303 88.4913 100.331C88.5553 100.359 88.6131 100.399 88.6616 100.449C88.71 100.5 88.748 100.559 88.7733 100.624C88.7987 100.689 88.811 100.758 88.8095 100.828Z" fill="#263238"/>
<path d="M88.8095 99.54C88.811 99.6098 88.7987 99.6791 88.7733 99.7442C88.748 99.8092 88.71 99.8685 88.6616 99.9188C88.6131 99.9691 88.5553 100.009 88.4913 100.037C88.4273 100.065 88.3584 100.08 88.2886 100.081H84.9965C84.8595 100.071 84.7313 100.01 84.6377 99.9089C84.5442 99.8083 84.4922 99.6759 84.4922 99.5385C84.4922 99.4011 84.5442 99.2688 84.6377 99.1682C84.7313 99.0676 84.8595 99.0061 84.9965 98.9961H88.2886C88.3585 98.9976 88.4275 99.0128 88.4915 99.041C88.5555 99.0691 88.6134 99.1096 88.6617 99.1601C88.7101 99.2106 88.748 99.2702 88.7734 99.3354C88.7987 99.4005 88.811 99.4701 88.8095 99.54Z" fill="#263238"/>
<path d="M88.8095 98.2246C88.811 98.2945 88.7987 98.364 88.7734 98.4292C88.748 98.4944 88.7101 98.5539 88.6617 98.6045C88.6134 98.655 88.5555 98.6954 88.4915 98.7236C88.4275 98.7517 88.3585 98.767 88.2886 98.7685H84.9965C84.8595 98.7585 84.7313 98.697 84.6377 98.5964C84.5442 98.4958 84.4922 98.3634 84.4922 98.226C84.4922 98.0886 84.5442 97.9563 84.6377 97.8557C84.7313 97.7551 84.8595 97.6936 84.9965 97.6836H88.2886C88.3584 97.6847 88.4273 97.6996 88.4913 97.7275C88.5553 97.7553 88.6131 97.7955 88.6616 97.8458C88.71 97.8961 88.748 97.9554 88.7733 98.0204C88.7987 98.0854 88.811 98.1548 88.8095 98.2246Z" fill="#263238"/>
<path d="M88.8095 96.9228C88.811 96.9926 88.7987 97.062 88.7733 97.127C88.748 97.192 88.71 97.2513 88.6616 97.3016C88.6131 97.3519 88.5553 97.3921 88.4913 97.4199C88.4273 97.4478 88.3584 97.4627 88.2886 97.4638H84.9965C84.8595 97.4538 84.7313 97.3923 84.6377 97.2917C84.5442 97.1911 84.4922 97.0588 84.4922 96.9214C84.4922 96.7839 84.5442 96.6516 84.6377 96.551C84.7313 96.4504 84.8595 96.3889 84.9965 96.3789H88.2886C88.3585 96.3804 88.4275 96.3957 88.4915 96.4238C88.5555 96.4519 88.6134 96.4924 88.6617 96.5429C88.7101 96.5934 88.748 96.653 88.7734 96.7182C88.7987 96.7833 88.811 96.8529 88.8095 96.9228Z" fill="#263238"/>
<path d="M88.8075 95.3008C88.807 95.4428 88.7925 95.5845 88.7643 95.7238C88.7527 95.786 88.7373 95.8475 88.7183 95.908C88.7131 95.9296 88.7022 95.9495 88.6866 95.9655C88.6777 95.9801 88.6671 95.9937 88.655 96.0058C88.6074 96.0556 88.5502 96.0953 88.4869 96.1225C88.4236 96.1497 88.3555 96.1638 88.2866 96.1641H84.9945C84.9257 96.1638 84.8575 96.1497 84.7942 96.1225C84.731 96.0953 84.6738 96.0556 84.6262 96.0058L84.5917 95.9655C84.5917 95.9511 84.5715 95.9396 84.5629 95.9425H84.4766C84.656 95.8891 84.8303 95.8198 84.9974 95.7353L88.2895 94.4231C88.5744 94.2936 88.8075 94.6878 88.8075 95.3008Z" fill="#263238"/>
<path d="M88.8104 92.6955C88.8104 93.3084 88.5773 93.9099 88.2895 94.0394L84.9974 95.6825C84.8187 95.7582 84.6447 95.8446 84.4766 95.9415C84.4766 95.9415 84.5341 95.8955 84.6291 95.8005L84.9974 95.4235L88.2895 92.1314C88.5773 91.8293 88.8104 92.0825 88.8104 92.6955Z" fill="#263238"/>
<path d="M87.783 91.6113C88.3586 91.6113 88.5888 91.8444 88.2895 92.1322L84.9974 95.4243L84.6176 95.7984C84.5678 95.8456 84.5207 95.8955 84.4766 95.948C84.5794 95.7818 84.6707 95.6087 84.7499 95.43L86.4766 92.1379C86.6233 91.8444 87.2075 91.6113 87.783 91.6113Z" fill="#263238"/>
<path d="M85.3236 91.6103C85.8992 91.6103 86.2589 91.8434 86.1236 92.1312L84.6848 95.4233C84.5987 95.5908 84.5237 95.7638 84.4603 95.9412C84.4644 95.8914 84.4644 95.8414 84.4603 95.7916V95.7139C84.4412 95.6858 84.4248 95.6559 84.4114 95.6247C84.3845 95.561 84.3708 95.4924 84.3711 95.4233V92.1312C84.3711 92.0611 84.3848 91.9917 84.4114 91.9269C84.4242 91.8962 84.4406 91.8673 84.4603 91.8405C84.4975 91.8101 84.538 91.784 84.5812 91.7628C84.8131 91.6539 85.0675 91.6016 85.3236 91.6103Z" fill="#263238"/>
<path d="M83.6685 91.6113C83.8054 91.6128 83.9361 91.6685 84.0321 91.7661C84.128 91.8637 84.1815 91.9953 84.1807 92.1322V95.4243C84.1807 95.5601 84.1267 95.6904 84.0307 95.7865C83.9346 95.8825 83.8043 95.9365 83.6685 95.9365C83.5326 95.9365 83.4023 95.8825 83.3063 95.7865C83.2102 95.6904 83.1563 95.5601 83.1563 95.4243V92.1322C83.1555 91.9953 83.2089 91.8637 83.3049 91.7661C83.4009 91.6685 83.5316 91.6128 83.6685 91.6113Z" fill="#263238"/>
<path d="M82.4419 91.6113C82.5788 91.6128 82.7095 91.6685 82.8055 91.7661C82.9015 91.8637 82.9549 91.9953 82.9542 92.1322V95.4243C82.9542 95.5601 82.9002 95.6904 82.8041 95.7865C82.7081 95.8825 82.5778 95.9365 82.4419 95.9365C82.3061 95.9365 82.1758 95.8825 82.0797 95.7865C81.9837 95.6904 81.9297 95.5601 81.9297 95.4243V92.1322C81.929 92.0643 81.9416 91.9969 81.967 91.934C81.9924 91.871 82.0299 91.8137 82.0775 91.7653C82.1251 91.7168 82.1818 91.6783 82.2444 91.6519C82.3069 91.6255 82.3741 91.6117 82.4419 91.6113Z" fill="#263238"/>
<path d="M81.2143 91.6113C81.3512 91.6128 81.4819 91.6685 81.5779 91.7661C81.6739 91.8637 81.7273 91.9953 81.7266 92.1322V95.4243C81.7269 95.4919 81.714 95.559 81.6885 95.6216C81.6629 95.6843 81.6253 95.7413 81.5777 95.7894C81.5302 95.8375 81.4736 95.8757 81.4112 95.9019C81.3489 95.9282 81.282 95.9419 81.2143 95.9423C81.1464 95.9423 81.0792 95.9288 81.0165 95.9028C80.9539 95.8767 80.897 95.8385 80.8491 95.7904C80.8012 95.7422 80.7633 95.6851 80.7376 95.6223C80.7119 95.5595 80.6988 95.4922 80.6992 95.4243V92.1322C80.6988 92.0642 80.7119 91.9967 80.7376 91.9337C80.7632 91.8708 80.8011 91.8134 80.8489 91.7651C80.8967 91.7167 80.9536 91.6782 81.0163 91.6519C81.079 91.6255 81.1463 91.6117 81.2143 91.6113Z" fill="#263238"/>
<path d="M80.3438 97.9473V89.6797C81.1963 89.6797 82.0138 90.0183 82.6167 90.6212C83.2195 91.224 83.5581 92.0416 83.5581 92.8941V94.7329C83.5581 95.155 83.475 95.573 83.3135 95.963C83.1519 96.353 82.9151 96.7073 82.6167 97.0058C82.3182 97.3043 81.9638 97.5411 81.5738 97.7026C81.1839 97.8642 80.7659 97.9473 80.3438 97.9473Z" fill="white" stroke="#263238" stroke-width="0.1932" stroke-linecap="round" stroke-linejoin="round"/>
<path d="M72.0742 105.923L80.6728 101.678C81.0787 101.478 81.4206 101.168 81.6596 100.783C81.8986 100.399 82.0253 99.9552 82.0253 99.5025V88.2795C82.0253 87.8268 81.8986 87.3831 81.6596 86.9987C81.4206 86.6142 81.0787 86.3043 80.6728 86.104L72.0742 81.8594V105.923Z" fill="white" stroke="#263238" stroke-width="0.1932" stroke-linecap="round" stroke-linejoin="round"/>
<path d="M88.1523 110.645H94.5063" stroke="#263238" stroke-width="0.1932" stroke-linecap="round" stroke-linejoin="round"/>
<path d="M86.8828 111.758H89.4238" stroke="#263238" stroke-width="0.1932" stroke-linecap="round" stroke-linejoin="round"/>
<path d="M90.8516 94.1953V100.391" stroke="#263238" stroke-width="0.1932" stroke-linecap="round" stroke-linejoin="round"/>
<path d="M89.7383 96.4194V92.6094" stroke="#263238" stroke-width="0.1932" stroke-linecap="round" stroke-linejoin="round"/>
<path d="M82.4336 104.201V107.378" stroke="#263238" stroke-width="0.1932" stroke-linecap="round" stroke-linejoin="round"/>
<path d="M83.5469 103.09V105.95" stroke="#263238" stroke-width="0.1932" stroke-linecap="round" stroke-linejoin="round"/>
<path d="M138.191 81.8438H139.843" stroke="#263238" stroke-width="1.7388" stroke-linecap="round" stroke-linejoin="round"/>
<path d="M125.512 101.685H132.125V81.8438H138.188" stroke="#263238" stroke-width="0.772802" stroke-linecap="round" stroke-linejoin="round"/>
<path d="M138.191 121.896H140.212" stroke="#263238" stroke-width="1.7388" stroke-linecap="round" stroke-linejoin="round"/>
<path d="M124.227 107.75H131.942V121.897H138.189" stroke="#263238" stroke-width="0.772802" stroke-linecap="round" stroke-linejoin="round"/>
<path d="M100.411 82.9023H98.7617V97.8405" stroke="#263238" stroke-width="0.772802" stroke-linecap="round" stroke-linejoin="round"/>
<path d="M101.694 82.9043H100.41" stroke="#263238" stroke-width="1.3524" stroke-linecap="round" stroke-linejoin="round"/>
<path d="M116.435 88.5098H108.898V96.5846H116.435V88.5098Z" fill="#263238" stroke="#263238" stroke-width="0.1932" stroke-linecap="round" stroke-linejoin="round"/>
<path d="M123.382 77.3398H115.98V84.6089H123.382V77.3398Z" fill="#263238" stroke="#263238" stroke-width="0.1932" stroke-linecap="round" stroke-linejoin="round"/>
<path d="M120.425 84.607H123.703C122.923 86.6765 121.568 88.4805 119.799 89.8075C118.03 91.1344 115.918 91.9292 113.713 92.0987C111.508 92.2682 109.3 91.8052 107.349 90.7642C105.397 89.7232 103.783 88.1473 102.696 86.2214C101.671 84.4187 101.152 82.3725 101.194 80.2991C101.194 80.1178 101.194 79.9336 101.208 79.7523C101.389 76.9651 102.567 74.336 104.525 72.3448C106.484 70.3536 109.093 69.133 111.877 68.9058C114.661 68.6786 117.434 69.46 119.689 71.1073C121.945 72.7546 123.533 75.158 124.164 77.879H120.423C119.981 77.879 119.543 77.966 119.135 78.135C118.727 78.3041 118.356 78.5519 118.044 78.8643C117.731 79.1766 117.484 79.5475 117.315 79.9556C117.146 80.3638 117.058 80.8012 117.058 81.243C117.058 81.6848 117.146 82.1222 117.315 82.5303C117.484 82.9385 117.731 83.3093 118.044 83.6217C118.356 83.9341 118.727 84.1819 119.135 84.3509C119.543 84.52 119.981 84.607 120.423 84.607H120.425Z" fill="white" stroke="#263238" stroke-width="0.1932" stroke-linecap="round" stroke-linejoin="round"/>
<path d="M113.691 80.9727H117.058" stroke="#263238" stroke-width="0.1932" stroke-linecap="round" stroke-linejoin="round"/>
<path d="M111.004 69.3984V91.6056" stroke="#263238" stroke-width="0.1932" stroke-linecap="round" stroke-linejoin="round"/>
<path d="M110.735 83.934C112.37 83.934 113.696 82.6083 113.696 80.9729C113.696 79.3375 112.37 78.0117 110.735 78.0117C109.099 78.0117 107.773 79.3375 107.773 80.9729C107.773 82.6083 109.099 83.934 110.735 83.934Z" fill="#263238" stroke="#263238" stroke-width="0.1932" stroke-linecap="round" stroke-linejoin="round"/>
<path d="M112.214 80.9722C112.214 80.679 112.127 80.3924 111.964 80.1486C111.801 79.9048 111.569 79.7149 111.298 79.6028C111.028 79.4907 110.729 79.4615 110.442 79.5189C110.154 79.5763 109.89 79.7178 109.683 79.9253C109.476 80.1329 109.335 80.3972 109.278 80.6849C109.221 80.9726 109.251 81.2706 109.364 81.5414C109.476 81.8121 109.667 82.0434 109.911 82.2059C110.155 82.3684 110.442 82.4548 110.735 82.4543C110.929 82.4543 111.122 82.4159 111.302 82.3414C111.481 82.2669 111.644 82.1577 111.782 82.02C111.919 81.8824 112.028 81.719 112.102 81.5392C112.176 81.3594 112.214 81.1667 112.214 80.9722Z" fill="white" stroke="#263238" stroke-width="0.1932" stroke-linecap="round" stroke-linejoin="round"/>
<path d="M120.694 82.4524C121.511 82.4524 122.173 81.7902 122.173 80.9733C122.173 80.1564 121.511 79.4941 120.694 79.4941C119.877 79.4941 119.215 80.1564 119.215 80.9733C119.215 81.7902 119.877 82.4524 120.694 82.4524Z" fill="#555555"/>
<path d="M104.947 80.2988V86.2211H102.688C101.663 84.4184 101.144 82.3722 101.186 80.2988H104.947Z" fill="#263238" stroke="#263238" stroke-width="0.1932" stroke-linecap="round" stroke-linejoin="round"/>
<path d="M112.672 119.828V137.31" stroke="#263238" stroke-width="0.579602" stroke-linecap="round" stroke-linejoin="round"/>
<path d="M112.667 131.916C115.149 131.916 117.162 129.903 117.162 127.421C117.162 124.938 115.149 122.926 112.667 122.926C110.184 122.926 108.172 124.938 108.172 127.421C108.172 129.903 110.184 131.916 112.667 131.916Z" fill="white" stroke="#263238" stroke-width="0.1932" stroke-linecap="round" stroke-linejoin="round"/>
<path d="M112.67 138.57C113.862 138.57 114.828 137.604 114.828 136.412C114.828 135.22 113.862 134.254 112.67 134.254C111.478 134.254 110.512 135.22 110.512 136.412C110.512 137.604 111.478 138.57 112.67 138.57Z" fill="white" stroke="#263238" stroke-width="0.1932" stroke-linecap="round" stroke-linejoin="round"/>
<path d="M128.768 99.6206L123.804 114.415C122.42 118.536 118.224 121.35 113.467 121.35H111.865C107.108 121.35 102.912 118.536 101.531 114.415L96.5638 99.6206C95.8099 97.3731 97.6689 95.1055 100.262 95.1055H125.07C127.666 95.1055 129.522 97.3731 128.768 99.6206Z" fill="white" stroke="#263238" stroke-width="0.1932" stroke-linecap="round" stroke-linejoin="round"/>
<path d="M126.693 101.006C126.092 100.842 125.451 100.914 124.901 101.205C124.35 101.497 123.931 101.988 123.729 102.577L119.718 114.295C119.522 114.866 119.545 115.489 119.781 116.045C120.016 116.6 120.449 117.049 120.995 117.305L121.859 117.717C122.722 116.759 123.381 115.635 123.795 114.413L128.158 101.409L126.693 101.006Z" fill="white" stroke="#263238" stroke-width="0.1932" stroke-linecap="round" stroke-linejoin="round"/>
<path d="M101.484 102.577C101.282 101.988 100.864 101.497 100.313 101.205C99.7625 100.914 99.1215 100.842 98.5203 101.006L97.1562 101.377L101.533 114.413C101.94 115.618 102.586 116.728 103.433 117.677L104.218 117.305C104.763 117.047 105.193 116.598 105.427 116.043C105.661 115.487 105.682 114.865 105.487 114.295L101.484 102.577Z" fill="white" stroke="#263238" stroke-width="0.1932" stroke-linecap="round" stroke-linejoin="round"/>
<path d="M120.45 95.1055C120.391 95.6519 120.132 96.1573 119.723 96.5243C119.314 96.8914 118.784 97.0943 118.234 97.094H106.724C106.174 97.0943 105.644 96.8914 105.235 96.5243C104.826 96.1573 104.567 95.6519 104.508 95.1055H120.45Z" fill="white" stroke="#263238" stroke-width="0.1932" stroke-linecap="round" stroke-linejoin="round"/>
<path d="M112.684 121.266V97.0938" stroke="#263238" stroke-width="0.1932" stroke-linecap="round" stroke-linejoin="round"/>
<path d="M119.219 99.9707H106.12C105.316 99.9707 104.664 100.623 104.664 101.427V107.395C104.664 108.199 105.316 108.851 106.12 108.851H119.219C120.024 108.851 120.676 108.199 120.676 107.395V101.427C120.676 100.623 120.024 99.9707 119.219 99.9707Z" fill="#555555" stroke="#263238" stroke-width="0.1932" stroke-linecap="round" stroke-linejoin="round"/>
<path d="M110.612 101.1C111.012 101.1 111.188 101.341 111.188 101.738V103.033C111.188 103.428 111.006 103.669 110.612 103.669H110.008V101.1H110.612ZM110.612 103.402C110.819 103.402 110.917 103.272 110.917 103.036V101.715C110.917 101.479 110.819 101.353 110.609 101.353H110.301V103.402H110.612Z" fill="#263238"/>
<path d="M111.749 103.151L111.649 103.669H111.387L111.879 101.1H112.293L112.785 103.669H112.498L112.4 103.151H111.749ZM111.787 102.907H112.362L112.074 101.422L111.787 102.907Z" fill="#263238"/>
<path d="M113.237 103.669V101.367H112.762V101.105H113.993V101.367H113.519V103.669H113.237Z" fill="#263238"/>
<path d="M114.342 103.151L114.241 103.669H113.977L114.469 101.1H114.886L115.378 103.669H115.09L114.992 103.151H114.342ZM114.379 102.907H114.955L114.667 101.422L114.379 102.907Z" fill="#263238"/>
<path d="M106.989 105.772V106.028H106.35V106.944H107.121V107.203H106.062V104.633H107.121V104.895H106.35V105.772H106.989Z" fill="#263238"/>
<path d="M108.035 106.095L107.606 107.203H107.336L107.854 105.879L107.368 104.633H107.655L108.05 105.66L108.45 104.633H108.72L108.248 105.87L108.763 107.194H108.461L108.035 106.095Z" fill="#263238"/>
<path d="M109.363 107.203V104.901H108.891V104.639H110.119V104.901H109.647V107.203H109.363Z" fill="#263238"/>
<path d="M110.886 104.633C111.289 104.633 111.462 104.84 111.462 105.208V105.418C111.479 105.53 111.456 105.644 111.398 105.741C111.339 105.838 111.249 105.911 111.142 105.948C111.378 106.017 111.465 106.207 111.465 106.483V106.883C111.455 106.989 111.473 107.095 111.516 107.191H111.229C111.19 107.092 111.174 106.986 111.183 106.88V106.475C111.183 106.187 111.044 106.095 110.806 106.095H110.604V107.191H110.316V104.633H110.886ZM110.811 105.844C111.039 105.844 111.177 105.772 111.177 105.493V105.246C111.177 105.016 111.091 104.895 110.889 104.895H110.601V105.844H110.811Z" fill="#263238"/>
<path d="M112.05 106.685L111.952 107.203H111.688L112.18 104.633H112.594L113.086 107.203H112.798L112.698 106.685H112.05ZM112.088 106.44H112.663L112.375 104.955L112.088 106.44Z" fill="#263238"/>
<path d="M114.444 105.255V105.485H114.171V105.241C114.171 105.007 114.081 104.869 113.883 104.869C113.684 104.869 113.581 105.007 113.581 105.241V106.599C113.581 106.829 113.676 106.97 113.883 106.97C114.09 106.97 114.171 106.829 114.171 106.599V106.265H114.444V106.584C114.444 106.973 114.26 107.229 113.869 107.229C113.477 107.229 113.293 106.973 113.293 106.584V105.255C113.293 104.864 113.477 104.607 113.869 104.607C114.26 104.607 114.444 104.864 114.444 105.255Z" fill="#263238"/>
<path d="M115.073 107.203V104.901H114.602V104.639H115.83V104.901H115.358V107.203H115.073Z" fill="#263238"/>
<path d="M116.311 104.633V107.203H116.023V104.633H116.311Z" fill="#263238"/>
<path d="M116.582 105.255C116.582 104.861 116.775 104.607 117.158 104.607C117.54 104.607 117.733 104.861 117.733 105.255V106.584C117.733 106.973 117.54 107.229 117.158 107.229C116.775 107.229 116.582 106.973 116.582 106.584V105.255ZM116.87 106.599C116.87 106.832 116.968 106.97 117.175 106.97C117.382 106.97 117.48 106.832 117.48 106.599V105.241C117.48 105.007 117.385 104.869 117.175 104.869C116.965 104.869 116.87 105.007 116.87 105.241V106.599Z" fill="#263238"/>
<path d="M118.29 107.203H118.031V104.633H118.397L118.99 106.492V104.633H119.243V107.203H118.955L118.299 105.125L118.29 107.203Z" fill="#263238"/>
<path d="M112.672 113.352C113.626 113.352 114.399 112.579 114.399 111.625C114.399 110.671 113.626 109.898 112.672 109.898C111.718 109.898 110.945 110.671 110.945 111.625C110.945 112.579 111.718 113.352 112.672 113.352Z" fill="#263238" stroke="#263238" stroke-width="0.1932" stroke-linecap="round" stroke-linejoin="round"/>
<path d="M112.669 112.345C113.066 112.345 113.388 112.023 113.388 111.626C113.388 111.228 113.066 110.906 112.669 110.906C112.271 110.906 111.949 111.228 111.949 111.626C111.949 112.023 112.271 112.345 112.669 112.345Z" fill="#555555"/>
<path d="M182.693 64.2227H142.886C140.819 64.2227 139.145 65.8976 139.145 67.9637V95.4226C139.145 97.4887 140.819 99.1636 142.886 99.1636H182.693C184.759 99.1636 186.434 97.4887 186.434 95.4226V67.9637C186.434 65.8976 184.759 64.2227 182.693 64.2227Z" fill="#263238" stroke="#263238" stroke-width="0.1932" stroke-linecap="round" stroke-linejoin="round"/>
<path d="M181.778 66.3555H143.801C142.33 66.3555 141.137 67.5485 141.137 69.0202V94.3641C141.137 95.8358 142.33 97.0288 143.801 97.0288H181.778C183.25 97.0288 184.443 95.8358 184.443 94.3641V69.0202C184.443 67.5485 183.25 66.3555 181.778 66.3555Z" fill="white" stroke="#263238" stroke-width="0.1932" stroke-linecap="round" stroke-linejoin="round"/>
<path d="M181.075 71.4805H146.738V72.7323H181.075V71.4805Z" fill="#E0E0E0"/>
<path d="M181.075 74.4277H146.738V75.6795H181.075V74.4277Z" fill="#E0E0E0"/>
<path d="M181.075 77.373H146.738V78.6248H181.075V77.373Z" fill="#E0E0E0"/>
<path d="M181.075 80.3242H146.738V81.576H181.075V80.3242Z" fill="#E0E0E0"/>
<path d="M181.075 83.2695H146.738V84.5213H181.075V83.2695Z" fill="#E0E0E0"/>
<path d="M181.075 86.2168H146.738V87.4686H181.075V86.2168Z" fill="#E0E0E0"/>
<path d="M181.075 89.1641H146.738V90.4159H181.075V89.1641Z" fill="#E0E0E0"/>
<path d="M150.301 78.8262H146.957V92.6391H150.301V78.8262Z" fill="#263238"/>
<path d="M155.418 82.6992H152.074V92.6388H155.418V82.6992Z" fill="#555555"/>
<path d="M160.531 80.293H157.188V92.6412H160.531V80.293Z" fill="#263238"/>
<path d="M165.649 85.2852H162.305V92.6434H165.649V85.2852Z" fill="#555555"/>
<path d="M170.762 80.5508H167.418V92.6429H170.762V80.5508Z" fill="#263238"/>
<path d="M175.879 77.3652H172.535V92.64H175.879V77.3652Z" fill="#555555"/>
<path d="M180.992 75.3848H177.648V92.6394H180.992V75.3848Z" fill="#263238"/>
<path d="M144.207 71.7129H145.349" stroke="#263238" stroke-width="0.1932" stroke-linecap="round" stroke-linejoin="round"/>
<path d="M144.207 73.3535H145.349" stroke="#263238" stroke-width="0.1932" stroke-linecap="round" stroke-linejoin="round"/>
<path d="M144.207 74.9961H145.349" stroke="#263238" stroke-width="0.1932" stroke-linecap="round" stroke-linejoin="round"/>
<path d="M144.207 76.6406H145.349" stroke="#263238" stroke-width="0.1932" stroke-linecap="round" stroke-linejoin="round"/>
<path d="M144.207 78.2832H145.349" stroke="#263238" stroke-width="0.1932" stroke-linecap="round" stroke-linejoin="round"/>
<path d="M144.207 79.9238H145.349" stroke="#263238" stroke-width="0.1932" stroke-linecap="round" stroke-linejoin="round"/>
<path d="M144.207 81.5664H145.349" stroke="#263238" stroke-width="0.1932" stroke-linecap="round" stroke-linejoin="round"/>
<path d="M144.207 83.209H145.349" stroke="#263238" stroke-width="0.1932" stroke-linecap="round" stroke-linejoin="round"/>
<path d="M144.207 84.8535H145.349" stroke="#263238" stroke-width="0.1932" stroke-linecap="round" stroke-linejoin="round"/>
<path d="M144.207 86.4922H145.349" stroke="#263238" stroke-width="0.1932" stroke-linecap="round" stroke-linejoin="round"/>
<path d="M144.207 88.1367H145.349" stroke="#263238" stroke-width="0.1932" stroke-linecap="round" stroke-linejoin="round"/>
<path d="M144.207 89.7793H145.349" stroke="#263238" stroke-width="0.1932" stroke-linecap="round" stroke-linejoin="round"/>
<path d="M144.207 91.4219H145.349" stroke="#263238" stroke-width="0.1932" stroke-linecap="round" stroke-linejoin="round"/>
<path d="M144.207 93.0625H145.349" stroke="#263238" stroke-width="0.1932" stroke-linecap="round" stroke-linejoin="round"/>
<path d="M181.086 93.5352V94.6776" stroke="#263238" stroke-width="0.1932" stroke-linecap="round" stroke-linejoin="round"/>
<path d="M178.359 93.5352V94.6776" stroke="#263238" stroke-width="0.1932" stroke-linecap="round" stroke-linejoin="round"/>
<path d="M175.629 93.5352V94.6776" stroke="#263238" stroke-width="0.1932" stroke-linecap="round" stroke-linejoin="round"/>
<path d="M172.902 93.5352V94.6776" stroke="#263238" stroke-width="0.1932" stroke-linecap="round" stroke-linejoin="round"/>
<path d="M170.18 93.5352V94.6776" stroke="#263238" stroke-width="0.1932" stroke-linecap="round" stroke-linejoin="round"/>
<path d="M167.449 93.5352V94.6776" stroke="#263238" stroke-width="0.1932" stroke-linecap="round" stroke-linejoin="round"/>
<path d="M164.723 93.5352V94.6776" stroke="#263238" stroke-width="0.1932" stroke-linecap="round" stroke-linejoin="round"/>
<path d="M161.996 93.5352V94.6776" stroke="#263238" stroke-width="0.1932" stroke-linecap="round" stroke-linejoin="round"/>
<path d="M159.266 93.5352V94.6776" stroke="#263238" stroke-width="0.1932" stroke-linecap="round" stroke-linejoin="round"/>
<path d="M156.543 93.5352V94.6776" stroke="#263238" stroke-width="0.1932" stroke-linecap="round" stroke-linejoin="round"/>
<path d="M153.812 93.5352V94.6776" stroke="#263238" stroke-width="0.1932" stroke-linecap="round" stroke-linejoin="round"/>
<path d="M151.09 93.5352V94.6776" stroke="#263238" stroke-width="0.1932" stroke-linecap="round" stroke-linejoin="round"/>
<path d="M148.359 93.5352V94.6776" stroke="#263238" stroke-width="0.1932" stroke-linecap="round" stroke-linejoin="round"/>
<path d="M145.637 93.5352V94.6776" stroke="#263238" stroke-width="0.1932" stroke-linecap="round" stroke-linejoin="round"/>
<path d="M166.473 68.6289H158.824V69.8836H166.473V68.6289Z" fill="#263238"/>
<path d="M182.693 103.402H142.886C140.819 103.402 139.145 105.077 139.145 107.143V134.602C139.145 136.668 140.819 138.343 142.886 138.343H182.693C184.759 138.343 186.434 136.668 186.434 134.602V107.143C186.434 105.077 184.759 103.402 182.693 103.402Z" fill="#263238" stroke="#263238" stroke-width="0.1932" stroke-linecap="round" stroke-linejoin="round"/>
<path d="M181.778 105.537H143.801C142.33 105.537 141.137 106.73 141.137 108.202V133.546C141.137 135.017 142.33 136.21 143.801 136.21H181.778C183.25 136.21 184.443 135.017 184.443 133.546V108.202C184.443 106.73 183.25 105.537 181.778 105.537Z" fill="white" stroke="#263238" stroke-width="0.1932" stroke-linecap="round" stroke-linejoin="round"/>
<path d="M155.521 133.244C152.626 133.244 149.834 132.167 147.69 130.222C145.545 128.277 144.201 125.604 143.919 122.723C143.637 119.841 144.437 116.958 146.163 114.634C147.889 112.311 150.419 110.712 153.259 110.15L153.811 112.976C152.631 113.208 151.511 113.679 150.52 114.362C149.53 115.044 148.69 115.922 148.053 116.943C147.416 117.963 146.996 119.103 146.818 120.293C146.64 121.482 146.708 122.696 147.019 123.858C147.329 125.02 147.875 126.105 148.622 127.048C149.37 127.99 150.303 128.769 151.363 129.336C152.424 129.902 153.59 130.245 154.789 130.343C155.988 130.44 157.194 130.291 158.332 129.903L159.256 132.628C158.053 133.036 156.791 133.244 155.521 133.244Z" fill="#263238"/>
<path d="M163.776 118.603C163.06 116.635 161.665 114.987 159.842 113.956C158.02 112.924 155.889 112.577 153.833 112.977L153.258 110.151C155.991 109.619 158.824 110.08 161.248 111.452C163.671 112.824 165.525 115.016 166.475 117.633L163.776 118.603Z" fill="#555555"/>
<path d="M159.264 132.633L158.34 129.908C159.445 129.532 160.464 128.939 161.338 128.165C162.211 127.391 162.922 126.45 163.428 125.398C163.934 124.346 164.226 123.203 164.285 122.038C164.345 120.872 164.172 119.706 163.776 118.607L166.484 117.629C167.009 119.087 167.238 120.636 167.159 122.184C167.079 123.732 166.692 125.248 166.02 126.645C165.348 128.042 164.404 129.291 163.244 130.319C162.084 131.347 160.731 132.134 159.264 132.633Z" fill="#A8A8A8"/>
<path d="M174.32 112.605H171.086V115.84H174.32V112.605Z" fill="#263238"/>
<path d="M174.32 120.521H171.086V123.756H174.32V120.521Z" fill="#555555"/>
<path d="M174.32 128.441H171.086V131.676H174.32V128.441Z" fill="#A8A8A8"/>
<path d="M176.02 114.309H181.47" stroke="#263238" stroke-width="0.1932" stroke-linecap="round" stroke-linejoin="round"/>
<path d="M176.02 121.969H181.47" stroke="#263238" stroke-width="0.1932" stroke-linecap="round" stroke-linejoin="round"/>
<path d="M152.523 121.799H157.974" stroke="#263238" stroke-width="0.1932" stroke-linecap="round" stroke-linejoin="round"/>
<path d="M176.02 129.973H181.47" stroke="#263238" stroke-width="0.1932" stroke-linecap="round" stroke-linejoin="round"/>
<path d="M19.7372 157.465H13.4062" stroke="#263238" stroke-width="0.1449" stroke-miterlimit="10" stroke-linecap="round"/>
<path d="M180.022 157.465H23.1875" stroke="#263238" stroke-width="0.1449" stroke-miterlimit="10" stroke-linecap="round"/>
<path d="M192.111 157.465H182.039" stroke="#263238" stroke-width="0.1449" stroke-miterlimit="10" stroke-linecap="round"/>
</svg>
