<svg width="193" height="193" viewBox="0 0 193 193" fill="none" xmlns="http://www.w3.org/2000/svg">
<circle cx="96.5" cy="96.5" r="96.5" fill="#FED631"/>
<path d="M172.761 157.916H160.043V158.012H172.761V157.916Z" fill="#EBEBEB"/>
<path d="M127.189 158.961H123.852V159.057H127.189V158.961Z" fill="#EBEBEB"/>
<path d="M159.658 154.352H152.289V154.448H159.658V154.352Z" fill="#EBEBEB"/>
<path d="M36.7295 154.998H20.1445V155.094H36.7295V154.998Z" fill="#EBEBEB"/>
<path d="M42.5831 154.996H40.1523V155.092H42.5831V154.996Z" fill="#EBEBEB"/>
<path d="M86.4575 156.617H50.4844V156.713H86.4575V156.617Z" fill="#EBEBEB"/>
<path d="M91.5462 134.611H17.3958C16.8142 134.611 16.2565 134.38 15.8453 133.969C15.4341 133.557 15.2031 133 15.2031 132.418V28.1891C15.2082 27.6109 15.4414 27.0581 15.8521 26.651C16.2627 26.244 16.8176 26.0156 17.3958 26.0156H91.5462C91.8341 26.0156 92.1192 26.0723 92.3853 26.1825C92.6513 26.2927 92.893 26.4542 93.0966 26.6578C93.3002 26.8614 93.4617 27.1032 93.5719 27.3692C93.6821 27.6352 93.7388 27.9203 93.7388 28.2083V132.418C93.7388 132.706 93.6821 132.991 93.5719 133.257C93.4617 133.523 93.3002 133.765 93.0966 133.969C92.893 134.172 92.6513 134.334 92.3853 134.444C92.1192 134.554 91.8341 134.611 91.5462 134.611ZM17.3958 26.0924C16.84 26.0934 16.3073 26.3147 15.9143 26.7076C15.5214 27.1006 15.3001 27.6333 15.2991 28.1891V132.418C15.3001 132.974 15.5214 133.507 15.9143 133.9C16.3073 134.293 16.84 134.514 17.3958 134.515H91.5462C92.1019 134.514 92.6346 134.293 93.0276 133.9C93.4206 133.507 93.6418 132.974 93.6428 132.418V28.1891C93.6418 27.6333 93.4206 27.1006 93.0276 26.7076C92.6346 26.3147 92.1019 26.0934 91.5462 26.0924H17.3958Z" fill="#EBEBEB"/>
<path d="M174.605 134.611H100.454C99.8728 134.611 99.3151 134.38 98.9039 133.969C98.4927 133.557 98.2617 133 98.2617 132.418V28.1891C98.2668 27.6109 98.5 27.0581 98.9107 26.651C99.3213 26.244 99.8761 26.0156 100.454 26.0156H174.605C175.186 26.0156 175.744 26.2466 176.155 26.6578C176.566 27.069 176.797 27.6267 176.797 28.2083V132.418C176.797 133 176.566 133.557 176.155 133.969C175.744 134.38 175.186 134.611 174.605 134.611ZM100.454 26.0924C99.8986 26.0934 99.3659 26.3147 98.9729 26.7076C98.58 27.1006 98.3587 27.6333 98.3577 28.1891V132.418C98.3587 132.974 98.58 133.507 98.9729 133.9C99.3659 134.293 99.8986 134.514 100.454 134.515H174.605C175.161 134.514 175.693 134.293 176.086 133.9C176.479 133.507 176.7 132.974 176.701 132.418V28.1891C176.7 27.6333 176.479 27.1006 176.086 26.7076C175.693 26.3147 175.161 26.0934 174.605 26.0924H100.454Z" fill="#EBEBEB"/>
<path d="M192 151.736H0V151.832H192V151.736Z" fill="#EBEBEB"/>
<path d="M65.128 52.6191H37.2266V87.974H65.128V52.6191Z" fill="#F0F0F0"/>
<path d="M62.3528 56.1367H40.0078V84.4529H62.3528V56.1367Z" fill="#FAFAFA"/>
<path d="M35.0724 87.9746H37.2305L37.2305 52.6197H35.0724L35.0724 87.9746Z" fill="#E0E0E0"/>
<path d="M54.4328 70.7333C55.632 71.9325 56.3057 73.559 56.3057 75.2549C56.3057 76.9509 55.632 78.5773 54.4328 79.7765C53.2336 80.9757 51.6071 81.6494 49.9112 81.6494C48.2153 81.6494 46.5888 80.9757 45.3896 79.7765C42.8897 77.2767 51.9329 68.2335 54.4328 70.7333Z" fill="#F5F5F5"/>
<path d="M47.7549 70.2376C47.2877 69.7704 46.9171 69.2158 46.6642 68.6053C46.4114 67.9949 46.2813 67.3406 46.2812 66.6799C46.2812 66.0191 46.4114 65.3649 46.6642 64.7544C46.9171 64.144 47.2877 63.5893 47.7549 63.1221C48.2221 62.6549 48.7768 62.2843 49.3872 62.0314C49.9977 61.7786 50.6519 61.6484 51.3127 61.6484C51.9734 61.6484 52.6277 61.7786 53.2381 62.0314C53.8486 62.2843 54.4032 62.6549 54.8704 63.1221C56.8327 65.0882 49.721 72.2037 47.7549 70.2376Z" fill="#EBEBEB"/>
<path d="M149.943 102.324H146.629V151.968H149.943V102.324Z" fill="#F0F0F0"/>
<path d="M151.388 102.324H148.504V151.968H151.388V102.324Z" fill="#E6E6E6"/>
<path d="M116.533 102.324H113.219V151.968H116.533V102.324Z" fill="#F0F0F0"/>
<path d="M117.974 102.324H115.09V151.968H117.974V102.324Z" fill="#E6E6E6"/>
<path d="M162.509 102.324H159.195V151.968H162.509V102.324Z" fill="#F0F0F0"/>
<path d="M163.95 102.324H161.066V151.968H163.95V102.324Z" fill="#E6E6E6"/>
<path d="M129.099 102.324H125.785V151.968H129.099V102.324Z" fill="#F0F0F0"/>
<path d="M163.953 99.1367H113.223V103.115H163.953V99.1367Z" fill="#F0F0F0"/>
<path d="M127.657 99.1367H113.223V103.115H127.657V99.1367Z" fill="#E0E0E0"/>
<path d="M130.54 102.324H127.656V151.968H130.54V102.324Z" fill="#E6E6E6"/>
<path d="M47.0636 99.3906H25.8438V151.968H47.0636V99.3906Z" fill="#E6E6E6"/>
<path d="M86.7587 99.3906H42.4336V151.968H86.7587V99.3906Z" fill="#F5F5F5"/>
<path d="M71.6547 102.709H78.8931C79.6495 102.709 80.3985 102.858 81.0973 103.147C81.7962 103.437 82.4311 103.861 82.966 104.396C83.5009 104.931 83.9251 105.566 84.2146 106.265C84.5041 106.964 84.6531 107.713 84.6531 108.469V149.357H65.9023V108.461C65.9044 106.936 66.5111 105.474 67.5894 104.396C68.6677 103.318 70.1297 102.711 71.6547 102.709Z" fill="#EBEBEB"/>
<path d="M50.725 102.709H57.9826C58.739 102.709 59.488 102.858 60.1868 103.147C60.8857 103.437 61.5206 103.861 62.0555 104.396C62.5904 104.931 63.0147 105.566 63.3041 106.265C63.5936 106.964 63.7426 107.713 63.7426 108.469V149.357H44.9727V108.461C44.9747 106.936 45.5814 105.474 46.6597 104.396C47.738 103.318 49.2 102.711 50.725 102.709Z" fill="#EBEBEB"/>
<path d="M62.0298 125.679C62.0074 126.041 61.8793 126.389 61.6615 126.68C61.4437 126.971 61.1456 127.192 60.8039 127.315C60.4623 127.439 60.0919 127.459 59.7386 127.375C59.3852 127.291 59.0642 127.105 58.8152 126.84C58.5661 126.576 58.3998 126.244 58.3368 125.887C58.2738 125.529 58.3168 125.16 58.4605 124.827C58.6043 124.493 58.8424 124.209 59.1457 124.009C59.449 123.809 59.8041 123.702 60.1674 123.701C60.4196 123.709 60.6678 123.766 60.8979 123.869C61.128 123.973 61.3355 124.12 61.5085 124.304C61.6814 124.488 61.8165 124.704 61.906 124.94C61.9954 125.175 62.0375 125.427 62.0298 125.679Z" fill="#E0E0E0"/>
<path d="M71.6197 125.679C71.5972 126.042 71.4691 126.39 71.2511 126.681C71.0331 126.971 70.7348 127.192 70.3929 127.315C70.051 127.439 69.6805 127.459 69.327 127.375C68.9736 127.29 68.6526 127.104 68.4037 126.839C68.1548 126.574 67.9888 126.242 67.9263 125.884C67.8637 125.526 67.9072 125.158 68.0515 124.824C68.1958 124.491 68.4346 124.206 68.7384 124.007C69.0421 123.807 69.3977 123.701 69.7611 123.701C70.2697 123.717 70.7512 123.935 71.0997 124.305C71.4482 124.676 71.6352 125.17 71.6197 125.679Z" fill="#E0E0E0"/>
<path d="M96.0006 168.868C137.12 168.868 170.454 166.921 170.454 164.521C170.454 162.12 137.12 160.174 96.0006 160.174C54.881 160.174 21.5469 162.12 21.5469 164.521C21.5469 166.921 54.881 168.868 96.0006 168.868Z" fill="#F5F5F5"/>
<path d="M112.326 154.037C112.291 148.542 110.659 145.17 109.292 143.312C108.517 142.185 107.501 141.246 106.316 140.562L106.489 140.201C106.551 140.232 112.66 143.273 112.729 154.025L112.326 154.037Z" fill="#4E4F52"/>
<path d="M113.914 153.065L113.53 153.03C115.105 135.197 103.162 128.93 103.059 128.869L103.239 128.512C103.347 128.573 115.516 134.963 113.914 153.065Z" fill="#4E4F52"/>
<path d="M115.26 153.73C114.834 143.573 115.909 132.283 115.921 132.168L116.305 132.206C116.305 132.322 115.222 143.584 115.648 153.71L115.26 153.73Z" fill="#4E4F52"/>
<path d="M116.053 154.322C116.748 149.99 118.449 147.529 119.751 146.227C120.501 145.432 121.42 144.814 122.439 144.419L122.347 144.111C122.293 144.111 117.105 145.778 115.738 154.272L116.053 154.322Z" fill="#4E4F52"/>
<g opacity="0.3">
<path d="M112.33 154.035C112.295 148.54 110.663 145.168 109.296 143.31C108.521 142.183 107.505 141.244 106.32 140.56L106.493 140.199C106.555 140.23 112.664 143.271 112.733 154.023L112.33 154.035Z" fill="white"/>
<path d="M113.914 153.065L113.53 153.03C115.105 135.197 103.162 128.93 103.059 128.869L103.239 128.512C103.347 128.573 115.516 134.963 113.914 153.065Z" fill="white"/>
<path d="M115.26 153.73C114.834 143.573 115.909 132.283 115.921 132.168L116.305 132.206C116.305 132.322 115.222 143.584 115.648 153.71L115.26 153.73Z" fill="white"/>
<path d="M116.057 154.32C116.752 149.988 118.453 147.527 119.755 146.225C120.505 145.43 121.424 144.812 122.443 144.417L122.351 144.109C122.297 144.109 117.109 145.776 115.742 154.27L116.057 154.32Z" fill="white"/>
</g>
<path d="M104.385 129.312C104.385 129.312 101.732 122.557 97.9185 127.576C94.8235 131.65 97.9185 136.112 97.9185 136.112C97.9185 136.112 114.519 136.531 111.551 130.195C109.711 126.278 104.385 129.312 104.385 129.312Z" fill="#4E4F52"/>
<g opacity="0.5">
<path d="M103.844 129.618C103.844 129.618 98.9523 128.85 98.9254 129.234C98.8986 129.618 103.215 129.791 102.812 130.325C102.408 130.859 98.2496 131.32 98.2035 131.83C98.1574 132.341 102.101 131.097 101.924 131.55C101.748 132.003 99.1136 134.119 99.0714 134.68C99.0291 135.24 101.544 132.291 101.844 132.625C102.143 132.959 102.297 135.632 102.55 135.018C102.804 134.403 102.497 131.707 103.103 131.178C103.71 130.648 107.27 134.015 108.076 133.562C108.883 133.109 104.129 131.231 103.844 129.618Z" fill="white"/>
<path d="M106.402 129.887C106.402 129.887 110.473 129.94 110.596 131.039C110.719 132.137 109.824 130.973 106.402 129.887Z" fill="white"/>
</g>
<path d="M105.831 153.7L107.72 163.964C107.816 164.488 108.093 164.961 108.502 165.302C108.911 165.643 109.426 165.83 109.959 165.83H117.313C117.845 165.83 118.361 165.643 118.77 165.302C119.179 164.961 119.455 164.488 119.551 163.964L121.444 153.7C121.479 153.509 121.472 153.313 121.422 153.125C121.373 152.937 121.283 152.763 121.159 152.614C121.035 152.465 120.88 152.345 120.704 152.262C120.528 152.18 120.337 152.137 120.143 152.137H107.137C106.942 152.136 106.75 152.178 106.573 152.26C106.397 152.342 106.241 152.461 106.116 152.611C105.991 152.76 105.901 152.935 105.852 153.123C105.802 153.312 105.795 153.508 105.831 153.7Z" fill="#4E4F52"/>
<path d="M104.68 141.153C104.68 141.153 100.118 137.286 99.3037 142.417C98.6471 146.579 102.621 148.614 102.621 148.614C102.621 148.614 114.837 142.47 110.209 139.014C107.368 136.887 104.68 141.153 104.68 141.153Z" fill="#4E4F52"/>
<path opacity="0.2" d="M104.68 141.153C104.68 141.153 100.118 137.286 99.3037 142.417C98.6471 146.579 102.621 148.614 102.621 148.614C102.621 148.614 114.837 142.47 110.209 139.014C107.368 136.887 104.68 141.153 104.68 141.153Z" fill="black"/>
<g opacity="0.5">
<path d="M104.411 141.6C104.411 141.6 100.571 142.955 100.694 143.243C100.817 143.531 104.024 141.976 103.939 142.521C103.855 143.066 101.017 145.021 101.186 145.409C101.355 145.797 103.728 143.358 103.778 143.754C103.828 144.149 102.737 146.714 102.925 147.141C103.113 147.567 103.789 144.453 104.135 144.568C104.481 144.683 105.64 146.572 105.583 146.027C105.525 145.482 104.25 143.646 104.488 143.028C104.726 142.41 108.62 143.466 109.027 142.821C109.434 142.176 105.241 142.648 104.411 141.6Z" fill="white"/>
<path d="M106.367 140.798C106.367 140.798 109.343 139.262 109.858 139.995C110.372 140.729 109.286 140.253 106.367 140.798Z" fill="white"/>
</g>
<path d="M120.373 130.693C120.373 130.693 125.668 126.201 126.613 132.164C127.381 137.002 122.754 139.364 122.754 139.364C122.754 139.364 108.546 132.202 113.922 128.197C117.247 125.736 120.373 130.693 120.373 130.693Z" fill="#4E4F52"/>
<path opacity="0.3" d="M120.373 130.693C120.373 130.693 125.668 126.201 126.613 132.164C127.381 137.002 122.754 139.364 122.754 139.364C122.754 139.364 108.546 132.202 113.922 128.197C117.247 125.736 120.373 130.693 120.373 130.693Z" fill="black"/>
<g opacity="0.5">
<path d="M120.686 131.23C120.686 131.23 125.156 132.809 125.006 133.15C124.856 133.492 121.135 131.676 121.231 132.31C121.327 132.943 124.63 135.213 124.434 135.666C124.238 136.119 121.481 133.281 121.423 133.746C121.366 134.21 122.629 137.202 122.41 137.682C122.191 138.162 121.408 134.544 121.005 134.69C120.602 134.836 119.258 137.021 119.323 136.388C119.388 135.754 120.859 133.619 120.594 132.901C120.329 132.183 115.794 133.412 115.318 132.659C114.842 131.906 119.718 132.429 120.686 131.23Z" fill="white"/>
<path d="M118.406 130.279C118.406 130.279 114.95 128.482 114.347 129.35C113.744 130.218 115.023 129.646 118.406 130.279Z" fill="white"/>
</g>
<path d="M123.481 144.287C123.481 144.287 127.052 140.623 128.158 144.928C129.053 148.422 125.827 150.477 125.827 150.477C125.827 150.477 114.929 146.207 118.593 142.889C120.847 140.854 123.481 144.287 123.481 144.287Z" fill="#4E4F52"/>
<path opacity="0.4" d="M123.481 144.287C123.481 144.287 127.052 140.623 128.158 144.928C129.053 148.422 125.827 150.477 125.827 150.477C125.827 150.477 114.929 146.207 118.593 142.889C120.847 140.854 123.481 144.287 123.481 144.287Z" fill="black"/>
<g opacity="0.5">
<path d="M123.742 144.633C123.742 144.633 127.125 145.478 127.04 145.735C126.956 145.992 124.103 144.921 124.214 145.382C124.326 145.842 126.902 147.275 126.795 147.616C126.687 147.958 124.464 146.08 124.456 146.415C124.448 146.749 125.577 148.857 125.451 149.233C125.324 149.609 124.498 147.002 124.214 147.136C123.93 147.271 123.093 148.968 123.097 148.5C123.101 148.031 124.041 146.361 123.792 145.854C123.542 145.347 120.305 146.56 119.906 146.042C119.506 145.524 123.116 145.593 123.742 144.633Z" fill="white"/>
<path d="M122.004 144.106C122.004 144.106 119.347 143.027 118.966 143.722C118.586 144.417 119.485 143.875 122.004 144.106Z" fill="white"/>
</g>
<path d="M146.483 104.881H119.1C118.787 104.887 118.476 104.825 118.188 104.701C117.9 104.578 117.642 104.394 117.431 104.162C117.22 103.931 117.061 103.657 116.964 103.359C116.867 103.061 116.834 102.746 116.869 102.435L118.343 85.5694C118.411 84.9064 118.719 84.291 119.209 83.8396C119.699 83.3882 120.338 83.132 121.005 83.1195H148.388C148.701 83.1138 149.013 83.175 149.301 83.2991C149.589 83.4232 149.848 83.6073 150.059 83.8391C150.27 84.0709 150.43 84.3451 150.527 84.6435C150.624 84.9419 150.657 85.2575 150.622 85.5694L149.144 102.431C149.077 103.094 148.77 103.71 148.279 104.162C147.789 104.613 147.15 104.869 146.483 104.881Z" fill="#263238"/>
<path d="M130.347 92.6395C130.224 93.8493 129.662 94.9721 128.766 95.7951C127.871 96.6182 126.705 97.0844 125.489 97.1054C124.917 97.1159 124.35 97.0044 123.824 96.7783C123.299 96.5522 122.828 96.2166 122.442 95.794C122.056 95.3714 121.765 94.8714 121.588 94.3275C121.411 93.7835 121.352 93.2081 121.415 92.6395C121.544 91.4322 122.108 90.3132 123.002 89.4919C123.896 88.6706 125.059 88.2032 126.273 88.1774L126.472 85.8926C124.636 85.9253 122.875 86.63 121.523 87.8732C120.17 89.1164 119.321 90.8121 119.134 92.6395C119.04 93.4976 119.129 94.366 119.396 95.187C119.663 96.008 120.102 96.7627 120.683 97.4012C121.264 98.0397 121.974 98.5472 122.766 98.8901C123.559 99.2331 124.415 99.4035 125.278 99.3902C127.115 99.3573 128.877 98.6522 130.229 97.4081C131.581 96.1641 132.431 94.4675 132.616 92.6395H130.347Z" fill="#4E4F52"/>
<path d="M133.43 91.6518C133.524 90.7937 133.435 89.9253 133.168 89.1043C132.901 88.2833 132.462 87.5286 131.881 86.8901C131.3 86.2516 130.59 85.7441 129.797 85.4011C129.005 85.0582 128.149 84.8878 127.286 84.9011L127.086 87.2051C127.658 87.1952 128.225 87.3071 128.75 87.5334C129.275 87.7598 129.746 88.0953 130.132 88.5178C130.517 88.9403 130.808 89.44 130.986 89.9837C131.163 90.5274 131.222 91.1026 131.16 91.671L133.43 91.6518Z" fill="#4E4F52"/>
<path opacity="0.7" d="M133.43 91.6518C133.524 90.7937 133.435 89.9253 133.168 89.1043C132.901 88.2833 132.462 87.5286 131.881 86.8901C131.3 86.2516 130.59 85.7441 129.797 85.4011C129.005 85.0582 128.149 84.8878 127.286 84.9011L127.086 87.2051C127.658 87.1952 128.225 87.3071 128.75 87.5334C129.275 87.7598 129.746 88.0953 130.132 88.5178C130.517 88.9403 130.808 89.44 130.986 89.9837C131.163 90.5274 131.222 91.1026 131.16 91.671L133.43 91.6518Z" fill="white"/>
<path d="M127.839 92.6385C127.783 93.1894 127.527 93.7007 127.119 94.0757C126.711 94.4507 126.181 94.6634 125.627 94.6737C125.367 94.678 125.108 94.6268 124.869 94.5235C124.63 94.4202 124.416 94.2673 124.24 94.0748C124.065 93.8823 123.932 93.6546 123.852 93.407C123.771 93.1593 123.744 92.8974 123.772 92.6385C123.829 92.0879 124.085 91.5771 124.492 91.2027C124.9 90.8284 125.431 90.6165 125.984 90.6071L126.072 89.5703C125.237 89.5858 124.436 89.9069 123.821 90.473C123.206 91.039 122.82 91.8108 122.735 92.6423C122.692 93.0331 122.733 93.4287 122.855 93.8026C122.976 94.1765 123.176 94.5202 123.441 94.8109C123.706 95.1015 124.03 95.3324 124.391 95.4882C124.752 95.644 125.142 95.721 125.535 95.7143C126.371 95.6998 127.173 95.3791 127.789 94.8129C128.404 94.2468 128.791 93.4745 128.876 92.6423L127.839 92.6385Z" fill="#4E4F52"/>
<path opacity="0.7" d="M127.839 92.6385C127.783 93.1894 127.527 93.7007 127.119 94.0757C126.711 94.4507 126.181 94.6634 125.627 94.6737C125.367 94.678 125.108 94.6268 124.869 94.5235C124.63 94.4202 124.416 94.2673 124.24 94.0748C124.065 93.8823 123.932 93.6546 123.852 93.407C123.771 93.1593 123.744 92.8974 123.772 92.6385C123.829 92.0879 124.085 91.5771 124.492 91.2027C124.9 90.8284 125.431 90.6165 125.984 90.6071L126.072 89.5703C125.237 89.5858 124.436 89.9069 123.821 90.473C123.206 91.039 122.82 91.8108 122.735 92.6423C122.692 93.0331 122.733 93.4287 122.855 93.8026C122.976 94.1765 123.176 94.5202 123.441 94.8109C123.706 95.1015 124.03 95.3324 124.391 95.4882C124.752 95.644 125.142 95.721 125.535 95.7143C126.371 95.6998 127.173 95.3791 127.789 94.8129C128.404 94.2468 128.791 93.4745 128.876 92.6423L127.839 92.6385Z" fill="white"/>
<path d="M129.239 92.1897C129.282 91.7985 129.241 91.4026 129.12 91.0284C128.998 90.6542 128.797 90.3103 128.532 90.0196C128.267 89.7289 127.943 89.4981 127.581 89.3426C127.22 89.187 126.829 89.1104 126.436 89.1177L126.332 90.1429C126.592 90.1387 126.85 90.1898 127.089 90.2929C127.328 90.3959 127.542 90.5485 127.717 90.7406C127.893 90.9327 128.025 91.1598 128.106 91.407C128.187 91.6542 128.215 91.9157 128.187 92.1743L129.239 92.1897Z" fill="#4E4F52"/>
<path d="M142.402 85.8913L142.202 88.1761C142.774 88.1657 143.341 88.2771 143.866 88.503C144.392 88.7289 144.863 89.0641 145.248 89.4863C145.634 89.9084 145.925 90.4079 146.102 90.9514C146.279 91.4949 146.339 92.0699 146.277 92.6382C146.154 93.8474 145.592 94.9697 144.698 95.7926C143.803 96.6156 142.638 97.0822 141.423 97.1041C140.851 97.1153 140.283 97.0043 139.757 96.7783C139.231 96.5524 138.76 96.2169 138.374 95.7941C137.988 95.3714 137.697 94.8711 137.521 94.3269C137.344 93.7827 137.285 93.2069 137.349 92.6382C137.465 91.4258 138.029 90.3003 138.931 89.4817L137.46 87.8689C136.096 89.1053 135.241 90.8057 135.064 92.6382C134.969 93.4964 135.059 94.3648 135.326 95.1857C135.593 96.0067 136.031 96.7615 136.612 97.4C137.194 98.0384 137.904 98.546 138.696 98.8889C139.488 99.2318 140.345 99.4023 141.208 99.3889C143.045 99.3553 144.806 98.6498 146.158 97.4059C147.51 96.1621 148.36 94.466 148.546 92.6382C148.64 91.7804 148.55 90.9124 148.283 90.0919C148.015 89.2714 147.577 88.5171 146.996 87.8791C146.415 87.241 145.705 86.7338 144.913 86.3911C144.121 86.0484 143.265 85.8781 142.402 85.8913Z" fill="#4E4F52"/>
<path opacity="0.7" d="M142.402 85.8913L142.202 88.1761C142.774 88.1657 143.341 88.2771 143.866 88.503C144.392 88.7289 144.863 89.0641 145.248 89.4863C145.634 89.9084 145.925 90.4079 146.102 90.9514C146.279 91.4949 146.339 92.0699 146.277 92.6382C146.154 93.8474 145.592 94.9697 144.698 95.7926C143.803 96.6156 142.638 97.0822 141.423 97.1041C140.851 97.1153 140.283 97.0043 139.757 96.7783C139.231 96.5524 138.76 96.2169 138.374 95.7941C137.988 95.3714 137.697 94.8711 137.521 94.3269C137.344 93.7827 137.285 93.2069 137.349 92.6382C137.465 91.4258 138.029 90.3003 138.931 89.4817L137.46 87.8689C136.096 89.1053 135.241 90.8057 135.064 92.6382C134.969 93.4964 135.059 94.3648 135.326 95.1857C135.593 96.0067 136.031 96.7615 136.612 97.4C137.194 98.0384 137.904 98.546 138.696 98.8889C139.488 99.2318 140.345 99.4023 141.208 99.3889C143.045 99.3553 144.806 98.6498 146.158 97.4059C147.51 96.1621 148.36 94.466 148.546 92.6382C148.64 91.7804 148.55 90.9124 148.283 90.0919C148.015 89.2714 147.577 88.5171 146.996 87.8791C146.415 87.241 145.705 86.7338 144.913 86.3911C144.121 86.0484 143.265 85.8781 142.402 85.8913Z" fill="white"/>
<path d="M137.02 86.6183L138.494 88.2349C139.381 87.403 140.549 86.9356 141.766 86.9255L141.965 84.6445C140.128 84.6599 138.363 85.3643 137.02 86.6183Z" fill="#4E4F52"/>
<path opacity="0.3" d="M137.02 86.6183L138.494 88.2349C139.381 87.403 140.549 86.9356 141.766 86.9255L141.965 84.6445C140.128 84.6599 138.363 85.3643 137.02 86.6183Z" fill="black"/>
<path d="M142.102 89.3759L142.006 90.4664C142.28 90.4609 142.551 90.5139 142.803 90.6218C143.054 90.7298 143.279 90.8902 143.464 91.0924C143.648 91.2945 143.787 91.5338 143.871 91.794C143.956 92.0543 143.984 92.3296 143.953 92.6015C143.894 93.1763 143.628 93.71 143.203 94.1024C142.779 94.4947 142.227 94.7188 141.649 94.7327C141.376 94.7382 141.104 94.6853 140.853 94.5776C140.602 94.4698 140.377 94.3098 140.193 94.108C140.008 93.9063 139.869 93.6676 139.785 93.4077C139.7 93.1479 139.672 92.8731 139.702 92.6015C139.759 92.0198 140.034 91.4811 140.47 91.0924L139.767 90.3244C139.112 90.9145 138.702 91.728 138.615 92.6053C138.57 93.0157 138.613 93.4311 138.74 93.8237C138.868 94.2162 139.078 94.577 139.357 94.882C139.635 95.1869 139.975 95.4289 140.355 95.5919C140.734 95.7549 141.144 95.8351 141.557 95.8271C142.434 95.8119 143.275 95.4756 143.921 94.8819C144.567 94.2882 144.974 93.4782 145.063 92.6053C145.109 92.1928 145.066 91.7752 144.937 91.3806C144.809 90.986 144.597 90.6235 144.317 90.3175C144.036 90.0115 143.693 89.7692 143.311 89.6068C142.929 89.4444 142.517 89.3656 142.102 89.3759Z" fill="#4E4F52"/>
<path d="M139.527 89.7063L140.23 90.4743C140.656 90.0783 141.215 89.8552 141.797 89.8484L141.889 88.7578C141.011 88.7674 140.168 89.1058 139.527 89.7063Z" fill="#4E4F52"/>
<path opacity="0.3" d="M139.527 89.7063L140.23 90.4743C140.656 90.0783 141.215 89.8552 141.797 89.8484L141.889 88.7578C141.011 88.7674 140.168 89.1058 139.527 89.7063Z" fill="black"/>
<path d="M122.18 102.343C122.088 102.344 121.997 102.326 121.912 102.29C121.828 102.253 121.752 102.199 121.69 102.132C121.627 102.064 121.581 101.983 121.552 101.896C121.523 101.808 121.513 101.716 121.523 101.624C121.543 101.432 121.631 101.253 121.772 101.121C121.914 100.989 122.098 100.913 122.291 100.906C122.383 100.905 122.475 100.923 122.559 100.959C122.644 100.995 122.719 101.049 122.782 101.117C122.844 101.185 122.891 101.266 122.919 101.353C122.948 101.44 122.958 101.533 122.948 101.624C122.928 101.816 122.839 101.995 122.698 102.127C122.557 102.259 122.373 102.335 122.18 102.343Z" fill="white"/>
<path d="M129.544 101.989H124.168C124.121 101.991 124.075 101.982 124.032 101.964C123.988 101.945 123.949 101.918 123.918 101.883C123.886 101.849 123.862 101.808 123.848 101.763C123.833 101.718 123.829 101.671 123.834 101.624C123.834 101.523 123.875 101.425 123.947 101.353C124.019 101.281 124.116 101.24 124.218 101.24H129.594C129.643 101.239 129.692 101.248 129.737 101.267C129.781 101.286 129.821 101.316 129.853 101.352C129.885 101.389 129.909 101.433 129.922 101.48C129.935 101.527 129.937 101.576 129.928 101.624C129.923 101.723 129.881 101.816 129.809 101.884C129.738 101.952 129.643 101.989 129.544 101.989Z" fill="white"/>
<path d="M128.066 103.43H124.049C124.001 103.431 123.953 103.422 123.908 103.402C123.864 103.383 123.824 103.354 123.792 103.317C123.76 103.28 123.737 103.237 123.723 103.19C123.71 103.143 123.707 103.094 123.715 103.046C123.721 102.946 123.763 102.852 123.834 102.781C123.905 102.71 123.999 102.668 124.099 102.662H128.12C128.168 102.661 128.217 102.671 128.261 102.69C128.306 102.71 128.345 102.739 128.377 102.776C128.409 102.812 128.433 102.856 128.446 102.902C128.459 102.949 128.462 102.998 128.454 103.046C128.447 103.147 128.404 103.241 128.333 103.312C128.261 103.383 128.167 103.425 128.066 103.43Z" fill="white"/>
<path d="M137.746 102.343C137.654 102.345 137.562 102.327 137.477 102.291C137.392 102.255 137.316 102.201 137.253 102.133C137.191 102.065 137.144 101.985 137.115 101.897C137.086 101.809 137.076 101.716 137.086 101.624C137.105 101.432 137.194 101.253 137.335 101.121C137.476 100.989 137.66 100.913 137.854 100.906C137.946 100.905 138.037 100.923 138.122 100.959C138.206 100.995 138.282 101.049 138.344 101.117C138.406 101.185 138.453 101.266 138.482 101.353C138.51 101.44 138.52 101.533 138.51 101.624C138.49 101.816 138.402 101.994 138.262 102.126C138.122 102.257 137.939 102.334 137.746 102.343Z" fill="white"/>
<path d="M145.11 101.989H139.734C139.688 101.99 139.641 101.981 139.598 101.962C139.555 101.944 139.517 101.917 139.485 101.882C139.454 101.848 139.43 101.807 139.415 101.762C139.4 101.718 139.395 101.671 139.4 101.624C139.406 101.524 139.448 101.43 139.519 101.359C139.59 101.288 139.684 101.246 139.784 101.24H145.16C145.209 101.239 145.258 101.248 145.303 101.267C145.347 101.286 145.387 101.316 145.419 101.352C145.451 101.389 145.475 101.433 145.488 101.48C145.501 101.527 145.503 101.576 145.494 101.624C145.489 101.723 145.447 101.816 145.375 101.884C145.304 101.952 145.209 101.989 145.11 101.989Z" fill="white"/>
<path d="M143.632 103.428H139.616C139.567 103.429 139.519 103.42 139.474 103.4C139.43 103.381 139.39 103.352 139.358 103.315C139.327 103.278 139.303 103.235 139.29 103.188C139.277 103.141 139.274 103.092 139.282 103.044C139.287 102.944 139.33 102.85 139.4 102.779C139.471 102.708 139.566 102.666 139.666 102.66H143.686C143.735 102.659 143.783 102.669 143.828 102.688C143.872 102.708 143.912 102.737 143.944 102.774C143.976 102.81 143.999 102.854 144.012 102.9C144.025 102.947 144.028 102.996 144.02 103.044C144.014 103.145 143.971 103.239 143.899 103.31C143.828 103.381 143.733 103.423 143.632 103.428Z" fill="white"/>
<path d="M111.134 114.079H70.1111C69.7977 114.085 69.4867 114.024 69.1988 113.9C68.9109 113.776 68.6526 113.593 68.4412 113.361C68.2298 113.13 68.0701 112.856 67.9726 112.558C67.8752 112.26 67.8423 111.945 67.8762 111.633L70.1572 85.5713C70.2246 84.9083 70.5326 84.2929 71.0229 83.8415C71.5133 83.3901 72.1519 83.1339 72.8183 83.1214H113.845C114.158 83.1162 114.469 83.1779 114.757 83.3022C115.045 83.4265 115.303 83.6107 115.514 83.8424C115.725 84.0742 115.884 84.3482 115.981 84.6463C116.078 84.9444 116.11 85.2597 116.076 85.5713L113.799 111.649C113.727 112.309 113.416 112.92 112.926 113.368C112.435 113.815 111.798 114.068 111.134 114.079Z" fill="#4E4F52"/>
<path opacity="0.7" d="M111.134 114.079H70.1111C69.7977 114.085 69.4867 114.024 69.1988 113.9C68.9109 113.776 68.6526 113.593 68.4412 113.361C68.2298 113.13 68.0701 112.856 67.9726 112.558C67.8752 112.26 67.8423 111.945 67.8762 111.633L70.1572 85.5713C70.2246 84.9083 70.5326 84.2929 71.0229 83.8415C71.5133 83.3901 72.1519 83.1339 72.8183 83.1214H113.845C114.158 83.1162 114.469 83.1779 114.757 83.3022C115.045 83.4265 115.303 83.6107 115.514 83.8424C115.725 84.0742 115.884 84.3482 115.981 84.6463C116.078 84.9444 116.11 85.2597 116.076 85.5713L113.799 111.649C113.727 112.309 113.416 112.92 112.926 113.368C112.435 113.815 111.798 114.068 111.134 114.079Z" fill="white"/>
<path d="M71.8258 106.288H70.7852L72.1791 90.3594H73.2197L71.8258 106.288Z" fill="#4E4F52"/>
<path d="M73.3023 106.288H72.2578L73.2831 94.5723H74.3276L73.3023 106.288Z" fill="#263238"/>
<path d="M75.6461 106.288H74.6055L75.2736 98.6309H76.3143L75.6461 106.288Z" fill="#4E4F52"/>
<path d="M77.1188 106.288H76.0781L76.8768 97.1562H77.9175L77.1188 106.288Z" fill="#263238"/>
<path d="M79.4664 106.289H78.4219L79.6123 92.6797H80.6568L79.4664 106.289Z" fill="#4E4F52"/>
<path d="M80.939 106.288H79.8945L80.9237 94.5723H81.9643L80.939 106.288Z" fill="#263238"/>
<path d="M83.2828 106.288H82.2422L83.2675 94.5723H84.3081L83.2828 106.288Z" fill="#4E4F52"/>
<path d="M84.7555 106.288H83.7148L84.9974 91.6191H86.038L84.7555 106.288Z" fill="#263238"/>
<path d="M87.1031 106.288H86.0586L86.7575 98.3242H87.7981L87.1031 106.288Z" fill="#4E4F52"/>
<path d="M88.5758 106.288H87.5352L88.5604 94.5723H89.6011L88.5758 106.288Z" fill="#263238"/>
<path d="M90.9195 106.289H89.8789L91.0693 92.6797H92.1099L90.9195 106.289Z" fill="#4E4F52"/>
<path d="M92.396 106.287H91.3516L92.7954 89.7754H93.8399L92.396 106.287Z" fill="#263238"/>
<path d="M94.7399 106.288H93.6992L94.0755 101.953H95.12L94.7399 106.288Z" fill="#4E4F52"/>
<path d="M96.2125 106.287H95.1719L95.8746 98.2617H96.9152L96.2125 106.287Z" fill="#263238"/>
<path d="M98.5602 106.288H97.5195L98.1915 98.6309H99.2322L98.5602 106.288Z" fill="#4E4F52"/>
<path d="M100.037 106.287H98.9922L100.309 91.25H101.35L100.037 106.287Z" fill="#263238"/>
<path d="M102.38 106.289H101.34L102.204 96.4199H103.244L102.38 106.289Z" fill="#4E4F52"/>
<path d="M103.853 106.288H102.812L104.483 87.1914H105.524L103.853 106.288Z" fill="#263238"/>
<path d="M106.201 106.289H105.156L106.278 93.4668H107.322L106.201 106.289Z" fill="#4E4F52"/>
<path d="M107.673 106.288H106.633L107.658 94.5723H108.699L107.673 106.288Z" fill="#263238"/>
<path d="M110.017 106.288H108.977L110.39 90.1445H111.43L110.017 106.288Z" fill="#4E4F52"/>
<path d="M111.49 106.287H110.449L111.282 96.7871H112.323L111.49 106.287Z" fill="#263238"/>
<path d="M71.4229 110.635C71.2917 110.638 71.1614 110.613 71.0407 110.561C70.92 110.51 70.8116 110.433 70.7229 110.336C70.6342 110.24 70.5672 110.125 70.5263 110.001C70.4854 109.876 70.4717 109.744 70.4859 109.613C70.5164 109.337 70.646 109.081 70.8507 108.892C71.0554 108.704 71.3214 108.596 71.5995 108.588C71.7311 108.585 71.8617 108.61 71.9828 108.662C72.1038 108.714 72.2123 108.791 72.3011 108.888C72.3898 108.985 72.4568 109.1 72.4974 109.225C72.538 109.35 72.5513 109.483 72.5365 109.613C72.5051 109.889 72.3752 110.145 72.1706 110.332C71.9659 110.52 71.7004 110.627 71.4229 110.635Z" fill="#263238"/>
<path d="M81.9057 110.132H74.2679C74.2013 110.134 74.1352 110.121 74.0739 110.095C74.0126 110.069 73.9576 110.03 73.9125 109.981C73.8675 109.932 73.8334 109.874 73.8125 109.811C73.7917 109.747 73.7846 109.68 73.7917 109.614C73.8067 109.473 73.8726 109.342 73.9773 109.246C74.0819 109.149 74.218 109.095 74.3601 109.092H81.9978C82.0646 109.091 82.1308 109.104 82.1921 109.131C82.2534 109.157 82.3083 109.197 82.3533 109.246C82.3983 109.295 82.4324 109.354 82.4532 109.417C82.4739 109.481 82.481 109.548 82.474 109.614C82.459 109.755 82.3929 109.886 82.2882 109.981C82.1835 110.077 82.0474 110.13 81.9057 110.132Z" fill="#263238"/>
<path d="M79.8079 112.183H74.0863C74.0185 112.184 73.9513 112.171 73.8893 112.144C73.8273 112.116 73.7719 112.076 73.727 112.025C73.6821 111.974 73.6488 111.915 73.6292 111.85C73.6097 111.785 73.6045 111.716 73.614 111.649C73.6272 111.508 73.6921 111.377 73.7963 111.28C73.9005 111.184 74.0365 111.129 74.1784 111.127H79.8962C79.9632 111.126 80.0297 111.138 80.0912 111.165C80.1528 111.191 80.208 111.23 80.2532 111.28C80.2983 111.329 80.3323 111.388 80.3528 111.452C80.3734 111.515 80.3801 111.583 80.3724 111.649C80.361 111.792 80.297 111.926 80.1927 112.025C80.0885 112.123 79.9513 112.18 79.8079 112.183Z" fill="#263238"/>
<path opacity="0.3" d="M81.9057 110.132H74.2679C74.2013 110.134 74.1352 110.121 74.0739 110.095C74.0126 110.069 73.9576 110.03 73.9125 109.981C73.8675 109.932 73.8334 109.874 73.8125 109.811C73.7917 109.747 73.7846 109.68 73.7917 109.614C73.8067 109.473 73.8726 109.342 73.9773 109.246C74.0819 109.149 74.218 109.095 74.3601 109.092H81.9978C82.0646 109.091 82.1308 109.104 82.1921 109.131C82.2534 109.157 82.3083 109.197 82.3533 109.246C82.3983 109.295 82.4324 109.354 82.4532 109.417C82.4739 109.481 82.481 109.548 82.474 109.614C82.459 109.755 82.3929 109.886 82.2882 109.981C82.1835 110.077 82.0474 110.13 81.9057 110.132Z" fill="white"/>
<path opacity="0.3" d="M79.8079 112.183H74.0863C74.0185 112.184 73.9513 112.171 73.8893 112.144C73.8273 112.116 73.7719 112.076 73.727 112.025C73.6821 111.974 73.6488 111.915 73.6292 111.85C73.6097 111.785 73.6045 111.716 73.614 111.649C73.6272 111.508 73.6921 111.377 73.7963 111.28C73.9005 111.184 74.0365 111.129 74.1784 111.127H79.8962C79.9632 111.126 80.0297 111.138 80.0912 111.165C80.1528 111.191 80.208 111.23 80.2532 111.28C80.2983 111.329 80.3323 111.388 80.3528 111.452C80.3734 111.515 80.3801 111.583 80.3724 111.649C80.361 111.792 80.297 111.926 80.1927 112.025C80.0885 112.123 79.9513 112.18 79.8079 112.183Z" fill="white"/>
<path d="M86.5318 110.635C86.4008 110.637 86.2708 110.612 86.1504 110.56C86.03 110.508 85.9219 110.432 85.8333 110.335C85.7447 110.239 85.6777 110.124 85.6366 110C85.5955 109.875 85.5812 109.744 85.5949 109.613C85.6254 109.337 85.7549 109.081 85.9596 108.892C86.1643 108.704 86.4303 108.596 86.7085 108.588C86.84 108.585 86.9707 108.61 87.0917 108.662C87.2127 108.714 87.3212 108.791 87.41 108.888C87.4988 108.985 87.5657 109.1 87.6063 109.225C87.6469 109.35 87.6603 109.483 87.6454 109.613C87.614 109.889 87.4841 110.145 87.2795 110.332C87.0749 110.52 86.8094 110.627 86.5318 110.635Z" fill="#4E4F52"/>
<path opacity="0.3" d="M86.5318 110.635C86.4008 110.637 86.2708 110.612 86.1504 110.56C86.03 110.508 85.9219 110.432 85.8333 110.335C85.7447 110.239 85.6777 110.124 85.6366 110C85.5955 109.875 85.5812 109.744 85.5949 109.613C85.6254 109.337 85.7549 109.081 85.9596 108.892C86.1643 108.704 86.4303 108.596 86.7085 108.588C86.84 108.585 86.9707 108.61 87.0917 108.662C87.2127 108.714 87.3212 108.791 87.41 108.888C87.4988 108.985 87.5657 109.1 87.6063 109.225C87.6469 109.35 87.6603 109.483 87.6454 109.613C87.614 109.889 87.4841 110.145 87.2795 110.332C87.0749 110.52 86.8094 110.627 86.5318 110.635Z" fill="black"/>
<path d="M97.0072 110.132H89.3695C89.3029 110.134 89.2367 110.121 89.1754 110.095C89.1142 110.069 89.0591 110.03 89.0141 109.981C88.969 109.932 88.9349 109.874 88.9141 109.811C88.8933 109.747 88.8862 109.68 88.8933 109.614C88.9082 109.473 88.9742 109.342 89.0788 109.246C89.1834 109.149 89.3196 109.095 89.4616 109.092H97.0994C97.1662 109.091 97.2324 109.104 97.2937 109.131C97.3549 109.157 97.4099 109.197 97.4549 109.246C97.4999 109.295 97.5339 109.354 97.5547 109.417C97.5755 109.481 97.5826 109.548 97.5755 109.614C97.5605 109.755 97.4944 109.886 97.3897 109.981C97.285 110.077 97.1489 110.13 97.0072 110.132Z" fill="#263238"/>
<path d="M94.9093 112.183H89.1916C89.1225 112.187 89.0536 112.175 88.9897 112.149C88.9258 112.122 88.8685 112.082 88.8218 112.031C88.7752 111.98 88.7405 111.919 88.7201 111.853C88.6997 111.787 88.6942 111.718 88.7039 111.649C88.7171 111.508 88.782 111.377 88.8862 111.28C88.9904 111.184 89.1265 111.129 89.2684 111.127H94.9861C95.0531 111.126 95.1196 111.138 95.1812 111.165C95.2427 111.191 95.298 111.23 95.3431 111.28C95.3882 111.329 95.4222 111.388 95.4428 111.452C95.4633 111.515 95.47 111.583 95.4623 111.649C95.452 111.791 95.3899 111.923 95.2878 112.022C95.1858 112.12 95.051 112.178 94.9093 112.183Z" fill="#263238"/>
<path opacity="0.3" d="M97.0072 110.132H89.3695C89.3029 110.134 89.2367 110.121 89.1754 110.095C89.1142 110.069 89.0591 110.03 89.0141 109.981C88.969 109.932 88.9349 109.874 88.9141 109.811C88.8933 109.747 88.8862 109.68 88.8933 109.614C88.9082 109.473 88.9742 109.342 89.0788 109.246C89.1834 109.149 89.3196 109.095 89.4616 109.092H97.0994C97.1662 109.091 97.2324 109.104 97.2937 109.131C97.3549 109.157 97.4099 109.197 97.4549 109.246C97.4999 109.295 97.5339 109.354 97.5547 109.417C97.5755 109.481 97.5826 109.548 97.5755 109.614C97.5605 109.755 97.4944 109.886 97.3897 109.981C97.285 110.077 97.1489 110.13 97.0072 110.132Z" fill="white"/>
<path opacity="0.3" d="M94.9093 112.183H89.1916C89.1225 112.187 89.0536 112.175 88.9897 112.149C88.9258 112.122 88.8685 112.082 88.8218 112.031C88.7752 111.98 88.7405 111.919 88.7201 111.853C88.6997 111.787 88.6942 111.718 88.7039 111.649C88.7171 111.508 88.782 111.377 88.8862 111.28C88.9904 111.184 89.1265 111.129 89.2684 111.127H94.9861C95.0531 111.126 95.1196 111.138 95.1812 111.165C95.2427 111.191 95.298 111.23 95.3431 111.28C95.3882 111.329 95.4222 111.388 95.4428 111.452C95.4633 111.515 95.47 111.583 95.4623 111.649C95.452 111.791 95.3899 111.923 95.2878 112.022C95.1858 112.12 95.051 112.178 94.9093 112.183Z" fill="white"/>
<path d="M101.634 110.635C101.503 110.637 101.373 110.612 101.253 110.56C101.133 110.508 101.025 110.432 100.936 110.335C100.848 110.238 100.782 110.124 100.741 110C100.7 109.875 100.687 109.743 100.701 109.613C100.731 109.337 100.861 109.081 101.066 108.892C101.27 108.704 101.536 108.596 101.814 108.588C101.946 108.586 102.076 108.611 102.196 108.663C102.317 108.715 102.425 108.792 102.513 108.889C102.602 108.986 102.668 109.101 102.709 109.226C102.749 109.351 102.762 109.483 102.747 109.613C102.716 109.889 102.586 110.144 102.382 110.332C102.177 110.52 101.911 110.627 101.634 110.635Z" fill="#4E4F52"/>
<path d="M112.129 110.132H104.472C104.405 110.134 104.339 110.121 104.278 110.095C104.217 110.069 104.162 110.03 104.117 109.981C104.073 109.932 104.039 109.874 104.018 109.81C103.998 109.747 103.992 109.68 103.999 109.614C104.012 109.473 104.077 109.341 104.182 109.245C104.286 109.149 104.422 109.094 104.564 109.092H112.201C112.268 109.091 112.334 109.104 112.396 109.131C112.457 109.157 112.512 109.197 112.557 109.246C112.602 109.295 112.636 109.354 112.657 109.417C112.678 109.481 112.685 109.548 112.678 109.614C112.663 109.752 112.6 109.88 112.499 109.975C112.398 110.07 112.267 110.126 112.129 110.132Z" fill="#263238"/>
<path d="M110.013 112.182H104.296C104.229 112.183 104.162 112.17 104.101 112.144C104.039 112.118 103.984 112.078 103.939 112.029C103.894 111.979 103.86 111.921 103.839 111.857C103.818 111.793 103.812 111.726 103.82 111.659C103.833 111.518 103.898 111.387 104.002 111.29C104.106 111.194 104.242 111.139 104.384 111.137H110.106C110.172 111.134 110.239 111.145 110.301 111.17C110.363 111.195 110.419 111.233 110.466 111.282C110.512 111.33 110.547 111.388 110.569 111.451C110.591 111.514 110.599 111.581 110.593 111.648C110.583 111.794 110.517 111.93 110.409 112.029C110.301 112.129 110.16 112.183 110.013 112.182Z" fill="#263238"/>
<path opacity="0.3" d="M112.129 110.132H104.472C104.405 110.134 104.339 110.121 104.278 110.095C104.217 110.069 104.162 110.03 104.117 109.981C104.073 109.932 104.039 109.874 104.018 109.81C103.998 109.747 103.992 109.68 103.999 109.614C104.012 109.473 104.077 109.341 104.182 109.245C104.286 109.149 104.422 109.094 104.564 109.092H112.201C112.268 109.091 112.334 109.104 112.396 109.131C112.457 109.157 112.512 109.197 112.557 109.246C112.602 109.295 112.636 109.354 112.657 109.417C112.678 109.481 112.685 109.548 112.678 109.614C112.663 109.752 112.6 109.88 112.499 109.975C112.398 110.07 112.267 110.126 112.129 110.132Z" fill="white"/>
<path opacity="0.3" d="M110.013 112.182H104.296C104.229 112.183 104.162 112.17 104.101 112.144C104.039 112.118 103.984 112.078 103.939 112.029C103.894 111.979 103.86 111.921 103.839 111.857C103.818 111.793 103.812 111.726 103.82 111.659C103.833 111.518 103.898 111.387 104.002 111.29C104.106 111.194 104.242 111.139 104.384 111.137H110.106C110.172 111.134 110.239 111.145 110.301 111.17C110.363 111.195 110.419 111.233 110.466 111.282C110.512 111.33 110.547 111.388 110.569 111.451C110.591 111.514 110.599 111.581 110.593 111.648C110.583 111.794 110.517 111.93 110.409 112.029C110.301 112.129 110.16 112.183 110.013 112.182Z" fill="white"/>
<path d="M152.743 80.6699H128.888C128.575 80.6755 128.264 80.6144 127.976 80.4906C127.688 80.3667 127.43 80.183 127.219 79.9516C127.007 79.7202 126.847 79.4465 126.75 79.1485C126.653 78.8506 126.62 78.5354 126.654 78.2238L127.921 63.7355C127.988 63.0728 128.296 62.4579 128.787 62.0071C129.277 61.5564 129.916 61.301 130.582 61.2894H154.436C154.749 61.2838 155.06 61.3449 155.348 61.4688C155.636 61.5926 155.894 61.7763 156.106 62.0077C156.317 62.2391 156.477 62.5129 156.574 62.8108C156.672 63.1087 156.705 63.4239 156.671 63.7355L155.404 78.2392C155.333 78.8991 155.023 79.5103 154.533 79.9579C154.043 80.4055 153.406 80.6587 152.743 80.6699Z" fill="#4E4F52"/>
<path d="M139.2 70.0494C139.077 71.2441 138.522 72.3526 137.638 73.1661C136.755 73.9795 135.604 74.4417 134.403 74.4654C133.838 74.4753 133.277 74.3647 132.758 74.141C132.238 73.9172 131.773 73.5853 131.392 73.1676C131.011 72.7498 130.723 72.2556 130.548 71.718C130.372 71.1803 130.314 70.6115 130.375 70.0494C130.496 68.8541 131.051 67.7446 131.935 66.9309C132.819 66.1171 133.97 65.6555 135.171 65.6334C135.737 65.6235 136.298 65.7341 136.817 65.9579C137.337 66.1817 137.802 66.5135 138.183 66.9313C138.564 67.3491 138.852 67.8432 139.027 68.3809C139.203 68.9185 139.261 69.4873 139.2 70.0494Z" fill="#4E4F52"/>
<path opacity="0.7" d="M139.2 70.0494C139.077 71.2441 138.522 72.3526 137.638 73.1661C136.755 73.9795 135.604 74.4417 134.403 74.4654C133.838 74.4753 133.277 74.3647 132.758 74.141C132.238 73.9172 131.773 73.5853 131.392 73.1676C131.011 72.7498 130.723 72.2556 130.548 71.718C130.372 71.1803 130.314 70.6115 130.375 70.0494C130.496 68.8541 131.051 67.7446 131.935 66.9309C132.819 66.1171 133.97 65.6555 135.171 65.6334C135.737 65.6235 136.298 65.7341 136.817 65.9579C137.337 66.1817 137.802 66.5135 138.183 66.9313C138.564 67.3491 138.852 67.8432 139.027 68.3809C139.203 68.9185 139.261 69.4873 139.2 70.0494Z" fill="white"/>
<path d="M136.117 69.2647C136.032 70.2324 135.664 71.0157 134.696 71.0157C133.728 71.0157 133.494 70.2478 133.578 69.2647C133.663 68.2817 134.035 67.5137 135.003 67.5137C135.971 67.5137 136.201 68.297 136.117 69.2647Z" fill="#263238"/>
<path d="M134.648 71.5605C132.624 71.5605 131.526 72.0098 131.008 72.6703C131.376 73.2297 131.88 73.6873 132.472 74.0007C133.064 74.3141 133.725 74.4733 134.395 74.4636C135.105 74.4542 135.805 74.2887 136.445 73.9788C137.085 73.6689 137.649 73.2222 138.096 72.6703C137.693 72.0098 136.676 71.5605 134.648 71.5605Z" fill="#263238"/>
<path d="M149.601 65.1179H142.431C142.354 65.1194 142.277 65.1044 142.205 65.0737C142.134 65.043 142.07 64.9974 142.017 64.94C141.965 64.8825 141.925 64.8145 141.901 64.7406C141.878 64.6666 141.87 64.5884 141.878 64.5111C141.895 64.3467 141.972 64.1942 142.094 64.0824C142.215 63.9706 142.374 63.9073 142.539 63.9044H149.708C149.786 63.9028 149.863 63.9179 149.935 63.9485C150.006 63.9792 150.07 64.0248 150.122 64.0823C150.175 64.1397 150.214 64.2077 150.238 64.2817C150.262 64.3557 150.27 64.4339 150.261 64.5111C150.245 64.6758 150.169 64.8288 150.047 64.9408C149.925 65.0528 149.766 65.1158 149.601 65.1179Z" fill="white"/>
<path d="M151.514 69.6001H142.041C141.963 69.6017 141.886 69.5867 141.814 69.556C141.743 69.5253 141.679 69.4797 141.627 69.4223C141.574 69.3648 141.535 69.2968 141.511 69.2229C141.487 69.1489 141.479 69.0707 141.488 68.9934C141.505 68.8287 141.581 68.6757 141.703 68.5633C141.824 68.4508 141.983 68.3867 142.148 68.3829H151.622C151.7 68.3818 151.777 68.3974 151.848 68.4285C151.92 68.4596 151.984 68.5056 152.036 68.5633C152.088 68.6211 152.128 68.6893 152.152 68.7634C152.175 68.8376 152.183 68.916 152.175 68.9934C152.159 69.1581 152.082 69.3111 151.96 69.4231C151.838 69.535 151.68 69.5981 151.514 69.6001Z" fill="white"/>
<path d="M153.239 71.8386H141.846C141.768 71.8401 141.691 71.8251 141.619 71.7944C141.548 71.7637 141.484 71.7182 141.431 71.6607C141.379 71.6032 141.339 71.5352 141.316 71.4613C141.292 71.3873 141.284 71.3091 141.293 71.2318C141.309 71.0674 141.386 70.9149 141.508 70.8031C141.629 70.6913 141.788 70.628 141.953 70.6251H153.346C153.424 70.6235 153.501 70.6386 153.573 70.6692C153.644 70.6999 153.708 70.7455 153.76 70.803C153.813 70.8604 153.852 70.9284 153.876 71.0024C153.9 71.0764 153.908 71.1546 153.899 71.2318C153.883 71.3965 153.807 71.5495 153.685 71.6615C153.563 71.7735 153.404 71.8365 153.239 71.8386Z" fill="white"/>
<path d="M152.275 74.0807H141.65C141.572 74.0817 141.495 74.0662 141.424 74.035C141.352 74.0039 141.288 73.958 141.236 73.9002C141.184 73.8425 141.144 73.7742 141.12 73.7001C141.096 73.6259 141.088 73.5475 141.097 73.4701C141.115 73.306 141.192 73.154 141.313 73.0424C141.435 72.9307 141.593 72.8671 141.758 72.8634H152.383C152.461 72.8618 152.538 72.8769 152.609 72.9075C152.681 72.9382 152.745 72.9838 152.797 73.0413C152.85 73.0987 152.889 73.1667 152.913 73.2407C152.937 73.3146 152.945 73.3929 152.936 73.4701C152.92 73.6352 152.844 73.7886 152.722 73.9012C152.6 74.0138 152.441 74.0777 152.275 74.0807Z" fill="white"/>
<path d="M150.913 76.3189H141.451C141.373 76.3205 141.296 76.3054 141.225 76.2748C141.153 76.2441 141.089 76.1985 141.037 76.141C140.984 76.0836 140.945 76.0156 140.921 75.9416C140.897 75.8676 140.889 75.7894 140.898 75.7122C140.914 75.5471 140.99 75.3936 141.112 75.2811C141.234 75.1685 141.393 75.1046 141.558 75.1016H151.032C151.11 75.1006 151.187 75.1161 151.258 75.1472C151.33 75.1784 151.394 75.2243 151.446 75.2821C151.498 75.3398 151.538 75.408 151.562 75.4822C151.586 75.5564 151.593 75.6347 151.585 75.7122C151.568 75.8785 151.489 76.0326 151.365 76.1447C151.241 76.2567 151.08 76.3188 150.913 76.3189Z" fill="white"/>
<path d="M151.881 78.5573H141.256C141.178 78.5589 141.101 78.5438 141.029 78.5132C140.958 78.4825 140.894 78.4369 140.841 78.3794C140.789 78.322 140.75 78.254 140.726 78.18C140.702 78.1061 140.694 78.0278 140.703 77.9506C140.719 77.7859 140.795 77.6329 140.917 77.5209C141.039 77.409 141.198 77.3459 141.363 77.3439H151.988C152.066 77.3423 152.143 77.3573 152.215 77.388C152.286 77.4187 152.35 77.4643 152.403 77.5217C152.455 77.5792 152.494 77.6472 152.518 77.7211C152.542 77.7951 152.55 77.8733 152.541 77.9506C152.524 78.1147 152.447 78.2667 152.325 78.3783C152.204 78.49 152.046 78.5536 151.881 78.5573Z" fill="white"/>
<path d="M121.727 80.6713H80.697C80.3836 80.677 80.0726 80.6159 79.7847 80.492C79.4968 80.3681 79.2386 80.1844 79.0271 79.953C78.8157 79.7216 78.656 79.4479 78.5586 79.15C78.4612 78.8521 78.4283 78.5369 78.4621 78.2253L80.7431 52.1593C80.8106 51.4967 81.1188 50.8818 81.6092 50.431C82.0996 49.9802 82.7382 49.7249 83.4042 49.7133H124.415C124.729 49.7075 125.04 49.7687 125.327 49.8925C125.615 50.0164 125.873 50.2002 126.084 50.4317C126.295 50.6632 126.455 50.937 126.552 51.2349C126.649 51.5328 126.681 51.848 126.646 52.1593L124.385 78.2406C124.313 78.8996 124.004 79.5098 123.515 79.9572C123.025 80.4045 122.39 80.6584 121.727 80.6713Z" fill="#4E4F52"/>
<path opacity="0.7" d="M121.727 80.6713H80.697C80.3836 80.677 80.0726 80.6159 79.7847 80.492C79.4968 80.3681 79.2386 80.1844 79.0271 79.953C78.8157 79.7216 78.656 79.4479 78.5586 79.15C78.4612 78.8521 78.4283 78.5369 78.4621 78.2253L80.7431 52.1593C80.8106 51.4967 81.1188 50.8818 81.6092 50.431C82.0996 49.9802 82.7382 49.7249 83.4042 49.7133H124.415C124.729 49.7075 125.04 49.7687 125.327 49.8925C125.615 50.0164 125.873 50.2002 126.084 50.4317C126.295 50.6632 126.455 50.937 126.552 51.2349C126.649 51.5328 126.681 51.848 126.646 52.1593L124.385 78.2406C124.313 78.8996 124.004 79.5098 123.515 79.9572C123.025 80.4045 122.39 80.6584 121.727 80.6713Z" fill="white"/>
<path d="M125.801 62.0049C125.006 59.1364 123.75 56.2641 121.922 56.2641C118.466 56.2641 116.788 61.6708 115.01 67.4001C113.443 72.4305 111.823 77.6299 109.296 77.6299C106.09 77.6299 105.21 71.1979 104.362 64.9771C103.409 58.0075 102.511 51.4219 98.3791 51.4219C94.2473 51.4219 92.2005 58.0075 90.0271 64.9771C88.0879 71.1979 86.0872 77.6299 82.877 77.6299C81.3794 77.6299 79.9855 73.1985 79.252 69.2587L78.918 73.0987C79.7167 75.9441 80.9647 78.7742 82.7772 78.7742C86.909 78.7742 88.9596 72.1886 91.1292 65.219C93.0492 59.002 95.0728 52.5662 98.2792 52.5662C101.486 52.5662 102.365 59.002 103.214 65.2382C104.166 72.2078 105.065 78.7934 109.196 78.7934C112.652 78.7934 114.33 73.3867 116.108 67.6574C117.675 62.627 119.296 57.4276 121.826 57.4276C123.335 57.4276 124.741 61.9204 125.466 65.8756L125.801 62.0049Z" fill="#4E4F52"/>
<path d="M99.6283 52.9481C100.321 52.2852 100.39 51.2337 99.7827 50.5995C99.1756 49.9652 98.122 49.9884 97.4296 50.6513C96.7371 51.3142 96.668 52.3657 97.2751 52.9999C97.8823 53.6342 98.9358 53.611 99.6283 52.9481Z" fill="#263238"/>
<path d="M99.0709 52.3602C99.414 52.0317 99.4472 51.5095 99.1451 51.194C98.8429 50.8785 98.3198 50.889 97.9767 51.2176C97.6336 51.5461 97.6004 52.0683 97.9026 52.3838C98.2047 52.6994 98.7278 52.6888 99.0709 52.3602Z" fill="#4E4F52"/>
<path d="M102.021 44.7743H96.2608C95.9596 44.7801 95.6708 44.8956 95.4488 45.0993C95.2268 45.3029 95.0868 45.5806 95.055 45.8802L94.9629 46.9323C94.9476 47.0732 94.9624 47.2156 95.0065 47.3503C95.0505 47.4849 95.1227 47.6087 95.2182 47.7133C95.3137 47.8179 95.4304 47.9009 95.5605 47.957C95.6906 48.013 95.8311 48.0407 95.9728 48.0383H97.8928L98.4649 48.9023C98.5028 48.9531 98.5521 48.9944 98.6087 49.0228C98.6654 49.0513 98.7279 49.0661 98.7913 49.0661C98.8547 49.0661 98.9173 49.0513 98.9739 49.0228C99.0306 48.9944 99.0798 48.9531 99.1177 48.9023L99.8397 48.0383H101.76C102.06 48.0323 102.349 47.9166 102.57 47.7129C102.791 47.5092 102.931 47.2316 102.962 46.9323L103.054 45.8802C103.069 45.7374 103.054 45.5929 103.009 45.4566C102.963 45.3202 102.889 45.1953 102.791 45.0903C102.693 44.9854 102.573 44.9028 102.44 44.8482C102.307 44.7937 102.164 44.7684 102.021 44.7743Z" fill="#4E4F52"/>
<path d="M101.571 46.1641H96.3372C96.3003 46.1649 96.2637 46.1578 96.2299 46.1432C96.196 46.1287 96.1657 46.107 96.1409 46.0797C96.1161 46.0524 96.0975 46.0201 96.0863 45.9849C96.0752 45.9498 96.0717 45.9127 96.0761 45.8761C96.0868 45.8013 96.1234 45.7327 96.1796 45.6822C96.2357 45.6317 96.3078 45.6024 96.3833 45.5996H101.613C101.65 45.5994 101.686 45.607 101.72 45.6217C101.753 45.6365 101.784 45.6582 101.808 45.6853C101.833 45.7125 101.851 45.7446 101.863 45.7794C101.874 45.8143 101.878 45.8511 101.874 45.8876C101.865 45.9624 101.83 46.0313 101.774 46.0821C101.718 46.1328 101.646 46.1619 101.571 46.1641Z" fill="#263238"/>
<path d="M98.6391 47.2089H96.2468C96.2098 47.2096 96.1731 47.2025 96.1391 47.188C96.105 47.1734 96.0745 47.1518 96.0494 47.1246C96.0244 47.0974 96.0054 47.0651 95.9937 47.03C95.9821 46.9949 95.978 46.9577 95.9819 46.9209C95.9895 46.8424 96.0258 46.7696 96.084 46.7164C96.1421 46.6632 96.2179 46.6335 96.2967 46.6329H98.6852C98.7221 46.6321 98.7587 46.6392 98.7925 46.6537C98.8264 46.6683 98.8567 46.69 98.8815 46.7173C98.9063 46.7446 98.9249 46.7769 98.9361 46.812C98.9472 46.8472 98.9507 46.8843 98.9463 46.9209C98.9381 46.9977 98.9026 47.0691 98.8462 47.1219C98.7898 47.1748 98.7164 47.2056 98.6391 47.2089Z" fill="#263238"/>
<path d="M110.14 78.6161C110.832 77.9532 110.902 76.9017 110.294 76.2674C109.687 75.6332 108.634 75.6564 107.941 76.3193C107.249 76.9822 107.18 78.0337 107.787 78.6679C108.394 79.3022 109.448 79.2789 110.14 78.6161Z" fill="#263238"/>
<path d="M109.867 77.4708C109.844 77.694 109.741 77.9012 109.576 78.0533C109.411 78.2054 109.196 78.2919 108.972 78.2964C108.865 78.301 108.758 78.2823 108.659 78.2416C108.56 78.201 108.471 78.1392 108.398 78.0608C108.325 77.9823 108.27 77.8889 108.236 77.787C108.203 77.6852 108.192 77.5773 108.204 77.4708C108.227 77.2476 108.33 77.0404 108.495 76.8883C108.66 76.7362 108.875 76.6497 109.099 76.6452C109.206 76.6406 109.313 76.6593 109.412 76.7C109.511 76.7407 109.6 76.8024 109.673 76.8809C109.746 76.9594 109.801 77.0527 109.835 77.1546C109.868 77.2564 109.879 77.3643 109.867 77.4708Z" fill="#4E4F52"/>
<path d="M112.537 70.4415H106.777C106.476 70.4474 106.188 70.5631 105.966 70.7668C105.745 70.9705 105.606 71.2482 105.575 71.5474L105.483 72.5957C105.467 72.7369 105.481 72.8798 105.525 73.0149C105.569 73.15 105.641 73.2742 105.737 73.3792C105.832 73.4843 105.949 73.5677 106.079 73.624C106.21 73.6802 106.351 73.708 106.493 73.7055H108.394L108.966 74.5695C109.004 74.6197 109.054 74.6604 109.111 74.6883C109.168 74.7163 109.231 74.7308 109.294 74.7308C109.357 74.7308 109.42 74.7163 109.477 74.6883C109.534 74.6604 109.584 74.6197 109.622 74.5695L110.344 73.7055H112.245C112.547 73.7004 112.837 73.5846 113.059 73.38C113.281 73.1754 113.421 72.8963 113.451 72.5957L113.543 71.5474C113.558 71.4069 113.543 71.2648 113.5 71.1304C113.456 70.996 113.384 70.8725 113.289 70.768C113.194 70.6634 113.078 70.5803 112.948 70.524C112.818 70.4677 112.678 70.4396 112.537 70.4415Z" fill="#263238"/>
<path d="M112.087 71.8299H106.853C106.816 71.8307 106.779 71.8236 106.745 71.8091C106.712 71.7945 106.681 71.7728 106.657 71.7455C106.632 71.7182 106.613 71.6859 106.602 71.6508C106.591 71.6156 106.587 71.5785 106.592 71.5419C106.599 71.4641 106.635 71.3918 106.692 71.3387C106.75 71.2856 106.825 71.2554 106.903 71.2539H112.129C112.166 71.2537 112.202 71.2612 112.236 71.276C112.269 71.2908 112.299 71.3125 112.324 71.3396C112.348 71.3668 112.367 71.3989 112.379 71.4337C112.39 71.4686 112.394 71.5054 112.39 71.5419C112.384 71.6187 112.349 71.6905 112.293 71.7436C112.237 71.7966 112.164 71.8274 112.087 71.8299Z" fill="white"/>
<path d="M109.155 72.8651H106.751C106.714 72.8659 106.678 72.8588 106.644 72.8443C106.61 72.8297 106.58 72.808 106.555 72.7807C106.53 72.7534 106.512 72.7211 106.5 72.686C106.489 72.6508 106.486 72.6137 106.49 72.5771C106.498 72.4996 106.535 72.4278 106.592 72.3748C106.649 72.3219 106.723 72.2915 106.801 72.2891H109.197C109.234 72.2884 109.271 72.2955 109.305 72.31C109.339 72.3246 109.37 72.3462 109.395 72.3734C109.42 72.4006 109.439 72.4329 109.45 72.468C109.462 72.5031 109.466 72.5403 109.462 72.5771C109.455 72.6543 109.42 72.7261 109.363 72.7791C109.306 72.8321 109.233 72.8627 109.155 72.8651Z" fill="white"/>
<path d="M123.553 56.7353C123.508 57.1854 123.3 57.6033 122.967 57.9097C122.634 58.2162 122.201 58.3899 121.749 58.398C121.536 58.4021 121.324 58.3606 121.129 58.2765C120.933 58.1923 120.757 58.0674 120.614 57.91C120.47 57.7526 120.362 57.5665 120.296 57.3639C120.23 57.1613 120.208 56.947 120.232 56.7353C120.279 56.2863 120.488 55.8698 120.82 55.5643C121.153 55.2587 121.585 55.0852 122.037 55.0764C122.249 55.0725 122.46 55.1138 122.656 55.1978C122.851 55.2817 123.026 55.4063 123.17 55.5632C123.313 55.7201 123.422 55.9058 123.488 56.1079C123.554 56.31 123.576 56.5239 123.553 56.7353Z" fill="#263238"/>
<path d="M122.718 56.7365C122.696 56.9597 122.593 57.1669 122.428 57.319C122.263 57.4711 122.048 57.5576 121.824 57.5621C121.717 57.5667 121.61 57.548 121.511 57.5073C121.411 57.4666 121.322 57.4049 121.249 57.3264C121.176 57.2479 121.121 57.1546 121.088 57.0527C121.054 56.9509 121.043 56.843 121.056 56.7365C121.079 56.514 121.183 56.3077 121.348 56.1564C121.512 56.0051 121.727 55.9191 121.95 55.9147C122.057 55.9102 122.164 55.9288 122.262 55.9693C122.361 56.0097 122.45 56.0711 122.523 56.1491C122.596 56.2272 122.651 56.3201 122.685 56.4215C122.719 56.5228 122.73 56.6303 122.718 56.7365Z" fill="#4E4F52"/>
<path d="M125.388 49.7132H119.628C119.327 49.7182 119.037 49.8335 118.815 50.0373C118.593 50.2411 118.453 50.5192 118.422 50.8191L118.33 51.8713C118.315 52.0121 118.33 52.1546 118.374 52.2892C118.418 52.4239 118.49 52.5476 118.585 52.6522C118.681 52.7568 118.798 52.8399 118.928 52.8959C119.058 52.952 119.198 52.9797 119.34 52.9772H121.26L121.832 53.8412C121.87 53.8921 121.919 53.9333 121.976 53.9618C122.033 53.9902 122.095 54.005 122.159 54.005C122.222 54.005 122.284 53.9902 122.341 53.9618C122.398 53.9333 122.447 53.8921 122.485 53.8412L123.207 52.9772H125.108C125.409 52.9722 125.698 52.8569 125.92 52.6531C126.143 52.4493 126.282 52.1712 126.313 51.8713L126.406 50.8191C126.421 50.6776 126.406 50.5345 126.361 50.3993C126.317 50.2641 126.244 50.14 126.148 50.0353C126.051 49.9305 125.934 49.8476 125.803 49.7921C125.672 49.7365 125.53 49.7096 125.388 49.7132Z" fill="#4E4F52"/>
<path d="M124.938 51.1033H119.704C119.668 51.1042 119.631 51.097 119.597 51.0825C119.563 51.0679 119.533 51.0463 119.508 51.0189C119.483 50.9916 119.465 50.9593 119.454 50.9242C119.442 50.8891 119.439 50.8519 119.443 50.8153C119.451 50.7376 119.487 50.6652 119.544 50.6121C119.601 50.559 119.676 50.5289 119.754 50.5273H124.988C125.025 50.5272 125.061 50.5347 125.095 50.5495C125.128 50.5642 125.158 50.5859 125.183 50.6131C125.208 50.6402 125.226 50.6723 125.238 50.7071C125.249 50.742 125.253 50.7789 125.249 50.8153C125.243 50.8935 125.207 50.9663 125.15 51.0195C125.092 51.0728 125.017 51.1027 124.938 51.1033Z" fill="#263238"/>
<path d="M122.006 52.1464H119.61C119.573 52.1466 119.537 52.139 119.504 52.1243C119.47 52.1095 119.44 52.0878 119.415 52.0606C119.391 52.0335 119.372 52.0014 119.361 51.9666C119.349 51.9317 119.345 51.8948 119.349 51.8584C119.357 51.7799 119.393 51.7071 119.451 51.6539C119.509 51.6007 119.585 51.5709 119.664 51.5704H122.056C122.093 51.5696 122.13 51.5768 122.164 51.5913C122.198 51.6058 122.229 51.6274 122.254 51.6546C122.279 51.6819 122.298 51.7141 122.309 51.7492C122.321 51.7844 122.325 51.8216 122.321 51.8584C122.313 51.9365 122.276 52.0088 122.218 52.0619C122.16 52.1149 122.085 52.1449 122.006 52.1464Z" fill="#263238"/>
<path d="M84.9554 77.6551C84.9095 78.1045 84.7004 78.5214 84.3679 78.8271C84.0353 79.1328 83.6022 79.306 83.1506 79.314C82.9383 79.3174 82.7277 79.2756 82.5328 79.1915C82.3379 79.1073 82.1631 78.9826 82.02 78.8258C81.8769 78.6689 81.7688 78.4834 81.7029 78.2816C81.637 78.0797 81.6147 77.8662 81.6376 77.6551C81.6827 77.2051 81.8913 76.7872 82.224 76.4807C82.5567 76.1742 82.9902 76.0005 83.4424 75.9924C83.6551 75.9889 83.866 76.0308 84.0613 76.1152C84.2565 76.1996 84.4315 76.3246 84.5746 76.4819C84.7178 76.6392 84.8257 76.8252 84.8914 77.0275C84.9571 77.2298 84.9789 77.4437 84.9554 77.6551Z" fill="#263238"/>
<path d="M84.1237 77.6562C84.1003 77.8793 83.9959 78.0861 83.8303 78.2375C83.6648 78.389 83.4495 78.4745 83.2251 78.4779C83.1186 78.4818 83.0124 78.4628 82.9139 78.4221C82.8153 78.3814 82.7266 78.32 82.6538 78.2421C82.581 78.1642 82.5258 78.0716 82.4918 77.9705C82.4579 77.8694 82.4461 77.7622 82.4571 77.6562C82.4805 77.4327 82.5847 77.2254 82.7502 77.0734C82.9157 76.9213 83.131 76.835 83.3557 76.8306C83.4626 76.8266 83.5691 76.8458 83.668 76.8867C83.7669 76.9276 83.8558 76.9893 83.9286 77.0676C84.0015 77.146 84.0566 77.2391 84.0903 77.3407C84.124 77.4422 84.1354 77.5498 84.1237 77.6562Z" fill="#4E4F52"/>
<path d="M86.783 70.6283H81.023C80.7218 70.6341 80.4331 70.7497 80.2111 70.9534C79.989 71.157 79.849 71.4347 79.8173 71.7343L79.7289 72.7864C79.713 72.9274 79.7274 73.0701 79.7712 73.205C79.815 73.3399 79.8871 73.4639 79.9828 73.5687C80.0785 73.6734 80.1954 73.7565 80.3258 73.8123C80.4562 73.8681 80.597 73.8954 80.7389 73.8923H82.6589L83.231 74.7563C83.2689 74.8072 83.3181 74.8485 83.3748 74.8769C83.4315 74.9054 83.494 74.9202 83.5574 74.9202C83.6208 74.9202 83.6834 74.9054 83.74 74.8769C83.7967 74.8485 83.8459 74.8072 83.8838 74.7563L84.6096 73.8923H86.5296C86.8308 73.8865 87.1195 73.771 87.3415 73.5673C87.5635 73.3637 87.7036 73.086 87.7353 72.7864L87.8237 71.7343C87.84 71.5906 87.8249 71.4452 87.7794 71.308C87.7338 71.1708 87.6589 71.0452 87.5598 70.94C87.4608 70.8347 87.3399 70.7523 87.2058 70.6985C87.0716 70.6446 86.9274 70.6207 86.783 70.6283Z" fill="#263238"/>
<path d="M86.3363 72.0233H81.1062C81.0692 72.0241 81.0325 72.0169 80.9984 72.0024C80.9644 71.9879 80.9338 71.9663 80.9088 71.939C80.8837 71.9118 80.8648 71.8796 80.8531 71.8444C80.8415 71.8093 80.8374 71.7721 80.8412 71.7353C80.8488 71.6569 80.8852 71.584 80.9434 71.5308C81.0015 71.4777 81.0773 71.4479 81.1561 71.4473H86.3977C86.4347 71.4466 86.4714 71.4537 86.5055 71.4682C86.5395 71.4828 86.5701 71.5044 86.5951 71.5316C86.6202 71.5588 86.6391 71.5911 86.6508 71.6262C86.6624 71.6613 86.6665 71.6985 86.6627 71.7353C86.6541 71.8154 86.6158 71.8894 86.5554 71.9427C86.495 71.996 86.4168 72.0247 86.3363 72.0233Z" fill="white"/>
<path d="M83.4127 73.0643H81.0242C80.9875 73.0645 80.9512 73.057 80.9177 73.0422C80.8841 73.0275 80.854 73.0058 80.8294 72.9786C80.8048 72.9514 80.7861 72.9194 80.7747 72.8845C80.7633 72.8497 80.7593 72.8128 80.7631 72.7763C80.7698 72.6982 80.8054 72.6254 80.8629 72.5722C80.9204 72.5189 80.9958 72.489 81.0741 72.4883H83.4703C83.5072 72.4875 83.5438 72.4946 83.5776 72.5092C83.6115 72.5238 83.6418 72.5454 83.6666 72.5727C83.6914 72.6001 83.71 72.6324 83.7211 72.6675C83.7323 72.7026 83.7358 72.7397 83.7314 72.7763C83.7238 72.8554 83.6868 72.9288 83.6279 72.9821C83.5689 73.0354 83.4922 73.0647 83.4127 73.0643Z" fill="white"/>
<path d="M57.0042 71.1235L55.8983 73.0435L54.8116 75.0134C54.0974 76.3305 53.4138 77.6553 52.7918 78.9916C52.4807 79.6598 52.185 80.3241 51.9162 80.9961L51.8663 81.1152C51.8677 81.1254 51.8677 81.1357 51.8663 81.1459C51.8521 81.162 51.8405 81.1801 51.8318 81.1996C51.8114 81.2336 51.7946 81.2697 51.7818 81.3072C51.7534 81.4519 51.7694 81.6018 51.8279 81.7372C52.0407 82.2611 52.3552 82.7374 52.7534 83.1388C53.2232 83.6436 53.7233 84.1194 54.251 84.5635L53.3524 86.4835C52.9292 86.3667 52.5148 86.2204 52.1121 86.0457C51.7072 85.8717 51.3146 85.6702 50.937 85.4428C50.075 84.9439 49.3361 84.2576 48.7751 83.4345C48.4219 82.9109 48.1849 82.3178 48.0801 81.695C48.0358 81.3483 48.0358 80.9973 48.0801 80.6505C48.0976 80.4784 48.1272 80.3078 48.1684 80.1398L48.2298 79.8902L48.2798 79.7404C48.5255 78.9532 48.7828 78.1776 49.0823 77.4364C49.6615 75.9442 50.3151 74.4819 51.0407 73.055C51.3978 72.3446 51.7703 71.6419 52.162 70.9545C52.5537 70.2672 52.93 69.5875 53.387 68.8848L57.0042 71.1235Z" fill="#FFC3BD"/>
<path d="M53.2703 84.3562L55.2901 83.8301L55.4053 87.0902C55.4053 87.0902 53.8271 87.3245 52.8594 86.3568L53.2703 84.3562Z" fill="#FFC3BD"/>
<path d="M58.146 83.2812L57.6929 86.142L55.4043 87.0905L55.2891 83.8304L58.146 83.2812Z" fill="#FFC3BD"/>
<path d="M66.4954 55.7702C66.5377 55.9929 66.6951 56.1542 66.841 56.1197C66.987 56.0851 67.0676 55.8854 67.0215 55.6627C66.9754 55.44 66.8218 55.2787 66.6759 55.3133C66.53 55.3478 66.434 55.5475 66.4954 55.7702Z" fill="#263238"/>
<path d="M66.6719 56.1562C67.0779 56.783 67.5675 57.3515 68.1272 57.8458C67.9971 57.9861 67.838 58.0962 67.6609 58.1685C67.4838 58.2408 67.293 58.2735 67.102 58.2644L66.6719 56.1562Z" fill="#ED847E"/>
<path d="M65.4275 54.7003C65.3935 54.7005 65.3607 54.6882 65.3353 54.6657C65.3107 54.6406 65.2969 54.6068 65.2969 54.5717C65.2969 54.5365 65.3107 54.5027 65.3353 54.4776C65.4769 54.3156 65.6557 54.1904 65.8564 54.1129C66.0571 54.0353 66.2736 54.0076 66.4873 54.0321C66.5224 54.0382 66.5537 54.0581 66.5742 54.0872C66.5947 54.1164 66.6028 54.1525 66.5967 54.1877C66.5906 54.2228 66.5708 54.2541 66.5416 54.2746C66.5125 54.2951 66.4764 54.3032 66.4412 54.2971C66.2741 54.2819 66.1058 54.3066 65.9502 54.3694C65.7946 54.4322 65.6562 54.5311 65.5465 54.658C65.5314 54.674 65.5128 54.6862 65.4921 54.6936C65.4714 54.7009 65.4492 54.7032 65.4275 54.7003Z" fill="#263238"/>
<path d="M60.1413 58.9082C60.5253 60.9703 60.9477 64.7527 59.5039 66.1312C59.5039 66.1312 60.0684 68.224 63.9045 68.224C68.1285 68.224 65.9167 66.1312 65.9167 66.1312C63.6127 65.5821 63.678 63.8733 64.0773 62.2682L60.1413 58.9082Z" fill="#FFC3BD"/>
<path d="M58.6733 66.512C58.3661 65.9398 58.0282 65.2832 58.7309 65.0797C59.4989 64.8531 64.464 64.4345 65.9232 64.8569C65.4739 65.6557 66.2343 66.6349 66.2343 66.6349L58.6733 66.512Z" fill="#263238"/>
<path d="M46.1832 162.719C46.297 162.76 46.4178 162.777 46.5384 162.771C46.6591 162.764 46.7772 162.733 46.8859 162.681C46.928 162.642 46.9569 162.591 46.9686 162.536C46.9803 162.48 46.9742 162.422 46.9512 162.37C46.9388 162.326 46.9169 162.286 46.887 162.252C46.8571 162.218 46.82 162.192 46.7784 162.174C46.3944 161.989 45.5227 162.347 45.4843 162.362C45.4729 162.368 45.4632 162.376 45.4564 162.387C45.4497 162.398 45.446 162.411 45.4459 162.423C45.4441 162.436 45.4465 162.449 45.4527 162.46C45.459 162.471 45.4687 162.48 45.4805 162.485C45.7058 162.587 45.9414 162.666 46.1832 162.719ZM46.644 162.266L46.7208 162.293C46.7456 162.303 46.7677 162.319 46.7856 162.339C46.8036 162.359 46.8168 162.382 46.8245 162.408C46.859 162.527 46.8245 162.565 46.7976 162.577C46.6478 162.708 46.0834 162.577 45.6878 162.427C45.9916 162.307 46.3179 162.255 46.644 162.274V162.266Z" fill="#4E4F52"/>
<path d="M45.4929 162.496H45.5275C45.8462 162.404 46.5297 161.916 46.5374 161.598C46.5376 161.547 46.5206 161.499 46.4891 161.459C46.4577 161.42 46.4137 161.393 46.3646 161.383C46.3162 161.367 46.2652 161.36 46.2144 161.364C46.1637 161.368 46.1142 161.382 46.0689 161.406C45.6849 161.598 45.4545 162.381 45.443 162.412C45.4368 162.422 45.4336 162.433 45.4336 162.444C45.4336 162.456 45.4368 162.467 45.443 162.477C45.4489 162.484 45.4566 162.49 45.4654 162.493C45.4741 162.497 45.4836 162.498 45.4929 162.496ZM46.2916 161.498H46.3223C46.403 161.525 46.403 161.567 46.403 161.582C46.403 161.77 45.946 162.151 45.635 162.308C45.7235 161.998 45.9027 161.721 46.1495 161.513C46.1943 161.494 46.2438 161.489 46.2916 161.498Z" fill="#4E4F52"/>
<path d="M67.0086 163.199C67.3696 163.199 67.719 163.149 67.8381 162.987C67.869 162.944 67.8857 162.893 67.8857 162.84C67.8857 162.787 67.869 162.735 67.8381 162.692C67.8152 162.653 67.7846 162.62 67.7483 162.593C67.712 162.567 67.6707 162.548 67.6269 162.538C67.1584 162.411 66.1715 162.972 66.1293 162.995C66.118 163.002 66.1091 163.013 66.1036 163.025C66.0982 163.037 66.0964 163.051 66.0985 163.064C66.1008 163.078 66.1072 163.09 66.1168 163.1C66.1264 163.109 66.1389 163.116 66.1523 163.118C66.4347 163.171 66.7213 163.198 67.0086 163.199ZM67.4579 162.65C67.5 162.645 67.5425 162.645 67.5846 162.65C67.639 162.663 67.6858 162.698 67.7152 162.746C67.7651 162.826 67.7459 162.868 67.7152 162.891C67.5808 163.076 66.8704 163.08 66.3443 163.003C66.6897 162.815 67.0676 162.696 67.4579 162.65Z" fill="#4E4F52"/>
<path d="M66.1594 163.122H66.1863C66.528 162.969 67.2039 162.354 67.1501 162.039C67.1501 161.966 67.0848 161.874 66.9005 161.855C66.832 161.845 66.762 161.849 66.6956 161.869C66.6292 161.889 66.568 161.924 66.5165 161.97C66.1556 162.262 66.0826 163.022 66.0788 163.057C66.0771 163.068 66.0787 163.079 66.0835 163.09C66.0883 163.1 66.096 163.109 66.1056 163.114C66.1221 163.123 66.1411 163.126 66.1594 163.122ZM66.8468 161.97H66.889C67.008 161.97 67.0157 162.032 67.0196 162.047C67.0503 162.239 66.5895 162.719 66.2516 162.926C66.2865 162.603 66.4206 162.299 66.6356 162.055C66.6956 162.006 66.7698 161.979 66.8468 161.978V161.97Z" fill="#4E4F52"/>
<path d="M63.0547 163.053H65.8771L66.1574 156.521H63.335L63.0547 163.053Z" fill="#FFC3BD"/>
<path d="M42.3516 161.747L45.1087 162.342L47.8773 156.259L45.1202 155.664L42.3516 161.747Z" fill="#FFC3BD"/>
<path d="M45.3713 162.066L42.2763 161.398C42.2213 161.384 42.1632 161.39 42.1125 161.416C42.0619 161.441 42.0219 161.484 41.9998 161.536L40.9246 163.867C40.8984 163.924 40.8855 163.986 40.8868 164.048C40.8881 164.111 40.9035 164.172 40.932 164.228C40.9604 164.284 41.0011 164.333 41.0511 164.37C41.101 164.408 41.1589 164.434 41.2203 164.447C42.307 164.662 42.8446 164.712 44.2078 165.007C45.0449 165.188 46.938 165.648 48.0939 165.898C49.2497 166.148 49.6529 165.038 49.1998 164.831C47.1761 163.905 46.3313 163.091 45.7822 162.335C45.6832 162.197 45.5368 162.101 45.3713 162.066Z" fill="#263238"/>
<path d="M65.8578 162.719H62.7858C62.7297 162.719 62.6754 162.738 62.6315 162.773C62.5877 162.808 62.5568 162.856 62.5438 162.911L61.987 165.418C61.973 165.479 61.9731 165.542 61.9871 165.603C62.0011 165.664 62.0288 165.72 62.068 165.769C62.1073 165.817 62.157 165.856 62.2135 165.883C62.27 165.909 62.3317 165.922 62.3941 165.921C63.5038 165.902 65.109 165.837 66.5067 165.837C68.1387 165.837 69.5518 165.925 71.468 165.925C72.62 165.925 72.9464 164.754 72.4626 164.65C70.2546 164.166 68.4536 164.117 66.5451 162.938C66.3407 162.802 66.1028 162.727 65.8578 162.719Z" fill="#263238"/>
<path d="M54.4558 66.7681C51.81 67.3748 49.6289 74.1217 49.6289 74.1217L54.9396 78.1691C56.3151 76.7065 57.2853 74.9104 57.7543 72.9582C58.6644 69.4062 57.1591 66.146 54.4558 66.7681Z" fill="#4E4F52"/>
<path opacity="0.2" d="M56.723 71.7305C55.2869 73.1513 54.803 75.7394 54.707 77.9897L54.9413 78.1702C56.3167 76.7054 57.2879 74.9085 57.7598 72.9554C57.8136 72.7442 57.8597 72.533 57.8981 72.3257L56.723 71.7305Z" fill="black"/>
<path d="M70.274 66.9146C70.274 66.9146 72.4397 69.0343 71.6218 80.3047C71.4068 83.2846 70.2663 86.9057 69.675 91.2948H56.4922C56.3847 88.9908 56.6881 77.682 54.457 66.7687C56.1298 66.4469 57.8217 66.234 59.522 66.1313C61.6578 66.0083 63.799 66.0083 65.9348 66.1313C67.3994 66.2789 68.8502 66.5408 70.274 66.9146Z" fill="#263238"/>
<path opacity="0.6" d="M71.7851 76.3507C71.5355 74.7149 71.2705 73.2787 71.0171 72.0499L70.9326 72L66.8008 73.7318C67.0005 76.3008 69.7153 78.8928 71.6046 80.4096C71.6046 80.375 71.6046 80.3366 71.6046 80.3059C71.7121 78.8352 71.7659 77.5258 71.7851 76.3507Z" fill="black"/>
<path opacity="0.2" d="M66.1558 156.521L66.0099 159.889H63.1875L63.3334 156.521H66.1558Z" fill="black"/>
<path opacity="0.2" d="M45.116 155.664L47.8731 156.259L46.4446 159.397L43.6875 158.801L45.116 155.664Z" fill="black"/>
<path d="M58.9634 56.8131C59.6891 59.5011 59.9733 61.1369 61.6514 62.262C64.1627 63.9516 67.2846 62.0124 67.3845 59.1439C67.4728 56.5635 66.2709 52.5737 63.3717 52.0323C62.7318 51.9068 62.0703 51.9474 61.4505 52.1501C60.8307 52.3529 60.2732 52.711 59.8312 53.1904C59.3891 53.6698 59.0773 54.2545 58.9253 54.8887C58.7734 55.5229 58.7865 56.1854 58.9634 56.8131Z" fill="#FFC3BD"/>
<path d="M65.0731 91.2949C65.0731 91.2949 61.8706 112.857 60.1157 120.932C58.1957 129.764 47.8699 159.04 47.8699 159.04L42.8203 157.946C42.8203 157.946 50.0357 134.099 51.6523 121.735C52.3704 116.224 52.4741 106.866 53.3995 99.9772C53.8368 96.905 54.8881 93.9522 56.4907 91.2949H65.0731Z" fill="#263238"/>
<path d="M49.081 157.342L48.1402 159.166L42.457 157.937L42.937 156.229L49.081 157.342Z" fill="#4E4F52"/>
<path opacity="0.6" d="M63.0535 98.9756C59.3518 99.7013 59.7435 113.506 60.1889 120.606C61.2564 115.587 62.8193 105.93 63.8868 99.0754C63.6285 98.9482 63.3346 98.9129 63.0535 98.9756Z" fill="black"/>
<path d="M69.6586 91.2949C69.6586 91.2949 70.8106 112.388 70.5072 120.99C70.1885 129.941 67.0512 159.236 67.0512 159.236H62.2858C62.2858 159.236 62.1092 130.463 61.9018 121.673C61.6676 112.092 60.5117 91.2949 60.5117 91.2949H69.6586Z" fill="#263238"/>
<path d="M67.9707 157.344C67.9899 157.344 67.6981 159.325 67.6981 159.325H61.8997L61.7461 157.555L67.9707 157.344Z" fill="#4E4F52"/>
<path d="M71.6515 69.4883C72.0854 70.1641 72.5769 70.9206 73.0723 71.6233C73.5677 72.326 74.0784 73.0364 74.6083 73.7161C75.6118 75.0629 76.7309 76.3195 77.9529 77.4716C78.2486 77.7443 78.552 77.9977 78.8592 78.2396L79.0896 78.4124C79.0475 78.3901 79.0021 78.3746 78.9552 78.3664C78.8553 78.3472 78.8054 78.3664 78.8323 78.3664C79.0585 78.3829 79.2851 78.3392 79.4889 78.2396C79.8244 78.0954 80.1491 77.9273 80.4605 77.7366C81.8906 76.7936 83.2463 75.7422 84.5155 74.5916L86.1629 75.9241C85.1637 77.6008 83.9199 79.1189 82.4726 80.4284C82.0619 80.7907 81.6199 81.1158 81.1517 81.4C80.5605 81.768 79.9008 82.0123 79.2125 82.118C78.443 82.228 77.6594 82.062 77.0006 81.6496L76.6665 81.4384C76.2288 81.1542 75.8102 80.8547 75.4109 80.5398C73.8908 79.3047 72.5046 77.9134 71.2752 76.3888C70.6723 75.6438 70.0925 74.8912 69.551 74.1116C69.0096 73.3321 68.4873 72.5756 67.9805 71.6848L71.6515 69.4883Z" fill="#FFC3BD"/>
<path d="M66.1133 71.1808C65.2109 74.9632 72.0537 78.665 72.0537 78.665L76.4966 73.4579C75.1627 71.489 73.6427 69.6528 71.9577 67.9744C68.8473 64.9907 66.7968 68.3008 66.1133 71.1808Z" fill="#4E4F52"/>
<path d="M84.0625 75.3638L85.1108 71.9961L87.8718 73.3708C87.8718 73.3708 87.4686 75.8284 85.4603 76.2547L84.0625 75.3638Z" fill="#FFC3BD"/>
<path d="M86.2153 71.0625L88.7075 71.746L87.8703 73.3703L85.1094 71.9956L86.2153 71.0625Z" fill="#FFC3BD"/>
<path d="M61.8268 60.7978C62.5436 60.638 63.1995 60.2759 63.7168 59.7545C64.234 59.2332 64.591 58.5744 64.7452 57.8564C64.7452 57.8564 64.1308 56.2359 65.2828 55.1338C66.4348 54.0318 65.8665 52.8298 64.7145 52.6033C63.5625 52.3767 61.7961 53.7553 61.7961 53.7553L60.3906 56.2743L60.9628 58.8164L61.8268 60.7978Z" fill="#263238"/>
<path opacity="0.3" d="M61.8268 60.7978C62.5436 60.638 63.1995 60.2759 63.7168 59.7545C64.234 59.2332 64.591 58.5744 64.7452 57.8564C64.7452 57.8564 64.1308 56.2359 65.2828 55.1338C66.4348 54.0318 65.8665 52.8298 64.7145 52.6033C63.5625 52.3767 61.7961 53.7553 61.7961 53.7553L60.3906 56.2743L60.9628 58.8164L61.8268 60.7978Z" fill="white"/>
<path d="M63.561 56.9222C63.7479 57.5961 64.1531 58.189 64.713 58.608C65.4465 59.1533 65.9956 58.608 65.9418 57.7862C65.8958 57.0182 65.458 55.8662 64.6478 55.6281C63.8375 55.3901 63.3614 56.112 63.561 56.9222Z" fill="#FFC3BD"/>
<path d="M62.2108 60.0452C61.5235 58.4056 60.2563 54.1624 64.7337 52.6033C64.7337 52.6033 64.4073 48.5099 66.5846 50.1764C66.5846 50.1764 64.5033 47.5192 64.2153 50.2379C64.2153 50.2379 63.7046 49.3124 64.4726 48.7019C64.4726 48.7019 60.3753 47.3272 60.4713 50.4299C60.3583 50.1107 60.3255 49.7687 60.3757 49.4339C60.4259 49.0991 60.5577 48.7818 60.7593 48.5099C60.7593 48.5099 59.8684 48.4561 59.5151 49.8616C59.1619 51.267 55.6828 50.9752 56.0015 54.1739C56.0015 54.1739 52.9295 58.0369 60.3062 61.3355C60.3062 61.3355 59.3347 61.9345 59.8876 62.8907C59.9882 62.5553 60.1567 62.2441 60.3826 61.9766C60.6085 61.709 60.8871 61.4908 61.2009 61.3355C61.2009 61.3355 60.7209 62.4299 61.7462 62.7524C61.6439 62.4696 61.6181 62.1648 61.6714 61.8688C61.7247 61.5728 61.8551 61.2961 62.0495 61.0667C62.1711 60.9296 62.2509 60.7605 62.2795 60.5795C62.308 60.3985 62.2842 60.2131 62.2108 60.0452Z" fill="#263238"/>
<path opacity="0.1" d="M64.8461 61.7272C63.8708 61.7733 63.9284 62.7256 63.9437 62.8792C64.7892 62.7969 65.5809 62.4268 66.1863 61.8309C65.833 61.8923 65.4567 61.7003 64.8461 61.7272Z" fill="black"/>
<path d="M64.3516 52.1928C64.3516 52.1928 64.8546 50.338 65.8031 50.7067C66.7516 51.0753 66.0796 52.5768 66.5711 53.2795C66.3433 53.1825 66.1448 53.0276 65.9952 52.8303C65.8457 52.6329 65.7503 52.3999 65.7186 52.1544C65.5804 51.2788 64.7202 52.6036 64.7202 52.6036L64.3516 52.1928Z" fill="#263238"/>
<path d="M64.7264 59.6192L65.6403 58.5709L65.2908 58.2637H64.158L63.8086 58.5709L64.7264 59.6192Z" fill="#4E4F52"/>
<path opacity="0.2" d="M64.5996 58.2637H64.158L63.8086 58.5709L64.7264 59.6192L64.2502 58.5709L64.5996 58.2637Z" fill="white"/>
</svg>
