<svg width="193" height="193" viewBox="0 0 193 193" fill="none" xmlns="http://www.w3.org/2000/svg">
<circle cx="96.5" cy="96.5" r="96.5" fill="#2AB7CA"/>
<path d="M186.986 149.164H5V149.255H186.986V149.164Z" fill="#E6E6E6"/>
<path d="M50.4297 154.672H38.375V154.763H50.4297V154.672Z" fill="#E6E6E6"/>
<path d="M34.5627 154.672H27.5781V154.763H34.5627V154.672Z" fill="#E6E6E6"/>
<path d="M81.6331 156.012H74.6484V156.103H81.6331V156.012Z" fill="#E6E6E6"/>
<path d="M118.052 158.043H102.332V158.134H118.052V158.043Z" fill="#E6E6E6"/>
<path d="M99.093 158.043H96.7891V158.134H99.093V158.043Z" fill="#E6E6E6"/>
<path d="M170.007 156.012H135.91V156.103H170.007V156.012Z" fill="#E6E6E6"/>
<path d="M91.2602 132.931H20.9809C20.4303 132.93 19.9026 132.711 19.5137 132.321C19.1247 131.932 18.9062 131.404 18.9063 130.853V32.0601C18.911 31.5127 19.1316 30.9893 19.5201 30.6035C19.9085 30.2178 20.4335 30.0009 20.9809 30H91.2602C91.8114 30 92.34 30.219 92.7298 30.6087C93.1195 30.9985 93.3385 31.5271 93.3385 32.0783V130.853C93.3385 131.404 93.1195 131.933 92.7298 132.323C92.34 132.712 91.8114 132.931 91.2602 132.931ZM20.9809 30.0728C20.4545 30.0738 19.9499 30.2836 19.578 30.6561C19.2061 31.0287 18.9972 31.5336 18.9972 32.0601V130.853C18.9972 131.379 19.2061 131.884 19.578 132.257C19.9499 132.629 20.4545 132.839 20.9809 132.84H91.2602C91.787 132.839 92.2919 132.63 92.6644 132.257C93.0368 131.885 93.2465 131.38 93.2475 130.853V32.0601C93.2465 31.5333 93.0368 31.0284 92.6644 30.6559C92.2919 30.2834 91.787 30.0738 91.2602 30.0728H20.9809Z" fill="#E6E6E6"/>
<path d="M169.99 132.931H99.7072C99.1563 132.93 98.6282 132.711 98.2387 132.321C97.8491 131.932 97.6299 131.404 97.6289 130.853V32.0601C97.6347 31.5123 97.856 30.9889 98.2451 30.6033C98.6341 30.2177 99.1594 30.0009 99.7072 30H169.99C170.537 30.0019 171.061 30.2192 171.449 30.6048C171.836 30.9904 172.056 31.5133 172.061 32.0601V130.853C172.061 131.403 171.843 131.93 171.455 132.32C171.067 132.709 170.54 132.929 169.99 132.931ZM99.7072 30.0728C99.1804 30.0738 98.6755 30.2834 98.303 30.6559C97.9305 31.0284 97.7209 31.5333 97.7199 32.0601V130.853C97.7209 131.38 97.9305 131.885 98.303 132.257C98.6755 132.63 99.1804 132.839 99.7072 132.84H169.99C170.517 132.839 171.022 132.63 171.394 132.257C171.767 131.885 171.976 131.38 171.977 130.853V32.0601C171.976 31.5333 171.767 31.0284 171.394 30.6559C171.022 30.2834 170.517 30.0738 169.99 30.0728H99.7072Z" fill="#E6E6E6"/>
<path d="M102.328 118.074H94.3242V149.823H102.328V118.074Z" fill="#E0E0E0"/>
<path d="M100.805 149.824H102.327V145.5H99.2109L100.805 149.824Z" fill="#FAFAFA"/>
<path d="M67.2537 118.074H59.25V149.823H67.2537V118.074Z" fill="#E0E0E0"/>
<path d="M102.327 118.074H65.9297V147.17H102.327V118.074Z" fill="#FAFAFA"/>
<path d="M101.006 119.505V127.203H67.2404V119.505H100.995M101.137 119.363H67.1094V127.342H101.148V119.363H101.137Z" fill="#E0E0E0"/>
<path d="M67.4475 149.824H65.9297V145.5H69.0416L67.4475 149.824Z" fill="#FAFAFA"/>
<path d="M83.3242 123.351C83.3242 123.51 83.3714 123.666 83.4598 123.798C83.5482 123.93 83.6738 124.034 83.8208 124.094C83.9678 124.155 84.1295 124.171 84.2855 124.14C84.4416 124.109 84.5849 124.033 84.6974 123.92C84.8099 123.808 84.8865 123.664 84.9175 123.508C84.9486 123.352 84.9326 123.19 84.8717 123.043C84.8109 122.896 84.7078 122.771 84.5755 122.682C84.4432 122.594 84.2877 122.547 84.1286 122.547C83.9153 122.547 83.7107 122.632 83.5598 122.782C83.409 122.933 83.3242 123.138 83.3242 123.351Z" fill="#E6E6E6"/>
<path d="M101.006 128.771V136.469H67.2404V128.771H100.995M101.137 128.633H67.1094V136.611H101.148V128.636L101.137 128.633Z" fill="#E0E0E0"/>
<path d="M83.3242 132.64C83.3242 132.799 83.3714 132.955 83.4598 133.087C83.5482 133.219 83.6738 133.323 83.8208 133.383C83.9678 133.444 84.1295 133.46 84.2855 133.429C84.4416 133.398 84.5849 133.322 84.6974 133.209C84.8099 133.097 84.8865 132.953 84.9175 132.797C84.9486 132.641 84.9326 132.479 84.8717 132.332C84.8109 132.186 84.7078 132.06 84.5755 131.971C84.4432 131.883 84.2877 131.836 84.1286 131.836C83.9153 131.836 83.7107 131.921 83.5598 132.072C83.409 132.222 83.3242 132.427 83.3242 132.64Z" fill="#E6E6E6"/>
<path d="M101.006 138.04V145.742H67.2404V138.04H100.995M101.137 137.898H67.1094V145.88H101.148V137.898H101.137Z" fill="#E0E0E0"/>
<path d="M83.3242 141.892C83.3249 142.051 83.3727 142.206 83.4616 142.338C83.5504 142.47 83.6763 142.572 83.8233 142.633C83.9703 142.693 84.132 142.708 84.2878 142.677C84.4435 142.645 84.5865 142.568 84.6987 142.456C84.8108 142.343 84.887 142.2 84.9178 142.044C84.9485 141.888 84.9324 141.726 84.8714 141.58C84.8104 141.433 84.7073 141.308 84.5751 141.219C84.4429 141.131 84.2875 141.084 84.1286 141.084C84.0227 141.084 83.9178 141.105 83.8199 141.146C83.7221 141.186 83.6333 141.246 83.5585 141.321C83.4838 141.396 83.4246 141.485 83.3844 141.583C83.3442 141.681 83.3237 141.786 83.3242 141.892Z" fill="#E6E6E6"/>
<path d="M62.367 99.6348H54.3633V149.826H62.367V99.6348Z" fill="#E0E0E0"/>
<path d="M60.8445 149.824H62.3659V145.5H59.2539L60.8445 149.824Z" fill="#FAFAFA"/>
<path d="M32.453 99.6348H24.4492V149.826H32.453V99.6348Z" fill="#E0E0E0"/>
<path d="M62.3647 99.6348H31.125V147.173H62.3647V99.6348Z" fill="#FAFAFA"/>
<path d="M61.0179 100.974V111.737H32.4716V100.974H61.0179ZM61.1853 100.811H32.2969V111.893H61.178V100.814L61.1853 100.811Z" fill="#E0E0E0"/>
<path d="M61.0196 113.05V141.597H47.4216V113.05H61.0196ZM61.187 112.883H47.2578V141.764H61.187V112.883Z" fill="#E0E0E0"/>
<path d="M46.0696 113.05V141.597H32.4716V113.05H46.0696ZM46.2334 112.883H32.2969V141.764H46.2261V112.883H46.2334Z" fill="#E0E0E0"/>
<path d="M32.6464 149.824H31.125V145.5H34.2406L32.6464 149.824Z" fill="#FAFAFA"/>
<path d="M45.9414 106.361C45.9407 106.521 45.9875 106.678 46.0758 106.811C46.1642 106.944 46.2901 107.048 46.4377 107.11C46.5853 107.172 46.7478 107.188 46.9048 107.158C47.0618 107.127 47.2061 107.05 47.3195 106.937C47.4329 106.824 47.5102 106.68 47.5416 106.524C47.5731 106.367 47.5573 106.204 47.4963 106.056C47.4352 105.908 47.3317 105.782 47.1987 105.693C47.0658 105.604 46.9094 105.557 46.7494 105.557C46.5358 105.557 46.3308 105.641 46.1794 105.792C46.0279 105.943 45.9424 106.147 45.9414 106.361Z" fill="#E6E6E6"/>
<path d="M48.8203 126.644C48.8203 126.804 48.8678 126.96 48.9568 127.093C49.0457 127.226 49.1721 127.33 49.32 127.391C49.4678 127.452 49.6305 127.468 49.7873 127.436C49.9442 127.405 50.0881 127.327 50.201 127.214C50.3138 127.101 50.3905 126.956 50.4213 126.799C50.452 126.642 50.4355 126.48 50.3738 126.332C50.3121 126.185 50.208 126.059 50.0746 125.97C49.9412 125.882 49.7847 125.835 49.6247 125.836C49.5188 125.836 49.4139 125.857 49.316 125.898C49.2182 125.938 49.1294 125.998 49.0546 126.073C48.9799 126.148 48.9207 126.237 48.8805 126.335C48.8403 126.433 48.8198 126.538 48.8203 126.644Z" fill="#E6E6E6"/>
<path d="M43.0625 126.644C43.0632 126.803 43.111 126.958 43.1998 127.09C43.2887 127.222 43.4145 127.324 43.5616 127.385C43.7086 127.445 43.8702 127.46 44.026 127.429C44.1818 127.397 44.3248 127.32 44.4369 127.208C44.5491 127.095 44.6253 126.952 44.6561 126.796C44.6868 126.64 44.6707 126.478 44.6097 126.332C44.5487 126.185 44.4456 126.059 44.3134 125.971C44.1812 125.883 44.0258 125.836 43.8669 125.836C43.7609 125.836 43.6561 125.857 43.5582 125.898C43.4604 125.938 43.3716 125.998 43.2968 126.073C43.2221 126.148 43.1629 126.237 43.1227 126.335C43.0825 126.433 43.062 126.538 43.0625 126.644Z" fill="#E6E6E6"/>
<path d="M42.1486 85.6406H38.7746C39.0856 87.2773 39.2814 88.9338 39.3606 90.5979C39.3606 92.4178 36.791 99.6353 40.4525 99.6353C44.1141 99.6353 41.5445 92.436 41.5445 90.5979C41.6297 88.9334 41.8316 87.2769 42.1486 85.6406Z" fill="#E0E0E0"/>
<path d="M29.3125 93.0215V95.2053C29.3163 96.376 29.7831 97.4977 30.6109 98.3255C31.4387 99.1533 32.5604 99.6201 33.7311 99.6239H35.9149C37.0857 99.6201 38.2073 99.1533 39.0351 98.3255C39.863 97.4977 40.3297 96.376 40.3336 95.2053V93.0215H29.3125Z" fill="#F5F5F5"/>
<path d="M76.2188 113.445C76.2188 115.993 79.0687 118.075 82.5519 118.075H85.6966C89.1798 118.075 92.0297 115.993 92.0297 113.445H76.2188Z" fill="#E0E0E0"/>
<path d="M159.544 109.709C157.637 111.267 155.002 114.117 152.592 118.128C150.984 120.799 150.015 123.587 149.59 127.292C149.59 123.107 149.615 118.612 149.63 114.368C150.114 113.276 151.22 110.757 152.014 108.77C154.66 102.135 155.653 100.5 158.03 94.7789C161.208 87.1355 164.461 78.0871 163.53 78.8114C161.63 80.2855 154.35 93.9163 153.564 95.8671C151.421 101.073 150.096 106.58 149.637 112.191C149.637 108.188 149.666 104.548 149.681 101.723C149.732 92.5113 149.888 89.5377 149.964 88.6205C150.259 88.1546 150.605 87.6123 150.809 87.3211C152.52 84.8461 153.178 82.7423 154.787 79.0516C157.073 73.8287 159.038 64.551 158.463 65.0169C156.068 66.9678 154.183 71.1535 151.701 76.4929C149.218 81.8324 149.928 84.9007 149.437 89.4576C149.335 90.353 149.255 93.7306 149.196 98.4077C148.556 93.4213 147.348 90.1382 145.145 87.1537C142.438 83.4812 139.817 81.0025 137.895 79.7068C135.973 78.4111 141.215 87.4303 143.719 91.3539C145.95 94.8626 148.006 97.9527 149.178 100.999C149.116 107.343 149.087 115.372 149.087 122.837C148.512 119.438 147.573 115.773 146.321 112.937C144.814 109.531 142.499 104.304 140.654 102.531C140.214 102.106 142.583 112.271 144.105 114.972C145.626 117.673 146.743 120.224 147.701 121.756C147.923 122.12 148.665 123.493 149.087 124.286C149.087 133.411 149.138 141.462 149.218 144.203H149.611C149.586 143.496 149.579 138.852 149.59 132.708C150.54 129.374 152.709 125.567 154.5 122.095C156.45 118.335 161.451 108.162 159.544 109.709Z" fill="#E0E0E0"/>
<path d="M155.117 149.822H143.71L142.848 138.641H155.98L155.117 149.822Z" fill="#F0F0F0"/>
<path d="M156.828 139.946H141.996L141.574 136.172H157.254L156.828 139.946Z" fill="#F5F5F5"/>
<path d="M50.2287 37.4609H29.8281V59.8634H50.2287V37.4609Z" fill="#E0E0E0"/>
<path d="M52.4372 37.4609H31.3633V59.8634H52.4372V37.4609Z" fill="#F5F5F5"/>
<path d="M50.6719 58.0985V39.2266H33.1284V58.0985H50.6719Z" fill="white"/>
<path d="M46.418 53.5205V43.7988H37.3805V53.5205H46.418Z" fill="#F5F5F5"/>
<path d="M154.245 40.0703H135.293V60.8822H154.245V40.0703Z" fill="#E0E0E0"/>
<path d="M156.297 40.0703H136.723V60.8822H156.297V40.0703Z" fill="#F5F5F5"/>
<path d="M154.66 59.2418V41.7129H138.365V59.2418H154.66Z" fill="white"/>
<path d="M146.51 55.5619C149.319 55.5619 151.595 53.2855 151.595 50.4773C151.595 47.6691 149.319 45.3926 146.51 45.3926C143.702 45.3926 141.426 47.6691 141.426 50.4773C141.426 53.2855 143.702 55.5619 146.51 55.5619Z" fill="#F5F5F5"/>
<path d="M71.423 50.8203H56.2891V67.4393H71.423V50.8203Z" fill="#E0E0E0"/>
<path d="M73.0584 50.8203H57.4258V67.4393H73.0584V50.8203Z" fill="#F5F5F5"/>
<path d="M71.75 66.1273V52.1289H58.738V66.1273H71.75Z" fill="white"/>
<path d="M65.2432 55.5859L61.6836 61.7516H68.8029L65.2432 55.5859Z" fill="#F5F5F5"/>
<path d="M95.9924 165.602C134.967 165.602 166.563 163.757 166.563 161.481C166.563 159.206 134.967 157.361 95.9924 157.361C57.0174 157.361 25.4219 159.206 25.4219 161.481C25.4219 163.757 57.0174 165.602 95.9924 165.602Z" fill="#F5F5F5"/>
<path d="M132.118 69.4637L128.508 68.0078C128.508 68.0078 123.743 76.6958 122.378 77.1362C120.522 77.7331 116.678 79.3928 114.4 79.684C114.091 80.048 113.585 81.18 113.632 81.5912C116.693 82.614 123.419 81.2564 124.861 80.1863C128.14 77.7586 132.118 69.4637 132.118 69.4637Z" fill="#E58A7B"/>
<path d="M133.229 67.4874C133.903 69.9733 130.256 74.9743 130.256 74.9743L125.477 72.2955C125.477 72.2955 126.372 70.239 127.464 68.1462C129.215 64.7649 132.461 64.6521 133.229 67.4874Z" fill="#5E6064"/>
<path opacity="0.2" d="M133.229 67.4874C133.903 69.9733 130.256 74.9743 130.256 74.9743L125.477 72.2955C125.477 72.2955 126.372 70.239 127.464 68.1462C129.215 64.7649 132.461 64.6521 133.229 67.4874Z" fill="black"/>
<path opacity="0.2" d="M127.371 73.3672L129.253 74.4227L129.584 68.6465C128.488 69.4873 127.717 72.0205 127.371 73.3672Z" fill="black"/>
<path d="M130.085 65.6184C130.085 65.6184 126.366 73.8951 128.535 89.3057H143.192C143.425 87.0564 142.653 76.079 145.445 65.4801C143.837 65.1659 142.21 64.958 140.575 64.8577C138.501 64.7375 136.422 64.7375 134.347 64.8577C132.91 65.0037 131.485 65.258 130.085 65.6184Z" fill="#5E6064"/>
<path opacity="0.2" d="M130.085 65.6184C130.085 65.6184 126.366 73.8951 128.535 89.3057H143.192C143.425 87.0564 142.653 76.079 145.445 65.4801C143.837 65.1659 142.21 64.958 140.575 64.8577C138.501 64.7375 136.422 64.7375 134.347 64.8577C132.91 65.0037 131.485 65.258 130.085 65.6184Z" fill="black"/>
<g style="mix-blend-mode:multiply">
<path d="M126.684 161.808C126.662 162.201 132.22 162.517 139.095 162.517C145.971 162.517 151.568 162.201 151.59 161.808C151.612 161.415 146.058 161.102 139.179 161.102C132.3 161.102 126.709 161.418 126.684 161.808Z" fill="#E8ECF1"/>
</g>
<path d="M136.467 151.48L133.867 152.486L136.106 158.271L138.706 157.265L136.467 151.48Z" fill="#E58A7B"/>
<path d="M148.062 159.008H145.321L144.316 152.664H147.057L148.062 159.008Z" fill="#E58A7B"/>
<path d="M145.132 158.691H148.212C148.265 158.692 148.317 158.711 148.357 158.745C148.398 158.78 148.425 158.828 148.434 158.881L148.83 161.316C148.839 161.377 148.834 161.439 148.816 161.498C148.798 161.557 148.768 161.611 148.727 161.658C148.686 161.704 148.636 161.741 148.58 161.766C148.524 161.791 148.463 161.804 148.401 161.803C147.327 161.785 146.81 161.72 145.456 161.72C144.623 161.72 142.909 161.807 141.751 161.807C140.594 161.807 140.517 160.671 140.994 160.566C143.134 160.104 143.964 159.474 144.677 158.862C144.803 158.752 144.965 158.691 145.132 158.691Z" fill="#263238"/>
<path d="M136.032 157.755L138.944 156.903C138.996 156.889 139.051 156.892 139.101 156.914C139.151 156.935 139.192 156.972 139.217 157.02L140.309 159.204C140.334 159.259 140.347 159.319 140.347 159.38C140.347 159.441 140.333 159.501 140.307 159.556C140.281 159.612 140.243 159.66 140.196 159.699C140.15 159.738 140.095 159.767 140.036 159.782C138.977 160.074 138.267 160.252 136.942 160.638C136.029 160.903 135.097 161.337 134.194 161.624C133.568 161.824 132.098 161.832 131.337 161.832C130.212 161.832 129.961 160.645 130.445 160.59C131.665 160.456 131.828 160.518 132.502 160.179C133.603 159.698 134.602 159.008 135.443 158.148C135.601 157.968 135.805 157.832 136.032 157.755Z" fill="#263238"/>
<path d="M114.86 79.6712L111.847 78.4082L110.605 81.7495C111.841 81.9376 113.097 81.9376 114.333 81.7495L114.86 79.6712Z" fill="#E58A7B"/>
<path d="M109.604 78.3203L109.523 80.5405L110.604 81.7417L111.846 78.4004L109.604 78.3203Z" fill="#E58A7B"/>
<path d="M136.826 151.97L134.219 152.977L135.374 155.968L137.981 154.961L136.826 151.97Z" fill="#CF6F64"/>
<path d="M147.057 152.664H144.316L144.837 155.936H147.578L147.057 152.664Z" fill="#CF6F64"/>
<path opacity="0.2" d="M128.066 85.139C128.121 85.7978 128.183 86.4711 128.263 87.1627L139.16 83.6248C140.862 83.1205 142.341 82.051 143.353 80.593C143.397 79.6212 143.451 78.5984 143.535 77.532C143.572 77.0151 143.615 76.4837 143.663 75.945C143.71 75.4064 143.775 74.8095 143.845 74.2344L128.066 85.139Z" fill="black"/>
<path d="M131.626 73.1994L131.262 73.1557C131.476 71.3358 132.834 69.9018 134.264 69.9382V70.3021C133.012 70.2767 131.819 71.5688 131.626 73.1994Z" fill="white"/>
<path d="M133.57 76.5589H133.508V76.1949C134.76 76.2422 135.936 74.9355 136.128 73.3086L136.492 73.3523C136.299 75.1321 134.986 76.5589 133.57 76.5589Z" fill="white"/>
<path d="M140.371 57.8438C139.858 59.8492 139.254 63.5217 140.575 64.8575C140.575 64.8575 139.65 66.8921 135.927 66.8921C132.524 66.8921 134.347 64.8575 134.347 64.8575C136.611 64.3261 136.651 62.6737 136.353 61.1086L140.371 57.8438Z" fill="#E58A7B"/>
<path d="M138.732 59.1758L136.355 61.1085C136.429 61.4681 136.472 61.8334 136.483 62.2004C137.178 62.8919 138.572 61.1412 138.714 60.2459C138.786 59.8934 138.792 59.5305 138.732 59.1758Z" fill="#CF6F64"/>
<path d="M132.267 57.8176C132.432 58.1042 132.655 58.3536 132.921 58.5503C133.187 58.7469 133.491 58.8866 133.814 58.9604C134.687 59.1533 135.124 58.349 134.884 57.5409C134.669 56.813 133.952 55.8339 133.064 56.0013C132.874 56.0405 132.696 56.1247 132.545 56.2469C132.394 56.369 132.274 56.5256 132.196 56.7035C132.118 56.8813 132.084 57.0753 132.096 57.2691C132.109 57.463 132.167 57.651 132.267 57.8176Z" fill="#CF6F64"/>
<path d="M133.713 51.4024C132.352 52.0248 131.871 57.4334 133.582 58.2341C135.293 59.0349 136.29 50.2195 133.713 51.4024Z" fill="#263238"/>
<path d="M140.784 54.8259C140.456 57.5411 140.42 59.1389 138.964 60.5293C138.513 60.9907 137.943 61.3184 137.317 61.4764C136.691 61.6343 136.034 61.6162 135.418 61.4242C134.802 61.2321 134.251 60.8735 133.826 60.3881C133.401 59.9026 133.118 59.3091 133.009 58.6731C132.569 56.2344 133.177 52.2053 135.899 51.1243C136.471 50.872 137.1 50.7773 137.721 50.8499C138.342 50.9226 138.932 51.1601 139.431 51.5377C139.929 51.9153 140.317 52.4193 140.555 52.9975C140.793 53.5757 140.872 54.2069 140.784 54.8259Z" fill="#E58A7B"/>
<path d="M136.31 52.8062C138.326 52.293 139.808 51.9436 139.276 53.6215C138.574 55.8636 137.729 58.0328 138.861 58.1311C139.553 58.193 142.61 56.8972 142.221 55.5833C141.882 54.4404 143.313 54.1274 143.567 53.5487C144.51 51.4522 141.813 51.7288 142.294 50.4549C142.774 49.181 140.11 47.1282 138.654 48.151C136.284 49.8034 132.219 49.778 134.355 47.0591C135.888 45.1191 133.154 45.5159 133.154 45.5159C133.154 45.5159 134.807 46.4949 132.026 48.0091C129.085 49.6251 131.782 53.9673 136.31 52.8062Z" fill="#263238"/>
<path d="M141.856 57.8176C141.458 58.3936 140.86 58.8009 140.178 58.9604C139.279 59.1533 138.934 58.349 139.272 57.5409C139.574 56.813 140.404 55.8339 141.263 56.0013C142.122 56.1688 142.319 57.1042 141.856 57.8176Z" fill="#E58A7B"/>
<path d="M128.536 89.3047C128.536 89.3047 126.075 111.325 125.882 119.682C125.686 128.373 134.221 155.493 134.221 155.493L138.589 153.673C138.589 153.673 133.493 128.894 134.221 120.359C134.992 111.052 138.181 89.3192 138.181 89.3192L128.536 89.3047Z" fill="#5E6064"/>
<path opacity="0.2" d="M134.649 95.3505C132.688 99.4197 134.009 107.467 135.072 112.235C135.476 108.868 135.956 105.214 136.411 101.833C136.367 96.6353 135.963 92.6207 134.649 95.3505Z" fill="black"/>
<path d="M138.392 152.232C138.414 152.232 138.909 153.623 138.909 153.623L133.872 155.741L133.078 154.263L138.392 152.232Z" fill="#5E6064"/>
<path d="M133.734 89.3047C133.734 89.3047 135.616 110.248 136.861 118.091C138.229 126.685 143.594 155.304 143.594 155.304H148.614C148.614 155.304 145.607 127.38 145.039 118.87C144.421 109.64 143.19 89.3047 143.19 89.3047H133.734Z" fill="#5E6064"/>
<path d="M148.689 153.997C148.711 153.997 148.856 155.398 148.856 155.398H143.338L142.945 153.789L148.689 153.997Z" fill="#5E6064"/>
<path opacity="0.2" d="M146.769 152.337C146.757 152.337 146.746 152.333 146.737 152.326C146.729 152.318 146.723 152.308 146.721 152.297C146.692 152.042 143.981 126.819 143.471 119.175C142.918 110.884 141.804 92.4927 141.793 92.3071C141.793 92.301 141.793 92.295 141.795 92.2893C141.797 92.2835 141.8 92.2783 141.805 92.2738C141.809 92.2694 141.814 92.2658 141.819 92.2634C141.825 92.261 141.831 92.2597 141.837 92.2598C141.849 92.2597 141.86 92.2642 141.869 92.2723C141.878 92.2804 141.883 92.2915 141.884 92.3034C141.884 92.4891 143.009 110.866 143.562 119.172C144.072 126.815 146.783 152.02 146.809 152.293C146.81 152.299 146.809 152.305 146.808 152.311C146.806 152.317 146.804 152.323 146.8 152.328C146.796 152.332 146.791 152.336 146.786 152.339C146.781 152.342 146.775 152.344 146.769 152.344V152.337Z" fill="black"/>
<path d="M136.619 55.584C136.619 55.806 136.481 55.9843 136.336 55.9843C136.19 55.9843 136.084 55.806 136.099 55.584C136.114 55.3619 136.237 55.1836 136.383 55.1836C136.528 55.1836 136.634 55.3656 136.619 55.584Z" fill="#263238"/>
<path d="M134.123 55.584C134.123 55.806 133.981 55.9843 133.839 55.9843C133.697 55.9843 133.587 55.806 133.598 55.584C133.609 55.3619 133.74 55.1836 133.886 55.1836C134.032 55.1836 134.137 55.3656 134.123 55.584Z" fill="#263238"/>
<path d="M134.911 55.6953C134.607 56.3733 134.215 57.0084 133.746 57.5843C134.11 57.9483 134.791 57.7809 134.791 57.7809L134.911 55.6953Z" fill="#DF5753"/>
<path d="M134.976 58.7093C134.968 58.7093 134.959 58.7076 134.952 58.7043C134.944 58.701 134.937 58.6961 134.931 58.6899C134.925 58.6838 134.921 58.6765 134.918 58.6686C134.915 58.6607 134.914 58.6522 134.914 58.6438C134.915 58.6261 134.923 58.6094 134.936 58.5972C134.949 58.5851 134.966 58.5783 134.983 58.5783C135.262 58.5802 135.537 58.5198 135.789 58.4013C136.041 58.2829 136.263 58.1096 136.439 57.894C136.452 57.883 136.468 57.877 136.485 57.877C136.501 57.877 136.518 57.883 136.53 57.894C136.542 57.9062 136.549 57.9225 136.549 57.9395C136.549 57.9565 136.542 57.9728 136.53 57.985C136.342 58.2141 136.104 58.3981 135.835 58.5234C135.566 58.6487 135.273 58.7123 134.976 58.7093Z" fill="#263238"/>
<path d="M137.066 54.9143C137.049 54.9233 137.03 54.9279 137.01 54.9279C136.99 54.9279 136.971 54.9233 136.954 54.9143C136.817 54.8263 136.662 54.7716 136.501 54.7545C136.34 54.7374 136.177 54.7585 136.025 54.8161C136.011 54.8234 135.995 54.8278 135.978 54.8289C135.962 54.8299 135.945 54.8277 135.929 54.8223C135.914 54.8168 135.9 54.8083 135.887 54.7973C135.875 54.7862 135.865 54.7728 135.858 54.7578C135.845 54.7254 135.844 54.689 135.857 54.6564C135.87 54.6238 135.895 54.5975 135.927 54.5831C136.117 54.5054 136.324 54.4747 136.528 54.4938C136.733 54.5128 136.93 54.5809 137.103 54.6923C137.117 54.7018 137.129 54.714 137.138 54.7281C137.147 54.7422 137.153 54.758 137.156 54.7746C137.16 54.7912 137.159 54.8083 137.156 54.8247C137.152 54.8412 137.145 54.8568 137.136 54.8707C137.117 54.8915 137.093 54.9067 137.066 54.9143Z" fill="#263238"/>
<path d="M133.159 54.186C133.14 54.1813 133.122 54.1712 133.109 54.1569C133.096 54.145 133.087 54.1309 133.08 54.1153C133.074 54.0996 133.07 54.0829 133.07 54.0659C133.07 54.049 133.074 54.0322 133.08 54.0166C133.087 54.0009 133.096 53.9868 133.109 53.9749C133.248 53.8184 133.422 53.6963 133.616 53.618C133.811 53.5397 134.021 53.5074 134.23 53.5236C134.246 53.5262 134.262 53.5322 134.277 53.5412C134.291 53.5502 134.303 53.5621 134.313 53.5761C134.322 53.5901 134.329 53.6059 134.332 53.6225C134.335 53.6392 134.335 53.6563 134.331 53.6728C134.324 53.7065 134.304 53.7362 134.276 53.7563C134.248 53.7764 134.213 53.7856 134.179 53.782C134.013 53.7716 133.848 53.7989 133.694 53.862C133.541 53.9251 133.404 54.0222 133.294 54.146C133.278 54.1644 133.256 54.1779 133.232 54.1849C133.209 54.192 133.183 54.1924 133.159 54.186Z" fill="#263238"/>
<path d="M146.852 69.0609L143.067 68.0527C143.067 68.0527 139.354 77.1921 138.04 77.7853C136.257 78.6006 131.74 81.4251 129.818 82.7608C129.713 83.2158 129.796 84.4205 130.037 84.7518C133.312 84.1548 139.584 81.7417 140.894 80.5151C143.882 77.7162 146.852 69.0609 146.852 69.0609Z" fill="#E58A7B"/>
<path d="M144.211 159.175C144.026 159.189 143.842 159.139 143.69 159.033C143.643 158.99 143.608 158.937 143.589 158.877C143.569 158.817 143.565 158.753 143.578 158.691C143.58 158.652 143.593 158.615 143.614 158.583C143.636 158.551 143.666 158.525 143.701 158.509C144.007 158.352 144.862 158.895 144.961 158.956C144.971 158.963 144.98 158.973 144.984 158.985C144.989 158.997 144.99 159.01 144.986 159.022C144.983 159.035 144.977 159.046 144.968 159.056C144.959 159.065 144.948 159.073 144.935 159.077C144.698 159.135 144.455 159.168 144.211 159.175ZM143.847 158.607C143.819 158.601 143.791 158.601 143.763 158.607C143.749 158.614 143.738 158.625 143.73 158.639C143.722 158.652 143.718 158.668 143.719 158.683C143.71 158.726 143.711 158.77 143.724 158.811C143.737 158.853 143.76 158.89 143.792 158.92C143.934 159.047 144.291 159.062 144.76 158.971C144.481 158.787 144.166 158.663 143.836 158.607H143.847Z" fill="#5E6064"/>
<path d="M144.915 159.075C144.905 159.078 144.895 159.078 144.885 159.075C144.612 158.922 144.099 158.322 144.176 158.016C144.187 157.967 144.214 157.924 144.253 157.893C144.292 157.862 144.341 157.845 144.39 157.845C144.439 157.838 144.489 157.842 144.536 157.857C144.583 157.871 144.627 157.896 144.663 157.929C144.965 158.187 144.984 158.98 144.984 159.02C144.985 159.032 144.983 159.045 144.977 159.055C144.971 159.066 144.962 159.074 144.951 159.079C144.939 159.081 144.926 159.08 144.915 159.075ZM144.427 157.965H144.401C144.318 157.965 144.307 158.012 144.303 158.03C144.259 158.209 144.583 158.664 144.853 158.878C144.851 158.571 144.756 158.271 144.58 158.02C144.537 157.983 144.483 157.963 144.427 157.965Z" fill="#5E6064"/>
<path d="M134.548 158.717C134.325 158.795 134.082 158.795 133.86 158.717C133.809 158.69 133.766 158.65 133.735 158.602C133.704 158.553 133.685 158.498 133.681 158.44C133.677 158.404 133.681 158.368 133.695 158.334C133.708 158.3 133.73 158.271 133.758 158.247C134.049 157.985 135.239 158.247 135.374 158.298C135.387 158.302 135.398 158.309 135.406 158.32C135.414 158.33 135.418 158.343 135.418 158.357C135.418 158.37 135.415 158.384 135.407 158.395C135.4 158.407 135.39 158.416 135.378 158.422C135.11 158.543 134.832 158.642 134.548 158.717ZM133.954 158.284C133.913 158.292 133.874 158.311 133.842 158.338C133.83 158.347 133.821 158.359 133.816 158.372C133.811 158.386 133.81 158.401 133.812 158.415C133.815 158.453 133.827 158.49 133.847 158.523C133.867 158.555 133.896 158.582 133.929 158.601C134.122 158.702 134.57 158.622 135.148 158.379C134.758 158.28 134.355 158.248 133.954 158.284Z" fill="#5E6064"/>
<path d="M135.366 158.424H135.336C134.972 158.359 134.244 157.94 134.223 157.627C134.223 157.554 134.255 157.452 134.43 157.394C134.489 157.373 134.552 157.364 134.614 157.368C134.677 157.372 134.738 157.388 134.794 157.416C135.187 157.609 135.395 158.308 135.406 158.341C135.408 158.352 135.408 158.363 135.405 158.374C135.401 158.385 135.395 158.395 135.387 158.402C135.382 158.411 135.374 158.419 135.366 158.424ZM134.503 157.503H134.467C134.354 157.543 134.354 157.591 134.354 157.605C134.354 157.795 134.881 158.14 135.249 158.257C135.164 157.964 134.985 157.708 134.74 157.529C134.666 157.492 134.582 157.483 134.503 157.503Z" fill="#5E6064"/>
<path d="M130.127 82.5469L126.331 84.2939L125.891 85.3859L127.292 86.3285C127.292 86.3285 129.913 86.0446 130.659 84.3595L130.127 82.5469Z" fill="#E58A7B"/>
<path d="M130.288 84.8141C130.203 84.0847 129.962 83.3821 129.582 82.7541L130.183 82.3027C130.634 83.0264 130.923 83.8401 131.027 84.6868L130.288 84.8141Z" fill="#263238"/>
<path d="M130.936 83.0631C131.016 83.1894 131.056 83.3372 131.049 83.4867C131.042 83.6361 130.989 83.7798 130.898 83.8983C130.807 84.0167 130.681 84.1041 130.538 84.1487C130.396 84.1932 130.243 84.1926 130.1 84.1471C129.958 84.1016 129.833 84.0132 129.742 83.8941C129.652 83.775 129.6 83.6309 129.594 83.4815C129.589 83.332 129.629 83.1844 129.71 83.0587C129.791 82.9331 129.909 82.8355 130.048 82.7792C130.203 82.7 130.384 82.6853 130.55 82.7385C130.717 82.7917 130.855 82.9083 130.936 83.0631Z" fill="#263238"/>
<path d="M123.766 85.7052L124.272 86.2147L127.678 84.7589L126.332 84.293L123.766 85.7052Z" fill="#E58A7B"/>
<path opacity="0.2" d="M138.392 152.232C138.414 152.232 138.909 153.623 138.909 153.623L133.872 155.741L133.078 154.263L138.392 152.232Z" fill="black"/>
<path opacity="0.2" d="M148.689 153.997C148.711 153.997 148.856 155.398 148.856 155.398H143.338L142.945 153.789L148.689 153.997Z" fill="black"/>
<path d="M147.84 68.0131C148.841 71.2415 144.928 75.6565 144.928 75.6565L139.523 73.4509C140.164 71.5849 140.903 69.754 141.736 67.9658C143.396 64.388 146.828 64.7556 147.84 68.0131Z" fill="#5E6064"/>
<path opacity="0.2" d="M147.84 68.0131C148.841 71.2415 144.928 75.6565 144.928 75.6565L139.523 73.4509C140.164 71.5849 140.903 69.754 141.736 67.9658C143.396 64.388 146.828 64.7556 147.84 68.0131Z" fill="black"/>
<path d="M94.1266 35.668H91.8008V36.0429H94.1266V35.668Z" fill="#5E6064"/>
<path d="M124.235 50.5053L123.953 56.752L124.328 56.7688L124.609 50.5221L124.235 50.5053Z" fill="#5E6064"/>
<path d="M123.511 37.3496H80.5628L76.5664 126.785H119.515L123.511 37.3496Z" fill="#5E6064"/>
<path opacity="0.56" d="M122.23 38.5801H79.2816L75.2852 128.015H118.234L122.23 38.5801Z" fill="#FAFAFA"/>
<path opacity="0.07" d="M120.949 39.8066H78.0001L74 129.242H116.949L120.949 39.8066Z" fill="#5E6064"/>
<path d="M116.059 78.8125H79.3995L79.0938 85.6552H115.753L116.059 78.8125Z" fill="white"/>
<path d="M99.5613 73.8203H79.6229L79.4883 76.8813H99.4267L99.5613 73.8203Z" fill="#5E6064"/>
<path d="M115.235 97.2812H78.5753L78.2695 104.124H114.929L115.235 97.2812Z" fill="white"/>
<path opacity="0.47" d="M108.512 113.365H83.8598L83.4922 121.566H108.144L108.512 113.365Z" fill="#5E6064"/>
<path d="M106.863 122.839H82.2112C82.2005 122.842 82.1892 122.842 82.1785 122.839C82.1749 122.828 82.1749 122.817 82.1785 122.806L82.5425 114.602C82.5424 114.596 82.5436 114.591 82.5458 114.586C82.548 114.581 82.5513 114.576 82.5554 114.572C82.5595 114.569 82.5644 114.566 82.5697 114.564C82.575 114.562 82.5806 114.561 82.5861 114.562H107.238C107.242 114.56 107.247 114.559 107.253 114.559C107.258 114.559 107.263 114.56 107.267 114.562C107.27 114.566 107.271 114.571 107.271 114.577C107.271 114.582 107.27 114.587 107.267 114.591L106.91 122.813C106.906 122.822 106.899 122.829 106.891 122.833C106.882 122.838 106.873 122.84 106.863 122.839ZM82.2549 122.751H106.819L107.183 114.635H82.6189L82.2549 122.751Z" fill="white"/>
<path d="M95.2575 92.2871H78.7987L78.6641 95.3518H95.1192L95.2575 92.2871Z" fill="#5E6064"/>
<path d="M108.042 56.7082C107.948 58.6996 107.24 60.6131 106.015 62.1859C105.108 63.374 103.941 64.3385 102.603 65.0054C101.266 65.6723 99.793 66.0238 98.2984 66.0331C97.0907 66.0423 95.8938 65.8042 94.7815 65.3333C93.6693 64.8624 92.6652 64.1688 91.8312 63.2952C90.9971 62.4216 90.3508 61.3865 89.9319 60.2537C89.5131 59.1208 89.3306 57.9142 89.3957 56.7082C89.5237 54.2055 90.6029 51.8463 92.4127 50.1129C94.2225 48.3796 96.6261 47.4031 99.1319 47.3832C100.341 47.3719 101.539 47.6086 102.652 48.0787C103.766 48.5487 104.771 49.2421 105.606 50.1161C106.441 50.99 107.088 52.0259 107.507 53.1597C107.926 54.2935 108.108 55.5012 108.042 56.7082Z" fill="white"/>
<path d="M108.921 49.3345C108.897 49.864 108.709 50.3729 108.382 50.7904C108.14 51.1059 107.83 51.3621 107.474 51.5393C107.118 51.7166 106.727 51.8102 106.329 51.8131C105.944 51.8155 105.564 51.7235 105.223 51.5452C104.882 51.3669 104.589 51.1078 104.371 50.7904C104.082 50.3615 103.939 49.851 103.964 49.3345C103.999 48.67 104.286 48.044 104.767 47.5841C105.248 47.1242 105.886 46.865 106.551 46.8595C106.872 46.8565 107.191 46.9194 107.486 47.0441C107.782 47.1688 108.049 47.3528 108.271 47.5847C108.493 47.8165 108.665 48.0914 108.777 48.3923C108.889 48.6933 108.938 49.0139 108.921 49.3345Z" fill="#5E6064"/>
<path d="M83.3524 82.2345C83.335 82.5278 83.2069 82.8036 82.9942 83.0062C82.7814 83.2089 82.4997 83.3233 82.2059 83.3264C82.0641 83.3281 81.9234 83.3007 81.7925 83.2459C81.6617 83.191 81.5435 83.1099 81.4453 83.0076C81.347 82.9052 81.2708 82.7838 81.2213 82.6509C81.1719 82.5179 81.1502 82.3762 81.1577 82.2345C81.1735 81.9406 81.301 81.6639 81.5141 81.4609C81.7272 81.2579 82.0099 81.144 82.3042 81.1426C82.4459 81.1415 82.5864 81.1692 82.717 81.2243C82.8475 81.2793 82.9655 81.3604 83.0637 81.4626C83.1618 81.5649 83.238 81.6861 83.2877 81.8188C83.3374 81.9515 83.3594 82.093 83.3524 82.2345Z" fill="#263238"/>
<path d="M88.2551 82.2346C88.2384 82.5282 88.1107 82.8044 87.8977 83.0072C87.6848 83.21 87.4026 83.3242 87.1085 83.3265C86.967 83.3277 86.8267 83.2999 86.6963 83.2448C86.5659 83.1897 86.4481 83.1086 86.3503 83.0063C86.2524 82.904 86.1765 82.7828 86.1273 82.65C86.078 82.5173 86.0565 82.3759 86.0639 82.2346C86.0797 81.9413 86.2067 81.6651 86.419 81.4622C86.6314 81.2593 86.9131 81.145 87.2068 81.1427C87.3487 81.141 87.4894 81.1684 87.6202 81.2232C87.751 81.2781 87.8692 81.3592 87.9675 81.4615C88.0657 81.5639 88.1419 81.6853 88.1914 81.8182C88.2409 81.9512 88.2625 82.0929 88.2551 82.2346Z" fill="#263238"/>
<path d="M93.1687 82.2346C93.152 82.5282 93.0242 82.8044 92.8113 83.0072C92.5984 83.21 92.3162 83.3242 92.0221 83.3265C91.8804 83.3276 91.74 83.2999 91.6094 83.2448C91.4788 83.1898 91.3608 83.1087 91.2627 83.0065C91.1645 82.9042 91.0883 82.783 91.0387 82.6503C90.989 82.5176 90.967 82.3761 90.9739 82.2346C90.9905 81.941 91.1183 81.6647 91.3313 81.4619C91.5442 81.2591 91.8264 81.145 92.1204 81.1427C92.2623 81.141 92.403 81.1684 92.5338 81.2232C92.6646 81.2781 92.7828 81.3592 92.8811 81.4615C92.9793 81.5639 93.0555 81.6853 93.105 81.8182C93.1545 81.9512 93.1761 82.0929 93.1687 82.2346Z" fill="#263238"/>
<path d="M82.5241 100.703C82.5066 100.997 82.3786 101.272 82.1659 101.475C81.9531 101.678 81.6714 101.792 81.3776 101.795C81.2359 101.796 81.0955 101.769 80.9649 101.714C80.8343 101.659 80.7163 101.577 80.6181 101.475C80.52 101.373 80.4438 101.252 80.3941 101.119C80.3445 100.986 80.3224 100.845 80.3294 100.703C80.346 100.41 80.4738 100.133 80.6867 99.9306C80.8997 99.7278 81.1818 99.6137 81.4759 99.6114C81.6176 99.6102 81.758 99.638 81.8886 99.693C82.0192 99.748 82.1372 99.8292 82.2354 99.9314C82.3335 100.034 82.4097 100.155 82.4594 100.288C82.509 100.42 82.5311 100.562 82.5241 100.703Z" fill="#263238"/>
<path d="M87.4308 100.703C87.4142 100.996 87.287 101.272 87.0748 101.475C86.8626 101.677 86.5814 101.792 86.288 101.795C86.1461 101.797 86.0054 101.769 85.8746 101.715C85.7437 101.66 85.6255 101.579 85.5273 101.476C85.429 101.374 85.3528 101.253 85.3034 101.12C85.2539 100.987 85.2322 100.845 85.2397 100.703C85.2564 100.41 85.3841 100.133 85.5971 99.9306C85.81 99.7278 86.0922 99.6137 86.3862 99.6114C86.5278 99.6102 86.6681 99.638 86.7985 99.693C86.9289 99.7481 87.0466 99.8293 87.1445 99.9316C87.2424 100.034 87.3182 100.155 87.3675 100.288C87.4167 100.421 87.4383 100.562 87.4308 100.703Z" fill="#263238"/>
<path d="M92.3521 100.701C92.3354 100.995 92.2077 101.271 91.9947 101.474C91.7818 101.677 91.4996 101.791 91.2056 101.793C91.064 101.794 90.9238 101.766 90.7934 101.711C90.6631 101.655 90.5453 101.574 90.4473 101.472C90.3493 101.37 90.273 101.249 90.2232 101.117C90.1733 100.984 90.1509 100.843 90.1573 100.701C90.1748 100.408 90.3028 100.132 90.5156 99.9297C90.7284 99.727 91.01 99.6126 91.3038 99.6094C91.4457 99.6078 91.5864 99.6352 91.7172 99.69C91.8481 99.7449 91.9663 99.826 92.0645 99.9283C92.1628 100.031 92.239 100.152 92.2884 100.285C92.3379 100.418 92.3595 100.56 92.3521 100.701Z" fill="#263238"/>
<path d="M97.2505 100.701C97.233 100.995 97.105 101.27 96.8922 101.473C96.6795 101.676 96.3978 101.79 96.104 101.793C95.9624 101.794 95.8222 101.766 95.6919 101.711C95.5615 101.655 95.4438 101.574 95.3457 101.472C95.2477 101.37 95.1714 101.249 95.1216 101.116C95.0717 100.984 95.0493 100.843 95.0558 100.701C95.0732 100.408 95.2013 100.132 95.414 99.9296C95.6268 99.727 95.9085 99.6126 96.2023 99.6094C96.344 99.6082 96.4844 99.636 96.615 99.6911C96.7456 99.7461 96.8636 99.8272 96.9617 99.9294C97.0599 100.032 97.1361 100.153 97.1858 100.286C97.2354 100.418 97.2575 100.56 97.2505 100.701Z" fill="#263238"/>
<path d="M102.181 100.701C102.163 100.995 102.035 101.27 101.822 101.473C101.61 101.676 101.328 101.79 101.034 101.793C100.892 101.795 100.752 101.768 100.621 101.713C100.49 101.658 100.372 101.577 100.273 101.474C100.175 101.372 100.099 101.251 100.049 101.118C100 100.985 99.9783 100.843 99.9858 100.701C100.002 100.408 100.13 100.131 100.343 99.9287C100.556 99.7259 100.838 99.6117 101.132 99.6094C101.274 99.6082 101.414 99.636 101.545 99.6911C101.676 99.7461 101.794 99.8272 101.892 99.9294C101.99 100.032 102.066 100.153 102.116 100.286C102.165 100.418 102.188 100.56 102.181 100.701Z" fill="#263238"/>
<path d="M101.434 56.2232C102.957 54.7334 103.038 52.3455 101.614 50.8896C100.19 49.4338 97.8013 49.4612 96.2779 50.951C94.7545 52.4408 94.6737 54.8287 96.0974 56.2845C97.5211 57.7404 99.9102 57.7129 101.434 56.2232Z" fill="#5E6064"/>
<path d="M106.017 62.1872C105.11 63.3752 103.943 64.3397 102.605 65.0066C101.268 65.6735 99.795 66.0251 98.3004 66.0343C96.8511 66.0466 95.421 65.7021 94.1363 65.0312C92.8516 64.3603 91.7517 63.3836 90.9336 62.1872C92.7025 60.4255 95.5014 59.2754 98.6025 59.2754C101.704 59.2754 104.404 60.4255 106.017 62.1872Z" fill="#5E6064"/>
<path opacity="0.1" d="M101.434 56.2232C102.957 54.7334 103.038 52.3455 101.614 50.8896C100.19 49.4338 97.8013 49.4612 96.2779 50.951C94.7545 52.4408 94.6737 54.8287 96.0974 56.2845C97.5211 57.7404 99.9102 57.7129 101.434 56.2232Z" fill="white"/>
<path opacity="0.1" d="M106.017 62.1872C105.11 63.3752 103.943 64.3397 102.605 65.0066C101.268 65.6735 99.795 66.0251 98.3004 66.0343C96.8511 66.0466 95.421 65.7021 94.1363 65.0312C92.8516 64.3603 91.7517 63.3836 90.9336 62.1872C92.7025 60.4255 95.5014 59.2754 98.6025 59.2754C101.704 59.2754 104.404 60.4255 106.017 62.1872Z" fill="white"/>
<path d="M52.4645 87.3028C52.1188 88.0598 51.7548 88.8933 51.4381 89.7013C51.1215 90.5093 50.7975 91.3428 50.5173 92.1727C49.9451 93.8081 49.5092 95.4881 49.2143 97.1955L49.1342 97.7305C49.1265 97.8223 49.1352 97.9147 49.1597 98.0035C49.2456 98.3052 49.3808 98.5905 49.56 98.8479C50.0274 99.5143 50.5697 100.125 51.1761 100.668C51.8154 101.262 52.4861 101.823 53.1852 102.346C53.884 102.884 54.6192 103.408 55.3435 103.903L54.6629 105.181C52.9334 104.427 51.2918 103.486 49.7675 102.375C48.9543 101.782 48.2204 101.087 47.5837 100.307C47.2063 99.8434 46.912 99.3176 46.7138 98.7533C46.5985 98.4008 46.5396 98.0323 46.5391 97.6614C46.5391 97.574 46.5391 97.4466 46.5391 97.3848V97.2064L46.5755 96.8424C46.7841 94.9462 47.1829 93.0757 47.7656 91.2591C48.0495 90.3638 48.3516 89.472 48.6974 88.6021C49.0432 87.7322 49.3999 86.8805 49.8403 85.9961L52.4645 87.3028Z" fill="#E58A7B"/>
<path d="M54.8332 103.678L57.4065 102.375L56.7404 105.199C56.7404 105.199 54.9752 105.694 54.1562 104.835L54.8332 103.678Z" fill="#E58A7B"/>
<path d="M59.7592 102.837L59.075 105.174L56.7383 105.199L57.4044 102.375L59.7592 102.837Z" fill="#E58A7B"/>
<path d="M63.3901 73.6758C63.5277 74.1802 63.7193 74.6683 63.9615 75.1317C63.8908 75.2119 63.7996 75.2715 63.6977 75.3042C63.5959 75.3369 63.487 75.3414 63.3828 75.3173L63.3901 73.6758Z" fill="#DF5753"/>
<path d="M63.3159 73.6965C63.4667 73.6965 63.5889 73.5091 63.5889 73.2779C63.5889 73.0468 63.4667 72.8594 63.3159 72.8594C63.1652 72.8594 63.043 73.0468 63.043 73.2779C63.043 73.5091 63.1652 73.6965 63.3159 73.6965Z" fill="#263238"/>
<path d="M63.2344 72.8753L63.7876 72.7188C63.7876 72.7188 63.5183 73.1482 63.2344 72.8753Z" fill="#263238"/>
<path d="M56.2858 76.3477C56.617 78.0401 56.9483 81.1448 55.7617 82.2768C55.7617 82.2768 56.2276 83.9947 59.376 83.9947C62.8373 83.9947 61.0284 82.2768 61.0284 82.2768C59.1394 81.8254 59.1867 80.4241 59.5179 79.1066L56.2858 76.3477Z" fill="#E58A7B"/>
<path d="M55.3646 72.4887C55.5393 75.3168 55.5539 76.5179 56.9807 77.9701C59.1317 80.154 62.5676 79.3241 63.241 76.5142C63.8488 73.9664 63.463 69.7735 60.6932 68.6488C60.0852 68.3983 59.4233 68.3071 58.7703 68.3838C58.1172 68.4604 57.4945 68.7024 56.961 69.0868C56.4275 69.4713 56.0009 69.9855 55.7216 70.5807C55.4423 71.176 55.3194 71.8327 55.3646 72.4887Z" fill="#E58A7B"/>
<path d="M55.6442 69.3069C54.2247 69.8237 52.332 69.4379 53.0746 73.8165C53.8607 78.4535 52.6523 79.9785 52.6523 79.9785C52.6523 79.9785 58.0355 81.125 63.5315 79.9094C63.5315 79.9094 61.8536 76.9757 62.3231 74.8138C62.9236 72.084 62.4505 71.0758 62.4505 71.0758C62.4505 71.0758 57.6388 68.5789 55.6442 69.3069Z" fill="#263238"/>
<path d="M61.6484 73.9622C61.6499 74.4999 61.8039 75.0262 62.0925 75.48C62.4783 76.0696 62.9333 75.8439 63.0461 75.2179C63.148 74.6683 63.0716 73.6965 62.5802 73.318C62.0888 72.9394 61.6557 73.3107 61.6484 73.9622Z" fill="#E58A7B"/>
<path d="M54.4086 69.7842C54.0009 68.6377 55.9446 66.8725 60.0574 67.6004C64.1703 68.3283 64.3487 71.7533 64.3487 71.7533L63.5188 70.7633L63.5552 71.8043L59.3295 72.6159L54.4086 69.7842Z" fill="#263238"/>
<path d="M54.7607 82.4682C54.7364 82.302 54.778 82.1329 54.8766 81.9969C54.9751 81.861 55.1229 81.7689 55.2884 81.7403C56.5696 81.5292 59.4814 81.0997 60.9446 81.3035C62.0365 81.4564 62.3204 82.0897 62.3677 82.6102C62.3751 82.7013 62.3629 82.793 62.3319 82.879C62.301 82.965 62.252 83.0434 62.1882 83.1089C62.1244 83.1745 62.0473 83.2255 61.9621 83.2588C61.8769 83.292 61.7856 83.3067 61.6943 83.3017L55.3685 83.0178C55.2194 83.0103 55.0774 82.9515 54.9667 82.8513C54.8559 82.7512 54.7831 82.6158 54.7607 82.4682Z" fill="#5E6064"/>
<path opacity="0.6" d="M54.7607 82.4682C54.7364 82.302 54.778 82.1329 54.8766 81.9969C54.9751 81.861 55.1229 81.7689 55.2884 81.7403C56.5696 81.5292 59.4814 81.0997 60.9446 81.3035C62.0365 81.4564 62.3204 82.0897 62.3677 82.6102C62.3751 82.7013 62.3629 82.793 62.3319 82.879C62.301 82.965 62.252 83.0434 62.1882 83.1089C62.1244 83.1745 62.0473 83.2255 61.9621 83.2588C61.8769 83.292 61.7856 83.3067 61.6943 83.3017L55.3685 83.0178C55.2194 83.0103 55.0774 82.9515 54.9667 82.8513C54.8559 82.7512 54.7831 82.6158 54.7607 82.4682Z" fill="black"/>
<path d="M58.418 146.056L60.7656 147.686L64.6928 142.361L62.3452 140.734L58.418 146.056Z" fill="#E58A7B"/>
<path d="M52.9414 145.949L55.4201 147.361L58.896 141.731L56.4173 140.318L52.9414 145.949Z" fill="#E58A7B"/>
<path d="M64.6877 142.359L62.664 145.104L60.3164 143.477L62.3401 140.732L64.6877 142.359Z" fill="#CF6F64"/>
<path d="M56.4157 140.318L58.898 141.734L57.1073 144.635L54.625 143.219L56.4157 140.318Z" fill="#CF6F64"/>
<path d="M60.3965 100.246C60.3965 100.246 69.5613 111.795 67.8397 122.841C66.453 131.762 58.4092 143.843 58.4092 143.843L54.6276 141.965C57.2931 136.623 59.5678 131.096 61.4338 125.426C62.0093 123.665 62.1772 121.797 61.925 119.962C61.6728 118.127 61.007 116.374 59.978 114.834C55.3337 108.053 47.8941 112.09 52.8987 100.246H60.3965Z" fill="#5E6064"/>
<path opacity="0.6" d="M60.3965 100.246C60.3965 100.246 69.5613 111.795 67.8397 122.841C66.453 131.762 58.4092 143.843 58.4092 143.843L54.6276 141.965C57.2931 136.623 59.5678 131.096 61.4338 125.426C62.0093 123.665 62.1772 121.797 61.925 119.962C61.6728 118.127 61.007 116.374 59.978 114.834C55.3337 108.053 47.8941 112.09 52.8987 100.246H60.3965Z" fill="black"/>
<path opacity="0.4" d="M64.8907 107.663L63.5586 106.338C63.5586 106.443 66.1392 122.374 66.8635 126.851C67.2909 125.544 67.6182 124.205 67.8425 122.848C68.6942 117.428 66.9144 111.892 64.8907 107.663Z" fill="black"/>
<path d="M64.4888 100.246C64.4888 100.246 75.5244 114.761 75.8374 123.464C76.0958 130.743 63.8263 144.847 63.8263 144.847L60.2594 142.54C60.2594 142.54 67.4406 132.523 69.2495 124.341C68.5507 116.232 53.7734 100.246 53.7734 100.246H64.4888Z" fill="#5E6064"/>
<path opacity="0.6" d="M64.4888 100.246C64.4888 100.246 75.5244 114.761 75.8374 123.464C76.0958 130.743 63.8263 144.847 63.8263 144.847L60.2594 142.54C60.2594 142.54 67.4406 132.523 69.2495 124.341C68.5507 116.232 53.7734 100.246 53.7734 100.246H64.4888Z" fill="black"/>
<path d="M50.8347 82.9231C49.6554 83.2034 48.5234 87.491 48.5234 87.491L53.135 90.5702C53.135 90.5702 54.6709 87.178 54.1322 85.6929C53.5754 84.1461 52.316 82.5701 50.8347 82.9231Z" fill="#5E6064"/>
<path opacity="0.2" d="M51.7383 85.6855L51.418 89.4235L53.1323 90.5737C53.6056 89.508 53.9561 88.3919 54.1769 87.247L51.7383 85.6855Z" fill="black"/>
<path d="M65.8534 83.0075C65.8534 83.0075 67.2147 83.4843 64.4885 100.242H52.8924C53.0889 95.5099 53.0926 92.5982 50.8359 82.9238C52.4596 82.5892 54.1055 82.3727 55.7605 82.2759C57.5138 82.1502 59.2738 82.1502 61.0271 82.2759C63.291 82.4834 65.8534 83.0075 65.8534 83.0075Z" fill="#5E6064"/>
<path d="M67.0323 85.6873C67.2944 86.4153 67.571 87.1978 67.8622 87.9513C68.1534 88.7047 68.43 89.4799 68.7248 90.2443L69.6165 92.53L69.8422 93.1014L69.9587 93.3853L70.0133 93.5273C70.0133 93.5528 70.0133 93.5528 70.0133 93.5491C69.9468 93.4554 69.8596 93.3782 69.7585 93.3235C69.6145 93.2387 69.4522 93.19 69.2853 93.1815C69.1467 93.1772 69.0088 93.2033 68.8813 93.258C68.7139 93.3344 68.7139 93.3671 68.7175 93.3635C68.7478 93.3393 68.7747 93.3111 68.7976 93.2798C68.9991 93.0153 69.1735 92.7312 69.3181 92.4317C69.4892 92.0969 69.6529 91.7402 69.8167 91.3799C70.137 90.6519 70.4318 89.8985 70.7267 89.1378C71.0215 88.3771 71.3017 87.6091 71.5747 86.8339L72.4046 84.5117L73.8059 84.8757C73.5292 86.5354 73.1725 88.1514 72.7431 89.7966C72.5356 90.6155 72.2917 91.4272 72.0151 92.2461C71.8768 92.6574 71.7239 93.0651 71.5492 93.4836C71.3671 93.9379 71.1429 94.3741 70.8795 94.7866C70.7827 94.9255 70.6756 95.0569 70.5592 95.1797C70.3734 95.3805 70.1478 95.5404 69.8968 95.6493C69.6741 95.7449 69.4329 95.7896 69.1907 95.7803C68.9194 95.7702 68.6551 95.6913 68.4227 95.551C68.1485 95.3799 67.9209 95.1435 67.7603 94.8631C67.7057 94.7684 67.6584 94.6738 67.6256 94.6047L67.5565 94.4663L67.4182 94.1824L67.1415 93.6183C66.7776 92.8612 66.4136 92.0969 66.0969 91.3289C65.7803 90.5609 65.4454 89.782 65.1324 88.9995C64.8194 88.217 64.5391 87.4344 64.2734 86.59L67.0323 85.6873Z" fill="#E58A7B"/>
<path d="M65.8525 83.0075C67.2465 83.3387 68.8152 87.4589 68.8152 87.4589L64.6696 90.9858C64.6696 90.9858 61.9871 86.4943 62.5294 85.013C63.0936 83.4697 64.0326 82.5744 65.8525 83.0075Z" fill="#5E6064"/>
<path d="M73.0624 83.2079L74.5183 81.9922L75.5301 83.5682L74.784 84.8821C74.784 84.8821 73.5974 85.974 72.5492 85.4172C72.3828 85.0432 72.3429 84.6252 72.4355 84.2265C72.5281 83.8278 72.7482 83.4702 73.0624 83.2079Z" fill="#E58A7B"/>
<path d="M77.1466 81.9958L77.0374 82.3926L74.7335 82.7784L74.5078 81.9922L77.1466 81.9958Z" fill="#E58A7B"/>
<path d="M64.1097 145.033L59.9531 142.347L60.6993 141.051L65.369 143.923L64.1097 145.033Z" fill="#5E6064"/>
<path d="M57.0469 147.173C56.6823 147.128 56.3318 147.004 56.0205 146.809C56.0077 146.804 55.9966 146.796 55.9887 146.785C55.9808 146.774 55.9766 146.761 55.9766 146.747C55.9766 146.733 55.9808 146.72 55.9887 146.709C55.9966 146.698 56.0077 146.69 56.0205 146.685C56.1334 146.649 57.1125 146.347 57.3964 146.58C57.4283 146.606 57.4525 146.641 57.4666 146.68C57.4807 146.719 57.4841 146.761 57.4764 146.802C57.4714 146.867 57.4497 146.93 57.4134 146.985C57.377 147.04 57.3273 147.084 57.269 147.115C57.2008 147.152 57.1246 147.172 57.0469 147.173ZM56.228 146.773C56.683 147.005 57.0469 147.089 57.2217 147.002C57.2597 146.981 57.2917 146.95 57.3146 146.913C57.3376 146.876 57.3507 146.834 57.3527 146.791C57.3527 146.733 57.3527 146.707 57.3199 146.692C57.1671 146.569 56.6211 146.663 56.2207 146.773H56.228Z" fill="#263238"/>
<path d="M56.0475 146.832C56.0283 146.832 56.01 146.824 55.9965 146.81C55.9911 146.8 55.9883 146.789 55.9883 146.777C55.9883 146.766 55.9911 146.755 55.9965 146.745C55.9965 146.712 56.2331 145.922 56.6044 145.744C56.6518 145.722 56.7033 145.711 56.7554 145.711C56.8075 145.711 56.859 145.722 56.9065 145.744C56.9576 145.76 57.0018 145.793 57.0322 145.837C57.0625 145.881 57.0772 145.934 57.0739 145.988C57.0484 146.315 56.3823 146.767 56.0766 146.843L56.0475 146.832ZM56.7536 145.838C56.7182 145.839 56.6834 145.848 56.6517 145.864C56.426 145.973 56.2404 146.399 56.1494 146.657C56.4697 146.523 56.9101 146.166 56.9247 145.966C56.9247 145.933 56.9247 145.893 56.8409 145.857C56.8137 145.842 56.7842 145.832 56.7536 145.827V145.838Z" fill="#263238"/>
<path d="M62.2416 148.744C61.8303 148.744 61.2589 148.216 60.9459 147.892C60.9379 147.881 60.9336 147.868 60.9336 147.854C60.9336 147.84 60.9379 147.827 60.9459 147.816C60.9531 147.804 60.9633 147.794 60.9755 147.788C60.9876 147.782 61.0013 147.779 61.015 147.779C61.1606 147.779 62.4236 147.969 62.602 148.325C62.6209 148.357 62.6308 148.394 62.6308 148.431C62.6308 148.468 62.6209 148.504 62.602 148.536C62.5752 148.592 62.5348 148.64 62.4845 148.676C62.4342 148.711 62.3757 148.733 62.3144 148.74L62.2416 148.744ZM61.1861 147.943C61.6447 148.387 62.0487 148.635 62.278 148.606C62.3182 148.6 62.3564 148.585 62.3894 148.562C62.4224 148.538 62.4492 148.507 62.4673 148.471C62.4754 148.459 62.4798 148.444 62.4798 148.429C62.4798 148.414 62.4754 148.4 62.4673 148.387C62.3727 148.191 61.6993 148.023 61.1861 147.943Z" fill="#263238"/>
<path d="M61.225 147.924C61.1433 147.927 61.0615 147.921 60.9811 147.906C60.9699 147.905 60.9593 147.9 60.9503 147.893C60.9414 147.886 60.9344 147.877 60.9301 147.866C60.9247 147.855 60.9219 147.844 60.9219 147.832C60.9219 147.82 60.9247 147.808 60.9301 147.797C60.952 147.772 61.4433 147.178 61.9092 147.138C62.0411 147.128 62.1718 147.17 62.2732 147.255C62.4152 147.378 62.4079 147.488 62.3715 147.557C62.2805 147.804 61.6508 147.924 61.225 147.924ZM61.1303 147.79C61.538 147.812 62.1895 147.677 62.2732 147.499C62.2732 147.499 62.3023 147.44 62.2077 147.36C62.17 147.328 62.126 147.303 62.0785 147.288C62.0309 147.273 61.9807 147.268 61.9311 147.273C61.6172 147.36 61.3378 147.542 61.1303 147.793V147.79Z" fill="#263238"/>
<path d="M56.1453 146.44L53.0588 145.566C53.0056 145.55 52.9484 145.554 52.898 145.578C52.8476 145.601 52.8077 145.643 52.7859 145.694L51.7449 148.034C51.7204 148.094 51.709 148.158 51.7112 148.223C51.7135 148.288 51.7294 148.351 51.7579 148.409C51.7864 148.468 51.827 148.519 51.8768 148.56C51.9266 148.602 51.9846 148.632 52.047 148.649C53.1389 148.933 53.663 149.013 55.0206 149.403C55.8578 149.636 57.0516 150.069 58.2054 150.396C59.3592 150.724 59.745 149.599 59.2973 149.359C57.2736 148.289 57.1135 147.539 56.5602 146.738C56.4612 146.593 56.3143 146.488 56.1453 146.44Z" fill="#5E6064"/>
<path d="M61.0319 147.467L58.3967 145.647C58.352 145.614 58.297 145.599 58.242 145.605C58.1869 145.61 58.1358 145.635 58.0983 145.676L56.3512 147.554C56.3086 147.603 56.2769 147.66 56.258 147.721C56.2392 147.783 56.2338 147.848 56.242 147.912C56.2503 147.976 56.2721 148.038 56.306 148.093C56.3399 148.148 56.3851 148.195 56.4386 148.231C57.3667 148.853 57.8471 149.105 59.0082 149.909C59.7361 150.404 61.1447 151.503 62.1274 152.187C63.1102 152.872 63.8417 151.933 63.4923 151.561C61.9272 149.891 61.5851 148.842 61.3267 147.892C61.2818 147.72 61.1774 147.569 61.0319 147.467Z" fill="#5E6064"/>
<path d="M58.8944 144.08L54.1445 141.718L54.6359 140.43L59.7097 142.919L58.8944 144.08Z" fill="#5E6064"/>
<path d="M52.7182 99.5618L52.3179 100.61C52.2778 100.69 52.3725 100.774 52.5071 100.774H64.5473C64.6529 100.774 64.7402 100.723 64.7475 100.657L64.8494 99.6164C64.8494 99.5472 64.7657 99.4854 64.6529 99.4854H52.9075C52.8721 99.482 52.8365 99.4872 52.8036 99.5005C52.7706 99.5138 52.7414 99.5348 52.7182 99.5618Z" fill="#5E6064"/>
<path opacity="0.4" d="M52.7182 99.5618L52.3179 100.61C52.2778 100.69 52.3725 100.774 52.5071 100.774H64.5473C64.6529 100.774 64.7402 100.723 64.7475 100.657L64.8494 99.6164C64.8494 99.5472 64.7657 99.4854 64.6529 99.4854H52.9075C52.8721 99.482 52.8365 99.4872 52.8036 99.5005C52.7706 99.5138 52.7414 99.5348 52.7182 99.5618Z" fill="white"/>
<path d="M54.6138 100.875H54.2972C54.2353 100.875 54.188 100.842 54.1916 100.802L54.3408 99.452C54.3408 99.4156 54.3991 99.3828 54.4609 99.3828H54.7776C54.8395 99.3828 54.8868 99.4156 54.8832 99.452L54.7339 100.802C54.7303 100.842 54.6757 100.875 54.6138 100.875Z" fill="#5E6064"/>
<path d="M62.0399 100.875H61.7268C61.665 100.875 61.6177 100.842 61.6213 100.802L61.7669 99.452C61.7669 99.4156 61.8288 99.3828 61.8906 99.3828H62.2036C62.2655 99.3828 62.3165 99.4156 62.3092 99.452L62.1636 100.802C62.1454 100.842 62.1054 100.875 62.0399 100.875Z" fill="#5E6064"/>
<g style="mix-blend-mode:multiply">
<path d="M54.3367 162.514C59.722 162.514 64.0875 162.198 64.0875 161.808C64.0875 161.418 59.722 161.102 54.3367 161.102C48.9515 161.102 44.5859 161.418 44.5859 161.808C44.5859 162.198 48.9515 162.514 54.3367 162.514Z" fill="#F5F5F5"/>
</g>
<path d="M60.2775 160.809C58.5523 160.307 56.6378 159.662 55.4804 158.989C55.4476 158.967 55.4112 158.956 55.3785 158.938V151.127H58.869C59.1339 151.112 59.3829 150.995 59.565 150.802C59.747 150.609 59.8484 150.354 59.8484 150.088C59.8484 149.823 59.747 149.567 59.565 149.374C59.3829 149.181 59.1339 149.065 58.869 149.049H55.3967V113.445H53.3002V149.049H49.8316C49.6899 149.041 49.5481 149.061 49.4147 149.11C49.2813 149.158 49.1593 149.233 49.056 149.331C48.9528 149.428 48.8705 149.545 48.8143 149.676C48.7581 149.806 48.7291 149.946 48.7291 150.088C48.7291 150.23 48.7581 150.37 48.8143 150.501C48.8705 150.631 48.9528 150.748 49.056 150.846C49.1593 150.943 49.2813 151.018 49.4147 151.067C49.5481 151.115 49.6899 151.136 49.8316 151.127H53.3002V158.927C53.2674 158.927 53.2347 158.956 53.2019 158.978C52.0263 159.662 50.1264 160.307 48.4011 160.798C48.2846 160.833 48.1845 160.909 48.119 161.012C48.0536 161.114 48.027 161.237 48.0441 161.358C48.0613 161.478 48.1211 161.589 48.2126 161.669C48.3041 161.749 48.4213 161.794 48.5431 161.795H60.1356C60.2519 161.787 60.362 161.74 60.4475 161.66C60.533 161.581 60.5887 161.475 60.6053 161.36C60.6219 161.244 60.5984 161.126 60.5388 161.026C60.4791 160.926 60.3869 160.849 60.2775 160.809Z" fill="#E0E0E0"/>
<path d="M60.8126 109.82H47.8697C46.8285 109.82 45.9844 110.664 45.9844 111.706V115.553C45.9844 116.594 46.8285 117.438 47.8697 117.438H60.8126C61.8538 117.438 62.698 116.594 62.698 115.553V111.706C62.698 110.664 61.8538 109.82 60.8126 109.82Z" fill="#5E6064"/>
<path d="M47.75 117.441V118.104C47.75 118.65 48.3433 119.094 49.0712 119.094H59.6264C60.3543 119.094 60.9476 118.65 60.9476 118.104V117.441H47.75Z" fill="#5E6064"/>
<path opacity="0.3" d="M47.75 117.441V118.104C47.75 118.65 48.3433 119.094 49.0712 119.094H59.6264C60.3543 119.094 60.9476 118.65 60.9476 118.104V117.441H47.75Z" fill="white"/>
</svg>
