<svg width="193" height="193" viewBox="0 0 193 193" fill="none" xmlns="http://www.w3.org/2000/svg">
<circle cx="96.5" cy="96.5" r="96.5" fill="#2AB7CA"/>
<path d="M189.854 151.732H7V151.824H189.854V151.732Z" fill="#EBEBEB"/>
<path d="M171.532 157.617H159.42V157.709H171.532V157.617Z" fill="#EBEBEB"/>
<path d="M128.129 158.611H124.951V158.703H128.129V158.611Z" fill="#EBEBEB"/>
<path d="M159.055 154.223H152.037V154.314H159.055V154.223Z" fill="#EBEBEB"/>
<path d="M41.9805 154.838H26.1855V154.929H41.9805V154.838Z" fill="#EBEBEB"/>
<path d="M47.5532 154.838H45.2383V154.929H47.5532V154.838Z" fill="#EBEBEB"/>
<path d="M89.3396 156.381H55.0801V156.472H89.3396V156.381Z" fill="#EBEBEB"/>
<path d="M93.6738 135.422H23.0591C22.506 135.421 21.9758 135.201 21.5849 134.809C21.1941 134.418 20.9746 133.887 20.9746 133.334V34.0699C20.9794 33.5199 21.2011 32.994 21.5914 32.6064C21.9817 32.2189 22.5091 32.0009 23.0591 32H93.6738C94.2276 32 94.7587 32.22 95.1503 32.6116C95.542 33.0032 95.762 33.5344 95.762 34.0882V133.334C95.762 133.888 95.542 134.419 95.1503 134.811C94.7587 135.202 94.2276 135.422 93.6738 135.422ZM23.0591 32.0731C22.5302 32.0741 22.0233 32.2849 21.6496 32.6593C21.2759 33.0336 21.066 33.541 21.066 34.0699V133.334C21.066 133.863 21.2759 134.37 21.6496 134.745C22.0233 135.119 22.5302 135.33 23.0591 135.331H93.6738C94.203 135.33 94.7104 135.119 95.0846 134.745C95.4589 134.371 95.6696 133.863 95.6705 133.334V34.0699C95.6696 33.5406 95.4589 33.0333 95.0846 32.659C94.7104 32.2848 94.203 32.0741 93.6738 32.0731H23.0591Z" fill="#EBEBEB"/>
<path d="M172.779 135.422H102.16C101.607 135.421 101.076 135.201 100.685 134.81C100.294 134.418 100.073 133.888 100.072 133.334V34.0699C100.078 33.5196 100.3 32.9937 100.691 32.6062C101.082 32.2187 101.61 32.0009 102.16 32H172.779C173.328 32.0019 173.855 32.2202 174.244 32.6077C174.634 32.9952 174.855 33.5205 174.86 34.0699V133.334C174.86 133.887 174.641 134.417 174.251 134.808C173.861 135.2 173.331 135.42 172.779 135.422ZM102.16 32.0731C101.631 32.0741 101.124 32.2848 100.75 32.659C100.375 33.0333 100.165 33.5406 100.164 34.0699V133.334C100.165 133.863 100.375 134.371 100.75 134.745C101.124 135.119 101.631 135.33 102.16 135.331H172.779C173.308 135.33 173.815 135.119 174.19 134.745C174.564 134.371 174.775 133.863 174.775 133.334V34.0699C174.775 33.5406 174.564 33.0333 174.19 32.659C173.815 32.2848 173.308 32.0741 172.779 32.0731H102.16Z" fill="#EBEBEB"/>
<path d="M76.4768 58.7773H30.8438V105.928H76.4768V58.7773Z" fill="#EBEBEB"/>
<path d="M78.0725 58.7773H32.4395V105.928H78.0725V58.7773Z" fill="#F0F0F0"/>
<path d="M76.8622 59.8926H33.5879V104.831H76.8622V59.8926Z" fill="#E0E0E0"/>
<path d="M75.7797 59.8926H33.5879V104.831H75.7797V59.8926Z" fill="#F5F5F5"/>
<path d="M55.1194 59.8926H54.2637V104.831H55.1194V59.8926Z" fill="#EBEBEB"/>
<path d="M49.3305 59.8926L37.306 104.831H36.1504L48.1749 59.8926H49.3305Z" fill="white"/>
<path d="M55.489 59.2012H54.7539V105.694H55.489V59.2012Z" fill="#F0F0F0"/>
<path d="M44.9651 59.8926L33.5879 102.421V79.0447L38.7115 59.8926H44.9651Z" fill="white"/>
<path d="M75.7784 63.9707V68.2861L65.9994 104.831H64.8438L75.7784 63.9707Z" fill="white"/>
<path d="M75.7792 72.6816V96.0577L73.435 104.831H67.1777L75.7792 72.6816Z" fill="white"/>
<path d="M68.9102 120.502H73.5583V120.191C73.5583 119.587 72.8781 119.094 72.0699 119.137L70.2413 119.211C69.5099 119.244 68.9102 119.704 68.9102 120.264V120.502Z" fill="#F0F0F0"/>
<path d="M78.082 120.651H84.2113L85.1877 112.09C85.1803 111.936 85.1139 111.79 85.0023 111.683C84.8907 111.576 84.7424 111.516 84.588 111.516H80.4811C80.3263 111.515 80.1776 111.575 80.0658 111.682C79.954 111.789 79.8879 111.935 79.8813 112.09L78.082 120.651Z" fill="#E6E6E6"/>
<path d="M68.7276 98.9241H70.2672L71.9897 115.088H70.4574C70.3331 115.088 70.2131 115.043 70.1182 114.963C70.0232 114.883 69.9595 114.772 69.9381 114.65L68.318 99.4032C68.3064 99.3437 68.3084 99.2824 68.3238 99.2237C68.3392 99.1651 68.3677 99.1108 68.4071 99.0647C68.4464 99.0186 68.4957 98.9821 68.5512 98.9577C68.6067 98.9334 68.667 98.9219 68.7276 98.9241Z" fill="#E6E6E6"/>
<path d="M71.0951 115.1H94.0396C94.0982 115.101 94.1563 115.089 94.2099 115.066C94.2636 115.042 94.3115 115.008 94.3504 114.964C94.3893 114.92 94.4183 114.868 94.4354 114.812C94.4524 114.756 94.4571 114.697 94.4492 114.639L92.8291 99.3928C92.8126 99.2686 92.7524 99.1544 92.6592 99.0706C92.5661 98.9868 92.4461 98.939 92.3208 98.9357H69.3763C69.3179 98.9341 69.2598 98.9452 69.2062 98.9683C69.1525 98.9914 69.1045 99.0259 69.0656 99.0694C69.0266 99.1129 68.9975 99.1644 68.9805 99.2202C68.9634 99.2761 68.9587 99.335 68.9667 99.3928L70.5868 114.65C70.6055 114.773 70.6666 114.885 70.7595 114.967C70.8524 115.049 70.9711 115.096 71.0951 115.1Z" fill="#EBEBEB"/>
<path d="M71.5212 113.604H93.1492C93.2002 113.604 93.2506 113.593 93.2972 113.573C93.3439 113.553 93.3858 113.523 93.4202 113.485C93.4546 113.448 93.4808 113.403 93.4971 113.355C93.5135 113.307 93.5195 113.256 93.5149 113.205L92.0996 99.9042C92.0865 99.7952 92.0346 99.6946 91.9533 99.6207C91.872 99.5468 91.7669 99.5047 91.6571 99.502H70.0218C69.9706 99.5017 69.9198 99.5122 69.8729 99.5328C69.826 99.5535 69.7839 99.5837 69.7494 99.6217C69.7149 99.6596 69.6888 99.7043 69.6727 99.753C69.6567 99.8017 69.651 99.8532 69.6561 99.9042L71.0714 113.205C71.0856 113.315 71.1389 113.415 71.2216 113.489C71.3043 113.562 71.4107 113.603 71.5212 113.604Z" fill="#FAFAFA"/>
<path d="M77.8523 119.986H85.3932C85.4815 119.986 85.5661 120.021 85.6286 120.084C85.691 120.146 85.726 120.231 85.726 120.319C85.726 120.407 85.691 120.492 85.6286 120.554C85.5661 120.617 85.4815 120.652 85.3932 120.652H77.8523C77.7641 120.652 77.6794 120.617 77.617 120.554C77.5546 120.492 77.5195 120.407 77.5195 120.319C77.5195 120.231 77.5546 120.146 77.617 120.084C77.6794 120.021 77.7641 119.986 77.8523 119.986Z" fill="#E6E6E6"/>
<path d="M59.2857 123.277H77.9551V120.461H59.2857V123.277Z" fill="#E6E6E6"/>
<path d="M111.311 151.916H111.776C111.789 151.916 111.803 151.914 111.816 151.908C111.829 151.903 111.841 151.895 111.851 151.885C111.86 151.876 111.868 151.864 111.874 151.851C111.879 151.838 111.882 151.824 111.882 151.81L112.613 123.285H110.459L111.19 151.81C111.191 151.825 111.195 151.84 111.202 151.853C111.208 151.867 111.218 151.879 111.229 151.889C111.24 151.898 111.253 151.906 111.267 151.911C111.281 151.916 111.296 151.917 111.311 151.916Z" fill="#E6E6E6"/>
<path d="M127.928 151.916H129.004L125.965 123.273H123.811L127.928 151.916Z" fill="#F0F0F0"/>
<path d="M58.5581 151.916L62.6833 123.273H60.5329L57.4902 151.916H58.5581Z" fill="#E6E6E6"/>
<path d="M72.6307 123.277H127.209V120.461H72.6307V123.277Z" fill="#F5F5F5"/>
<path d="M74.3341 151.916H75.5702L76.0273 123.273H73.877L74.3341 151.916Z" fill="#F0F0F0"/>
<path d="M91.7685 119.954H92.3427C92.3715 119.953 92.3988 119.941 92.4192 119.921C92.4396 119.9 92.4515 119.873 92.4524 119.844V119.241C92.4524 119.226 92.4495 119.212 92.444 119.199C92.4385 119.185 92.4304 119.173 92.4202 119.163C92.41 119.153 92.398 119.145 92.3846 119.139C92.3713 119.134 92.3571 119.131 92.3427 119.131H91.9294C91.9058 119.131 91.883 119.139 91.8644 119.154C91.8459 119.168 91.8327 119.188 91.827 119.211L91.6661 119.815C91.6617 119.831 91.6609 119.848 91.6639 119.864C91.6669 119.88 91.6736 119.896 91.6835 119.909C91.6934 119.923 91.7061 119.933 91.7209 119.941C91.7356 119.949 91.7519 119.953 91.7685 119.954Z" fill="#F5F5F5"/>
<path d="M90.9781 119.954H91.5523C91.5808 119.953 91.6077 119.941 91.6275 119.92C91.6473 119.9 91.6584 119.872 91.6584 119.844V119.241C91.6589 119.226 91.6565 119.212 91.6514 119.199C91.6463 119.186 91.6385 119.173 91.6286 119.163C91.6187 119.153 91.6069 119.145 91.5938 119.139C91.5806 119.134 91.5665 119.131 91.5523 119.131H91.1391C91.1155 119.131 91.0926 119.139 91.0741 119.154C91.0555 119.168 91.0423 119.188 91.0367 119.211L90.8721 119.815C90.8683 119.831 90.8682 119.848 90.8717 119.864C90.8752 119.881 90.8823 119.896 90.8924 119.909C90.9025 119.922 90.9155 119.933 90.9303 119.941C90.9451 119.949 90.9615 119.953 90.9781 119.954Z" fill="#F5F5F5"/>
<path d="M90.1882 119.954H90.7477C90.7762 119.953 90.8031 119.941 90.8229 119.92C90.8427 119.9 90.8538 119.872 90.8538 119.844V119.241C90.8543 119.226 90.8519 119.212 90.8468 119.199C90.8417 119.186 90.8339 119.173 90.824 119.163C90.8141 119.153 90.8023 119.145 90.7892 119.139C90.776 119.134 90.762 119.131 90.7477 119.131H90.3345C90.3106 119.131 90.2874 119.139 90.2684 119.154C90.2493 119.168 90.2353 119.188 90.2284 119.211L90.0675 119.815C90.0634 119.832 90.0634 119.85 90.0677 119.868C90.072 119.885 90.0804 119.902 90.0922 119.915C90.104 119.929 90.1189 119.939 90.1355 119.946C90.1522 119.953 90.1703 119.955 90.1882 119.954Z" fill="#F5F5F5"/>
<path d="M89.3971 119.954H89.9676C89.9967 119.954 90.0246 119.942 90.0452 119.922C90.0658 119.901 90.0774 119.873 90.0774 119.844V119.241C90.0779 119.226 90.0754 119.212 90.07 119.198C90.0647 119.185 90.0566 119.172 90.0464 119.162C90.0361 119.152 90.0238 119.144 90.0102 119.138C89.9967 119.133 89.9822 119.13 89.9676 119.131H89.558C89.5341 119.131 89.511 119.139 89.492 119.154C89.4729 119.168 89.4589 119.189 89.452 119.211L89.2911 119.815C89.2866 119.831 89.2859 119.848 89.2891 119.865C89.2923 119.882 89.2993 119.897 89.3096 119.911C89.3199 119.924 89.3331 119.935 89.3483 119.942C89.3635 119.95 89.3802 119.954 89.3971 119.954Z" fill="#F5F5F5"/>
<path d="M88.6081 119.954H89.1786C89.2077 119.954 89.2356 119.942 89.2562 119.922C89.2767 119.901 89.2883 119.873 89.2883 119.844V119.241C89.2888 119.226 89.2863 119.212 89.281 119.198C89.2756 119.185 89.2676 119.172 89.2573 119.162C89.247 119.152 89.2347 119.144 89.2212 119.138C89.2076 119.133 89.1931 119.13 89.1786 119.131H88.769C88.7449 119.131 88.7215 119.139 88.7024 119.153C88.6832 119.168 88.6693 119.188 88.6629 119.211L88.502 119.815C88.4975 119.831 88.4968 119.848 88.5 119.865C88.5033 119.882 88.5103 119.897 88.5205 119.911C88.5308 119.924 88.5441 119.935 88.5592 119.942C88.5744 119.95 88.5911 119.954 88.6081 119.954Z" fill="#F5F5F5"/>
<path d="M87.821 119.954H88.3915C88.4059 119.954 88.4201 119.951 88.4335 119.945C88.4468 119.94 88.4589 119.932 88.469 119.922C88.4792 119.911 88.4873 119.899 88.4928 119.886C88.4983 119.873 88.5012 119.858 88.5012 119.844V119.241C88.5017 119.226 88.4992 119.212 88.4939 119.198C88.4885 119.185 88.4805 119.172 88.4702 119.162C88.4599 119.152 88.4476 119.144 88.4341 119.138C88.4205 119.133 88.406 119.13 88.3915 119.131H87.9819C87.9578 119.131 87.9344 119.139 87.9153 119.153C87.8961 119.168 87.8822 119.188 87.8758 119.211L87.7149 119.815C87.7104 119.831 87.7097 119.848 87.7129 119.865C87.7161 119.882 87.7232 119.897 87.7334 119.911C87.7437 119.924 87.757 119.935 87.7721 119.942C87.7873 119.95 87.804 119.954 87.821 119.954Z" fill="#F5F5F5"/>
<path d="M87.028 119.954H87.5985C87.6276 119.954 87.6555 119.942 87.6761 119.922C87.6967 119.901 87.7082 119.873 87.7082 119.844V119.241C87.7087 119.226 87.7062 119.212 87.7009 119.198C87.6956 119.185 87.6875 119.172 87.6772 119.162C87.6669 119.152 87.6546 119.144 87.6411 119.138C87.6275 119.133 87.613 119.13 87.5985 119.131H87.1889C87.1647 119.13 87.141 119.138 87.1217 119.152C87.1024 119.167 87.0887 119.188 87.0829 119.211L86.9219 119.815C86.9174 119.831 86.9168 119.848 86.92 119.865C86.9232 119.882 86.9302 119.897 86.9405 119.911C86.9507 119.924 86.964 119.935 86.9792 119.942C86.9944 119.95 87.0111 119.954 87.028 119.954Z" fill="#F5F5F5"/>
<path d="M86.2389 119.954H86.8094C86.8382 119.953 86.8656 119.941 86.886 119.921C86.9064 119.9 86.9182 119.873 86.9192 119.844V119.241C86.9192 119.226 86.9163 119.212 86.9108 119.199C86.9053 119.185 86.8972 119.173 86.887 119.163C86.8768 119.153 86.8647 119.145 86.8514 119.139C86.8381 119.134 86.8238 119.131 86.8094 119.131H86.3998C86.3756 119.13 86.3519 119.138 86.3326 119.152C86.3133 119.167 86.2996 119.188 86.2938 119.211L86.1329 119.815C86.1284 119.831 86.1277 119.848 86.1309 119.865C86.1341 119.881 86.1411 119.897 86.1514 119.911C86.1617 119.924 86.1749 119.935 86.1901 119.942C86.2053 119.95 86.222 119.954 86.2389 119.954Z" fill="#F5F5F5"/>
<path d="M85.4441 119.954H86.0183C86.0471 119.953 86.0745 119.941 86.0949 119.921C86.1152 119.9 86.1271 119.873 86.128 119.844V119.241C86.128 119.226 86.1252 119.212 86.1197 119.199C86.1141 119.185 86.1061 119.173 86.0959 119.163C86.0857 119.153 86.0736 119.145 86.0603 119.139C86.047 119.134 86.0327 119.131 86.0183 119.131H85.627C85.6028 119.13 85.5791 119.138 85.5598 119.152C85.5405 119.167 85.5268 119.188 85.5209 119.211L85.36 119.815C85.3557 119.829 85.3544 119.845 85.3564 119.86C85.3583 119.875 85.3634 119.89 85.3713 119.903C85.3792 119.916 85.3898 119.927 85.4024 119.936C85.4149 119.945 85.4291 119.951 85.4441 119.954Z" fill="#F5F5F5"/>
<path d="M84.6539 119.954H85.2281C85.2569 119.953 85.2843 119.941 85.3046 119.921C85.325 119.9 85.3369 119.873 85.3378 119.844V119.241C85.3378 119.226 85.335 119.212 85.3294 119.199C85.3239 119.185 85.3159 119.173 85.3057 119.163C85.2955 119.153 85.2834 119.145 85.2701 119.139C85.2568 119.134 85.2425 119.131 85.2281 119.131H84.8148C84.7913 119.131 84.7684 119.139 84.7498 119.154C84.7313 119.168 84.7181 119.188 84.7124 119.211L84.5479 119.815C84.5441 119.831 84.5439 119.848 84.5475 119.864C84.551 119.881 84.558 119.896 84.5682 119.909C84.5783 119.922 84.5912 119.933 84.6061 119.941C84.6209 119.949 84.6372 119.953 84.6539 119.954Z" fill="#F5F5F5"/>
<path d="M83.8649 119.954H84.439C84.4675 119.953 84.4945 119.941 84.5143 119.92C84.534 119.9 84.5451 119.872 84.5451 119.844V119.241C84.5456 119.226 84.5432 119.212 84.5381 119.199C84.533 119.186 84.5252 119.173 84.5153 119.163C84.5054 119.153 84.4936 119.145 84.4805 119.139C84.4674 119.134 84.4533 119.131 84.439 119.131H84.0258C84.0019 119.131 83.9787 119.139 83.9597 119.154C83.9406 119.168 83.9267 119.188 83.9197 119.211L83.7588 119.815C83.755 119.831 83.7549 119.848 83.7584 119.864C83.7619 119.881 83.769 119.896 83.7791 119.909C83.7892 119.922 83.8022 119.933 83.817 119.941C83.8318 119.949 83.8482 119.953 83.8649 119.954Z" fill="#F5F5F5"/>
<path d="M83.0671 119.954H83.6376C83.6667 119.954 83.6946 119.942 83.7151 119.922C83.7357 119.901 83.7473 119.873 83.7473 119.844V119.241C83.7478 119.226 83.7453 119.212 83.74 119.198C83.7346 119.185 83.7266 119.172 83.7163 119.162C83.706 119.152 83.6937 119.144 83.6801 119.138C83.6666 119.133 83.6521 119.13 83.6376 119.131H83.228C83.2041 119.131 83.1809 119.139 83.1619 119.154C83.1428 119.168 83.1288 119.189 83.1219 119.211L82.961 119.815C82.9565 119.831 82.9558 119.848 82.959 119.865C82.9622 119.882 82.9693 119.897 82.9795 119.911C82.9898 119.924 83.003 119.935 83.0182 119.942C83.0334 119.95 83.0501 119.954 83.0671 119.954Z" fill="#F5F5F5"/>
<path d="M82.2839 119.954H82.8544C82.8835 119.954 82.9114 119.942 82.9319 119.922C82.9525 119.901 82.9641 119.873 82.9641 119.844V119.241C82.9646 119.226 82.9621 119.212 82.9568 119.198C82.9514 119.185 82.9434 119.172 82.9331 119.162C82.9228 119.152 82.9105 119.144 82.8969 119.138C82.8834 119.133 82.8689 119.13 82.8544 119.131H82.4448C82.4209 119.131 82.3977 119.139 82.3787 119.154C82.3596 119.168 82.3456 119.189 82.3387 119.211L82.1778 119.815C82.1733 119.831 82.1726 119.848 82.1758 119.865C82.179 119.882 82.1861 119.897 82.1963 119.911C82.2066 119.924 82.2198 119.935 82.235 119.942C82.2502 119.95 82.2669 119.954 82.2839 119.954Z" fill="#F5F5F5"/>
<path d="M81.4948 119.954H82.0653C82.0944 119.954 82.1223 119.942 82.1429 119.922C82.1635 119.901 82.175 119.873 82.175 119.844V119.241C82.1755 119.226 82.173 119.212 82.1677 119.198C82.1624 119.185 82.1543 119.172 82.144 119.162C82.1337 119.152 82.1214 119.144 82.1079 119.138C82.0943 119.133 82.0798 119.13 82.0653 119.131H81.6557C81.6317 119.131 81.6082 119.139 81.5891 119.153C81.5699 119.168 81.5561 119.188 81.5497 119.211L81.3887 119.815C81.3842 119.831 81.3835 119.848 81.3868 119.865C81.39 119.882 81.397 119.897 81.4073 119.911C81.4175 119.924 81.4308 119.935 81.446 119.942C81.4612 119.95 81.4779 119.954 81.4948 119.954Z" fill="#F5F5F5"/>
<path d="M80.7043 119.954H81.2748C81.3039 119.954 81.3318 119.942 81.3524 119.922C81.373 119.901 81.3846 119.873 81.3846 119.844V119.241C81.3851 119.226 81.3826 119.212 81.3772 119.198C81.3719 119.185 81.3639 119.172 81.3536 119.162C81.3433 119.152 81.331 119.144 81.3174 119.138C81.3039 119.133 81.2894 119.13 81.2748 119.131H80.8726C80.8484 119.13 80.8246 119.138 80.8053 119.152C80.786 119.167 80.7723 119.188 80.7665 119.211L80.6056 119.815C80.6012 119.831 80.6004 119.847 80.6032 119.863C80.606 119.879 80.6124 119.895 80.6218 119.908C80.6313 119.921 80.6436 119.932 80.6579 119.94C80.6722 119.948 80.688 119.953 80.7043 119.954Z" fill="#F5F5F5"/>
<path d="M80.1272 120.494H92.916V119.543H80.1272V120.494Z" fill="#EBEBEB"/>
<path d="M163.045 96.9789V51.0605L103.954 51.0605V96.9789H163.045Z" fill="#E0E0E0"/>
<path d="M104.772 96.1602H162.225V51.8802L104.772 51.8802V96.1602Z" fill="#EBEBEB"/>
<path d="M132.533 59.877V66.0538" stroke="#E0E0E0" stroke-width="0.280781" stroke-miterlimit="10"/>
<path d="M118.494 85.9309V66.0547H144.555V77.4538" stroke="#E0E0E0" stroke-width="0.280781" stroke-miterlimit="10"/>
<path d="M137.811 83.5239V77.4531H152.139V83.736" stroke="#E0E0E0" stroke-width="0.280781" stroke-miterlimit="10"/>
<path d="M139.123 57.6113H125.943V62.1498H139.123V57.6113Z" fill="#F5F5F5"/>
<path d="M151.031 68.498H138.469V73.4278H151.031V68.498Z" fill="#F5F5F5"/>
<path d="M142.125 80.9824H133.498V86.0658H142.125V80.9824Z" fill="#F5F5F5"/>
<path d="M156.761 81.8066H147.52V85.6685H156.761V81.8066Z" fill="#F5F5F5"/>
<path d="M126.703 69.5391H112.43V76.1255H126.703V69.5391Z" fill="#F5F5F5"/>
<path d="M123.051 83.5254H113.938V88.3381H123.051V83.5254Z" fill="#F5F5F5"/>
<path d="M134.505 66.216L132.537 64.248L130.569 66.216L132.537 68.1839L134.505 66.216Z" fill="#F5F5F5"/>
<path d="M146.525 77.4562L144.557 75.4883L142.589 77.4562L144.557 79.4241L146.525 77.4562Z" fill="#F5F5F5"/>
<path d="M64.0897 143.869C64.1518 143.743 64.1823 143.603 64.1786 143.462C64.1749 143.321 64.1371 143.183 64.0685 143.059C63.9999 142.936 63.9024 142.831 63.7845 142.754C63.6665 142.677 63.5316 142.629 63.3912 142.615C63.5109 142.255 63.5183 141.867 63.4125 141.502C63.3067 141.138 63.0927 140.814 62.7988 140.574C62.7284 140.509 62.6384 140.469 62.5428 140.461C62.4401 140.472 62.3432 140.514 62.2648 140.582L60.6338 141.756C60.5014 141.836 60.3899 141.946 60.3083 142.077C59.9719 142.725 61.1787 143.54 60.674 144.089C60.5351 144.242 60.3083 144.275 60.1255 144.385C59.7378 144.626 59.6903 145.16 59.5111 145.585C59.3319 146.009 58.6955 146.316 58.4542 145.95C58.6334 145.544 58.0885 145.197 57.6533 145.146C57.2181 145.094 56.7573 145.069 56.5123 144.659C55.8906 145.204 54.4972 143.683 54.5301 143.072C54.2842 143.116 54.0582 143.236 53.8838 143.415C53.7094 143.594 53.5953 143.823 53.5573 144.07C53.4841 144.575 53.4657 145.087 53.5025 145.595C53.5025 146.587 53.166 147.559 53.1843 148.55C53.1843 149.322 53.4952 150.178 54.2046 150.489C54.5558 150.615 54.9298 150.665 55.3018 150.635L63.3473 150.584C63.5412 150.599 63.7358 150.566 63.9142 150.489C64.2799 150.298 64.353 149.823 64.386 149.417C64.5322 147.669 64.6761 145.921 64.8175 144.173L64.0897 143.869Z" fill="#E0E0E0"/>
<path d="M64.562 135.371H52.084L52.1864 136.629L52.2595 137.529L52.4497 139.873L52.5557 141.219L52.702 143.011L52.7642 143.779V144.009L52.8373 144.909L52.9361 146.149L52.9983 146.917L53.0641 147.695L53.1372 148.599L53.1921 149.283L53.2543 150.051L53.2799 150.383H64.7338L64.7594 150.051L64.8216 149.286L64.8765 148.595L64.9496 147.692L65.0154 146.917L65.0776 146.149L65.1763 144.909L65.2495 144.009V143.779L65.3117 143.011L65.4579 141.219L65.564 139.877L65.7542 137.529L65.8273 136.629L65.9297 135.371H64.562ZM65.2934 136.198L65.052 135.956H65.3153L65.2934 136.198ZM65.2312 136.962L65.2093 137.265L64.0902 138.385L62.8102 137.101L63.9549 135.956H64.2255L65.2312 136.962ZM64.9094 140.955L64.0902 141.775L62.8102 140.491L64.0902 139.215L64.9789 140.1L64.9094 140.955ZM53.0348 140.1L53.9198 139.215L55.1998 140.491L53.9198 141.775L53.1043 140.955L53.0348 140.1ZM63.6843 138.787L62.4043 140.067L61.1243 138.787L62.4043 137.503L63.6843 138.787ZM61.6729 135.945H63.1357L62.4043 136.677L61.6729 135.945ZM61.9874 140.48L60.711 141.764L59.4274 140.48L60.711 139.204L61.9874 140.48ZM57.7342 142.177L59.0142 140.897L60.2941 142.177L59.0142 143.457L57.7342 142.177ZM58.5972 143.87L57.3173 145.15L56.0373 143.874L57.3209 142.59L58.5972 143.87ZM60.711 142.59L61.9874 143.874L60.711 145.15L59.4274 143.87L60.711 142.59ZM59.0142 140.067L57.7342 138.787L59.0142 137.503L60.2941 138.787L59.0142 140.067ZM58.5972 140.48L57.3209 141.764L56.0373 140.48L57.3209 139.204L58.5972 140.48ZM55.6387 140.078L54.3623 138.798L55.6387 137.514L56.9223 138.798L55.6387 140.078ZM55.6387 140.908L56.9223 142.188L55.6387 143.468L54.3623 142.188L55.6387 140.908ZM56.9223 145.578L55.6387 146.858L54.3623 145.578L55.6387 144.298L56.9223 145.578ZM57.3356 145.991L58.6155 147.275L57.3392 148.555L56.0556 147.275L57.3356 145.991ZM57.7525 145.578L59.0324 144.298L60.3124 145.578L59.0324 146.858L57.7525 145.578ZM60.7293 145.991L62.0057 147.275L60.7293 148.555L59.4457 147.275L60.7293 145.991ZM62.4226 147.688L63.7025 148.968L62.8724 149.798H61.9691L61.1243 148.968L62.4226 147.688ZM61.1426 145.578L62.4226 144.298L63.7025 145.578L62.4226 146.858L61.1426 145.578ZM61.1426 142.188L62.4226 140.908L63.7025 142.188L62.4226 143.468L61.1426 142.188ZM62.0057 137.101L60.7293 138.385L59.4457 137.101L60.594 135.956H60.861L62.0057 137.101ZM59.0324 136.688L58.301 135.956H59.7639L59.0324 136.688ZM58.6155 137.101L57.3392 138.385L56.0556 137.101L57.2039 135.956H57.4672L58.6155 137.101ZM56.3701 135.956L55.6387 136.688L54.9073 135.956H56.3701ZM54.0771 135.956L55.2218 137.101L53.9418 138.385L52.8447 137.265L52.8227 136.962L53.8248 135.956H54.0771ZM52.98 135.956L52.7423 136.194V135.956H52.98ZM52.8995 138.169L53.5285 138.798L52.9946 139.332L52.8995 138.169ZM53.2652 142.466L53.214 141.859L53.5432 142.188L53.2652 142.466ZM53.3274 143.237L53.9564 142.601L55.2364 143.885L53.9564 145.161L53.4225 144.638L53.3274 143.237ZM53.5176 145.604V145.549L53.5468 145.578L53.5212 145.604H53.5176ZM53.7406 148.335L53.5797 146.372L53.9454 146.006L55.2254 147.29L53.9454 148.566L53.7297 148.35L53.7406 148.335ZM53.8577 149.798L53.8321 149.506L53.9564 149.381L54.3733 149.798H53.8577ZM54.3733 148.968L55.6496 147.688L56.9333 148.968L56.1031 149.798H55.1998L54.3733 148.968ZM56.9333 149.798L57.3502 149.381L57.7671 149.798H56.9333ZM58.5936 149.798L57.7634 148.968L59.0434 147.688L60.3234 148.968L59.4969 149.798H58.5936ZM60.3234 149.798L60.722 149.392L61.1353 149.809L60.3234 149.798ZM64.2292 149.798H63.6843L64.0975 149.381L64.2218 149.506L64.2292 149.798ZM64.3462 148.335L64.1268 148.551L62.8468 147.275L64.1268 145.991L64.4925 146.357L64.3462 148.335ZM64.5729 145.545V145.604L64.5437 145.578L64.5766 145.545H64.5729ZM64.6461 144.645L64.1268 145.161L62.8468 143.885L64.1268 142.601L64.7631 143.237L64.6461 144.645ZM64.8216 142.469L64.54 142.188L64.8728 141.859L64.8216 142.469ZM65.1873 138.165L65.0922 139.335L64.5217 138.787L65.1471 138.165H65.1873Z" fill="#E6E6E6"/>
<path d="M51.8869 136.477H66.1678C66.4991 136.477 66.7676 136.208 66.7676 135.877V135.445C66.7676 135.114 66.4991 134.846 66.1678 134.846H51.8869C51.5557 134.846 51.2871 135.114 51.2871 135.445V135.877C51.2871 136.208 51.5557 136.477 51.8869 136.477Z" fill="#F0F0F0"/>
<path d="M65.0483 149.506H52.9982C52.667 149.506 52.3984 149.774 52.3984 150.106V150.537C52.3984 150.868 52.667 151.137 52.9982 151.137H65.0483C65.3795 151.137 65.648 150.868 65.648 150.537V150.106C65.648 149.774 65.3795 149.506 65.0483 149.506Z" fill="#F0F0F0"/>
<path d="M155.277 138.358L159.165 127.153C159.165 127.153 153.774 131.15 153.811 126.718C153.847 122.285 156.265 125.727 157.102 124.092C157.94 122.457 154.71 122.472 155.844 119.989C156.978 117.506 160.203 121.32 160.77 119.122C161.337 116.924 162.233 115.801 164.595 115.999C164.595 115.999 165.864 118.895 164.31 120.983C162.756 123.072 168.157 121.4 167.602 123.503C167.046 125.606 165.246 127.442 164.453 125.961C163.659 124.48 162.65 127.317 164.01 128.049C165.371 128.78 162.233 131.947 161.545 130.287C161.068 129.183 160.477 128.132 159.783 127.149L156.21 139.152L155.277 138.358Z" fill="#EBEBEB"/>
<path d="M151.273 138.457L146.884 131.293C146.884 131.293 151.218 133.242 150.541 130.195C149.865 127.149 148.691 129.881 147.861 128.875C147.031 127.87 149.272 127.394 148.113 125.847C146.954 124.3 145.297 127.427 144.573 125.99C143.849 124.553 143.048 123.92 141.454 124.41C141.454 124.41 141.011 126.604 142.404 127.815C143.798 129.025 139.804 128.685 140.503 130.057C141.201 131.428 142.726 132.426 143.063 131.282C143.399 130.137 144.525 131.947 143.688 132.66C142.851 133.373 145.517 135.089 145.729 133.834C145.887 132.999 146.132 132.183 146.46 131.399L150.742 139.152L151.273 138.457Z" fill="#E6E6E6"/>
<path d="M154.223 138.527L152.215 126.981C152.215 126.981 156.837 131.735 157.507 127.413C158.176 123.09 155.269 126.056 154.709 124.326C154.149 122.596 157.298 123.127 156.589 120.526C155.879 117.926 152.127 121.13 151.922 118.895C151.718 116.661 151.012 115.425 148.689 115.238C148.689 115.238 146.993 117.857 148.177 120.142C149.362 122.428 144.359 119.934 144.561 122.073C144.762 124.213 146.228 126.286 147.238 124.97C148.247 123.653 148.781 126.579 147.34 127.076C145.899 127.574 148.437 131.158 149.384 129.636C150.025 128.635 150.769 127.703 151.604 126.857L153.191 139.152L154.223 138.527Z" fill="#F5F5F5"/>
<path d="M156.709 151.506H149.819C149.587 151.505 149.364 151.416 149.195 151.258C149.026 151.099 148.924 150.881 148.909 150.65L148.177 138.764C148.17 138.64 148.188 138.516 148.23 138.399C148.273 138.282 148.339 138.175 148.424 138.085C148.509 137.994 148.612 137.922 148.726 137.873C148.841 137.824 148.964 137.799 149.088 137.799H157.437C157.562 137.799 157.685 137.824 157.799 137.873C157.913 137.922 158.016 137.994 158.101 138.085C158.187 138.175 158.252 138.282 158.295 138.399C158.337 138.516 158.355 138.64 158.348 138.764L157.616 150.65C157.602 150.881 157.501 151.098 157.332 151.257C157.164 151.416 156.941 151.505 156.709 151.506Z" fill="#EBEBEB"/>
<path d="M158.261 139.153H148.164C147.94 139.152 147.725 139.07 147.558 138.921C147.392 138.772 147.286 138.567 147.261 138.345C147.245 138.217 147.257 138.087 147.295 137.964C147.333 137.841 147.397 137.728 147.483 137.631C147.568 137.535 147.673 137.458 147.79 137.405C147.908 137.352 148.035 137.324 148.164 137.324H158.246C158.375 137.324 158.502 137.352 158.619 137.404C158.737 137.457 158.842 137.534 158.927 137.63C159.013 137.726 159.077 137.839 159.116 137.961C159.155 138.084 159.168 138.213 159.153 138.341C159.129 138.562 159.025 138.766 158.861 138.916C158.697 139.065 158.483 139.15 158.261 139.153Z" fill="#F5F5F5"/>
<path d="M115.402 132.676H96.0198V131.985C96.0198 131.5 96.2125 131.035 96.5554 130.692C96.8983 130.349 97.3634 130.156 97.8483 130.156H113.574C114.059 130.156 114.524 130.349 114.867 130.692C115.21 131.035 115.402 131.5 115.402 131.985V132.676Z" fill="#E0E0E0"/>
<path d="M114.771 147.026L108.554 146.415V137.689H106.108V146.419L99.8686 147.033C99.5689 147.061 99.2904 147.2 99.0875 147.423C98.8847 147.645 98.772 147.935 98.7715 148.236V149.169H115.872V148.236C115.873 147.934 115.761 147.641 115.557 147.417C115.353 147.193 115.073 147.053 114.771 147.026Z" fill="#E0E0E0"/>
<path d="M101.031 150.322C101.031 150.64 100.936 150.951 100.76 151.216C100.583 151.481 100.331 151.687 100.037 151.809C99.7434 151.93 99.4198 151.962 99.1077 151.9C98.7956 151.838 98.5088 151.685 98.2838 151.46C98.0588 151.235 97.9055 150.948 97.8434 150.636C97.7813 150.324 97.8132 150 97.935 149.706C98.0568 149.412 98.263 149.161 98.5276 148.984C98.7923 148.807 99.1034 148.713 99.4216 148.713C99.8484 148.713 100.258 148.882 100.559 149.184C100.861 149.486 101.031 149.895 101.031 150.322Z" fill="#E0E0E0"/>
<path d="M113.598 150.322C113.598 150.64 113.692 150.951 113.869 151.216C114.046 151.481 114.297 151.687 114.591 151.809C114.885 151.93 115.209 151.962 115.521 151.9C115.833 151.838 116.12 151.685 116.345 151.46C116.57 151.235 116.723 150.948 116.785 150.636C116.847 150.324 116.815 150 116.693 149.706C116.572 149.412 116.365 149.161 116.101 148.984C115.836 148.807 115.525 148.713 115.207 148.713C114.78 148.713 114.371 148.882 114.069 149.184C113.767 149.486 113.598 149.895 113.598 150.322Z" fill="#E0E0E0"/>
<path d="M105.672 131.783H108.982V138.055C108.982 138.456 108.822 138.84 108.539 139.123C108.256 139.406 107.872 139.565 107.471 139.565H107.182C106.782 139.565 106.398 139.406 106.114 139.123C105.831 138.84 105.672 138.456 105.672 138.055V131.783Z" fill="#E6E6E6"/>
<path d="M104.054 130.316C105.933 122.865 107.006 115.234 107.254 107.554C107.286 106.728 107.636 105.946 108.232 105.373C108.829 104.8 109.624 104.481 110.451 104.482H116.181C117.027 104.481 117.839 104.816 118.439 105.412C119.038 106.008 119.377 106.818 119.381 107.664C119.403 112.886 119.041 123.561 116.09 132.24L105.184 131.837C105.002 131.831 104.824 131.784 104.663 131.7C104.501 131.615 104.361 131.496 104.252 131.349C104.144 131.203 104.07 131.034 104.035 130.855C104.001 130.676 104.008 130.492 104.054 130.316Z" fill="#EBEBEB"/>
<path d="M105.598 131.659C107.582 123.893 108.733 115.938 109.032 107.928C109.061 107.165 109.385 106.444 109.935 105.915C110.486 105.387 111.22 105.092 111.983 105.094H117.26C118.039 105.093 118.786 105.4 119.339 105.948C119.892 106.496 120.206 107.241 120.211 108.019C120.233 112.839 119.897 123.646 117.18 131.651L105.598 131.659Z" fill="#E6E6E6"/>
<path d="M107.867 124.045C107.867 124.045 101.584 122.776 95.5166 123.391C89.4495 124.005 98.3691 131.934 98.3691 131.934H99.6235C99.6235 131.934 94.8949 126.905 95.1582 125.654C95.4215 124.404 107.325 126.053 107.325 126.053L107.867 124.045Z" fill="#E6E6E6"/>
<path d="M117.18 131.659H106.889C108.873 123.893 110.024 115.938 110.323 107.928C110.347 107.164 110.668 106.44 111.219 105.911C111.77 105.381 112.506 105.088 113.27 105.094H117.26C118.039 105.093 118.787 105.4 119.34 105.948C119.894 106.496 120.208 107.241 120.215 108.02C120.233 112.843 119.897 123.654 117.18 131.659Z" fill="#E0E0E0"/>
<path d="M95.951 131.414H116.76C116.842 131.414 116.924 131.43 117.001 131.462C117.077 131.494 117.146 131.54 117.205 131.598C117.263 131.657 117.309 131.726 117.341 131.802C117.373 131.879 117.389 131.96 117.389 132.043C117.389 132.21 117.323 132.371 117.205 132.489C117.087 132.608 116.927 132.675 116.76 132.676H95.951C95.7832 132.676 95.6223 132.609 95.5037 132.49C95.385 132.372 95.3184 132.211 95.3184 132.043C95.3184 131.96 95.3348 131.878 95.3666 131.802C95.3984 131.725 95.4451 131.655 95.5039 131.597C95.5627 131.539 95.6325 131.492 95.7092 131.461C95.7859 131.43 95.8681 131.414 95.951 131.414Z" fill="#E0E0E0"/>
<path d="M98.4267 168.248C137.588 168.248 169.334 166.395 169.334 164.109C169.334 161.822 137.588 159.969 98.4267 159.969C59.2658 159.969 27.5195 161.822 27.5195 164.109C27.5195 166.395 59.2658 168.248 98.4267 168.248Z" fill="#F5F5F5"/>
<path d="M107.227 46.355V161.963C107.227 162.187 107.183 162.409 107.096 162.615C107.01 162.822 106.883 163.009 106.723 163.167C106.564 163.324 106.374 163.448 106.166 163.531C105.958 163.615 105.736 163.656 105.512 163.652H47.3204C47.117 163.655 46.9151 163.616 46.7268 163.539C46.5386 163.462 46.3678 163.347 46.2248 163.203C46.0817 163.058 45.9694 162.886 45.8943 162.697C45.8193 162.507 45.7832 162.305 45.7881 162.102V46.2161C45.7813 46.0369 45.8098 45.8581 45.8721 45.69C45.9344 45.5219 46.0292 45.3677 46.1511 45.2362C46.2731 45.1048 46.4197 44.9987 46.5827 44.924C46.7457 44.8492 46.9218 44.8074 47.101 44.8008H60.9175C61.1312 44.8046 61.339 44.872 61.5142 44.9945C61.6894 45.117 61.8242 45.2889 61.9012 45.4883L62.5339 47.0462C62.6121 47.2443 62.7473 47.4147 62.9225 47.5358C63.0976 47.6568 63.3047 47.7232 63.5176 47.7264H89.5305C89.7425 47.7256 89.9493 47.6614 90.1246 47.5421C90.2999 47.4229 90.4356 47.254 90.5142 47.0572L91.1469 45.492C91.2258 45.2935 91.3609 45.1224 91.5357 44.9996C91.7104 44.8768 91.9172 44.8077 92.1307 44.8008H105.742C106.143 44.816 106.523 44.9868 106.8 45.2769C107.077 45.5671 107.23 45.9538 107.227 46.355Z" fill="#414141"/>
<path opacity="0.6" d="M107.227 46.355V161.963C107.227 162.187 107.183 162.409 107.096 162.615C107.01 162.822 106.883 163.009 106.723 163.167C106.564 163.324 106.374 163.448 106.166 163.531C105.958 163.615 105.736 163.656 105.512 163.652H47.3204C47.117 163.655 46.9151 163.616 46.7268 163.539C46.5386 163.462 46.3678 163.347 46.2248 163.203C46.0817 163.058 45.9694 162.886 45.8943 162.697C45.8193 162.507 45.7832 162.305 45.7881 162.102V46.2161C45.7813 46.0369 45.8098 45.8581 45.8721 45.69C45.9344 45.5219 46.0292 45.3677 46.1511 45.2362C46.2731 45.1048 46.4197 44.9987 46.5827 44.924C46.7457 44.8492 46.9218 44.8074 47.101 44.8008H60.9175C61.1312 44.8046 61.339 44.872 61.5142 44.9945C61.6894 45.117 61.8242 45.2889 61.9012 45.4883L62.5339 47.0462C62.6121 47.2443 62.7473 47.4147 62.9225 47.5358C63.0976 47.6568 63.3047 47.7232 63.5176 47.7264H89.5305C89.7425 47.7256 89.9493 47.6614 90.1246 47.5421C90.2999 47.4229 90.4356 47.254 90.5142 47.0572L91.1469 45.492C91.2258 45.2935 91.3609 45.1224 91.5357 44.9996C91.7104 44.8768 91.9172 44.8077 92.1307 44.8008H105.742C106.143 44.816 106.523 44.9868 106.8 45.2769C107.077 45.5671 107.23 45.9538 107.227 46.355Z" fill="white"/>
<path d="M62.7966 132.553H50.1248C49.4421 132.553 48.8887 133.106 48.8887 133.789V146.461C48.8887 147.143 49.4421 147.697 50.1248 147.697H62.7966C63.4792 147.697 64.0327 147.143 64.0327 146.461V133.789C64.0327 133.106 63.4792 132.553 62.7966 132.553Z" fill="white"/>
<path opacity="0.5" d="M60.8232 135.756H52.0938V144.485H60.8232V135.756Z" fill="#414141"/>
<path opacity="0.3" d="M52.0938 135.756V144.485H60.8269V135.756H52.0938ZM56.1787 140.122L52.496 143.805V136.44L56.1787 140.122ZM52.7776 136.158H60.143L56.4603 139.837L52.7776 136.158ZM56.4603 140.404L60.143 144.087H52.7776L56.4603 140.404ZM56.7419 140.122L60.4246 136.44V143.805L56.7419 140.122Z" fill="white"/>
<path opacity="0.75" d="M64.1649 150.855H48.7539V152.593H64.1649V150.855Z" fill="#414141"/>
<path d="M49.3861 151.317H48.9473V151.16H50.0042V151.317H49.5653V152.436H49.3861V151.317Z" fill="white"/>
<path d="M82.5778 132.398H69.906C69.2233 132.398 68.6699 132.952 68.6699 133.635V146.306C68.6699 146.989 69.2233 147.542 69.906 147.542H82.5778C83.2605 147.542 83.8139 146.989 83.8139 146.306V133.635C83.8139 132.952 83.2605 132.398 82.5778 132.398Z" fill="white"/>
<path opacity="0.5" d="M80.6025 135.605H71.873V144.335H80.6025V135.605Z" fill="#414141"/>
<path opacity="0.3" d="M71.873 135.605V144.335H80.6062V135.605H71.873ZM75.958 139.972L72.2753 143.651V136.289L75.958 139.972ZM72.5569 136.008H79.9223L76.2396 139.687L72.5569 136.008ZM76.2396 140.25L79.9223 143.933H72.5569L76.2396 140.25ZM76.5212 139.968L80.2039 136.286V143.651L76.5212 139.968Z" fill="white"/>
<path opacity="0.75" d="M83.9461 150.707H68.5352V152.444H83.9461V150.707Z" fill="#414141"/>
<path d="M69.1713 151.167H68.7324V151.01H69.7893V151.167H69.3505V152.264H69.1713V151.167Z" fill="white"/>
<path d="M102.359 132.248H89.6873C89.0046 132.248 88.4512 132.801 88.4512 133.484V146.156C88.4512 146.839 89.0046 147.392 89.6873 147.392H102.359C103.042 147.392 103.595 146.839 103.595 146.156V133.484C103.595 132.801 103.042 132.248 102.359 132.248Z" fill="white"/>
<path opacity="0.5" d="M100.384 135.457H91.6543V144.186H100.384V135.457Z" fill="#414141"/>
<path opacity="0.3" d="M91.6543 135.457V144.186H100.384V135.457H91.6543ZM95.7356 139.82L92.0566 143.503V136.141L95.7356 139.82ZM92.3382 135.863H99.7035L96.0209 139.546L92.3382 135.863ZM96.0209 140.112L99.7035 143.795H92.3382L96.0209 140.112ZM96.3025 139.827L99.9851 136.148V143.51L96.3025 139.827Z" fill="white"/>
<path opacity="0.75" d="M103.727 150.557H88.3164V152.294H103.727V150.557Z" fill="#414141"/>
<path d="M88.9486 151.016H88.5098V150.855H89.5667V151.016H89.1278V152.132H88.9486V151.016Z" fill="white"/>
<path d="M103.552 55.582H49.4634C49.0715 55.582 48.7539 55.8997 48.7539 56.2915V81.562C48.7539 81.9538 49.0715 82.2714 49.4634 82.2714H103.552C103.943 82.2714 104.261 81.9538 104.261 81.562V56.2915C104.261 55.8997 103.943 55.582 103.552 55.582Z" fill="white"/>
<path opacity="0.75" d="M51.4573 69.4673C52.1359 69.4673 52.6861 68.9172 52.6861 68.2385C52.6861 67.5599 52.1359 67.0098 51.4573 67.0098C50.7787 67.0098 50.2285 67.5599 50.2285 68.2385C50.2285 68.9172 50.7787 69.4673 51.4573 69.4673Z" fill="#414141"/>
<path d="M50.8496 68.2391L51.8005 68.8827V67.5918L50.8496 68.2391Z" fill="white"/>
<path opacity="0.75" d="M101.559 69.4673C102.237 69.4673 102.788 68.9172 102.788 68.2385C102.788 67.5599 102.237 67.0098 101.559 67.0098C100.88 67.0098 100.33 67.5599 100.33 68.2385C100.33 68.9172 100.88 69.4673 101.559 69.4673Z" fill="#414141"/>
<path d="M102.166 68.2391L101.215 67.5918V68.8827L102.166 68.2391Z" fill="white"/>
<path opacity="0.75" d="M88.9386 62.041H57.9668V65.1276H88.9386V62.041Z" fill="#414141"/>
<path opacity="0.75" d="M88.9386 66.0488H57.9668V69.1354H88.9386V66.0488Z" fill="#414141"/>
<path opacity="0.75" d="M83.3323 70.3633H57.9668V73.4499H83.3323V70.3633Z" fill="#414141"/>
<path d="M59.0934 62.8597H58.3145V62.5781H60.1942V62.8597H59.4152V64.8492H59.0934V62.8597Z" fill="white"/>
<path opacity="0.75" d="M71.4575 80.7863C71.4575 80.8963 71.4249 81.0038 71.3638 81.0952C71.3027 81.1866 71.2159 81.2578 71.1143 81.2999C71.0127 81.342 70.901 81.353 70.7931 81.3315C70.6853 81.3101 70.5863 81.2572 70.5085 81.1794C70.4308 81.1017 70.3778 81.0026 70.3564 80.8948C70.3349 80.787 70.3459 80.6752 70.388 80.5736C70.4301 80.472 70.5013 80.3852 70.5927 80.3242C70.6842 80.2631 70.7916 80.2305 70.9016 80.2305C71.049 80.2305 71.1904 80.289 71.2946 80.3933C71.3989 80.4975 71.4575 80.6389 71.4575 80.7863Z" fill="#414141"/>
<path opacity="0.75" d="M74.2582 80.7864C74.2582 80.8965 74.2255 81.0041 74.1643 81.0956C74.1031 81.1871 74.016 81.2583 73.9142 81.3003C73.8124 81.3422 73.7005 81.353 73.5926 81.3313C73.4846 81.3095 73.3856 81.2562 73.308 81.1781C73.2304 81.1 73.1778 81.0006 73.1567 80.8925C73.1357 80.7845 73.1472 80.6726 73.1899 80.5711C73.2325 80.4696 73.3043 80.383 73.3962 80.3224C73.4881 80.2617 73.5959 80.2298 73.706 80.2305C73.8528 80.2314 73.9933 80.2904 74.0967 80.3946C74.2002 80.4987 74.2582 80.6396 74.2582 80.7864Z" fill="#414141"/>
<path opacity="0.75" d="M77.0629 80.7863C77.0629 80.8963 77.0303 81.0038 76.9692 81.0952C76.9082 81.1866 76.8213 81.2578 76.7198 81.2999C76.6182 81.342 76.5064 81.353 76.3986 81.3315C76.2908 81.3101 76.1917 81.2572 76.114 81.1794C76.0362 81.1017 75.9833 81.0026 75.9619 80.8948C75.9404 80.787 75.9514 80.6752 75.9935 80.5736C76.0356 80.472 76.1068 80.3852 76.1982 80.3242C76.2896 80.2631 76.3971 80.2305 76.507 80.2305C76.58 80.2305 76.6523 80.2448 76.7198 80.2728C76.7872 80.3007 76.8485 80.3417 76.9001 80.3933C76.9517 80.4449 76.9927 80.5062 77.0206 80.5736C77.0485 80.6411 77.0629 80.7133 77.0629 80.7863Z" fill="#414141"/>
<path opacity="0.75" d="M79.8657 80.7864C79.8657 80.8965 79.833 81.0041 79.7717 81.0956C79.7105 81.1871 79.6234 81.2583 79.5217 81.3003C79.4199 81.3422 79.3079 81.353 79.2 81.3313C79.0921 81.3095 78.993 81.2562 78.9154 81.1781C78.8378 81.1 78.7852 81.0006 78.7641 80.8925C78.7431 80.7845 78.7546 80.6726 78.7973 80.5711C78.8399 80.4696 78.9117 80.383 79.0036 80.3224C79.0955 80.2617 79.2033 80.2298 79.3134 80.2305C79.4602 80.2314 79.6007 80.2904 79.7041 80.3946C79.8076 80.4987 79.8657 80.6396 79.8657 80.7864Z" fill="#414141"/>
<path opacity="0.75" d="M82.6704 80.7863C82.6704 80.8963 82.6377 81.0038 82.5767 81.0952C82.5156 81.1866 82.4288 81.2578 82.3272 81.2999C82.2256 81.342 82.1139 81.353 82.006 81.3315C81.8982 81.3101 81.7992 81.2572 81.7214 81.1794C81.6437 81.1017 81.5907 81.0026 81.5693 80.8948C81.5478 80.787 81.5588 80.6752 81.6009 80.5736C81.643 80.472 81.7142 80.3852 81.8056 80.3242C81.8971 80.2631 82.0045 80.2305 82.1145 80.2305C82.2619 80.2305 82.4033 80.289 82.5075 80.3933C82.6118 80.4975 82.6704 80.6389 82.6704 80.7863Z" fill="#414141"/>
<path d="M104.261 86.041H48.7539V90.3783H104.261V86.041Z" fill="white"/>
<path opacity="0.75" d="M104.262 85.9941H99.8262V90.4302H104.262V85.9941Z" fill="#414141"/>
<path d="M98.9218 93.7324H49.7047C49.1796 93.7324 48.7539 94.1581 48.7539 94.6833V109.626C48.7539 110.151 49.1796 110.577 49.7047 110.577H98.9218C99.4469 110.577 99.8726 110.151 99.8726 109.626V94.6833C99.8726 94.1581 99.4469 93.7324 98.9218 93.7324Z" fill="white"/>
<path opacity="0.5" d="M67.022 96.0703H51.0332V108.245H67.022V96.0703Z" fill="#414141"/>
<path opacity="0.3" d="M51.0332 96.0703V108.245H67.022V96.0703H51.0332ZM66.2942 96.436L59.0276 101.922L51.7646 96.436H66.2942ZM51.3989 96.6189L58.7131 102.156L51.3989 107.703V96.6189ZM51.7646 107.879L59.0276 102.393L66.2942 107.879H51.7646ZM59.3311 102.156L66.6453 96.6189V107.703L59.3311 102.156Z" fill="white"/>
<path opacity="0.75" d="M97.8463 96.248H69.5039V97.8352H97.8463V96.248Z" fill="#414141"/>
<path opacity="0.75" d="M97.8463 99.0391H69.5039V100.626H97.8463V99.0391Z" fill="#414141"/>
<path opacity="0.75" d="M82.5304 101.986H69.5039V103.574H82.5304V101.986Z" fill="#414141"/>
<path d="M70.0822 96.6736H69.6836V96.5273H70.6344V96.6736H70.2322V97.694H70.0676L70.0822 96.6736Z" fill="white"/>
<path d="M98.9218 112.018H49.7047C49.1796 112.018 48.7539 112.443 48.7539 112.968V127.911C48.7539 128.436 49.1796 128.862 49.7047 128.862H98.9218C99.4469 128.862 99.8726 128.436 99.8726 127.911V112.968C99.8726 112.443 99.4469 112.018 98.9218 112.018Z" fill="white"/>
<path opacity="0.5" d="M67.022 114.355H51.0332V126.53H67.022V114.355Z" fill="#414141"/>
<path opacity="0.3" d="M51.0332 114.355V126.53H67.022V114.355H51.0332ZM66.2942 114.721L59.0276 120.207L51.7646 114.721H66.2942ZM51.3989 114.904L58.7131 120.441L51.3989 125.989V114.904ZM51.7646 126.164L59.0276 120.679L66.2942 126.164H51.7646ZM59.3311 120.441L66.6453 114.904V125.989L59.3311 120.441Z" fill="white"/>
<path opacity="0.75" d="M97.8463 114.533H69.5039V116.12H97.8463V114.533Z" fill="#414141"/>
<path opacity="0.75" d="M97.8463 117.324H69.5039V118.911H97.8463V117.324Z" fill="#414141"/>
<path opacity="0.75" d="M82.5304 120.271H69.5039V121.859H82.5304V120.271Z" fill="#414141"/>
<path d="M70.0822 114.959H69.6836V114.812H70.6344V114.959H70.2322V115.979H70.0676L70.0822 114.959Z" fill="white"/>
<path d="M103.727 93.75H101.752V128.865H103.727V93.75Z" fill="white"/>
<path opacity="0.75" d="M103.727 95.6602H101.752V101.16H103.727V95.6602Z" fill="#414141"/>
<path d="M107.227 46.355V52.0199H45.7881V46.2161C45.7813 46.0369 45.8098 45.8581 45.8721 45.69C45.9344 45.5219 46.0292 45.3677 46.1511 45.2362C46.2731 45.1048 46.4197 44.9987 46.5827 44.924C46.7457 44.8492 46.9218 44.8074 47.101 44.8008H60.9175C61.1312 44.8046 61.339 44.872 61.5142 44.9945C61.6894 45.117 61.8242 45.2889 61.9012 45.4883L62.5339 47.0462C62.6121 47.2443 62.7473 47.4147 62.9225 47.5358C63.0976 47.6568 63.3047 47.7232 63.5176 47.7264H89.5305C89.7425 47.7256 89.9493 47.6614 90.1246 47.5421C90.2999 47.4229 90.4356 47.254 90.5142 47.0572L91.1469 45.492C91.2258 45.2935 91.3609 45.1224 91.5357 44.9996C91.7104 44.8768 91.9172 44.8077 92.1307 44.8008H105.742C106.143 44.816 106.523 44.9868 106.8 45.2769C107.077 45.5671 107.23 45.9538 107.227 46.355Z" fill="#414141"/>
<path d="M45.7876 155.977H107.227V161.967C107.227 162.191 107.182 162.413 107.096 162.619C107.009 162.826 106.882 163.013 106.723 163.171C106.563 163.328 106.374 163.452 106.166 163.535C105.958 163.619 105.735 163.66 105.511 163.656H47.3199C47.1164 163.659 46.9145 163.62 46.7263 163.543C46.538 163.466 46.3673 163.351 46.2242 163.207C46.0812 163.062 45.9688 162.89 45.8938 162.701C45.8188 162.512 45.7826 162.309 45.7876 162.106V155.977Z" fill="#414141"/>
<path d="M42.6785 45.3965H31.5391V50.8199H42.6785V45.3965Z" fill="#414141"/>
<path d="M33.3848 46.873H40.8342" stroke="white" stroke-width="0.280781" stroke-linecap="round" stroke-linejoin="round"/>
<path d="M33.3848 48.1055H40.8342" stroke="white" stroke-width="0.280781" stroke-linecap="round" stroke-linejoin="round"/>
<path d="M33.3848 49.3398H37.1113" stroke="white" stroke-width="0.280781" stroke-linecap="round" stroke-linejoin="round"/>
<path d="M39.3359 50.5977L50.3291 60.1317" stroke="#414141" stroke-width="0.280781" stroke-miterlimit="10"/>
<path d="M50.3277 60.796C50.6953 60.796 50.9933 60.498 50.9933 60.1304C50.9933 59.7628 50.6953 59.4648 50.3277 59.4648C49.9601 59.4648 49.6621 59.7628 49.6621 60.1304C49.6621 60.498 49.9601 60.796 50.3277 60.796Z" fill="#414141"/>
<path d="M41.5809 112.801H30.4414V118.224H41.5809V112.801Z" fill="#414141"/>
<path d="M32.2891 114.277H39.7385" stroke="white" stroke-width="0.280781" stroke-linecap="round" stroke-linejoin="round"/>
<path d="M32.2891 115.51H39.7385" stroke="white" stroke-width="0.280781" stroke-linecap="round" stroke-linejoin="round"/>
<path d="M32.2891 116.742H36.0156" stroke="white" stroke-width="0.280781" stroke-linecap="round" stroke-linejoin="round"/>
<path d="M49.232 116.175C49.5996 116.175 49.8976 115.877 49.8976 115.509C49.8976 115.142 49.5996 114.844 49.232 114.844C48.8644 114.844 48.5664 115.142 48.5664 115.509C48.5664 115.877 48.8644 116.175 49.232 116.175Z" fill="#414141"/>
<path d="M49.2322 115.51H40.916" stroke="#414141" stroke-width="0.280781" stroke-miterlimit="10"/>
<path d="M120.27 71.0684H109.131V76.4918H120.27V71.0684Z" fill="#414141"/>
<path d="M110.975 72.5469H118.428" stroke="white" stroke-width="0.280781" stroke-linecap="round" stroke-linejoin="round"/>
<path d="M110.975 73.7793H118.428" stroke="white" stroke-width="0.280781" stroke-linecap="round" stroke-linejoin="round"/>
<path d="M110.975 75.0117H114.701" stroke="white" stroke-width="0.280781" stroke-linecap="round" stroke-linejoin="round"/>
<path d="M96.5718 87.9327C96.9394 87.9327 97.2374 87.6347 97.2374 87.2671C97.2374 86.8996 96.9394 86.6016 96.5718 86.6016C96.2042 86.6016 95.9062 86.8996 95.9062 87.2671C95.9062 87.6347 96.2042 87.9327 96.5718 87.9327Z" fill="#414141"/>
<path d="M96.5723 87.2667L112.638 75.2422" stroke="#414141" stroke-width="0.280781" stroke-miterlimit="10"/>
<path d="M121.36 143.084H110.221V148.507H121.36V143.084Z" fill="#414141"/>
<path d="M112.068 144.566H119.518" stroke="white" stroke-width="0.280781" stroke-linecap="round" stroke-linejoin="round"/>
<path d="M112.068 145.799H119.518" stroke="white" stroke-width="0.280781" stroke-linecap="round" stroke-linejoin="round"/>
<path d="M112.068 147.031H115.795" stroke="white" stroke-width="0.280781" stroke-linecap="round" stroke-linejoin="round"/>
<path d="M98.3273 145.798C98.3273 145.93 98.2881 146.059 98.2148 146.169C98.1415 146.278 98.0374 146.363 97.9155 146.414C97.7937 146.464 97.6597 146.477 97.5305 146.451C97.4013 146.425 97.2827 146.361 97.1897 146.268C97.0968 146.174 97.0337 146.055 97.0084 145.926C96.9832 145.797 96.9969 145.663 97.0478 145.541C97.0988 145.42 97.1846 145.316 97.2946 145.243C97.4045 145.171 97.5335 145.132 97.6653 145.133C97.7526 145.133 97.8389 145.15 97.9195 145.184C98 145.217 98.0732 145.266 98.1347 145.328C98.1962 145.39 98.2449 145.463 98.2779 145.544C98.311 145.625 98.3278 145.711 98.3273 145.798Z" fill="#414141"/>
<path d="M97.666 145.799H111.044" stroke="#414141" stroke-width="0.280781" stroke-miterlimit="10"/>
<path d="M132.581 85.9531C131.348 86.0116 126.188 92.9418 126.188 92.9418L124.272 90.4477C124.272 90.4477 121.317 96.1893 122.776 98.9248C124.235 101.66 131.941 94.1706 131.941 94.1706L132.581 85.9531Z" fill="#414141"/>
<path opacity="0.2" d="M132.58 85.9531L132.072 91.4826L131.94 94.1852C131.94 94.1852 130.675 95.414 129.073 96.6903C126.721 98.5591 123.66 100.549 122.775 98.9248C121.313 96.193 124.271 90.4513 124.271 90.4513L126.187 92.9418V92.9199C126.491 92.503 131.388 86.008 132.58 85.9531Z" fill="black"/>
<path opacity="0.2" d="M132.073 91.4816L131.941 94.1841C131.941 94.1841 130.676 95.4129 129.074 96.6892C128.92 93.4417 131.941 88.7168 131.941 88.7168L132.073 91.4816Z" fill="black"/>
<path opacity="0.2" d="M126.188 92.9417L126.463 93.4683L125.658 96.5951C125.658 96.5951 127.874 94.58 126.463 92.6016L126.188 92.9417Z" fill="black"/>
<path d="M132.358 103.285L142.752 104.085C142.752 104.085 142.894 97.8684 143.721 94.6465C143.991 93.6006 144.328 92.4266 144.756 91.0625C144.938 90.4811 145.121 89.874 145.355 89.234C145.589 88.594 145.769 87.9796 146.006 87.3031C144.586 86.8476 143.134 86.4968 141.662 86.2535C140.108 85.9775 138.536 85.8125 136.959 85.7598C134.922 85.7598 132.57 85.9719 132.57 85.9719C132.57 85.9719 132.237 86.056 132.029 88.21C131.846 90.2214 131.938 95.9082 132.358 103.285Z" fill="#414141"/>
<path opacity="0.2" d="M132.358 103.285L142.751 104.085C142.751 104.085 142.751 103.957 142.751 103.72C142.795 102.359 143 97.4076 143.709 94.6392C143.9 93.9077 144.126 93.0776 144.401 92.1779C144.507 91.8122 144.62 91.4465 144.744 91.0552C144.927 90.4774 145.11 89.8667 145.34 89.2267C145.571 88.5867 145.757 87.9723 145.995 87.2957C145.428 87.1129 144.858 86.952 144.284 86.802C143.417 86.579 142.535 86.3961 141.65 86.2462C140.1 85.9733 138.532 85.8108 136.958 85.7598C135.646 85.7598 134.208 85.8402 133.349 85.9097C132.873 85.9463 132.581 85.9755 132.581 85.9755C132.581 85.9755 132.248 86.056 132.036 88.21C131.846 90.2251 131.937 95.9082 132.358 103.285Z" fill="black"/>
<path d="M137.821 88.0559C140.403 87.7268 141.182 86.6224 141.182 86.6224C140.125 85.6276 140.315 84.1575 140.586 83.2432C140.667 82.9529 140.773 82.6703 140.904 82.3984L137.795 82.9799C137.87 83.4151 137.913 83.8551 137.923 84.2965C137.934 84.6195 137.905 84.9426 137.836 85.2583C137.623 86.1872 137.104 86.1981 137.104 86.1981C136.541 87.2221 137.821 88.0559 137.821 88.0559Z" fill="#EBB376"/>
<path opacity="0.2" d="M137.923 84.297C137.934 84.62 137.905 84.9431 137.836 85.2588C139.072 85.0942 140.004 84.1068 140.593 83.251C140.674 82.9608 140.781 82.6781 140.911 82.4062L137.803 82.9877C137.875 83.4206 137.915 83.8582 137.923 84.297Z" fill="black"/>
<path d="M145.106 70.2724H146.006C145.804 69.2374 144.466 67.8404 143.007 68.2098C143.265 67.9585 143.548 67.7342 143.852 67.5405C143.327 67.428 142.783 67.448 142.268 67.5987C141.754 67.7494 141.285 68.0261 140.904 68.4036C139.646 69.6982 138.988 72.3825 140.088 73.4321C140.231 73.5674 140.403 73.5272 140.589 73.3699C141.537 74.6463 142.864 73.4687 143.095 73.4321C143.325 73.3955 143.149 74.0977 143.149 74.0977C143.91 74.0977 144.093 73.1322 144.093 73.1322L144.824 74.0977C145.064 73.8459 145.237 73.539 145.33 73.2041C145.422 72.8692 145.431 72.5167 145.355 72.1777L146.013 72.6019C146.134 70.8648 145.106 70.2724 145.106 70.2724Z" fill="#263238"/>
<path d="M134.215 78.8504C134.215 78.8504 132.687 74.8276 136.655 72.8418C140.623 70.856 142.934 73.672 143.08 76.3929C143.226 79.1137 142.349 81.4579 141.054 81.926C139.759 82.3941 134.215 78.8504 134.215 78.8504Z" fill="#263238"/>
<path d="M137.375 74.7225C134.698 75.1102 134.044 76.6681 134.245 79.4548C134.497 82.9364 135.616 85.2769 138.856 84.0554C143.259 82.3988 141.819 74.0826 137.375 74.7225Z" fill="#EBB376"/>
<path d="M135.952 79.0566C135.797 79.4874 135.589 79.8976 135.334 80.2781C135.427 80.3786 135.547 80.4508 135.68 80.4863C135.813 80.5219 135.952 80.5194 136.084 80.4792L135.952 79.0566Z" fill="#D58745"/>
<path d="M137.559 78.5987C137.585 78.8181 137.727 78.9827 137.873 78.9644C138.02 78.9461 138.119 78.7523 138.089 78.5292C138.06 78.3062 137.925 78.1452 137.775 78.1635C137.625 78.1818 137.533 78.3793 137.559 78.5987Z" fill="#263238"/>
<path d="M137.843 78.1707L137.338 78.0391C137.338 78.0391 137.627 78.4157 137.843 78.1707Z" fill="#263238"/>
<path d="M134.811 78.8841C134.84 79.1035 134.979 79.2681 135.125 79.2498C135.271 79.2315 135.37 79.0414 135.345 78.8183C135.319 78.5952 135.176 78.4343 135.03 78.4526C134.884 78.4709 134.785 78.6647 134.811 78.8841Z" fill="#263238"/>
<path d="M135.093 78.4442L134.592 78.3125C134.592 78.3125 134.877 78.7002 135.093 78.4442Z" fill="#263238"/>
<path d="M137.32 76.7472C137.528 76.6904 137.746 76.6819 137.958 76.7225C138.17 76.7631 138.37 76.8516 138.542 76.9813" stroke="#263238" stroke-width="0.198782" stroke-linecap="round" stroke-linejoin="round"/>
<path d="M135.363 76.912C135.174 76.891 134.983 76.9131 134.804 76.9764C134.625 77.0397 134.462 77.1427 134.328 77.2777" stroke="#263238" stroke-width="0.198782" stroke-linecap="round" stroke-linejoin="round"/>
<path d="M140.952 78.8112C140.952 78.8112 139.383 76.7925 139.328 75.07C139.328 75.07 133.707 73.6694 134.227 79.0928C134.227 79.0928 133.016 74.3861 137.602 73.6072C142.188 72.8282 143.143 79.5719 141.054 81.9234C141.054 81.927 141.925 80.0766 140.952 78.8112Z" fill="#263238"/>
<path d="M140.598 79.4403C140.579 79.1289 140.683 78.8225 140.889 78.5877C141.094 78.3528 141.384 78.2085 141.695 78.1859C142.536 78.1567 143.18 79.8024 141.176 80.5082C140.898 80.6106 140.689 80.3436 140.598 79.4403Z" fill="#EBB376"/>
<path d="M136.654 81.8751C136.654 81.8751 137.81 81.9702 138.117 80.9023" stroke="#263238" stroke-width="0.198782" stroke-linecap="round" stroke-linejoin="round"/>
<path d="M130.701 90.5313C130.706 90.5693 130.702 90.6079 130.691 90.6445C130.679 90.681 130.66 90.7147 130.634 90.7431C130.609 90.7716 130.577 90.7942 130.542 90.8094C130.507 90.8245 130.469 90.832 130.431 90.8312H127.465C127.383 90.8259 127.306 90.7936 127.245 90.7392C127.184 90.6849 127.143 90.6117 127.128 90.5313L126.466 84.68C126.46 84.6399 126.462 84.599 126.473 84.5598C126.483 84.5206 126.501 84.4839 126.526 84.452C126.551 84.4202 126.582 84.3938 126.618 84.3745C126.654 84.3552 126.693 84.3434 126.733 84.3398H129.703C129.788 84.3509 129.868 84.3904 129.928 84.4521C129.989 84.5139 130.026 84.5941 130.036 84.68L130.701 90.5313Z" fill="#263238"/>
<path opacity="0.5" d="M129.706 84.6339L130.379 90.551C130.388 90.5856 130.388 90.6218 130.381 90.6566C130.373 90.6914 130.357 90.7238 130.334 90.7513C130.311 90.7787 130.282 90.8004 130.249 90.8145C130.217 90.8286 130.181 90.8348 130.145 90.8326H127.629C127.461 90.8326 127.15 90.7375 127.132 90.5693L126.459 84.6339C126.459 84.4693 126.73 84.334 126.898 84.334H129.414C129.492 84.3368 129.566 84.3695 129.62 84.4254C129.675 84.4812 129.706 84.5559 129.706 84.6339Z" fill="white"/>
<path d="M124.48 91.0187L126.031 88.393C126.017 87.8221 126.06 87.2512 126.159 86.6888C126.294 86.3633 127.812 85.6319 128.108 85.7416C128.405 85.8513 128.514 88.5575 128.244 88.9232C127.973 89.2889 127.026 89.6949 127.026 89.6949L127.092 90.2069L126.188 92.9424L124.48 91.0187Z" fill="#EBB376"/>
<path d="M123.859 90.7227L124.375 90.207L126.811 92.9425L126.463 94.025L123.859 90.7227Z" fill="#414141"/>
<path opacity="0.2" d="M136.201 95.0889C136.201 95.0889 139.065 101.613 142.762 103.727C142.806 102.366 143.011 97.4148 143.72 94.6464C143.91 93.915 144.137 93.0848 144.411 92.1852L143.285 90.832C143.285 90.832 142.502 93.2494 142.85 95.3449L138.538 92.7081L136.201 95.0889Z" fill="black"/>
<path d="M138.973 93.589L135.455 90.8316C135.256 90.2334 135.012 89.6514 134.723 89.0908C134.511 88.8348 131.432 87.6975 131.169 87.6682C130.905 87.639 131.169 90.1916 131.556 90.6268C131.944 91.062 134.423 91.9214 134.423 91.9214L138.106 95.3883L138.973 93.589Z" fill="#EBB376"/>
<path d="M146.006 87.2871C148.072 88.3221 148.99 99.9845 145.403 102C141.815 104.015 136.461 94.9012 136.461 94.9012L138.545 92.7069C138.545 92.7069 142.908 96.364 143.439 96.0275C143.969 95.6911 143.366 92.1181 143.366 92.1181C143.366 92.1181 142.751 91.021 144.042 89.3387C145.333 87.6565 146.006 87.2871 146.006 87.2871Z" fill="#414141"/>
<path opacity="0.2" d="M146.006 87.2871C148.072 88.3221 148.99 99.9845 145.403 102C141.815 104.015 136.461 94.9012 136.461 94.9012L138.545 92.7069C138.545 92.7069 142.908 96.364 143.439 96.0275C143.969 95.6911 143.366 92.1181 143.366 92.1181C143.366 92.1181 142.751 91.021 144.042 89.3387C145.333 87.6565 146.006 87.2871 146.006 87.2871Z" fill="black"/>
<path d="M136.417 95.7252L135.795 95.3486L138.132 91.9219L138.991 92.401L136.417 95.7252Z" fill="#414141"/>
<path d="M133.35 85.8914C133.362 86.3153 133.512 86.7236 133.777 87.0544C133.973 87.2971 134.207 87.507 134.469 87.6761C135.138 88.1186 136.18 88.5062 137.797 88.7183C138.681 88.8451 139.579 88.8537 140.466 88.7439C140.854 88.6917 141.237 88.6073 141.611 88.4916C142.649 88.1931 143.58 87.6044 144.295 86.7947C143.725 86.6484 143.147 86.5168 142.565 86.4071C142.414 86.3729 142.264 86.3437 142.116 86.3193L141.662 86.2388C140.108 85.9679 138.536 85.8078 136.959 85.7598C136.389 85.7598 135.804 85.7598 135.244 85.7927C134.999 85.7927 134.758 85.8146 134.531 85.8329C134.081 85.8366 133.675 85.8658 133.35 85.8914Z" fill="#EBB376"/>
<path d="M140.484 88.743C140.872 88.6908 141.255 88.6064 141.629 88.4907C141.725 87.7142 142.059 86.9864 142.584 86.4061C142.432 86.372 142.282 86.3427 142.134 86.3184C141.216 86.9437 140.704 88.0884 140.484 88.743Z" fill="#263238"/>
<path d="M133.777 87.0534C133.973 87.2962 134.206 87.5061 134.469 87.6751C134.494 86.9694 134.768 86.2955 135.244 85.7734C134.999 85.7734 134.757 85.7954 134.531 85.8137C134.205 86.1766 133.949 86.597 133.777 87.0534Z" fill="#263238"/>
<path d="M131.422 64.3652H135.185C135.458 64.3652 135.719 64.4735 135.912 64.6662C136.105 64.8589 136.213 65.1203 136.213 65.3929V68.3185C136.213 68.5911 136.105 68.8525 135.912 69.0452C135.719 69.2379 135.458 69.3462 135.185 69.3462H133.803L133.302 70.5567L132.805 69.3608H131.422C131.15 69.3608 130.888 69.2525 130.696 69.0598C130.503 68.8671 130.395 68.6057 130.395 68.3332V65.4075C130.393 65.2713 130.418 65.1361 130.469 65.0097C130.519 64.8834 130.595 64.7684 130.69 64.6714C130.786 64.5744 130.9 64.4974 131.026 64.4448C131.151 64.3923 131.286 64.3652 131.422 64.3652Z" fill="#414141"/>
<path d="M134.709 66.9098H133.996C133.863 66.3856 133.806 65.8448 133.827 65.3044C133.706 65.2866 133.583 65.2866 133.462 65.3044C133.345 65.3409 133.304 66.5697 133.304 66.5697C132.854 66.5331 132.403 66.5245 131.951 66.5441C131.907 66.577 131.9 66.7672 131.897 66.9098C131.896 66.9479 131.909 66.9849 131.933 67.0144C131.957 67.0439 131.991 67.0638 132.028 67.0707H132.072L132.138 68.2922C132.141 68.3382 132.161 68.3814 132.194 68.4132C132.227 68.4451 132.271 68.4633 132.317 68.4641H133.513C133.632 68.4638 133.747 68.4282 133.846 68.3617L133.977 68.2739L134.709 68.3251V66.9098Z" fill="#414141"/>
<path opacity="0.7" d="M134.709 66.9098H133.996C133.863 66.3856 133.806 65.8448 133.827 65.3044C133.706 65.2866 133.583 65.2866 133.462 65.3044C133.345 65.3409 133.304 66.5697 133.304 66.5697C132.854 66.5331 132.403 66.5245 131.951 66.5441C131.907 66.577 131.9 66.7672 131.897 66.9098C131.896 66.9479 131.909 66.9849 131.933 67.0144C131.957 67.0439 131.991 67.0638 132.028 67.0707H132.072L132.138 68.2922C132.141 68.3382 132.161 68.3814 132.194 68.4132C132.227 68.4451 132.271 68.4633 132.317 68.4641H133.513C133.632 68.4638 133.747 68.4282 133.846 68.3617L133.977 68.2739L134.709 68.3251V66.9098Z" fill="white"/>
<path d="M122.594 159.179L124.784 159.56L125.68 156.627L126.5 153.935L123.976 153.068L123.245 156.301L122.594 159.179Z" fill="#E4897B"/>
<path d="M125.278 159.5C125.314 159.263 122.315 158.934 122.315 158.934C122.315 158.934 120.161 160.44 118.318 160.543C116.475 160.645 117.272 161.863 119.273 162.192L124.173 163.041C125.563 163.289 124.894 161.969 125.278 159.5Z" fill="#263238"/>
<path d="M120.369 159.295C120.336 159.247 120.318 159.19 120.318 159.132C120.318 159.074 120.336 159.017 120.369 158.97C120.388 158.93 120.415 158.894 120.449 158.865C120.482 158.836 120.521 158.814 120.563 158.801C120.788 158.752 121.023 158.767 121.24 158.845C121.024 158.677 120.837 158.479 120.874 158.33C120.874 158.231 120.965 158.158 121.112 158.121C121.232 158.089 121.359 158.106 121.466 158.169C121.832 158.403 121.967 159.123 121.971 159.156C121.975 159.168 121.975 159.181 121.971 159.193V159.211C121.971 159.211 121.971 159.211 121.953 159.233C121.945 159.236 121.936 159.236 121.927 159.233C121.577 159.333 121.216 159.392 120.852 159.408C120.683 159.435 120.509 159.394 120.369 159.295ZM120.603 158.948C120.581 158.954 120.56 158.965 120.543 158.981C120.525 158.996 120.511 159.014 120.501 159.035C120.45 159.145 120.483 159.178 120.501 159.193C120.622 159.328 121.192 159.262 121.664 159.156C121.337 158.989 120.969 158.917 120.603 158.948ZM121.123 158.271C121.079 158.271 121.006 158.308 121.002 158.348C120.984 158.483 121.368 158.783 121.777 159.021C121.726 158.747 121.587 158.497 121.382 158.308C121.332 158.275 121.274 158.258 121.214 158.256C121.183 158.258 121.153 158.263 121.123 158.271Z" fill="#414141"/>
<path opacity="0.2" d="M123.23 156.37L125.673 156.684L126.496 153.963L123.973 153.082L123.23 156.37Z" fill="black"/>
<path d="M137.215 160.101H139.435L139.8 157.059L140.133 154.268L137.493 153.848L137.343 157.157L137.215 160.101Z" fill="#E4897B"/>
<path d="M139.913 159.959C139.913 159.721 136.896 159.907 136.896 159.907C136.896 159.907 135.042 161.758 133.239 162.175C131.436 162.592 132.445 163.638 134.457 163.638H139.43C140.849 163.656 139.972 162.456 139.913 159.959Z" fill="#263238"/>
<path d="M135.046 160.594C135.002 160.556 134.971 160.505 134.958 160.448C134.945 160.392 134.95 160.333 134.973 160.279C134.984 160.236 135.004 160.196 135.032 160.161C135.06 160.127 135.094 160.098 135.134 160.078C135.347 159.991 135.58 159.965 135.807 160.005C135.562 159.877 135.35 159.72 135.339 159.566C135.328 159.413 135.401 159.38 135.536 159.317C135.597 159.288 135.664 159.273 135.732 159.273C135.799 159.273 135.866 159.288 135.927 159.317C136.337 159.482 136.589 160.173 136.6 160.202C136.608 160.223 136.608 160.245 136.6 160.265C136.594 160.274 136.585 160.281 136.575 160.287C136.181 160.478 135.758 160.601 135.324 160.652C135.227 160.667 135.129 160.646 135.046 160.594ZM135.211 160.228C135.19 160.238 135.172 160.253 135.158 160.27C135.143 160.288 135.133 160.308 135.127 160.33C135.097 160.447 135.127 160.477 135.127 160.488C135.269 160.601 135.821 160.44 136.264 160.254C135.923 160.146 135.559 160.132 135.211 160.213V160.228ZM135.606 159.471C135.565 159.493 135.496 159.53 135.5 159.57C135.5 159.705 135.938 159.935 136.385 160.1C136.283 159.838 136.101 159.615 135.865 159.464C135.827 159.448 135.786 159.44 135.745 159.438C135.697 159.434 135.65 159.44 135.606 159.456V159.471Z" fill="#414141"/>
<path opacity="0.2" d="M137.342 157.226L139.799 157.12L140.132 154.297L137.492 153.861L137.342 157.226Z" fill="black"/>
<path d="M123.025 154.661L126.624 155.283C130.259 146.396 132.841 138.976 134.67 132.818C135.653 129.497 136.418 126.542 137.006 123.92L136.827 133.597V155.579H140.484C149.386 113.918 143.084 104.409 143.084 104.409L132.439 102.621C132.019 104.551 131.722 106.505 131.55 108.472L131.067 111.928L126.917 133.015L123.025 154.661Z" fill="#414141"/>
<path opacity="0.6" d="M123.025 154.661L126.624 155.283C130.259 146.396 132.841 138.976 134.67 132.818C135.653 129.497 136.418 126.542 137.006 123.92L136.827 133.597V155.579H140.484C149.386 113.918 143.084 104.409 143.084 104.409L132.439 102.621C132.019 104.551 131.722 106.505 131.55 108.472L131.067 111.928L126.917 133.015L123.025 154.661Z" fill="white"/>
<path d="M127.19 154.848L122.725 153.393L122.783 155.258L126.477 156.417L127.19 154.848Z" fill="#414141"/>
<path d="M140.97 155.05L136.318 154.381L136.706 156.209L140.546 156.718L140.97 155.05Z" fill="#414141"/>
<path d="M143.083 102.849V104.406L132.236 103.591V101.744L143.083 102.849Z" fill="#263238"/>
<path d="M134.584 103.895L136.954 104.103L137.115 102.333L134.745 102.125L134.584 103.895Z" fill="white"/>
<path d="M139.303 104.883L139.84 104.912L139.979 102.221L139.442 102.191L139.303 104.883Z" fill="#414141"/>
<path opacity="0.6" d="M139.303 104.883L139.84 104.912L139.979 102.221L139.442 102.191L139.303 104.883Z" fill="white"/>
<path d="M132.676 104.168L133.213 104.194L133.352 101.502L132.815 101.477L132.676 104.168Z" fill="#414141"/>
<path opacity="0.6" d="M132.676 104.168L133.213 104.194L133.352 101.502L132.815 101.477L132.676 104.168Z" fill="white"/>
<path opacity="0.2" d="M134.666 132.819C135.65 129.498 136.414 126.543 137.003 123.921C136.953 120.82 136.723 117.725 136.315 114.65C136.315 114.65 134.757 126.609 134.666 132.819Z" fill="black"/>
</svg>
