<svg width="193" height="193" viewBox="0 0 193 193" fill="none" xmlns="http://www.w3.org/2000/svg">
<circle cx="96.5" cy="96.5" r="96.5" fill="#2AB7CA"/>
<path d="M185.227 143.844H8.3125V143.932H185.227V143.844Z" fill="#EBEBEB"/>
<path d="M34.3778 147.211H26.873V147.299H34.3778V147.211Z" fill="#EBEBEB"/>
<path d="M98.9301 146.254H68.8652V146.342H98.9301V146.254Z" fill="#EBEBEB"/>
<path d="M45.7403 150.498H32.2559V150.587H45.7403V150.498Z" fill="#EBEBEB"/>
<path d="M167.501 149.904H152.219V149.993H167.501V149.904Z" fill="#EBEBEB"/>
<path d="M151.062 149.904H146.826V149.993H151.062V149.904Z" fill="#EBEBEB"/>
<path d="M139.542 148.412H131.404V148.501H139.542V148.412Z" fill="#EBEBEB"/>
<path d="M127.315 148.412H110.176V148.501H127.315V148.412Z" fill="#EBEBEB"/>
<path d="M92.1696 128.063H23.8489C23.3136 128.062 22.8007 127.849 22.4225 127.47C22.0444 127.091 21.832 126.578 21.832 126.042V30.0027C21.8367 29.4705 22.0511 28.9617 22.4287 28.5867C22.8064 28.2118 23.3167 28.0009 23.8489 28H92.1696C92.7055 28 93.2194 28.2129 93.5983 28.5918C93.9771 28.9706 94.19 29.4845 94.19 30.0204V126.042C94.19 126.578 93.9771 127.092 93.5983 127.471C93.2194 127.85 92.7055 128.063 92.1696 128.063ZM23.8489 28.0708C23.3371 28.0717 22.8466 28.2757 22.4851 28.6379C22.1235 29.0001 21.9205 29.4909 21.9205 30.0027V126.042C21.9205 126.554 22.1235 127.045 22.4851 127.407C22.8466 127.769 23.3371 127.973 23.8489 127.974H92.1696C92.6817 127.973 93.1726 127.77 93.5347 127.407C93.8968 127.045 94.1006 126.554 94.1016 126.042V30.0027C94.1006 29.4906 93.8968 28.9997 93.5347 28.6376C93.1726 28.2755 92.6817 28.0717 92.1696 28.0708H23.8489Z" fill="#EBEBEB"/>
<path d="M168.706 128.063H100.382C99.8461 128.062 99.3328 127.849 98.9541 127.47C98.5754 127.091 98.3623 126.578 98.3613 126.042V30.0027C98.3669 29.4702 98.5821 28.9614 98.9603 28.5865C99.3385 28.2116 99.8492 28.0009 100.382 28H168.706C169.238 28.0018 169.747 28.2131 170.124 28.588C170.501 28.9628 170.715 29.4711 170.719 30.0027V126.042C170.719 126.577 170.507 127.09 170.13 127.469C169.753 127.847 169.241 128.061 168.706 128.063ZM100.382 28.0708C99.8696 28.0717 99.3788 28.2755 99.0167 28.6376C98.6546 28.9997 98.4507 29.4906 98.4498 30.0027V126.042C98.4507 126.554 98.6546 127.045 99.0167 127.407C99.3788 127.77 99.8696 127.973 100.382 127.974H168.706C169.218 127.973 169.709 127.77 170.071 127.407C170.433 127.045 170.637 126.554 170.638 126.042V30.0027C170.637 29.4906 170.433 28.9997 170.071 28.6376C169.709 28.2755 169.218 28.0717 168.706 28.0708H100.382Z" fill="#EBEBEB"/>
<g opacity="0.6">
<path d="M132.969 84.7996L135.591 82.1777C137.798 84.3874 139.216 87.2632 139.623 90.3598C140.031 93.4564 139.406 96.6011 137.846 99.3068C136.286 102.012 133.877 104.128 130.992 105.326C128.108 106.524 124.909 106.738 121.891 105.934L122.849 102.353C125.081 102.953 127.448 102.799 129.583 101.916C131.718 101.032 133.501 99.4688 134.657 97.468C135.812 95.4672 136.275 93.1409 135.973 90.8502C135.671 88.5595 134.621 86.4326 132.987 84.7996H132.969Z" fill="#EBEBEB"/>
<path d="M115.521 82.1778C118.186 79.5175 121.798 78.0234 125.563 78.0234C129.329 78.0234 132.94 79.5175 135.605 82.1778L132.983 84.7996C131.015 82.8321 128.346 81.7268 125.563 81.7268C122.78 81.7268 120.111 82.8321 118.143 84.7996L115.521 82.1778Z" fill="#F5F5F5"/>
<path d="M115.52 82.1777L118.142 84.7996C117.168 85.7738 116.394 86.9306 115.867 88.2037C115.339 89.4768 115.068 90.8413 115.068 92.2194C115.068 93.5975 115.339 94.962 115.867 96.2351C116.394 97.5082 117.168 98.6649 118.142 99.6392C119.441 100.945 121.064 101.882 122.845 102.353L121.889 105.934C119.482 105.288 117.287 104.021 115.525 102.258C113.763 100.496 112.495 98.3009 111.85 95.8936C111.204 93.4863 111.204 90.9516 111.848 88.5441C112.492 86.1365 113.759 83.9409 115.52 82.1777Z" fill="#E0E0E0"/>
<path d="M144.626 71.679V77.2412C139.932 77.2416 135.369 75.6931 131.645 72.8357C127.921 69.9783 125.244 65.9718 124.029 61.4378C122.814 56.9037 123.13 52.0954 124.926 47.7588C126.723 43.4222 129.9 39.7997 133.966 37.4531L136.75 42.2723C133.744 44.0052 131.394 46.6821 130.064 49.8875C128.735 53.0929 128.501 56.6474 129.399 59.9994C130.297 63.3513 132.276 66.3131 135.029 68.425C137.783 70.5369 141.156 71.6807 144.626 71.679Z" fill="#EBEBEB"/>
<path d="M165.949 55.9199C165.947 61.5742 163.7 66.9964 159.702 70.9946C155.703 74.9928 150.281 77.2398 144.627 77.2416V71.6795C148.806 71.6785 152.814 70.0178 155.77 67.0626C158.725 64.1073 160.386 60.0993 160.386 55.9199H165.949Z" fill="#F5F5F5"/>
<path d="M165.948 55.9205H160.386C160.386 53.1543 159.658 50.4367 158.276 48.0409C156.893 45.6452 154.904 43.6557 152.508 42.2725C150.113 40.8893 147.395 40.1612 144.629 40.1614C141.863 40.1615 139.145 40.8899 136.75 42.2733L133.969 37.4541C137.21 35.5836 140.887 34.5991 144.629 34.5996C148.371 34.6001 152.048 35.5856 155.288 37.457C158.529 39.3284 161.22 42.0198 163.091 45.2608C164.963 48.5018 165.948 52.1781 165.948 55.9205Z" fill="#E0E0E0"/>
</g>
<g opacity="0.5">
<path d="M107.712 143.842H117.166V123.868H107.712V143.842Z" fill="#F5F5F5"/>
<path d="M96.3309 143.844H105.785V129.896H96.3309V143.844Z" fill="#E6E6E6"/>
<path d="M84.9461 143.842H94.4004V135.028H84.9461V143.842Z" fill="#F0F0F0"/>
<path d="M143.18 143.844H152.635V129.896H143.18V143.844Z" fill="#F5F5F5"/>
<path d="M131.802 143.844H141.256V132.981H131.802V143.844Z" fill="#E6E6E6"/>
<path d="M120.415 143.844H129.869V120.445H120.415V143.844Z" fill="#F0F0F0"/>
<path d="M72.2469 143.844H81.7012V122.013H72.2469V143.844Z" fill="#F5F5F5"/>
<path d="M60.8621 143.844H70.3164V129.896H60.8621V143.844Z" fill="#E6E6E6"/>
<path d="M49.4793 143.844H58.9336V125.487H49.4793V143.844Z" fill="#F0F0F0"/>
</g>
<g opacity="0.6">
<path d="M28.1641 36.6537C28.1669 36.0155 28.4216 35.4043 28.8729 34.953C29.3242 34.5017 29.9354 34.2469 30.5736 34.2441H105.677C106.316 34.246 106.928 34.5004 107.38 34.9517C107.832 35.4031 108.088 36.0149 108.09 36.6537V44.4167H28.1641V36.6537Z" fill="#F0F0F0"/>
<path d="M47.657 41.3315C47.2612 41.3315 46.8743 41.2142 46.5451 40.9945C46.2159 40.7747 45.9592 40.4624 45.8074 40.0969C45.6556 39.7313 45.6156 39.329 45.6923 38.9407C45.769 38.5525 45.959 38.1956 46.2384 37.9152C46.5177 37.6349 46.8739 37.4436 47.2619 37.3655C47.6499 37.2874 48.0524 37.3261 48.4185 37.4766C48.7845 37.6271 49.0978 37.8827 49.3187 38.2111C49.5396 38.5395 49.6582 38.926 49.6596 39.3218C49.6601 39.5852 49.6087 39.8462 49.5083 40.0898C49.4079 40.3334 49.2605 40.5548 49.0745 40.7414C48.8886 40.928 48.6677 41.0762 48.4244 41.1774C48.1812 41.2787 47.9204 41.331 47.657 41.3315ZM47.657 37.6835C47.3304 37.6835 47.0112 37.7805 46.7398 37.9622C46.4684 38.1438 46.2571 38.402 46.1326 38.7039C46.0082 39.0058 45.9761 39.3378 46.0406 39.658C46.1051 39.9781 46.2632 40.2719 46.4949 40.502C46.7265 40.7322 47.0213 40.8884 47.3418 40.9508C47.6624 41.0132 47.9942 40.9791 48.2953 40.8526C48.5964 40.7262 48.8532 40.5132 49.0331 40.2407C49.213 39.9681 49.3079 39.6483 49.3058 39.3218C49.303 38.8863 49.128 38.4696 48.8191 38.1627C48.5102 37.8558 48.0924 37.6835 47.657 37.6835Z" fill="white"/>
<path d="M41.2172 41.3314C40.8206 41.3356 40.4316 41.2219 40.0996 41.0047C39.7677 40.7876 39.5077 40.4767 39.3527 40.1116C39.1976 39.7464 39.1545 39.3435 39.2288 38.9538C39.3031 38.5641 39.4914 38.2053 39.7699 37.9228C40.0484 37.6403 40.4045 37.4469 40.7931 37.3671C41.1817 37.2873 41.5852 37.3247 41.9525 37.4745C42.3198 37.6244 42.6343 37.8799 42.8562 38.2088C43.0781 38.5376 43.1973 38.925 43.1987 39.3217C43.2006 39.8504 42.9933 40.3584 42.6221 40.7349C42.2509 41.1114 41.7459 41.3258 41.2172 41.3314ZM41.2172 37.6834C40.8898 37.6792 40.5685 37.7726 40.2944 37.9517C40.0202 38.1307 39.8056 38.3874 39.6778 38.6889C39.5501 38.9904 39.515 39.3231 39.5771 39.6447C39.6392 39.9662 39.7956 40.2619 40.0264 40.4942C40.2572 40.7265 40.5519 40.8849 40.873 40.949C41.1941 41.0132 41.5271 40.9803 41.8294 40.8545C42.1317 40.7287 42.3898 40.5157 42.5706 40.2428C42.7515 39.9698 42.8469 39.6491 42.8449 39.3217C42.843 38.8896 42.6713 38.4755 42.3668 38.169C42.0622 37.8625 41.6493 37.6881 41.2172 37.6834Z" fill="white"/>
<path d="M34.7386 41.3315C34.3427 41.3322 33.9554 41.2155 33.6258 40.9962C33.2961 40.7769 33.0389 40.4648 32.8866 40.0993C32.7342 39.7338 32.6937 39.3314 32.77 38.9429C32.8463 38.5544 33.036 38.1972 33.3152 37.9165C33.5945 37.6358 33.9506 37.4441 34.3388 37.3658C34.7269 37.2874 35.1295 37.3259 35.4958 37.4763C35.862 37.6266 36.1755 37.8822 36.3966 38.2107C36.6176 38.5392 36.7364 38.9258 36.7377 39.3218C36.7387 39.8532 36.5287 40.3634 36.1539 40.7402C35.7791 41.117 35.2701 41.3296 34.7386 41.3315ZM34.7386 37.6835C34.4119 37.6828 34.0924 37.7792 33.8205 37.9604C33.5487 38.1417 33.3368 38.3996 33.2118 38.7014C33.0868 39.0033 33.0542 39.3354 33.1183 39.6558C33.1824 39.9762 33.3402 40.2703 33.5717 40.5008C33.8032 40.7313 34.098 40.8879 34.4187 40.9506C34.7393 41.0133 35.0713 40.9793 35.3726 40.853C35.6739 40.7267 35.9309 40.5137 36.111 40.2411C36.291 39.9684 36.386 39.6485 36.3839 39.3218C36.3811 38.8869 36.2067 38.4708 35.8985 38.164C35.5904 37.8571 35.1735 37.6845 34.7386 37.6835Z" fill="white"/>
<path d="M105.677 96.6836H30.5736C29.9354 96.6808 29.3242 96.426 28.8729 95.9748C28.4216 95.5235 28.1669 94.9122 28.1641 94.274V44.416H108.09V94.274C108.088 94.9128 107.832 95.5246 107.38 95.976C106.928 96.4274 106.316 96.6817 105.677 96.6836Z" fill="#E0E0E0"/>
<path d="M40.3594 55.3506C40.3603 54.7115 40.6144 54.0988 41.0659 53.6466C41.5175 53.1943 42.1299 52.9394 42.7689 52.9375H117.873C118.511 52.9403 119.123 53.1955 119.575 53.6476C120.026 54.0996 120.28 54.7118 120.282 55.3506V63.1101H40.3594V55.3506Z" fill="#F5F5F5"/>
<path d="M59.8519 60.0249C59.4555 60.0256 59.0678 59.9086 58.738 59.6888C58.4081 59.469 58.1508 59.1563 57.9988 58.7902C57.8468 58.4241 57.8069 58.0212 57.884 57.6324C57.9612 57.2436 58.152 56.8864 58.4323 56.6061C58.7126 56.3258 59.0697 56.135 59.4585 56.0578C59.8473 55.9807 60.2503 56.0206 60.6164 56.1727C60.9825 56.3247 61.2952 56.5819 61.515 56.9118C61.7348 57.2417 61.8517 57.6293 61.851 58.0257C61.8501 58.5557 61.6392 59.0636 61.2645 59.4383C60.8898 59.813 60.3818 60.0239 59.8519 60.0249ZM59.8519 56.3769C59.5256 56.3762 59.2065 56.4723 58.9349 56.6531C58.6633 56.8338 58.4514 57.0911 58.3261 57.3923C58.2007 57.6935 58.1676 58.0252 58.2308 58.3452C58.294 58.6653 58.4508 58.9594 58.6812 59.1904C58.9117 59.4213 59.2055 59.5787 59.5254 59.6426C59.8453 59.7065 60.177 59.6741 60.4785 59.5494C60.78 59.4247 61.0378 59.2134 61.2191 58.9422C61.4004 58.6709 61.4972 58.352 61.4972 58.0257C61.4972 57.5891 61.324 57.1702 61.0155 56.8611C60.7071 56.552 60.2886 56.3778 59.8519 56.3769Z" fill="#E6E6E6"/>
<path d="M53.3929 60.0249C52.9965 60.0256 52.6088 59.9086 52.279 59.6888C51.9491 59.469 51.6919 59.1563 51.5398 58.7902C51.3878 58.4241 51.3479 58.0212 51.425 57.6324C51.5022 57.2436 51.693 56.8864 51.9733 56.6061C52.2536 56.3258 52.6107 56.135 52.9996 56.0578C53.3884 55.9807 53.7913 56.0206 54.1574 56.1727C54.5235 56.3247 54.8362 56.5819 55.056 56.9118C55.2758 57.2417 55.3928 57.6293 55.3921 58.0257C55.3911 58.5557 55.1802 59.0636 54.8055 59.4383C54.4308 59.813 53.9228 60.0239 53.3929 60.0249ZM53.3929 56.3769C53.0667 56.3762 52.7475 56.4723 52.4759 56.6531C52.2043 56.8338 51.9924 57.0911 51.8671 57.3923C51.7417 57.6935 51.7086 58.0252 51.7718 58.3452C51.835 58.6653 51.9918 58.9594 52.2222 59.1904C52.4527 59.4213 52.7465 59.5787 53.0664 59.6426C53.3864 59.7065 53.7181 59.6741 54.0196 59.5494C54.321 59.4247 54.5788 59.2134 54.7601 58.9422C54.9414 58.6709 55.0382 58.352 55.0382 58.0257C55.0382 57.5891 54.865 57.1702 54.5565 56.8611C54.2481 56.552 53.8296 56.3778 53.3929 56.3769Z" fill="#E6E6E6"/>
<path d="M46.9339 60.0249C46.5376 60.0256 46.1499 59.9086 45.82 59.6888C45.4901 59.469 45.2329 59.1563 45.0809 58.7902C44.9288 58.4241 44.8889 58.0212 44.966 57.6324C45.0432 57.2436 45.234 56.8864 45.5143 56.6061C45.7946 56.3258 46.1518 56.135 46.5406 56.0578C46.9294 55.9807 47.3323 56.0206 47.6984 56.1727C48.0645 56.3247 48.3772 56.5819 48.597 56.9118C48.8168 57.2417 48.9338 57.6293 48.9331 58.0257C48.9312 58.5554 48.72 59.0628 48.3455 59.4373C47.971 59.8118 47.4636 60.023 46.9339 60.0249ZM46.9339 56.3769C46.6077 56.3762 46.2885 56.4723 46.0169 56.6531C45.7453 56.8338 45.5334 57.0911 45.4081 57.3923C45.2827 57.6935 45.2496 58.0252 45.3128 58.3452C45.376 58.6653 45.5328 58.9594 45.7632 59.1904C45.9937 59.4213 46.2875 59.5787 46.6074 59.6426C46.9274 59.7065 47.2591 59.6741 47.5606 59.5494C47.8621 59.4247 48.1198 59.2134 48.3011 58.9422C48.4825 58.6709 48.5792 58.352 48.5792 58.0257C48.5792 57.5891 48.406 57.1702 48.0976 56.8611C47.7891 56.552 47.3706 56.3778 46.9339 56.3769Z" fill="#E6E6E6"/>
<path d="M117.873 115.395H42.7689C42.1302 115.394 41.5178 115.14 41.0662 114.688C40.6145 114.236 40.3603 113.624 40.3594 112.985V63.1094H120.282V112.967C120.284 113.285 120.222 113.6 120.102 113.894C119.982 114.188 119.804 114.455 119.581 114.681C119.357 114.906 119.091 115.085 118.798 115.208C118.505 115.33 118.19 115.394 117.873 115.395Z" fill="#E6E6E6"/>
</g>
<path d="M96.7679 159.823C134.657 159.823 165.372 158.03 165.372 155.818C165.372 153.606 134.657 151.812 96.7679 151.812C58.8791 151.812 28.1641 153.606 28.1641 155.818C28.1641 158.03 58.8791 159.823 96.7679 159.823Z" fill="#F5F5F5"/>
<path d="M102.616 66.3411C102.735 66.3423 102.853 66.3191 102.962 66.2729C103.072 66.2267 103.17 66.1585 103.252 66.0726C103.334 65.9866 103.398 65.8848 103.439 65.7734C103.479 65.6619 103.497 65.5432 103.49 65.4247L103.228 60.1987C103.214 59.952 103.107 59.72 102.928 59.5493C102.75 59.3785 102.513 59.2819 102.266 59.2787H101.558L100.918 46.2755C100.835 44.8882 100.231 43.5833 99.2277 42.6221C98.2238 41.661 96.894 41.1144 95.5044 41.0919H54.7823C54.1135 41.0874 53.4509 41.2201 52.8355 41.4819C52.2201 41.7436 51.6649 42.1288 51.2042 42.6137C50.7436 43.0985 50.3873 43.6727 50.1574 44.3007C49.9275 44.9287 49.8289 45.5972 49.8676 46.2649L50.5115 59.3282C50.3265 59.3956 50.1681 59.5207 50.0598 59.6852C49.9514 59.8496 49.8989 60.0445 49.91 60.2411L50.5292 72.7773C50.5433 72.9825 50.6181 73.1788 50.7442 73.3414C50.8702 73.5039 51.0417 73.6254 51.2369 73.6902L53.9578 129.011C54.0434 130.399 54.6502 131.703 55.6568 132.663C56.6633 133.622 57.9952 134.165 59.3856 134.184H100.104C100.773 134.189 101.436 134.056 102.051 133.794C102.666 133.533 103.222 133.147 103.682 132.662C104.143 132.178 104.499 131.603 104.729 130.975C104.959 130.347 105.058 129.679 105.019 129.011L102.383 75.6893H103.09C103.209 75.6904 103.327 75.6672 103.436 75.621C103.546 75.5748 103.644 75.5066 103.726 75.4207C103.808 75.3348 103.872 75.233 103.913 75.1215C103.954 75.0101 103.971 74.8914 103.964 74.7729L103.706 69.5362C103.69 69.2905 103.582 69.0598 103.404 68.89C103.226 68.7202 102.99 68.6237 102.744 68.6198H102.036L101.923 66.3411H102.616Z" fill="#292929"/>
<path d="M60.2447 134.184H100.963C101.632 134.189 102.295 134.056 102.911 133.794C103.526 133.533 104.082 133.147 104.543 132.663C105.003 132.178 105.36 131.604 105.59 130.976C105.821 130.348 105.92 129.679 105.882 129.011L101.791 46.2684C101.707 44.8803 101.102 43.5752 100.096 42.6151C99.0896 41.6549 97.7577 41.1108 96.3671 41.0919H55.645C54.9761 41.0874 54.3133 41.2201 53.6977 41.4818C53.0821 41.7436 52.5267 42.1287 52.0658 42.6135C51.6049 43.0983 51.2482 43.6724 51.0179 44.3004C50.7876 44.9285 50.6885 45.5971 50.7267 46.2649L54.817 129.008C54.9017 130.396 55.5082 131.701 56.5148 132.661C57.5214 133.621 58.8538 134.165 60.2447 134.184Z" fill="#292929"/>
<path opacity="0.4" d="M60.2447 134.184H100.963C101.632 134.189 102.295 134.056 102.911 133.794C103.526 133.533 104.082 133.147 104.543 132.663C105.003 132.178 105.36 131.604 105.59 130.976C105.821 130.348 105.92 129.679 105.882 129.011L101.791 46.2684C101.707 44.8803 101.102 43.5752 100.096 42.6151C99.0896 41.6549 97.7577 41.1108 96.3671 41.0919H55.645C54.9761 41.0874 54.3133 41.2201 53.6977 41.4818C53.0821 41.7436 52.5267 42.1287 52.0658 42.6135C51.6049 43.0983 51.2482 43.6724 51.0179 44.3004C50.7876 44.9285 50.6885 45.5971 50.7267 46.2649L54.817 129.008C54.9017 130.396 55.5082 131.701 56.5148 132.661C57.5214 133.621 58.8538 134.165 60.2447 134.184Z" fill="#FAFAFA"/>
<path d="M56.9 126.969H103.605C103.71 126.97 103.813 126.95 103.909 126.91C104.005 126.869 104.092 126.809 104.164 126.734C104.236 126.659 104.291 126.57 104.327 126.472C104.363 126.374 104.379 126.27 104.373 126.166L100.559 49.2896C100.546 49.0736 100.451 48.8707 100.294 48.7217C100.137 48.5727 99.9296 48.4886 99.7133 48.4864H53.0079C52.9038 48.4852 52.8007 48.5055 52.7049 48.546C52.609 48.5864 52.5225 48.6462 52.4508 48.7216C52.3791 48.7969 52.3237 48.8863 52.2881 48.984C52.2524 49.0817 52.2373 49.1857 52.2436 49.2896L56.0402 126.166C56.0537 126.384 56.1504 126.589 56.3103 126.739C56.4702 126.888 56.6812 126.97 56.9 126.969Z" fill="white"/>
<path opacity="0.7" d="M81.0303 43.4883H71.2116C71.1292 43.4877 71.0476 43.504 70.9718 43.5362C70.896 43.5684 70.8276 43.6158 70.7709 43.6755C70.7142 43.7352 70.6703 43.8059 70.642 43.8833C70.6138 43.9606 70.6017 44.043 70.6065 44.1252C70.6163 44.2967 70.6908 44.4582 70.8149 44.577C70.939 44.6958 71.1035 44.7632 71.2752 44.7656H81.094C81.1767 44.7663 81.2586 44.7499 81.3346 44.7175C81.4107 44.6851 81.4793 44.6373 81.536 44.5772C81.5928 44.5171 81.6366 44.446 81.6646 44.3682C81.6927 44.2904 81.7044 44.2077 81.699 44.1252C81.6884 43.9543 81.6135 43.7937 81.4895 43.6756C81.3655 43.5576 81.2015 43.4906 81.0303 43.4883Z" fill="#292929"/>
<path opacity="0.6" d="M116.946 110.969H76.1215L73.1953 51.752H114.02L116.946 110.969Z" fill="#292929"/>
<path d="M112.127 94.7772C112.108 94.7806 112.089 94.7806 112.071 94.7772C112.053 94.7709 112.037 94.7599 112.025 94.7454C112.011 94.7324 112 94.7168 111.993 94.6994C111.989 94.6806 111.989 94.6615 111.993 94.6428C111.993 94.6033 112.008 94.5655 112.036 94.5377C112.064 94.5098 112.102 94.4941 112.141 94.4941C112.181 94.4941 112.218 94.5098 112.246 94.5377C112.274 94.5655 112.29 94.6033 112.29 94.6428C112.293 94.6615 112.293 94.6806 112.29 94.6994C112.283 94.7168 112.272 94.7324 112.258 94.7454C112.246 94.7599 112.23 94.7709 112.212 94.7772C112.184 94.7857 112.155 94.7857 112.127 94.7772Z" fill="white"/>
<path d="M112.532 105.842C112.531 105.823 112.534 105.804 112.541 105.786C112.547 105.768 112.557 105.751 112.57 105.737C112.583 105.723 112.598 105.712 112.615 105.703C112.633 105.695 112.651 105.691 112.67 105.69C112.709 105.688 112.747 105.701 112.776 105.727C112.805 105.753 112.823 105.789 112.826 105.828C112.827 105.847 112.824 105.867 112.817 105.885C112.811 105.904 112.801 105.92 112.787 105.935C112.774 105.949 112.758 105.961 112.741 105.969C112.723 105.978 112.704 105.983 112.684 105.983C112.646 105.984 112.608 105.97 112.579 105.944C112.551 105.917 112.534 105.881 112.532 105.842ZM112.476 104.724C112.475 104.704 112.478 104.685 112.484 104.666C112.491 104.648 112.501 104.631 112.514 104.617C112.527 104.602 112.543 104.59 112.561 104.582C112.579 104.574 112.598 104.569 112.617 104.568C112.637 104.567 112.656 104.57 112.674 104.577C112.692 104.583 112.709 104.594 112.723 104.607C112.737 104.62 112.749 104.636 112.757 104.654C112.765 104.671 112.769 104.69 112.769 104.71C112.77 104.729 112.767 104.748 112.761 104.766C112.755 104.784 112.745 104.8 112.732 104.814C112.719 104.828 112.704 104.84 112.686 104.848C112.669 104.856 112.65 104.861 112.631 104.862C112.592 104.864 112.554 104.85 112.525 104.825C112.496 104.799 112.478 104.763 112.476 104.724ZM112.423 103.602C112.422 103.583 112.424 103.564 112.431 103.546C112.437 103.528 112.447 103.512 112.46 103.497C112.473 103.483 112.488 103.472 112.506 103.464C112.523 103.456 112.542 103.451 112.561 103.45C112.58 103.449 112.599 103.451 112.617 103.457C112.635 103.464 112.652 103.473 112.666 103.486C112.681 103.499 112.692 103.515 112.7 103.532C112.708 103.55 112.712 103.569 112.713 103.588C112.714 103.607 112.712 103.627 112.706 103.645C112.699 103.664 112.689 103.681 112.677 103.695C112.664 103.71 112.648 103.721 112.631 103.73C112.613 103.738 112.594 103.743 112.575 103.744C112.536 103.745 112.498 103.73 112.47 103.704C112.441 103.677 112.424 103.641 112.423 103.602ZM112.366 102.481C112.365 102.442 112.379 102.405 112.404 102.377C112.43 102.348 112.466 102.331 112.504 102.328C112.543 102.326 112.581 102.34 112.61 102.366C112.639 102.391 112.657 102.428 112.66 102.466C112.662 102.505 112.648 102.543 112.622 102.572C112.597 102.602 112.56 102.619 112.522 102.622C112.502 102.623 112.483 102.62 112.464 102.614C112.446 102.607 112.429 102.597 112.414 102.584C112.4 102.57 112.388 102.555 112.38 102.537C112.372 102.519 112.367 102.5 112.366 102.481ZM112.309 101.362C112.308 101.343 112.311 101.323 112.318 101.305C112.325 101.287 112.335 101.27 112.348 101.255C112.361 101.241 112.377 101.229 112.395 101.221C112.412 101.212 112.431 101.208 112.451 101.207C112.47 101.206 112.49 101.209 112.508 101.215C112.526 101.222 112.543 101.232 112.557 101.245C112.571 101.259 112.582 101.275 112.59 101.292C112.598 101.31 112.603 101.329 112.603 101.348C112.604 101.367 112.601 101.386 112.595 101.404C112.588 101.422 112.578 101.439 112.566 101.453C112.553 101.467 112.537 101.479 112.52 101.487C112.503 101.495 112.484 101.5 112.465 101.5C112.426 101.502 112.388 101.489 112.359 101.463C112.33 101.437 112.312 101.401 112.309 101.362ZM112.256 100.241C112.255 100.222 112.258 100.203 112.265 100.185C112.271 100.167 112.281 100.15 112.294 100.136C112.307 100.122 112.322 100.111 112.339 100.102C112.357 100.094 112.375 100.09 112.394 100.089C112.414 100.087 112.433 100.09 112.451 100.096C112.47 100.102 112.487 100.112 112.501 100.125C112.516 100.138 112.528 100.153 112.536 100.171C112.544 100.188 112.549 100.207 112.55 100.227C112.551 100.266 112.537 100.304 112.51 100.333C112.484 100.362 112.448 100.38 112.408 100.382C112.37 100.383 112.332 100.369 112.304 100.343C112.275 100.316 112.258 100.28 112.256 100.241ZM112.2 99.1192C112.199 99.0803 112.213 99.0427 112.239 99.0142C112.266 98.9858 112.302 98.9689 112.341 98.967C112.36 98.9661 112.379 98.9689 112.397 98.9753C112.415 98.9817 112.432 98.9916 112.446 99.0045C112.46 99.0173 112.472 99.0327 112.48 99.05C112.488 99.0673 112.492 99.086 112.493 99.105C112.495 99.1439 112.482 99.1819 112.456 99.211C112.43 99.2401 112.394 99.258 112.355 99.2607C112.336 99.2616 112.316 99.2587 112.298 99.2521C112.28 99.2455 112.263 99.2354 112.248 99.2222C112.234 99.2091 112.222 99.1932 112.214 99.1755C112.205 99.1578 112.201 99.1387 112.2 99.1192ZM112.147 98.0011C112.145 97.9817 112.148 97.9623 112.154 97.9439C112.16 97.9255 112.17 97.9086 112.183 97.8941C112.196 97.8796 112.211 97.8678 112.229 97.8594C112.246 97.851 112.265 97.8463 112.285 97.8454C112.304 97.8444 112.323 97.8474 112.341 97.854C112.36 97.8607 112.376 97.8709 112.391 97.8841C112.405 97.8973 112.416 97.9131 112.424 97.9308C112.432 97.9485 112.436 97.9676 112.437 97.9869C112.438 98.006 112.435 98.025 112.428 98.043C112.422 98.061 112.412 98.0775 112.399 98.0916C112.386 98.1057 112.371 98.1172 112.354 98.1254C112.337 98.1335 112.318 98.1382 112.299 98.1391C112.28 98.14 112.261 98.1372 112.243 98.1308C112.225 98.1243 112.208 98.1144 112.194 98.1016C112.18 98.0888 112.168 98.0733 112.16 98.0561C112.152 98.0388 112.148 98.0201 112.147 98.0011ZM112.09 96.8794C112.089 96.8604 112.092 96.8413 112.098 96.8234C112.105 96.8054 112.115 96.7889 112.127 96.7747C112.14 96.7606 112.156 96.7491 112.173 96.741C112.19 96.7328 112.209 96.7282 112.228 96.7273C112.267 96.7253 112.305 96.7387 112.334 96.7645C112.363 96.7903 112.381 96.8265 112.384 96.8653C112.385 96.9045 112.371 96.9425 112.344 96.9715C112.318 97.0005 112.281 97.0182 112.242 97.021C112.203 97.0219 112.166 97.0077 112.137 96.9812C112.109 96.9548 112.092 96.9182 112.09 96.8794ZM112.033 95.7613C112.032 95.7418 112.035 95.7223 112.042 95.7039C112.049 95.6855 112.059 95.6686 112.072 95.6541C112.085 95.6397 112.101 95.6279 112.119 95.6196C112.136 95.6113 112.155 95.6066 112.175 95.6056C112.194 95.6047 112.213 95.6075 112.231 95.6139C112.249 95.6204 112.265 95.6303 112.28 95.6431C112.294 95.6559 112.305 95.6714 112.313 95.6886C112.321 95.7059 112.326 95.7246 112.327 95.7436C112.329 95.7825 112.316 95.8206 112.29 95.8497C112.264 95.8788 112.228 95.8966 112.189 95.8993C112.15 95.9013 112.112 95.8879 112.083 95.8621C112.054 95.8363 112.036 95.8001 112.033 95.7613Z" fill="white"/>
<path d="M112.734 107.106C112.714 107.106 112.695 107.102 112.677 107.094C112.66 107.086 112.644 107.075 112.631 107.06C112.617 107.047 112.606 107.031 112.599 107.014C112.591 106.996 112.588 106.977 112.588 106.958C112.585 106.939 112.585 106.92 112.588 106.901C112.595 106.883 112.606 106.867 112.62 106.855C112.633 106.841 112.649 106.83 112.666 106.823C112.703 106.809 112.743 106.809 112.78 106.823C112.798 106.83 112.815 106.841 112.829 106.855C112.841 106.868 112.851 106.884 112.857 106.901C112.862 106.92 112.862 106.939 112.857 106.958C112.857 106.996 112.842 107.033 112.815 107.06C112.801 107.074 112.784 107.085 112.765 107.092C112.756 107.099 112.745 107.103 112.734 107.106Z" fill="white"/>
<path d="M111.4 106.958C111.4 106.938 111.404 106.919 111.411 106.901C111.419 106.883 111.43 106.867 111.444 106.854C111.457 106.84 111.474 106.83 111.492 106.823C111.51 106.815 111.529 106.812 111.548 106.813C111.568 106.813 111.586 106.816 111.604 106.824C111.622 106.831 111.638 106.842 111.651 106.855C111.665 106.869 111.675 106.885 111.683 106.902C111.69 106.92 111.694 106.939 111.694 106.958C111.694 106.996 111.678 107.034 111.651 107.061C111.624 107.089 111.587 107.105 111.548 107.106C111.509 107.106 111.471 107.091 111.443 107.063C111.416 107.035 111.4 106.997 111.4 106.958ZM110.211 106.958C110.211 106.938 110.215 106.919 110.222 106.901C110.23 106.883 110.241 106.867 110.255 106.854C110.269 106.84 110.285 106.83 110.303 106.823C110.321 106.815 110.34 106.812 110.36 106.813C110.379 106.813 110.398 106.816 110.415 106.824C110.433 106.831 110.449 106.842 110.462 106.855C110.476 106.869 110.486 106.885 110.494 106.902C110.501 106.92 110.505 106.939 110.505 106.958C110.505 106.977 110.502 106.996 110.495 107.014C110.488 107.032 110.477 107.049 110.463 107.062C110.45 107.076 110.434 107.087 110.416 107.095C110.398 107.102 110.379 107.106 110.36 107.106C110.321 107.105 110.284 107.089 110.257 107.061C110.23 107.034 110.215 106.996 110.215 106.958H110.211ZM109.026 106.958C109.026 106.939 109.029 106.92 109.037 106.902C109.044 106.885 109.055 106.869 109.068 106.855C109.082 106.842 109.098 106.831 109.115 106.824C109.133 106.816 109.152 106.813 109.171 106.813C109.19 106.812 109.209 106.815 109.227 106.823C109.245 106.83 109.262 106.84 109.276 106.854C109.289 106.867 109.3 106.883 109.308 106.901C109.316 106.919 109.319 106.938 109.319 106.958C109.319 106.997 109.304 107.035 109.276 107.063C109.248 107.091 109.21 107.106 109.171 107.106C109.151 107.106 109.132 107.102 109.114 107.095C109.097 107.087 109.08 107.076 109.067 107.062C109.053 107.049 109.043 107.032 109.036 107.014C109.029 106.996 109.025 106.977 109.026 106.958ZM107.837 106.958C107.837 106.938 107.841 106.919 107.848 106.901C107.856 106.883 107.867 106.867 107.881 106.854C107.894 106.84 107.911 106.83 107.929 106.823C107.947 106.815 107.966 106.812 107.985 106.813C108.004 106.813 108.023 106.816 108.041 106.824C108.059 106.831 108.075 106.842 108.088 106.855C108.101 106.869 108.112 106.885 108.119 106.902C108.127 106.92 108.13 106.939 108.13 106.958C108.131 106.977 108.128 106.996 108.12 107.014C108.113 107.032 108.103 107.049 108.089 107.062C108.076 107.076 108.06 107.087 108.042 107.095C108.024 107.102 108.005 107.106 107.985 107.106C107.946 107.106 107.908 107.091 107.88 107.063C107.852 107.035 107.837 106.997 107.837 106.958ZM106.651 106.958C106.651 106.939 106.655 106.92 106.663 106.902C106.67 106.885 106.681 106.869 106.694 106.855C106.707 106.842 106.723 106.831 106.741 106.824C106.759 106.816 106.778 106.813 106.797 106.813C106.816 106.812 106.835 106.815 106.853 106.823C106.871 106.83 106.888 106.84 106.901 106.854C106.915 106.867 106.926 106.883 106.934 106.901C106.941 106.919 106.945 106.938 106.945 106.958C106.945 106.997 106.93 107.035 106.902 107.063C106.874 107.091 106.836 107.106 106.797 107.106C106.777 107.106 106.758 107.102 106.74 107.095C106.722 107.087 106.706 107.076 106.693 107.062C106.679 107.049 106.669 107.032 106.662 107.014C106.654 106.996 106.651 106.977 106.651 106.958ZM105.463 106.958C105.463 106.938 105.466 106.919 105.474 106.901C105.482 106.883 105.493 106.867 105.506 106.854C105.52 106.84 105.537 106.83 105.555 106.823C105.573 106.815 105.592 106.812 105.611 106.813C105.63 106.813 105.649 106.816 105.667 106.824C105.684 106.831 105.7 106.842 105.714 106.855C105.727 106.869 105.738 106.885 105.745 106.902C105.753 106.92 105.756 106.939 105.756 106.958C105.757 106.977 105.753 106.996 105.746 107.014C105.739 107.032 105.729 107.049 105.715 107.062C105.702 107.076 105.685 107.087 105.668 107.095C105.65 107.102 105.631 107.106 105.611 107.106C105.572 107.106 105.534 107.091 105.506 107.063C105.478 107.035 105.463 106.997 105.463 106.958ZM104.274 106.958C104.274 106.938 104.278 106.919 104.285 106.901C104.293 106.883 104.304 106.867 104.317 106.854C104.331 106.84 104.348 106.83 104.366 106.823C104.384 106.815 104.403 106.812 104.422 106.813C104.441 106.813 104.46 106.816 104.478 106.824C104.495 106.831 104.511 106.842 104.525 106.855C104.538 106.869 104.549 106.885 104.556 106.902C104.564 106.92 104.567 106.939 104.567 106.958C104.568 106.977 104.565 106.996 104.557 107.014C104.55 107.032 104.54 107.049 104.526 107.062C104.513 107.076 104.497 107.087 104.479 107.095C104.461 107.102 104.442 107.106 104.422 107.106C104.383 107.106 104.345 107.091 104.317 107.063C104.289 107.035 104.274 106.997 104.274 106.958ZM103.088 106.958C103.088 106.939 103.092 106.92 103.099 106.902C103.107 106.885 103.117 106.869 103.131 106.855C103.144 106.842 103.16 106.831 103.178 106.824C103.196 106.816 103.214 106.813 103.234 106.813C103.253 106.812 103.272 106.815 103.29 106.823C103.308 106.83 103.325 106.84 103.338 106.854C103.352 106.867 103.363 106.883 103.371 106.901C103.378 106.919 103.382 106.938 103.382 106.958C103.382 106.997 103.366 107.035 103.339 107.063C103.311 107.091 103.273 107.106 103.234 107.106C103.195 107.105 103.158 107.089 103.131 107.061C103.104 107.034 103.088 106.996 103.088 106.958ZM101.9 106.958C101.9 106.938 101.903 106.919 101.911 106.901C101.918 106.883 101.929 106.867 101.943 106.854C101.957 106.84 101.974 106.83 101.992 106.823C102.01 106.815 102.029 106.812 102.048 106.813C102.067 106.813 102.086 106.816 102.104 106.824C102.121 106.831 102.137 106.842 102.151 106.855C102.164 106.869 102.175 106.885 102.182 106.902C102.19 106.92 102.193 106.939 102.193 106.958C102.194 106.977 102.19 106.996 102.183 107.014C102.176 107.032 102.166 107.049 102.152 107.062C102.139 107.076 102.122 107.087 102.105 107.095C102.087 107.102 102.068 107.106 102.048 107.106C102.009 107.106 101.971 107.091 101.943 107.063C101.915 107.035 101.9 106.997 101.9 106.958ZM100.714 106.958C100.714 106.939 100.718 106.92 100.725 106.902C100.733 106.885 100.743 106.869 100.757 106.855C100.77 106.842 100.786 106.831 100.804 106.824C100.821 106.816 100.84 106.813 100.859 106.813C100.879 106.812 100.898 106.815 100.916 106.823C100.934 106.83 100.95 106.84 100.964 106.854C100.978 106.867 100.989 106.883 100.997 106.901C101.004 106.919 101.008 106.938 101.008 106.958C101.008 106.997 100.992 107.035 100.964 107.063C100.937 107.091 100.899 107.106 100.859 107.106C100.84 107.106 100.821 107.102 100.803 107.095C100.785 107.087 100.769 107.076 100.755 107.062C100.742 107.049 100.731 107.032 100.724 107.014C100.717 106.996 100.714 106.977 100.714 106.958ZM99.5254 106.958C99.5254 106.938 99.5293 106.919 99.5368 106.901C99.5443 106.883 99.5553 106.867 99.5691 106.854C99.583 106.84 99.5994 106.83 99.6174 106.823C99.6354 106.815 99.6546 106.812 99.674 106.813C99.693 106.813 99.7119 106.816 99.7295 106.824C99.7471 106.831 99.7631 106.842 99.7766 106.855C99.79 106.869 99.8007 106.885 99.808 106.902C99.8153 106.92 99.8191 106.939 99.8191 106.958C99.8195 106.977 99.8161 106.996 99.8091 107.014C99.802 107.032 99.7914 107.049 99.7778 107.062C99.7643 107.076 99.7482 107.087 99.7303 107.095C99.7125 107.102 99.6933 107.106 99.674 107.106C99.6346 107.106 99.5968 107.091 99.5689 107.063C99.541 107.035 99.5254 106.997 99.5254 106.958Z" fill="white"/>
<path d="M98.4866 107.106C98.4673 107.106 98.4483 107.102 98.4307 107.094C98.413 107.086 98.3972 107.074 98.384 107.06C98.3695 107.048 98.3585 107.032 98.3521 107.014C98.3488 106.996 98.3488 106.976 98.3521 106.958C98.3515 106.939 98.355 106.919 98.3623 106.902C98.3696 106.884 98.3806 106.868 98.3946 106.855C98.4144 106.834 98.4404 106.819 98.469 106.813C98.4976 106.808 98.5273 106.811 98.5538 106.823C98.5717 106.83 98.5876 106.841 98.5998 106.855C98.6143 106.868 98.6258 106.884 98.6338 106.901C98.6417 106.919 98.6458 106.938 98.6458 106.958C98.6491 106.976 98.6491 106.996 98.6458 107.014C98.6302 107.049 98.6025 107.077 98.568 107.092C98.5427 107.104 98.5145 107.109 98.4866 107.106Z" fill="white"/>
<path opacity="0.5" d="M114.799 67.5327H73.9737L73.1953 51.752H114.02L114.799 67.5327Z" fill="#292929"/>
<path d="M112.875 92.8208L112.779 91.7876C115.343 91.6895 117.769 90.5968 119.541 88.7411C120.584 87.648 121.357 86.326 121.798 84.8809L122.789 85.2347C122.305 86.8235 121.457 88.2773 120.312 89.4806C118.362 91.5187 115.694 92.7168 112.875 92.8208Z" fill="#263238"/>
<g style="mix-blend-mode:multiply" opacity="0.5">
<path d="M118.814 73.9988C117.549 72.7878 116.015 71.894 114.338 71.3911L114.589 70.4004C116.433 70.9544 118.119 71.9365 119.511 73.2664C121.115 74.7632 122.272 76.6767 122.851 78.7931C123.43 80.9095 123.41 83.1454 122.791 85.2506L121.8 84.8968C122.362 82.982 122.381 80.9487 121.853 79.0241C121.326 77.0995 120.274 75.3595 118.814 73.9988Z" fill="#292929"/>
</g>
<path d="M104.087 89.4745C101.876 87.3877 100.537 84.5427 100.336 81.5098H101.369C101.571 84.3681 102.872 87.0371 105 88.9564C107.128 90.8756 109.916 91.8958 112.78 91.8026L112.876 92.8358C111.26 92.8965 109.648 92.6301 108.138 92.0524C106.628 91.4748 105.25 90.5979 104.087 89.4745Z" fill="#292929"/>
<path opacity="0.7" d="M100.336 81.5099C100.229 80.0036 100.437 78.4915 100.945 77.0694C101.453 75.6473 102.25 74.3461 103.287 73.248C104.72 71.7705 106.536 70.7201 108.531 70.2141C110.527 69.708 112.624 69.7661 114.588 70.382L114.337 71.3727C112.548 70.8134 110.639 70.7628 108.823 71.2265C107.007 71.6901 105.356 72.6498 104.054 73.9981C103.114 74.9948 102.389 76.1755 101.927 77.4659C101.465 78.7562 101.275 80.1283 101.369 81.4957L100.336 81.5099Z" fill="white"/>
<path opacity="0.6" d="M118.215 87.6159C121.507 84.242 121.301 78.7038 117.757 75.246C114.212 71.7882 108.671 71.7202 105.379 75.0941C102.088 78.468 102.293 84.0062 105.838 87.464C109.382 90.9218 114.924 90.9898 118.215 87.6159Z" fill="white"/>
<path d="M90.4581 98.4753L90.2848 99.183C88.5016 98.6559 86.5849 98.8241 84.9207 99.6536C83.9548 100.136 83.1151 100.837 82.4687 101.702L81.8672 101.242C82.5764 100.291 83.4986 99.5191 84.5598 98.9884C86.3905 98.0784 88.4978 97.8951 90.4581 98.4753Z" fill="#263238"/>
<g style="mix-blend-mode:multiply" opacity="0.5">
<path d="M82.0057 109.656C82.6011 110.762 83.4498 111.712 84.4825 112.427L84.0792 113.028C82.9433 112.241 82.0087 111.197 81.3511 109.982C80.5949 108.628 80.2415 107.085 80.3323 105.537C80.4232 103.989 80.9547 102.499 81.8642 101.242L82.4657 101.702C81.6373 102.846 81.1538 104.202 81.0723 105.612C80.9907 107.022 81.3147 108.425 82.0057 109.656Z" fill="#292929"/>
</g>
<path opacity="0.7" d="M95.7364 102.737C96.7753 104.62 97.0418 106.832 96.4795 108.908L95.7718 108.681C96.2843 106.792 96.0419 104.777 95.096 103.063C94.5937 102.127 93.9101 101.301 93.0851 100.633C92.2601 99.9649 91.3103 99.4677 90.291 99.1706L90.4644 98.4629C91.5833 98.7889 92.6259 99.3348 93.5311 100.069C94.4364 100.803 95.1861 101.71 95.7364 102.737Z" fill="white"/>
<path d="M96.4791 108.907C96.1961 109.944 95.6975 110.91 95.0158 111.741C94.3342 112.572 93.4848 113.25 92.5233 113.73C91.1808 114.383 89.6872 114.661 88.1996 114.537C86.7121 114.412 85.2856 113.889 84.0703 113.022L84.4737 112.421C85.5794 113.209 86.8773 113.684 88.2305 113.796C89.5837 113.908 90.942 113.653 92.1624 113.058C93.0372 112.621 93.8102 112.005 94.4309 111.25C95.0516 110.495 95.5059 109.617 95.7644 108.674L96.4791 108.907Z" fill="#292929"/>
<path opacity="0.6" d="M93.1394 110.834C95.496 108.418 95.3494 104.453 92.812 101.978C90.2746 99.5026 86.3072 99.4543 83.9506 101.87C81.594 104.286 81.7406 108.251 84.278 110.726C86.8154 113.201 90.7828 113.25 93.1394 110.834Z" fill="white"/>
<path d="M99.2479 53.7402H97.8468L94.3262 58.9911L98.3669 64.2419H99.7681L95.7273 58.9911L99.2479 53.7402Z" fill="white"/>
<path d="M103.441 53.7402H104.843L108.887 58.9911L105.363 64.2419H103.958L107.482 58.9911L103.441 53.7402Z" fill="white"/>
<g opacity="0.6">
<path d="M67.6845 58.4942H58.7361C58.6497 58.4935 58.5641 58.5106 58.4847 58.5445C58.4052 58.5783 58.3335 58.6281 58.2741 58.6909C58.2147 58.7536 58.1688 58.8279 58.1394 58.9091C58.1099 58.9903 58.0974 59.0767 58.1028 59.1629L58.4071 65.316C58.417 65.4968 58.496 65.667 58.6276 65.7914C58.7592 65.9158 58.9336 65.985 59.1147 65.9847H68.063C68.1494 65.9854 68.235 65.9682 68.3145 65.9344C68.394 65.9006 68.4657 65.8507 68.5251 65.788C68.5845 65.7253 68.6303 65.651 68.6598 65.5698C68.6893 65.4886 68.7017 65.4022 68.6964 65.316L68.3921 59.1629C68.3821 58.982 68.3032 58.8119 68.1716 58.6875C68.0399 58.5631 67.8656 58.4939 67.6845 58.4942ZM64.3054 64.2191H62.6848L62.7981 62.2624C62.6421 62.1651 62.5118 62.0317 62.4182 61.8734C62.3246 61.7151 62.2704 61.5367 62.2603 61.3531C62.252 61.2123 62.2728 61.0713 62.3213 60.9389C62.3698 60.8065 62.4449 60.6854 62.5421 60.5832C62.6393 60.4811 62.7565 60.3999 62.8863 60.3449C63.0162 60.2899 63.1559 60.2621 63.297 60.2633C63.5901 60.2664 63.8711 60.3806 64.0832 60.5829C64.2954 60.7852 64.4228 61.0605 64.4398 61.3531C64.452 61.5305 64.4171 61.7079 64.3389 61.8675C64.2606 62.0272 64.1417 62.1634 63.994 62.2624L64.3054 64.2191Z" fill="#292929"/>
<path opacity="0.2" d="M62.2595 61.3535C62.2697 61.5371 62.3238 61.7155 62.4174 61.8738C62.511 62.032 62.6413 62.1655 62.7973 62.2628L62.6841 64.2195H63.5085L63.5935 65.9886H59.1069C58.9258 65.9889 58.7514 65.9197 58.6198 65.7953C58.4881 65.6709 58.4092 65.5007 58.3992 65.3199L58.095 59.1668C58.0896 59.0806 58.1021 58.9942 58.1315 58.913C58.161 58.8318 58.2069 58.7575 58.2663 58.6948C58.3257 58.6321 58.3974 58.5822 58.4768 58.5484C58.5563 58.5145 58.6419 58.4974 58.7283 58.4981H63.2042L63.2892 60.2672C63.1491 60.267 63.0104 60.2954 62.8816 60.3506C62.7528 60.4059 62.6367 60.4868 62.5403 60.5885C62.4439 60.6902 62.3693 60.8105 62.321 60.942C62.2727 61.0736 62.2518 61.2136 62.2595 61.3535Z" fill="black"/>
<path d="M66.8639 58.0515C66.705 58.05 66.5526 57.9881 66.4376 57.8783C66.3227 57.7686 66.2537 57.6193 66.2447 57.4606L66.2129 56.8591C66.1771 56.0428 65.8434 55.2679 65.2748 54.6811C64.7062 54.0943 63.9423 53.7362 63.1275 53.6747C62.7162 53.6488 62.3042 53.7107 61.9186 53.8562C61.533 54.0017 61.1828 54.2274 60.8911 54.5185C60.5993 54.8095 60.3728 55.1592 60.2264 55.5445C60.0801 55.9297 60.0172 56.3416 60.0421 56.753L60.0775 57.4606C60.0819 57.5373 60.0704 57.614 60.0439 57.686C60.0173 57.7581 59.9762 57.8238 59.923 57.8793C59.8699 57.9347 59.806 57.9786 59.7351 58.0083C59.6643 58.0379 59.5881 58.0526 59.5114 58.0515C59.3525 58.05 59.2001 57.9881 59.0851 57.8783C58.9701 57.7686 58.9011 57.6193 58.8922 57.4606L58.8639 56.8733C58.825 56.3292 58.8956 55.7828 59.0715 55.2665C59.2473 54.7501 59.5248 54.2742 59.8876 53.8669C60.2504 53.4596 60.6912 53.129 61.1838 52.8949C61.6765 52.6607 62.211 52.5276 62.756 52.5035C63.9321 52.4729 65.0741 52.9005 65.9409 53.696C66.8077 54.4915 67.3315 55.5927 67.4018 56.7671L67.4336 57.4748C67.4365 57.5507 67.4239 57.6264 67.3964 57.6972C67.3689 57.7681 67.3271 57.8325 67.2737 57.8866C67.2203 57.9406 67.1564 57.9832 67.0859 58.0115C67.0154 58.0399 66.9399 58.0535 66.8639 58.0515Z" fill="#292929"/>
</g>
<path opacity="0.4" d="M70.7713 123.98H41.5486L39.0293 72.9688H68.252L70.7713 123.98Z" fill="#292929"/>
<path opacity="0.3" d="M68.3723 75.4137H39.1496L39.0293 72.9688H68.252L68.3723 75.4137Z" fill="#292929"/>
<path opacity="0.3" d="M70.7688 123.98H41.5461L41.4258 121.535H70.6485L70.7688 123.98Z" fill="#292929"/>
<path d="M48.1003 87.4048L47.0388 86.8599C46.8795 86.4034 46.6757 85.9638 46.4302 85.5472L46.7168 84.4397L44.4205 82.2531L43.3307 82.6069C42.9023 82.3825 42.4532 82.2 41.9897 82.062L41.3988 81.043H38.3169L37.8216 82.062C37.3758 82.1989 36.9454 82.3815 36.5372 82.6069L35.4155 82.2531L33.335 84.4397L33.7278 85.5472C33.5247 85.9675 33.3646 86.4073 33.2501 86.8599L32.2559 87.4048L32.408 90.4973L33.4695 91.0386C33.6312 91.4941 33.8349 91.9336 34.0781 92.3513L33.7879 93.4588L36.0843 95.6455L37.1741 95.2916C37.6012 95.5161 38.0492 95.6986 38.5116 95.8365L39.0954 96.8733H42.1878L42.6797 95.8507C43.1256 95.7144 43.5561 95.5318 43.9641 95.3058L45.0892 95.6596L47.1662 93.473L46.7735 92.3655C46.9787 91.9461 47.1388 91.506 47.2511 91.0528L48.2489 90.5114L48.1003 87.4048ZM40.5284 94.5557C39.0205 94.5403 37.5747 93.9531 36.4831 92.9128C35.3915 91.8724 34.7355 90.4564 34.6477 88.951C34.6035 88.2266 34.7089 87.5009 34.9574 86.819C35.2058 86.1371 35.592 85.5137 36.0919 84.9876C36.5918 84.4615 37.1947 84.0439 37.863 83.761C38.5313 83.478 39.2507 83.3357 39.9764 83.3429C41.4852 83.3582 42.9319 83.9458 44.0242 84.9868C45.1165 86.0279 45.7728 87.4447 45.8606 88.951C45.9043 89.6754 45.7985 90.4011 45.5496 91.0828C45.3007 91.7645 44.9141 92.3877 44.4138 92.9134C43.9136 93.4392 43.3105 93.8564 42.642 94.1389C41.9735 94.4215 41.2541 94.5633 40.5284 94.5557Z" fill="#292929"/>
<path opacity="0.6" d="M40.0163 84.1272C39.3923 84.1212 38.7737 84.2437 38.1991 84.4871C37.6245 84.7305 37.1061 85.0895 36.6763 85.5419C36.2465 85.9943 35.9144 86.5304 35.7007 87.1167C35.487 87.703 35.3963 88.327 35.4342 88.9498C35.5113 90.2473 36.0788 91.467 37.0215 92.3618C37.9643 93.2566 39.2119 93.7596 40.5116 93.769C41.1366 93.7769 41.7566 93.6559 42.3328 93.4137C42.909 93.1714 43.4291 92.813 43.8607 92.3608C44.2923 91.9087 44.626 91.3724 44.8412 90.7856C45.0564 90.1987 45.1484 89.5738 45.1114 88.9498C45.0341 87.649 44.4643 86.4264 43.5179 85.5306C42.5714 84.6348 41.3194 84.133 40.0163 84.1272Z" fill="white"/>
<path d="M71.0733 92.1836H54.4823C54.3186 92.1829 54.1566 92.2156 54.006 92.2798C53.8555 92.3441 53.7198 92.4384 53.6071 92.5571C53.4944 92.6757 53.4072 92.8162 53.3508 92.9698C53.2944 93.1234 53.2701 93.2869 53.2792 93.4503L53.7003 101.967C53.72 102.307 53.8684 102.628 54.1154 102.863C54.3625 103.098 54.6896 103.231 55.0307 103.234H65.0016L65.1856 106.924L68.6955 103.234H71.6217C71.7855 103.235 71.9478 103.203 72.0985 103.138C72.2493 103.074 72.3853 102.98 72.4981 102.861C72.6109 102.743 72.698 102.602 72.7542 102.448C72.8104 102.294 72.8344 102.13 72.8247 101.967L72.4037 93.4574C72.3848 93.1159 72.2369 92.7944 71.9899 92.5579C71.7429 92.3214 71.4152 92.1876 71.0733 92.1836Z" fill="#292929"/>
<path d="M48.6742 106.359H59.9967C60.2297 106.363 60.4529 106.454 60.6215 106.614C60.7901 106.775 60.8918 106.994 60.906 107.226L61.1926 113.043C61.1995 113.155 61.1832 113.267 61.1449 113.372C61.1066 113.477 61.0471 113.573 60.9701 113.654C60.8931 113.735 60.8002 113.799 60.6973 113.842C60.5943 113.886 60.4835 113.908 60.3718 113.907H53.5676L53.6915 116.429L51.0448 113.907H49.0457C48.8134 113.904 48.5907 113.814 48.4225 113.654C48.2544 113.493 48.1533 113.275 48.1399 113.043L47.8533 107.226C47.846 107.114 47.8618 107.002 47.8999 106.897C47.938 106.791 47.9974 106.695 48.0745 106.614C48.1515 106.532 48.2446 106.468 48.3478 106.424C48.451 106.38 48.5621 106.358 48.6742 106.359Z" fill="white"/>
<path d="M146.722 85.5626L145.049 85.4883L145.806 88.6727C146.402 88.2693 146.947 87.794 147.427 87.2574C147.496 87.1774 147.549 87.0845 147.582 86.984C147.615 86.8835 147.628 86.7774 147.62 86.6719C147.612 86.5663 147.584 86.4634 147.536 86.3689C147.488 86.2745 147.422 86.1905 147.342 86.1216L146.722 85.5626Z" fill="#FF8B7B"/>
<path d="M143.107 87.2044L143.858 89.7979L145.807 88.6657L145.05 85.4883L143.107 87.2044Z" fill="#FF8B7B"/>
<path d="M134.017 69.3312L133.214 70.2582C132.938 70.5766 132.669 70.9022 132.404 71.2312C131.873 71.8858 131.342 72.5439 130.854 73.2197C129.863 74.5199 128.987 75.9039 128.236 77.356C128.147 77.5329 128.076 77.7098 127.995 77.8832L127.875 78.1415C127.833 78.3156 127.839 78.4979 127.892 78.6687C128.089 79.3653 128.379 80.0319 128.756 80.6502C129.62 82.0915 130.58 83.4734 131.629 84.7864L130.295 86.2017C128.789 85.0993 127.43 83.8092 126.251 82.3627C125.58 81.5575 125.044 80.6495 124.662 79.6736C124.406 79.0131 124.312 78.3008 124.39 77.5966C124.418 77.3764 124.468 77.1596 124.538 76.9491L124.665 76.5953C124.75 76.3617 124.832 76.1247 124.92 75.8876C125.656 74.1417 126.579 72.4808 127.673 70.934C128.204 70.1733 128.735 69.4302 129.332 68.7226C129.623 68.3688 129.916 68.0149 130.217 67.6611C130.518 67.3073 130.819 66.9817 131.169 66.5996L134.017 69.3312Z" fill="#FF8B7B"/>
<path d="M133.76 85.8987L132.249 88.878L130.773 87.6113L131.984 85.4883L133.76 85.8987Z" fill="#FF8B7B"/>
<path d="M148.562 66.4727C149.492 68.118 150.359 69.7703 151.191 71.4581C152.022 73.1459 152.818 74.8513 153.561 76.6028L153.621 76.7549L153.689 76.9495C153.734 77.0759 153.767 77.2062 153.788 77.3387C153.809 77.459 153.823 77.5829 153.837 77.6926C153.844 77.8033 153.844 77.9144 153.837 78.0252C153.835 78.2282 153.815 78.4307 153.777 78.6302C153.746 78.8062 153.704 78.98 153.65 79.1503C153.471 79.7188 153.225 80.264 152.917 80.7744C152.652 81.2268 152.357 81.6617 152.036 82.0765C151.728 82.4799 151.417 82.8655 151.092 83.2335C149.801 84.6801 148.38 86.0043 146.846 87.1893L145.494 85.774C146.626 84.3587 147.751 82.8868 148.728 81.4184C149.204 80.7216 149.624 79.988 149.984 79.2246C150.131 78.9205 150.24 78.5997 150.31 78.2693C150.319 78.2156 150.325 78.1612 150.327 78.1065C150.327 78.0605 150.327 78.0216 150.327 78.0146C150.327 77.9898 150.327 78.0075 150.327 78.0146C150.326 78.0227 150.326 78.0312 150.327 78.0393C150.327 78.0393 150.327 78.0676 150.327 78.0889C150.324 78.0992 150.324 78.1103 150.327 78.1207C150.327 78.1207 150.345 78.149 150.327 78.1207C149.482 76.5037 148.593 74.8832 147.716 73.2556C146.838 71.6279 145.947 69.9968 145.098 68.3692L148.562 66.4727Z" fill="#FF8B7B"/>
<path d="M135.18 56.4195C135.222 56.6247 135.148 56.8157 135.017 56.8511C134.886 56.8865 134.741 56.745 134.695 56.5398C134.649 56.3345 134.727 56.1399 134.858 56.1081C134.989 56.0762 135.134 56.2142 135.18 56.4195Z" fill="#263238"/>
<path d="M135.172 56.8125C135.061 57.5027 134.859 58.1751 134.57 58.8116C134.733 58.8771 134.908 58.9056 135.083 58.8952C135.258 58.8848 135.429 58.8357 135.582 58.7515L135.172 56.8125Z" fill="#FF5652"/>
<path d="M134.951 58.3988C134.682 58.3988 134.42 58.19 134.211 57.8044C133.775 56.8842 133.699 55.8338 133.999 54.8605C134.155 54.4288 134.399 54.1812 134.682 54.1529C134.965 54.1246 135.237 54.3404 135.457 54.7438C135.684 55.1967 135.814 55.692 135.839 56.198C135.927 57.3833 135.552 58.3457 134.986 58.3882L134.951 58.3988ZM134.717 54.3369H134.692C134.487 54.3369 134.296 54.5668 134.165 54.9207C134.016 55.3765 133.961 55.8583 134.006 56.336C134.027 56.8156 134.147 57.2856 134.36 57.7159C134.54 58.0521 134.763 58.236 134.968 58.2184C135.418 58.1865 135.733 57.2701 135.655 56.2157C135.634 55.7362 135.513 55.2662 135.301 54.8358C135.128 54.5173 134.915 54.3369 134.717 54.3369Z" fill="#263238"/>
<path d="M134.629 55.1713C134.654 55.1714 134.678 55.164 134.699 55.1501C134.831 55.0713 134.98 55.0251 135.133 55.0153C135.286 55.0054 135.44 55.0322 135.58 55.0935C135.61 55.1053 135.644 55.1048 135.674 55.0923C135.703 55.0797 135.727 55.056 135.74 55.0263C135.752 54.9957 135.751 54.9617 135.739 54.9314C135.726 54.9011 135.702 54.8768 135.672 54.8635C135.494 54.7867 135.299 54.7543 135.105 54.7691C134.911 54.7839 134.723 54.8454 134.558 54.9484C134.544 54.9573 134.533 54.9688 134.524 54.9822C134.515 54.9957 134.509 55.0108 134.506 55.0266C134.503 55.0424 134.503 55.0587 134.507 55.0745C134.51 55.0902 134.517 55.1051 134.526 55.1183C134.538 55.1348 134.553 55.1483 134.571 55.1575C134.589 55.1667 134.608 55.1715 134.629 55.1713Z" fill="#263238"/>
<path d="M142.243 57.8594C142.175 60 141.383 62.5865 142.664 63.8532C142.664 63.8532 142.069 65.7816 138.535 65.7816C134.642 65.7816 136.765 63.8532 136.765 63.8532C138.906 63.3473 138.913 61.7763 138.602 60.2973L142.243 57.8594Z" fill="#FF8B7B"/>
<path d="M143.574 64.5165C143.878 63.9079 144.186 62.9702 143.574 62.7473C142.884 62.5067 139.381 61.8981 136.717 62.7473C136.857 63.0442 136.932 63.3673 136.938 63.6953C136.944 64.0234 136.881 64.349 136.752 64.6509L143.574 64.5165Z" fill="#263238"/>
<path d="M148.239 153.295C147.973 153.295 147.715 153.257 147.619 153.126C147.588 153.083 147.57 153.032 147.57 152.979C147.57 152.926 147.588 152.874 147.619 152.832C147.641 152.795 147.671 152.762 147.706 152.737C147.742 152.712 147.782 152.695 147.825 152.687C148.203 152.605 148.886 153.094 148.929 153.115C148.938 153.121 148.946 153.13 148.95 153.141C148.955 153.152 148.956 153.164 148.953 153.175C148.952 153.187 148.946 153.198 148.938 153.207C148.93 153.216 148.919 153.222 148.907 153.225C148.687 153.271 148.463 153.294 148.239 153.295ZM147.931 152.8H147.86C147.809 152.811 147.765 152.842 147.736 152.885C147.676 152.988 147.708 153.03 147.718 153.044C147.825 153.189 148.355 153.193 148.745 153.126C148.502 152.956 148.223 152.844 147.931 152.8Z" fill="white"/>
<path d="M148.903 153.224H148.875C148.613 153.079 148.118 152.516 148.168 152.223C148.177 152.176 148.202 152.134 148.239 152.104C148.276 152.074 148.322 152.057 148.369 152.056C148.416 152.052 148.463 152.057 148.508 152.071C148.553 152.085 148.595 152.107 148.631 152.138C148.925 152.385 148.957 153.136 148.957 153.167C148.957 153.178 148.955 153.19 148.95 153.199C148.945 153.209 148.937 153.218 148.928 153.224H148.903ZM148.419 152.162H148.39C148.309 152.162 148.298 152.212 148.295 152.23C148.263 152.403 148.578 152.831 148.833 153.029C148.826 152.736 148.73 152.452 148.557 152.216C148.521 152.185 148.476 152.169 148.429 152.17L148.419 152.162Z" fill="white"/>
<path d="M132.631 153.295C132.278 153.295 131.977 153.249 131.871 153.1C131.843 153.061 131.828 153.014 131.828 152.966C131.828 152.918 131.843 152.871 131.871 152.831C132.15 152.371 133.304 153.033 133.435 153.111C133.445 153.117 133.454 153.127 133.459 153.138C133.464 153.15 133.465 153.162 133.463 153.174C133.46 153.187 133.454 153.198 133.446 153.207C133.437 153.215 133.426 153.222 133.413 153.224C133.155 153.269 132.894 153.293 132.631 153.295ZM132.232 152.792C132.186 152.787 132.14 152.793 132.097 152.811C132.055 152.829 132.018 152.858 131.991 152.895C131.938 152.98 131.963 153.015 131.973 153.029C132.087 153.192 132.745 153.199 133.233 153.132C132.925 152.954 132.585 152.838 132.232 152.792Z" fill="white"/>
<path d="M133.416 153.225H133.391C133.079 153.08 132.489 152.517 132.538 152.23C132.538 152.16 132.598 152.071 132.772 152.053C132.835 152.044 132.9 152.049 132.961 152.068C133.022 152.087 133.078 152.12 133.125 152.163C133.447 152.436 133.479 153.133 133.479 153.164C133.481 153.175 133.479 153.185 133.475 153.195C133.47 153.204 133.463 153.212 133.455 153.218C133.443 153.224 133.429 153.226 133.416 153.225ZM132.821 152.163H132.786C132.669 152.163 132.662 152.22 132.658 152.237C132.63 152.418 133.03 152.853 133.341 153.044C133.324 152.751 133.217 152.47 133.033 152.241C132.973 152.193 132.898 152.168 132.821 152.17V152.163Z" fill="white"/>
<path d="M136.274 153.165H133.673L133.648 147.143H136.246L136.274 153.165Z" fill="#FF8B7B"/>
<path d="M151.881 153.165H149.281L148.205 147.143H150.806L151.881 153.165Z" fill="#FF8B7B"/>
<path d="M149.108 152.863H152.027C152.078 152.862 152.128 152.88 152.167 152.912C152.207 152.945 152.233 152.99 152.243 153.04L152.667 155.351C152.677 155.408 152.673 155.467 152.657 155.523C152.641 155.579 152.613 155.631 152.575 155.674C152.537 155.718 152.49 155.753 152.437 155.777C152.383 155.8 152.326 155.812 152.267 155.811C151.248 155.811 150.757 155.736 149.472 155.736C148.683 155.736 147.052 155.818 145.962 155.818C144.872 155.818 144.77 154.739 145.219 154.64C147.24 154.201 148.018 153.599 148.68 153.023C148.798 152.919 148.95 152.862 149.108 152.863Z" fill="#263238"/>
<path d="M133.703 152.863H136.533C136.584 152.863 136.633 152.88 136.672 152.912C136.711 152.945 136.737 152.99 136.746 153.04L137.17 155.351C137.181 155.408 137.179 155.466 137.164 155.522C137.149 155.578 137.121 155.63 137.084 155.674C137.046 155.718 136.999 155.754 136.946 155.777C136.893 155.801 136.836 155.812 136.778 155.811C135.755 155.811 134.28 155.736 132.992 155.736C131.488 155.736 130.182 155.818 128.42 155.818C127.359 155.818 127.097 154.739 127.546 154.64C129.598 154.197 131.261 154.148 133.059 153.065C133.251 152.94 133.474 152.87 133.703 152.863Z" fill="#263238"/>
<path d="M147.626 64.4453C150.039 65.0043 152.579 71.6457 152.579 71.6457L147.558 75C146.406 73.2511 145.395 71.4123 144.537 69.5015C143.206 66.4621 145.156 63.8721 147.626 64.4453Z" fill="#292929"/>
<path opacity="0.3" d="M147.626 64.4453C150.039 65.0043 152.579 71.6457 152.579 71.6457L147.558 75C146.406 73.2511 145.395 71.4123 144.537 69.5015C143.206 66.4621 145.156 63.8721 147.626 64.4453Z" fill="#FAFAFA"/>
<path opacity="0.2" d="M145.716 68.6914L147.793 74.8516L147.556 75.0108C147.556 75.0108 146.608 73.5955 145.6 71.7096L145.716 68.6914Z" fill="black"/>
<path d="M131.405 76.0545C131.426 78.9559 131.6 82.565 132.031 87.0444H145.951C146.131 84.9215 145.19 74.4977 147.635 64.4419C146.107 64.1456 144.561 63.9494 143.007 63.8545C141.039 63.7412 139.066 63.7412 137.098 63.8545C135.74 63.9867 134.394 64.2233 133.072 64.5622C133.072 64.5622 131.883 65.8501 131.522 71.89C131.444 73.0965 131.398 74.4694 131.405 76.0545Z" fill="#292929"/>
<path opacity="0.3" d="M131.405 76.0545C131.426 78.9559 131.6 82.565 132.031 87.0444H145.951C146.131 84.9215 145.19 74.4977 147.635 64.4419C146.107 64.1456 144.561 63.9494 143.007 63.8545C141.039 63.7412 139.066 63.7412 137.098 63.8545C135.74 63.9867 134.394 64.2233 133.072 64.5622C133.072 64.5622 131.883 65.8501 131.522 71.89C131.444 73.0965 131.398 74.4694 131.405 76.0545Z" fill="#FAFAFA"/>
<path opacity="0.2" d="M131.405 76.0545C132.247 74.5188 133.776 71.437 133.56 69.6855L131.508 71.9076C131.444 73.0965 131.398 74.4693 131.405 76.0545Z" fill="black"/>
<path d="M135.783 66.9219C136.003 69.3987 130.387 75.3571 130.387 75.3571L125.887 71.6879C127.066 69.7024 128.479 67.8648 130.094 66.2142C132.726 63.6666 135.539 64.1514 135.783 66.9219Z" fill="#292929"/>
<path opacity="0.3" d="M135.783 66.9219C136.003 69.3987 130.387 75.3571 130.387 75.3571L125.887 71.6879C127.066 69.7024 128.479 67.8648 130.094 66.2142C132.726 63.6666 135.539 64.1514 135.783 66.9219Z" fill="#FAFAFA"/>
<path opacity="0.2" d="M133.648 147.146L133.663 150.25H136.263L136.249 147.146H133.648Z" fill="black"/>
<path opacity="0.2" d="M150.806 147.146H148.205L148.761 150.25H151.361L150.806 147.146Z" fill="black"/>
<path d="M141.868 54.2718C142.247 56.83 142.601 58.3055 141.614 59.9154C141.301 60.4425 140.85 60.874 140.309 61.1631C139.769 61.4521 139.16 61.5878 138.548 61.5554C137.936 61.5229 137.344 61.3236 136.838 60.979C136.331 60.6344 135.928 60.1577 135.673 59.6005C134.657 57.4775 134.204 53.642 136.437 52.0215C136.909 51.6574 137.469 51.4244 138.06 51.3459C138.652 51.2674 139.253 51.3463 139.804 51.5746C140.355 51.8028 140.836 52.1724 141.198 52.646C141.561 53.1196 141.792 53.6804 141.868 54.2718Z" fill="#FF8B7B"/>
<path d="M137.519 53.572C129.342 53.3739 136.033 48.4238 136.033 48.4238C134.688 50.7839 138.542 50.568 139.515 49.5065C140.696 48.208 142.834 50.0161 142.664 51.4314C143.909 51.2757 144.896 52.1992 144.433 55.1713C143.969 58.1435 142.996 58.9821 142.487 59.7074C141.977 60.4328 142.02 59.7428 140.321 60.0613C139.154 60.2806 137.197 57.7614 136.981 56.2894C136.828 55.3484 137.019 54.3838 137.519 53.572Z" fill="#263238"/>
<path d="M141.729 51.8628C141.729 51.8628 143.851 50.9783 142.436 48.7598C144.403 49.7823 144.106 51.647 141.729 51.8628Z" fill="#263238"/>
<path d="M138.653 55.855C138.643 56.5064 138.425 57.1375 138.03 57.656C137.503 58.3353 136.898 58.0098 136.753 57.2455C136.626 56.5662 136.753 55.395 137.411 54.9845C138.069 54.5741 138.657 55.0765 138.653 55.855Z" fill="#FF8B7B"/>
<path d="M136.967 87.0434C136.967 87.0434 139.15 106.904 140.48 114.334C141.938 122.472 147.557 149.632 147.557 149.632H152.319C152.319 149.632 148.937 123.145 148.236 115.074C147.476 106.316 145.922 87.0293 145.922 87.0293L136.967 87.0434Z" fill="#263238"/>
<path d="M146.884 147.893C146.862 147.893 147.305 149.722 147.305 149.722H152.676L152.64 148.091L146.884 147.893Z" fill="#292929"/>
<path opacity="0.2" d="M138.557 94.1213C141.943 94.79 141.09 107.51 140.428 114.052C139.622 109.428 138.525 100.529 137.785 94.2133C138.025 94.0965 138.296 94.0641 138.557 94.1213Z" fill="black"/>
<path d="M132.037 87.043C132.037 87.043 130.926 106.479 130.905 114.405C130.88 122.649 132.716 149.646 132.716 149.646H137.107C137.107 149.646 138.292 123.13 138.802 115.034C139.354 106.189 141.162 87.043 141.162 87.043H132.037Z" fill="#263238"/>
<path d="M130.97 84.5488L132.205 84.6479C132.305 84.6558 132.403 84.6861 132.49 84.7366C132.577 84.787 132.652 84.8563 132.709 84.9394C132.766 85.0225 132.804 85.1173 132.819 85.2169C132.835 85.3164 132.828 85.4182 132.799 85.5148L132.29 87.2308C132.247 87.3703 132.171 87.4973 132.068 87.601C131.965 87.7047 131.839 87.7821 131.7 87.8266C131.561 87.871 131.414 87.8813 131.27 87.8564C131.126 87.8315 130.99 87.7723 130.874 87.6837C130.235 87.0912 129.778 86.3292 129.555 85.4865L130.97 84.5488Z" fill="#FF8B7B"/>
<path opacity="0.2" d="M133.759 146.484C133.747 146.484 133.736 146.479 133.728 146.471C133.719 146.464 133.714 146.453 133.713 146.441C133.225 138.972 132.092 120.891 132.114 114.406C132.131 107.771 132.92 92.9282 133.175 88.5371C133.173 88.5303 133.173 88.5231 133.174 88.5161C133.175 88.5091 133.178 88.5025 133.183 88.4968C133.187 88.4911 133.192 88.4865 133.199 88.4833C133.205 88.4802 133.212 88.4785 133.219 88.4785C133.226 88.4785 133.233 88.4802 133.24 88.4833C133.246 88.4865 133.252 88.4911 133.256 88.4968C133.26 88.5025 133.263 88.5091 133.265 88.5161C133.266 88.5231 133.265 88.5303 133.264 88.5371C133.023 92.9282 132.234 107.771 132.202 114.402C132.181 120.884 133.313 138.961 133.801 146.434C133.802 146.44 133.801 146.446 133.799 146.451C133.797 146.457 133.794 146.462 133.79 146.466C133.786 146.471 133.781 146.474 133.776 146.477C133.771 146.479 133.765 146.48 133.759 146.48V146.484Z" fill="#FAFAFA"/>
<path d="M131.935 147.893C131.914 147.893 132.112 149.722 132.112 149.722H137.458L137.667 148.091L131.935 147.893Z" fill="#292929"/>
</svg>
