<svg width="135" height="135" viewBox="0 0 135 135" fill="none" xmlns="http://www.w3.org/2000/svg">
<circle cx="67.5" cy="67.5" r="67.5" fill="#2AB7CA"/>
<path d="M98.8284 40.5907L100.276 38.2562L99.5565 37.8144C99.4546 37.7495 99.3728 37.6574 99.3203 37.5485C99.2679 37.4396 99.2469 37.3182 99.2596 37.198C99.2707 37.0645 99.2748 36.9304 99.2719 36.7964C99.2691 36.6739 99.3002 36.5529 99.3618 36.4469C99.4235 36.3409 99.5132 36.254 99.6211 36.1958L100.363 35.7994L99.0641 33.3776L98.3237 33.774C98.2194 33.8309 98.1014 33.8578 97.9827 33.8516C97.864 33.8455 97.7494 33.8065 97.6515 33.7391C97.5328 33.6541 97.4085 33.5771 97.2796 33.5086C97.174 33.4528 97.086 33.3687 97.0256 33.2657C96.9651 33.1627 96.9346 33.0448 96.9374 32.9254L96.9636 32.0856L94.2187 32L94.196 32.8399C94.1919 32.959 94.155 33.0747 94.0894 33.1742C94.0238 33.2737 93.932 33.3531 93.8241 33.4038C93.7595 33.4335 93.6949 33.465 93.6321 33.4981L93.447 33.6046C93.3459 33.6667 93.2295 33.6996 93.1109 33.6996C92.9922 33.6996 92.8759 33.6667 92.7747 33.6046L92.0554 33.1576L90.6061 35.4921L91.3273 35.9391C91.4289 36.004 91.5106 36.0958 91.5633 36.2043C91.616 36.3128 91.6377 36.4337 91.6258 36.5537C91.6142 36.6867 91.6095 36.8202 91.6119 36.9536C91.6158 37.0751 91.586 37.1953 91.526 37.301C91.4659 37.4067 91.3778 37.4937 91.2714 37.5525L90.5293 37.9506L91.8284 40.3724L92.5705 39.9743C92.6784 39.918 92.7999 39.8928 92.9213 39.9014C93.0428 39.9101 93.1595 39.9522 93.2584 40.0232C93.369 40.0977 93.4825 40.1675 93.5989 40.2327C93.7058 40.2884 93.7951 40.3728 93.8568 40.4765C93.9185 40.5801 93.9501 40.6988 93.9481 40.8194L93.9219 41.668L96.6685 41.7535L96.6947 40.9102C96.6992 40.7898 96.7373 40.6731 96.8045 40.5732C96.8718 40.4733 96.9655 40.394 97.0753 40.3445C97.1364 40.3148 97.1975 40.2851 97.2499 40.2519C97.3023 40.2187 97.3669 40.1873 97.4245 40.1524C97.5278 40.0891 97.6465 40.0556 97.7676 40.0556C97.8887 40.0556 98.0075 40.0891 98.1107 40.1524L98.8284 40.5907ZM96.7523 38.7032C96.3701 38.9775 95.9116 39.1253 95.4412 39.1256C94.9707 39.1259 94.512 38.9789 94.1295 38.705C93.747 38.4312 93.4599 38.0443 93.3085 37.5989C93.1572 37.1535 93.1493 36.6718 93.2858 36.2216C93.4224 35.7714 93.6966 35.3753 94.0699 35.089C94.4431 34.8027 94.8968 34.6406 95.367 34.6254C95.8372 34.6102 96.3003 34.7428 96.6913 35.0044C97.0823 35.266 97.3814 35.6436 97.5467 36.0841C97.7206 36.5472 97.737 37.0548 97.5934 37.5282C97.4498 38.0017 97.1542 38.4146 96.7523 38.7032Z" fill="#EBEBEB"/>
<path d="M14.0255 53.3857C14.0987 53.4286 14.1585 53.491 14.1983 53.5659C14.238 53.6408 14.2562 53.7253 14.2507 53.81C14.2507 53.8571 14.2507 53.9043 14.2507 53.9514C14.2507 53.9986 14.2507 54.0474 14.2507 54.0946C14.2565 54.1788 14.2386 54.263 14.1991 54.3377C14.1596 54.4123 14.1001 54.4745 14.0272 54.5171L13.5156 54.8122L14.4777 56.4797L14.9893 56.1846C15.0626 56.1423 15.1464 56.1215 15.231 56.1245C15.3156 56.1276 15.3977 56.1545 15.4677 56.2021C15.548 56.2527 15.6301 56.3016 15.7157 56.3453C15.7916 56.383 15.8555 56.4409 15.9005 56.5127C15.9455 56.5845 15.9698 56.6674 15.9706 56.7521V57.3405H17.8913V56.7521C17.8916 56.6677 17.9152 56.585 17.9596 56.5132C18.004 56.4414 18.0673 56.3833 18.1427 56.3453C18.2283 56.3016 18.3173 56.2527 18.3906 56.2021C18.461 56.1546 18.5434 56.1277 18.6282 56.1246C18.7131 56.1215 18.7972 56.1423 18.8708 56.1846L19.3824 56.4797L20.3445 54.8122L19.8312 54.5154C19.7583 54.4727 19.6988 54.4106 19.6593 54.3359C19.6198 54.2613 19.6019 54.1771 19.6077 54.0928C19.6077 54.0457 19.6077 53.9986 19.6077 53.9514C19.6077 53.9043 19.6077 53.8571 19.6077 53.81C19.602 53.7253 19.62 53.6407 19.6598 53.5657C19.6996 53.4908 19.7596 53.4284 19.8329 53.3857L20.3445 53.0906L19.3824 51.4231L18.8726 51.7182C18.7988 51.76 18.715 51.7806 18.6303 51.7778C18.5456 51.7751 18.4632 51.749 18.3924 51.7025C18.3124 51.6498 18.2296 51.6014 18.1445 51.5576C18.0686 51.5199 18.0048 51.462 17.9601 51.3901C17.9154 51.3182 17.8915 51.2354 17.8913 51.1507V50.5605H15.9706V51.149C15.9699 51.2335 15.946 51.3162 15.9013 51.388C15.8566 51.4598 15.793 51.5179 15.7174 51.5558C15.6317 51.5997 15.5483 51.6481 15.4677 51.7007C15.3972 51.7473 15.3152 51.7734 15.2307 51.7762C15.1463 51.7789 15.0627 51.7583 14.9893 51.7164L14.4795 51.4214L13.5174 53.0889L14.0255 53.3857ZM16.9309 52.3747C17.2417 52.3747 17.5456 52.4669 17.804 52.6395C18.0624 52.8122 18.2638 53.0577 18.3828 53.3448C18.5017 53.6319 18.5328 53.9479 18.4722 54.2527C18.4116 54.5576 18.2619 54.8376 18.0421 55.0574C17.8224 55.2771 17.5423 55.4268 17.2375 55.4874C16.9327 55.5481 16.6167 55.517 16.3296 55.398C16.0424 55.2791 15.797 55.0777 15.6243 54.8192C15.4516 54.5608 15.3595 54.257 15.3595 53.9462C15.3595 53.5294 15.525 53.1297 15.8197 52.835C16.1144 52.5403 16.5142 52.3747 16.9309 52.3747Z" fill="#EBEBEB"/>
<path d="M115.82 58.4953C115.893 58.5385 115.952 58.601 115.992 58.6759C116.031 58.7508 116.049 58.8351 116.044 58.9196C116.044 58.9667 116.044 59.0138 116.044 59.0627C116.044 59.1116 116.044 59.157 116.044 59.2042C116.049 59.2886 116.031 59.3729 115.992 59.4478C115.952 59.5227 115.893 59.5852 115.82 59.6285L115.309 59.9235L116.271 61.5893L116.782 61.296C116.856 61.2538 116.94 61.2329 117.025 61.2357C117.109 61.2385 117.192 61.2648 117.262 61.3117C117.342 61.3648 117.425 61.4126 117.51 61.4549C117.586 61.4929 117.649 61.551 117.694 61.6228C117.738 61.6946 117.762 61.7773 117.762 61.8617V62.4519H119.682V61.8617C119.683 61.7771 119.707 61.6944 119.752 61.6226C119.796 61.5508 119.86 61.4928 119.936 61.4549C120.021 61.4122 120.104 61.3644 120.184 61.3117C120.254 61.2648 120.336 61.2384 120.421 61.2356C120.505 61.2329 120.589 61.2538 120.662 61.296L121.174 61.5893L122.136 59.9235L121.622 59.6267C121.55 59.5837 121.49 59.5215 121.451 59.447C121.412 59.3724 121.394 59.2884 121.399 59.2042C121.399 59.1564 121.399 59.1093 121.399 59.0627C121.399 59.0138 121.399 58.9667 121.399 58.9196C121.394 58.8349 121.412 58.7505 121.452 58.6756C121.491 58.6007 121.551 58.5383 121.624 58.4953L122.136 58.2002L121.174 56.5344L120.664 56.8278C120.59 56.87 120.507 56.8909 120.422 56.8881C120.338 56.8853 120.256 56.859 120.185 56.8121C120.105 56.76 120.021 56.7122 119.936 56.6689C119.86 56.6309 119.796 56.5729 119.752 56.5011C119.707 56.4293 119.683 56.3466 119.682 56.262V55.6719H117.765V56.262C117.765 56.3467 117.741 56.4296 117.697 56.5014C117.652 56.5733 117.588 56.6313 117.512 56.6689C117.427 56.7122 117.344 56.76 117.264 56.8121C117.193 56.8589 117.111 56.8852 117.026 56.888C116.942 56.8908 116.858 56.8699 116.784 56.8278L116.274 56.5344L115.312 58.2002L115.82 58.4953ZM118.724 57.4843C119.035 57.4843 119.339 57.5765 119.597 57.7491C119.855 57.9218 120.057 58.1672 120.176 58.4544C120.295 58.7415 120.326 59.0575 120.265 59.3623C120.205 59.6672 120.055 59.9472 119.835 60.1669C119.615 60.3867 119.335 60.5364 119.03 60.597C118.726 60.6577 118.41 60.6265 118.123 60.5076C117.835 60.3887 117.59 60.1872 117.417 59.9288C117.245 59.6704 117.152 59.3666 117.152 59.0558C117.152 58.639 117.318 58.2393 117.613 57.9446C117.907 57.6499 118.307 57.4843 118.724 57.4843Z" fill="#EBEBEB"/>
<path d="M122.714 46.2725H122.457V46.1031H122.543V46.0176H122.714V46.2725Z" fill="#EBEBEB"/>
<path d="M122.117 46.2723H121.782V46.0977H122.122L122.117 46.2723ZM121.436 46.2723H121.096V46.0977H121.433L121.436 46.2723ZM120.757 46.2723H120.408V46.0977H120.757V46.2723ZM120.076 46.2723H119.727V46.0977H120.076V46.2723ZM119.395 46.2723H119.046V46.0977H119.395V46.2723ZM118.714 46.2723H118.374V46.0977H118.714V46.2723ZM118.033 46.2723H117.693V46.0977H118.033V46.2723ZM117.352 46.2723H117.003V46.0977H117.352V46.2723ZM116.671 46.2723H116.322V46.0977H116.671V46.2723ZM115.99 46.2723H115.641V46.0977H115.99V46.2723ZM115.309 46.2723H114.972V46.0977H115.313L115.309 46.2723ZM114.628 46.2723H114.288V46.0977H114.623L114.628 46.2723ZM113.947 46.2723H113.598V46.0977H113.947V46.2723ZM113.266 46.2723H112.917V46.0977H113.266V46.2723ZM112.585 46.2723H112.236V46.0977H112.585V46.2723ZM111.904 46.2723H111.566V46.0977H111.904V46.2723ZM111.225 46.2723H110.885V46.0977H111.225V46.2723Z" fill="#EBEBEB"/>
<path d="M110.546 46.2725H110.289V46.0176H110.46V46.1031H110.546V46.2725Z" fill="#EBEBEB"/>
<path d="M110.458 45.6716H110.283V45.3224H110.458V45.6716ZM110.458 44.9907H110.283V44.6502H110.458V44.9907ZM110.458 44.3097H110.283V43.9605H110.458V44.3097ZM110.458 43.6287H110.283V43.2795H110.458V43.6287ZM110.458 42.9478H110.283V42.5986H110.458V42.9478ZM110.458 42.2668H110.283V41.9176H110.458V42.2668ZM110.458 41.5858H110.283V41.2506H110.458V41.5858ZM110.458 40.9066H110.283V40.5714H110.458V40.9066ZM110.458 40.2257H110.283V39.8764H110.458V40.2257ZM110.458 39.5447H110.283V39.2112H110.458V39.5447ZM110.458 38.8637H110.283V38.5145H110.458V38.8637ZM110.458 38.1828H110.283V37.8335H110.458V38.1828ZM110.458 37.5018H110.283V37.1665H110.458V37.5018ZM110.458 36.8208H110.283V36.4716H110.458V36.8208ZM110.458 36.1399H110.283V35.8046H110.458V36.1399ZM110.458 35.4589H110.283V35.1236H110.458V35.4589ZM110.458 34.7779H110.283V34.4287H110.458V34.7779Z" fill="#EBEBEB"/>
<path d="M110.46 34.1026H110.289V33.8477H110.546V34.0188H110.46V34.1026Z" fill="#EBEBEB"/>
<path d="M122.117 34.0193H121.782V33.8447H122.122L122.117 34.0193ZM121.436 34.0193H121.096V33.8447H121.433L121.436 34.0193ZM120.757 34.0193H120.408V33.8447H120.757V34.0193ZM120.076 34.0193H119.727V33.8447H120.076V34.0193ZM119.395 34.0193H119.046V33.8447H119.395V34.0193ZM118.714 34.0193H118.374V33.8447H118.714V34.0193ZM118.033 34.0193H117.693V33.8447H118.033V34.0193ZM117.352 34.0193H117.003V33.8447H117.352V34.0193ZM116.671 34.0193H116.322V33.8447H116.671V34.0193ZM115.99 34.0193H115.641V33.8447H115.99V34.0193ZM115.309 34.0193H114.972V33.8447H115.313L115.309 34.0193ZM114.628 34.0193H114.288V33.8447H114.623L114.628 34.0193ZM113.947 34.0193H113.598V33.8447H113.947V34.0193ZM113.266 34.0193H112.917V33.8447H113.266V34.0193ZM112.585 34.0193H112.236V33.8447H112.585V34.0193ZM111.904 34.0193H111.566V33.8447H111.904V34.0193ZM111.225 34.0193H110.885V33.8447H111.225V34.0193Z" fill="#EBEBEB"/>
<path d="M122.714 34.1026H122.543V34.0188H122.457V33.8477H122.714V34.1026Z" fill="#EBEBEB"/>
<path d="M122.714 45.6716H122.539V45.3224H122.714V45.6716ZM122.714 44.9907H122.539V44.6502H122.714V44.9907ZM122.714 44.3097H122.539V43.9605H122.714V44.3097ZM122.714 43.6287H122.539V43.2795H122.714V43.6287ZM122.714 42.9478H122.539V42.5986H122.714V42.9478ZM122.714 42.2668H122.539V41.9176H122.714V42.2668ZM122.714 41.5858H122.539V41.2523H122.714V41.5858ZM122.714 40.9066H122.539V40.5714H122.714V40.9066ZM122.714 40.2257H122.539V39.8764H122.714V40.2257ZM122.714 39.5447H122.539V39.2112H122.714V39.5447ZM122.714 38.8637H122.539V38.5145H122.714V38.8637ZM122.714 38.1828H122.539V37.8335H122.714V38.1828ZM122.714 37.5018H122.539V37.1665H122.714V37.5018ZM122.714 36.8208H122.539V36.4716H122.714V36.8208ZM122.714 36.1399H122.539V35.8046H122.714V36.1399ZM122.714 35.4589H122.539V35.1236H122.714V35.4589ZM122.714 34.7779H122.539V34.4287H122.714V34.7779Z" fill="#EBEBEB"/>
<path d="M111.137 45.4238H109.609V46.9516H111.137V45.4238Z" fill="white"/>
<path d="M111.221 47.0368H109.523V45.3379H111.221V47.0368ZM109.695 46.8622H111.051V45.5055H109.695V46.8622Z" fill="#EBEBEB"/>
<path d="M111.143 39.2969H109.615V40.8247H111.143V39.2969Z" fill="white"/>
<path d="M111.221 40.9081H109.523V39.2109H111.221V40.9081ZM109.695 40.7335H111.051V39.3855H109.695V40.7335Z" fill="#EBEBEB"/>
<path d="M111.143 33.168H109.615V34.6958H111.143V33.168Z" fill="white"/>
<path d="M111.221 34.7821H109.523V33.085H111.221V34.7821ZM109.695 34.6075H111.051V33.2543H109.695V34.6075Z" fill="#EBEBEB"/>
<path d="M123.399 45.4238H121.871V46.9516H123.399V45.4238Z" fill="white"/>
<path d="M123.479 47.0368H121.783V45.3379H123.48L123.479 47.0368ZM121.951 46.8622H123.308V45.5055H121.958L121.951 46.8622Z" fill="#EBEBEB"/>
<path d="M123.399 39.2969H121.871V40.8247H123.399V39.2969Z" fill="white"/>
<path d="M123.479 40.9081H121.783V39.2109H123.48L123.479 40.9081ZM121.951 40.7335H123.308V39.3855H121.958L121.951 40.7335Z" fill="#EBEBEB"/>
<path d="M123.399 33.168H121.871V34.6958H123.399V33.168Z" fill="white"/>
<path d="M123.479 34.7821H121.783V33.085H123.48L123.479 34.7821ZM121.951 34.6075H123.308V33.2543H121.958L121.951 34.6075Z" fill="#EBEBEB"/>
<path d="M117.274 33.168H115.746V34.6958H117.274V33.168Z" fill="white"/>
<path d="M117.351 34.7821H115.652V33.085H117.351V34.7821ZM115.823 34.6075H117.18V33.2543H115.823V34.6075Z" fill="#EBEBEB"/>
<path d="M117.266 45.4238H115.738V46.9516H117.266V45.4238Z" fill="white"/>
<path d="M117.351 47.0368H115.652V45.3379H117.351V47.0368ZM115.823 46.8622H117.18V45.5055H115.823V46.8622Z" fill="#EBEBEB"/>
<path d="M119.724 39.0154H119.524C118.954 37.2903 118.628 36.5919 117.669 36.5919H117.542V43.5307H118.438V43.7507H114.596V43.529H115.492V36.5919H115.356C114.395 36.5919 114.037 37.3828 113.498 39.0172H113.299L113.404 36.3701H119.627L119.724 39.0154Z" fill="#EBEBEB"/>
<path d="M14.8616 78.2877C14.9228 78.3482 14.9646 78.4255 14.9818 78.5097C14.999 78.594 14.9909 78.6815 14.9583 78.7611C14.9258 78.8408 14.8704 78.909 14.7991 78.9571C14.7278 79.0052 14.6438 79.0311 14.5578 79.0315C14.4399 79.0329 14.3259 78.9884 14.24 78.9075L12.3037 76.9415C12.2949 76.9383 12.287 76.933 12.2809 76.926C12.2748 76.9189 12.2706 76.9104 12.2687 76.9013C12.2624 76.8958 12.2553 76.8911 12.2478 76.8873C12.2391 76.8696 12.2326 76.8508 12.2286 76.8315C12.223 76.8289 12.2182 76.825 12.2146 76.8201C12.2109 76.8153 12.2085 76.8096 12.2076 76.8035C12.2076 76.7896 12.2076 76.7703 12.1937 76.7634C12.1797 76.7564 12.1797 76.7354 12.1797 76.7284V76.6796C12.1797 76.6656 12.1797 76.6586 12.1797 76.6376C12.1797 76.6167 12.1797 76.6115 12.1797 76.6045V76.5556C12.1797 76.5416 12.1937 76.5346 12.1937 76.5276C12.1937 76.5207 12.1937 76.4945 12.2076 76.4735C12.2216 76.4526 12.2076 76.4735 12.2076 76.4595C12.2076 76.4456 12.2286 76.4107 12.2408 76.3967C12.2408 76.393 12.2423 76.3894 12.2449 76.3868C12.2475 76.3842 12.2511 76.3827 12.2548 76.3827C12.2646 76.3637 12.279 76.3475 12.2967 76.3356L14.2348 74.3695C14.3186 74.2897 14.4299 74.2451 14.5456 74.2451C14.6613 74.2451 14.7726 74.2897 14.8564 74.3695C14.8971 74.4102 14.9294 74.4585 14.9514 74.5117C14.9735 74.5649 14.9848 74.6219 14.9848 74.6794C14.9848 74.737 14.9735 74.794 14.9514 74.8472C14.9294 74.9003 14.8971 74.9487 14.8564 74.9894L13.2203 76.6376L14.8616 78.2877Z" fill="#EBEBEB"/>
<path d="M16.6207 78.5087L18.3109 74.4927C18.3307 74.4465 18.3594 74.4046 18.3954 74.3695C18.4314 74.3343 18.4739 74.3067 18.5206 74.288C18.5674 74.2694 18.6173 74.2601 18.6676 74.2608C18.7179 74.2615 18.7675 74.272 18.8137 74.2919C18.9044 74.3314 18.9757 74.4053 19.012 74.4972C19.0483 74.5892 19.0467 74.6918 19.0076 74.7826L17.3174 78.8108C17.2871 78.8782 17.2381 78.9354 17.1762 78.9757C17.1142 79.016 17.042 79.0375 16.9681 79.0378C16.9209 79.0385 16.8739 79.0295 16.8302 79.0116C16.7824 78.9936 16.7388 78.9661 16.7021 78.9306C16.6653 78.8952 16.6363 78.8526 16.6166 78.8055C16.597 78.7583 16.5872 78.7077 16.5879 78.6567C16.5886 78.6056 16.5998 78.5553 16.6207 78.5087Z" fill="#EBEBEB"/>
<path d="M22.3464 76.8875C22.3318 76.9049 22.3154 76.9207 22.2975 76.9346L20.3594 78.9007C20.3187 78.9415 20.2703 78.9739 20.2171 78.996C20.1639 79.0182 20.1068 79.0296 20.0492 79.0297C19.9915 79.0298 19.9345 79.0185 19.8812 78.9965C19.8279 78.9745 19.7795 78.9423 19.7386 78.9016C19.6978 78.8609 19.6654 78.8125 19.6433 78.7593C19.6212 78.7061 19.6097 78.649 19.6096 78.5914C19.6096 78.5338 19.6208 78.4767 19.6428 78.4234C19.6648 78.3701 19.6971 78.3217 19.7378 78.2808L21.3738 76.6308L19.7378 74.9825C19.6971 74.9418 19.6648 74.8935 19.6427 74.8403C19.6207 74.7872 19.6094 74.7302 19.6094 74.6726C19.6094 74.615 19.6207 74.558 19.6427 74.5049C19.6648 74.4517 19.6971 74.4034 19.7378 74.3627C19.8215 74.2828 19.9328 74.2383 20.0486 74.2383C20.1643 74.2383 20.2756 74.2828 20.3594 74.3627L22.2975 76.3287C22.3154 76.3427 22.3318 76.3585 22.3464 76.3759V76.3899C22.3594 76.4097 22.3705 76.4308 22.3796 76.4527C22.3796 76.4527 22.3796 76.4527 22.3796 76.4667C22.3845 76.4877 22.3915 76.5082 22.4005 76.5278C22.4005 76.5278 22.4005 76.5278 22.4005 76.5487V76.5976C22.4005 76.5976 22.4005 76.6256 22.4005 76.6308C22.4005 76.6361 22.4005 76.6588 22.4005 76.6657V76.7216C22.4005 76.7216 22.4005 76.7216 22.4005 76.7356C22.4005 76.7495 22.3866 76.7827 22.3796 76.7967C22.3726 76.8107 22.3796 76.7967 22.3796 76.8176C22.3796 76.8386 22.3604 76.8595 22.3464 76.8875Z" fill="#EBEBEB"/>
<path d="M12.1152 102.966L26.0436 102.95L39.972 102.943L67.827 102.931L95.682 102.943L109.61 102.948L123.539 102.966L109.61 102.983L95.682 102.988L67.827 103.001L39.972 102.988L26.0436 102.983L12.1152 102.966Z" fill="#263238"/>
<path d="M112.49 39.2471H22.8105V93.4869H112.49V39.2471Z" fill="white"/>
<path d="M112.49 93.4865L22.81 93.5529H22.7454V93.4865L22.7227 39.2484V39.1611H22.81L112.49 39.1961H112.54V39.2484L112.49 93.4865ZM112.49 93.4865L112.439 39.2484L112.49 39.2991L22.81 39.334L22.8973 39.2484L22.8746 93.4865L22.81 93.4219L112.49 93.4865Z" fill="#C7C7C7"/>
<path d="M112.49 39.2471H22.8105V48.0839H112.49V39.2471Z" fill="black"/>
<path d="M28.3771 44.9902H26.5332V45.2975H28.3771V44.9902Z" fill="white"/>
<path d="M28.3771 46.3691H26.5332V46.6764H28.3771V46.3691Z" fill="white"/>
<path d="M28.3771 45.6875H26.5332V45.9948H28.3771V45.6875Z" fill="white"/>
<path opacity="0.1" d="M108.77 44.9639H91.4824V46.7047H108.77V44.9639Z" fill="black"/>
<path d="M108.77 44.9639H107.029V46.7047H108.77V44.9639Z" fill="white"/>
<path d="M108.451 46.3224L108.291 46.4446L107.987 46.05L107.877 45.9068C107.899 45.898 107.92 45.8863 107.94 45.8719C107.977 45.8439 108.006 45.8065 108.024 45.7637L108.139 45.9173L108.451 46.3224Z" fill="black"/>
<path d="M108.133 45.3942C108.082 45.3281 108.013 45.2779 107.934 45.2496C107.856 45.2213 107.771 45.216 107.689 45.2344C107.608 45.2528 107.533 45.2941 107.475 45.3535C107.416 45.4128 107.375 45.4877 107.358 45.5694C107.34 45.651 107.346 45.736 107.375 45.8143C107.404 45.8926 107.455 45.961 107.522 46.0114C107.588 46.0618 107.668 46.0921 107.751 46.0988C107.834 46.1054 107.918 46.0881 107.991 46.049C108.013 46.0378 108.033 46.025 108.053 46.0105C108.087 45.9836 108.118 45.9518 108.143 45.9163C108.198 45.8395 108.226 45.7474 108.224 45.6535C108.222 45.5596 108.19 45.4687 108.133 45.3942ZM107.944 45.8709C107.925 45.8852 107.904 45.8969 107.881 45.9058C107.822 45.9304 107.756 45.9326 107.696 45.9119C107.635 45.8912 107.584 45.849 107.553 45.7933C107.521 45.7377 107.511 45.6724 107.524 45.6098C107.538 45.5472 107.573 45.4916 107.625 45.4536C107.679 45.4125 107.747 45.3942 107.814 45.4023C107.882 45.4105 107.943 45.4445 107.986 45.4972C108.008 45.5245 108.023 45.5557 108.032 45.5891C108.041 45.6225 108.044 45.6574 108.039 45.6917C108.035 45.726 108.023 45.759 108.006 45.7889C107.988 45.8188 107.965 45.8449 107.937 45.8656L107.944 45.8709Z" fill="black"/>
<path d="M91.94 45.3066H91.8457V46.363H91.94V45.3066Z" fill="white"/>
<path d="M43.6669 46.7637H35.209V44.9023H43.6669V46.7637ZM35.3836 46.589H43.4923V45.077H35.3836V46.589Z" fill="white"/>
<path d="M53.7705 46.7637H45.3125V44.9023H53.7705V46.7637ZM45.4871 46.589H53.5958V45.077H45.4871V46.589Z" fill="white"/>
<path opacity="0.1" d="M63.7872 44.9902H55.5039V46.6787H63.7872V44.9902Z" fill="black"/>
<path d="M73.9775 46.7637H65.5195V44.9023H73.9775V46.7637ZM65.6941 46.589H73.8029V45.077H65.6941V46.589Z" fill="white"/>
<path d="M84.081 46.7637H75.623V44.9023H84.081V46.7637ZM75.7977 46.589H83.9064V45.077H75.7977V46.589Z" fill="white"/>
<path d="M112.49 39.2471H22.8105V40.6509H112.49V39.2471Z" fill="#37474F"/>
<path d="M23.9289 39.9488C23.9289 40.0179 23.9084 40.0854 23.87 40.1428C23.8317 40.2003 23.7771 40.245 23.7133 40.2715C23.6495 40.2979 23.5793 40.3048 23.5116 40.2913C23.4438 40.2779 23.3816 40.2446 23.3328 40.1958C23.2839 40.1469 23.2507 40.0847 23.2372 40.017C23.2237 39.9492 23.2306 39.879 23.2571 39.8152C23.2835 39.7514 23.3282 39.6968 23.3857 39.6585C23.4431 39.6201 23.5106 39.5996 23.5797 39.5996C23.6723 39.5996 23.7611 39.6364 23.8266 39.7019C23.8921 39.7674 23.9289 39.8562 23.9289 39.9488Z" fill="#C7C7C7"/>
<path d="M25.3488 39.9488C25.3488 40.0179 25.3283 40.0854 25.29 40.1428C25.2516 40.2003 25.1971 40.245 25.1332 40.2715C25.0694 40.2979 24.9992 40.3048 24.9315 40.2913C24.8637 40.2779 24.8015 40.2446 24.7527 40.1958C24.7038 40.1469 24.6706 40.0847 24.6571 40.017C24.6436 39.9492 24.6505 39.879 24.677 39.8152C24.7034 39.7514 24.7482 39.6968 24.8056 39.6585C24.863 39.6201 24.9305 39.5996 24.9996 39.5996C25.0922 39.5996 25.181 39.6364 25.2465 39.7019C25.312 39.7674 25.3488 39.8562 25.3488 39.9488Z" fill="white"/>
<path d="M26.7687 39.9488C26.7687 40.0179 26.7483 40.0854 26.7099 40.1428C26.6715 40.2003 26.617 40.245 26.5532 40.2715C26.4894 40.2979 26.4191 40.3048 26.3514 40.2913C26.2837 40.2779 26.2214 40.2446 26.1726 40.1958C26.1238 40.1469 26.0905 40.0847 26.077 40.017C26.0635 39.9492 26.0705 39.879 26.0969 39.8152C26.1233 39.7514 26.1681 39.6968 26.2255 39.6585C26.2829 39.6201 26.3505 39.5996 26.4195 39.5996C26.5121 39.5996 26.601 39.6364 26.6665 39.7019C26.7319 39.7674 26.7687 39.8562 26.7687 39.9488Z" fill="black"/>
<path d="M112.489 48.085H110.949V93.488H112.489V48.085Z" fill="#DBDBDB"/>
<path d="M111.718 63.8312C111.669 63.8348 111.62 63.8286 111.573 63.8129C111.527 63.7972 111.483 63.7724 111.446 63.7399C111.409 63.7074 111.379 63.6679 111.357 63.6236C111.336 63.5793 111.323 63.5312 111.32 63.482V48.6928C111.323 48.6437 111.336 48.5957 111.358 48.5516C111.38 48.5074 111.41 48.468 111.447 48.4355C111.484 48.4031 111.527 48.3783 111.573 48.3625C111.62 48.3467 111.669 48.3403 111.718 48.3436C111.768 48.3403 111.817 48.3467 111.863 48.3625C111.91 48.3783 111.953 48.4031 111.99 48.4355C112.027 48.468 112.057 48.5074 112.079 48.5516C112.101 48.5957 112.113 48.6437 112.117 48.6928V63.482C112.114 63.5312 112.101 63.5793 112.079 63.6236C112.058 63.6679 112.028 63.7074 111.99 63.7399C111.953 63.7724 111.91 63.7972 111.864 63.8129C111.817 63.8286 111.768 63.8348 111.718 63.8312Z" fill="#A6A6A6"/>
<path d="M26.5664 50.2773V56.9316H33.2207V50.2773H26.5664ZM27.0693 56.4287V50.7802H32.7178V56.4287H27.0693Z" fill="#EBEBEB"/>
<path d="M59.1112 51.3965H55.8164V54.6896H59.1112V51.3965Z" fill="black"/>
<path d="M87.8827 51.3965H84.5879V54.6896H87.8827V51.3965Z" fill="black"/>
<path d="M29.5995 68.2471H26.3047V71.5402H29.5995V68.2471Z" fill="black"/>
<path d="M103.699 85.2295V91.8838H110.353V85.2295H103.699ZM104.202 91.3809V85.7324H109.851V91.3809H104.202Z" fill="#EBEBEB"/>
<path d="M39.4964 69.8936H27.9531V72.0517H39.4964V69.8936Z" fill="#455A64"/>
<path d="M59.6722 73.1172H27.9531V73.9239H59.6722V73.1172Z" fill="#DBDBDB"/>
<path d="M59.6722 74.8906H27.9531V75.6973H59.6722V74.8906Z" fill="#DBDBDB"/>
<path d="M59.6722 76.665H27.9531V77.4717H59.6722V76.665Z" fill="#DBDBDB"/>
<path d="M59.6722 78.4395H27.9531V79.2461H59.6722V78.4395Z" fill="#DBDBDB"/>
<path d="M59.6722 80.2148H27.9531V81.0215H59.6722V80.2148Z" fill="#DBDBDB"/>
<path d="M69.0042 53.042H57.4609V55.2001H69.0042V53.042Z" fill="#455A64"/>
<path d="M81.1778 56.6875H57.4609V57.4942H81.1778V56.6875Z" fill="#DBDBDB"/>
<path d="M81.1778 58.4629H57.4609V59.2696H81.1778V58.4629Z" fill="#DBDBDB"/>
<path d="M81.1778 60.2363H57.4609V61.043H81.1778V60.2363Z" fill="#DBDBDB"/>
<path d="M81.1778 62.0117H57.4609V62.8184H81.1778V62.0117Z" fill="#DBDBDB"/>
<path d="M81.1778 64.3711H57.4609V65.1778H81.1778V64.3711Z" fill="#DBDBDB"/>
<path d="M81.1778 66.1475H57.4609V66.9541H81.1778V66.1475Z" fill="#DBDBDB"/>
<path d="M107.344 53.042H86.2344V55.2385H107.344V53.042Z" fill="#455A64"/>
<path d="M107.291 55.2588H86.293V89.6965H107.291V55.2588Z" fill="white"/>
<path d="M107.35 89.7514H86.2344V55.2002H107.35V89.7514ZM86.3514 89.6379H107.233V55.3137H86.3514V89.6379Z" fill="#DBDBDB"/>
<path d="M86.3463 89.7179L86.2363 89.6742L107.235 55.2383L107.343 55.2802L86.3463 89.7179Z" fill="#DBDBDB"/>
<path d="M107.235 89.7179L86.2363 55.2802L86.3463 55.2383L107.343 89.6742L107.235 89.7179Z" fill="#DBDBDB"/>
<path d="M43.7509 53.0811H18.5918V66.9152H43.7509V53.0811Z" fill="white"/>
<path d="M18.5547 66.9528V66.9178V53.0488H18.5879H43.7889V66.9528H43.747H18.5547ZM18.6333 53.1187V66.8812H43.7068V53.1169L18.6333 53.1187Z" fill="#DBDBDB"/>
<path d="M18.6348 53.1191C20.751 54.2279 22.8533 55.3628 24.9538 56.4978L31.2396 59.9183L37.494 63.3755L40.6108 65.1216L43.7135 66.8816L40.5479 65.2019L37.3945 63.4995L31.1087 60.079L24.856 56.62C22.7799 55.4606 20.6986 54.2995 18.6348 53.1191Z" fill="#DBDBDB"/>
<path d="M43.7126 53.1191C41.6505 54.2995 39.5727 55.4606 37.4931 56.6113L31.2387 60.0702L24.9529 63.4908L21.8099 65.188L18.6426 66.8677L21.7314 65.1164L24.8481 63.3703L31.1025 59.9131L37.3884 56.4925C39.4941 55.3628 41.5964 54.2279 43.7126 53.1191Z" fill="#DBDBDB"/>
<path d="M30.9082 86.6584V96.3857H82.2443V86.6584H30.9082Z" fill="white"/>
<path d="M82.3293 86.6299V96.4079H30.8203V86.6299H82.3293ZM82.1547 96.359V86.684H30.9862V96.359H82.1547Z" fill="black"/>
<path d="M82.274 96.3609L82.2094 96.4098L30.875 86.6825L30.9379 86.6318L82.274 96.3609Z" fill="black"/>
<path d="M82.274 86.6825L30.9379 96.4098L30.875 96.3609L82.2094 86.6318L82.274 86.6825Z" fill="black"/>
<path d="M63.4269 81.0762H80.3848V70.2733H63.4269V81.0762Z" fill="black"/>
<path d="M62.704 82.0712H62.3984V81.7656H62.4857V81.9839H62.704V82.0712Z" fill="#263238"/>
<path d="M80.5712 82.0713H80.0474V81.9893H80.5712V82.0713ZM79.5236 82.0713H78.9998V81.9893H79.5236V82.0713ZM78.4759 82.0713H77.9521V81.9893H78.4759V82.0713ZM77.4283 82.0713H76.9045V81.9893H77.4283V82.0713ZM76.3807 82.0713H75.8568V81.9893H76.3807V82.0713ZM75.333 82.0713H74.8092V81.9893H75.333V82.0713ZM74.2854 82.0713H73.7616V81.9893H74.2854V82.0713ZM73.2377 82.0713H72.7139V81.9893H73.2377V82.0713ZM72.1901 82.0713H71.6663V81.9893H72.1901V82.0713ZM71.1425 82.0713H70.6186V81.9893H71.1425V82.0713ZM70.0948 82.0713H69.571V81.9893H70.0948V82.0713ZM69.0472 82.0713H68.5234V81.9893H69.0472V82.0713ZM67.9995 82.0713H67.4757V81.9893H67.9995V82.0713ZM66.9519 82.0713H66.4281V81.9893H66.9519V82.0713ZM65.9043 82.0713H65.3804V81.9893H65.9043V82.0713ZM64.8566 82.0713H64.3328V81.9893H64.8566V82.0713ZM63.809 82.0713H63.2852V81.9893H63.809V82.0713Z" fill="#263238"/>
<path d="M81.4091 82.0712H81.1035V81.9839H81.3218V81.7656H81.4091V82.0712Z" fill="#263238"/>
<path d="M81.4096 81.2371H81.3223V80.7133H81.4096V81.2371ZM81.4096 80.1773H81.3223V79.6534H81.4096V80.1773ZM81.4096 79.1174H81.3223V78.5936H81.4096V79.1174ZM81.4096 78.0593H81.3223V77.5355H81.4096V78.0593ZM81.4096 76.9994H81.3223V76.4756H81.4096V76.9994ZM81.4096 75.9396H81.3223V75.4157H81.4096V75.9396ZM81.4096 74.8797H81.3223V74.3559H81.4096V74.8797ZM81.4096 73.8198H81.3223V73.296H81.4096V73.8198ZM81.4096 72.7617H81.3223V72.2379H81.4096V72.7617ZM81.4096 71.7018H81.3223V71.178H81.4096V71.7018ZM81.4096 70.642H81.3223V70.1182H81.4096V70.642Z" fill="#263238"/>
<path d="M81.4091 69.5819H81.3218V69.3637H81.1035V69.2764H81.4091V69.5819Z" fill="#263238"/>
<path d="M80.5712 69.3637H80.0474V69.2764H80.5712V69.3637ZM79.5236 69.3637H78.9998V69.2764H79.5236V69.3637ZM78.4759 69.3637H77.9521V69.2764H78.4759V69.3637ZM77.4283 69.3637H76.9045V69.2764H77.4283V69.3637ZM76.3807 69.3637H75.8568V69.2764H76.3807V69.3637ZM75.333 69.3637H74.8092V69.2764H75.333V69.3637ZM74.2854 69.3637H73.7616V69.2764H74.2854V69.3637ZM73.2377 69.3637H72.7139V69.2764H73.2377V69.3637ZM72.1901 69.3637H71.6663V69.2764H72.1901V69.3637ZM71.1425 69.3637H70.6186V69.2764H71.1425V69.3637ZM70.0948 69.3637H69.571V69.2764H70.0948V69.3637ZM69.0472 69.3637H68.5234V69.2764H69.0472V69.3637ZM67.9995 69.3637H67.4757V69.2764H67.9995V69.3637ZM66.9519 69.3637H66.4281V69.2764H66.9519V69.3637ZM65.9043 69.3637H65.3804V69.2764H65.9043V69.3637ZM64.8566 69.3637H64.3328V69.2764H64.8566V69.3637ZM63.809 69.3637H63.2852V69.2764H63.809V69.3637Z" fill="#263238"/>
<path d="M62.4857 69.5819H62.3984V69.2764H62.704V69.3637H62.4857V69.5819Z" fill="#263238"/>
<path d="M62.4857 81.2371H62.3984V80.7133H62.4857V81.2371ZM62.4857 80.1773H62.3984V79.6534H62.4857V80.1773ZM62.4857 79.1174H62.3984V78.5936H62.4857V79.1174ZM62.4857 78.0593H62.3984V77.5355H62.4857V78.0593ZM62.4857 76.9994H62.3984V76.4756H62.4857V76.9994ZM62.4857 75.9396H62.3984V75.4157H62.4857V75.9396ZM62.4857 74.8797H62.3984V74.3559H62.4857V74.8797ZM62.4857 73.8198H62.3984V73.296H62.4857V73.8198ZM62.4857 72.7617H62.3984V72.2379H62.4857V72.7617ZM62.4857 71.7018H62.3984V71.178H62.4857V71.7018ZM62.4857 70.642H62.3984V70.1182H62.4857V70.642Z" fill="#263238"/>
<g opacity="0.1">
<path d="M69.0195 78.749H80.3829L74.7012 74.0469L69.0195 78.749Z" fill="white"/>
</g>
<path d="M63.4258 78.753H73.5023L68.4649 75.6904L63.4258 78.753Z" fill="black"/>
<g opacity="0.2">
<path d="M63.4238 78.753H73.5004L68.463 75.6904L63.4238 78.753Z" fill="white"/>
</g>
<path d="M80.3836 78.748H63.4258V81.0756H80.3836V78.748Z" fill="black"/>
<g opacity="0.2">
<path d="M80.3816 78.748H63.4238V81.0756H80.3816V78.748Z" fill="black"/>
</g>
<path opacity="0.1" d="M66.4492 74.792C67.3133 74.792 68.0137 74.0916 68.0137 73.2276C68.0137 72.3635 67.3133 71.6631 66.4492 71.6631C65.5852 71.6631 64.8848 72.3635 64.8848 73.2276C64.8848 74.0916 65.5852 74.792 66.4492 74.792Z" fill="black"/>
<path d="M62.9924 68.7695H61.8906V69.8713H62.9924V68.7695Z" fill="#263238"/>
<path d="M62.9924 81.4766H61.8906V82.5783H62.9924V81.4766Z" fill="#263238"/>
<path d="M62.8363 75.2803H62.0488V76.0678H62.8363V75.2803Z" fill="#263238"/>
<path d="M72.2992 68.9268H71.5117V69.7142H72.2992V68.9268Z" fill="#263238"/>
<path d="M72.2992 81.6357H71.5117V82.4232H72.2992V81.6357Z" fill="#263238"/>
<path d="M81.7621 75.2803H80.9746V76.0678H81.7621V75.2803Z" fill="#263238"/>
<path d="M81.9143 68.7695H80.8125V69.8713H81.9143V68.7695Z" fill="#263238"/>
<path d="M81.9143 81.4766H80.8125V82.5783H81.9143V81.4766Z" fill="#263238"/>
<path d="M83.5177 86.0993L84.3436 88.0916L83.5194 88.432L82.6901 86.4276L81.3281 87.4839V81.8721L85.2568 85.8409L83.5177 86.0993Z" fill="#263238"/>
<path d="M81.3747 81.1266C81.3146 81.012 81.2846 80.8841 81.2874 80.7547C81.2837 80.6253 81.3138 80.4971 81.3747 80.3828C81.4321 80.4984 81.462 80.6257 81.462 80.7547C81.462 80.8838 81.4321 81.0111 81.3747 81.1266Z" fill="#263238"/>
<path d="M80.7363 81.3918C80.6127 81.3535 80.501 81.2844 80.4115 81.191C80.3185 81.1009 80.249 80.9894 80.209 80.8662C80.3327 80.904 80.4446 80.9732 80.5338 81.067C80.6272 81.1568 80.6968 81.2684 80.7363 81.3918Z" fill="#263238"/>
<path d="M80.4704 82.0328C80.3558 82.0929 80.2278 82.1229 80.0985 82.1201C79.969 82.1238 79.8408 82.0937 79.7266 82.0328C79.8412 81.9727 79.9691 81.9427 80.0985 81.9455C80.2277 81.9435 80.3555 81.9735 80.4704 82.0328Z" fill="#263238"/>
<path d="M80.7363 82.6738C80.6968 82.7972 80.6272 82.9088 80.5338 82.9986C80.4446 83.0924 80.3327 83.1616 80.209 83.1994C80.249 83.0762 80.3185 82.9647 80.4115 82.8746C80.501 82.7812 80.6127 82.7121 80.7363 82.6738Z" fill="#263238"/>
<path d="M82.2832 82.0328C82.3981 81.9735 82.5258 81.9435 82.6551 81.9455C82.7845 81.9427 82.9124 81.9727 83.027 82.0328C82.9127 82.0937 82.7846 82.1238 82.6551 82.1201C82.5258 82.1229 82.3978 82.0929 82.2832 82.0328Z" fill="#263238"/>
<path d="M82.0176 81.392C82.0584 81.2701 82.127 81.1594 82.2179 81.0685C82.3088 80.9776 82.4195 80.909 82.5414 80.8682C82.5005 80.99 82.432 81.1008 82.3411 81.1917C82.2502 81.2826 82.1395 81.3511 82.0176 81.392Z" fill="#263238"/>
</svg>
