<svg width="193" height="193" viewBox="0 0 193 193" fill="none" xmlns="http://www.w3.org/2000/svg">
<circle cx="96.5" cy="96.5" r="96.5" fill="#FED631"/>
<path d="M166.926 73.8541L169.735 69.3511L168.348 68.4922C168.151 68.3674 167.993 68.1904 167.892 67.9811C167.79 67.7717 167.748 67.5383 167.772 67.3067C167.794 67.0503 167.803 66.7928 167.799 66.5354C167.79 66.3004 167.846 66.0675 167.962 65.8628C168.078 65.6582 168.249 65.4899 168.455 65.3768L169.883 64.6089L167.378 59.9375L165.95 60.7054C165.749 60.8144 165.521 60.8655 165.293 60.853C165.065 60.8405 164.844 60.765 164.656 60.6347C164.425 60.4739 164.186 60.3255 163.939 60.1901C163.738 60.0797 163.572 59.9158 163.458 59.7167C163.345 59.5176 163.288 59.2909 163.296 59.0618L163.346 57.4385L158.052 57.2734L158.001 58.9035C157.994 59.133 157.923 59.3559 157.796 59.5474C157.669 59.7389 157.492 59.8915 157.284 59.988C157.159 60.0453 157.038 60.1093 156.917 60.1733C156.795 60.2373 156.674 60.308 156.556 60.3787C156.361 60.4985 156.137 60.5618 155.908 60.5618C155.679 60.5618 155.455 60.4985 155.26 60.3787L153.872 59.5199L151.08 64.0229L152.471 64.8851C152.666 65.0104 152.822 65.1871 152.923 65.3957C153.024 65.6042 153.066 65.8366 153.043 66.0673C153.021 66.3248 153.012 66.5834 153.016 66.8419C153.024 67.0763 152.967 67.3084 152.851 67.5123C152.735 67.7162 152.565 67.884 152.36 67.9971L150.932 68.765L153.434 73.4331L154.865 72.6685C155.073 72.5591 155.308 72.5097 155.542 72.5258C155.776 72.5418 156.001 72.6227 156.192 72.7595C156.404 72.9068 156.623 73.0428 156.849 73.167C157.056 73.2736 157.229 73.4362 157.348 73.6363C157.467 73.8364 157.528 74.0659 157.523 74.2987L157.472 75.9355L162.77 76.1005L162.821 74.4738C162.83 74.2418 162.904 74.017 163.034 73.8244C163.163 73.6318 163.344 73.4788 163.555 73.3826C163.673 73.3253 163.791 73.268 163.909 73.2041C164.026 73.1401 164.138 73.0761 164.245 73.0121C164.444 72.8892 164.672 72.8241 164.905 72.8241C165.139 72.8241 165.367 72.8892 165.566 73.0121L166.926 73.8541ZM162.925 70.2099C162.188 70.7397 161.304 71.0254 160.397 71.0267C159.489 71.028 158.604 70.7449 157.866 70.2171C157.127 69.6894 156.573 68.9436 156.281 68.0845C155.988 67.2254 155.972 66.2963 156.235 65.4277C156.498 64.5591 157.027 63.7948 157.746 63.2421C158.466 62.6894 159.341 62.3761 160.248 62.3463C161.155 62.3166 162.048 62.5718 162.803 63.0761C163.557 63.5804 164.135 64.3084 164.454 65.1579C164.79 66.0509 164.823 67.0299 164.546 67.9432C164.27 68.8565 163.7 69.6532 162.925 70.2099Z" fill="#EBEBEB"/>
<path d="M28.1216 115.469C28.2621 115.553 28.3769 115.673 28.453 115.818C28.5291 115.962 28.5636 116.125 28.5527 116.288C28.5527 116.379 28.5527 116.47 28.5527 116.561C28.5527 116.652 28.5527 116.746 28.5527 116.837C28.5637 116.999 28.5295 117.161 28.454 117.305C28.3785 117.449 28.2646 117.569 28.125 117.652L27.1348 118.231L28.9905 121.448L29.9639 120.878C30.106 120.797 30.2681 120.757 30.4318 120.763C30.5955 120.769 30.7543 120.82 30.8901 120.912C31.0445 121.013 31.2041 121.105 31.3683 121.188C31.5141 121.262 31.6368 121.374 31.723 121.512C31.8092 121.65 31.8554 121.81 31.8567 121.973V123.108H35.5615V121.973C35.5659 121.809 35.6157 121.649 35.7055 121.512C35.7953 121.375 35.9215 121.265 36.0701 121.195C36.2343 121.112 36.3939 121.019 36.5483 120.919C36.6841 120.827 36.8429 120.775 37.0066 120.769C37.1703 120.764 37.3324 120.804 37.4745 120.885L38.4613 121.454L40.3171 118.238L39.3269 117.665C39.1864 117.583 39.0716 117.463 38.9954 117.319C38.9192 117.175 38.8847 117.013 38.8958 116.85C38.8958 116.759 38.8958 116.669 38.8958 116.578C38.8958 116.487 38.8958 116.396 38.8958 116.305C38.8817 116.139 38.9146 115.973 38.9909 115.825C39.0672 115.677 39.1836 115.554 39.3269 115.469L40.3171 114.9L38.4613 111.684L37.4779 112.253C37.3359 112.334 37.174 112.375 37.0105 112.369C36.8469 112.364 36.6881 112.313 36.5517 112.223C36.3962 112.121 36.2354 112.028 36.0701 111.943C35.9243 111.87 35.8016 111.758 35.7154 111.62C35.6292 111.481 35.583 111.322 35.5817 111.158V110.023H31.8769V111.158C31.8756 111.322 31.8294 111.481 31.7432 111.62C31.657 111.758 31.5343 111.87 31.3885 111.943C31.2232 112.028 31.0624 112.121 30.9069 112.223C30.7705 112.313 30.6117 112.364 30.4481 112.369C30.2846 112.375 30.1227 112.334 29.9807 112.253L28.9973 111.684L27.1415 114.9L28.1216 115.469ZM33.7259 113.519C34.3254 113.519 34.9115 113.697 35.41 114.03C35.9085 114.363 36.297 114.837 36.5264 115.391C36.7558 115.945 36.8158 116.554 36.6989 117.142C36.5819 117.73 36.2932 118.27 35.8693 118.694C35.4454 119.118 34.9053 119.407 34.3173 119.524C33.7293 119.641 33.1198 119.58 32.5659 119.351C32.0121 119.122 31.5387 118.733 31.2056 118.235C30.8725 117.736 30.6947 117.15 30.6947 116.551C30.6974 115.748 31.0179 114.98 31.5861 114.414C32.1543 113.847 32.9238 113.53 33.7259 113.53V113.519Z" fill="#EBEBEB"/>
<path d="M144.161 56.2537L143.08 51.6295L141.655 51.9663C141.452 52.0121 141.24 52.0004 141.043 51.9326C140.847 51.8648 140.672 51.7435 140.541 51.5823C140.393 51.4043 140.234 51.2356 140.066 51.0771C139.912 50.9331 139.801 50.7492 139.745 50.5459C139.689 50.3426 139.69 50.1278 139.749 49.9253L140.167 48.5343L135.62 47.1602L135.199 48.5545C135.141 48.751 135.03 48.9276 134.878 49.0644C134.726 49.2013 134.538 49.2929 134.337 49.3291C134.088 49.3728 133.842 49.4302 133.599 49.5009C133.402 49.5591 133.192 49.5609 132.994 49.5062C132.796 49.4514 132.617 49.3423 132.478 49.1911L131.467 48.1335L128.008 51.3836L129.019 52.4479C129.159 52.5981 129.255 52.7843 129.296 52.9859C129.338 53.1875 129.322 53.3965 129.251 53.5897C129.211 53.7075 129.17 53.8221 129.133 53.9265C129.096 54.0309 129.066 54.1656 129.039 54.2835C128.99 54.483 128.887 54.6653 128.742 54.8103C128.596 54.9552 128.413 55.0573 128.214 55.1053L126.789 55.4421L127.874 60.0663L129.302 59.7295C129.505 59.6845 129.717 59.6969 129.914 59.7652C130.111 59.8336 130.285 59.9554 130.416 60.1168C130.565 60.2933 130.722 60.4619 130.888 60.622C131.042 60.7653 131.153 60.9486 131.209 61.1514C131.265 61.3542 131.263 61.5686 131.205 61.7705L130.784 63.1615L135.33 64.5356L135.751 63.1413C135.814 62.9407 135.932 62.7615 136.091 62.6236C136.249 62.4857 136.443 62.3944 136.651 62.3599C136.878 62.3191 137.103 62.2663 137.324 62.2016C137.523 62.1397 137.735 62.1343 137.937 62.186C138.138 62.2378 138.322 62.3446 138.466 62.4946L139.476 63.5657L142.939 60.3122L141.928 59.2513C141.788 59.0972 141.693 58.9078 141.653 58.7035C141.614 58.4992 141.631 58.288 141.703 58.0927C141.743 57.9815 141.78 57.8704 141.814 57.7559C141.847 57.6414 141.878 57.5302 141.908 57.4191C141.954 57.2147 142.056 57.0272 142.203 56.8778C142.35 56.7285 142.536 56.6231 142.74 56.5737L144.161 56.2537ZM139.318 56.4794C139.186 57.2814 138.806 58.0218 138.232 58.5969C137.658 59.1719 136.918 59.5526 136.116 59.6856C135.314 59.8185 134.491 59.6969 133.762 59.338C133.032 58.979 132.434 58.4007 132.05 57.6842C131.667 56.9678 131.517 56.1491 131.622 55.3432C131.728 54.5374 132.083 53.7848 132.638 53.1911C133.193 52.5975 133.92 52.1926 134.717 52.0333C135.514 51.874 136.341 51.9684 137.082 52.3031C137.862 52.6559 138.505 53.2564 138.909 54.0116C139.313 54.7667 139.457 55.6342 139.318 56.4794Z" fill="#EBEBEB"/>
<path d="M77.1124 65.9629C79.1105 53.5164 70.6404 41.8068 58.1939 39.8087C45.7474 37.8107 34.0377 46.2808 32.0397 58.7273C30.0416 71.1738 38.5118 82.8834 50.9582 84.8815C63.4047 86.8795 75.1144 78.4094 77.1124 65.9629Z" fill="#EBEBEB"/>
<path d="M55.6212 84.6272C67.6486 84.6272 77.3987 74.8771 77.3987 62.8497C77.3987 50.8224 67.6486 41.0723 55.6212 41.0723C43.5939 41.0723 33.8438 50.8224 33.8438 62.8497C33.8438 74.8771 43.5939 84.6272 55.6212 84.6272Z" fill="#DBDBDB"/>
<path d="M55.6221 83.2539C66.8905 83.2539 76.0254 74.119 76.0254 62.8506C76.0254 51.5821 66.8905 42.4473 55.6221 42.4473C44.3536 42.4473 35.2188 51.5821 35.2188 62.8506C35.2188 74.119 44.3536 83.2539 55.6221 83.2539Z" fill="white"/>
<path opacity="0.5" d="M75.5639 58.5223C66.2716 64.1503 51.0011 73.3853 42.4666 78.4474C40.0537 76.4132 38.1456 73.8468 36.8926 70.9502L65.1198 44.791C67.7565 46.1799 70.0576 48.1286 71.8618 50.5006C73.6659 52.8726 74.9295 55.6105 75.5639 58.5223Z" fill="#EBEBEB"/>
<path opacity="0.5" d="M76.0088 63.5645C75.9347 65.8338 75.4793 68.0745 74.6616 70.1927L49.2131 82.2299C48.1045 81.8623 47.0296 81.4003 46 80.849C53.6891 76.3999 67.7337 68.3167 76.0088 63.5645Z" fill="#EBEBEB"/>
<path d="M55.8179 43.9297H55.4238V47.0215H55.8179V43.9297Z" fill="#C7C7C7"/>
<path d="M46.3295 46.3635L45.9883 46.5605L47.5342 49.2381L47.8755 49.0411L46.3295 46.3635Z" fill="#C7C7C7"/>
<path d="M39.3318 53.2193L39.1348 53.5605L41.8124 55.1065L42.0094 54.7652L39.3318 53.2193Z" fill="#C7C7C7"/>
<path d="M39.791 62.6562H36.6992V63.0503H39.791V62.6562Z" fill="#C7C7C7"/>
<path d="M41.8124 70.6025L39.1348 72.1484L39.3318 72.4897L42.0094 70.9438L41.8124 70.6025Z" fill="#C7C7C7"/>
<path d="M47.5328 76.4661L45.9883 79.1445L46.3296 79.3414L47.8742 76.663L47.5328 76.4661Z" fill="#C7C7C7"/>
<path d="M55.8179 78.6797H55.4238V81.7715H55.8179V78.6797Z" fill="#C7C7C7"/>
<path d="M63.7026 76.4651L63.3613 76.6621L64.9072 79.3397L65.2485 79.1427L63.7026 76.4651Z" fill="#C7C7C7"/>
<path d="M69.4255 70.5943L69.2285 70.9355L71.9061 72.4815L72.1031 72.1402L69.4255 70.5943Z" fill="#C7C7C7"/>
<path d="M74.543 62.6562H71.4512V63.0503H74.543V62.6562Z" fill="#C7C7C7"/>
<path d="M71.9081 53.2256L69.2305 54.7715L69.4275 55.1127L72.1051 53.5668L71.9081 53.2256Z" fill="#C7C7C7"/>
<path d="M64.9097 46.3665L63.3652 49.0449L63.7066 49.2418L65.2511 46.5634L64.9097 46.3665Z" fill="#C7C7C7"/>
<path d="M55.9173 45.331L56.5875 64.2288L54.6543 64.2052L55.3919 45.3242L55.9173 45.331Z" fill="#C7C7C7"/>
<path d="M67.6878 56.2636L54.9736 64.3771L54.0508 62.6763L67.4386 55.7988L67.6878 56.2636Z" fill="#A6A6A6"/>
<path d="M56.2827 62.8513C56.2827 62.9846 56.2432 63.1148 56.1692 63.2256C56.0952 63.3363 55.99 63.4227 55.8669 63.4737C55.7438 63.5246 55.6084 63.538 55.4777 63.512C55.3471 63.486 55.227 63.4218 55.1328 63.3276C55.0386 63.2334 54.9745 63.1134 54.9485 62.9827C54.9225 62.8521 54.9358 62.7166 54.9868 62.5936C55.0378 62.4705 55.1241 62.3653 55.2349 62.2913C55.3457 62.2172 55.4759 62.1777 55.6091 62.1777C55.7878 62.1777 55.9591 62.2487 56.0855 62.375C56.2118 62.5014 56.2827 62.6727 56.2827 62.8513Z" fill="#C7C7C7"/>
<path d="M154.096 124.33C154.096 124.33 148.821 123.134 145.931 120.47C143.042 117.806 141.445 113.037 141.445 113.037C143.449 113.422 145.425 113.942 147.36 114.593C148.084 115.338 148.688 116.191 149.148 117.122C149.192 116.52 149.192 115.916 149.148 115.314C149.822 115.606 150.454 115.989 151.024 116.452C153.419 118.551 154.096 124.33 154.096 124.33Z" fill="#DBDBDB"/>
<path d="M144.719 115.358C144.001 114.86 143.27 114.382 142.553 113.88C142.544 113.874 142.537 113.865 142.534 113.854C142.532 113.843 142.534 113.832 142.539 113.822C142.545 113.813 142.555 113.806 142.565 113.804C142.576 113.801 142.587 113.803 142.597 113.809C143.944 114.621 145.291 115.493 146.591 116.396C147.042 116.712 147.487 117.042 147.938 117.379L147.847 117.221C147.689 116.958 147.511 116.695 147.356 116.436C147.024 115.908 146.649 115.409 146.234 114.944C146.234 114.927 146.234 114.9 146.261 114.917C146.672 115.392 147.083 115.86 147.457 116.362C147.635 116.601 147.794 116.85 147.959 117.103C148.039 117.234 148.12 117.366 148.194 117.5L148.275 117.635C148.949 118.171 149.622 118.73 150.252 119.319C150.643 119.683 151.02 120.063 151.387 120.451C151.182 119.814 151.003 119.167 150.767 118.541C150.767 118.537 150.769 118.532 150.772 118.529C150.776 118.526 150.78 118.524 150.784 118.524C150.789 118.524 150.793 118.526 150.796 118.529C150.799 118.532 150.801 118.537 150.801 118.541C151.03 119.215 151.283 119.861 151.475 120.538C151.879 120.976 152.263 121.427 152.627 121.885C152.623 121.856 152.617 121.827 152.61 121.798C152.549 121.552 152.488 121.303 152.421 121.057C152.293 120.579 152.152 120.104 151.99 119.639C151.687 118.667 151.208 117.759 150.575 116.961C150.575 116.945 150.575 116.921 150.599 116.938C151.588 118.169 152.28 119.612 152.62 121.155C152.676 121.379 152.73 121.604 152.782 121.828C152.808 121.946 152.839 122.067 152.859 122.192C153.021 122.407 153.176 122.623 153.324 122.849C154.224 124.223 154.972 125.691 155.557 127.227C156.213 128.951 156.775 130.71 157.241 132.495C157.241 132.502 157.238 132.509 157.233 132.514C157.228 132.519 157.221 132.522 157.214 132.522C157.207 132.522 157.2 132.519 157.195 132.514C157.19 132.509 157.187 132.502 157.187 132.495C156.153 129.41 155.102 126.277 153.337 123.522C152.963 122.94 152.559 122.377 152.131 121.838C151.258 121.782 150.397 121.611 149.568 121.33C148.663 121.025 147.8 120.607 146.999 120.087C146.542 119.78 146.102 119.448 145.682 119.093C145.662 119.077 145.682 119.05 145.702 119.066C146.439 119.659 147.252 120.151 148.12 120.528C148.973 120.919 149.865 121.218 150.781 121.421C151.168 121.505 151.566 121.569 151.96 121.623C151.472 121.021 150.952 120.446 150.404 119.898C150.225 119.72 150.043 119.561 149.858 119.38C149.244 118.95 148.592 118.576 147.911 118.261C147.046 117.844 146.197 117.403 145.342 116.968C144.857 116.722 144.378 116.47 143.893 116.234C143.873 116.234 143.893 116.194 143.91 116.204C144.779 116.621 145.658 117.012 146.534 117.413C147.356 117.79 148.188 118.171 148.979 118.612L149.08 118.672C148.366 118.049 147.625 117.46 146.867 116.887C146.158 116.369 145.442 115.859 144.719 115.358Z" fill="#A6A6A6"/>
<path d="M145.017 118.076C145.448 118.265 145.883 118.43 146.307 118.628C146.732 118.827 147.159 119.073 147.574 119.302C147.578 119.304 147.581 119.308 147.582 119.312C147.583 119.317 147.582 119.322 147.58 119.326C147.578 119.33 147.574 119.333 147.57 119.334C147.565 119.335 147.561 119.335 147.557 119.332C147.136 119.13 146.711 118.942 146.294 118.733C145.876 118.524 145.445 118.288 145.007 118.096C144.987 118.1 144.997 118.066 145.017 118.076Z" fill="#A6A6A6"/>
<path d="M171.225 97.7578C170.25 99.0144 169.699 100.547 169.648 102.136C169.632 102.608 169.706 103.268 169.76 104.042C168.442 104.804 167.276 105.801 166.317 106.983C167.371 106.372 168.58 106.082 169.797 106.151C169.767 106.68 169.7 107.207 169.594 107.727C168.827 107.726 168.067 107.876 167.358 108.168C168.052 108.16 168.741 108.296 169.379 108.569C168.439 111.56 165.644 114.631 157.928 115.935C157.112 112.269 157.595 108.433 159.295 105.083C161.606 100.536 171.225 97.7578 171.225 97.7578Z" fill="#DBDBDB"/>
<path d="M155.252 128.733C155.383 127.456 155.552 126.18 155.75 124.913C156.141 122.371 156.66 119.849 157.306 117.359C157.609 116.191 157.981 115.043 158.421 113.92C158.398 113.715 158.388 113.508 158.391 113.301C158.391 113.055 158.391 112.809 158.391 112.56C158.391 112.068 158.421 111.573 158.462 111.081C158.541 110.105 158.699 109.138 158.937 108.188C159.078 107.639 159.24 107.097 159.401 106.554C159.401 106.55 159.403 106.546 159.406 106.543C159.409 106.539 159.414 106.538 159.418 106.538C159.423 106.538 159.427 106.539 159.43 106.543C159.433 106.546 159.435 106.55 159.435 106.554C159.18 107.503 158.99 108.467 158.866 109.441C158.729 110.401 158.642 111.368 158.607 112.337C158.607 112.6 158.607 112.866 158.607 113.132C158.607 113.243 158.607 113.358 158.607 113.469C158.984 112.545 159.419 111.645 159.907 110.775C160.689 109.395 161.572 108.075 162.547 106.824C162.549 106.678 162.569 106.533 162.608 106.393C162.645 106.221 162.682 106.056 162.722 105.878C162.799 105.525 162.886 105.175 162.985 104.827C163.177 104.126 163.429 103.453 163.659 102.762C163.659 102.758 163.66 102.753 163.663 102.75C163.667 102.747 163.671 102.745 163.675 102.745C163.68 102.745 163.684 102.747 163.687 102.75C163.69 102.753 163.692 102.758 163.692 102.762C163.49 103.436 163.355 104.153 163.197 104.847C163.12 105.184 163.046 105.521 162.968 105.881L162.857 106.396C162.859 106.41 162.859 106.423 162.857 106.437C163.17 106.043 163.487 105.655 163.813 105.275C165.285 103.547 166.902 101.95 168.529 100.371C168.727 100.176 168.933 99.9869 169.135 99.7949L169.158 99.8185C167.606 101.442 166.077 103.079 164.628 104.796C164.292 105.204 163.955 105.615 163.618 106.036C163.793 105.915 163.955 105.8 164.144 105.699C164.591 105.406 165.046 105.12 165.514 104.857C165.982 104.594 166.454 104.338 166.936 104.099C167.417 103.86 167.946 103.655 168.438 103.378C168.458 103.378 168.475 103.402 168.455 103.409C167.967 103.634 167.496 103.895 167.047 104.19C166.579 104.466 166.107 104.749 165.649 105.042C165.191 105.335 164.74 105.611 164.302 105.904C163.925 106.147 163.557 106.413 163.167 106.639C162.255 107.791 161.411 108.997 160.641 110.249C160.174 111.035 159.748 111.845 159.364 112.674L159.64 112.553L160.348 112.24C160.802 112.038 161.257 111.842 161.712 111.644C162.577 111.266 163.456 110.923 164.305 110.509C164.784 110.284 165.248 110.029 165.693 109.744C165.713 109.744 165.73 109.761 165.71 109.774C164.13 110.866 162.342 111.633 160.604 112.408L159.846 112.745C159.637 112.836 159.428 112.94 159.213 113.021C158.695 114.18 158.259 115.374 157.909 116.594C157.217 119.051 156.655 121.542 156.225 124.058C155.784 126.577 155.484 129.11 155.255 131.663C155.225 131.979 155.195 132.296 155.161 132.616C155.161 132.643 155.15 132.669 155.131 132.687C155.113 132.706 155.087 132.717 155.06 132.717C155.033 132.717 155.008 132.706 154.989 132.687C154.97 132.669 154.959 132.643 154.959 132.616C154.986 131.299 155.121 130.019 155.252 128.733Z" fill="#A6A6A6"/>
<path d="M159.949 107.428C160.09 106.643 160.286 105.878 160.511 105.111C160.511 105.106 160.513 105.102 160.516 105.099C160.519 105.096 160.524 105.094 160.528 105.094C160.533 105.094 160.537 105.096 160.54 105.099C160.543 105.102 160.545 105.106 160.545 105.111C160.35 105.865 160.208 106.633 160.07 107.397C159.932 108.162 159.797 108.96 159.686 109.755H159.666C159.716 108.975 159.811 108.198 159.949 107.428Z" fill="#A6A6A6"/>
<path d="M163.271 109.554C163.81 109.201 164.373 108.886 164.955 108.611C165.235 108.463 165.521 108.325 165.804 108.187C166.087 108.049 166.403 107.927 166.693 107.779C166.716 107.779 166.733 107.803 166.713 107.813C166.43 107.954 166.161 108.126 165.885 108.278L165.019 108.732C164.453 109.036 163.901 109.369 163.308 109.615C163.301 109.614 163.294 109.612 163.289 109.609C163.283 109.605 163.278 109.6 163.274 109.594C163.27 109.588 163.268 109.581 163.268 109.574C163.267 109.568 163.268 109.561 163.271 109.554Z" fill="#A6A6A6"/>
<path opacity="0.1" d="M153.997 115.197C153.997 115.197 149.12 114.031 146.881 110.758C144.738 107.632 144.048 102.304 143.994 101.836C144.082 102.267 145.089 106.922 148.41 109.091C150.952 110.754 153.411 112.118 153.997 115.197Z" fill="#A6A6A6"/>
<path d="M149.493 106.765C150.361 107.563 150.985 108.591 151.292 109.729C150.932 108.619 150.312 107.611 149.483 106.789C149.453 106.775 149.477 106.748 149.493 106.765Z" fill="#A6A6A6"/>
<path d="M153.998 115.195C153.998 115.195 149.121 114.03 146.882 110.756C144.739 107.631 144.049 102.303 143.995 101.834C143.994 101.823 143.994 101.812 143.995 101.801C143.995 101.801 146.336 105.128 148.795 105.977C151.253 106.826 154.705 109.759 153.998 115.195Z" fill="#DBDBDB"/>
<path d="M144.853 103.638C145.29 104.534 145.795 105.397 146.362 106.218C146.936 106.997 147.616 107.692 148.383 108.282C149.056 108.808 149.73 109.293 150.404 109.801L150.387 109.778C150.262 109.589 150.127 109.407 149.989 109.232C149.71 108.875 149.403 108.538 149.097 108.205C148.491 107.531 147.871 106.901 147.329 106.184C147.025 105.791 146.762 105.369 146.544 104.924C146.544 104.904 146.567 104.894 146.578 104.924C147.369 106.571 148.952 107.619 150.077 109.02C150.238 109.217 150.389 109.423 150.528 109.636C150.64 109.79 150.735 109.956 150.811 110.131C151.428 110.627 151.987 111.192 152.475 111.815C152.432 111.495 152.367 111.179 152.28 110.869C152.167 110.434 151.992 110.018 151.761 109.633C151.761 109.612 151.781 109.592 151.791 109.612C152.029 109.998 152.221 110.411 152.36 110.842C152.463 111.183 152.523 111.536 152.539 111.893C152.779 112.221 152.999 112.564 153.196 112.92L153.135 112.607C153.041 112.122 152.933 111.637 152.798 111.155C152.569 110.178 152.172 109.249 151.626 108.407C151.626 108.387 151.643 108.37 151.657 108.387C152.215 109.219 152.652 110.126 152.957 111.081C153.112 111.559 153.236 112.044 153.344 112.536C153.398 112.775 153.448 113.018 153.492 113.26C153.516 113.385 153.543 113.513 153.563 113.641C154.047 114.703 154.425 115.811 154.691 116.948C155.168 118.98 155.515 121.041 155.728 123.118C155.982 125.292 156.095 127.48 156.065 129.669C156.065 129.942 156.045 130.215 156.032 130.491C156.032 130.561 155.92 130.572 155.917 130.491C155.87 129.406 155.843 128.325 155.779 127.241C155.715 126.156 155.621 125.078 155.503 124.001C155.284 121.881 154.947 119.775 154.492 117.692C154.098 115.907 153.586 114.112 152.61 112.549C152.125 111.772 151.532 111.067 150.848 110.458C150.175 109.842 149.417 109.306 148.696 108.737C147.966 108.183 147.304 107.545 146.722 106.837C146.125 106.049 145.605 105.206 145.17 104.318C145.055 104.096 144.937 103.877 144.833 103.644C144.813 103.638 144.843 103.617 144.853 103.638Z" fill="#A6A6A6"/>
<path d="M171.902 113.037C171.902 113.037 171.979 119.972 167.833 121.972C163.687 123.973 161.467 122.309 158.648 122.983C158.756 122.818 160.767 119.925 163.967 119.13C167.26 118.305 170.905 115.927 171.902 113.037Z" fill="#DBDBDB"/>
<path opacity="0.1" d="M171.902 113.037C171.902 113.037 171.979 119.972 167.833 121.972C163.687 123.973 161.467 122.309 158.648 122.983C160.137 122.272 161.728 121.803 163.364 121.592C165.981 121.268 170.975 119.568 171.902 113.037Z" fill="#A6A6A6"/>
<path d="M158.375 123.101C158.868 122.652 159.424 122.276 160.025 121.986C160.113 121.942 160.204 121.909 160.295 121.868C160.385 121.828 160.385 121.76 160.433 121.71C160.557 121.582 160.689 121.457 160.823 121.339C161.083 121.115 161.363 120.915 161.659 120.74C162.332 120.336 163.097 120.066 163.801 119.676C163.821 119.676 163.838 119.699 163.817 119.709C163.481 119.888 163.144 120.087 162.807 120.285C162.47 120.484 162.133 120.659 161.824 120.865C161.534 121.049 161.26 121.255 161.002 121.481C160.928 121.545 160.86 121.612 160.79 121.683C161.248 121.529 161.716 121.405 162.191 121.313C162.949 121.158 163.716 121.05 164.474 120.888C164.846 120.81 165.214 120.711 165.576 120.592C165.912 120.316 166.249 120.039 166.586 119.74C166.98 119.378 167.34 118.98 167.66 118.551C167.662 118.549 167.663 118.547 167.665 118.546C167.667 118.544 167.67 118.543 167.672 118.543C167.674 118.543 167.677 118.543 167.679 118.543C167.681 118.543 167.684 118.544 167.686 118.546C167.688 118.547 167.689 118.549 167.691 118.551C167.692 118.553 167.693 118.555 167.693 118.557C167.694 118.56 167.694 118.562 167.693 118.564C167.693 118.567 167.692 118.569 167.691 118.571C167.193 119.25 166.629 119.877 166.007 120.444C166.185 120.376 166.364 120.305 166.535 120.225C167.959 119.587 169.181 118.571 170.068 117.288C170.068 117.268 170.112 117.288 170.099 117.305C169.346 118.406 168.374 119.341 167.243 120.05C166.676 120.403 166.07 120.69 165.437 120.905C164.701 121.132 163.951 121.309 163.191 121.434C162.448 121.555 161.714 121.73 160.995 121.956C160.334 122.181 159.713 122.508 159.153 122.926C158.096 123.746 157.245 124.801 156.667 126.007C155.927 127.601 155.465 129.31 155.3 131.059C155.3 131.134 155.175 131.134 155.182 131.059C155.35 128.16 156.128 125.125 158.375 123.101Z" fill="#A6A6A6"/>
<path d="M163.19 120.859C163.406 120.535 163.699 120.27 164.042 120.087C164.433 119.88 164.777 119.595 165.052 119.249C165.052 119.228 165.096 119.249 165.083 119.266C164.833 119.583 164.53 119.854 164.187 120.067C163.811 120.269 163.478 120.543 163.21 120.875C163.203 120.875 163.18 120.859 163.19 120.859Z" fill="#A6A6A6"/>
<path d="M160.99 128.221L160.801 132.033L160.222 143.68H151.526L150.946 132.033L150.758 128.221H160.99Z" fill="#EBEBEB"/>
<path d="M160.99 128.221L160.801 132.033H150.946L150.758 128.221H160.99Z" fill="#DBDBDB"/>
<path d="M161.598 126.627H150.146V130.264H161.598V126.627Z" fill="#EBEBEB"/>
<path d="M98 168.397C142.183 168.397 178 164.435 178 159.546C178 154.658 142.183 150.695 98 150.695C53.8172 150.695 18 154.658 18 159.546C18 164.435 53.8172 168.397 98 168.397Z" fill="#EBEBEB"/>
<path d="M24.1602 143.681L42.6201 143.6L61.0801 143.57L98.0001 143.516L134.92 143.57L153.38 143.6L171.84 143.681L153.38 143.765L134.92 143.795L98.0001 143.849L61.0801 143.795L42.6201 143.765L24.1602 143.681Z" fill="#263238"/>
<path d="M153.709 73.877H41.7227V148.788H153.709V73.877Z" fill="#DBDBDB"/>
<path d="M152.893 74.7891H42.5371V147.871H152.893V74.7891Z" fill="#37474F"/>
<path d="M168.291 154.402H27.1348V159.542H168.291V154.402Z" fill="#C7C7C7"/>
<path d="M27.1348 154.404L41.7216 148.789H153.707L168.291 154.404H27.1348Z" fill="#DBDBDB"/>
<path d="M43.0254 152.413L52.4356 148.789H142.994L152.404 152.413H43.0254Z" fill="#37474F"/>
<path d="M146.656 80.3438H48.7715V142.322H146.656V80.3438Z" fill="white"/>
<path d="M146.658 80.3438H48.6895V82.7283H146.658V80.3438Z" fill="#A6A6A6"/>
<path d="M50.5859 81.5361C50.5859 81.6534 50.5512 81.768 50.486 81.8655C50.4209 81.9629 50.3283 82.0389 50.22 82.0838C50.1117 82.1286 49.9925 82.1404 49.8775 82.1175C49.7625 82.0946 49.6569 82.0382 49.574 81.9553C49.4911 81.8724 49.4347 81.7668 49.4118 81.6518C49.3889 81.5368 49.4006 81.4176 49.4455 81.3093C49.4904 81.201 49.5664 81.1084 49.6638 81.0433C49.7613 80.9781 49.8759 80.9434 49.9932 80.9434C50.0711 80.9429 50.1484 80.958 50.2205 80.9876C50.2926 81.0172 50.3582 81.0609 50.4133 81.116C50.4684 81.1711 50.5121 81.2366 50.5417 81.3088C50.5713 81.3809 50.5864 81.4582 50.5859 81.5361Z" fill="#C7C7C7"/>
<path d="M52.4092 82.1289C52.7366 82.1289 53.0019 81.8635 53.0019 81.5361C53.0019 81.2087 52.7366 80.9434 52.4092 80.9434C52.0818 80.9434 51.8164 81.2087 51.8164 81.5361C51.8164 81.8635 52.0818 82.1289 52.4092 82.1289Z" fill="white"/>
<path d="M55.416 81.5361C55.416 81.6534 55.3812 81.768 55.3161 81.8655C55.251 81.9629 55.1584 82.0389 55.0501 82.0838C54.9418 82.1286 54.8226 82.1404 54.7076 82.1175C54.5926 82.0946 54.487 82.0382 54.4041 81.9553C54.3212 81.8724 54.2647 81.7668 54.2419 81.6518C54.219 81.5368 54.2307 81.4176 54.2756 81.3093C54.3205 81.201 54.3964 81.1084 54.4939 81.0433C54.5914 80.9781 54.706 80.9434 54.8232 80.9434C54.9012 80.9429 54.9785 80.958 55.0506 80.9876C55.1227 81.0172 55.1882 81.0609 55.2434 81.116C55.2985 81.1711 55.3422 81.2366 55.3718 81.3088C55.4014 81.3809 55.4165 81.4582 55.416 81.5361Z" fill="#6B675A"/>
<path d="M70.5897 75.1745C67.023 79.8897 66.7974 86.8716 66.7974 86.8716C66.7974 86.8716 63.7864 94.2812 65.4266 97.8411C65.8703 98.8549 66.5531 99.746 67.4165 100.438C68.28 101.13 69.2983 101.603 70.3843 101.815L69.7107 99.8148C69.7107 99.8148 71.4216 102.267 76.0358 102.701C80.6499 103.136 86.3553 100.919 89.2046 98.929C90.8969 97.7606 92.257 96.1731 93.1519 94.3216L92.4244 97.474C92.4244 97.474 96.7355 96.7061 98.6519 91.7484C100.568 86.7907 92.2527 81.2032 91.4107 79.8661C90.5687 78.529 88.3088 68.2466 77.6288 71.5943C77.6221 71.5809 73.045 71.9244 70.5897 75.1745Z" fill="#263238"/>
<path d="M68.7714 101.771C67.4512 101.364 66.2488 100.252 65.4506 99.1541C64.5921 98.0011 64.145 96.5934 64.1809 95.1563C64.2448 93.4319 64.9218 91.822 65.5786 90.2525C66.2522 88.6291 67.0571 87.0496 67.7071 85.4194C67.7408 85.3285 67.6061 85.278 67.5556 85.3521C66.745 86.6301 66.0084 87.9537 65.3495 89.3162C64.6557 90.5745 64.1108 91.9094 63.7262 93.2938C63.3671 94.5699 63.3811 95.9222 63.7666 97.1906C64.1285 98.2206 64.738 99.1459 65.5415 99.885C66.4879 100.774 67.6061 101.273 68.7276 101.886C68.7352 101.888 68.7432 101.89 68.7512 101.89C68.7593 101.889 68.7672 101.888 68.7745 101.884C68.7819 101.881 68.7885 101.876 68.7941 101.87C68.7996 101.865 68.8039 101.858 68.8068 101.85C68.8097 101.843 68.811 101.835 68.8108 101.827C68.8106 101.819 68.8088 101.811 68.8055 101.803C68.8022 101.796 68.7975 101.789 68.7917 101.784C68.7858 101.778 68.779 101.774 68.7714 101.771Z" fill="#263238"/>
<path d="M98.8947 86.8641C97.039 83.2233 93.2533 81.2833 90.6869 78.2454C89.296 76.5984 88.134 74.7225 86.4365 73.3618C86.3894 73.3281 86.3288 73.4056 86.3725 73.4426C87.7837 74.6854 88.7301 76.2819 89.8315 77.7772C90.9907 79.2514 92.295 80.6054 93.7249 81.8188C96.261 84.1091 99.2922 86.8136 99.3124 90.5217C99.3124 92.236 98.5916 94.2265 96.9548 95.0045C96.8942 95.0315 96.9548 95.1359 97.0087 95.0988C97.6495 94.7303 98.2085 94.235 98.6515 93.6432C99.0945 93.0514 99.4122 92.3755 99.5852 91.6568C99.9396 90.0282 99.6944 88.3264 98.8947 86.8641Z" fill="#263238"/>
<path d="M99.2021 87.8712C99.1119 86.4053 98.5708 85.0031 97.6528 83.8566C96.7233 82.7283 95.4097 82.0076 94.1131 81.3845C92.6143 80.6671 91.0516 80.0103 89.9772 78.6901C89.9334 78.6328 89.8559 78.7103 89.8997 78.7642C91.614 80.9466 94.3926 81.6842 96.4504 83.4322C98.808 85.4328 99.2796 88.7638 98.2557 91.5794C97.5943 93.2993 96.5361 94.8387 95.1672 96.0723C95.1437 96.0925 95.1672 96.1296 95.2009 96.106C97.545 94.0448 99.4513 91.118 99.2021 87.8712Z" fill="#263238"/>
<path d="M80.4905 104.374C84.037 108.099 102.261 125.721 110.216 124.077C119.859 122.087 131.058 116.219 135.429 112.05C137.881 109.716 126.063 97.9043 123.597 99.7264C119.714 102.603 110.358 107.385 108.711 108.059C107.064 108.732 93.1306 101.548 85.007 98.7396C77.6917 96.1934 77.9948 101.751 80.4905 104.374Z" fill="#DD6A57"/>
<path d="M142.094 106.753C139.956 109.606 133.297 113.725 131.317 114.102C129.336 114.479 121.947 103.392 122.61 101.422C123.274 99.4514 131.222 90.4117 134.735 89.5057C138.248 88.5997 144.314 103.799 142.094 106.753Z" fill="#DD6A57"/>
<path d="M123.684 99.6394C123.684 99.6394 124.947 95.1769 124.694 91.1016C124.472 87.673 123.754 82.6075 125.593 82.4189C129.369 82.0316 131.154 94.6649 131.154 94.6649C131.154 94.6649 131.043 100.367 127.338 101.064C125.004 101.532 123.684 99.6394 123.684 99.6394Z" fill="#DD6A57"/>
<path d="M129.597 91.9875C129.408 93.8668 131.732 93.0147 131.732 93.0147C131.732 93.0147 128.701 95.0355 129.24 97.0563C129.779 98.9929 132.547 97.8613 132.749 97.7838C132.588 97.8949 129.836 99.8383 130.604 101.802C131.402 103.843 133.972 102.233 134.154 102.139C134.033 102.287 132.493 104.304 133.416 105.665C134.999 108.002 139.081 102.971 141.361 102.809C141.361 102.809 142.052 106.648 142.092 106.756C142.092 106.756 146.073 102.041 145.706 98.966C145.659 98.5189 145.461 98.1013 145.144 97.7822C144.828 97.4631 144.412 97.2617 143.965 97.2112C143.965 97.2112 145.416 95.8304 144.864 94.2642C144.578 93.4593 143.035 93.2033 143.035 93.2033C143.035 93.2033 144.153 92.0515 143.574 90.6874C143.113 89.5996 141.641 89.512 141.641 89.512C141.641 89.512 142.197 87.9055 141.368 86.9456C139.694 85.0023 129.998 87.9627 129.597 91.9875Z" fill="#DD6A57"/>
<path d="M141.41 89.4582C141.418 89.4582 141.424 89.4553 141.43 89.4503C141.435 89.4452 141.437 89.4384 141.437 89.4312C141.437 89.4241 141.435 89.4172 141.43 89.4122C141.424 89.4071 141.418 89.4043 141.41 89.4043C137.985 89.5996 134.28 90.866 131.606 93.0451C131.519 93.1192 131.606 93.291 131.707 93.2303C134.89 91.5093 137.857 90.2396 141.41 89.4582Z" fill="#263238"/>
<path d="M143.079 93.1664C143.116 93.1664 143.103 93.0957 143.079 93.0957C139.549 93.318 135.42 94.8572 132.638 97.7334C132.544 97.8311 132.558 98.0163 132.675 97.9119C134.649 96.1404 139.876 93.8535 143.079 93.1664Z" fill="#263238"/>
<path d="M134.039 102.401C136.817 99.7473 140.168 98.2485 143.829 97.2078C143.877 97.2078 143.853 97.127 143.809 97.127C141.879 97.1505 139.613 98.0565 137.912 98.912C136.317 99.6787 134.95 100.848 133.944 102.304C133.894 102.361 133.968 102.458 134.039 102.401Z" fill="#263238"/>
<path d="M131.683 92.998C131.578 93.0822 131.821 93.1429 131.716 93.2304C131.285 93.6077 128.887 96.0899 129.477 97.1676C129.955 98.0332 131.447 97.9928 132.013 97.7537L133.441 97.1508L132.309 98.2117C131.805 98.6802 131.379 99.2273 131.049 99.8317C130.88 100.103 130.77 100.407 130.727 100.724C130.684 101.041 130.709 101.364 130.8 101.671C130.888 101.953 131.069 102.197 131.314 102.362C131.559 102.527 131.853 102.604 132.147 102.58C132.808 102.509 133.44 102.27 133.983 101.886L135.515 100.876L134.394 102.334C134.083 102.736 133.825 103.177 133.626 103.644C133.42 104.08 133.347 104.568 133.417 105.045C133.457 105.259 133.556 105.457 133.702 105.617C133.848 105.777 134.037 105.893 134.246 105.951C134.733 106.012 135.229 105.934 135.674 105.726C136.639 105.284 137.57 104.768 138.456 104.183C138.914 103.904 139.375 103.624 139.85 103.365C140.31 103.077 140.825 102.89 141.362 102.816C140.844 102.946 140.356 103.174 139.924 103.489C139.476 103.779 139.042 104.092 138.607 104.409C137.742 105.067 136.817 105.643 135.845 106.13C135.324 106.406 134.732 106.524 134.145 106.467C133.829 106.399 133.54 106.241 133.313 106.012C133.085 105.783 132.93 105.493 132.865 105.177C132.763 104.587 132.838 103.98 133.08 103.432C133.293 102.907 133.574 102.412 133.916 101.96L134.333 102.401C133.698 102.865 132.953 103.155 132.171 103.243C131.736 103.276 131.303 103.157 130.945 102.907C130.602 102.652 130.344 102.3 130.204 101.896C130.089 101.508 130.057 101.1 130.111 100.699C130.165 100.298 130.304 99.9127 130.517 99.569C130.888 98.9082 131.366 98.314 131.932 97.8109L132.228 98.269C131.497 98.5519 129.834 98.7775 128.928 97.528C127.978 95.7127 131.076 93.382 131.683 92.998Z" fill="#263238"/>
<path d="M131.734 93.0149C131.349 93.0739 130.957 93.0739 130.572 93.0149C130.418 92.9958 130.271 92.9359 130.147 92.8411C130.023 92.7464 129.927 92.6204 129.868 92.476C129.786 92.142 129.801 91.7912 129.912 91.4656C130.017 91.0985 130.148 90.7213 130.296 90.334C129.973 90.6047 129.711 90.9396 129.525 91.3174C129.299 91.729 129.244 92.2131 129.373 92.6646C129.468 92.9031 129.634 93.1066 129.848 93.2473C130.052 93.3692 130.284 93.4332 130.522 93.4325C130.96 93.427 131.385 93.2806 131.734 93.0149Z" fill="#263238"/>
<path d="M120.77 100.956L134.461 116.428C134.461 116.428 114.138 126.378 107.517 124.848C100.895 123.319 87.2245 113.013 81.2463 105.651C75.2681 98.2885 78.8887 96.2407 87.2177 98.9957C95.5468 101.751 107.321 107.129 108.517 107.079C109.713 107.028 120.77 100.956 120.77 100.956Z" fill="#6B675A"/>
<path d="M134.461 116.429C134.461 116.429 114.139 126.375 107.517 124.849C103.395 123.903 96.5444 119.548 90.5157 114.614C90.4901 114.598 90.4664 114.58 90.445 114.56C86.8143 111.582 83.4867 108.403 81.2436 105.638C79.3003 103.25 78.3741 101.421 78.2865 100.135C78.2648 99.8943 78.2818 99.6521 78.337 99.4172C78.8018 97.3964 82.1327 97.3089 87.215 98.9895C95.5542 101.741 107.319 107.12 108.518 107.073C109.717 107.026 120.767 100.956 120.767 100.956L134.461 116.429Z" fill="#6B675A"/>
<path d="M97.4375 114.898C97.6933 114.81 97.9685 114.795 98.2323 114.854C98.3764 114.908 98.5009 115.004 98.5897 115.129C98.6786 115.255 98.7278 115.404 98.7308 115.558C98.7284 115.66 98.7521 115.761 98.7999 115.851C98.8477 115.941 98.9178 116.018 99.0036 116.073C99.0979 116.136 99.2072 116.172 99.3202 116.178C99.4482 116.201 99.5728 116.215 99.7008 116.248C99.4429 116.34 99.1633 116.35 98.8992 116.279C98.7595 116.219 98.6406 116.119 98.5573 115.992C98.474 115.865 98.4301 115.716 98.4311 115.565C98.4281 115.463 98.3998 115.364 98.3486 115.276C98.2974 115.189 98.225 115.115 98.138 115.063C98.036 115.002 97.9199 114.97 97.8012 114.968C97.6901 114.945 97.5621 114.931 97.4375 114.898Z" fill="white"/>
<path d="M79.5366 100.649C79.2796 100.738 79.0019 100.75 78.7383 100.683C78.6256 100.637 78.5258 100.564 78.4477 100.471C78.3696 100.377 78.3156 100.266 78.2904 100.147C78.2687 99.9068 78.2857 99.6646 78.3409 99.4297C78.4812 99.5705 78.562 99.7598 78.5666 99.9585C78.5651 100.061 78.5897 100.162 78.638 100.252C78.6863 100.342 78.7568 100.418 78.8427 100.474C78.9365 100.535 79.0443 100.571 79.156 100.578C79.284 100.602 79.4086 100.615 79.5366 100.649Z" fill="white"/>
<path d="M116.688 109.564C116.945 109.479 117.221 109.465 117.486 109.524C117.63 109.577 117.754 109.673 117.843 109.799C117.931 109.925 117.979 110.074 117.981 110.228C117.98 110.33 118.005 110.431 118.053 110.521C118.101 110.611 118.171 110.687 118.257 110.743C118.352 110.805 118.461 110.839 118.574 110.844C118.698 110.871 118.826 110.885 118.951 110.918C118.694 111.009 118.416 111.019 118.153 110.949C118.012 110.889 117.892 110.789 117.808 110.661C117.724 110.534 117.68 110.384 117.681 110.231C117.68 110.13 117.652 110.031 117.601 109.944C117.551 109.857 117.478 109.784 117.391 109.733C117.29 109.671 117.173 109.638 117.055 109.638C116.94 109.612 116.815 109.598 116.688 109.564Z" fill="white"/>
<path d="M129.998 115.189C130.254 115.104 130.529 115.09 130.793 115.149C130.937 115.202 131.062 115.297 131.151 115.422C131.239 115.547 131.289 115.696 131.291 115.85C131.289 115.952 131.313 116.053 131.36 116.144C131.408 116.235 131.478 116.312 131.564 116.368C131.659 116.43 131.768 116.465 131.881 116.469C132.009 116.493 132.133 116.51 132.261 116.543C132.003 116.632 131.724 116.642 131.46 116.574C131.32 116.514 131.2 116.414 131.117 116.286C131.034 116.158 130.99 116.009 130.992 115.856C130.989 115.755 130.96 115.656 130.909 115.568C130.858 115.48 130.786 115.407 130.699 115.354C130.596 115.295 130.48 115.264 130.362 115.263C130.264 115.237 130.136 115.223 129.998 115.189Z" fill="white"/>
<path d="M104.107 118.838C104.365 118.753 104.641 118.739 104.906 118.797C105.053 118.851 105.18 118.948 105.27 119.075C105.36 119.203 105.409 119.355 105.411 119.511C105.409 119.613 105.433 119.714 105.48 119.804C105.528 119.895 105.598 119.971 105.684 120.027C105.778 120.088 105.888 120.123 106 120.128C106.128 120.155 106.253 120.168 106.381 120.202C106.123 120.292 105.843 120.302 105.579 120.232C105.439 120.172 105.32 120.072 105.236 119.944C105.153 119.817 105.109 119.667 105.111 119.515C105.108 119.414 105.08 119.315 105.029 119.228C104.977 119.141 104.905 119.068 104.818 119.016C104.717 118.954 104.6 118.922 104.481 118.922C104.36 118.895 104.232 118.878 104.107 118.838Z" fill="white"/>
<path d="M89.5039 100.334C89.7615 100.249 90.0373 100.235 90.3021 100.293C90.4458 100.348 90.5698 100.444 90.6581 100.569C90.7464 100.695 90.7949 100.844 90.7972 100.997C90.7964 101.1 90.8212 101.2 90.8695 101.29C90.9178 101.38 90.9879 101.457 91.0734 101.513C91.1677 101.575 91.277 101.611 91.39 101.617C91.5146 101.641 91.6426 101.654 91.7706 101.688C91.5126 101.779 91.2331 101.79 90.969 101.718C90.8293 101.658 90.7104 101.559 90.6271 101.432C90.5438 101.305 90.4999 101.156 90.5008 101.004C90.4985 100.902 90.4705 100.803 90.4192 100.715C90.3679 100.628 90.2952 100.554 90.2078 100.502C90.1058 100.442 89.9896 100.409 89.871 100.408C89.7599 100.384 89.6319 100.368 89.5039 100.334Z" fill="white"/>
<path d="M121.06 118.109C120.941 118.353 120.757 118.558 120.528 118.702C120.388 118.766 120.233 118.786 120.081 118.761C119.93 118.735 119.79 118.664 119.679 118.557C119.608 118.484 119.519 118.43 119.422 118.4C119.324 118.37 119.22 118.365 119.12 118.386C119.01 118.409 118.908 118.461 118.824 118.537C118.716 118.608 118.618 118.689 118.504 118.753C118.649 118.547 118.757 118.295 119.05 118.167C119.191 118.11 119.346 118.096 119.495 118.127C119.645 118.158 119.781 118.233 119.888 118.342C119.961 118.412 120.051 118.462 120.149 118.488C120.246 118.514 120.349 118.515 120.447 118.49C120.557 118.462 120.658 118.406 120.74 118.328C120.848 118.254 120.949 118.163 121.06 118.109Z" fill="white"/>
<path d="M105.054 111.764C104.935 112.008 104.75 112.213 104.519 112.356C104.38 112.42 104.225 112.44 104.074 112.414C103.923 112.389 103.784 112.318 103.673 112.212C103.602 112.138 103.514 112.084 103.416 112.054C103.318 112.024 103.215 112.019 103.114 112.04C103.004 112.063 102.902 112.116 102.818 112.191C102.71 112.262 102.609 112.343 102.498 112.407C102.643 112.202 102.751 111.949 103.04 111.821C103.182 111.764 103.337 111.75 103.486 111.781C103.635 111.813 103.772 111.887 103.879 111.996C103.953 112.066 104.043 112.116 104.141 112.142C104.24 112.168 104.343 112.169 104.441 112.144C104.551 112.116 104.652 112.06 104.734 111.983C104.842 111.922 104.94 111.845 105.054 111.764Z" fill="white"/>
<path d="M112.839 115.24C112.719 115.483 112.535 115.688 112.307 115.833C112.167 115.897 112.011 115.917 111.859 115.891C111.708 115.864 111.568 115.792 111.458 115.685C111.387 115.611 111.298 115.557 111.2 115.528C111.102 115.498 110.999 115.495 110.899 115.516C110.788 115.538 110.685 115.591 110.602 115.668C110.495 115.739 110.397 115.82 110.266 115.884C110.41 115.678 110.518 115.425 110.811 115.297C110.953 115.241 111.107 115.227 111.256 115.258C111.405 115.288 111.542 115.362 111.65 115.469C111.722 115.54 111.812 115.591 111.91 115.617C112.008 115.643 112.111 115.643 112.209 115.617C112.32 115.59 112.422 115.534 112.505 115.456C112.627 115.385 112.728 115.304 112.839 115.24Z" fill="white"/>
<path d="M122.907 103.799C122.785 104.041 122.6 104.246 122.371 104.392C122.231 104.455 122.076 104.476 121.924 104.45C121.773 104.424 121.633 104.353 121.522 104.247C121.451 104.173 121.363 104.119 121.265 104.089C121.167 104.059 121.063 104.054 120.963 104.075C120.853 104.1 120.751 104.152 120.667 104.227C120.562 104.297 120.461 104.378 120.33 104.442C120.478 104.237 120.583 103.984 120.876 103.856C121.017 103.799 121.172 103.785 121.322 103.817C121.471 103.848 121.608 103.922 121.714 104.031C121.787 104.101 121.877 104.151 121.975 104.177C122.073 104.203 122.175 104.204 122.273 104.179C122.391 104.153 122.5 104.097 122.59 104.018C122.694 103.944 122.792 103.866 122.907 103.799Z" fill="white"/>
<path d="M84.4936 103.008C84.5787 103.265 84.5927 103.541 84.534 103.806C84.4799 103.95 84.3839 104.074 84.2583 104.162C84.1328 104.25 83.9836 104.299 83.8301 104.301C83.7279 104.3 83.6272 104.325 83.5372 104.373C83.4471 104.422 83.3707 104.492 83.3148 104.577C83.2523 104.672 83.2163 104.781 83.2104 104.894C83.1868 105.019 83.1733 105.146 83.1397 105.274C83.0484 105.017 83.0378 104.737 83.1094 104.473C83.169 104.333 83.2686 104.214 83.3957 104.131C83.5227 104.048 83.6715 104.004 83.8234 104.005C83.9249 104.002 84.024 103.973 84.1117 103.922C84.1994 103.871 84.2728 103.799 84.3252 103.712C84.3857 103.61 84.4183 103.494 84.4195 103.375C84.4431 103.254 84.4565 103.126 84.4936 103.008Z" fill="white"/>
<path d="M125.122 112.68C125.207 112.937 125.221 113.213 125.162 113.478C125.109 113.622 125.013 113.746 124.887 113.834C124.762 113.923 124.612 113.971 124.458 113.973C124.356 113.971 124.255 113.995 124.165 114.044C124.074 114.092 123.998 114.163 123.943 114.249C123.881 114.342 123.846 114.451 123.842 114.562C123.815 114.69 123.802 114.815 123.768 114.943C123.677 114.686 123.667 114.408 123.738 114.145C123.798 114.004 123.898 113.884 124.025 113.801C124.153 113.717 124.302 113.672 124.455 113.673C124.556 113.671 124.655 113.643 124.743 113.592C124.83 113.54 124.902 113.468 124.954 113.38C125.013 113.284 125.046 113.173 125.048 113.06C125.071 112.932 125.088 112.804 125.122 112.68Z" fill="white"/>
<path d="M113.715 121.057C113.8 121.314 113.814 121.59 113.756 121.855C113.702 121.999 113.607 122.124 113.481 122.212C113.355 122.3 113.206 122.349 113.052 122.35C112.95 122.349 112.849 122.374 112.759 122.422C112.669 122.47 112.592 122.541 112.537 122.626C112.475 122.721 112.44 122.83 112.435 122.943C112.409 123.067 112.395 123.195 112.361 123.323C112.271 123.065 112.261 122.786 112.331 122.522C112.391 122.382 112.491 122.262 112.619 122.179C112.746 122.096 112.896 122.052 113.048 122.054C113.15 122.051 113.248 122.022 113.335 121.971C113.423 121.92 113.495 121.847 113.547 121.761C113.609 121.659 113.642 121.543 113.641 121.424C113.668 121.313 113.682 121.195 113.715 121.057Z" fill="white"/>
<path d="M111.722 106.904C111.807 107.162 111.821 107.438 111.762 107.703C111.709 107.847 111.613 107.971 111.487 108.06C111.361 108.148 111.212 108.196 111.058 108.198C110.956 108.197 110.855 108.222 110.765 108.27C110.675 108.318 110.599 108.388 110.543 108.474C110.481 108.568 110.446 108.678 110.442 108.79C110.415 108.915 110.401 109.043 110.368 109.168C110.277 108.911 110.267 108.632 110.337 108.369C110.397 108.229 110.497 108.109 110.625 108.025C110.752 107.941 110.902 107.897 111.055 107.898C111.156 107.896 111.255 107.869 111.342 107.818C111.429 107.767 111.502 107.695 111.553 107.608C111.615 107.507 111.648 107.39 111.648 107.271C111.674 107.157 111.688 107.049 111.722 106.904Z" fill="white"/>
<path d="M98.552 105.773C98.6386 106.031 98.6526 106.307 98.5924 106.572C98.5393 106.715 98.444 106.839 98.3189 106.928C98.1939 107.016 98.045 107.065 97.8918 107.067C97.7892 107.066 97.688 107.091 97.5975 107.139C97.5069 107.187 97.4298 107.257 97.3732 107.343C97.3117 107.438 97.2769 107.547 97.2721 107.66C97.2485 107.784 97.2317 107.912 97.198 108.037C97.1097 107.779 97.0992 107.502 97.1677 107.239C97.2278 107.098 97.3279 106.979 97.4555 106.895C97.583 106.811 97.7324 106.767 97.8851 106.767C97.9865 106.766 98.0859 106.738 98.1738 106.688C98.2617 106.637 98.3351 106.565 98.3869 106.477C98.4463 106.375 98.4777 106.259 98.4779 106.141C98.5048 106.04 98.5183 105.901 98.552 105.773Z" fill="white"/>
<path d="M90.518 114.628C90.4924 114.613 90.4687 114.595 90.4473 114.574C90.4473 114.53 90.4641 114.487 90.4776 114.439C90.4877 114.507 90.5045 114.567 90.518 114.628Z" fill="white"/>
<path d="M89.2129 108.699C89.335 108.457 89.52 108.253 89.7484 108.107C89.8885 108.044 90.0442 108.024 90.1955 108.051C90.3468 108.077 90.4867 108.148 90.5971 108.255C90.7092 108.368 90.8608 108.432 91.0198 108.436C91.1788 108.439 91.3328 108.38 91.4492 108.272C91.557 108.201 91.6581 108.123 91.786 108.056C91.6378 108.262 91.5334 108.514 91.2404 108.642C91.0992 108.699 90.9444 108.713 90.7954 108.682C90.6463 108.651 90.5095 108.578 90.4018 108.47C90.3287 108.399 90.2385 108.349 90.14 108.323C90.0415 108.297 89.9379 108.296 89.8393 108.322C89.7291 108.349 89.6279 108.405 89.5463 108.484C89.4251 108.555 89.3274 108.635 89.2129 108.699Z" fill="white"/>
<path d="M130.336 118.248C129.632 117.221 128.716 116.308 127.915 115.355C127.113 114.402 126.231 113.425 125.358 112.472C123.674 110.62 121.943 108.821 120.202 107.029C119.191 105.985 118.137 104.985 117.11 103.951C117.073 103.914 117.009 103.975 117.043 104.015C118.703 105.945 120.337 107.885 122.037 109.778C123.738 111.67 125.405 113.482 127.153 115.261C127.652 115.773 128.164 116.271 128.676 116.77C129.176 117.314 129.707 117.83 130.265 118.315C130.302 118.349 130.363 118.292 130.336 118.248Z" fill="#263238"/>
<path opacity="0.1" d="M114.813 124.106C111.856 124.88 109.232 125.254 107.521 124.863C103.399 123.917 96.5483 119.562 90.5196 114.628C90.494 114.613 90.4703 114.595 90.4489 114.574C86.8182 111.597 83.4906 108.418 81.2475 105.652C79.3042 103.264 78.378 101.436 78.2904 100.149C78.2687 99.9088 78.2857 99.6666 78.3409 99.4317C78.5565 98.5021 79.385 97.9801 80.6985 97.8555L114.813 124.106Z" fill="black"/>
<path d="M94.0346 124.25L97.2241 142.323H59.0176C60.1054 124.654 70.3576 105.328 74.8775 99.8218C77.1408 97.0634 81.6135 96.474 85.005 98.7238C85.81 99.2559 95.1831 113.085 95.951 115.102C97.4801 119.08 94.0346 124.25 94.0346 124.25Z" fill="#6B675A"/>
<path d="M81.3652 110.754C81.6228 110.669 81.8986 110.655 82.1634 110.713C82.3068 110.768 82.4306 110.864 82.5189 110.989C82.6071 111.115 82.6558 111.264 82.6585 111.417C82.6567 111.577 82.7174 111.73 82.8275 111.846C82.9377 111.961 83.0886 112.028 83.2479 112.034C83.3759 112.061 83.5005 112.074 83.6285 112.108C83.3706 112.199 83.091 112.21 82.8269 112.138C82.6873 112.078 82.5683 111.979 82.4851 111.852C82.4018 111.725 82.3578 111.576 82.3588 111.424C82.3565 111.322 82.3284 111.223 82.2772 111.135C82.2259 111.047 82.1532 110.974 82.0658 110.922C81.9638 110.862 81.8476 110.829 81.729 110.828C81.6178 110.794 81.5 110.777 81.3652 110.754Z" fill="white"/>
<path d="M83.8574 126.584C84.115 126.499 84.3908 126.485 84.6556 126.543C84.7993 126.598 84.9233 126.694 85.0116 126.819C85.0999 126.945 85.1484 127.094 85.1507 127.247C85.1499 127.35 85.1748 127.45 85.223 127.54C85.2713 127.63 85.3414 127.707 85.4269 127.763C85.5215 127.824 85.6308 127.859 85.7435 127.864C85.8681 127.891 85.9961 127.904 86.1207 127.938C85.8638 128.028 85.5855 128.039 85.3225 127.968C85.1818 127.909 85.062 127.809 84.9785 127.681C84.8951 127.553 84.8518 127.403 84.8544 127.251C84.8515 127.15 84.8231 127.051 84.7719 126.964C84.7207 126.877 84.6482 126.804 84.5613 126.752C84.46 126.69 84.3434 126.658 84.2245 126.658C84.0999 126.648 83.9753 126.631 83.8574 126.584Z" fill="white"/>
<path d="M74.4844 116.029C74.7413 115.941 75.0176 115.925 75.2826 115.985C75.426 116.039 75.5498 116.135 75.638 116.261C75.7263 116.386 75.7749 116.535 75.7777 116.689C75.7759 116.791 75.8004 116.892 75.8487 116.982C75.897 117.072 75.9677 117.149 76.0539 117.204C76.1467 117.267 76.2551 117.303 76.3671 117.308C76.4951 117.332 76.6197 117.345 76.7477 117.379C76.4908 117.47 76.2125 117.48 75.9495 117.409C75.8092 117.35 75.6895 117.251 75.6056 117.124C75.5217 116.997 75.4773 116.848 75.4779 116.695C75.476 116.594 75.448 116.494 75.3967 116.406C75.3454 116.319 75.2725 116.245 75.1849 116.194C75.0879 116.136 74.9778 116.103 74.865 116.099C74.737 116.076 74.6124 116.062 74.4844 116.029Z" fill="white"/>
<path d="M69.4082 132.262C69.6646 132.176 69.9393 132.162 70.2031 132.221C70.3475 132.274 70.4723 132.37 70.5608 132.496C70.6493 132.621 70.6972 132.771 70.6981 132.925C70.6973 133.027 70.7222 133.128 70.7704 133.218C70.8187 133.308 70.8888 133.385 70.9743 133.44C71.0689 133.502 71.1782 133.537 71.2909 133.541C71.4155 133.568 71.5435 133.582 71.6715 133.616C71.4133 133.706 71.1341 133.716 70.8699 133.646C70.7297 133.586 70.6104 133.486 70.5271 133.358C70.4438 133.231 70.4001 133.081 70.4018 132.929C70.3989 132.827 70.3705 132.729 70.3193 132.642C70.2681 132.554 70.1956 132.482 70.1087 132.43C70.0074 132.368 69.8908 132.335 69.7719 132.336C69.6608 132.309 69.5328 132.309 69.4082 132.262Z" fill="white"/>
<path d="M92.2539 140.146C92.5115 140.061 92.7873 140.047 93.0521 140.106C93.1958 140.16 93.3198 140.256 93.4081 140.382C93.4964 140.507 93.5449 140.656 93.5472 140.81C93.5464 140.912 93.5712 141.013 93.6195 141.103C93.6678 141.193 93.7379 141.269 93.8234 141.325C93.918 141.387 94.0273 141.421 94.14 141.426C94.2646 141.453 94.3926 141.467 94.5206 141.5C94.2624 141.59 93.9832 141.601 93.719 141.531C93.5788 141.471 93.4595 141.371 93.3762 141.243C93.2928 141.115 93.2492 140.966 93.2508 140.813C93.248 140.712 93.2196 140.614 93.1684 140.526C93.1172 140.439 93.0447 140.366 92.9578 140.315C92.8565 140.253 92.7399 140.22 92.621 140.22C92.5099 140.197 92.3819 140.18 92.2539 140.146Z" fill="white"/>
<path d="M61.0327 134.376C60.7745 134.466 60.4953 134.477 60.2311 134.407C60.1753 134.386 60.1231 134.356 60.0762 134.319C60.093 134.208 60.1166 134.1 60.1402 133.982C60.1867 134.068 60.2538 134.141 60.3355 134.195C60.4301 134.256 60.5394 134.291 60.6521 134.296C60.7801 134.329 60.9047 134.329 61.0327 134.376Z" fill="white"/>
<path d="M77.2715 99.302C77.5284 99.214 77.8047 99.1989 78.0697 99.2582C78.2131 99.3127 78.3369 99.4088 78.4251 99.5343C78.5134 99.6597 78.562 99.8088 78.5648 99.9621C78.5623 100.064 78.5861 100.165 78.6339 100.255C78.6817 100.346 78.7518 100.422 78.8376 100.477C78.9319 100.54 79.0412 100.576 79.1542 100.582C79.2822 100.605 79.4068 100.619 79.5348 100.653C79.2779 100.743 78.9996 100.754 78.7366 100.683C78.596 100.624 78.4761 100.525 78.3921 100.398C78.3082 100.27 78.2639 100.121 78.265 99.9689C78.2631 99.8672 78.2351 99.7677 78.1838 99.6798C78.1325 99.592 78.0596 99.5187 77.972 99.467C77.87 99.4065 77.7538 99.374 77.6352 99.3727C77.5241 99.3458 77.3961 99.3323 77.2715 99.302Z" fill="white"/>
<path d="M90.8512 122.205C90.7313 122.448 90.5472 122.653 90.3191 122.798C90.1792 122.862 90.0232 122.882 89.8717 122.855C89.7202 122.829 89.5803 122.757 89.4704 122.65C89.3992 122.576 89.3105 122.522 89.2127 122.493C89.1148 122.463 89.0111 122.459 88.9113 122.481C88.8003 122.503 88.6977 122.556 88.6149 122.633C88.5071 122.704 88.4094 122.784 88.2949 122.848C88.4397 122.643 88.5475 122.39 88.8405 122.262C88.9818 122.206 89.1365 122.192 89.2856 122.223C89.4347 122.253 89.5715 122.327 89.6792 122.434C89.7516 122.505 89.8412 122.556 89.9392 122.582C90.0372 122.608 90.1402 122.608 90.2383 122.582C90.3485 122.555 90.4497 122.5 90.5313 122.421C90.6391 122.336 90.7401 122.256 90.8512 122.205Z" fill="white"/>
<path d="M66.296 117.133C66.1739 117.375 65.9889 117.58 65.7605 117.726C65.6651 117.768 65.5619 117.79 65.4574 117.79C65.353 117.79 65.2497 117.768 65.1543 117.726C65.1913 117.635 65.225 117.544 65.2654 117.453C65.3937 117.516 65.5399 117.534 65.6797 117.503C65.7904 117.473 65.8921 117.416 65.9761 117.338C66.0839 117.274 66.1849 117.197 66.296 117.133Z" fill="white"/>
<path d="M66.2965 128.035C66.1764 128.279 65.991 128.484 65.761 128.628C65.6219 128.692 65.4668 128.712 65.316 128.686C65.1652 128.66 65.0257 128.589 64.9157 128.483C64.8443 128.41 64.7558 128.356 64.6581 128.326C64.5604 128.296 64.4567 128.291 64.3566 128.311C64.2461 128.335 64.1439 128.387 64.0602 128.463C63.9524 128.534 63.8514 128.614 63.7402 128.678C63.8851 128.473 63.9928 128.22 64.2825 128.092C64.4239 128.035 64.5791 128.022 64.7283 128.053C64.8776 128.084 65.0143 128.159 65.1211 128.268C65.1949 128.337 65.2851 128.388 65.3834 128.414C65.4817 128.439 65.5849 128.44 65.6836 128.416C65.7936 128.386 65.8944 128.33 65.9766 128.251C66.0844 128.18 66.182 128.103 66.2965 128.035Z" fill="white"/>
<path d="M76.8878 139.045C76.7665 139.288 76.5814 139.492 76.3523 139.638C76.2124 139.702 76.0564 139.722 75.9049 139.695C75.7534 139.669 75.6135 139.597 75.5036 139.489C75.4324 139.416 75.3437 139.362 75.2459 139.333C75.148 139.303 75.0443 139.299 74.9445 139.321C74.8338 139.344 74.7314 139.396 74.6481 139.473C74.5437 139.543 74.4426 139.624 74.3281 139.688C74.4763 139.483 74.5807 139.23 74.8737 139.102C75.015 139.046 75.1697 139.032 75.3188 139.062C75.4679 139.093 75.6047 139.166 75.7124 139.274C75.785 139.345 75.8746 139.395 75.9725 139.421C76.0704 139.447 76.1734 139.448 76.2715 139.422C76.3824 139.394 76.4844 139.339 76.5678 139.26C76.6722 139.196 76.7834 139.116 76.8878 139.045Z" fill="white"/>
<path d="M77.6833 125.684C77.5611 125.926 77.3762 126.131 77.1478 126.277C77.0083 126.34 76.853 126.36 76.7022 126.334C76.5514 126.307 76.412 126.236 76.3024 126.129C76.1893 126.017 76.0377 125.953 75.8787 125.949C75.7196 125.945 75.5651 126.002 75.4469 126.109C75.3391 126.183 75.2381 126.26 75.127 126.328C75.2718 126.122 75.3762 125.87 75.6692 125.742C75.8102 125.683 75.9654 125.669 76.1148 125.699C76.2643 125.73 76.4011 125.804 76.5078 125.913C76.5816 125.983 76.6718 126.033 76.7701 126.059C76.8684 126.085 76.9716 126.086 77.0703 126.062C77.18 126.033 77.2808 125.978 77.3633 125.9C77.4576 125.826 77.5687 125.748 77.6833 125.684Z" fill="white"/>
<path d="M86.6625 136.789C86.5392 137.03 86.3545 137.235 86.1269 137.382C85.9871 137.446 85.8311 137.466 85.6796 137.439C85.5281 137.413 85.3881 137.341 85.2782 137.234C85.2071 137.16 85.1184 137.106 85.0206 137.077C84.9227 137.047 84.8189 137.043 84.7191 137.065C84.6082 137.087 84.5056 137.14 84.4227 137.217C84.315 137.288 84.2173 137.365 84.0859 137.432C84.2308 137.227 84.3385 136.974 84.6316 136.846C84.7728 136.79 84.9276 136.776 85.0766 136.806C85.2257 136.837 85.3625 136.911 85.4702 137.018C85.5426 137.089 85.6322 137.14 85.7302 137.166C85.8282 137.192 85.9312 137.192 86.0293 137.166C86.1402 137.138 86.2422 137.083 86.3257 137.005C86.4469 136.934 86.5513 136.853 86.6625 136.789Z" fill="white"/>
<path d="M84.4936 103.008C84.5787 103.265 84.5927 103.541 84.534 103.806C84.4799 103.95 84.3839 104.074 84.2583 104.162C84.1328 104.25 83.9836 104.299 83.8301 104.301C83.7279 104.3 83.6272 104.325 83.5372 104.373C83.4471 104.422 83.3707 104.492 83.3148 104.577C83.2523 104.672 83.2163 104.781 83.2104 104.894C83.1868 105.019 83.1733 105.146 83.1397 105.274C83.0484 105.017 83.0378 104.737 83.1094 104.473C83.169 104.333 83.2686 104.214 83.3957 104.131C83.5227 104.048 83.6715 104.004 83.8234 104.005C83.9249 104.002 84.024 103.973 84.1117 103.922C84.1994 103.871 84.2728 103.799 84.3252 103.712C84.3857 103.61 84.4183 103.494 84.4195 103.375C84.4431 103.254 84.4565 103.126 84.4936 103.008Z" fill="white"/>
<path d="M91.9409 131.266C92.0288 131.523 92.044 131.799 91.9847 132.064C91.9302 132.207 91.834 132.331 91.7086 132.419C91.5831 132.508 91.4341 132.556 91.2808 132.559C91.1785 132.558 91.0777 132.583 90.9876 132.631C90.8975 132.679 90.8211 132.749 90.7655 132.835C90.703 132.929 90.6669 133.039 90.661 133.152C90.6375 133.276 90.624 133.404 90.5903 133.529C90.4998 133.272 90.4892 132.994 90.56 132.731C90.6188 132.59 90.7181 132.47 90.8453 132.386C90.9724 132.302 91.1217 132.258 91.274 132.259C91.3755 132.258 91.4749 132.231 91.5627 132.18C91.6506 132.129 91.724 132.057 91.7759 131.97C91.8364 131.868 91.8689 131.751 91.8702 131.633C91.8803 131.518 91.8937 131.394 91.9409 131.266Z" fill="white"/>
<path d="M90.4777 114.439C90.5644 114.697 90.5784 114.973 90.5182 115.238C90.4647 115.381 90.3692 115.505 90.2443 115.593C90.1193 115.682 89.9706 115.73 89.8176 115.733C89.7149 115.731 89.6135 115.756 89.5228 115.804C89.4321 115.853 89.3551 115.923 89.2989 116.009C89.2371 116.103 89.2021 116.213 89.1979 116.326C89.1743 116.45 89.1575 116.578 89.1238 116.703C89.0355 116.445 89.0249 116.168 89.0935 115.905C89.1533 115.764 89.2533 115.644 89.3809 115.56C89.5085 115.476 89.6581 115.432 89.8109 115.433C89.9126 115.431 90.0121 115.403 90.0999 115.352C90.1878 115.3 90.261 115.228 90.3127 115.14C90.3693 115.043 90.4006 114.933 90.4036 114.82C90.4306 114.692 90.4441 114.567 90.4777 114.439Z" fill="white"/>
<path d="M82.7998 118.76C82.886 119.017 82.9012 119.293 82.8436 119.558C82.7891 119.701 82.6929 119.825 82.5675 119.913C82.442 120.002 82.293 120.05 82.1397 120.053C81.9801 120.054 81.8269 120.116 81.7116 120.226C81.5963 120.336 81.5277 120.486 81.5199 120.646C81.4964 120.77 81.4795 120.898 81.4458 121.023C81.3564 120.766 81.347 120.488 81.4189 120.225C81.4777 120.084 81.577 119.964 81.7041 119.88C81.8313 119.796 81.9806 119.752 82.1329 119.753C82.2344 119.752 82.3338 119.725 82.4216 119.674C82.5095 119.623 82.5829 119.551 82.6347 119.464C82.693 119.361 82.7253 119.245 82.729 119.127C82.7526 119.012 82.7661 118.888 82.7998 118.76Z" fill="white"/>
<path d="M65.6945 137.119C65.7797 137.377 65.7936 137.653 65.735 137.917C65.6813 138.061 65.5853 138.186 65.4597 138.274C65.334 138.362 65.1846 138.411 65.031 138.412C64.9288 138.411 64.8278 138.436 64.7377 138.484C64.6475 138.532 64.5712 138.603 64.5157 138.689C64.4543 138.782 64.4194 138.89 64.4147 139.002C64.3911 139.13 64.3743 139.258 64.3406 139.382C64.2523 139.125 64.2417 138.847 64.3103 138.584C64.3701 138.444 64.47 138.324 64.5977 138.24C64.7253 138.156 64.8749 138.112 65.0277 138.113C65.1294 138.111 65.2289 138.083 65.3167 138.031C65.4045 137.98 65.4778 137.907 65.5295 137.82C65.5861 137.722 65.6174 137.612 65.6204 137.5C65.6474 137.362 65.671 137.247 65.6945 137.119Z" fill="white"/>
<path d="M71.2138 110.646C71.3001 110.904 71.3152 111.18 71.2576 111.445C71.2032 111.588 71.107 111.712 70.9815 111.8C70.8561 111.888 70.7071 111.937 70.5537 111.94C70.3942 111.939 70.2406 112 70.125 112.11C70.0094 112.219 69.941 112.37 69.934 112.529C69.9104 112.657 69.8936 112.782 69.8599 112.91C69.7705 112.653 69.7611 112.374 69.833 112.112C69.8918 111.971 69.9911 111.851 70.1182 111.767C70.2454 111.683 70.3946 111.639 70.547 111.64C70.6487 111.638 70.7482 111.61 70.836 111.559C70.9239 111.508 70.9971 111.435 71.0488 111.347C71.1054 111.25 71.1367 111.14 71.1397 111.027C71.1667 110.899 71.1802 110.771 71.2138 110.646Z" fill="white"/>
<path d="M71.2134 121.723C71.2997 121.98 71.3148 122.256 71.2572 122.521C71.2027 122.664 71.1066 122.788 70.9811 122.876C70.8557 122.965 70.7067 123.013 70.5533 123.016C70.3938 123.015 70.2401 123.076 70.1246 123.186C70.009 123.296 69.9406 123.446 69.9336 123.605C69.91 123.733 69.8932 123.858 69.8595 123.986C69.7706 123.727 69.7612 123.448 69.8325 123.184C69.8915 123.044 69.9909 122.925 70.1181 122.841C70.2453 122.758 70.3945 122.714 70.5466 122.716C70.6481 122.713 70.7472 122.685 70.8349 122.634C70.9226 122.583 70.996 122.51 71.0484 122.423C71.1078 122.321 71.1391 122.205 71.1393 122.086C71.1663 121.975 71.1797 121.847 71.2134 121.723Z" fill="white"/>
<path d="M80.1181 131.266C80.2032 131.523 80.2172 131.799 80.1585 132.064C80.1048 132.208 80.0089 132.332 79.8832 132.42C79.7576 132.509 79.6082 132.557 79.4546 132.559C79.3524 132.558 79.2517 132.583 79.1617 132.631C79.0716 132.679 78.9952 132.75 78.9393 132.835C78.8779 132.93 78.843 133.039 78.8382 133.152C78.8113 133.276 78.7978 133.404 78.7641 133.529C78.6736 133.272 78.663 132.994 78.7338 132.731C78.7936 132.59 78.8936 132.47 79.0212 132.386C79.1489 132.303 79.2985 132.258 79.4512 132.259C79.5522 132.258 79.651 132.23 79.7383 132.179C79.8256 132.129 79.8984 132.056 79.9497 131.97C80.0111 131.868 80.0437 131.751 80.044 131.633C80.0676 131.518 80.0844 131.394 80.1181 131.266Z" fill="white"/>
<path d="M89.2129 108.699C89.335 108.457 89.52 108.253 89.7484 108.107C89.8885 108.044 90.0442 108.024 90.1955 108.051C90.3468 108.077 90.4867 108.148 90.5971 108.255C90.7092 108.368 90.8608 108.432 91.0198 108.436C91.1788 108.439 91.3328 108.38 91.4492 108.272C91.557 108.201 91.6581 108.123 91.786 108.056C91.6378 108.262 91.5334 108.514 91.2404 108.642C91.0992 108.699 90.9444 108.713 90.7954 108.682C90.6463 108.651 90.5095 108.578 90.4018 108.47C90.3287 108.399 90.2385 108.349 90.14 108.323C90.0415 108.297 89.9379 108.296 89.8393 108.322C89.7291 108.349 89.6279 108.405 89.5463 108.484C89.4251 108.555 89.3274 108.635 89.2129 108.699Z" fill="white"/>
<path d="M75.6094 107.568C75.7305 107.325 75.9157 107.121 76.1449 106.975C76.2842 106.911 76.4397 106.891 76.5907 106.918C76.7417 106.944 76.8811 107.016 76.9903 107.124C77.0614 107.197 77.1501 107.251 77.2479 107.28C77.3458 107.31 77.4495 107.314 77.5493 107.292C77.6603 107.27 77.7629 107.217 77.8457 107.14C77.9535 107.07 78.0545 106.992 78.1657 106.925C78.0209 107.13 77.9131 107.383 77.6234 107.511C77.4822 107.567 77.3274 107.581 77.1784 107.551C77.0293 107.52 76.8925 107.447 76.7848 107.339C76.7115 107.268 76.6213 107.218 76.5229 107.192C76.4244 107.166 76.321 107.166 76.2224 107.191C76.1121 107.218 76.0109 107.274 75.9293 107.353C75.8216 107.423 75.7239 107.504 75.6094 107.568Z" fill="white"/>
<path d="M72.9716 101.549C67.8927 105.742 49.6449 121.272 50.7428 126.786C51.8475 132.37 56.0744 136.89 59.3245 133.757C62.0189 131.188 73.9146 112.115 76.0735 107.015C78.1314 102.159 77.963 97.4268 72.9716 101.549Z" fill="#DD6A57"/>
<path d="M50.2793 125.235C50.2793 129.102 52.8693 136.39 57.8977 135.033C61.1916 134.147 74.8522 111.629 77.0549 106.287C79.6044 100.1 77.3917 97.6682 72.6765 101.316C67.9613 104.963 50.286 119.715 50.2793 125.235Z" fill="#6B675A"/>
<path d="M64.4635 109.046C64.2066 109.137 63.9283 109.148 63.6653 109.077C63.6251 109.06 63.5868 109.04 63.5508 109.016C63.6168 108.964 63.6797 108.907 63.7394 108.848L63.7697 108.871C63.8633 108.932 63.9714 108.967 64.0829 108.972C64.2109 108.999 64.3389 109.016 64.4635 109.046Z" fill="white"/>
<path d="M58.3594 122.178C58.6169 122.092 58.8927 122.079 59.1576 122.137C59.3018 122.19 59.4263 122.286 59.5148 122.412C59.6032 122.538 59.6513 122.687 59.6527 122.841C59.6519 122.943 59.6767 123.044 59.725 123.134C59.7732 123.224 59.8433 123.301 59.9289 123.356C60.0234 123.418 60.1328 123.453 60.2455 123.457C60.3701 123.484 60.4981 123.498 60.6227 123.532C60.3658 123.622 60.0875 123.633 59.8245 123.562C59.6839 123.502 59.5641 123.402 59.4802 123.274C59.3963 123.147 59.352 122.997 59.3529 122.844C59.3514 122.744 59.3239 122.645 59.2732 122.557C59.2225 122.47 59.1502 122.397 59.0633 122.346C58.9617 122.285 58.8452 122.252 58.7265 122.252C58.5985 122.225 58.4874 122.205 58.3594 122.178Z" fill="white"/>
<path d="M59.9731 133.35C59.899 133.431 59.8249 133.512 59.7508 133.586C59.7342 133.504 59.7007 133.426 59.6526 133.358C59.6045 133.289 59.5428 133.232 59.4713 133.188C59.369 133.129 59.2528 133.098 59.1345 133.097C59.0099 133.074 58.8819 133.057 58.7539 133.023C59.0115 132.938 59.2873 132.924 59.5521 132.983C59.6434 133.013 59.7277 133.06 59.8 133.123C59.8723 133.187 59.9312 133.264 59.9731 133.35Z" fill="white"/>
<path d="M66.2965 117.133C66.1754 117.376 65.9902 117.58 65.761 117.726C65.6218 117.79 65.4662 117.81 65.3152 117.783C65.1642 117.757 65.0248 117.685 64.9157 117.577C64.8445 117.504 64.7559 117.45 64.658 117.421C64.5602 117.391 64.4564 117.387 64.3566 117.409C64.2456 117.431 64.143 117.484 64.0602 117.561C63.9524 117.631 63.8514 117.709 63.7402 117.776C63.8851 117.571 63.9928 117.318 64.2825 117.19C64.4238 117.134 64.5785 117.12 64.7275 117.15C64.8766 117.181 65.0134 117.254 65.1211 117.362C65.1944 117.433 65.2846 117.483 65.383 117.509C65.4815 117.535 65.585 117.535 65.6836 117.51C65.7938 117.483 65.895 117.427 65.9766 117.348C66.0844 117.278 66.182 117.197 66.2965 117.133Z" fill="white"/>
<path d="M71.9757 102.334C72.0609 102.59 72.0749 102.865 72.0161 103.129C71.9639 103.273 71.8687 103.398 71.7435 103.486C71.6183 103.575 71.4689 103.623 71.3156 103.624C71.2129 103.623 71.1116 103.648 71.021 103.696C70.9304 103.744 70.8533 103.814 70.7969 103.9C70.7355 103.995 70.7006 104.104 70.6959 104.217C70.6723 104.345 70.6554 104.469 70.6218 104.597C70.5336 104.339 70.523 104.06 70.5915 103.796C70.6514 103.655 70.7515 103.536 70.8792 103.453C71.0069 103.37 71.1564 103.326 71.3088 103.328C71.4103 103.325 71.5095 103.296 71.5972 103.245C71.6848 103.194 71.7583 103.121 71.8107 103.035C71.87 102.932 71.9014 102.816 71.9016 102.698C71.9286 102.587 71.942 102.459 71.9757 102.334Z" fill="white"/>
<path d="M71.2138 110.646C71.3001 110.904 71.3152 111.18 71.2576 111.445C71.2032 111.588 71.107 111.712 70.9815 111.8C70.8561 111.888 70.7071 111.937 70.5537 111.94C70.3942 111.939 70.2406 112 70.125 112.11C70.0094 112.219 69.941 112.37 69.934 112.529C69.9104 112.657 69.8936 112.782 69.8599 112.91C69.7705 112.653 69.7611 112.374 69.833 112.112C69.8918 111.971 69.9911 111.851 70.1182 111.767C70.2454 111.683 70.3946 111.639 70.547 111.64C70.6487 111.638 70.7482 111.61 70.836 111.559C70.9239 111.508 70.9971 111.435 71.0488 111.347C71.1054 111.25 71.1367 111.14 71.1397 111.027C71.1667 110.899 71.1802 110.771 71.2138 110.646Z" fill="white"/>
<path d="M55.255 128.365C55.3401 128.623 55.3541 128.899 55.2954 129.163C55.2423 129.307 55.147 129.431 55.0219 129.52C54.8969 129.608 54.748 129.656 54.5949 129.659C54.4922 129.657 54.3909 129.682 54.3003 129.73C54.2097 129.779 54.1326 129.849 54.0762 129.935C54.0148 130.029 53.9799 130.139 53.9752 130.251C53.9516 130.376 53.9347 130.504 53.9011 130.632C53.8129 130.373 53.8023 130.095 53.8708 129.83C53.9307 129.69 54.0308 129.571 54.1585 129.487C54.2862 129.404 54.4357 129.361 54.5881 129.362C54.6896 129.359 54.7888 129.331 54.8764 129.28C54.9641 129.228 55.0375 129.156 55.09 129.069C55.1493 128.967 55.1807 128.851 55.1809 128.732C55.2078 128.621 55.2281 128.493 55.255 128.365Z" fill="white"/>
<path d="M76.7571 106.968C76.7201 107.052 76.6763 107.143 76.6325 107.234C76.5052 107.171 76.3594 107.155 76.2216 107.19C76.1113 107.217 76.0102 107.273 75.9286 107.352C75.8208 107.423 75.7231 107.504 75.5918 107.568C75.7434 107.359 75.841 107.116 76.1273 106.975C76.2252 106.927 76.3325 106.902 76.4415 106.9C76.5504 106.899 76.6582 106.922 76.7571 106.968Z" fill="white"/>
<path d="M73.8053 114.078C73.3506 114.711 72.8488 115.311 72.3638 115.92L72.027 116.358C72.3301 115.777 72.6265 115.191 72.9161 114.6C73.3588 113.754 73.7557 112.885 74.105 111.997C74.1286 111.94 74.0411 111.913 74.0107 111.96C73.5561 112.674 73.1923 113.435 72.7612 114.162C72.3301 114.89 71.9159 115.627 71.505 116.365C70.6764 117.837 69.821 119.302 68.9486 120.743C67.1939 123.626 65.3247 126.445 63.3915 129.214C62.8492 129.989 62.3137 130.77 61.7445 131.528C61.1753 132.286 60.6398 133.107 60.0605 133.869C60.0403 133.895 60.0774 133.933 60.1009 133.906C60.6465 133.232 61.209 132.602 61.7647 131.952C62.3204 131.302 62.792 130.625 63.314 129.952C64.3547 128.604 65.3348 127.23 66.298 125.832C68.2182 123.019 69.9954 120.111 71.6228 117.119L71.7407 116.89C72.0169 116.597 72.2863 116.294 72.5423 115.978C73.0239 115.378 73.4416 114.735 73.8626 114.092C73.876 114.075 73.8255 114.048 73.8053 114.078Z" fill="#263238"/>
<path d="M84.3015 98.7034C84.3015 98.7034 85.4163 103.27 84.0859 103.9C81.6037 105.076 77.1681 101.425 76.8784 100.771C76.8077 100.603 76.4372 96.2145 76.161 92.8061C75.9791 90.6101 75.8242 88.8184 75.8242 88.8184L84.5305 92.2706L84.3351 98.2723L84.3015 98.7034Z" fill="#DD6A57"/>
<path d="M84.5293 92.2706L84.3339 98.2723C82.6666 97.985 81.0786 97.3498 79.6731 96.408C78.2676 95.4662 77.0763 94.2389 76.1766 92.8061C75.9948 90.6101 75.8398 88.8184 75.8398 88.8184L76.9277 89.209L84.5293 92.2706Z" fill="#263238"/>
<path d="M86.1288 85.4474C86.2602 87.9027 88.1126 89.7955 90.2647 89.6776C92.4169 89.5598 94.0537 87.4783 93.9224 85.0264C93.791 82.5745 91.9353 80.6783 89.7831 80.7962C87.631 80.9141 85.9941 82.9955 86.1288 85.4474Z" fill="#455A64"/>
<path d="M84.8671 85.6718C85.0153 88.3999 87.0765 90.5049 89.4712 90.387C91.8658 90.2691 93.6845 87.9385 93.5397 85.2104C93.3949 82.4823 91.3303 80.374 88.9356 80.4952C86.541 80.6165 84.7257 82.9404 84.8671 85.6718Z" fill="#C7C7C7"/>
<path d="M92.1825 83.6623C92.9942 94.1704 86.7937 95.8443 84.527 96.0161C82.4692 96.1744 75.4335 96.4472 73.5474 86.0771C71.6613 75.7071 76.2822 72.009 80.957 71.3994C85.6317 70.7898 91.3674 73.1508 92.1825 83.6623Z" fill="#DD6A57"/>
<path d="M88.9079 81.7882C88.6667 81.7576 88.4273 81.7149 88.1905 81.6602C87.9323 81.6489 87.685 81.5531 87.4866 81.3874C87.4358 81.3219 87.4082 81.2413 87.4082 81.1584C87.4082 81.0755 87.4358 80.9949 87.4866 80.9294C87.6024 80.8111 87.748 80.7262 87.908 80.6835C88.068 80.6408 88.2365 80.642 88.3959 80.6869C88.7334 80.7262 89.0443 80.8894 89.2682 81.1449C89.3162 81.2071 89.3449 81.2821 89.3506 81.3604C89.3564 81.4388 89.339 81.5171 89.3006 81.5856C89.2622 81.6542 89.2045 81.7099 89.1347 81.7459C89.0648 81.782 88.986 81.7967 88.9079 81.7882Z" fill="#263238"/>
<path d="M81.6977 82.3512C81.9354 82.2991 82.1703 82.235 82.4016 82.1592C82.6567 82.1232 82.8932 82.0049 83.0752 81.8224C83.122 81.7545 83.1447 81.6728 83.1398 81.5905C83.1349 81.5081 83.1027 81.4297 83.0482 81.3678C82.9227 81.26 82.7705 81.1879 82.6076 81.1589C82.4448 81.1299 82.2771 81.145 82.122 81.2027C81.7894 81.2711 81.494 81.4608 81.2935 81.7349C81.2501 81.8003 81.2268 81.877 81.2266 81.9555C81.2263 82.0339 81.2491 82.1108 81.2922 82.1764C81.3352 82.2421 81.3966 82.2936 81.4687 82.3247C81.5408 82.3558 81.6204 82.365 81.6977 82.3512Z" fill="#263238"/>
<path d="M83.519 84.9125C83.519 84.8855 83.4685 84.9529 83.4718 84.9799C83.556 85.6939 83.5358 86.5258 82.9094 86.8188C82.8892 86.8188 82.9094 86.8626 82.9094 86.8592C83.6975 86.6773 83.7143 85.5726 83.519 84.9125Z" fill="#263238"/>
<path d="M82.8153 84.2208C81.6567 84.2208 81.7712 86.548 82.8456 86.5346C83.92 86.5211 83.7853 84.2073 82.8153 84.2208Z" fill="#263238"/>
<path d="M82.3679 84.3667C82.1726 84.5081 81.984 84.7473 81.7415 84.7843C81.499 84.8214 81.2363 84.5957 81.041 84.3701C81.0207 84.3465 81.0039 84.3701 81.0039 84.4004C81.0039 84.8416 81.2127 85.2895 81.6775 85.3333C82.1423 85.3771 82.405 84.9628 82.4926 84.5115C82.5094 84.4273 82.4454 84.3094 82.3679 84.3667Z" fill="#263238"/>
<path d="M87.7001 84.4438C87.7001 84.4135 87.7573 84.4741 87.7573 84.5044C87.7573 85.2218 87.892 86.0436 88.5522 86.2524C88.5724 86.2524 88.5724 86.2962 88.5522 86.2928C87.7506 86.2154 87.5923 85.1241 87.7001 84.4438Z" fill="#263238"/>
<path d="M88.3088 83.6658C89.4573 83.5311 89.656 85.8415 88.5783 85.9662C87.5005 86.0908 87.3456 83.7803 88.3088 83.6658Z" fill="#263238"/>
<path d="M88.8017 83.7787C88.9937 83.8864 89.1924 84.0952 89.4113 84.0919C89.6302 84.0885 89.8323 83.8224 89.9771 83.5698C89.9771 83.5429 90.0108 83.5698 90.0142 83.5934C90.0613 84.0313 89.9536 84.5028 89.5359 84.624C89.1183 84.7453 88.8388 84.3748 88.7007 83.9504C88.6737 83.8629 88.7243 83.7349 88.8017 83.7787Z" fill="#263238"/>
<path d="M84.1729 90.4646C84.3447 90.633 84.5097 90.862 84.7791 90.8822C85.046 90.8756 85.3087 90.8137 85.5504 90.7004C85.5553 90.6963 85.5616 90.6944 85.5679 90.6951C85.5743 90.6957 85.5801 90.6988 85.5841 90.7037C85.5881 90.7086 85.59 90.715 85.5894 90.7213C85.5887 90.7276 85.5856 90.7334 85.5807 90.7374C85.4787 90.8787 85.3402 90.9897 85.1801 91.0585C85.0199 91.1273 84.8441 91.1513 84.6714 91.1281C84.5247 91.0922 84.3922 91.0129 84.2912 90.9005C84.1903 90.7882 84.1256 90.648 84.1055 90.4983C84.0921 90.4545 84.1493 90.441 84.1729 90.4646Z" fill="#263238"/>
<path d="M87.0088 87.694C87.0088 87.694 87.2244 88.7549 87.2547 89.2601C87.2547 89.3073 87.1368 89.3376 86.965 89.3578C86.965 89.3578 86.965 89.3578 86.9448 89.3578C86.5164 89.464 86.067 89.4498 85.6462 89.3166C85.2254 89.1835 84.8496 88.9367 84.5603 88.6034C84.5232 88.5562 84.5839 88.5023 84.631 88.5293C85.3018 88.9294 86.0835 89.103 86.8606 89.0244C86.8876 88.8829 86.4363 87.2191 86.5238 87.209C86.9178 87.22 87.3086 87.2834 87.6858 87.3976C87.3086 85.1748 86.5743 83.0192 86.2274 80.8132C86.2265 80.7974 86.2309 80.7817 86.2399 80.7687C86.249 80.7557 86.2621 80.7461 86.2772 80.7414C86.2924 80.7368 86.3087 80.7373 86.3234 80.743C86.3382 80.7487 86.3507 80.7592 86.3588 80.7728C87.285 82.9653 87.7801 85.5116 88.2314 87.7984C88.2786 88.0813 87.2244 87.7681 87.0088 87.694Z" fill="#263238"/>
<path d="M86.615 89.1051C86.3821 89.4961 86.0528 89.8208 85.6585 90.0481C85.4395 90.1637 85.19 90.2084 84.9445 90.1761C84.4056 90.102 84.3383 89.6271 84.3854 89.2061C84.4119 88.9828 84.4651 88.7634 84.5437 88.5527C85.1572 88.954 85.8833 89.1476 86.615 89.1051Z" fill="#263238"/>
<path d="M85.6585 90.0472C85.4395 90.1628 85.19 90.2075 84.9445 90.1752C84.4056 90.1011 84.3383 89.6262 84.3854 89.2052C84.9479 89.1984 85.5407 89.5083 85.6585 90.0472Z" fill="#F392B9"/>
<path d="M73.7033 85.1336C74.8518 85.1336 77.9908 82.1294 78.3646 76.6092C78.3646 76.6092 77.691 81.5434 77.2768 82.2506C76.8625 82.9579 79.0315 80.5666 79.3952 76.1142C79.3952 76.1142 81.7731 78.0204 83.8444 78.7176C85.9157 79.4148 87.2124 79.4619 87.3673 79.3171C87.5222 79.1723 84.4776 78.0406 83.6894 77.0302C83.6894 77.0302 89.1557 79.92 91.7255 80.2467C92.0219 80.2837 91.3382 75.71 87.4818 72.9011C83.6254 70.0922 78.5162 71.042 76.7345 72.5946C76.7345 72.5946 74.7137 72.7765 72.4067 75.6258C70.0996 78.4751 72.4673 85.1572 73.7033 85.1336Z" fill="#263238"/>
<path d="M75.2807 86.7578C75.2807 86.7578 73.0106 83.4437 71.5085 84.252C70.0064 85.0603 71.6938 89.8429 73.4418 90.5131C73.66 90.614 73.8963 90.6698 74.1366 90.6771C74.3769 90.6844 74.6162 90.6431 74.8402 90.5557C75.0641 90.4683 75.2681 90.3365 75.4399 90.1683C75.6116 90.0001 75.7477 89.7989 75.8398 89.5768L75.2807 86.7578Z" fill="#DD6A57"/>
<path d="M72.0285 85.6113C72.0241 85.6131 72.0204 85.6161 72.0177 85.62C72.0151 85.6239 72.0137 85.6285 72.0137 85.6332C72.0137 85.6379 72.0151 85.6425 72.0177 85.6464C72.0204 85.6503 72.0241 85.6534 72.0285 85.6551C73.2544 86.167 73.891 87.3122 74.3322 88.4977C73.9718 88.0397 73.4734 87.7837 72.8604 88.2148C72.8301 88.2384 72.8604 88.2889 72.8941 88.2788C73.1107 88.2129 73.3423 88.2154 73.5575 88.2859C73.7726 88.3564 73.9608 88.4915 74.0964 88.6728C74.3216 88.9788 74.5125 89.3086 74.6656 89.6563C74.7229 89.7674 74.9216 89.7102 74.8812 89.5822V89.5552C74.9081 87.9858 73.7091 85.7831 72.0285 85.6113Z" fill="#263238"/>
<path d="M74.4264 90.0546C74.4243 90.128 74.4005 90.1991 74.358 90.259C74.3155 90.3188 74.2561 90.3646 74.1875 90.3907C74.1189 90.4167 74.0441 90.4218 73.9725 90.4053C73.901 90.3887 73.836 90.3513 73.7858 90.2978C73.7356 90.2442 73.7024 90.177 73.6905 90.1046C73.6785 90.0321 73.6884 89.9578 73.7188 89.891C73.7491 89.8242 73.7987 89.7679 73.8611 89.7293C73.9235 89.6906 73.996 89.6714 74.0694 89.6741C74.167 89.6776 74.2594 89.7196 74.3262 89.7908C74.3931 89.8621 74.4291 89.9569 74.4264 90.0546Z" fill="white"/>
<path d="M73.4162 89.3813C73.4149 89.4118 73.4076 89.4418 73.3947 89.4695C73.3818 89.4972 73.3636 89.5221 73.341 89.5427C73.3185 89.5633 73.2921 89.5793 73.2634 89.5898C73.2347 89.6002 73.2042 89.6049 73.1737 89.6036C73.1433 89.6027 73.1134 89.5958 73.0857 89.5833C73.0581 89.5707 73.0331 89.5528 73.0125 89.5306C72.9918 89.5083 72.9757 89.4821 72.9652 89.4536C72.9548 89.4251 72.95 89.3948 72.9514 89.3644C72.9523 89.3339 72.9592 89.3039 72.9716 89.276C72.9841 89.2481 73.002 89.223 73.0242 89.202C73.0464 89.1811 73.0725 89.1647 73.1011 89.1539C73.1296 89.143 73.16 89.1379 73.1905 89.1388C73.2522 89.1422 73.3101 89.1694 73.3521 89.2146C73.3942 89.2598 73.4172 89.3195 73.4162 89.3813Z" fill="white"/>
<path d="M71.6139 86.3401L70.8898 86.4917C70.871 86.4956 70.8516 86.4957 70.8327 86.4921C70.8139 86.4884 70.7959 86.481 70.7799 86.4704C70.7639 86.4597 70.7502 86.446 70.7396 86.43C70.729 86.414 70.7216 86.396 70.718 86.3771C70.71 86.3396 70.7172 86.3005 70.7381 86.2683C70.7589 86.2361 70.7917 86.2135 70.8292 86.2054L71.5533 86.0538C71.5721 86.0499 71.5915 86.0498 71.6104 86.0534C71.6292 86.0571 71.6472 86.0644 71.6632 86.0751C71.6791 86.0858 71.6928 86.0995 71.7035 86.1155C71.7141 86.1315 71.7214 86.1495 71.7251 86.1683C71.7331 86.2058 71.7258 86.245 71.705 86.2772C71.6842 86.3094 71.6514 86.332 71.6139 86.3401Z" fill="#6B675A"/>
<path d="M71.5333 85.8754L70.7957 85.9192C70.7764 85.9206 70.7571 85.9181 70.7387 85.9118C70.7204 85.9056 70.7036 85.8957 70.6891 85.8829C70.6747 85.87 70.663 85.8544 70.6547 85.8369C70.6464 85.8194 70.6416 85.8005 70.6408 85.7811C70.6389 85.7424 70.6524 85.7044 70.6782 85.6755C70.704 85.6465 70.7402 85.6288 70.7789 85.6262L71.5131 85.5824C71.5519 85.5796 71.5902 85.5922 71.6198 85.6174C71.6494 85.6426 71.668 85.6784 71.6714 85.7171C71.6733 85.7563 71.66 85.7946 71.6342 85.8241C71.6085 85.8536 71.5723 85.872 71.5333 85.8754Z" fill="#6B675A"/>
<path d="M73.1034 84.2275C73.1034 84.2275 72.2143 78.9263 73.484 75.8075C74.8986 72.3587 81.6514 69.4824 86.9358 72.5136C86.9358 72.5136 78.9065 70.9172 75.6193 75.8345C74.2351 77.9058 74.8986 84.1736 74.8986 84.1736L73.1034 84.2275Z" fill="#C7C7C7"/>
<path d="M74.5897 91.8159C76.9731 91.5545 78.6637 89.1406 78.3657 86.4244C78.0678 83.7083 75.8941 81.7183 73.5108 81.9797C71.1274 82.2412 69.4368 84.655 69.7348 87.3712C70.0327 90.0874 72.2064 92.0774 74.5897 91.8159Z" fill="#C7C7C7"/>
<path d="M77.0939 86.4093C77.3633 88.8511 75.8444 91.0201 73.7023 91.2559C71.5603 91.4916 69.6035 89.7032 69.3239 87.2614C69.0444 84.8196 70.5768 82.6473 72.7189 82.4149C74.8609 82.1825 76.8278 83.9675 77.0939 86.4093Z" fill="#455A64"/>
<path d="M82.7996 93.5877L79.2868 92.9613L75.9727 90.3713L76.3734 89.8594L79.5596 92.3517L82.9107 92.9478L82.7996 93.5877Z" fill="#C7C7C7"/>
<path d="M82.3385 93.1603C82.4328 92.1499 85.117 91.8905 84.9756 93.4061C84.8341 94.9217 82.2441 94.1639 82.3385 93.1603Z" fill="#37474F"/>
<path d="M84.3284 98.5723L83.4426 103.49L76.6123 98.9091L75.3965 101.085C75.3965 101.085 82.8061 109.07 82.7488 108.649L83.8131 104.355L87.0767 106.517L85.4432 99.7275L84.3284 98.5723Z" fill="white"/>
<path d="M59.7768 133.262C56.6513 137.077 51.5656 132.719 50.9863 129.324C49.6223 121.352 51.377 106.732 53.7009 99.8038C54.4486 97.5742 69.2543 101.825 69.2914 104.334C69.3284 106.968 66.1153 125.518 59.7768 133.262Z" fill="#DD6A57"/>
<path d="M53.3027 103.812C53.3027 103.812 53.525 96.4938 56.1285 91.6169C57.927 88.2489 62.659 81.3445 74.0597 80.8393C76.7541 80.7248 80.698 82.4762 76.3499 84.2713C73.2615 85.5444 70.9207 85.4198 69.2569 86.4874C69.2569 86.4874 73.9991 89.3098 74.0092 92.0211C74.0175 94.3937 73.8577 96.764 73.5309 99.1141C73.083 99.1533 72.633 99.1635 72.1837 99.1444C72.1837 99.1444 72.1164 101.684 69.2805 104.318L53.3027 103.812Z" fill="#DD6A57"/>
<path d="M58.3594 88.6727C60.232 87.962 64.2264 86.5205 67.9043 86.4801C71.9897 86.4329 79.8708 87.4433 79.8741 90.4577C79.8741 92.6705 76.8429 92.5492 76.8429 92.5492C76.8429 92.5492 80.0122 93.6539 79.5777 95.6511C79.1803 97.4732 76.8328 97.2375 76.8328 97.2375C76.8328 97.2375 78.6414 98.2479 77.9207 99.9319C77.0551 101.953 73.4076 99.5243 70.7637 100.814C70.1642 101.09 58.3594 88.6727 58.3594 88.6727Z" fill="#DD6A57"/>
<path d="M67.2329 90.8047C69.1055 90.4241 73.5749 90.6497 76.7913 92.4887C76.8654 92.5291 76.8721 92.6065 76.7913 92.583C73.6847 91.6215 70.4728 91.0413 67.2262 90.8552C67.2127 90.8417 67.2127 90.808 67.2329 90.8047Z" fill="#263238"/>
<path d="M67.4008 94.9253C69.0478 94.7636 73.6451 95.2014 76.8312 97.1616C76.9019 97.2054 76.9053 97.2862 76.8312 97.2593C73.7844 96.1403 70.6208 95.3698 67.4008 94.9623C67.3972 94.9607 67.3941 94.9581 67.392 94.9549C67.3898 94.9516 67.3887 94.9477 67.3887 94.9438C67.3887 94.9398 67.3898 94.936 67.392 94.9327C67.3941 94.9294 67.3972 94.9268 67.4008 94.9253Z" fill="#263238"/>
<path d="M79.5189 89.1447C79.0744 88.6529 78.4446 88.4711 77.8922 88.1343C77.8619 88.1174 77.835 88.1679 77.8653 88.1814C78.8386 88.5889 79.8591 89.5522 79.6975 90.6939C79.5021 92.0681 77.8552 92.4183 76.7134 92.4487C76.6562 92.4487 76.6831 92.5127 76.7404 92.5228C78.0101 92.745 79.8019 92.3038 80.0376 90.8084C80.0825 90.51 80.0592 90.2052 79.9693 89.917C79.8795 89.6288 79.7255 89.3648 79.5189 89.1447Z" fill="#263238"/>
<path d="M76.5553 92.4062C76.5249 92.4062 76.5014 92.4399 76.5317 92.4534C78.2898 93.127 79.3743 94.3496 79.4618 95.0434C79.5248 95.3793 79.4842 95.7264 79.3452 96.0386C79.2062 96.3508 78.9756 96.6134 78.6838 96.7914C78.0733 97.1277 77.3643 97.2397 76.6799 97.108C76.6226 97.108 76.6024 97.1821 76.6563 97.1922C77.4814 97.3437 79.0678 97.529 79.6403 96.1986C80.1186 95.0872 79.5831 93.2415 76.5553 92.4062Z" fill="#263238"/>
<path d="M77.8506 98.0221C77.4999 97.5303 76.9911 97.1737 76.4091 97.0117C76.3822 97.0117 76.362 97.0488 76.4091 97.0589C77.4195 97.4664 78.2851 98.6755 77.9618 99.7971C77.9416 99.8678 78.046 99.888 78.0696 99.824C78.1738 99.527 78.2082 99.21 78.1703 98.8975C78.1323 98.5851 78.0229 98.2855 77.8506 98.0221Z" fill="#263238"/>
<path d="M78.4029 82.425C78.322 81.9198 77.6855 81.4146 76.4629 81.1855C77.4733 81.4617 78.2109 82.0073 78.2041 82.4991C78.1974 82.9908 77.8337 83.5095 76.7626 84.0854C76.7323 84.0854 76.7626 84.1157 76.7862 84.1022C77.4194 83.8092 78.5443 83.331 78.4029 82.425Z" fill="#263238"/>
<path d="M52.5347 101.031L70.8566 107.201C70.8566 107.201 64.1813 127.763 61.0288 132.178C57.8764 136.594 53.5047 135.799 50.9821 130.323C48.4595 124.846 52.5347 101.031 52.5347 101.031Z" fill="#6B675A"/>
<path d="M62.2012 107.693C62.4587 107.608 62.7345 107.594 62.9994 107.653C63.143 107.707 63.2671 107.803 63.3554 107.929C63.4437 108.054 63.4922 108.203 63.4945 108.357C63.4937 108.459 63.5185 108.56 63.5668 108.65C63.615 108.74 63.6851 108.816 63.7707 108.872C63.8652 108.933 63.9746 108.968 64.0873 108.973C64.2119 109 64.3398 109.014 64.4645 109.047C64.2076 109.138 63.9293 109.148 63.6663 109.077C63.5257 109.018 63.4059 108.918 63.322 108.79C63.2381 108.662 63.1938 108.513 63.1947 108.36C63.1932 108.259 63.1657 108.16 63.115 108.073C63.0643 107.986 62.992 107.913 62.9051 107.862C62.8031 107.801 62.6869 107.769 62.5683 107.767C62.4538 107.744 62.3292 107.724 62.2012 107.693Z" fill="white"/>
<path d="M58.3594 122.178C58.6169 122.092 58.8927 122.079 59.1576 122.137C59.3018 122.19 59.4263 122.286 59.5148 122.412C59.6032 122.538 59.6513 122.687 59.6527 122.841C59.6519 122.943 59.6767 123.044 59.725 123.134C59.7732 123.224 59.8433 123.301 59.9289 123.356C60.0234 123.418 60.1328 123.453 60.2455 123.457C60.3701 123.484 60.4981 123.498 60.6227 123.532C60.3658 123.622 60.0875 123.633 59.8245 123.562C59.6839 123.502 59.5641 123.402 59.4802 123.274C59.3963 123.147 59.352 122.997 59.3529 122.844C59.3514 122.744 59.3239 122.645 59.2732 122.557C59.2225 122.47 59.1502 122.397 59.0633 122.346C58.9617 122.285 58.8452 122.252 58.7265 122.252C58.5985 122.225 58.4874 122.205 58.3594 122.178Z" fill="white"/>
<path d="M59.9942 133.4C59.9134 133.481 59.8325 133.555 59.7517 133.626C59.7399 133.536 59.7081 133.45 59.6585 133.374C59.609 133.299 59.543 133.235 59.4654 133.188C59.3635 133.128 59.2471 133.096 59.1286 133.097C59.004 133.074 58.876 133.057 58.748 133.023C59.0056 132.938 59.2814 132.924 59.5463 132.983C59.6469 133.015 59.7392 133.07 59.8166 133.142C59.8939 133.214 59.9546 133.302 59.9942 133.4Z" fill="white"/>
<path d="M66.2965 117.133C66.1754 117.376 65.9902 117.58 65.761 117.726C65.6218 117.79 65.4662 117.81 65.3152 117.783C65.1642 117.757 65.0248 117.685 64.9157 117.577C64.8445 117.504 64.7559 117.45 64.658 117.421C64.5602 117.391 64.4564 117.387 64.3566 117.409C64.2456 117.431 64.143 117.484 64.0602 117.561C63.9524 117.631 63.8514 117.709 63.7402 117.776C63.8851 117.571 63.9928 117.318 64.2825 117.19C64.4238 117.134 64.5785 117.12 64.7275 117.15C64.8766 117.181 65.0134 117.254 65.1211 117.362C65.1944 117.433 65.2846 117.483 65.383 117.509C65.4815 117.535 65.585 117.535 65.6836 117.51C65.7938 117.483 65.895 117.427 65.9766 117.348C66.0844 117.278 66.182 117.197 66.2965 117.133Z" fill="white"/>
<path d="M53.8207 118.43C53.6984 118.672 53.5134 118.876 53.2851 119.022C53.1453 119.086 52.9893 119.106 52.8378 119.08C52.6863 119.054 52.5463 118.982 52.4364 118.874C52.3653 118.801 52.2766 118.747 52.1788 118.717C52.0809 118.688 51.9771 118.684 51.8773 118.706C51.7664 118.728 51.6638 118.78 51.5809 118.857C51.4765 118.928 51.3755 119.009 51.2441 119.073C51.3923 118.868 51.4967 118.615 51.7898 118.487C51.931 118.43 52.0858 118.417 52.2348 118.447C52.3839 118.478 52.5207 118.551 52.6284 118.659C52.701 118.729 52.7906 118.78 52.8885 118.806C52.9864 118.832 53.0894 118.832 53.1875 118.807C53.2984 118.779 53.4004 118.723 53.4839 118.645C53.6051 118.575 53.7061 118.5 53.8207 118.43Z" fill="white"/>
<path d="M55.8583 104.932C55.7382 105.175 55.5528 105.38 55.3228 105.524C55.1837 105.588 55.0286 105.608 54.8778 105.582C54.727 105.557 54.5875 105.486 54.4774 105.38C54.4061 105.306 54.3175 105.252 54.2198 105.222C54.1221 105.192 54.0185 105.187 53.9183 105.208C53.8079 105.231 53.7057 105.284 53.622 105.359C53.5142 105.43 53.4131 105.511 53.2852 105.575C53.43 105.369 53.5378 105.117 53.8274 104.989C53.9688 104.932 54.124 104.918 54.2733 104.949C54.4225 104.98 54.5592 105.055 54.666 105.164C54.7398 105.234 54.83 105.284 54.9283 105.31C55.0266 105.336 55.1298 105.337 55.2285 105.312C55.3382 105.284 55.439 105.228 55.5215 105.151C55.6461 105.076 55.7472 104.999 55.8583 104.932Z" fill="white"/>
<path d="M57.6885 111.764C57.7747 112.021 57.7898 112.297 57.7322 112.562C57.6778 112.705 57.5816 112.829 57.4562 112.917C57.3307 113.006 57.1817 113.054 57.0283 113.057C56.9259 113.055 56.8246 113.079 56.7343 113.127C56.6439 113.176 56.5677 113.247 56.513 113.333C56.4486 113.425 56.4123 113.534 56.4086 113.646C56.385 113.774 56.3682 113.899 56.3345 114.027C56.2451 113.77 56.2357 113.491 56.3076 113.229C56.3664 113.088 56.4657 112.968 56.5928 112.884C56.72 112.8 56.8692 112.756 57.0216 112.757C57.1233 112.755 57.2228 112.727 57.3106 112.676C57.3985 112.625 57.4717 112.552 57.5234 112.464C57.5802 112.367 57.6125 112.257 57.6177 112.144C57.6413 112.03 57.6548 111.902 57.6885 111.764Z" fill="white"/>
<path d="M55.255 128.365C55.3401 128.623 55.3541 128.899 55.2954 129.163C55.2423 129.307 55.147 129.431 55.0219 129.52C54.8969 129.608 54.748 129.656 54.5949 129.659C54.4922 129.657 54.3909 129.682 54.3003 129.73C54.2097 129.779 54.1326 129.849 54.0762 129.935C54.0148 130.029 53.9799 130.139 53.9752 130.251C53.9516 130.376 53.9347 130.504 53.9011 130.632C53.8129 130.373 53.8023 130.095 53.8708 129.83C53.9307 129.69 54.0308 129.571 54.1585 129.487C54.2862 129.404 54.4357 129.361 54.5881 129.362C54.6896 129.359 54.7888 129.331 54.8764 129.28C54.9641 129.228 55.0375 129.156 55.09 129.069C55.1493 128.967 55.1807 128.851 55.1809 128.732C55.2078 128.621 55.2281 128.493 55.255 128.365Z" fill="white"/>
<path d="M68.8128 110.634C67.8164 110.18 66.7967 109.778 65.758 109.432C64.7139 109.027 63.6597 108.67 62.6056 108.31C60.5578 107.606 58.4932 106.98 56.4287 106.36C55.2263 105.996 54.0172 105.686 52.8148 105.35C52.771 105.35 52.7542 105.424 52.8148 105.441C54.8827 106.215 56.944 107.02 59.0287 107.744C61.1135 108.468 63.1276 109.139 65.1955 109.748C65.7849 109.923 66.3811 110.085 66.9738 110.243C67.5764 110.442 68.1905 110.604 68.8128 110.728C68.8431 110.735 68.8566 110.658 68.8128 110.634Z" fill="#263238"/>
<path d="M71.2265 107.248C71.176 107.083 69.1451 106.554 69.0407 106.523C69.0104 106.523 68.9969 106.564 69.0407 106.574C69.1384 106.608 70.8594 107.325 70.8527 107.338C69.8423 110.033 68.9194 112.754 67.9495 115.462C66.9795 118.17 65.9859 120.885 65.0698 123.623C64.5545 125.155 64.5882 125.307 65.1338 123.986C65.6794 122.666 66.2385 121.582 66.7403 120.241C67.7507 117.547 68.6971 114.809 69.6436 112.081C70.169 110.535 71.2434 107.301 71.2265 107.248Z" fill="#263238"/>
<path d="M103.209 139.257H92.7883C91.7786 139.256 90.8106 138.854 90.0969 138.14C89.3833 137.425 88.9824 136.457 88.9824 135.447C88.982 134.947 89.0801 134.452 89.2711 133.989C89.4621 133.527 89.7423 133.107 90.0957 132.753C90.4491 132.399 90.8688 132.118 91.3308 131.926C91.7928 131.734 92.288 131.635 92.7883 131.635H103.209C104.219 131.636 105.187 132.037 105.9 132.752C106.614 133.466 107.015 134.434 107.015 135.444C107.015 135.944 106.917 136.44 106.726 136.902C106.535 137.364 106.255 137.784 105.901 138.138C105.548 138.492 105.128 138.773 104.666 138.965C104.204 139.157 103.709 139.256 103.209 139.257Z" fill="#455A64"/>
<path d="M95.0703 135.384C95.0751 135.263 95.1149 135.146 95.1848 135.047C95.2118 135 95.2454 134.956 95.2758 134.909L95.4778 134.711C95.5553 134.653 95.6294 134.596 95.7102 134.542C96.0303 134.339 96.3874 134.2 96.761 134.135C97.6215 133.963 98.5074 133.963 99.3679 134.135C99.7369 134.198 100.09 134.334 100.405 134.535C100.489 134.589 100.567 134.65 100.648 134.707L100.84 134.903C100.891 134.976 100.938 135.053 100.981 135.132C101.014 135.213 101.042 135.296 101.065 135.381H101.005H99.3477C99.3339 135.383 99.32 135.38 99.3078 135.374C99.2957 135.367 99.286 135.356 99.2803 135.344C99.2339 135.253 99.1642 135.176 99.0784 135.121C98.9926 135.066 98.8938 135.035 98.7919 135.031C98.2962 134.999 97.799 134.999 97.3033 135.031C97.2018 135.035 97.1032 135.065 97.0174 135.12C96.9316 135.174 96.8618 135.25 96.8149 135.34C96.8119 135.352 96.8049 135.363 96.7951 135.37C96.7853 135.377 96.7733 135.381 96.761 135.381H95.077L95.0703 135.384Z" fill="white"/>
<path d="M95.0678 136.352V135.769C95.066 135.756 95.066 135.742 95.0678 135.729H96.7518C96.7518 135.766 96.7518 135.809 96.7518 135.85C96.7518 136.015 96.7518 136.187 96.7518 136.345C96.7556 136.374 96.7527 136.404 96.7433 136.432C96.7338 136.46 96.718 136.485 96.6972 136.506C96.6764 136.527 96.651 136.542 96.6231 136.552C96.5952 136.561 96.5654 136.564 96.5362 136.56H95.2766C95.2484 136.564 95.2198 136.56 95.193 136.551C95.1662 136.542 95.1419 136.526 95.1218 136.506C95.1017 136.486 95.0864 136.462 95.0771 136.435C95.0677 136.408 95.0645 136.38 95.0678 136.352Z" fill="white"/>
<path d="M99.3684 136.35C99.3684 136.138 99.3684 135.929 99.3852 135.717H101.049C101.049 135.717 101.049 135.74 101.049 135.754V136.35C101.052 136.378 101.049 136.406 101.04 136.432C101.031 136.459 101.016 136.483 100.996 136.502C100.976 136.522 100.952 136.537 100.926 136.546C100.899 136.556 100.871 136.559 100.844 136.555H99.5705C99.543 136.558 99.5152 136.555 99.4892 136.545C99.4633 136.536 99.4397 136.521 99.4204 136.501C99.401 136.481 99.3863 136.457 99.3773 136.431C99.3683 136.405 99.3652 136.377 99.3684 136.35Z" fill="white"/>
<path d="M168.855 80.369C169.701 81.2141 170.295 82.2791 170.569 83.4437C170.843 84.6083 170.786 85.8263 170.404 86.9601L166.682 83.2553L163.941 84.5588L162.634 87.3037L166.339 91.0287C165.253 91.3932 164.089 91.461 162.968 91.225C161.848 90.9891 160.81 90.458 159.963 89.6867C159.116 88.9153 158.491 87.9318 158.152 86.8377C157.813 85.7436 157.772 84.5788 158.034 83.4637C158.295 82.3485 158.85 81.3236 159.641 80.4949C160.432 79.6662 161.43 79.0637 162.531 78.7499C163.633 78.4361 164.798 78.4223 165.907 78.7099C167.016 78.9975 168.028 79.5761 168.838 80.3858L168.855 80.369Z" fill="#6B675A"/>
<path d="M139.251 68.9439C138.405 68.0985 137.811 67.0336 137.538 65.8691C137.264 64.7045 137.321 63.4867 137.702 62.3527L141.424 66.0744L144.165 64.7676L145.472 62.026L141.75 58.301C142.836 57.9365 144 57.8687 145.121 58.1047C146.242 58.3406 147.279 58.8717 148.126 59.6431C148.973 60.4144 149.598 61.398 149.937 62.492C150.277 63.5861 150.317 64.7509 150.056 65.866C149.794 66.9812 149.239 68.0061 148.448 68.8348C147.657 69.6635 146.66 70.266 145.558 70.5798C144.456 70.8936 143.291 70.9074 142.182 70.6198C141.073 70.3322 140.061 69.7536 139.251 68.9439Z" fill="#6B675A"/>
<path d="M147.584 64.1369L143.535 68.1855L160.008 84.6586L164.057 80.61L147.584 64.1369Z" fill="#6B675A"/>
<path d="M99.1151 75.1263C98.4626 74.16 98.111 73.022 98.1047 71.856C98.1047 67.7134 102.655 64.3555 108.263 64.3555C113.87 64.3555 118.417 67.7235 118.417 71.856C118.417 75.9885 113.87 79.3599 108.263 79.3599C105.77 79.3996 103.326 78.6756 101.257 77.2852L97.7578 78.1744L99.1151 75.1263Z" fill="#6B675A"/>
<path d="M111.914 71.8555C111.913 72.0643 111.975 72.2686 112.09 72.4424C112.206 72.6163 112.371 72.752 112.563 72.8322C112.756 72.9124 112.968 72.9335 113.173 72.893C113.378 72.8524 113.566 72.7519 113.714 72.6043C113.861 72.4567 113.962 72.2685 114.002 72.0637C114.043 71.8589 114.022 71.6467 113.942 71.4539C113.861 71.2611 113.726 71.0965 113.552 70.981C113.378 70.8654 113.174 70.804 112.965 70.8047C112.686 70.8056 112.42 70.9166 112.223 71.1135C112.026 71.3103 111.915 71.5771 111.914 71.8555Z" fill="#263238"/>
<path d="M108.259 72.9091C108.841 72.9091 109.313 72.4372 109.313 71.855C109.313 71.2728 108.841 70.8008 108.259 70.8008C107.677 70.8008 107.205 71.2728 107.205 71.855C107.205 72.4372 107.677 72.9091 108.259 72.9091Z" fill="#263238"/>
<path d="M102.5 71.8555C102.499 72.0643 102.561 72.2686 102.676 72.4424C102.792 72.6163 102.956 72.752 103.149 72.8322C103.342 72.9124 103.554 72.9335 103.759 72.893C103.964 72.8524 104.152 72.7519 104.3 72.6043C104.447 72.4567 104.548 72.2685 104.588 72.0637C104.629 71.8589 104.608 71.6467 104.527 71.4539C104.447 71.2611 104.312 71.0965 104.138 70.981C103.964 70.8654 103.76 70.804 103.551 70.8047C103.272 70.8056 103.006 70.9166 102.809 71.1135C102.612 71.3103 102.501 71.5771 102.5 71.8555Z" fill="#263238"/>
</svg>
