<svg width="101" height="63" viewBox="0 0 101 63" fill="none" xmlns="http://www.w3.org/2000/svg">
<path d="M77.8959 7.61933L79.1797 5.54879L78.5416 5.15698C78.4513 5.09938 78.3787 5.01769 78.3322 4.92112C78.2857 4.82454 78.2671 4.71691 78.2784 4.61031C78.2882 4.49185 78.2918 4.37296 78.2892 4.25413C78.2867 4.14541 78.3144 4.03812 78.369 3.94411C78.4237 3.8501 78.5032 3.77302 78.5989 3.72139L79.2571 3.36985L78.1049 1.22188L77.4483 1.57342C77.3558 1.6239 77.2511 1.64773 77.1458 1.64226C77.0406 1.63679 76.9389 1.60224 76.8521 1.54245C76.7468 1.46706 76.6366 1.39876 76.5222 1.33803C76.4285 1.28854 76.3505 1.21393 76.2969 1.12256C76.2433 1.03119 76.2162 0.92669 76.2187 0.820781L76.2419 0.0758832L73.8074 0L73.7873 0.744897C73.7837 0.850552 73.7509 0.953154 73.6927 1.04141C73.6346 1.12966 73.5531 1.20015 73.4574 1.24511C73.4001 1.27144 73.3429 1.29931 73.2871 1.32874L73.1229 1.4232C73.0333 1.47825 72.9301 1.50739 72.8248 1.50739C72.7196 1.50739 72.6164 1.47825 72.5267 1.4232L71.8887 1.02675L70.6033 3.09729L71.2429 3.49374C71.3331 3.55129 71.4055 3.63268 71.4523 3.7289C71.499 3.82512 71.5182 3.93241 71.5077 4.03886C71.4974 4.15678 71.4932 4.27515 71.4953 4.3935C71.4988 4.50127 71.4724 4.60789 71.4191 4.70162C71.3658 4.79535 71.2877 4.87255 71.1933 4.92469L70.5352 5.27778L71.6873 7.42575L72.3455 7.07266C72.4413 7.02275 72.549 7.00038 72.6567 7.00803C72.7645 7.01569 72.8679 7.05307 72.9557 7.11602C73.0538 7.1821 73.1544 7.24404 73.2577 7.30186C73.3525 7.35129 73.4317 7.42615 73.4864 7.51805C73.5411 7.60995 73.5692 7.71527 73.5674 7.8222L73.5442 8.57484L75.9802 8.65073L76.0034 7.90273C76.0075 7.79598 76.0412 7.69247 76.1009 7.60384C76.1605 7.5152 76.2437 7.44495 76.341 7.40097C76.3952 7.37464 76.4494 7.34832 76.4959 7.31889C76.5423 7.28947 76.5996 7.26159 76.6508 7.23062C76.7423 7.17449 76.8477 7.14477 76.9551 7.14477C77.0625 7.14477 77.1678 7.17449 77.2594 7.23062L77.8959 7.61933ZM76.0545 5.94524C75.7156 6.1886 75.3089 6.31964 74.8917 6.31993C74.4744 6.32023 74.0676 6.18977 73.7283 5.94689C73.389 5.70401 73.1344 5.36093 73.0002 4.96585C72.8659 4.57078 72.8589 4.14357 72.98 3.74429C73.1011 3.345 73.3443 2.99371 73.6754 2.73977C74.0065 2.48584 74.4088 2.34203 74.8258 2.32857C75.2429 2.3151 75.6536 2.43266 76.0004 2.66471C76.3472 2.89676 76.6125 3.23164 76.7592 3.62228C76.9133 4.03309 76.9279 4.48327 76.8005 4.90318C76.6731 5.32308 76.411 5.68932 76.0545 5.94524Z" fill="#EBEBEB"/>
<path d="M2.68267 18.9676C2.74759 19.0057 2.80065 19.061 2.83593 19.1274C2.87121 19.1939 2.88731 19.2689 2.88245 19.3439C2.88245 19.3858 2.88245 19.4276 2.88245 19.4694C2.88245 19.5112 2.88245 19.5546 2.88245 19.5964C2.88753 19.6711 2.87167 19.7458 2.83666 19.812C2.80164 19.8782 2.74885 19.9333 2.68422 19.9711L2.23047 20.2329L3.08377 21.7118L3.53752 21.4501C3.60256 21.4125 3.67686 21.3941 3.75192 21.3968C3.82697 21.3995 3.89973 21.4234 3.96185 21.4656C4.03309 21.5105 4.10588 21.5539 4.18176 21.5926C4.24907 21.626 4.30582 21.6774 4.34572 21.7411C4.38563 21.8048 4.40713 21.8783 4.40786 21.9534V22.4753H6.11137V21.9534C6.11164 21.8785 6.13261 21.8052 6.17197 21.7415C6.21132 21.6778 6.26753 21.6263 6.33438 21.5926C6.41026 21.5539 6.48924 21.5105 6.55428 21.4656C6.61671 21.4234 6.68972 21.3996 6.76501 21.3969C6.84029 21.3941 6.91483 21.4126 6.98016 21.4501L7.43391 21.7118L8.28722 20.2329L7.83192 19.9696C7.76729 19.9317 7.7145 19.8766 7.67948 19.8104C7.64446 19.7442 7.62861 19.6695 7.63369 19.5948C7.63369 19.553 7.63369 19.5112 7.63369 19.4694C7.63369 19.4276 7.63369 19.3858 7.63369 19.3439C7.62864 19.2688 7.64467 19.1938 7.67997 19.1273C7.71526 19.0608 7.76843 19.0055 7.83346 18.9676L8.28722 18.7059L7.43391 17.2269L6.98171 17.4887C6.9163 17.5257 6.84195 17.544 6.76681 17.5416C6.69168 17.5391 6.61868 17.516 6.55583 17.4747C6.48486 17.428 6.41145 17.3851 6.33592 17.3462C6.26868 17.3128 6.21206 17.2614 6.17239 17.1977C6.13273 17.1339 6.1116 17.0604 6.11137 16.9854V16.4619H4.40786V16.9838C4.40728 17.0588 4.386 17.1322 4.34638 17.1958C4.30676 17.2595 4.25033 17.311 4.18331 17.3446C4.10728 17.3836 4.03335 17.4265 3.96185 17.4732C3.89931 17.5145 3.82656 17.5376 3.75166 17.5401C3.67676 17.5425 3.60264 17.5242 3.53752 17.4871L3.08532 17.2254L2.23202 18.7044L2.68267 18.9676ZM5.25962 18.071C5.53528 18.071 5.80475 18.1527 6.03396 18.3058C6.26317 18.459 6.44181 18.6767 6.5473 18.9314C6.65279 19.186 6.68039 19.4663 6.62662 19.7366C6.57284 20.007 6.44009 20.2554 6.24517 20.4503C6.05024 20.6452 5.8019 20.778 5.53153 20.8317C5.26116 20.8855 4.98092 20.8579 4.72624 20.7524C4.47156 20.6469 4.25388 20.4683 4.10073 20.2391C3.94758 20.0099 3.86584 19.7404 3.86584 19.4647C3.86584 19.0951 4.01268 18.7406 4.27407 18.4792C4.53545 18.2178 4.88996 18.071 5.25962 18.071Z" fill="#EBEBEB"/>
<path d="M92.9674 23.4993C93.0319 23.5376 93.0846 23.5931 93.1196 23.6595C93.1545 23.7259 93.1705 23.8007 93.1657 23.8756C93.1657 23.9174 93.1657 23.9592 93.1657 24.0026C93.1657 24.0459 93.1657 24.0862 93.1657 24.128C93.1705 24.2029 93.1545 24.2777 93.1196 24.3441C93.0846 24.4105 93.0319 24.466 92.9674 24.5043L92.5137 24.7661L93.367 26.2435L93.8207 25.9833C93.886 25.9459 93.9604 25.9274 94.0356 25.9299C94.1108 25.9323 94.1839 25.9557 94.2466 25.9972C94.317 26.0443 94.3905 26.0868 94.4665 26.1242C94.5334 26.1579 94.5896 26.2095 94.6289 26.2732C94.6683 26.3369 94.6893 26.4102 94.6895 26.4851V27.0085H96.393V26.4851C96.3936 26.4101 96.4149 26.3367 96.4545 26.273C96.4941 26.2094 96.5506 26.1579 96.6176 26.1242C96.6934 26.0864 96.7668 26.044 96.8375 25.9972C96.8999 25.9556 96.9727 25.9323 97.0477 25.9298C97.1226 25.9273 97.1968 25.9459 97.2618 25.9833L97.7156 26.2435L98.5689 24.7661L98.1136 24.5028C98.0492 24.4647 97.9966 24.4095 97.9616 24.3434C97.9266 24.2772 97.9106 24.2027 97.9153 24.128C97.9153 24.0857 97.9153 24.0439 97.9153 24.0026C97.9153 23.9592 97.9153 23.9174 97.9153 23.8756C97.9107 23.8005 97.9268 23.7257 97.9621 23.6592C97.9974 23.5928 98.0503 23.5374 98.1151 23.4993L98.5689 23.2376L97.7156 21.7601L97.2634 22.0203C97.1984 22.0578 97.1242 22.0763 97.0492 22.0738C96.9742 22.0714 96.9014 22.048 96.839 22.0064C96.7675 21.9602 96.6936 21.9178 96.6176 21.8794C96.5506 21.8457 96.4941 21.7943 96.4545 21.7306C96.4149 21.6669 96.3936 21.5935 96.393 21.5186V20.9951H94.6926V21.5186C94.6924 21.5936 94.6713 21.6671 94.6316 21.7309C94.5919 21.7946 94.5353 21.846 94.4681 21.8794C94.3926 21.9178 94.3191 21.9602 94.2482 22.0064C94.1854 22.048 94.1124 22.0713 94.0372 22.0738C93.962 22.0762 93.8876 22.0577 93.8223 22.0203L93.3701 21.7601L92.5168 23.2376L92.9674 23.4993ZM95.5428 22.6026C95.8185 22.6026 96.088 22.6844 96.3172 22.8375C96.5464 22.9907 96.725 23.2083 96.8305 23.463C96.936 23.7177 96.9636 23.9979 96.9098 24.2683C96.856 24.5387 96.7233 24.787 96.5284 24.9819C96.3334 25.1769 96.0851 25.3096 95.8147 25.3634C95.5444 25.4172 95.2641 25.3896 95.0094 25.2841C94.7548 25.1786 94.5371 24.9999 94.3839 24.7707C94.2308 24.5415 94.149 24.2721 94.149 23.9964C94.149 23.6267 94.2959 23.2722 94.5573 23.0108C94.8187 22.7495 95.1732 22.6026 95.5428 22.6026Z" fill="#EBEBEB"/>
<path d="M99.0812 12.6587H98.8535V12.5085H98.9294V12.4326H99.0812V12.6587Z" fill="#EBEBEB"/>
<path d="M98.5523 12.6588H98.2549V12.5039H98.5569L98.5523 12.6588ZM97.9483 12.6588H97.6463V12.5039H97.9452L97.9483 12.6588ZM97.3459 12.6588H97.0361V12.5039H97.3459V12.6588ZM96.7419 12.6588H96.4322V12.5039H96.7419V12.6588ZM96.1379 12.6588H95.8282V12.5039H96.1379V12.6588ZM95.534 12.6588H95.232V12.5039H95.534V12.6588ZM94.93 12.6588H94.628V12.5039H94.93V12.6588ZM94.326 12.6588H94.0163V12.5039H94.326V12.6588ZM93.722 12.6588H93.4123V12.5039H93.722V12.6588ZM93.1181 12.6588H92.8083V12.5039H93.1181V12.6588ZM92.5141 12.6588H92.2152V12.5039H92.5172L92.5141 12.6588ZM91.9101 12.6588H91.6081V12.5039H91.9055L91.9101 12.6588ZM91.3062 12.6588H90.9964V12.5039H91.3062V12.6588ZM90.7022 12.6588H90.3925V12.5039H90.7022V12.6588ZM90.0982 12.6588H89.7885V12.5039H90.0982V12.6588ZM89.4942 12.6588H89.1938V12.5039H89.4942V12.6588ZM88.8918 12.6588H88.5898V12.5039H88.8918V12.6588Z" fill="#EBEBEB"/>
<path d="M88.2882 12.6587H88.0605V12.4326H88.2123V12.5085H88.2882V12.6587Z" fill="#EBEBEB"/>
<path d="M88.2115 12.126H88.0566V11.8163H88.2115V12.126ZM88.2115 11.522H88.0566V11.2201H88.2115V11.522ZM88.2115 10.9181H88.0566V10.6083H88.2115V10.9181ZM88.2115 10.3141H88.0566V10.0044H88.2115V10.3141ZM88.2115 9.71013H88.0566V9.4004H88.2115V9.71013ZM88.2115 9.10616H88.0566V8.79643H88.2115V9.10616ZM88.2115 8.50219H88.0566V8.20485H88.2115V8.50219ZM88.2115 7.89977H88.0566V7.60243H88.2115V7.89977ZM88.2115 7.29579H88.0566V6.98607H88.2115V7.29579ZM88.2115 6.69182H88.0566V6.39603H88.2115V6.69182ZM88.2115 6.08785H88.0566V5.77812H88.2115V6.08785ZM88.2115 5.48388H88.0566V5.17415H88.2115V5.48388ZM88.2115 4.87991H88.0566V4.58257H88.2115V4.87991ZM88.2115 4.27594H88.0566V3.96621H88.2115V4.27594ZM88.2115 3.67197H88.0566V3.37463H88.2115V3.67197ZM88.2115 3.068H88.0566V2.77066H88.2115V3.068ZM88.2115 2.46403H88.0566V2.1543H88.2115V2.46403Z" fill="#EBEBEB"/>
<path d="M88.2123 1.86477H88.0605V1.63867H88.2882V1.79044H88.2123V1.86477Z" fill="#EBEBEB"/>
<path d="M98.5523 1.79061H98.2549V1.63574H98.5569L98.5523 1.79061ZM97.9483 1.79061H97.6463V1.63574H97.9452L97.9483 1.79061ZM97.3459 1.79061H97.0361V1.63574H97.3459V1.79061ZM96.7419 1.79061H96.4322V1.63574H96.7419V1.79061ZM96.1379 1.79061H95.8282V1.63574H96.1379V1.79061ZM95.534 1.79061H95.232V1.63574H95.534V1.79061ZM94.93 1.79061H94.628V1.63574H94.93V1.79061ZM94.326 1.79061H94.0163V1.63574H94.326V1.79061ZM93.722 1.79061H93.4123V1.63574H93.722V1.79061ZM93.1181 1.79061H92.8083V1.63574H93.1181V1.79061ZM92.5141 1.79061H92.2152V1.63574H92.5172L92.5141 1.79061ZM91.9101 1.79061H91.6081V1.63574H91.9055L91.9101 1.79061ZM91.3062 1.79061H90.9964V1.63574H91.3062V1.79061ZM90.7022 1.79061H90.3925V1.63574H90.7022V1.79061ZM90.0982 1.79061H89.7885V1.63574H90.0982V1.79061ZM89.4942 1.79061H89.1938V1.63574H89.4942V1.79061ZM88.8918 1.79061H88.5898V1.63574H88.8918V1.79061Z" fill="#EBEBEB"/>
<path d="M99.0812 1.86477H98.9294V1.79044H98.8535V1.63867H99.0812V1.86477Z" fill="#EBEBEB"/>
<path d="M99.0806 12.126H98.9258V11.8163H99.0806V12.126ZM99.0806 11.522H98.9258V11.2201H99.0806V11.522ZM99.0806 10.9181H98.9258V10.6083H99.0806V10.9181ZM99.0806 10.3141H98.9258V10.0044H99.0806V10.3141ZM99.0806 9.71013H98.9258V9.4004H99.0806V9.71013ZM99.0806 9.10616H98.9258V8.79643H99.0806V9.10616ZM99.0806 8.50219H98.9258V8.2064H99.0806V8.50219ZM99.0806 7.89977H98.9258V7.60243H99.0806V7.89977ZM99.0806 7.29579H98.9258V6.98607H99.0806V7.29579ZM99.0806 6.69182H98.9258V6.39603H99.0806V6.69182ZM99.0806 6.08785H98.9258V5.77812H99.0806V6.08785ZM99.0806 5.48388H98.9258V5.17415H99.0806V5.48388ZM99.0806 4.87991H98.9258V4.58257H99.0806V4.87991ZM99.0806 4.27594H98.9258V3.96621H99.0806V4.27594ZM99.0806 3.67197H98.9258V3.37463H99.0806V3.67197ZM99.0806 3.068H98.9258V2.77066H99.0806V3.068ZM99.0806 2.46403H98.9258V2.1543H99.0806V2.46403Z" fill="#EBEBEB"/>
<path d="M88.814 11.9062H87.459V13.2613H88.814V11.9062Z" fill="white"/>
<path d="M88.8881 13.3369H87.3828V11.8301H88.8881V13.3369ZM87.5346 13.182H88.7379V11.9787H87.5346V13.182Z" fill="#EBEBEB"/>
<path d="M88.818 6.47168H87.4629V7.82674H88.818V6.47168Z" fill="white"/>
<path d="M88.8881 7.90079H87.3828V6.39551H88.8881V7.90079ZM87.5346 7.74593H88.7379V6.55037H87.5346V7.74593Z" fill="#EBEBEB"/>
<path d="M88.818 1.03613H87.4629V2.3912H88.818V1.03613Z" fill="white"/>
<path d="M88.8881 2.4672H87.3828V0.961914H88.8881V2.4672ZM87.5346 2.31233H88.7379V1.11213H87.5346V2.31233Z" fill="#EBEBEB"/>
<path d="M99.689 11.9062H98.334V13.2613H99.689V11.9062Z" fill="white"/>
<path d="M99.7596 13.3369H98.2559V11.8301H99.7611L99.7596 13.3369ZM98.4045 13.182H99.6078V11.9787H98.4107L98.4045 13.182Z" fill="#EBEBEB"/>
<path d="M99.689 6.47168H98.334V7.82674H99.689V6.47168Z" fill="white"/>
<path d="M99.7596 7.90079H98.2559V6.39551H99.7611L99.7596 7.90079ZM98.4045 7.74593H99.6078V6.55037H98.4107L98.4045 7.74593Z" fill="#EBEBEB"/>
<path d="M99.689 1.03613H98.334V2.3912H99.689V1.03613Z" fill="white"/>
<path d="M99.7596 2.4672H98.2559V0.961914H99.7611L99.7596 2.4672ZM98.4045 2.31233H99.6078V1.11213H98.4107L98.4045 2.31233Z" fill="#EBEBEB"/>
<path d="M94.2555 1.03613H92.9004V2.3912H94.2555V1.03613Z" fill="white"/>
<path d="M94.3252 2.4672H92.8184V0.961914H94.3252V2.4672ZM92.9701 2.31233H94.1734V1.11213H92.9701V2.31233Z" fill="#EBEBEB"/>
<path d="M94.2496 11.9062H92.8945V13.2613H94.2496V11.9062Z" fill="white"/>
<path d="M94.3252 13.3369H92.8184V11.8301H94.3252V13.3369ZM92.9701 13.182H94.1734V11.9787H92.9701V13.182Z" fill="#EBEBEB"/>
<path d="M96.4295 6.22217H96.2514C95.7465 4.69211 95.4569 4.07265 94.6067 4.07265H94.4937V10.227H95.2881V10.4221H91.8811V10.2254H92.6756V4.07265H92.5548C91.703 4.07265 91.3855 4.77419 90.907 6.22372H90.7305L90.8234 3.87598H96.3428L96.4295 6.22217Z" fill="#EBEBEB"/>
<path d="M3.42364 41.0542C3.47787 41.1079 3.51497 41.1764 3.53024 41.2512C3.5455 41.3259 3.53825 41.4035 3.50941 41.4742C3.48056 41.5448 3.43141 41.6053 3.36817 41.648C3.30494 41.6906 3.23047 41.7136 3.15418 41.714C3.04953 41.7152 2.9485 41.6758 2.87232 41.604L1.15488 39.8602C1.14708 39.8575 1.14014 39.8527 1.13471 39.8465C1.12928 39.8402 1.12556 39.8327 1.1239 39.8246C1.11825 39.8197 1.112 39.8156 1.10532 39.8122C1.09758 39.7965 1.09186 39.7798 1.08828 39.7627C1.08337 39.7604 1.0791 39.757 1.07585 39.7526C1.07261 39.7483 1.07049 39.7432 1.0697 39.7379C1.0697 39.7255 1.0697 39.7085 1.05731 39.7023C1.04492 39.6961 1.04492 39.6775 1.04492 39.6713V39.6279C1.04492 39.6155 1.04492 39.6093 1.04492 39.5908C1.04492 39.5722 1.04492 39.5675 1.04492 39.5613V39.518C1.04492 39.5056 1.05731 39.4994 1.05731 39.4932C1.05731 39.487 1.05731 39.4638 1.0697 39.4452C1.08209 39.4266 1.0697 39.4452 1.0697 39.4328C1.0697 39.4204 1.08828 39.3894 1.09912 39.377C1.09912 39.3738 1.10043 39.3706 1.10275 39.3683C1.10508 39.366 1.10823 39.3647 1.11151 39.3647C1.1202 39.3478 1.13298 39.3334 1.14868 39.3228L2.86768 37.5791C2.94198 37.5083 3.04069 37.4688 3.14333 37.4688C3.24598 37.4688 3.34469 37.5083 3.41899 37.5791C3.4551 37.6152 3.48373 37.658 3.50327 37.7052C3.52281 37.7524 3.53287 37.8029 3.53287 37.854C3.53287 37.905 3.52281 37.9556 3.50327 38.0027C3.48373 38.0499 3.4551 38.0927 3.41899 38.1288L1.96791 39.5908L3.42364 41.0542Z" fill="#EBEBEB"/>
<path d="M4.98416 41.2501L6.48324 37.6882C6.50079 37.6472 6.52625 37.61 6.55818 37.5789C6.59011 37.5477 6.62787 37.5231 6.6693 37.5066C6.71073 37.4901 6.75502 37.4819 6.79962 37.4825C6.84423 37.4831 6.88828 37.4924 6.92925 37.5101C7.00965 37.5451 7.07289 37.6106 7.10511 37.6922C7.13734 37.7737 7.13591 37.8647 7.10115 37.9453L5.60207 41.518C5.57526 41.5778 5.53179 41.6286 5.47685 41.6643C5.42192 41.7 5.35786 41.7191 5.29234 41.7193C5.2504 41.7199 5.20878 41.712 5.16999 41.6961C5.12761 41.6802 5.08893 41.6557 5.05635 41.6243C5.02378 41.5929 4.99799 41.5551 4.98057 41.5133C4.96316 41.4715 4.95449 41.4266 4.95511 41.3813C4.95573 41.336 4.96561 41.2914 4.98416 41.2501Z" fill="#EBEBEB"/>
<path d="M10.0623 39.8126C10.0494 39.828 10.0349 39.842 10.019 39.8544L8.29996 41.5981C8.26386 41.6343 8.22098 41.6631 8.17378 41.6827C8.12658 41.7023 8.07597 41.7125 8.02485 41.7126C7.97372 41.7126 7.92309 41.7026 7.87583 41.6831C7.82857 41.6636 7.78561 41.635 7.74941 41.5989C7.71321 41.5628 7.68448 41.5199 7.66485 41.4727C7.64522 41.4255 7.63508 41.3749 7.63501 41.3238C7.63493 41.2727 7.64493 41.222 7.66443 41.1748C7.68393 41.1275 7.71254 41.0846 7.74864 41.0484L9.19972 39.5849L7.74864 38.123C7.71254 38.0869 7.6839 38.044 7.66436 37.9969C7.64482 37.9497 7.63477 37.8992 7.63477 37.8481C7.63477 37.797 7.64482 37.7465 7.66436 37.6993C7.6839 37.6522 7.71254 37.6093 7.74864 37.5732C7.82294 37.5024 7.92165 37.4629 8.0243 37.4629C8.12695 37.4629 8.22565 37.5024 8.29996 37.5732L10.019 39.317C10.0349 39.3293 10.0494 39.3434 10.0623 39.3588V39.3712C10.0739 39.3888 10.0837 39.4075 10.0917 39.4269C10.0917 39.4269 10.0917 39.4269 10.0917 39.4393C10.0961 39.458 10.1023 39.4761 10.1103 39.4935C10.1103 39.4935 10.1103 39.4935 10.1103 39.5121V39.5555C10.1103 39.5555 10.1103 39.5803 10.1103 39.5849C10.1103 39.5895 10.1103 39.6097 10.1103 39.6159V39.6654C10.1103 39.6654 10.1103 39.6654 10.1103 39.6778C10.1103 39.6902 10.0979 39.7196 10.0917 39.732C10.0855 39.7444 10.0917 39.732 10.0917 39.7506C10.0917 39.7692 10.0747 39.7878 10.0623 39.8126Z" fill="#EBEBEB"/>
<path d="M0.988281 62.9411L13.3418 62.9272L25.6954 62.921L50.4009 62.9102L75.1064 62.921L87.4599 62.9256L99.8135 62.9411L87.4599 62.9566L75.1064 62.9613L50.4009 62.9721L25.6954 62.9613L13.3418 62.9566L0.988281 62.9411Z" fill="#263238"/>
<path d="M90.0145 6.42773H10.4746V54.5348H90.0145V6.42773Z" fill="white"/>
<path d="M90.0138 54.5345L10.4739 54.5934H10.4166V54.5345L10.3965 6.42899V6.35156H10.4739L90.0138 6.38254H90.0587V6.42899L90.0138 54.5345ZM90.0138 54.5345L89.9689 6.42899L90.0138 6.47391L10.4739 6.50488L10.5513 6.42899L10.5312 54.5345L10.4739 54.4772L90.0138 54.5345Z" fill="#C7C7C7"/>
<path d="M90.0145 6.42773H10.4746V14.2654H90.0145V6.42773Z" fill="black"/>
<path d="M15.4108 11.5215H13.7754V11.794H15.4108V11.5215Z" fill="white"/>
<path d="M15.4108 12.7441H13.7754V13.0167H15.4108V12.7441Z" fill="white"/>
<path d="M15.4108 12.1396H13.7754V12.4122H15.4108V12.1396Z" fill="white"/>
<path opacity="0.1" d="M86.714 11.498H71.3809V13.042H86.714V11.498Z" fill="black"/>
<path d="M86.7139 11.498H85.1699V13.042H86.7139V11.498Z" fill="white"/>
<path d="M86.4314 12.7026L86.2889 12.811L86.0194 12.461L85.9219 12.334C85.9417 12.3262 85.9605 12.3158 85.9776 12.303C86.0104 12.2781 86.0361 12.245 86.052 12.207L86.1542 12.3433L86.4314 12.7026Z" fill="black"/>
<path d="M86.1496 11.8798C86.1043 11.8211 86.0433 11.7766 85.9736 11.7515C85.9039 11.7264 85.8284 11.7217 85.7562 11.7381C85.6839 11.7544 85.6178 11.791 85.5657 11.8437C85.5135 11.8963 85.4775 11.9627 85.4619 12.0352C85.4462 12.1076 85.4516 12.1829 85.4774 12.2524C85.5032 12.3219 85.5482 12.3825 85.6073 12.4272C85.6664 12.4719 85.737 12.4988 85.8109 12.5047C85.8847 12.5106 85.9587 12.4953 86.0242 12.4605C86.0431 12.4506 86.0612 12.4393 86.0784 12.4265C86.109 12.4025 86.1361 12.3744 86.1589 12.3428C86.207 12.2748 86.232 12.1931 86.2304 12.1098C86.2287 12.0265 86.2004 11.9459 86.1496 11.8798ZM85.9823 12.3026C85.9652 12.3153 85.9464 12.3257 85.9266 12.3335C85.8742 12.3554 85.8156 12.3573 85.7619 12.3389C85.7082 12.3206 85.6631 12.2832 85.6351 12.2338C85.6071 12.1845 85.5981 12.1265 85.6099 12.071C85.6216 12.0155 85.6533 11.9662 85.6989 11.9324C85.747 11.8961 85.8072 11.8798 85.8671 11.887C85.9269 11.8942 85.9815 11.9244 86.0195 11.9712C86.0384 11.9953 86.0523 12.023 86.0604 12.0527C86.0684 12.0823 86.0705 12.1132 86.0665 12.1436C86.0624 12.1741 86.0524 12.2034 86.0369 12.2299C86.0214 12.2564 86.0007 12.2795 85.9761 12.2979L85.9823 12.3026Z" fill="black"/>
<path d="M71.7867 11.8018H71.7031V12.7387H71.7867V11.8018Z" fill="white"/>
<path d="M28.9723 13.0942H21.4707V11.4434H28.9723V13.0942ZM21.6256 12.9394H28.8175V11.5982H21.6256V12.9394Z" fill="white"/>
<path d="M37.9333 13.0942H30.4316V11.4434H37.9333V13.0942ZM30.5865 12.9394H37.7784V11.5982H30.5865V12.9394Z" fill="white"/>
<path opacity="0.1" d="M46.8175 11.5215H39.4707V13.019H46.8175V11.5215Z" fill="black"/>
<path d="M55.8551 13.0942H48.3535V11.4434H55.8551V13.0942ZM48.5084 12.9394H55.7003V11.5982H48.5084V12.9394Z" fill="white"/>
<path d="M64.8161 13.0942H57.3145V11.4434H64.8161V13.0942ZM57.4693 12.9394H64.6612V11.5982H57.4693V12.9394Z" fill="white"/>
<path d="M90.0145 6.42773H10.4746V7.67284H90.0145V6.42773Z" fill="#37474F"/>
<path d="M11.4652 7.04996C11.4652 7.11122 11.447 7.1711 11.413 7.22204C11.3789 7.27297 11.3306 7.31267 11.274 7.33611C11.2174 7.35956 11.1551 7.36569 11.095 7.35374C11.0349 7.34179 10.9797 7.31229 10.9364 7.26897C10.8931 7.22566 10.8636 7.17047 10.8517 7.11039C10.8397 7.05031 10.8458 6.98803 10.8693 6.93144C10.8927 6.87484 10.9324 6.82647 10.9834 6.79243C11.0343 6.7584 11.0942 6.74023 11.1554 6.74023C11.2376 6.74023 11.3164 6.77287 11.3744 6.83095C11.4325 6.88904 11.4652 6.96782 11.4652 7.04996Z" fill="#C7C7C7"/>
<path d="M12.7249 7.04996C12.7249 7.11122 12.7068 7.1711 12.6727 7.22204C12.6387 7.27297 12.5903 7.31267 12.5337 7.33611C12.4771 7.35956 12.4149 7.36569 12.3548 7.35374C12.2947 7.34179 12.2395 7.31229 12.1962 7.26897C12.1529 7.22566 12.1234 7.17047 12.1114 7.11039C12.0995 7.05031 12.1056 6.98803 12.129 6.93144C12.1525 6.87484 12.1922 6.82647 12.2431 6.79243C12.2941 6.7584 12.3539 6.74023 12.4152 6.74023C12.4973 6.74023 12.5761 6.77287 12.6342 6.83095C12.6923 6.88904 12.7249 6.96782 12.7249 7.04996Z" fill="white"/>
<path d="M13.9847 7.04996C13.9847 7.11122 13.9665 7.1711 13.9325 7.22204C13.8985 7.27297 13.8501 7.31267 13.7935 7.33611C13.7369 7.35956 13.6746 7.36569 13.6145 7.35374C13.5545 7.34179 13.4993 7.31229 13.456 7.26897C13.4126 7.22566 13.3831 7.17047 13.3712 7.11039C13.3592 7.05031 13.3654 6.98803 13.3888 6.93144C13.4123 6.87484 13.452 6.82647 13.5029 6.79243C13.5538 6.7584 13.6137 6.74023 13.675 6.74023C13.7571 6.74023 13.8359 6.77287 13.894 6.83095C13.9521 6.88904 13.9847 6.96782 13.9847 7.04996Z" fill="black"/>
<path d="M90.0124 14.2666H88.6465V54.536H90.0124V14.2666Z" fill="#DBDBDB"/>
<path d="M89.3297 28.2323C89.2861 28.2355 89.2423 28.23 89.2009 28.216C89.1594 28.2021 89.1212 28.1801 89.0883 28.1513C89.0555 28.1225 89.0287 28.0874 89.0095 28.0482C88.9903 28.0089 88.9791 27.9662 88.9766 27.9226V14.8056C88.9793 14.762 88.9907 14.7195 89.0099 14.6803C89.0292 14.6411 89.056 14.6062 89.0888 14.5774C89.1216 14.5486 89.1597 14.5266 89.2011 14.5126C89.2424 14.4986 89.2861 14.4929 89.3297 14.4959C89.3732 14.4929 89.4169 14.4986 89.4582 14.5126C89.4996 14.5266 89.5377 14.5486 89.5705 14.5774C89.6034 14.6062 89.6302 14.6411 89.6494 14.6803C89.6687 14.7195 89.68 14.762 89.6827 14.8056V27.9226C89.6802 27.9662 89.669 28.0089 89.6498 28.0482C89.6306 28.0874 89.6038 28.1225 89.571 28.1513C89.5381 28.1801 89.4999 28.2021 89.4584 28.216C89.417 28.23 89.3732 28.2355 89.3297 28.2323Z" fill="#A6A6A6"/>
<path d="M13.8047 16.2109V22.1128H19.7066V16.2109H13.8047ZM14.2507 21.6668V16.6569H19.2606V21.6668H14.2507Z" fill="#EBEBEB"/>
<path d="M42.6703 17.2031H39.748V20.1239H42.6703V17.2031Z" fill="black"/>
<path d="M68.1879 17.2031H65.2656V20.1239H68.1879V17.2031Z" fill="black"/>
<path d="M16.4946 32.1484H13.5723V35.0692H16.4946V32.1484Z" fill="black"/>
<path d="M82.2168 47.2109V53.1128H88.1187V47.2109H82.2168ZM82.6628 52.6668V47.6569H87.6727V52.6668H82.6628Z" fill="#EBEBEB"/>
<path d="M25.2732 33.6094H15.0352V35.5235H25.2732V33.6094Z" fill="#455A64"/>
<path d="M43.1678 36.4678H15.0352V37.1832H43.1678V36.4678Z" fill="#DBDBDB"/>
<path d="M43.1678 38.041H15.0352V38.7565H43.1678V38.041Z" fill="#DBDBDB"/>
<path d="M43.1678 39.6152H15.0352V40.3307H43.1678V39.6152Z" fill="#DBDBDB"/>
<path d="M43.1678 41.1885H15.0352V41.9039H43.1678V41.1885Z" fill="#DBDBDB"/>
<path d="M43.1678 42.7637H15.0352V43.4791H43.1678V42.7637Z" fill="#DBDBDB"/>
<path d="M51.4451 18.6631H41.207V20.5772H51.4451V18.6631Z" fill="#455A64"/>
<path d="M62.2423 21.8965H41.207V22.612H62.2423V21.8965Z" fill="#DBDBDB"/>
<path d="M62.2423 23.4707H41.207V24.1862H62.2423V23.4707Z" fill="#DBDBDB"/>
<path d="M62.2423 25.0439H41.207V25.7594H62.2423V25.0439Z" fill="#DBDBDB"/>
<path d="M62.2423 26.6182H41.207V27.3336H62.2423V26.6182Z" fill="#DBDBDB"/>
<path d="M62.2423 28.7109H41.207V29.4264H62.2423V28.7109Z" fill="#DBDBDB"/>
<path d="M62.2423 30.2861H41.207V31.0016H62.2423V30.2861Z" fill="#DBDBDB"/>
<path d="M85.4497 18.6631H66.7266V20.6113H85.4497V18.6631Z" fill="#455A64"/>
<path d="M85.4033 20.6289H66.7793V51.1728H85.4033V20.6289Z" fill="white"/>
<path d="M85.4543 51.2217H66.7266V20.5771H85.4543V51.2217ZM66.8303 51.1211H85.3506V20.6778H66.8303V51.1211Z" fill="#DBDBDB"/>
<path d="M66.8261 51.1914L66.7285 51.1527L85.3525 20.6104L85.4485 20.6475L66.8261 51.1914Z" fill="#DBDBDB"/>
<path d="M85.3525 51.1914L66.7285 20.6475L66.8261 20.6104L85.4485 51.1527L85.3525 51.1914Z" fill="#DBDBDB"/>
<path d="M29.0468 18.6973H6.73242V30.9672H29.0468V18.6973Z" fill="white"/>
<path d="M6.69922 31.0008V30.9698V18.6689H6.72864H29.0802V31.0008H29.0431H6.69922ZM6.76891 18.7309V30.9373H29.0074V18.7293L6.76891 18.7309Z" fill="#DBDBDB"/>
<path d="M6.76953 18.7314C8.64649 19.7148 10.5111 20.7215 12.3741 21.7281L17.9492 24.7619L23.4964 27.8282L26.2608 29.3768L29.0127 30.9379L26.205 29.4481L23.4082 27.9381L17.833 24.9043L12.2874 21.8365C10.446 20.8082 8.60003 19.7783 6.76953 18.7314Z" fill="#DBDBDB"/>
<path d="M29.0128 18.7314C27.1838 19.7783 25.3409 20.8082 23.4965 21.8287L17.9493 24.8966L12.3741 27.9304L9.58658 29.4357L6.77734 30.9255L9.5169 29.3722L12.2812 27.8235L17.8285 24.7572L23.4036 21.7234C25.2713 20.7215 27.1358 19.7148 29.0128 18.7314Z" fill="#DBDBDB"/>
<path d="M17.6562 48.478V57.1055H63.1879V48.478H17.6562Z" fill="white"/>
<path d="M63.2631 48.4531V57.1255H17.5781V48.4531H63.2631ZM63.1083 57.0822V48.5011H17.7252V57.0822H63.1083Z" fill="black"/>
<path d="M63.2144 57.0841L63.1571 57.1275L17.627 48.5L17.6827 48.4551L63.2144 57.0841Z" fill="black"/>
<path d="M63.2144 48.5L17.6827 57.1275L17.627 57.0841L63.1571 48.4551L63.2144 48.5Z" fill="black"/>
<path d="M46.4986 43.5273H61.5391V33.9459H46.4986V43.5273Z" fill="black"/>
<path d="M45.8589 44.4097H45.5879V44.1387H45.6653V44.3323H45.8589V44.4097Z" fill="#263238"/>
<path d="M61.7046 44.4097H61.24V44.3369H61.7046V44.4097ZM60.7754 44.4097H60.3108V44.3369H60.7754V44.4097ZM59.8463 44.4097H59.3817V44.3369H59.8463V44.4097ZM58.9171 44.4097H58.4525V44.3369H58.9171V44.4097ZM57.9879 44.4097H57.5233V44.3369H57.9879V44.4097ZM57.0587 44.4097H56.5941V44.3369H57.0587V44.4097ZM56.1295 44.4097H55.6649V44.3369H56.1295V44.4097ZM55.2003 44.4097H54.7357V44.3369H55.2003V44.4097ZM54.2711 44.4097H53.8065V44.3369H54.2711V44.4097ZM53.3419 44.4097H52.8774V44.3369H53.3419V44.4097ZM52.4128 44.4097H51.9482V44.3369H52.4128V44.4097ZM51.4836 44.4097H51.019V44.3369H51.4836V44.4097ZM50.5544 44.4097H50.0898V44.3369H50.5544V44.4097ZM49.6252 44.4097H49.1606V44.3369H49.6252V44.4097ZM48.696 44.4097H48.2314V44.3369H48.696V44.4097ZM47.7668 44.4097H47.3022V44.3369H47.7668V44.4097ZM46.8376 44.4097H46.373V44.3369H46.8376V44.4097Z" fill="#263238"/>
<path d="M62.4487 44.4097H62.1777V44.3323H62.3713V44.1387H62.4487V44.4097Z" fill="#263238"/>
<path d="M62.4485 43.6704H62.3711V43.2058H62.4485V43.6704ZM62.4485 42.7303H62.3711V42.2657H62.4485V42.7303ZM62.4485 41.7903H62.3711V41.3257H62.4485V41.7903ZM62.4485 40.8518H62.3711V40.3872H62.4485V40.8518ZM62.4485 39.9118H62.3711V39.4472H62.4485V39.9118ZM62.4485 38.9718H62.3711V38.5072H62.4485V38.9718ZM62.4485 38.0317H62.3711V37.5672H62.4485V38.0317ZM62.4485 37.0917H62.3711V36.6271H62.4485V37.0917ZM62.4485 36.1532H62.3711V35.6886H62.4485V36.1532ZM62.4485 35.2132H62.3711V34.7486H62.4485V35.2132ZM62.4485 34.2732H62.3711V33.8086H62.4485V34.2732Z" fill="#263238"/>
<path d="M62.4487 33.3325H62.3713V33.139H62.1777V33.0615H62.4487V33.3325Z" fill="#263238"/>
<path d="M61.7046 33.139H61.24V33.0615H61.7046V33.139ZM60.7754 33.139H60.3108V33.0615H60.7754V33.139ZM59.8463 33.139H59.3817V33.0615H59.8463V33.139ZM58.9171 33.139H58.4525V33.0615H58.9171V33.139ZM57.9879 33.139H57.5233V33.0615H57.9879V33.139ZM57.0587 33.139H56.5941V33.0615H57.0587V33.139ZM56.1295 33.139H55.6649V33.0615H56.1295V33.139ZM55.2003 33.139H54.7357V33.0615H55.2003V33.139ZM54.2711 33.139H53.8065V33.0615H54.2711V33.139ZM53.3419 33.139H52.8774V33.0615H53.3419V33.139ZM52.4128 33.139H51.9482V33.0615H52.4128V33.139ZM51.4836 33.139H51.019V33.0615H51.4836V33.139ZM50.5544 33.139H50.0898V33.0615H50.5544V33.139ZM49.6252 33.139H49.1606V33.0615H49.6252V33.139ZM48.696 33.139H48.2314V33.0615H48.696V33.139ZM47.7668 33.139H47.3022V33.0615H47.7668V33.139ZM46.8376 33.139H46.373V33.0615H46.8376V33.139Z" fill="#263238"/>
<path d="M45.6653 33.3325H45.5879V33.0615H45.8589V33.139H45.6653V33.3325Z" fill="#263238"/>
<path d="M45.6653 43.6704H45.5879V43.2058H45.6653V43.6704ZM45.6653 42.7303H45.5879V42.2657H45.6653V42.7303ZM45.6653 41.7903H45.5879V41.3257H45.6653V41.7903ZM45.6653 40.8518H45.5879V40.3872H45.6653V40.8518ZM45.6653 39.9118H45.5879V39.4472H45.6653V39.9118ZM45.6653 38.9718H45.5879V38.5072H45.6653V38.9718ZM45.6653 38.0317H45.5879V37.5672H45.6653V38.0317ZM45.6653 37.0917H45.5879V36.6271H45.6653V37.0917ZM45.6653 36.1532H45.5879V35.6886H45.6653V36.1532ZM45.6653 35.2132H45.5879V34.7486H45.6653V35.2132ZM45.6653 34.2732H45.5879V33.8086H45.6653V34.2732Z" fill="#263238"/>
<g opacity="0.1">
<path d="M51.459 41.4635H61.5376L56.4983 37.293L51.459 41.4635Z" fill="white"/>
</g>
<path d="M46.498 41.4673H55.4353L50.9674 38.751L46.498 41.4673Z" fill="black"/>
<g opacity="0.2">
<path d="M46.498 41.4673H55.4353L50.9674 38.751L46.498 41.4673Z" fill="white"/>
</g>
<path d="M61.5385 41.4629H46.498V43.5272H61.5385V41.4629Z" fill="black"/>
<g opacity="0.2">
<path d="M61.5385 41.4619H46.498V43.5263H61.5385V41.4619Z" fill="black"/>
</g>
<path opacity="0.1" d="M49.1806 37.9539C49.9469 37.9539 50.5681 37.3326 50.5681 36.5663C50.5681 35.8 49.9469 35.1787 49.1806 35.1787C48.4142 35.1787 47.793 35.8 47.793 36.5663C47.793 37.3326 48.4142 37.9539 49.1806 37.9539Z" fill="black"/>
<path d="M46.1139 32.6123H45.1367V33.5895H46.1139V32.6123Z" fill="#263238"/>
<path d="M46.1139 43.8828H45.1367V44.86H46.1139V43.8828Z" fill="#263238"/>
<path d="M45.9758 38.3867H45.2773V39.0852H45.9758V38.3867Z" fill="#263238"/>
<path d="M54.3684 32.752H53.6699V33.4504H54.3684V32.752Z" fill="#263238"/>
<path d="M54.3684 44.0234H53.6699V44.7219H54.3684V44.0234Z" fill="#263238"/>
<path d="M62.7609 38.3867H62.0625V39.0852H62.7609V38.3867Z" fill="#263238"/>
<path d="M62.8971 32.6123H61.9199V33.5895H62.8971V32.6123Z" fill="#263238"/>
<path d="M62.8971 43.8828H61.9199V44.86H62.8971V43.8828Z" fill="#263238"/>
<path d="M64.317 47.9827L65.0495 49.7497L64.3186 50.0517L63.5829 48.2738L62.375 49.2107V44.2334L65.8594 47.7535L64.317 47.9827Z" fill="#263238"/>
<path d="M62.4175 43.5718C62.3642 43.4702 62.3376 43.3567 62.3401 43.242C62.3368 43.1272 62.3635 43.0135 62.4175 42.9121C62.4684 43.0146 62.4949 43.1275 62.4949 43.242C62.4949 43.3564 62.4684 43.4693 62.4175 43.5718Z" fill="#263238"/>
<path d="M61.8505 43.807C61.7409 43.773 61.6418 43.7117 61.5625 43.6289C61.4799 43.549 61.4183 43.4501 61.3828 43.3408C61.4926 43.3744 61.5918 43.4357 61.6709 43.5189C61.7537 43.5985 61.8155 43.6975 61.8505 43.807Z" fill="#263238"/>
<path d="M61.6148 44.3754C61.5132 44.4287 61.3997 44.4554 61.2849 44.4529C61.1701 44.4562 61.0564 44.4295 60.9551 44.3754C61.0567 44.3221 61.1702 44.2955 61.2849 44.298C61.3996 44.2962 61.5129 44.3228 61.6148 44.3754Z" fill="#263238"/>
<path d="M61.8505 44.9443C61.8155 45.0538 61.7537 45.1528 61.6709 45.2324C61.5918 45.3156 61.4926 45.3769 61.3828 45.4105C61.4183 45.3012 61.4799 45.2023 61.5625 45.1224C61.6418 45.0396 61.7409 44.9783 61.8505 44.9443Z" fill="#263238"/>
<path d="M63.2227 44.3754C63.3245 44.3228 63.4379 44.2962 63.5525 44.298C63.6673 44.2955 63.7807 44.3221 63.8824 44.3754C63.781 44.4295 63.6673 44.4562 63.5525 44.4529C63.4378 44.4554 63.3243 44.4287 63.2227 44.3754Z" fill="#263238"/>
<path d="M62.9863 43.8074C63.0226 43.6993 63.0834 43.6011 63.164 43.5204C63.2446 43.4398 63.3428 43.379 63.4509 43.3428C63.4147 43.4509 63.3539 43.5491 63.2732 43.6297C63.1926 43.7103 63.0944 43.7711 62.9863 43.8074Z" fill="#263238"/>
</svg>
