<svg width="118" height="118" viewBox="0 0 118 118" fill="none" xmlns="http://www.w3.org/2000/svg">
<circle cx="59" cy="59" r="59" fill="white"/>
<path d="M58.3 76.95C55.5 76.95 53.0833 76.4167 51.05 75.35C49.05 74.2833 47.5167 72.8667 46.45 71.1C45.3833 69.3 44.85 67.3 44.85 65.1H51.7C51.7 66.8667 52.2833 68.3 53.45 69.4C54.65 70.4667 56.2667 71 58.3 71C59.6667 71 60.8333 70.75 61.8 70.25C62.8 69.7167 63.5667 69 64.1 68.1C64.6333 67.1667 64.9 66.1 64.9 64.9C64.9 63.1 64.3167 61.6333 63.15 60.5C61.9833 59.3333 60.3833 58.75 58.35 58.75C57.35 58.75 56.4667 58.8833 55.7 59.15C54.9667 59.4167 54.3167 59.7667 53.75 60.2L50.5 54.6L62.5 46.4L62.05 45.55H46.35V39.5H70.2V46.8L57.85 55L54 54.3C54.6333 54.1 55.3167 53.95 56.05 53.85C56.7833 53.7167 57.5833 53.65 58.45 53.65C61.2167 53.65 63.5833 54.1333 65.55 55.1C67.55 56.0333 69.0833 57.3333 70.15 59C71.2167 60.6667 71.75 62.5833 71.75 64.75V65.4C71.75 67.5 71.2167 69.4333 70.15 71.2C69.0833 72.9333 67.55 74.3333 65.55 75.4C63.55 76.4333 61.1333 76.95 58.3 76.95Z" fill="black"/>
</svg>
