<svg width="118" height="118" viewBox="0 0 118 118" fill="none" xmlns="http://www.w3.org/2000/svg">
<circle cx="59" cy="59" r="59" fill="white"/>
<path d="M46.25 76V69C46.25 67.4667 46.4833 66.1333 46.95 65C47.45 63.8667 48.25 62.8667 49.35 62C50.4833 61.1 51.9667 60.25 53.8 59.45L60 56.7C61.5333 56 62.7 55.15 63.5 54.15C64.3333 53.1167 64.75 51.8 64.75 50.2C64.75 48.4333 64.2167 47.0333 63.15 46C62.1167 44.9333 60.6333 44.4 58.7 44.4C56.7667 44.4 55.2667 44.9333 54.2 46C53.1667 47.0667 52.65 48.55 52.65 50.45H45.8C45.8 48.1833 46.2833 46.15 47.25 44.35C48.2167 42.5167 49.65 41.0833 51.55 40.05C53.45 38.9833 55.8333 38.45 58.7 38.45C61.5667 38.45 63.95 38.9667 65.85 40C67.75 41.0333 69.1833 42.4167 70.15 44.15C71.1167 45.85 71.6 47.75 71.6 49.85V50.5C71.6 53.2333 70.8333 55.5167 69.3 57.35C67.7667 59.15 65.5167 60.7167 62.55 62.05L56.35 64.8C55.1833 65.3 54.3667 65.8333 53.9 66.4C53.4333 66.9333 53.2 67.6667 53.2 68.6V71.8L51.5 69.95H71.75V76H46.25Z" fill="black"/>
</svg>
