<svg width="524" height="341" viewBox="0 0 524 341" fill="none" xmlns="http://www.w3.org/2000/svg">
<path d="M58.1192 320.192V293.016H3.57046V264.651L68.2355 181.737H89.8566V264.453H107.312V293.016H89.8566V320.192H58.1192ZM34.9112 264.453H61.888V229.343L34.9112 264.453ZM311.685 320.192V293.016H257.137V264.651L321.802 181.737H343.423V264.453H360.878V293.016H343.423V320.192H311.685ZM288.477 264.453H315.454V229.343L288.477 264.453Z" fill="#151039"/>
<path d="M120 262C120 295.689 147.311 323 181 323C214.689 323 242 295.689 242 262C242 228.311 214.689 201 181 201C147.311 201 120 228.311 120 262Z" fill="url(#paint0_linear_417_1351)"/>
<path d="M381.973 36.2324C392.046 36.2905 402.053 37.8602 411.66 40.8889C411.66 40.8889 435.708 81.9226 438.55 91.323C437.544 100.592 421.913 115.786 421.913 115.786L381.973 36.2324Z" fill="#2BB8CB"/>
<path opacity="0.3" d="M381.973 36.2324C392.046 36.2905 402.053 37.8602 411.66 40.8889C411.66 40.8889 435.708 81.9226 438.55 91.323C437.544 100.592 421.913 115.786 421.913 115.786L381.973 36.2324Z" fill="white"/>
<path d="M453.201 235.456C443.941 224.132 435.495 212.166 427.929 199.647C426.093 196.484 424.351 193.263 422.704 189.984C421.764 188.126 420.868 186.267 419.994 184.387C418.846 182.558 417.956 180.579 417.348 178.507C414.725 150.808 424.213 130.412 415.162 108.179L379.135 122.257C379.135 122.257 382.195 161.87 389.191 185.655C393.563 200.368 403.357 213.091 412.823 224.875C415.774 228.547 418.616 232.329 421.568 236.024C424.519 239.718 427.492 242.713 430.312 246.189C434.575 251.458 435.974 256.508 432.761 262.717L432.214 263.7C431.296 265.318 435.581 267.154 438.292 263.7C442.664 258.06 442.052 258.41 445.856 253.6C448.173 250.693 450.818 247.523 453.114 244.856C454.221 243.545 454.836 241.888 454.852 240.171C454.867 238.455 454.284 236.787 453.201 235.456Z" fill="#2BB8CB"/>
<path d="M453.201 235.456C443.941 224.132 435.495 212.166 427.929 199.647C426.093 196.484 424.351 193.263 422.704 189.984C421.764 188.126 420.868 186.267 419.994 184.387C418.846 182.558 417.956 180.579 417.348 178.507C414.725 150.808 424.213 130.412 415.162 108.179L379.135 122.257C379.135 122.257 382.195 161.87 389.191 185.655C393.563 200.368 403.357 213.091 412.823 224.875C415.774 228.547 418.616 232.329 421.568 236.024C424.519 239.718 427.492 242.713 430.312 246.189C434.575 251.458 435.974 256.508 432.761 262.717L432.214 263.7C431.296 265.318 435.581 267.154 438.292 263.7C442.664 258.06 442.052 258.41 445.856 253.6C448.173 250.693 450.818 247.523 453.114 244.856C454.221 243.545 454.836 241.888 454.852 240.171C454.867 238.455 454.284 236.787 453.201 235.456Z" fill="#FFCE01"/>
<path opacity="0.3" d="M444.387 224.065C438.67 230.194 432.324 235.704 425.455 240.505C426.395 241.555 427.313 242.691 428.253 243.697C435.131 239.05 441.377 233.532 446.835 227.279L444.387 224.065Z" fill="#2BB8CB"/>
<path opacity="0.3" d="M453.195 235.454L452.932 235.148C451.25 237.078 450.272 239.521 450.156 242.078C450.015 243.833 450.3 245.595 450.987 247.216L453.064 244.746C454.149 243.448 454.755 241.815 454.779 240.123C454.803 238.431 454.243 236.783 453.195 235.454Z" fill="#2BB8CB"/>
<path d="M373.406 62.4662C369.5 68.3143 364.815 73.6025 359.48 78.1845C356.522 80.7343 353.279 82.9349 349.817 84.7429C347.999 85.6749 346.113 86.4713 344.177 87.1258L342.691 87.6067L342.21 87.7379L341.182 88.0221C340.55 88.1722 339.906 88.2745 339.258 88.3282C337.414 88.4692 335.559 88.2992 333.771 87.8254C331.516 87.1854 329.356 86.2519 327.344 85.049C325.725 84.1028 324.157 83.0739 322.644 81.9665C319.91 79.9335 317.297 77.7437 314.817 75.4081C310.035 70.8772 305.647 65.948 301.701 60.6736C300.941 59.646 300.563 58.3854 300.633 57.1093C300.703 55.8332 301.217 54.6216 302.085 53.6836C302.953 52.7456 304.121 52.14 305.388 51.9713C306.655 51.8027 307.941 52.0815 309.024 52.7597H309.199C314.358 56.0389 319.561 59.493 324.633 62.5755C327.213 64.0839 329.705 65.6142 332.175 66.7947C333.303 67.3852 334.464 67.9107 335.651 68.3687C336.391 68.6954 337.183 68.8879 337.991 68.9371C338.122 68.9371 337.99 68.7841 337.182 68.806C336.927 68.7907 336.671 68.7907 336.417 68.806L335.936 68.9153L336.657 68.5436C337.628 68.021 338.57 67.4444 339.477 66.8166C341.433 65.4374 343.262 63.8864 344.942 62.182C348.762 58.1796 352.339 53.9528 355.654 49.5243C357.471 47.4918 359.982 46.2114 362.694 45.9345C365.406 45.6576 368.123 46.404 370.313 48.0273C372.503 49.6507 374.008 52.0338 374.531 54.7091C375.055 57.3844 374.56 60.1588 373.144 62.4881L373.406 62.4662Z" fill="#2BB8CB"/>
<path d="M373.406 62.4662C369.5 68.3143 364.815 73.6025 359.48 78.1845C356.522 80.7343 353.279 82.9349 349.817 84.7429C347.999 85.6749 346.113 86.4713 344.177 87.1258L342.691 87.6067L342.21 87.7379L341.182 88.0221C340.55 88.1722 339.906 88.2745 339.258 88.3282C337.414 88.4692 335.559 88.2992 333.771 87.8254C331.516 87.1854 329.356 86.2519 327.344 85.049C325.725 84.1028 324.157 83.0739 322.644 81.9665C319.91 79.9335 317.297 77.7437 314.817 75.4081C310.035 70.8772 305.647 65.948 301.701 60.6736C300.941 59.646 300.563 58.3854 300.633 57.1093C300.703 55.8332 301.217 54.6216 302.085 53.6836C302.953 52.7456 304.121 52.14 305.388 51.9713C306.655 51.8027 307.941 52.0815 309.024 52.7597H309.199C314.358 56.0389 319.561 59.493 324.633 62.5755C327.213 64.0839 329.705 65.6142 332.175 66.7947C333.303 67.3852 334.464 67.9107 335.651 68.3687C336.391 68.6954 337.183 68.8879 337.991 68.9371C338.122 68.9371 337.99 68.7841 337.182 68.806C336.927 68.7907 336.671 68.7907 336.417 68.806L335.936 68.9153L336.657 68.5436C337.628 68.021 338.57 67.4444 339.477 66.8166C341.433 65.4374 343.262 63.8864 344.942 62.182C348.762 58.1796 352.339 53.9528 355.654 49.5243C357.471 47.4918 359.982 46.2114 362.694 45.9345C365.406 45.6576 368.123 46.404 370.313 48.0273C372.503 49.6507 374.008 52.0338 374.531 54.7091C375.055 57.3844 374.56 60.1588 373.144 62.4881L373.406 62.4662Z" fill="#FFCE01"/>
<path d="M293.5 48.0814L296.058 52.4537C296.058 52.4537 298.004 58.1814 301.917 59.2307L312.542 55.7985L311.995 54.9022C310.64 52.8472 310.793 48.8466 311.252 45.5237C311.711 42.2007 310.006 42.0914 308.738 42.9222C307.839 43.9558 307.208 45.1945 306.901 46.5293C306.38 45.8074 305.802 45.1276 305.174 44.4962L301.939 41.2607C301.26 40.5973 300.356 40.215 299.407 40.1907C298.458 40.1664 297.535 40.5017 296.823 41.1295L294.2 43.4687C293.578 44.0443 293.169 44.8144 293.042 45.6525C292.915 46.4907 293.077 47.3472 293.5 48.0814Z" fill="#2BB8CB"/>
<path opacity="0.7" d="M293.5 48.0814L296.058 52.4537C296.058 52.4537 298.004 58.1814 301.917 59.2307L312.542 55.7985L311.995 54.9022C310.64 52.8472 310.793 48.8466 311.252 45.5237C311.711 42.2007 310.006 42.0914 308.738 42.9222C307.839 43.9558 307.208 45.1945 306.901 46.5293C306.38 45.8074 305.802 45.1276 305.174 44.4962L301.939 41.2607C301.26 40.5973 300.356 40.215 299.407 40.1907C298.458 40.1664 297.535 40.5017 296.823 41.1295L294.2 43.4687C293.578 44.0443 293.169 44.8144 293.042 45.6525C292.915 46.4907 293.077 47.3472 293.5 48.0814Z" fill="white"/>
<path d="M392.707 32.3415C380.923 35.4651 369.634 40.2263 359.172 46.4858C357.54 47.5073 356.259 49.0033 355.501 50.7733C354.743 52.5433 354.544 54.5027 354.931 56.3889C359.15 77.0261 368.747 104.659 379.11 122.257L427.445 102.254C427.773 93.7281 416.033 66.1391 404.075 39.4683C401.933 34.6806 397.801 31.1172 392.707 32.3415Z" fill="#2BB8CB"/>
<path d="M392.707 32.3415C380.923 35.4651 369.634 40.2263 359.172 46.4858C357.54 47.5073 356.259 49.0033 355.501 50.7733C354.743 52.5433 354.544 54.5027 354.931 56.3889C359.15 77.0261 368.747 104.659 379.11 122.257L427.445 102.254C427.773 93.7281 416.033 66.1391 404.075 39.4683C401.933 34.6806 397.801 31.1172 392.707 32.3415Z" fill="#FFCE01"/>
<path opacity="0.3" d="M411.57 56.3669L401.973 53.1533C404.159 58.7717 411.876 65.8766 417.276 70.0522C415.527 65.6799 413.581 61.089 411.57 56.3669Z" fill="#2BB8CB"/>
<path d="M389.538 10.6981C385.537 3.09036 376.902 -0.735371 366.54 0.117222C357.795 0.860508 350.056 9.77993 350.975 14.5894C351.893 19.3989 359.238 21.4539 360.637 23.1154L354.582 27.4876C353.864 28.0054 353.259 28.663 352.803 29.4208C352.346 30.1785 352.048 31.0209 351.925 31.897C351.802 32.7732 351.858 33.6651 352.09 34.5191C352.321 35.3731 352.722 36.1714 353.27 36.8662C355.828 40.1016 359.195 43.4246 361.14 45.873C377.886 45.4358 390.281 39.0523 394.763 32.9093C393.08 25.1266 393.429 18.2621 389.538 10.6981Z" fill="#2BB8CB"/>
<path d="M389.538 10.6981C385.537 3.09036 376.902 -0.735371 366.54 0.117222C357.795 0.860508 350.056 9.77993 350.975 14.5894C351.893 19.3989 359.238 21.4539 360.637 23.1154L354.582 27.4876C353.864 28.0054 353.259 28.663 352.803 29.4208C352.346 30.1785 352.048 31.0209 351.925 31.897C351.802 32.7732 351.858 33.6651 352.09 34.5191C352.321 35.3731 352.722 36.1714 353.27 36.8662C355.828 40.1016 359.195 43.4246 361.14 45.873C377.886 45.4358 390.281 39.0523 394.763 32.9093C393.08 25.1266 393.429 18.2621 389.538 10.6981Z" fill="#FFCE00"/>
<path d="M381.315 15.4203C382.504 18.4691 382.762 21.8019 382.057 24.9975C381.352 28.193 379.716 31.1078 377.354 33.3734C374.993 35.6391 372.013 37.1538 368.791 37.7262C365.569 38.2985 362.25 37.9029 359.253 36.5892C356.256 35.2754 353.716 33.1027 351.953 30.3455C350.191 27.5883 349.285 24.3705 349.351 21.0988C349.417 17.827 350.451 14.6483 352.324 11.9644C354.196 9.28046 356.822 7.21182 359.869 6.01994C363.96 4.42631 368.516 4.52114 372.537 6.28361C376.558 8.04609 379.715 11.3322 381.315 15.4203Z" fill="#263238"/>
<path d="M523.266 212.435C523.026 205.243 522.698 205.877 522.501 199.821C522.37 196.105 522.348 191.973 522.326 188.41C522.319 186.717 521.727 185.079 520.652 183.773C519.576 182.466 518.083 181.571 516.423 181.239C513.538 180.649 510.63 180.102 507.679 179.49C503.897 178.681 500.159 177.807 496.464 176.736C493.578 175.905 490.736 174.987 487.916 173.959C485.096 172.932 481.926 171.773 478.997 170.418C475.543 168.953 472.132 167.379 468.766 165.739C464.984 163.947 461.245 162.067 457.507 160.165C443.122 136.358 442.816 120.661 427.382 102.254L394.24 117.251C394.24 117.251 418.594 160.449 435.165 178.769C444.718 189.306 459.693 194.072 473.05 197.526C482.691 199.996 492.463 201.898 502.235 203.712C506.039 204.412 510.171 204.674 513.45 206.948C515.876 208.808 517.54 211.49 518.129 214.49C518.274 215.102 518.405 215.714 518.522 216.326C518.937 218.163 523.419 216.764 523.266 212.435Z" fill="#2BB8CB"/>
<path d="M523.266 212.435C523.026 205.243 522.698 205.877 522.501 199.821C522.37 196.105 522.348 191.973 522.326 188.41C522.319 186.717 521.727 185.079 520.652 183.773C519.576 182.466 518.083 181.571 516.423 181.239C513.538 180.649 510.63 180.102 507.679 179.49C503.897 178.681 500.159 177.807 496.464 176.736C493.578 175.905 490.736 174.987 487.916 173.959C485.096 172.932 481.926 171.773 478.997 170.418C475.543 168.953 472.132 167.379 468.766 165.739C464.984 163.947 461.245 162.067 457.507 160.165C443.122 136.358 442.816 120.661 427.382 102.254L394.24 117.251C394.24 117.251 418.594 160.449 435.165 178.769C444.718 189.306 459.693 194.072 473.05 197.526C482.691 199.996 492.463 201.898 502.235 203.712C506.039 204.412 510.171 204.674 513.45 206.948C515.876 208.808 517.54 211.49 518.129 214.49C518.274 215.102 518.405 215.714 518.522 216.326C518.937 218.163 523.419 216.764 523.266 212.435Z" fill="#FFCE01"/>
<path d="M378.477 121.185C376.947 121.754 379.745 124.377 379.745 124.377C379.745 124.377 410.351 113.906 428.933 103.128C428.978 102.475 428.867 101.822 428.608 101.221C428.35 100.62 427.951 100.09 427.447 99.6738C411.543 107.764 395.194 114.946 378.477 121.185Z" fill="#2BB8CB"/>
<path opacity="0.5" d="M378.477 121.185C376.947 121.754 379.745 124.377 379.745 124.377C379.745 124.377 410.351 113.906 428.933 103.128C428.978 102.475 428.867 101.822 428.608 101.221C428.35 100.62 427.951 100.09 427.447 99.6738C411.543 107.764 395.194 114.946 378.477 121.185Z" fill="white"/>
<path d="M400.992 30.898C407.026 33.9586 412.688 37.1722 418.481 40.7356C421.301 42.5283 424.099 44.3428 426.876 46.3103C429.652 48.2778 432.407 50.289 435.183 52.5626L436.211 53.4152L437.5 54.5957C438.269 55.2834 438.999 56.0132 439.687 56.7819C440.386 57.547 440.976 58.2903 441.545 58.968C442.113 59.6457 442.725 60.4546 443.228 61.1541C445.265 63.9646 447.148 66.8838 448.868 69.8987C452.256 75.7452 455.18 81.8487 457.613 88.1529C458.062 89.344 458.086 90.6541 457.679 91.8604C457.272 93.0667 456.459 94.0948 455.38 94.7698C454.3 95.4448 453.02 95.7251 451.757 95.563C450.495 95.4009 449.327 94.8064 448.453 93.8806L448.344 93.7494C443.971 89.0929 439.752 84.196 435.511 79.627C431.27 75.0579 426.963 70.4233 423.4 68.3902C418.437 65.3078 412.906 62.2253 407.419 59.2085L390.892 50.0267C388.329 48.67 386.41 46.3508 385.558 43.5793C384.705 40.8078 384.988 37.8111 386.345 35.2484C387.702 32.6857 390.021 30.7669 392.792 29.9142C395.564 29.0614 398.56 29.3445 401.123 30.7013L400.992 30.898Z" fill="#2BB8CB"/>
<path d="M400.992 30.898C407.026 33.9586 412.688 37.1722 418.481 40.7356C421.301 42.5283 424.099 44.3428 426.876 46.3103C429.652 48.2778 432.407 50.289 435.183 52.5626L436.211 53.4152L437.5 54.5957C438.269 55.2834 438.999 56.0132 439.687 56.7819C440.386 57.547 440.976 58.2903 441.545 58.968C442.113 59.6457 442.725 60.4546 443.228 61.1541C445.265 63.9646 447.148 66.8838 448.868 69.8987C452.256 75.7452 455.18 81.8487 457.613 88.1529C458.062 89.344 458.086 90.6541 457.679 91.8604C457.272 93.0667 456.459 94.0948 455.38 94.7698C454.3 95.4448 453.02 95.7251 451.757 95.563C450.495 95.4009 449.327 94.8064 448.453 93.8806L448.344 93.7494C443.971 89.0929 439.752 84.196 435.511 79.627C431.27 75.0579 426.963 70.4233 423.4 68.3902C418.437 65.3078 412.906 62.2253 407.419 59.2085L390.892 50.0267C388.329 48.67 386.41 46.3508 385.558 43.5793C384.705 40.8078 384.988 37.8111 386.345 35.2484C387.702 32.6857 390.021 30.7669 392.792 29.9142C395.564 29.0614 398.56 29.3445 401.123 30.7013L400.992 30.898Z" fill="#FFCE01"/>
<path d="M462.791 99.0611L460.932 94.4046C460.932 94.4046 459.905 88.4583 456.21 86.7969L445.28 88.5239L445.651 89.4858C446.657 91.672 445.892 95.6726 444.908 98.8644C443.924 102.056 445.586 102.471 446.985 101.837C447.772 101.488 448.537 100.067 449.368 98.5583C449.775 99.3182 450.236 100.049 450.745 100.744L453.434 104.439C453.996 105.205 454.826 105.729 455.759 105.908C456.692 106.086 457.657 105.905 458.462 105.401L461.435 103.499C462.131 103.023 462.644 102.324 462.891 101.518C463.137 100.711 463.102 99.8449 462.791 99.0611Z" fill="#2BB8CB"/>
<path opacity="0.8" d="M462.791 99.0611L460.932 94.4046C460.932 94.4046 459.905 88.4583 456.21 86.7969L445.28 88.5239L445.651 89.4858C446.657 91.672 445.892 95.6726 444.908 98.8644C443.924 102.056 445.586 102.471 446.985 101.837C447.772 101.488 448.537 100.067 449.368 98.5583C449.775 99.3182 450.236 100.049 450.745 100.744L453.434 104.439C453.996 105.205 454.826 105.729 455.759 105.908C456.692 106.086 457.657 105.905 458.462 105.401L461.435 103.499C462.131 103.023 462.644 102.324 462.891 101.518C463.137 100.711 463.102 99.8449 462.791 99.0611Z" fill="white"/>
<path opacity="0.3" d="M391.768 56.0381L389.101 56.2567L372.727 95.782C373.622 95.8464 374.521 95.7727 375.394 95.5634C375.394 95.5634 396.73 87.6059 403.179 84.6327C398.851 75.6914 391.768 56.0381 391.768 56.0381Z" fill="#2BB8CB"/>
<path d="M361.885 66.4015C363.874 76.7336 367.568 86.6629 372.815 95.7831C380.817 93.0286 394.152 87.8256 400.623 84.8524C396.274 75.5284 392.414 65.9839 389.058 56.2578C382.216 56.7169 367.197 62.4664 361.885 66.4015Z" fill="white"/>
<path opacity="0.3" d="M378.124 74.9491C377.805 76.0182 377.175 76.9684 376.315 77.6796C375.456 78.3908 374.404 78.831 373.294 78.9446C372.184 79.0581 371.065 78.8398 370.079 78.3173C369.093 77.7949 368.285 76.9917 367.755 76.0095C367.226 75.0272 367 73.91 367.105 72.7992C367.211 71.6884 367.644 70.6339 368.349 69.7692C369.054 68.9044 370 68.2682 371.067 67.9411C372.134 67.614 373.274 67.6107 374.342 67.9316C375.774 68.3614 376.976 69.3419 377.685 70.6577C378.395 71.9735 378.552 73.517 378.124 74.9491Z" fill="#2BB8CB"/>
<path opacity="0.6" d="M382.303 67.4282C382.217 67.7931 382.024 68.1237 381.747 68.3767C381.471 68.6296 381.124 68.7931 380.753 68.8456C380.382 68.8981 380.004 68.8372 379.668 68.6708C379.332 68.5045 379.055 68.2406 378.872 67.9136C378.689 67.5866 378.609 67.212 378.642 66.8388C378.676 66.4656 378.822 66.1112 379.06 65.8223C379.299 65.5334 379.619 65.3234 379.98 65.2198C380.34 65.1163 380.723 65.124 381.078 65.242C381.521 65.3837 381.894 65.6881 382.121 66.0939C382.348 66.4997 382.413 66.9765 382.303 67.4282Z" fill="#2BB8CB"/>
<path opacity="0.6" d="M387.197 65.5254C387.146 65.779 387.042 66.0191 386.893 66.2303C386.743 66.4415 386.551 66.6191 386.329 66.7519C386.107 66.8846 385.86 66.9695 385.603 67.0011C385.346 67.0327 385.085 67.0104 384.838 66.9355C384.59 66.8605 384.361 66.7347 384.165 66.5661C383.968 66.3975 383.81 66.1897 383.698 65.9561C383.587 65.7225 383.526 65.4683 383.518 65.2096C383.511 64.951 383.558 64.6937 383.656 64.4542C383.726 64.2228 383.84 64.0076 383.994 63.8207C384.147 63.6339 384.336 63.4792 384.549 63.3655C384.762 63.2517 384.996 63.1812 385.237 63.1579C385.477 63.1347 385.72 63.1591 385.951 63.2299C386.419 63.3717 386.812 63.6921 387.045 64.1218C387.279 64.5515 387.333 65.0558 387.197 65.5254Z" fill="#2BB8CB"/>
<path opacity="0.5" d="M394.059 82.5569L373.837 90.5363L372.635 86.5575L392.835 78.5781L394.059 82.5569Z" fill="#2BB8CB"/>
<path d="M124.058 284.788C76.0644 307.689 120.82 315.463 188.45 290.806C251.078 267.976 295.405 235.583 239.3 244.521C242.315 256.494 134.461 300.98 124.058 284.788Z" fill="#008DA0"/>
<defs>
<linearGradient id="paint0_linear_417_1351" x1="249.557" y1="204.833" x2="117.153" y2="320.262" gradientUnits="userSpaceOnUse">
<stop offset="0.270407" stop-color="#2AB7CA"/>
<stop offset="0.66957" stop-color="#FFCD00"/>
</linearGradient>
</defs>
</svg>
