<svg width="42" height="42" viewBox="0 0 42 42" fill="none" xmlns="http://www.w3.org/2000/svg">
<path d="M21 3.5C11.34 3.5 3.5 11.34 3.5 21C3.5 30.66 11.34 38.5 21 38.5C30.66 38.5 38.5 30.66 38.5 21C38.5 11.34 30.66 3.5 21 3.5ZM30.1875 21.5775C30.1875 22.295 29.5925 22.89 28.875 22.89C28.1575 22.89 27.5625 22.295 27.5625 21.5775V16.2925L14.0525 29.8025C13.79 30.065 13.4575 30.1875 13.125 30.1875C12.7925 30.1875 12.46 30.065 12.1975 29.8025C11.69 29.295 11.69 28.455 12.1975 27.9475L25.7075 14.4375H20.4225C19.705 14.4375 19.11 13.8425 19.11 13.125C19.11 12.4075 19.705 11.8125 20.4225 11.8125H28.875C29.5925 11.8125 30.1875 12.4075 30.1875 13.125V21.5775Z" fill="#FED631"/>
</svg>
