<svg width="174" height="29" viewBox="0 0 174 29" fill="none" xmlns="http://www.w3.org/2000/svg">
<g clip-path="url(#clip0_947_22515)">
<path opacity="0.997" fill-rule="evenodd" clip-rule="evenodd" d="M12.7988 28.3734C16.362 28.1451 19.2641 26.6518 21.5055 23.8934C23.5356 21.1683 24.2911 18.1193 23.7721 14.7467C23.0543 11.1438 21.1121 8.42813 17.9455 6.60007C15.0663 5.09039 12.0618 4.77927 8.93214 5.66674C5.3415 6.86623 2.84817 9.22623 1.45214 12.7467C1.07083 13.7905 0.844165 14.8659 0.772139 15.9734C0.745552 15.4537 0.736672 14.9291 0.745472 14.4001C0.813552 9.95767 2.54689 6.31757 5.94547 3.48007C9.13744 1.00631 12.7464 0.0285277 16.7721 0.546741C20.8737 1.23031 24.0871 3.27919 26.4121 6.69341C28.6375 10.215 29.242 14.0017 28.2255 18.0534C27.1617 21.7382 24.9884 24.5603 21.7055 26.5201C19.7487 27.6403 17.642 28.2537 15.3855 28.3601C14.5233 28.3734 13.6611 28.3779 12.7988 28.3734Z" fill="#2AB7C9"/>
<path fill-rule="evenodd" clip-rule="evenodd" d="M12.8001 28.3733C8.78232 28.3779 4.76454 28.3733 0.746778 28.36C0.720138 24.4997 0.711258 20.6373 0.720111 16.7733C0.746618 16.5112 0.764405 16.2445 0.773445 15.9733C0.845471 14.8659 1.07214 13.7904 1.45344 12.7467C2.84947 9.22615 5.3428 6.86615 8.93344 5.66666C12.0631 4.77919 15.0676 5.09031 17.9468 6.59999C21.1134 8.42804 23.0556 11.1437 23.7734 14.7467C24.2924 18.1192 23.5369 21.1683 21.5068 23.8933C19.2654 26.6517 16.3633 28.1451 12.8001 28.3733Z" fill="#FDD531"/>
<path opacity="0.99" fill-rule="evenodd" clip-rule="evenodd" d="M70.1586 7.09347C71.0031 7.08901 71.8476 7.09347 72.6919 7.1068C72.8511 7.14141 72.9623 7.23475 73.0252 7.3868C73.0604 9.7412 73.0783 12.0967 73.0786 14.4535C73.9274 13.5689 74.9631 13.0401 76.1852 12.8668C77.4426 12.6868 78.625 12.9001 79.7319 13.5068C80.7036 14.1593 81.3482 15.0527 81.6652 16.1868C81.8146 16.7009 81.9036 17.2255 81.9319 17.7601C81.9498 20.5247 81.9498 23.2889 81.9319 26.0535C81.8855 26.2953 81.7388 26.4244 81.4919 26.4401C80.7098 26.458 79.9274 26.458 79.1452 26.4401C78.8588 26.4292 78.7034 26.2825 78.6786 26.0001C78.6698 23.4223 78.6607 20.8447 78.6519 18.2668C78.4892 16.6599 77.605 15.7975 75.9986 15.6801C74.3036 15.7972 73.3303 16.6951 73.0786 18.3735C73.0698 20.9247 73.0607 23.4756 73.0519 26.0268C73.0151 26.2945 72.8596 26.4324 72.5852 26.4401C71.8119 26.458 71.0386 26.458 70.2652 26.4401C70.0052 26.4329 69.8498 26.3041 69.7986 26.0535C69.7807 19.858 69.7807 13.6623 69.7986 7.4668C69.8527 7.27507 69.9727 7.15061 70.1586 7.09347Z" fill="white"/>
<path opacity="0.991" fill-rule="evenodd" clip-rule="evenodd" d="M111.814 7.09347C112.659 7.08901 113.503 7.09347 114.348 7.1068C114.507 7.14141 114.618 7.23475 114.681 7.3868C114.712 8.11909 114.725 8.85243 114.721 9.5868C114.698 11.218 114.698 12.8492 114.721 14.4801C116.167 13.2404 117.847 12.6937 119.761 12.8401C122.355 13.1471 124.208 14.4759 125.321 16.8268C125.988 18.4225 126.104 20.0583 125.668 21.7335C125.009 23.9743 123.591 25.5167 121.414 26.3601C119.555 26.958 117.75 26.8247 116.001 25.9601C115.359 25.61 114.795 25.1612 114.308 24.6135C114.158 25.1073 114.015 25.6052 113.881 26.1068C113.796 26.2983 113.65 26.4092 113.441 26.4401C112.926 26.458 112.41 26.458 111.894 26.4401C111.634 26.4329 111.479 26.3041 111.428 26.0535C111.422 19.8713 111.43 13.6759 111.454 7.4668C111.499 7.26645 111.619 7.142 111.814 7.09347ZM118.294 15.7335C120.143 15.6908 121.481 16.4908 122.308 18.1335C122.978 19.8729 122.663 21.4063 121.361 22.7335C120.091 23.8105 118.669 24.0681 117.094 23.5068C115.504 22.7679 114.669 21.5188 114.588 19.7601C114.666 18.0689 115.457 16.8468 116.961 16.0935C117.388 15.8991 117.833 15.7791 118.294 15.7335Z" fill="white"/>
<path opacity="0.99" fill-rule="evenodd" clip-rule="evenodd" d="M36.3458 8.58761C37.1903 8.58315 38.0348 8.58761 38.8791 8.60094C39.0815 8.65217 39.2015 8.78105 39.2391 8.98761C39.2524 10.3564 39.257 11.7255 39.2524 13.0943C40.1607 13.0815 41.0674 13.0948 41.9724 13.1343C42.1148 13.1879 42.1991 13.29 42.2258 13.4409C42.2436 14.0988 42.2436 14.7564 42.2258 15.4143C42.1786 15.5593 42.0852 15.6615 41.9458 15.7209C41.0492 15.7601 40.1516 15.7735 39.2524 15.7609C39.2479 18.0897 39.2524 20.4188 39.2658 22.7476C39.3735 23.6575 39.8844 24.0617 40.7991 23.9609C41.086 23.9239 41.3706 23.8751 41.6524 23.8143C41.9087 23.8257 42.0642 23.9591 42.1191 24.2143C42.2892 24.7929 42.445 25.3753 42.5858 25.9609C42.5844 26.2023 42.469 26.3623 42.2391 26.4409C41.3679 26.6988 40.4788 26.7876 39.5724 26.7076C38.4951 26.6332 37.5839 26.2111 36.8391 25.4409C36.3026 24.7743 36.0183 24.0097 35.9858 23.1476C35.9724 20.6855 35.9679 18.2231 35.9724 15.7609C35.5634 15.7655 35.1546 15.7609 34.7458 15.7476C34.5164 15.7049 34.3876 15.5673 34.3591 15.3343C34.3412 14.7297 34.3412 14.1255 34.3591 13.5209C34.385 13.2996 34.505 13.162 34.7191 13.1076C35.1367 13.0943 35.5546 13.0897 35.9724 13.0943C35.9679 11.7164 35.9724 10.3388 35.9858 8.96094C36.0308 8.76035 36.1508 8.6359 36.3458 8.58761Z" fill="white"/>
<path opacity="0.99" fill-rule="evenodd" clip-rule="evenodd" d="M167.04 8.58565C167.893 8.5812 168.746 8.58565 169.6 8.59899C169.826 8.65688 169.946 8.80355 169.96 9.03899C169.973 10.3902 169.978 11.7411 169.973 13.0923C170.881 13.0795 171.788 13.0929 172.693 13.1323C172.828 13.2049 172.912 13.3158 172.946 13.4657C172.964 14.1057 172.964 14.7457 172.946 15.3857C172.911 15.5457 172.817 15.6569 172.666 15.719C171.77 15.7579 170.872 15.7713 169.973 15.759C169.969 18.1145 169.973 20.4702 169.986 22.8257C170.048 23.3905 170.346 23.7593 170.88 23.9323C171.109 23.9726 171.341 23.9814 171.573 23.959C171.837 23.9155 172.099 23.8665 172.36 23.8123C172.635 23.8203 172.795 23.9627 172.84 24.239C173.008 24.8134 173.164 25.3913 173.306 25.9723C173.266 26.2822 173.088 26.4555 172.773 26.4923C171.942 26.7078 171.097 26.779 170.24 26.7057C169.098 26.6193 168.16 26.1438 167.426 25.279C166.992 24.675 166.752 23.9995 166.706 23.2523C166.693 20.7545 166.689 18.2569 166.693 15.759C166.293 15.7635 165.893 15.759 165.493 15.7457C165.273 15.7209 165.135 15.6009 165.08 15.3857C165.062 14.7457 165.062 14.1057 165.08 13.4657C165.121 13.2809 165.232 13.1609 165.413 13.1057C165.84 13.0923 166.266 13.0878 166.693 13.0923C166.689 11.7057 166.693 10.319 166.706 8.93232C166.751 8.74973 166.862 8.63419 167.04 8.58565Z" fill="white"/>
<path opacity="0.991" fill-rule="evenodd" clip-rule="evenodd" d="M48.7466 12.8266C50.2445 12.7093 51.6402 13.0247 52.9333 13.7733C54.5968 14.8893 55.561 16.4493 55.8266 18.4533C55.893 18.9418 55.9109 19.4306 55.88 19.9199C55.8258 20.0983 55.7058 20.2005 55.52 20.2266C52.3021 20.2354 49.0845 20.2445 45.8666 20.2533C45.9189 21.3626 46.3544 22.2871 47.1733 23.0266C48.4002 23.8922 49.7245 24.0701 51.1466 23.5599C51.9301 23.265 52.6056 22.8117 53.1733 22.1999C53.3845 22.069 53.589 22.0781 53.7866 22.2266C54.2256 22.7279 54.6746 23.2213 55.1333 23.7066C55.2298 23.8949 55.212 24.0725 55.08 24.2399C53.0816 26.3194 50.6594 27.0882 47.8133 26.5466C45.3522 25.9167 43.7389 24.3922 42.9733 21.9733C42.5 20.1522 42.6066 18.3655 43.2933 16.6133C44.3944 14.3266 46.2122 13.0642 48.7466 12.8266ZM49.1466 15.5199C50.3373 15.4378 51.2928 15.8645 52.0133 16.7999C52.2421 17.1439 52.4066 17.5173 52.5066 17.9199C50.3733 17.9554 48.24 17.9554 46.1066 17.9199C46.6098 16.4743 47.6232 15.6743 49.1466 15.5199Z" fill="white"/>
<path opacity="0.99" fill-rule="evenodd" clip-rule="evenodd" d="M62.7472 12.8268C64.7414 12.6903 66.5102 13.2458 68.0539 14.4935C68.4171 14.7943 68.7326 15.1364 69.0006 15.5202C69.0667 15.7396 69.0179 15.9306 68.8539 16.0935C68.3422 16.5228 67.8355 16.9583 67.3339 17.4002C67.1347 17.5839 66.9126 17.6194 66.6672 17.5068C65.3902 15.845 63.7547 15.3562 61.7606 16.0402C60.34 16.7154 59.5534 17.8399 59.4006 19.4135C59.3046 20.8154 59.7712 21.9842 60.8006 22.9202C62.0955 23.8698 63.491 24.0476 64.9872 23.4535C65.6078 23.1442 66.1235 22.7087 66.5339 22.1468C66.8152 21.9106 67.0907 21.9194 67.3606 22.1735C67.8238 22.5924 68.295 23.0012 68.7739 23.4002C69.123 23.6986 69.1275 24.0052 68.7872 24.3202C67.5022 25.7426 65.8976 26.5383 63.9739 26.7068C61.9294 26.8607 60.1072 26.3095 58.5072 25.0535C57.096 23.8178 56.3182 22.2578 56.1739 20.3735C56.0312 18.482 56.5379 16.793 57.6939 15.3068C58.6766 14.1743 59.899 13.4231 61.3606 13.0535C61.8224 12.9514 62.2846 12.8759 62.7472 12.8268Z" fill="white"/>
<path opacity="0.992" fill-rule="evenodd" clip-rule="evenodd" d="M89.973 12.8263C91.1156 12.7215 92.1911 12.9394 93.1996 13.4796C94.1772 14.1202 94.8306 15.0047 95.1596 16.133C95.3354 16.7156 95.433 17.3111 95.453 17.9196C95.4794 20.6583 95.4706 23.3962 95.4263 26.133C95.3554 26.322 95.2178 26.4242 95.013 26.4396C94.2308 26.4575 93.4484 26.4575 92.6663 26.4396C92.4223 26.4314 92.2666 26.3114 92.1996 26.0796C92.1908 23.5108 92.1818 20.9418 92.173 18.373C92.1322 17.5314 91.8076 16.8247 91.1996 16.253C90.438 15.7052 89.6026 15.554 88.693 15.7996C87.5468 16.1548 86.858 16.9236 86.6263 18.1063C86.5991 18.301 86.5812 18.4964 86.573 18.693C86.5642 21.1642 86.5551 23.6351 86.5463 26.1063C86.4778 26.3167 86.3311 26.4279 86.1063 26.4396C85.333 26.4575 84.5596 26.4575 83.7863 26.4396C83.5364 26.4383 83.381 26.3183 83.3196 26.0796C83.293 21.838 83.302 17.598 83.3463 13.3596C83.4084 13.2284 83.5106 13.1439 83.653 13.1063C84.2308 13.0884 84.8084 13.0884 85.3863 13.1063C85.581 13.141 85.7098 13.2519 85.773 13.4396C85.8842 13.8487 85.9954 14.2578 86.1063 14.6663C87.1924 13.63 88.4812 13.0167 89.973 12.8263Z" fill="white"/>
<path opacity="0.99" fill-rule="evenodd" clip-rule="evenodd" d="M102.668 12.8269C104.298 12.7059 105.827 13.0392 107.254 13.8269C109.306 15.1243 110.395 16.9952 110.521 19.4403C110.616 21.6003 109.892 23.4269 108.347 24.9203C107.101 25.9917 105.653 26.5872 104.001 26.7069C102.2 26.8568 100.546 26.4389 99.0408 25.4536C97.1568 24.0413 96.2059 22.148 96.1875 19.7736C96.1888 17.6115 96.9979 15.8248 98.6142 14.4136C99.8046 13.4789 101.155 12.9501 102.668 12.8269ZM103.014 15.7336C104.455 15.652 105.623 16.1675 106.521 17.2803C107.316 18.5541 107.476 19.9051 107.001 21.3336C106.331 22.904 105.135 23.7307 103.414 23.8136C101.892 23.8021 100.741 23.1533 99.9608 21.8669C99.3736 20.6493 99.3027 19.4048 99.7475 18.1336C100.37 16.7 101.459 15.9 103.014 15.7336Z" fill="white"/>
<path opacity="0.991" fill-rule="evenodd" clip-rule="evenodd" d="M132.72 12.8273C134.377 12.7083 135.923 13.0593 137.36 13.8806C139.274 15.1174 140.328 16.8817 140.52 19.1739C140.67 21.1038 140.146 22.8193 138.946 24.3206C137.64 25.7617 136.009 26.5571 134.053 26.7073C132.206 26.8633 130.517 26.4278 128.986 25.4006C127.29 24.1281 126.37 22.4259 126.226 20.2939C126.084 18.195 126.724 16.3817 128.146 14.8539C129.427 13.6385 130.951 12.963 132.72 12.8273ZM133.04 15.7339C134.454 15.6481 135.605 16.1459 136.493 17.2273C137.292 18.4398 137.488 19.7465 137.08 21.1473C136.449 22.8747 135.209 23.7638 133.36 23.8139C131.623 23.7667 130.419 22.9489 129.746 21.3606C129.292 20.0321 129.398 18.7521 130.066 17.5206C130.767 16.4438 131.758 15.8481 133.04 15.7339Z" fill="white"/>
<path opacity="0.991" fill-rule="evenodd" clip-rule="evenodd" d="M147.304 12.8275C149.253 12.6758 151.013 13.1691 152.584 14.3075C154.047 15.5038 154.887 17.0462 155.104 18.9342C155.32 20.8977 154.832 22.6577 153.638 24.2142C152.388 25.6502 150.81 26.4726 148.904 26.6809C146.884 26.9179 145.053 26.447 143.411 25.2675C141.935 24.0899 141.087 22.5566 140.864 20.6675C140.629 18.6462 141.136 16.8417 142.384 15.2542C143.699 13.795 145.339 12.9862 147.304 12.8275ZM147.624 15.7342C149.232 15.6467 150.472 16.2689 151.344 17.6009C151.948 18.7867 152.045 20.0134 151.638 21.2809C151.149 22.5494 150.247 23.3539 148.931 23.6942C147.643 23.9737 146.479 23.7158 145.438 22.9209C144.406 21.9507 143.957 20.755 144.091 19.3342C144.364 17.2371 145.542 16.0371 147.624 15.7342Z" fill="white"/>
<path opacity="0.99" fill-rule="evenodd" clip-rule="evenodd" d="M159.733 12.8264C161.245 12.7643 162.712 12.991 164.133 13.5064C164.24 13.5912 164.293 13.7024 164.293 13.8398C164.112 14.5115 163.912 15.1782 163.693 15.8398C163.56 16.1064 163.351 16.191 163.066 16.0931C162.202 15.7648 161.308 15.5648 160.386 15.4931C159.927 15.4734 159.505 15.5846 159.12 15.8264C158.673 16.3288 158.699 16.8088 159.2 17.2664C159.412 17.444 159.644 17.5952 159.893 17.7198C160.797 18.1454 161.695 18.5811 162.586 19.0264C163.198 19.3616 163.745 19.7838 164.226 20.2931C164.951 21.2019 165.209 22.2328 165 23.3864C164.828 24.4907 164.272 25.3395 163.333 25.9331C162.514 26.3934 161.634 26.6512 160.693 26.7064C159.046 26.7838 157.437 26.5704 155.866 26.0664C155.607 25.9603 155.513 25.7691 155.586 25.4931C155.811 24.8291 156.051 24.1715 156.306 23.5198C156.437 23.3944 156.593 23.3544 156.773 23.3998C157.811 23.8096 158.887 24.0451 160 24.1064C160.429 24.1192 160.838 24.0347 161.226 23.8531C161.649 23.5542 161.805 23.1496 161.693 22.6398C161.577 22.408 161.412 22.2168 161.2 22.0664C160.977 21.911 160.746 21.7686 160.506 21.6398C159.667 21.2336 158.84 20.807 158.026 20.3598C157.373 19.9827 156.791 19.516 156.28 18.9598C155.594 18.0288 155.389 16.9976 155.666 15.8664C155.988 14.6291 156.739 13.7624 157.92 13.2664C158.507 13.0352 159.111 12.8886 159.733 12.8264Z" fill="white"/>
<path opacity="0.02" fill-rule="evenodd" clip-rule="evenodd" d="M0.746763 14.4004C0.737963 14.9295 0.746843 15.454 0.77343 15.9737C0.76439 16.2449 0.746603 16.5116 0.720096 16.7737C0.71127 15.978 0.72015 15.1871 0.746763 14.4004Z" fill="#2DCBC5"/>
</g>
<defs>
<clipPath id="clip0_947_22515">
<rect width="174" height="29" fill="white"/>
</clipPath>
</defs>
</svg>
