<svg width="193" height="193" viewBox="0 0 193 193" fill="none" xmlns="http://www.w3.org/2000/svg">
<circle cx="96.5" cy="96.5" r="96.5" fill="#2AB7CA"/>
<path d="M163.605 135.877H30.2188V135.944H163.605V135.877Z" fill="#EBEBEB"/>
<path d="M66.2691 140.17H57.4336V140.237H66.2691V140.17Z" fill="#EBEBEB"/>
<path d="M87.491 138.148H75.873V138.215H87.491V138.148Z" fill="#EBEBEB"/>
<path d="M57.1674 137.693H44.2129V137.76H57.1674V137.693Z" fill="#EBEBEB"/>
<path d="M105.421 138.596H96.2734V138.662H105.421V138.596Z" fill="#EBEBEB"/>
<path d="M150.241 138.596H148.256V138.662H150.241V138.596Z" fill="#EBEBEB"/>
<path d="M120.754 138.596H107.797V138.662H120.754V138.596Z" fill="#EBEBEB"/>
<path d="M142.345 139.721H117.354V139.787H142.345V139.721Z" fill="#EBEBEB"/>
<path d="M93.4439 123.979H41.9327C41.5292 123.978 41.1424 123.817 40.8573 123.531C40.5722 123.246 40.4121 122.859 40.4121 122.455V50.0451C40.4156 49.6439 40.5773 49.2602 40.862 48.9775C41.1467 48.6948 41.5315 48.5358 41.9327 48.5352H93.4439C93.8479 48.5352 94.2353 48.6956 94.521 48.9813C94.8067 49.267 94.9672 49.6544 94.9672 50.0584V122.455C94.9672 122.859 94.8067 123.247 94.521 123.532C94.2353 123.818 93.8479 123.979 93.4439 123.979ZM41.9327 48.5885C41.5469 48.5892 41.1771 48.743 40.9045 49.0161C40.6319 49.2892 40.4788 49.6592 40.4788 50.0451V122.455C40.4788 122.841 40.6319 123.211 40.9045 123.484C41.1771 123.757 41.5469 123.911 41.9327 123.912H93.4439C93.83 123.911 94.2001 123.757 94.4731 123.484C94.7461 123.211 94.8998 122.841 94.9005 122.455V50.0451C94.8998 49.659 94.7461 49.2889 94.4731 49.0159C94.2001 48.7429 93.83 48.5892 93.4439 48.5885H41.9327Z" fill="#EBEBEB"/>
<path d="M151.148 123.979H99.6346C99.2308 123.978 98.8438 123.817 98.5583 123.532C98.2728 123.246 98.112 122.859 98.1113 122.455V50.0451C98.1155 49.6436 98.2778 49.26 98.5629 48.9774C98.8481 48.6947 99.2331 48.5358 99.6346 48.5352H151.148C151.549 48.5365 151.933 48.6958 152.217 48.9785C152.502 49.2611 152.663 49.6443 152.666 50.0451V122.455C152.666 122.858 152.507 123.245 152.222 123.53C151.938 123.816 151.552 123.977 151.148 123.979ZM99.6346 48.5885C99.2485 48.5892 98.8784 48.7429 98.6054 49.0159C98.3324 49.2889 98.1787 49.659 98.178 50.0451V122.455C98.1787 122.841 98.3324 123.211 98.6054 123.484C98.8784 123.757 99.2485 123.911 99.6346 123.912H151.148C151.535 123.911 151.905 123.757 152.178 123.484C152.451 123.211 152.604 122.841 152.605 122.455V50.0451C152.604 49.659 152.451 49.2889 152.178 49.0159C151.905 48.7429 151.535 48.5892 151.148 48.5885H99.6346Z" fill="#EBEBEB"/>
<path d="M125.26 98.4406H44.6388C44.3315 98.4449 44.0267 98.384 43.7446 98.262C43.4625 98.1401 43.2094 97.9598 43.002 97.7329C42.7946 97.5061 42.6376 97.238 42.5413 96.9461C42.445 96.6543 42.4116 96.3453 42.4432 96.0396L46.6182 46.4012C46.6833 45.7527 46.9835 45.1504 47.4622 44.7081C47.9409 44.2657 48.565 44.0139 49.2166 44.0003H129.835C130.143 43.9956 130.448 44.0561 130.73 44.1779C131.012 44.2998 131.266 44.4801 131.473 44.707C131.681 44.9339 131.838 45.2022 131.934 45.4943C132.03 45.7863 132.063 46.0954 132.031 46.4012L127.856 96.0423C127.79 96.6899 127.49 97.2912 127.012 97.7329C126.534 98.1746 125.911 98.4263 125.26 98.4406Z" fill="#E0E0E0"/>
<path d="M124.607 98.4405H43.9887C43.6812 98.4452 43.3763 98.3847 43.094 98.2629C42.8117 98.141 42.5584 97.9607 42.351 97.7338C42.1435 97.5069 41.9865 97.2386 41.8903 96.9465C41.7941 96.6545 41.761 96.3454 41.7931 96.0396L45.9575 46.4012C46.0225 45.7526 46.3227 45.1504 46.8014 44.708C47.2801 44.2657 47.9042 44.0139 48.5558 44.0002H129.191C129.498 43.9959 129.803 44.0568 130.085 44.1788C130.367 44.3007 130.62 44.481 130.827 44.7078C131.035 44.9347 131.192 45.2028 131.288 45.4947C131.384 45.7865 131.418 46.0955 131.386 46.4012L127.206 96.0423C127.14 96.6903 126.84 97.2919 126.361 97.7337C125.882 98.1755 125.259 98.4269 124.607 98.4405Z" fill="#EBEBEB"/>
<path d="M127.659 90.6395H42.2461L45.9356 46.75H131.348L127.659 90.6395Z" fill="#FAFAFA"/>
<path d="M111.476 85.6501C111.511 85.2999 111.673 84.9746 111.932 84.7358C112.191 84.4969 112.528 84.361 112.879 84.3536H153.25C153.416 84.3516 153.581 84.3847 153.733 84.4507C153.885 84.5166 154.022 84.614 154.134 84.7364C154.246 84.8587 154.331 85.0034 154.383 85.1608C154.435 85.3183 154.454 85.485 154.437 85.6501L154.085 89.8224H111.135L111.476 85.6501Z" fill="#E6E6E6"/>
<path d="M121.751 88.1799C121.609 88.1821 121.469 88.1544 121.339 88.0986C121.21 88.0427 121.093 87.9601 120.998 87.856C120.902 87.7519 120.83 87.6288 120.785 87.4947C120.741 87.3606 120.725 87.2186 120.74 87.0781C120.768 86.7843 120.904 86.5113 121.121 86.3111C121.338 86.1109 121.621 85.9975 121.916 85.9923C122.058 85.99 122.198 86.0178 122.328 86.0738C122.458 86.1298 122.574 86.2127 122.67 86.3171C122.766 86.4215 122.838 86.5449 122.882 86.6793C122.927 86.8137 122.942 86.956 122.927 87.0968C122.898 87.3901 122.762 87.6624 122.545 87.862C122.328 88.0617 122.045 88.1748 121.751 88.1799ZM121.916 86.2217C121.678 86.2259 121.45 86.3173 121.276 86.4787C121.101 86.6401 120.992 86.8601 120.969 87.0968C120.957 87.2056 120.969 87.3158 121.003 87.4198C121.037 87.5239 121.093 87.6195 121.167 87.7002C121.241 87.781 121.331 87.8451 121.432 87.8882C121.532 87.9314 121.641 87.9526 121.751 87.9504C121.988 87.9459 122.216 87.8547 122.391 87.694C122.565 87.5333 122.676 87.3143 122.7 87.0781C122.711 86.9684 122.698 86.8577 122.664 86.7531C122.629 86.6484 122.574 86.552 122.5 86.4698C122.426 86.3901 122.335 86.3268 122.234 86.284C122.134 86.2413 122.025 86.2201 121.916 86.2217Z" fill="white"/>
<path d="M118.28 88.1799C118.139 88.182 117.999 88.1543 117.869 88.0985C117.739 88.0427 117.622 87.9601 117.527 87.8561C117.431 87.752 117.358 87.629 117.313 87.4949C117.269 87.3608 117.253 87.2188 117.267 87.0781C117.295 86.7843 117.431 86.5113 117.648 86.3111C117.865 86.1109 118.148 85.9975 118.443 85.9923C118.584 85.99 118.724 86.0176 118.854 86.0732C118.983 86.1289 119.1 86.2113 119.195 86.3151C119.292 86.4195 119.366 86.543 119.412 86.6776C119.458 86.8123 119.475 86.9551 119.462 87.0968C119.433 87.391 119.296 87.664 119.078 87.8638C118.86 88.0636 118.576 88.1761 118.28 88.1799ZM118.443 86.2217C118.205 86.2265 117.978 86.3181 117.803 86.4794C117.629 86.6406 117.519 86.8603 117.496 87.0968C117.484 87.2059 117.496 87.3162 117.53 87.4205C117.564 87.5247 117.621 87.6205 117.695 87.7013C117.769 87.7821 117.86 87.8461 117.961 87.8891C118.062 87.9321 118.171 87.953 118.28 87.9504C118.518 87.9458 118.745 87.8545 118.919 87.6938C119.094 87.5331 119.203 87.3141 119.227 87.0781C119.24 86.9688 119.228 86.8581 119.194 86.7535C119.16 86.649 119.104 86.5529 119.03 86.4718C118.955 86.3907 118.865 86.3264 118.763 86.2833C118.662 86.2401 118.553 86.2192 118.443 86.2217Z" fill="white"/>
<path d="M114.807 88.1799C114.666 88.1821 114.526 88.1544 114.396 88.0986C114.266 88.0427 114.15 87.9601 114.054 87.856C113.959 87.7519 113.886 87.6288 113.842 87.4947C113.797 87.3606 113.782 87.2186 113.796 87.0781C113.825 86.7843 113.961 86.5113 114.178 86.3111C114.395 86.1109 114.678 85.9975 114.973 85.9923C115.114 85.99 115.255 86.0178 115.384 86.0738C115.514 86.1298 115.631 86.2127 115.727 86.3171C115.822 86.4215 115.895 86.5449 115.939 86.6793C115.983 86.8137 115.998 86.956 115.984 87.0968C115.954 87.3901 115.818 87.6624 115.601 87.862C115.385 88.0617 115.102 88.1748 114.807 88.1799ZM114.973 86.2217C114.735 86.2259 114.507 86.3173 114.332 86.4787C114.158 86.6401 114.048 86.8601 114.026 87.0968C114.014 87.2056 114.025 87.3158 114.06 87.4198C114.094 87.5239 114.15 87.6195 114.223 87.7002C114.297 87.781 114.388 87.8451 114.488 87.8882C114.589 87.9314 114.698 87.9526 114.807 87.9504C115.045 87.9459 115.272 87.8547 115.447 87.694C115.622 87.5333 115.732 87.3143 115.757 87.0781C115.767 86.9684 115.755 86.8577 115.72 86.7531C115.686 86.6484 115.63 86.552 115.557 86.4698C115.482 86.3901 115.392 86.3268 115.291 86.284C115.19 86.2413 115.082 86.2201 114.973 86.2217Z" fill="white"/>
<path d="M150.43 117.917H110.062C109.896 117.919 109.732 117.886 109.579 117.821C109.427 117.755 109.29 117.657 109.178 117.535C109.066 117.413 108.981 117.268 108.929 117.11C108.877 116.952 108.858 116.785 108.875 116.62L111.127 89.8203H154.077L151.826 116.62C151.79 116.969 151.629 117.293 151.372 117.531C151.116 117.77 150.781 117.907 150.43 117.917Z" fill="#F5F5F5"/>
<path d="M108.22 89.988C108.255 89.6374 108.417 89.3118 108.676 89.0728C108.936 88.8339 109.273 88.6983 109.626 88.6915H149.999C150.165 88.6892 150.33 88.7219 150.482 88.7878C150.635 88.8536 150.771 88.9509 150.883 89.0734C150.996 89.1959 151.081 89.3407 151.133 89.4983C151.185 89.656 151.203 89.8229 151.186 89.988L150.831 94.155H107.881L108.22 89.988Z" fill="#F5F5F5"/>
<path d="M118.495 92.5177C118.354 92.5199 118.214 92.4922 118.084 92.4364C117.954 92.3806 117.837 92.298 117.741 92.194C117.646 92.0899 117.573 91.9668 117.528 91.8328C117.483 91.6987 117.468 91.5567 117.481 91.416C117.51 91.1222 117.646 90.8492 117.863 90.649C118.08 90.4488 118.363 90.3353 118.658 90.3302C118.8 90.328 118.94 90.3557 119.07 90.4117C119.2 90.4677 119.317 90.5505 119.413 90.6549C119.508 90.7592 119.581 90.8826 119.626 91.017C119.67 91.1514 119.686 91.2938 119.672 91.4346C119.642 91.728 119.506 92.0003 119.289 92.1999C119.073 92.3996 118.79 92.5127 118.495 92.5177ZM118.658 90.5596C118.42 90.5643 118.193 90.656 118.018 90.8173C117.844 90.9785 117.734 91.1982 117.711 91.4346C117.699 91.5437 117.711 91.6541 117.745 91.7584C117.779 91.8626 117.835 91.9583 117.91 92.0392C117.984 92.12 118.075 92.184 118.176 92.227C118.276 92.2699 118.385 92.2908 118.495 92.2883C118.732 92.2837 118.96 92.1924 119.134 92.0317C119.309 91.871 119.418 91.652 119.442 91.416C119.454 91.3067 119.443 91.196 119.409 91.0914C119.375 90.9868 119.319 90.8908 119.245 90.8097C119.17 90.7285 119.079 90.6643 118.978 90.6211C118.877 90.578 118.768 90.557 118.658 90.5596Z" fill="#E6E6E6"/>
<path d="M115.022 92.5177C114.881 92.52 114.741 92.4923 114.611 92.4365C114.481 92.3806 114.365 92.298 114.269 92.1939C114.174 92.0898 114.101 91.9667 114.057 91.8326C114.012 91.6985 113.997 91.5565 114.011 91.416C114.04 91.1222 114.176 90.8492 114.392 90.649C114.609 90.4488 114.892 90.3353 115.187 90.3302C115.329 90.3279 115.469 90.3557 115.599 90.4117C115.729 90.4677 115.846 90.5506 115.941 90.655C116.037 90.7594 116.109 90.8828 116.154 91.0172C116.198 91.1516 116.213 91.2939 116.199 91.4346C116.169 91.728 116.033 92.0003 115.816 92.1999C115.599 92.3996 115.317 92.5127 115.022 92.5177ZM115.187 90.5596C114.95 90.5643 114.722 90.6559 114.547 90.8171C114.372 90.9783 114.262 91.198 114.238 91.4346C114.226 91.5438 114.238 91.6541 114.272 91.7584C114.306 91.8626 114.362 91.9583 114.437 92.0392C114.511 92.12 114.601 92.184 114.702 92.227C114.803 92.2699 114.912 92.2909 115.022 92.2883C115.259 92.2843 115.487 92.1932 115.662 92.0323C115.836 91.8715 115.946 91.6522 115.969 91.416C115.981 91.3069 115.97 91.1965 115.936 91.0921C115.902 90.9877 115.846 90.8918 115.772 90.8107C115.698 90.7296 115.608 90.6653 115.507 90.622C115.406 90.5787 115.297 90.5574 115.187 90.5596Z" fill="#E6E6E6"/>
<path d="M111.552 92.5177C111.411 92.52 111.271 92.4924 111.142 92.4368C111.012 92.3812 110.896 92.2988 110.8 92.1949C110.704 92.091 110.63 91.9679 110.584 91.8338C110.538 91.6996 110.521 91.5573 110.533 91.416C110.562 91.1222 110.698 90.8492 110.915 90.649C111.132 90.4488 111.415 90.3353 111.71 90.3302C111.851 90.328 111.992 90.3557 112.122 90.4117C112.252 90.4677 112.369 90.5505 112.464 90.6549C112.56 90.7592 112.633 90.8826 112.677 91.017C112.722 91.1514 112.738 91.2938 112.723 91.4346C112.694 91.7271 112.559 91.9986 112.343 92.1982C112.127 92.3977 111.846 92.5114 111.552 92.5177ZM111.715 90.5596C111.477 90.5643 111.25 90.656 111.075 90.8173C110.901 90.9785 110.791 91.1982 110.768 91.4346C110.756 91.5437 110.768 91.6541 110.802 91.7584C110.836 91.8626 110.893 91.9583 110.967 92.0392C111.041 92.12 111.132 92.184 111.233 92.227C111.334 92.2699 111.443 92.2908 111.552 92.2883C111.789 92.2837 112.017 92.1924 112.191 92.0317C112.366 91.871 112.475 91.652 112.499 91.416C112.51 91.3063 112.497 91.1956 112.463 91.091C112.428 90.9863 112.373 90.8899 112.299 90.8077C112.225 90.7278 112.134 90.6644 112.033 90.6217C111.933 90.579 111.824 90.5578 111.715 90.5596Z" fill="#E6E6E6"/>
<path d="M147.175 122.254H106.804C106.638 122.256 106.474 122.223 106.322 122.157C106.169 122.091 106.033 121.994 105.921 121.871C105.809 121.749 105.724 121.604 105.671 121.447C105.619 121.29 105.601 121.123 105.617 120.958L107.871 94.1523H150.822L148.568 120.952C148.534 121.302 148.374 121.627 148.117 121.867C147.861 122.106 147.526 122.244 147.175 122.254Z" fill="#FAFAFA"/>
<path d="M104.962 94.3259C104.998 93.9755 105.16 93.6502 105.419 93.4114C105.678 93.1726 106.016 93.0367 106.368 93.0294H146.736C146.902 93.027 147.066 93.0598 147.219 93.1257C147.371 93.1915 147.508 93.2888 147.62 93.4113C147.732 93.5337 147.817 93.6786 147.87 93.8362C147.922 93.9939 147.94 94.1608 147.923 94.3259L147.573 98.4983H104.623L104.962 94.3259Z" fill="#FAFAFA"/>
<path d="M115.239 96.8556C115.098 96.8579 114.957 96.8301 114.827 96.7742C114.697 96.7182 114.581 96.6353 114.485 96.5309C114.39 96.4265 114.317 96.303 114.273 96.1686C114.229 96.0342 114.213 95.8919 114.228 95.7512C114.257 95.4577 114.393 95.185 114.61 94.9852C114.827 94.7855 115.11 94.6726 115.405 94.6681C115.546 94.6658 115.686 94.6936 115.816 94.7496C115.946 94.8056 116.063 94.8885 116.159 94.9929C116.254 95.0972 116.326 95.2207 116.371 95.3551C116.415 95.4895 116.43 95.6318 116.416 95.7725C116.386 96.0658 116.25 96.3382 116.033 96.5378C115.817 96.7375 115.534 96.8506 115.239 96.8556ZM115.405 94.8975C115.167 94.9016 114.938 94.993 114.763 95.1543C114.588 95.3156 114.478 95.5356 114.455 95.7725C114.443 95.8816 114.455 95.992 114.489 96.0963C114.523 96.2005 114.579 96.2962 114.654 96.3771C114.728 96.4579 114.819 96.5219 114.919 96.5649C115.02 96.6078 115.129 96.6287 115.239 96.6262C115.477 96.6221 115.705 96.5306 115.879 96.3692C116.054 96.2079 116.163 95.9879 116.186 95.7512C116.198 95.6423 116.186 95.5322 116.152 95.4281C116.118 95.3241 116.062 95.2285 115.988 95.1477C115.914 95.0669 115.824 95.0029 115.723 94.9597C115.623 94.9166 115.514 94.8954 115.405 94.8975Z" fill="#F0F0F0"/>
<path d="M111.767 96.8556C111.625 96.8579 111.485 96.8301 111.355 96.7742C111.225 96.7182 111.108 96.6353 111.013 96.5309C110.917 96.4265 110.845 96.303 110.8 96.1686C110.756 96.0342 110.741 95.8919 110.755 95.7512C110.785 95.4579 110.921 95.1856 111.138 94.9859C111.355 94.7863 111.637 94.6732 111.932 94.6681C112.073 94.6658 112.214 94.6936 112.344 94.7496C112.474 94.8056 112.59 94.8885 112.686 94.9929C112.781 95.0972 112.854 95.2207 112.898 95.3551C112.942 95.4895 112.958 95.6318 112.943 95.7725C112.914 96.0661 112.778 96.3387 112.561 96.5385C112.344 96.7383 112.061 96.8512 111.767 96.8556ZM111.932 94.8975C111.694 94.9017 111.466 94.9931 111.292 95.1545C111.117 95.3159 111.008 95.5359 110.985 95.7725C110.973 95.8814 110.985 95.9915 111.019 96.0956C111.053 96.1997 111.109 96.2953 111.183 96.376C111.257 96.4568 111.347 96.5209 111.448 96.564C111.548 96.6072 111.657 96.6284 111.767 96.6262C112.005 96.6221 112.233 96.5308 112.408 96.3695C112.583 96.2081 112.693 95.9881 112.716 95.7512C112.728 95.6421 112.716 95.5317 112.682 95.4275C112.648 95.3232 112.592 95.2275 112.517 95.1467C112.443 95.0659 112.353 95.0018 112.252 94.9589C112.151 94.9159 112.042 94.895 111.932 94.8975Z" fill="#F0F0F0"/>
<path d="M108.296 96.8556C108.154 96.8579 108.014 96.8301 107.884 96.7742C107.754 96.7182 107.637 96.6353 107.542 96.5309C107.446 96.4265 107.374 96.303 107.33 96.1686C107.285 96.0342 107.27 95.8919 107.285 95.7512C107.314 95.4577 107.449 95.185 107.666 94.9852C107.883 94.7855 108.166 94.6726 108.461 94.6681C108.603 94.6658 108.743 94.6936 108.873 94.7496C109.003 94.8056 109.12 94.8885 109.215 94.9929C109.311 95.0972 109.383 95.2207 109.427 95.3551C109.472 95.4895 109.487 95.6318 109.472 95.7725C109.443 96.0658 109.307 96.3382 109.09 96.5378C108.873 96.7375 108.591 96.8506 108.296 96.8556ZM108.461 94.8975C108.223 94.9016 107.995 94.993 107.82 95.1543C107.645 95.3156 107.535 95.5356 107.511 95.7725C107.5 95.8816 107.511 95.992 107.546 96.0963C107.58 96.2005 107.636 96.2962 107.71 96.3771C107.785 96.4579 107.875 96.5219 107.976 96.5649C108.077 96.6078 108.186 96.6287 108.296 96.6262C108.534 96.6221 108.761 96.5306 108.936 96.3692C109.111 96.2079 109.22 95.9879 109.243 95.7512C109.255 95.6423 109.243 95.5322 109.209 95.4281C109.175 95.3241 109.119 95.2285 109.045 95.1477C108.971 95.0669 108.881 95.0029 108.78 94.9597C108.679 94.9166 108.571 94.8954 108.461 94.8975Z" fill="#F0F0F0"/>
<path d="M143.919 126.593H103.548C103.383 126.595 103.218 126.561 103.066 126.496C102.914 126.43 102.777 126.332 102.665 126.21C102.553 126.087 102.468 125.943 102.416 125.785C102.363 125.628 102.345 125.461 102.361 125.296L104.616 98.4961H147.566L145.312 125.296C145.277 125.645 145.116 125.968 144.86 126.207C144.604 126.446 144.269 126.583 143.919 126.593Z" fill="#E6E6E6"/>
<path d="M96.9121 150.594C125.479 150.594 148.637 149.242 148.637 147.575C148.637 145.907 125.479 144.555 96.9121 144.555C68.3454 144.555 45.1875 145.907 45.1875 147.575C45.1875 149.242 68.3454 150.594 96.9121 150.594Z" fill="#F5F5F5"/>
<path d="M144.432 121.12H53.305C53.2022 121.122 53.1003 121.101 53.0059 121.061C52.9115 121.02 52.8266 120.96 52.7568 120.885C52.6869 120.809 52.6336 120.72 52.6003 120.623C52.567 120.526 52.5544 120.422 52.5633 120.32L56.0501 59.7173C56.0656 59.504 56.1616 59.3047 56.3186 59.1595C56.4756 59.0144 56.6819 58.9344 56.8957 58.9356H148.007C148.11 58.9341 148.212 58.9542 148.307 58.9947C148.401 59.0351 148.486 59.095 148.557 59.1704C148.627 59.2458 148.68 59.3351 148.714 59.4326C148.747 59.53 148.76 59.6333 148.751 59.7359L145.264 120.333C145.25 120.545 145.156 120.743 145.002 120.889C144.847 121.035 144.644 121.118 144.432 121.12Z" fill="#F0F0F0"/>
<path d="M144.431 121.269H53.3044C53.1829 121.27 53.0624 121.246 52.9507 121.198C52.8389 121.15 52.7381 121.08 52.6548 120.992C52.5714 120.903 52.5071 120.799 52.466 120.684C52.425 120.57 52.4079 120.448 52.416 120.327L55.9027 59.7109C55.9197 59.4595 56.0317 59.2238 56.216 59.0519C56.4003 58.88 56.6431 58.7847 56.8951 58.7852H148.006C148.129 58.7837 148.25 58.8078 148.363 58.856C148.476 58.9042 148.577 58.9754 148.661 59.065C148.744 59.1547 148.808 59.2608 148.849 59.3766C148.889 59.4925 148.904 59.6154 148.894 59.7376L145.41 120.343C145.393 120.592 145.283 120.825 145.101 120.997C144.92 121.168 144.681 121.265 144.431 121.269ZM56.8951 59.0787C56.7158 59.077 56.5428 59.1446 56.4121 59.2674C56.2814 59.3901 56.2031 59.5586 56.1935 59.7376L52.7095 120.343C52.7031 120.425 52.7139 120.506 52.7411 120.584C52.7682 120.661 52.8112 120.731 52.8672 120.791C52.9232 120.85 52.991 120.897 53.0663 120.929C53.1416 120.961 53.2227 120.977 53.3044 120.975H144.431C144.606 120.973 144.774 120.905 144.901 120.785C145.028 120.665 145.105 120.501 145.117 120.327L148.604 59.7109C148.609 59.6292 148.598 59.5473 148.57 59.4701C148.543 59.393 148.5 59.3224 148.444 59.2627C148.387 59.2033 148.32 59.1562 148.244 59.1245C148.169 59.0928 148.088 59.0772 148.006 59.0787H56.8951Z" fill="#263238"/>
<path d="M143.329 119.911H52.2104C52.1087 119.912 52.0079 119.892 51.9142 119.852C51.8206 119.813 51.7362 119.754 51.6665 119.68C51.5968 119.606 51.5432 119.518 51.5091 119.423C51.4751 119.327 51.4613 119.225 51.4687 119.124L54.9528 58.5074C54.9649 58.2936 55.0574 58.0922 55.2118 57.9438C55.3662 57.7953 55.571 57.7108 55.7851 57.7071H146.912C147.015 57.7059 147.117 57.7263 147.211 57.7669C147.306 57.8076 147.39 57.8675 147.46 57.9429C147.53 58.0183 147.583 58.1074 147.617 58.2047C147.65 58.3019 147.663 58.405 147.654 58.5074L144.17 119.124C144.155 119.337 144.06 119.536 143.904 119.682C143.748 119.828 143.543 119.91 143.329 119.911Z" fill="white"/>
<path d="M143.33 120.057H52.211C52.0893 120.059 51.9685 120.035 51.8563 119.988C51.7442 119.941 51.6431 119.87 51.5596 119.782C51.476 119.693 51.4118 119.588 51.371 119.474C51.3302 119.359 51.3138 119.237 51.3227 119.116L54.8094 58.4994C54.8261 58.2509 54.936 58.0179 55.1169 57.8468C55.2979 57.6757 55.5367 57.5792 55.7858 57.5764H146.913C147.034 57.5739 147.154 57.5962 147.266 57.6421C147.378 57.688 147.479 57.7564 147.564 57.8431C147.647 57.9323 147.71 58.0374 147.751 58.1521C147.792 58.2668 147.809 58.3886 147.801 58.5101L144.314 119.132C144.298 119.382 144.187 119.616 144.004 119.788C143.821 119.96 143.581 120.056 143.33 120.057ZM55.7858 57.8698C55.6105 57.8721 55.4426 57.9404 55.3156 58.0611C55.1885 58.1817 55.1116 58.3459 55.1002 58.5207L51.6134 119.132C51.6084 119.214 51.62 119.296 51.6475 119.373C51.675 119.451 51.7179 119.522 51.7735 119.582C51.83 119.641 51.898 119.688 51.9732 119.72C52.0484 119.751 52.1294 119.767 52.211 119.766H143.33C143.505 119.764 143.673 119.695 143.799 119.574C143.926 119.454 144.004 119.29 144.016 119.116L147.51 58.4994C147.515 58.4178 147.503 58.336 147.476 58.259C147.448 58.182 147.406 58.1113 147.35 58.0512C147.294 57.9923 147.226 57.9455 147.151 57.9139C147.075 57.8822 146.994 57.8663 146.913 57.8671L55.7858 57.8698Z" fill="#263238"/>
<path d="M146.912 57.7189H55.7855C55.5713 57.7226 55.3665 57.8071 55.2121 57.9556C55.0577 58.104 54.9652 58.3054 54.9531 58.5192L54.625 64.2255H147.331L147.659 58.5192C147.668 58.4164 147.656 58.3128 147.622 58.2152C147.588 58.1176 147.535 58.0281 147.464 57.9527C147.394 57.8772 147.308 57.8174 147.213 57.7771C147.118 57.7368 147.016 57.717 146.912 57.7189Z" fill="#263238"/>
<path d="M61.4523 61.2231H57.5254L57.5547 60.7109H61.4816L61.4523 61.2231Z" fill="white"/>
<path d="M61.3781 62.5161H57.4512L57.4805 62.0039H61.4074L61.3781 62.5161Z" fill="white"/>
<path d="M61.5285 59.9302H57.6016L57.6309 59.418H61.5578L61.5285 59.9302Z" fill="white"/>
<path opacity="0.2" d="M100.249 62.7512H64.7415C64.6376 62.7525 64.5346 62.7324 64.4388 62.6921C64.3431 62.6519 64.2566 62.5924 64.1848 62.5174C64.113 62.4423 64.0574 62.3533 64.0214 62.2558C63.9855 62.1584 63.97 62.0546 63.9758 61.9509L64.0985 60.0035C64.1164 59.7871 64.2144 59.5852 64.3732 59.4372C64.5321 59.2892 64.7404 59.2057 64.9575 59.2031H100.465C100.569 59.2026 100.671 59.2233 100.767 59.2638C100.862 59.3043 100.948 59.3638 101.02 59.4387C101.092 59.5136 101.147 59.6023 101.183 59.6994C101.22 59.7965 101.236 59.8999 101.231 60.0035L101.119 61.9482C101.101 62.1667 101.001 62.3704 100.84 62.5191C100.679 62.6678 100.468 62.7506 100.249 62.7512Z" fill="white"/>
<g opacity="0.2">
<path d="M82.486 70.8322H54.248L54.6269 64.2109H82.8674L82.486 70.8322Z" fill="white"/>
<path d="M82.4845 70.9047H54.2466C54.2367 70.9049 54.2269 70.9031 54.2178 70.8994C54.2086 70.8957 54.2003 70.8903 54.1932 70.8834C54.1796 70.8679 54.172 70.848 54.1719 70.8274L54.5534 64.2061C54.5547 64.1877 54.5628 64.1704 54.5761 64.1576C54.5894 64.1448 54.6069 64.1373 54.6254 64.1367H82.866C82.886 64.1384 82.9048 64.1469 82.9193 64.1607C82.9316 64.1758 82.9382 64.1947 82.938 64.2141L82.5565 70.8354C82.5558 70.854 82.5479 70.8717 82.5345 70.8846C82.5211 70.8975 82.5031 70.9048 82.4845 70.9047ZM54.3239 70.7607H82.4151L82.7886 64.2834H54.6947L54.3239 70.7607Z" fill="#263238"/>
<path d="M82.1031 77.4533H53.8652L54.2467 70.832H82.4846L82.1031 77.4533Z" fill="white"/>
<path d="M82.1033 77.5252H53.8654C53.8555 77.5253 53.8457 77.5235 53.8365 77.5198C53.8274 77.5162 53.8191 77.5107 53.812 77.5038C53.8051 77.4964 53.7999 77.4875 53.7967 77.4778C53.7934 77.4682 53.7923 77.4579 53.7933 77.4478L54.1722 70.8265C54.1735 70.8079 54.1821 70.7905 54.196 70.7781C54.2099 70.7656 54.2282 70.7591 54.2468 70.7598H82.4848C82.5046 70.7601 82.5236 70.7677 82.5381 70.7812C82.5448 70.7882 82.5499 70.7967 82.5531 70.8059C82.5563 70.815 82.5576 70.8248 82.5568 70.8345L82.178 77.4585C82.1766 77.4771 82.168 77.4945 82.1541 77.5069C82.1402 77.5194 82.1219 77.5259 82.1033 77.5252ZM53.9427 77.3811H82.0339L82.4074 70.9039H54.3162L53.9427 77.3811Z" fill="#263238"/>
<path d="M81.7223 84.0744H53.4844L53.8659 77.4531H82.1038L81.7223 84.0744Z" fill="white"/>
<path d="M81.7224 84.1463H53.4845C53.4647 84.146 53.4457 84.1384 53.4311 84.1249C53.4243 84.1174 53.419 84.1086 53.4158 84.0989C53.4126 84.0893 53.4115 84.079 53.4125 84.0689L53.794 77.4476C53.7943 77.4385 53.7964 77.4295 53.8002 77.4213C53.8041 77.413 53.8095 77.4055 53.8161 77.3993C53.8228 77.3931 53.8307 77.3883 53.8392 77.3852C53.8478 77.382 53.8569 77.3806 53.866 77.3809H82.1039C82.1138 77.3808 82.1236 77.3826 82.1327 77.3862C82.1419 77.3899 82.1502 77.3954 82.1572 77.4023C82.1709 77.4177 82.1785 77.4376 82.1786 77.4583L81.7971 84.0796C81.7957 84.0982 81.7872 84.1156 81.7732 84.128C81.7593 84.1405 81.7411 84.147 81.7224 84.1463ZM53.5619 84.0102H81.6557L82.0265 77.533H53.9353L53.5619 84.0102Z" fill="#263238"/>
<path d="M79.986 114.293H51.748L52.0708 108.68H80.3088L79.986 114.293Z" fill="white"/>
<path d="M79.9845 114.366H51.7466C51.7364 114.366 51.7264 114.364 51.7171 114.36C51.7079 114.356 51.6997 114.35 51.6932 114.342C51.6797 114.327 51.6721 114.308 51.6719 114.288L51.9973 108.673C51.998 108.654 52.0059 108.637 52.0194 108.624C52.0328 108.611 52.0507 108.604 52.0694 108.604H80.3073C80.3174 108.603 80.3275 108.605 80.3367 108.609C80.346 108.614 80.3541 108.62 80.3606 108.628C80.3675 108.635 80.3727 108.643 80.3759 108.652C80.3791 108.661 80.3803 108.671 80.3793 108.681L80.0565 114.283C80.0586 114.294 80.0582 114.304 80.0555 114.314C80.0527 114.325 80.0477 114.334 80.0408 114.342C80.0338 114.35 80.0251 114.356 80.0154 114.361C80.0056 114.365 79.995 114.366 79.9845 114.366ZM51.8266 114.219H79.9178L80.2326 108.75H52.1387L51.8266 114.219Z" fill="#263238"/>
<path d="M79.6626 119.908H52.265C52.1561 119.91 52.0478 119.89 51.947 119.848C51.8463 119.807 51.7554 119.744 51.6801 119.666C51.6048 119.587 51.5468 119.493 51.5097 119.391C51.4726 119.288 51.4573 119.179 51.4647 119.07L51.7315 114.295H79.9854L79.6626 119.908Z" fill="white"/>
<path d="M79.6628 119.984H52.2652C52.1471 119.986 52.03 119.963 51.9212 119.917C51.8124 119.871 51.7142 119.803 51.6329 119.717C51.5509 119.632 51.4879 119.53 51.4479 119.418C51.4079 119.306 51.3919 119.188 51.4008 119.069L51.6676 114.294C51.669 114.275 51.6774 114.257 51.6913 114.245C51.7052 114.232 51.7234 114.225 51.7423 114.225H79.9856C79.9957 114.224 80.0058 114.226 80.015 114.23C80.0243 114.235 80.0324 114.241 80.0389 114.249C80.0457 114.256 80.051 114.264 80.0542 114.273C80.0574 114.282 80.0586 114.292 80.0576 114.302L79.7348 119.918C79.7334 119.936 79.7253 119.953 79.7119 119.965C79.6985 119.977 79.681 119.984 79.6628 119.984ZM51.8277 114.369L51.5609 119.075C51.5535 119.173 51.5667 119.272 51.5997 119.365C51.6326 119.458 51.6847 119.543 51.7525 119.615C51.8203 119.687 51.9023 119.744 51.9934 119.782C52.0844 119.82 52.1824 119.839 52.2812 119.838H79.5934L79.9082 114.369H51.8277Z" fill="#263238"/>
<path d="M80.3082 108.679H52.0703L53.4842 84.0742H81.7221L80.3082 108.679Z" fill="white"/>
<path d="M80.3084 108.751H52.0705C52.0604 108.751 52.0503 108.749 52.0411 108.745C52.0318 108.741 52.0237 108.734 52.0172 108.727C52.0102 108.72 52.0049 108.711 52.0016 108.702C51.9984 108.693 51.9973 108.683 51.9985 108.673L53.4124 84.0687C53.4138 84.0505 53.4219 84.0336 53.4353 84.0212C53.4487 84.0088 53.4662 84.002 53.4844 84.002H81.7223C81.7325 84.0016 81.7426 84.0033 81.752 84.0071C81.7615 84.0109 81.77 84.0166 81.777 84.024C81.7841 84.0313 81.7895 84.04 81.793 84.0495C81.7964 84.0591 81.7978 84.0692 81.797 84.0794L80.3725 108.681C80.3725 108.699 80.366 108.716 80.3541 108.728C80.3422 108.741 80.3259 108.749 80.3084 108.751ZM52.1479 108.604H80.2391L81.645 84.1461H53.5538L52.1479 108.604Z" fill="#263238"/>
<path d="M86.6094 119.908L89.2211 74.4688H139.793L137.179 119.908" fill="white"/>
<path d="M137.178 119.983C137.169 119.983 137.16 119.98 137.151 119.976C137.143 119.972 137.135 119.966 137.129 119.959C137.123 119.951 137.118 119.943 137.115 119.934C137.112 119.925 137.111 119.916 137.112 119.906L139.721 74.5547H89.3007L86.6916 119.927C86.6884 119.945 86.6793 119.96 86.6659 119.971C86.6525 119.982 86.6357 119.988 86.6183 119.988C86.6009 119.988 86.5841 119.982 86.5707 119.971C86.5573 119.96 86.5482 119.945 86.5449 119.927L89.1593 74.4854C89.1606 74.467 89.1687 74.4497 89.182 74.4369C89.1953 74.4241 89.2129 74.4166 89.2313 74.416H139.793C139.802 74.4161 139.812 74.4183 139.821 74.4224C139.83 74.4266 139.837 74.4326 139.843 74.44C139.851 74.4469 139.856 74.4552 139.86 74.4644C139.864 74.4736 139.865 74.4835 139.865 74.4934L137.25 119.935C137.245 119.95 137.235 119.963 137.222 119.972C137.209 119.98 137.194 119.984 137.178 119.983Z" fill="#263238"/>
<path d="M93.6947 115.389H90.7762C90.746 115.389 90.716 115.384 90.6881 115.372C90.6603 115.36 90.6353 115.342 90.6146 115.32C90.594 115.298 90.5783 115.272 90.5684 115.243C90.5586 115.215 90.5548 115.184 90.5575 115.154L90.5948 114.49C90.5995 114.427 90.6276 114.369 90.6736 114.326C90.7195 114.283 90.78 114.258 90.8429 114.258H93.7587C93.7889 114.257 93.819 114.263 93.847 114.274C93.8749 114.286 93.9001 114.303 93.921 114.325C93.9419 114.347 93.9579 114.373 93.9681 114.401C93.9783 114.43 93.9824 114.46 93.9801 114.49L93.9428 115.154C93.9354 115.216 93.9066 115.274 93.8612 115.317C93.8159 115.359 93.757 115.385 93.6947 115.389Z" fill="#263238"/>
<path d="M101.659 115.389H98.7433C98.7131 115.389 98.6831 115.383 98.6554 115.371C98.6276 115.359 98.6026 115.341 98.5818 115.319C98.5611 115.297 98.5451 115.271 98.5347 115.243C98.5244 115.215 98.5201 115.184 98.5219 115.154L98.5619 114.49C98.5659 114.427 98.5935 114.369 98.639 114.326C98.6845 114.283 98.7447 114.258 98.8073 114.258H101.726C101.756 114.257 101.786 114.263 101.813 114.275C101.841 114.287 101.866 114.304 101.886 114.326C101.907 114.348 101.923 114.373 101.933 114.402C101.943 114.43 101.947 114.46 101.945 114.49L101.907 115.154C101.903 115.217 101.875 115.277 101.829 115.32C101.783 115.364 101.722 115.388 101.659 115.389Z" fill="#263238"/>
<path d="M109.628 115.389H106.71C106.68 115.389 106.65 115.384 106.622 115.372C106.594 115.36 106.569 115.342 106.548 115.32C106.528 115.298 106.512 115.272 106.502 115.243C106.492 115.215 106.488 115.184 106.491 115.154L106.528 114.49C106.533 114.427 106.561 114.369 106.607 114.326C106.653 114.283 106.714 114.258 106.776 114.258H109.692C109.723 114.257 109.753 114.263 109.781 114.274C109.809 114.286 109.834 114.303 109.855 114.325C109.875 114.347 109.892 114.373 109.902 114.401C109.912 114.43 109.916 114.46 109.914 114.49L109.874 115.154C109.87 115.217 109.843 115.277 109.797 115.32C109.752 115.364 109.691 115.388 109.628 115.389Z" fill="#263238"/>
<path d="M117.595 115.389H114.679C114.649 115.389 114.619 115.384 114.591 115.372C114.563 115.36 114.537 115.342 114.517 115.32C114.496 115.298 114.48 115.272 114.47 115.243C114.459 115.215 114.455 115.184 114.458 115.154L114.498 114.49C114.502 114.427 114.529 114.369 114.575 114.326C114.62 114.283 114.68 114.258 114.743 114.258H117.662C117.692 114.257 117.721 114.263 117.749 114.275C117.777 114.287 117.801 114.304 117.822 114.326C117.843 114.348 117.858 114.373 117.868 114.402C117.879 114.43 117.883 114.46 117.88 114.49L117.843 115.154C117.839 115.217 117.811 115.277 117.765 115.32C117.719 115.364 117.658 115.388 117.595 115.389Z" fill="#263238"/>
<path d="M125.564 115.389H122.645C122.615 115.389 122.585 115.384 122.557 115.372C122.529 115.36 122.504 115.342 122.484 115.32C122.463 115.298 122.447 115.272 122.438 115.243C122.428 115.215 122.424 115.184 122.427 115.154L122.464 114.49C122.469 114.427 122.497 114.368 122.543 114.325C122.589 114.282 122.649 114.258 122.712 114.258H125.628C125.658 114.258 125.688 114.264 125.715 114.276C125.743 114.287 125.768 114.305 125.788 114.326C125.809 114.348 125.825 114.374 125.836 114.402C125.846 114.43 125.851 114.46 125.849 114.49L125.809 115.154C125.806 115.217 125.779 115.277 125.733 115.32C125.687 115.364 125.627 115.388 125.564 115.389Z" fill="#263238"/>
<path d="M133.528 115.389H130.613C130.582 115.389 130.552 115.384 130.524 115.372C130.496 115.36 130.471 115.342 130.45 115.32C130.429 115.298 130.413 115.272 130.403 115.243C130.393 115.215 130.389 115.184 130.391 115.154L130.429 114.49C130.437 114.428 130.466 114.372 130.511 114.329C130.556 114.287 130.615 114.262 130.677 114.258H133.595C133.625 114.257 133.655 114.263 133.683 114.275C133.71 114.287 133.735 114.304 133.756 114.326C133.776 114.348 133.792 114.373 133.802 114.402C133.812 114.43 133.816 114.46 133.814 114.49L133.777 115.154C133.773 115.217 133.745 115.277 133.699 115.32C133.653 115.364 133.592 115.388 133.528 115.389Z" fill="#263238"/>
<path d="M139.636 73.0869H133.604C133.574 73.087 133.544 73.0808 133.517 73.0689C133.489 73.0569 133.464 73.0393 133.443 73.0173C133.423 72.9952 133.407 72.9692 133.397 72.9408C133.387 72.9124 133.383 72.8822 133.385 72.8521L133.423 72.1879C133.43 72.1259 133.459 72.0685 133.504 72.0256C133.55 71.9827 133.609 71.9571 133.671 71.9531H139.703C139.733 71.9531 139.763 71.9592 139.79 71.9712C139.818 71.9831 139.843 72.0006 139.864 72.0226C139.885 72.0446 139.901 72.0706 139.911 72.099C139.921 72.1275 139.926 72.1577 139.924 72.1879L139.884 72.8521C139.88 72.9154 139.852 72.9747 139.806 73.0183C139.76 73.0619 139.699 73.0864 139.636 73.0869Z" fill="#263238"/>
<path d="M65.4581 74.9213H56.6065C56.5635 74.9217 56.5208 74.9133 56.4811 74.8964C56.4415 74.8796 56.4057 74.8547 56.3762 74.8234C56.3466 74.7921 56.3238 74.755 56.3093 74.7144C56.2948 74.6739 56.2888 74.6308 56.2917 74.5878L56.3424 73.6968C56.3485 73.6071 56.3881 73.523 56.4533 73.4612C56.5186 73.3994 56.6047 73.3644 56.6946 73.3633H65.5488C65.5918 73.3628 65.6345 73.3713 65.6742 73.3881C65.7138 73.405 65.7496 73.4298 65.7791 73.4611C65.8087 73.4925 65.8315 73.5296 65.846 73.5701C65.8605 73.6107 65.8665 73.6538 65.8636 73.6968L65.8102 74.5878C65.8042 74.6775 65.7646 74.7616 65.6993 74.8234C65.6341 74.8852 65.5479 74.9201 65.4581 74.9213Z" fill="#263238"/>
<path d="M70.873 89.2461H55.7656C55.725 89.2466 55.6847 89.2386 55.6474 89.2227C55.61 89.2068 55.5763 89.1833 55.5485 89.1537C55.5206 89.1241 55.4992 89.0891 55.4856 89.0508C55.4721 89.0125 55.4666 88.9718 55.4695 88.9313L55.5122 88.1683C55.5182 88.0836 55.5558 88.0042 55.6176 87.9459C55.6794 87.8876 55.7608 87.8547 55.8457 87.8535H70.9504C70.9911 87.8531 71.0315 87.861 71.069 87.8769C71.1065 87.8928 71.1403 87.9162 71.1684 87.9458C71.1964 87.9753 71.2181 88.0103 71.232 88.0486C71.2459 88.0869 71.2517 88.1277 71.2491 88.1683L71.2038 88.9313C71.1984 89.0158 71.1614 89.0951 71.1001 89.1535C71.0387 89.2118 70.9576 89.2449 70.873 89.2461Z" fill="#263238"/>
<path d="M66.4344 94.4613H55.4647C55.4243 94.4617 55.3843 94.4538 55.3471 94.4381C55.3099 94.4224 55.2763 94.3991 55.2485 94.3698C55.2207 94.3405 55.1993 94.3058 55.1855 94.2678C55.1718 94.2298 55.166 94.1894 55.1686 94.1491L55.2139 93.3862C55.2218 93.3036 55.26 93.2269 55.321 93.1707C55.3821 93.1146 55.4618 93.083 55.5447 93.0821H66.5144C66.555 93.0816 66.5953 93.0895 66.6327 93.1054C66.6701 93.1213 66.7038 93.1448 66.7316 93.1744C66.7594 93.204 66.7808 93.2391 66.7944 93.2773C66.808 93.3156 66.8135 93.3563 66.8105 93.3968L66.7678 94.1491C66.7624 94.2338 66.7249 94.3133 66.6629 94.3713C66.601 94.4293 66.5192 94.4614 66.4344 94.4613Z" fill="#263238"/>
<path d="M64.0576 99.677H55.166C55.1254 99.6775 55.0851 99.6695 55.0477 99.6536C55.0104 99.6377 54.9767 99.6142 54.9488 99.5846C54.921 99.555 54.8996 99.52 54.886 99.4817C54.8725 99.4434 54.867 99.4027 54.8699 99.3622L54.9126 98.6019C54.9186 98.5172 54.9562 98.4378 55.018 98.3795C55.0797 98.3212 55.1611 98.2882 55.2461 98.2871H64.1376C64.1781 98.287 64.2182 98.2953 64.2554 98.3113C64.2926 98.3273 64.3261 98.3508 64.3539 98.3803C64.3816 98.4098 64.403 98.4447 64.4168 98.4828C64.4305 98.521 64.4363 98.5615 64.4337 98.6019L64.3884 99.3622C64.383 99.4467 64.346 99.526 64.2846 99.5844C64.2233 99.6428 64.1422 99.6758 64.0576 99.677Z" fill="#263238"/>
<path d="M67.9764 104.891H54.8672C54.8266 104.891 54.7863 104.883 54.7489 104.867C54.7115 104.851 54.6779 104.828 54.65 104.798C54.6222 104.769 54.6008 104.734 54.5872 104.695C54.5736 104.657 54.5681 104.616 54.5711 104.576L54.6138 103.813C54.6198 103.728 54.6574 103.649 54.7192 103.59C54.7809 103.532 54.8623 103.499 54.9472 103.498H68.0565C68.0971 103.498 68.1374 103.506 68.1747 103.521C68.2121 103.537 68.2458 103.561 68.2736 103.59C68.3015 103.62 68.3229 103.655 68.3365 103.693C68.35 103.732 68.3555 103.772 68.3526 103.813L68.3099 104.576C68.3039 104.661 68.2663 104.74 68.2045 104.798C68.1428 104.857 68.0613 104.889 67.9764 104.891Z" fill="#263238"/>
<path d="M63.2978 81.5423H56.2257C56.1826 81.5428 56.1399 81.5344 56.1003 81.5175C56.0606 81.5007 56.0249 81.4758 55.9953 81.4445C55.9657 81.4132 55.943 81.3761 55.9284 81.3355C55.9139 81.295 55.9079 81.2519 55.9109 81.2089L55.9642 80.3179C55.9702 80.2286 56.0094 80.1449 56.0741 80.0832C56.1388 80.0214 56.2243 79.9862 56.3137 79.9844H63.3912C63.4343 79.9839 63.477 79.9924 63.5166 80.0092C63.5563 80.0261 63.592 80.0509 63.6216 80.0822C63.6511 80.1136 63.6739 80.1507 63.6884 80.1912C63.703 80.2318 63.7089 80.2749 63.706 80.3179L63.6526 81.2089C63.6466 81.299 63.6066 81.3835 63.5408 81.4454C63.475 81.5072 63.3882 81.5419 63.2978 81.5423Z" fill="#263238"/>
<path d="M61.5349 112.265H54.4601C54.417 112.265 54.3743 112.257 54.3346 112.24C54.295 112.223 54.2593 112.198 54.2297 112.167C54.2001 112.136 54.1774 112.099 54.1628 112.058C54.1483 112.018 54.1423 111.975 54.1453 111.932L54.1959 111.041C54.202 110.951 54.2416 110.867 54.3068 110.805C54.3721 110.743 54.4582 110.708 54.5481 110.707H61.6256C61.6685 110.707 61.7111 110.715 61.7507 110.732C61.7902 110.749 61.8257 110.774 61.8551 110.805C61.8845 110.836 61.907 110.874 61.9212 110.914C61.9354 110.955 61.941 110.998 61.9377 111.041L61.887 111.932C61.881 112.021 61.8414 112.105 61.7761 112.167C61.7109 112.229 61.6247 112.264 61.5349 112.265Z" fill="#263238"/>
<path d="M113.782 87.1271H101.137L101.865 74.4688H114.507L113.782 87.1271Z" fill="white"/>
<path d="M113.78 87.2133H101.137C101.127 87.2137 101.117 87.212 101.108 87.2082C101.098 87.2044 101.09 87.1987 101.083 87.1914C101.076 87.1841 101.07 87.1754 101.067 87.1658C101.063 87.1563 101.062 87.1461 101.063 87.136L101.791 74.4776C101.792 74.4592 101.8 74.4419 101.814 74.4291C101.827 74.4163 101.845 74.4088 101.863 74.4082H114.519C114.529 74.4079 114.539 74.4099 114.548 74.4141C114.557 74.4182 114.566 74.4245 114.572 74.4322C114.579 74.4391 114.585 74.4474 114.589 74.4566C114.592 74.4658 114.594 74.4757 114.593 74.4856L113.865 87.144C113.865 87.1544 113.862 87.1647 113.858 87.1741C113.853 87.1836 113.847 87.1919 113.839 87.1985C113.83 87.2051 113.821 87.2098 113.811 87.2124C113.801 87.215 113.79 87.2153 113.78 87.2133ZM101.212 87.0666H113.718L114.436 74.555H101.932L101.212 87.0666Z" fill="#263238"/>
<path d="M92.4757 90.6913H91.1445L91.2219 89.3574H92.5531L92.4757 90.6913Z" fill="white"/>
<path d="M92.4763 90.7638H91.1424C91.1227 90.7631 91.1038 90.7555 91.0891 90.7425C91.0762 90.7267 91.0695 90.7068 91.0704 90.6864L91.1478 89.3526C91.1484 89.3339 91.1563 89.3163 91.1698 89.3033C91.1832 89.2904 91.2011 89.2832 91.2198 89.2832H92.5536C92.5637 89.2832 92.5737 89.2854 92.5829 89.2895C92.5921 89.2937 92.6003 89.2997 92.607 89.3072C92.614 89.3141 92.6193 89.3225 92.6225 89.3317C92.6258 89.341 92.6269 89.3508 92.6257 89.3606L92.5483 90.6944C92.5483 90.7038 92.5464 90.713 92.5428 90.7216C92.5391 90.7302 92.5338 90.738 92.5271 90.7444C92.5203 90.7509 92.5124 90.756 92.5036 90.7593C92.4949 90.7626 92.4856 90.7642 92.4763 90.7638ZM91.2224 90.6197H92.4069L92.4763 89.4326H91.2918L91.2224 90.6197Z" fill="#263238"/>
<path d="M126.424 87.1271H113.781L114.507 74.4688H127.152L126.424 87.1271Z" fill="white"/>
<path d="M126.422 87.2141H113.78C113.77 87.2145 113.76 87.2127 113.75 87.209C113.741 87.2052 113.732 87.1994 113.725 87.1921C113.718 87.1848 113.713 87.1761 113.709 87.1666C113.706 87.157 113.705 87.1468 113.705 87.1367L114.434 74.4783C114.434 74.468 114.437 74.458 114.442 74.4488C114.446 74.4396 114.453 74.4314 114.461 74.4249C114.469 74.4184 114.478 74.4136 114.488 74.4109C114.498 74.4081 114.509 74.4075 114.519 74.409H127.161C127.171 74.4087 127.182 74.4107 127.191 74.4148C127.2 74.419 127.208 74.4252 127.215 74.433C127.222 74.4398 127.227 74.4482 127.231 74.4574C127.235 74.4666 127.236 74.4764 127.236 74.4864L126.508 87.1447C126.508 87.1552 126.505 87.1655 126.5 87.1749C126.496 87.1843 126.489 87.1926 126.481 87.1992C126.473 87.2058 126.464 87.2106 126.453 87.2131C126.443 87.2157 126.433 87.216 126.422 87.2141ZM113.857 87.0674H126.353L127.071 74.5557H114.575L113.857 87.0674Z" fill="#263238"/>
<path d="M139.064 87.1271H126.422L127.15 74.4688H139.793L139.064 87.1271Z" fill="white"/>
<path d="M139.062 87.2133H126.422C126.412 87.2134 126.403 87.2116 126.394 87.208C126.384 87.2043 126.376 87.1989 126.369 87.192C126.355 87.1765 126.348 87.1566 126.348 87.1359L127.076 74.4776C127.077 74.4591 127.085 74.4419 127.099 74.4291C127.112 74.4162 127.13 74.4088 127.148 74.4082H139.793C139.803 74.4083 139.812 74.4105 139.821 74.4146C139.83 74.4188 139.837 74.4248 139.844 74.4322C139.851 74.4391 139.856 74.4474 139.86 74.4566C139.864 74.4658 139.866 74.4757 139.865 74.4856L139.137 87.1439C139.136 87.1534 139.134 87.1627 139.13 87.1713C139.126 87.1799 139.121 87.1877 139.114 87.1941C139.107 87.2005 139.099 87.2056 139.09 87.2088C139.081 87.2121 139.072 87.2137 139.062 87.2133ZM126.497 87.0666H138.993L139.713 74.5549H127.217L126.497 87.0666Z" fill="#263238"/>
<path d="M147.137 67.594H82.6736C82.6545 67.594 82.6362 67.5864 82.6227 67.5729C82.6092 67.5594 82.6016 67.5411 82.6016 67.522C82.6016 67.5026 82.6091 67.484 82.6225 67.4701C82.6359 67.4561 82.6542 67.448 82.6736 67.4473H147.137C147.156 67.448 147.174 67.4561 147.188 67.4701C147.201 67.484 147.209 67.5026 147.209 67.522C147.209 67.5411 147.201 67.5594 147.188 67.5729C147.174 67.5864 147.156 67.594 147.137 67.594Z" fill="#263238"/>
<path d="M135.896 92.6085H91.0432C91.0333 92.6085 91.0238 92.6046 91.0168 92.5976C91.0098 92.5906 91.0059 92.5811 91.0059 92.5711C91.0083 92.5634 91.0134 92.5568 91.0202 92.5524C91.027 92.548 91.0352 92.5461 91.0432 92.5471H135.896C135.905 92.5471 135.914 92.5508 135.92 92.5573C135.927 92.5638 135.93 92.5726 135.93 92.5818C135.929 92.5896 135.924 92.5965 135.918 92.6013C135.911 92.6062 135.904 92.6087 135.896 92.6085Z" fill="#263238"/>
<path d="M135.665 96.6352H90.8069C90.797 96.6352 90.7875 96.6313 90.7805 96.6243C90.7735 96.6173 90.7695 96.6078 90.7695 96.5979C90.7695 96.588 90.7735 96.5785 90.7805 96.5715C90.7875 96.5645 90.797 96.5605 90.8069 96.5605H135.665C135.675 96.5605 135.684 96.5645 135.691 96.5715C135.698 96.5785 135.702 96.588 135.702 96.5979C135.702 96.6078 135.698 96.6173 135.691 96.6243C135.684 96.6313 135.675 96.6352 135.665 96.6352Z" fill="#263238"/>
<path d="M135.432 100.658H90.5738C90.5646 100.658 90.5558 100.654 90.5493 100.648C90.5428 100.641 90.5392 100.632 90.5392 100.623C90.5388 100.619 90.5394 100.614 90.541 100.609C90.5426 100.605 90.5451 100.601 90.5483 100.597C90.5516 100.594 90.5555 100.591 90.5599 100.589C90.5643 100.587 90.5691 100.586 90.5738 100.586H135.432C135.442 100.586 135.451 100.59 135.458 100.597C135.465 100.604 135.469 100.613 135.469 100.623C135.469 100.628 135.468 100.633 135.466 100.637C135.464 100.642 135.461 100.646 135.458 100.649C135.454 100.652 135.45 100.655 135.446 100.656C135.441 100.658 135.436 100.658 135.432 100.658Z" fill="#263238"/>
<path d="M135.201 104.683H90.3434C90.3386 104.683 90.3338 104.682 90.3295 104.681C90.3251 104.679 90.3211 104.676 90.3179 104.672C90.3146 104.669 90.3121 104.665 90.3105 104.66C90.309 104.656 90.3083 104.651 90.3087 104.646C90.3087 104.637 90.3123 104.628 90.3189 104.622C90.3254 104.615 90.3342 104.611 90.3434 104.611H135.201C135.206 104.611 135.211 104.612 135.215 104.613C135.22 104.615 135.224 104.617 135.227 104.621C135.231 104.624 135.234 104.628 135.236 104.632C135.238 104.637 135.239 104.641 135.239 104.646C135.239 104.656 135.235 104.666 135.228 104.673C135.221 104.68 135.211 104.683 135.201 104.683Z" fill="#263238"/>
<path d="M134.967 108.709H90.1116C90.1017 108.709 90.0922 108.706 90.0852 108.699C90.0782 108.692 90.0742 108.682 90.0742 108.672C90.0742 108.662 90.0782 108.653 90.0852 108.646C90.0922 108.639 90.1017 108.635 90.1116 108.635H134.967C134.977 108.635 134.986 108.639 134.993 108.646C135 108.653 135.004 108.662 135.004 108.672C135.004 108.682 135 108.692 134.993 108.699C134.986 108.706 134.977 108.709 134.967 108.709Z" fill="#263238"/>
<path d="M134.737 112.735H89.8791C89.8692 112.735 89.8597 112.731 89.8527 112.724C89.8457 112.717 89.8418 112.707 89.8418 112.698C89.8418 112.688 89.8457 112.678 89.8527 112.671C89.8597 112.664 89.8692 112.66 89.8791 112.66H134.737C134.742 112.66 134.747 112.661 134.751 112.663C134.755 112.665 134.759 112.668 134.763 112.671C134.766 112.675 134.768 112.679 134.77 112.683C134.771 112.688 134.772 112.693 134.772 112.698C134.772 112.707 134.768 112.716 134.762 112.723C134.755 112.73 134.746 112.734 134.737 112.735Z" fill="#263238"/>
<path d="M104.245 76.9679H102.914L102.991 75.6367H104.323L104.245 76.9679Z" fill="white"/>
<path d="M104.246 77.0431H102.912C102.893 77.042 102.874 77.0334 102.861 77.0191C102.854 77.0122 102.849 77.0038 102.845 76.9947C102.841 76.9855 102.84 76.9756 102.84 76.9658L102.917 75.6319C102.919 75.6135 102.927 75.5962 102.94 75.5834C102.953 75.5706 102.971 75.5631 102.989 75.5625H104.323C104.333 75.5622 104.343 75.5642 104.353 75.5684C104.362 75.5725 104.37 75.5787 104.376 75.5865C104.383 75.5935 104.389 75.6019 104.392 75.6111C104.395 75.6204 104.396 75.6302 104.395 75.6399L104.32 76.9738C104.319 76.9926 104.311 77.0103 104.297 77.0232C104.283 77.036 104.265 77.0432 104.246 77.0431ZM102.992 76.8964H104.176L104.246 75.7093H103.061L102.992 76.8964Z" fill="#263238"/>
<path d="M116.862 76.9679H115.533L115.608 75.6367H116.939L116.862 76.9679Z" fill="white"/>
<path d="M116.862 77.0431H115.528C115.508 77.0424 115.488 77.0338 115.474 77.0191C115.467 77.0122 115.462 77.0038 115.458 76.9947C115.455 76.9855 115.453 76.9756 115.453 76.9658L115.531 75.6319C115.532 75.6135 115.54 75.5962 115.553 75.5834C115.567 75.5706 115.584 75.5631 115.603 75.5625H116.936C116.947 75.5622 116.957 75.5642 116.966 75.5684C116.975 75.5725 116.983 75.5787 116.99 75.5865C116.997 75.5935 117.002 75.6019 117.005 75.6111C117.008 75.6204 117.009 75.6302 117.008 75.6399L116.934 76.9738C116.932 76.9922 116.924 77.0095 116.911 77.0223C116.898 77.0351 116.88 77.0425 116.862 77.0431ZM115.611 76.8964H116.795L116.862 75.7093H115.677L115.611 76.8964Z" fill="#263238"/>
<path d="M129.504 76.9679H128.176L128.25 75.6367H129.582L129.504 76.9679Z" fill="white"/>
<path d="M129.504 77.0431H128.17C128.15 77.0424 128.131 77.0338 128.117 77.0191C128.11 77.0122 128.105 77.0038 128.101 76.9947C128.097 76.9855 128.095 76.9756 128.096 76.9658L128.173 75.6319C128.174 75.6135 128.182 75.5962 128.196 75.5834C128.209 75.5706 128.227 75.5631 128.245 75.5625H129.579C129.589 75.5622 129.599 75.5642 129.608 75.5684C129.618 75.5725 129.626 75.5787 129.632 75.5865C129.639 75.5935 129.644 75.6019 129.648 75.6111C129.651 75.6204 129.652 75.6302 129.651 75.6399L129.576 76.9738C129.575 76.9922 129.567 77.0095 129.554 77.0223C129.54 77.0351 129.523 77.0425 129.504 77.0431ZM128.253 76.8964H129.438L129.504 75.7093H128.32L128.253 76.8964Z" fill="#263238"/>
</g>
<path d="M94.3833 112.7H90.4004L90.5605 109.891H94.5434L94.3833 112.7Z" fill="#455A64"/>
<path d="M94.3836 112.736H90.4007C90.3955 112.736 90.3903 112.735 90.3857 112.732C90.3811 112.73 90.377 112.726 90.374 112.722C90.3721 112.718 90.3711 112.714 90.3711 112.709C90.3711 112.704 90.3721 112.7 90.374 112.696L90.5341 109.889C90.5347 109.88 90.539 109.871 90.5459 109.864C90.5528 109.858 90.562 109.854 90.5714 109.854H94.5543C94.5585 109.853 94.5631 109.852 94.5677 109.852C94.5723 109.852 94.5768 109.853 94.581 109.854C94.5828 109.859 94.5837 109.863 94.5837 109.868C94.5837 109.872 94.5828 109.877 94.581 109.881L94.4183 112.69C94.42 112.696 94.4204 112.701 94.4195 112.707C94.4185 112.712 94.4163 112.718 94.4128 112.722C94.4094 112.727 94.405 112.73 94.3999 112.732C94.3948 112.735 94.3892 112.736 94.3836 112.736ZM90.438 112.661H94.3489L94.5063 109.927H90.5954L90.438 112.661Z" fill="#455A64"/>
<path d="M98.3657 112.701H94.3828L94.743 106.416H98.7285L98.3657 112.701Z" fill="#455A64"/>
<path d="M98.366 112.738H94.3831C94.3779 112.738 94.3728 112.737 94.3681 112.734C94.3635 112.732 94.3595 112.729 94.3564 112.725C94.3545 112.72 94.3535 112.716 94.3535 112.711C94.3535 112.707 94.3545 112.702 94.3564 112.698L94.7086 106.423C94.7086 106.414 94.7122 106.405 94.7187 106.399C94.7252 106.392 94.734 106.389 94.7432 106.389H98.7288C98.7337 106.389 98.7385 106.39 98.7429 106.393C98.7473 106.395 98.7513 106.398 98.7545 106.401C98.7577 106.405 98.7602 106.41 98.7617 106.414C98.7633 106.419 98.7639 106.424 98.7635 106.429L98.4034 112.714C98.4002 112.721 98.395 112.727 98.3883 112.732C98.3817 112.736 98.3739 112.738 98.366 112.738ZM94.4205 112.663H98.3313L98.6888 106.45H94.7779L94.4205 112.663Z" fill="#455A64"/>
<path d="M102.346 112.7H98.3633L98.9609 102.301H102.944L102.346 112.7Z" fill="#455A64"/>
<path d="M102.348 112.737H98.3649C98.3598 112.737 98.3548 112.735 98.3502 112.733C98.3456 112.731 98.3415 112.727 98.3382 112.724C98.3352 112.715 98.3352 112.706 98.3382 112.697L98.9385 102.293C98.9384 102.288 98.9394 102.284 98.9411 102.28C98.9429 102.276 98.9455 102.272 98.9488 102.269C98.952 102.266 98.9559 102.264 98.9601 102.262C98.9643 102.261 98.9687 102.26 98.9731 102.261H102.956C102.96 102.259 102.965 102.258 102.969 102.258C102.974 102.258 102.979 102.259 102.983 102.261C102.985 102.265 102.985 102.269 102.985 102.274C102.985 102.279 102.985 102.283 102.983 102.287L102.385 112.692C102.387 112.697 102.387 112.703 102.386 112.709C102.385 112.715 102.383 112.72 102.379 112.725C102.375 112.729 102.37 112.733 102.365 112.735C102.36 112.737 102.354 112.738 102.348 112.737ZM98.4049 112.662H102.313L102.908 102.338H98.9972L98.4049 112.662Z" fill="#455A64"/>
<path d="M106.331 112.699H102.348L103.145 98.8672H107.128L106.331 112.699Z" fill="#455A64"/>
<path d="M106.331 112.737H102.348C102.338 112.736 102.329 112.731 102.322 112.723C102.319 112.719 102.318 112.715 102.318 112.71C102.318 112.705 102.319 112.701 102.322 112.697L103.122 98.8644C103.122 98.8552 103.126 98.8464 103.132 98.8399C103.139 98.8334 103.147 98.8297 103.157 98.8297H107.129C107.138 98.8276 107.147 98.8276 107.155 98.8297C107.157 98.834 107.158 98.8385 107.158 98.8431C107.158 98.8477 107.157 98.8522 107.155 98.8564L106.355 112.691C106.357 112.696 106.357 112.701 106.357 112.705C106.357 112.71 106.355 112.715 106.353 112.719C106.351 112.724 106.348 112.727 106.344 112.73C106.34 112.733 106.336 112.735 106.331 112.737ZM102.388 112.662H106.299L107.099 98.9018H103.178L102.388 112.662Z" fill="#455A64"/>
<path d="M110.316 112.7H106.33L107.2 97.5898H111.183L110.316 112.7Z" fill="#455A64"/>
<path d="M110.317 112.737H106.332C106.327 112.737 106.322 112.736 106.318 112.733C106.314 112.731 106.31 112.728 106.308 112.724C106.306 112.72 106.305 112.715 106.305 112.711C106.305 112.706 106.306 112.702 106.308 112.697L107.177 97.5874C107.177 97.5782 107.181 97.5694 107.187 97.5629C107.194 97.5564 107.203 97.5527 107.212 97.5527H111.184C111.189 97.5526 111.195 97.5538 111.199 97.5561C111.204 97.5584 111.208 97.5619 111.211 97.5661C111.213 97.5703 111.214 97.5748 111.214 97.5794C111.214 97.584 111.213 97.5886 111.211 97.5928L110.341 112.703C110.342 112.71 110.339 112.718 110.335 112.724C110.331 112.73 110.324 112.735 110.317 112.737ZM106.372 112.663H110.283L111.147 97.6194H107.236L106.372 112.663Z" fill="#455A64"/>
<path d="M114.299 112.699H110.316L111.082 99.3574H115.068L114.299 112.699Z" fill="#455A64"/>
<path d="M114.3 112.736H110.317C110.311 112.736 110.306 112.735 110.302 112.733C110.297 112.731 110.293 112.727 110.29 112.723C110.288 112.719 110.287 112.714 110.287 112.71C110.287 112.705 110.288 112.7 110.29 112.696L111.058 99.3576C111.058 99.3484 111.062 99.3395 111.068 99.333C111.075 99.3265 111.084 99.3229 111.093 99.3229H115.079C115.082 99.3212 115.086 99.3203 115.091 99.3203C115.095 99.3203 115.099 99.3212 115.103 99.3229C115.106 99.3315 115.106 99.341 115.103 99.3496L114.337 112.688C114.338 112.694 114.338 112.7 114.337 112.705C114.335 112.711 114.333 112.716 114.329 112.721C114.326 112.725 114.321 112.729 114.316 112.732C114.311 112.734 114.305 112.736 114.3 112.736ZM110.354 112.662H114.265L115.028 99.3922H111.117L110.354 112.662Z" fill="#455A64"/>
<path d="M118.282 112.699H114.299L115.022 100.129H119.005L118.282 112.699Z" fill="#455A64"/>
<path d="M118.282 112.737H114.299C114.294 112.737 114.289 112.736 114.284 112.733C114.28 112.731 114.276 112.728 114.272 112.724C114.271 112.72 114.27 112.715 114.27 112.71C114.27 112.706 114.271 112.701 114.272 112.697L114.995 100.127C114.997 100.118 115.001 100.109 115.008 100.103C115.015 100.096 115.023 100.093 115.033 100.092H119.016C119.024 100.089 119.034 100.089 119.042 100.092C119.046 100.101 119.046 100.11 119.042 100.119L118.319 112.692C118.32 112.697 118.32 112.703 118.318 112.708C118.317 112.713 118.314 112.718 118.311 112.723C118.307 112.727 118.303 112.73 118.298 112.733C118.293 112.735 118.288 112.737 118.282 112.737ZM114.336 112.662H118.253L118.973 100.164H115.051L114.336 112.662Z" fill="#455A64"/>
<path d="M122.266 112.699H118.283L119.078 98.8672H123.064L122.266 112.699Z" fill="#455A64"/>
<path d="M122.256 112.737H118.284C118.279 112.736 118.274 112.735 118.269 112.733C118.264 112.73 118.26 112.727 118.257 112.723C118.255 112.719 118.254 112.715 118.254 112.71C118.254 112.705 118.255 112.701 118.257 112.697L119.057 98.8644C119.057 98.8552 119.061 98.8464 119.068 98.8399C119.074 98.8334 119.083 98.8297 119.092 98.8297H123.056C123.065 98.8276 123.074 98.8276 123.083 98.8297C123.085 98.8385 123.085 98.8477 123.083 98.8564L122.283 112.691C122.284 112.696 122.285 112.701 122.284 112.706C122.284 112.711 122.282 112.716 122.28 112.72C122.277 112.724 122.274 112.728 122.27 112.731C122.266 112.734 122.261 112.736 122.256 112.737ZM118.313 112.662H122.221L123.022 98.9018H119.113L118.313 112.662Z" fill="#455A64"/>
<path d="M126.251 112.7H122.266L122.901 101.68H126.883L126.251 112.7Z" fill="#455A64"/>
<path d="M126.256 112.739H122.254C122.244 112.738 122.235 112.733 122.228 112.725C122.226 112.721 122.225 112.717 122.225 112.712C122.225 112.707 122.226 112.703 122.228 112.699L122.86 101.678C122.861 101.669 122.866 101.66 122.873 101.654C122.879 101.648 122.888 101.644 122.897 101.644H126.88C126.885 101.642 126.889 101.641 126.894 101.641C126.898 101.641 126.903 101.642 126.907 101.644C126.909 101.648 126.91 101.652 126.91 101.657C126.91 101.661 126.909 101.666 126.907 101.67L126.272 112.691C126.274 112.695 126.276 112.699 126.276 112.704C126.277 112.709 126.276 112.714 126.274 112.718C126.273 112.723 126.271 112.727 126.267 112.73C126.264 112.734 126.26 112.737 126.256 112.739ZM122.311 112.664H126.221L126.851 101.726H122.935L122.311 112.664Z" fill="#455A64"/>
<path d="M130.235 112.699H126.252L127.111 97.7441H131.094L130.235 112.699Z" fill="#455A64"/>
<path d="M130.234 112.738H126.256C126.251 112.738 126.246 112.737 126.241 112.734C126.237 112.732 126.232 112.728 126.229 112.724C126.228 112.72 126.227 112.716 126.227 112.711C126.227 112.706 126.228 112.702 126.229 112.698L127.088 97.7583C127.089 97.7489 127.093 97.74 127.1 97.7336C127.107 97.7272 127.116 97.7236 127.126 97.7236H131.109C131.113 97.7217 131.117 97.7207 131.122 97.7207C131.127 97.7207 131.131 97.7217 131.135 97.7236C131.137 97.7278 131.138 97.7324 131.138 97.737C131.138 97.7415 131.137 97.7461 131.135 97.7503L130.276 112.706C130.274 112.715 130.269 112.724 130.261 112.73C130.253 112.736 130.244 112.738 130.234 112.738ZM126.288 112.663H130.199L131.058 97.7823H127.144L126.288 112.663Z" fill="#455A64"/>
<path d="M134.215 112.699H130.232L131.281 94.4727H135.264L134.215 112.699Z" fill="#455A64"/>
<path d="M134.216 112.736H130.233C130.228 112.736 130.222 112.735 130.218 112.733C130.213 112.731 130.209 112.727 130.206 112.723C130.204 112.719 130.203 112.714 130.203 112.71C130.203 112.705 130.204 112.7 130.206 112.696L131.254 94.4703C131.254 94.4655 131.255 94.4608 131.257 94.4564C131.259 94.452 131.262 94.4481 131.266 94.4448C131.269 94.4416 131.273 94.4391 131.278 94.4375C131.282 94.4359 131.287 94.4353 131.292 94.4356H135.275C135.28 94.4359 135.285 94.4372 135.289 94.4395C135.294 94.4418 135.298 94.445 135.301 94.449C135.304 94.4576 135.304 94.467 135.301 94.4757L134.258 112.702C134.257 112.712 134.252 112.721 134.244 112.727C134.236 112.734 134.226 112.737 134.216 112.736ZM130.27 112.662H134.181L135.224 94.521H131.324L130.27 112.662Z" fill="#455A64"/>
<path d="M101.133 87.1291H88.4902L89.2185 74.4707H101.861L101.133 87.1291Z" fill="#455A64"/>
<path d="M101.137 87.2153H88.492C88.473 87.2152 88.4548 87.2075 88.4414 87.1939C88.4341 87.1866 88.4285 87.1778 88.4248 87.1682C88.4211 87.1585 88.4195 87.1482 88.42 87.1379L89.1483 74.4795C89.1496 74.4611 89.1577 74.4438 89.171 74.431C89.1843 74.4182 89.2019 74.4108 89.2203 74.4102H101.863C101.873 74.4099 101.883 74.4119 101.892 74.416C101.901 74.4202 101.91 74.4264 101.916 74.4342C101.93 74.4487 101.937 74.4677 101.937 74.4876L101.209 87.1459C101.208 87.1646 101.201 87.1822 101.187 87.1951C101.174 87.2081 101.156 87.2153 101.137 87.2153ZM88.5694 87.0686H101.068L101.785 74.5569H89.2897L88.5694 87.0686Z" fill="#455A64"/>
<path d="M91.5758 77.0451H90.242C90.2226 77.044 90.2044 77.0353 90.1913 77.0211C90.1843 77.0141 90.1787 77.0058 90.1751 76.9966C90.1714 76.9874 90.1697 76.9776 90.17 76.9677L90.2473 75.6338C90.2486 75.6154 90.2567 75.5981 90.27 75.5853C90.2833 75.5725 90.3009 75.5651 90.3193 75.5645H91.6532C91.6633 75.5642 91.6734 75.5662 91.6827 75.5703C91.6919 75.5745 91.7001 75.5807 91.7066 75.5885C91.7134 75.5955 91.7186 75.6039 91.7218 75.6131C91.7251 75.6223 91.7262 75.6321 91.7252 75.6418L91.6505 76.9757C91.6492 76.9946 91.6407 77.0122 91.6269 77.0251C91.613 77.038 91.5948 77.0451 91.5758 77.0451ZM90.322 76.8984H91.5065L91.5758 75.7112H90.3914L90.322 76.8984Z" fill="white"/>
<path d="M68.3658 89.6446L68.0376 90.0661L67.6828 90.5356C67.4481 90.8558 67.2106 91.1759 66.9892 91.5013C66.5357 92.1523 66.1195 92.8165 65.7487 93.4728C65.562 93.8036 65.3912 94.1344 65.2419 94.4599C65.0888 94.773 64.9534 95.0946 64.8364 95.4229C64.6283 95.9729 64.499 96.5495 64.4522 97.1356L64.2601 96.3353C64.4202 96.8155 64.5829 97.317 64.7937 97.8212C65.0044 98.3254 65.2098 98.8483 65.4553 99.3631C65.7007 99.878 65.9381 100.409 66.1889 100.94C66.4397 101.471 66.7224 102.007 66.9385 102.54L66.9866 102.65C67.1129 102.935 67.1414 103.255 67.0678 103.558C66.9942 103.862 66.8225 104.133 66.5793 104.329C66.3362 104.525 66.0352 104.635 65.723 104.643C65.4107 104.65 65.1047 104.554 64.8524 104.37C64.3133 103.981 63.7991 103.557 63.3131 103.103C62.8329 102.658 62.3794 102.186 61.9365 101.689C61.4943 101.184 61.0794 100.655 60.6934 100.105C60.2912 99.5311 59.9276 98.9313 59.6049 98.3094C59.5161 98.1332 59.4591 97.9426 59.4369 97.7465L59.4129 97.5011C59.2984 96.3074 59.3996 95.1028 59.7117 93.945C59.9756 92.9122 60.3448 91.9092 60.8134 90.9518C61.2514 90.0484 61.7534 89.1774 62.3154 88.3454C62.5821 87.9346 62.8729 87.5318 63.177 87.1423C63.3291 86.9475 63.4812 86.7528 63.6412 86.5607L63.8867 86.2699L64.1668 85.9551C64.6453 85.4091 65.3178 85.0711 66.0415 85.0129C66.7652 84.9547 67.4831 85.1808 68.0428 85.6433C68.6024 86.1057 68.9598 86.7681 69.0391 87.4898C69.1183 88.2115 68.9131 88.9357 68.4671 89.5086L68.3658 89.6446Z" fill="#B65B52"/>
<path d="M67.2319 83.084C64.7509 83.8416 62.2539 87.8592 62.2539 87.8592C62.2939 89.3665 64.5108 92.8852 66.1728 93.7015C67.4014 92.7457 68.3392 91.4662 68.8805 90.0067C69.7796 87.4484 68.467 83.5188 67.2319 83.084Z" fill="#455A64"/>
<path d="M66.3742 102.322L64.899 102.979C63.6985 104.174 65.4992 105.454 65.4992 105.454L66.1181 106.42C66.2364 106.583 66.4081 106.698 66.6032 106.747C66.7983 106.796 67.0044 106.775 67.1852 106.687L68.2176 106.233C68.4344 106.152 68.6111 105.99 68.7106 105.781C68.8101 105.572 68.8247 105.332 68.7512 105.113L68.367 104.184C68.2484 103.915 68.0651 103.68 67.8335 103.499L66.3742 102.322Z" fill="#B55B52"/>
<path d="M76.1024 83.1976C75.8721 82.7476 75.4959 82.3893 75.0353 82.1812C74.8624 81.7334 74.8492 81.2397 74.9979 80.7833L69.7559 79.1133C70.18 80.8473 70.5108 82.2158 69.8679 83.0562C70.8976 83.6858 72.7864 84.8169 74.8459 84.7582C76.9054 84.6995 76.4385 83.9259 76.1024 83.1976Z" fill="#B55B52"/>
<path d="M75.5985 75.8281C75.6358 76.0282 75.7719 76.1695 75.9053 76.1429C76.0386 76.1162 76.1107 75.9348 76.0733 75.7347C76.036 75.5346 75.8999 75.3906 75.7692 75.4172C75.6385 75.4439 75.5691 75.6253 75.5985 75.8281Z" fill="#263238"/>
<path d="M75.7422 76.1152L76.0436 77.8066C76.2461 77.8107 76.448 77.7819 76.6412 77.7212C76.6794 77.7071 76.713 77.6829 76.7384 77.6512C76.7639 77.6195 76.7803 77.5815 76.7857 77.5412C76.7912 77.5009 76.7856 77.4598 76.7696 77.4225C76.7535 77.3851 76.7276 77.3528 76.6946 77.329C76.3014 76.9901 75.9779 76.5778 75.7422 76.1152Z" fill="#A02724"/>
<path d="M75.9497 74.606C75.9416 74.6239 75.929 74.6395 75.9131 74.6512C75.8972 74.6629 75.8786 74.6703 75.859 74.6727C75.7099 74.6922 75.5676 74.747 75.4438 74.8323C75.3199 74.9176 75.2181 75.0312 75.1468 75.1635C75.1407 75.1781 75.1317 75.1912 75.1204 75.2023C75.1092 75.2133 75.0958 75.2219 75.0811 75.2276C75.0664 75.2334 75.0507 75.2361 75.0349 75.2356C75.0192 75.2351 75.0037 75.2315 74.9894 75.2249C74.9603 75.2115 74.9376 75.1872 74.9261 75.1573C74.9146 75.1274 74.9153 75.0942 74.928 75.0648C75.0158 74.8961 75.1428 74.7509 75.2983 74.6413C75.4538 74.5318 75.6332 74.4611 75.8217 74.4352C75.8373 74.4326 75.8533 74.4331 75.8687 74.4369C75.8842 74.4406 75.8987 74.4474 75.9114 74.4569C75.9241 74.4663 75.9348 74.4783 75.9427 74.492C75.9507 74.5057 75.9558 74.5209 75.9577 74.5366C75.9631 74.56 75.9603 74.5845 75.9497 74.606Z" fill="#263238"/>
<path d="M68.7289 76.4588C69.3532 78.7157 69.8307 80.2364 71.4607 80.962C74.6966 82.4025 76.1452 80.8739 76.2626 78.4917C76.3639 76.3575 75.3235 73.0175 72.7252 72.532C70.1268 72.0464 68.0993 74.2019 68.7289 76.4588Z" fill="#B55B52"/>
<path d="M68.5144 140.93L64.873 140.964L64.7129 145.481L67.7541 145.457L68.5144 140.93Z" fill="#B55B52"/>
<path d="M64.4238 123.66C64.117 117.863 64.2371 107.288 66.1792 104.62L77.565 104.354C77.565 104.354 73.9396 118.887 73.0112 124.3C72.0455 129.926 68.0492 143.705 68.0492 143.705L64.7813 143.604C64.7813 143.604 62.8685 130.276 64.4238 123.66Z" fill="#263238"/>
<path d="M82.942 140.93L79.3086 140.964L80.1356 145.481L83.1715 145.457L82.942 140.93Z" fill="#B55B52"/>
<path d="M80.0323 146.881H80.806L80.942 146.542L81.4222 146.884H85.8747C85.8096 146.472 85.6557 146.08 85.4238 145.734C85.4238 145.734 84.2127 145.595 83.511 144.848C83.4893 144.82 83.4605 144.799 83.4277 144.786C83.3949 144.773 83.3593 144.768 83.3243 144.774C82.8815 144.878 81.1181 145.254 80.0163 144.859C79.9921 144.848 79.965 144.843 79.9384 144.847C79.9119 144.851 79.8869 144.862 79.8666 144.879C79.8462 144.897 79.8314 144.92 79.8239 144.946C79.8164 144.971 79.8165 144.999 79.8242 145.024C79.9382 145.637 80.0077 146.258 80.0323 146.881Z" fill="#263238"/>
<path d="M74.9183 123.66C73.3176 117.863 70.9567 107.288 72.3039 104.62L83.8765 104.354C83.8765 104.354 83.3669 118.887 83.6471 124.297C83.9405 129.924 83.0815 143.703 83.0815 143.703L79.8322 143.836C79.8322 143.836 74.8409 130.276 74.9183 123.66Z" fill="#263238"/>
<path opacity="0.2" d="M71.9901 105.771C69.1756 106.116 66.7773 106.5 65.3021 106.753C64.2083 110.936 64.171 118.905 64.4244 123.659C64.3764 123.864 64.3337 124.075 64.291 124.291C67.0148 125.358 69.9546 124.928 73.0305 124.192C73.2306 123.04 73.5454 121.5 73.9215 119.782C72.721 114.799 71.5846 108.719 71.9901 105.771Z" fill="black"/>
<path opacity="0.2" d="M83.6938 110.74C83.0322 107.506 82.3092 105.004 82.3092 105.004C80.6766 105.025 78.9986 105.111 77.3472 105.236C76.7523 107.637 75.0663 114.536 73.9219 119.783C74.2607 121.194 74.6048 122.52 74.9196 123.659V123.718C77.7314 122.987 80.6392 122.208 83.5844 122.229C83.5284 119.009 83.6057 114.448 83.6938 110.74Z" fill="black"/>
<path d="M76.6556 82.4848C74.0932 82.3096 71.5212 82.3301 68.9619 82.5462C68.2648 82.6114 67.5887 82.8201 66.9759 83.1589C66.3632 83.4978 65.8271 83.9596 65.4013 84.5154C64.9755 85.0713 64.6691 85.7091 64.5014 86.3889C64.3337 87.0687 64.3083 87.7758 64.4268 88.4659C65.71 96.0689 64.8776 101.692 65.6513 104.619C65.6513 104.619 77.456 104.827 84.3254 104.352C84.8189 96.317 83.0502 94.6417 81.004 86.169C80.5425 84.2829 78.5897 82.6236 76.6556 82.4848Z" fill="#455A64"/>
<path d="M84.3185 104.353C84.3185 104.353 86.6021 116.435 84.8734 121.741C77.137 120.474 69.0271 125.476 63.1367 120.962C63.3555 114.536 64.5479 106.594 65.6364 104.62C65.6364 104.62 75.7071 103.646 84.3185 104.353Z" fill="#263238"/>
<mask id="mask0_770_2162" style="mask-type:luminance" maskUnits="userSpaceOnUse" x="63" y="104" width="23" height="19">
<path d="M84.3204 104.349C84.3204 104.349 86.604 116.431 84.8753 121.737C77.1389 120.47 69.029 125.472 63.1387 120.958C63.3574 114.532 64.5499 106.59 65.6383 104.616C65.6383 104.616 75.709 103.642 84.3204 104.349Z" fill="white"/>
</mask>
<g mask="url(#mask0_770_2162)">
<path opacity="0.2" d="M65.7006 129.203L64.332 129.331C67.9788 119.728 64.0813 111.756 67.3812 103.988L68.5444 103.895C65.3031 111.652 69.262 119.613 65.7006 129.203Z" fill="white"/>
<path opacity="0.2" d="M70.0793 128.79L68.7188 128.918C72.1068 119.359 68.0145 111.423 71.1197 103.689L72.2775 103.596C69.2363 111.319 73.3899 119.245 70.0793 128.79Z" fill="white"/>
<path opacity="0.2" d="M74.447 128.379L73.0918 128.507C76.229 118.994 71.9393 111.092 74.8285 103.39L75.9836 103.297C73.1718 110.988 77.5042 118.879 74.447 128.379Z" fill="white"/>
<path opacity="0.2" d="M78.7886 127.968L77.4414 128.096C80.3252 118.628 75.8408 110.756 78.5298 103.091L79.6796 102.998C77.0573 110.657 81.5977 118.514 78.7886 127.968Z" fill="white"/>
<path opacity="0.2" d="M83.1145 127.563L81.7807 127.688C84.4191 118.263 79.7452 110.433 82.2289 102.796L83.3733 102.705C80.943 110.329 85.6729 118.162 83.1145 127.563Z" fill="white"/>
<path opacity="0.2" d="M63.6406 108.126C63.7153 107.71 63.806 107.294 63.9074 106.878L85.3266 105.125C85.2812 105.53 85.2519 105.939 85.2359 106.344L63.6406 108.126Z" fill="white"/>
<path opacity="0.2" d="M63.2383 112.248C63.2383 111.813 63.273 111.379 63.3023 110.946L85.3111 109.098C85.3431 109.519 85.3858 109.943 85.4338 110.367L63.2383 112.248Z" fill="white"/>
<path opacity="0.2" d="M63.2285 116.56C63.2285 116.101 63.2285 115.645 63.2285 115.191L85.8455 113.238C85.9149 113.678 85.9842 114.124 86.0536 114.572L63.2285 116.56Z" fill="white"/>
<path opacity="0.2" d="M63.1367 121.145C63.1687 120.657 63.1901 120.171 63.2034 119.689L86.466 117.621C86.5194 118.091 86.5674 118.563 86.6074 119.04L63.1367 121.145Z" fill="white"/>
<path opacity="0.2" d="M62.4434 126.05C62.5661 125.516 62.671 124.994 62.7582 124.484L86.7117 122.291C86.6992 122.794 86.6699 123.303 86.6236 123.817L62.4434 126.05Z" fill="white"/>
</g>
<path d="M81.3902 85.4733C81.3715 85.452 81.3902 85.4546 81.3902 85.4546L81.4089 85.4706L81.4569 85.516L81.5743 85.6227C81.657 85.6974 81.7423 85.7748 81.841 85.8521C82.0224 86.0042 82.2119 86.1642 82.4093 86.311C82.8004 86.6042 83.2104 86.8716 83.6364 87.1113C84.0525 87.3558 84.4859 87.5698 84.9329 87.7515C85.3849 87.9215 85.8497 88.0553 86.3228 88.1517L85.181 88.3251C85.6399 88.1917 86.1307 88.0237 86.6349 87.8476C87.1392 87.6715 87.662 87.4768 88.1822 87.2714L89.7829 86.6658C90.3164 86.471 90.874 86.2576 91.4155 86.0869L91.4795 86.0682C91.7758 85.9745 92.0946 85.9801 92.3874 86.0841C92.6803 86.1881 92.9311 86.3848 93.102 86.6444C93.2728 86.904 93.3543 87.2122 93.334 87.5223C93.3137 87.8324 93.1927 88.1274 92.9895 88.3625C92.582 88.8296 92.1501 89.2748 91.6956 89.6963C91.2475 90.1178 90.7806 90.5153 90.2977 90.9048C89.8149 91.2943 89.3107 91.6624 88.7798 92.0119C88.2276 92.3785 87.6529 92.7099 87.0591 93.0043C86.8109 93.1283 86.5362 93.1897 86.2588 93.183H85.9147C85.0917 93.1694 84.2726 93.0683 83.471 92.8816C83.0709 92.7855 82.6707 92.6735 82.2839 92.5428C81.8971 92.4121 81.5182 92.2547 81.1501 92.0839C80.412 91.7442 79.7088 91.3332 79.0506 90.8568C78.7209 90.6183 78.4039 90.3627 78.1009 90.0911C77.9462 89.9524 77.7941 89.811 77.6447 89.659L77.4153 89.4189L77.2952 89.2882L77.1405 89.1068C76.9025 88.8275 76.7217 88.5042 76.6087 88.1551C76.4956 87.8061 76.4524 87.4381 76.4815 87.0724C76.5106 86.7066 76.6114 86.3502 76.7783 86.0234C76.9452 85.6966 77.1748 85.4059 77.454 85.1678C77.7332 84.9298 78.0565 84.7491 78.4056 84.636C78.7547 84.5229 79.1226 84.4797 79.4883 84.5088C79.8541 84.5379 80.2105 84.6388 80.5373 84.8056C80.8641 84.9725 81.1548 85.2021 81.3929 85.4813L81.3902 85.4733Z" fill="#B65B52"/>
<path d="M91.1543 86.8735L92.1334 88.1567C93.5713 89.053 94.4036 87.0042 94.4036 87.0042L95.5774 85.8304C95.7089 85.676 95.7812 85.4797 95.7812 85.2769C95.7812 85.074 95.7089 84.8778 95.5774 84.7233L94.8998 83.8216C94.7716 83.6284 94.5733 83.4925 94.3468 83.4427C94.1203 83.3929 93.8834 83.4331 93.686 83.5549L92.5042 84.5019C92.2698 84.6748 92.0819 84.903 91.9573 85.1662L91.1543 86.8735Z" fill="#B55B52"/>
<path d="M76.7704 82.6036C79.3528 82.8037 82.7061 86.2664 82.7061 86.2664C82.9275 87.2961 82.7648 91.159 80.9801 92.5382C80.9801 92.5382 77.9095 92.3862 76.5917 90.2707C75.1618 87.9711 74.0307 82.3902 76.7704 82.6036Z" fill="#455A64"/>
<path d="M75.4397 73.0951C76.192 71.5852 74.1618 69.5471 72.6039 70.9609C71.0459 72.3748 69.9121 72.0921 68.6023 72.2014C66.8736 72.3482 67.6766 74.0342 67.6766 74.0342C67.6766 74.0342 64.8515 73.5006 66.0039 76.4218C67.3778 79.9032 64.2672 81.9867 65.7025 85.2733C67.1377 88.56 71.214 89.2002 73.8604 88.8294C73.8604 88.8294 73.0601 86.8073 74.6394 85.2733C77.8246 82.1761 73.5723 79.5644 73.9244 76.7793C75.2369 77.0167 74.5006 74.9625 75.4397 73.0951Z" fill="#263238"/>
<path d="M73.9361 76.7793L73.1678 77.1901C73.0797 78.3693 74.587 79.9566 75.4113 80.9916C76.2356 82.0267 76.4784 83.0831 76.2463 84.9932C77.8469 80.4288 74.1308 79.5804 73.9361 76.7793Z" fill="#263238"/>
<path d="M73.1459 77.1406C73.2678 77.3968 73.4392 77.6263 73.6503 77.8158C73.8614 78.0054 74.1079 78.1513 74.3757 78.245C75.096 78.4904 75.5068 77.8582 75.3468 77.1566C75.2054 76.5243 74.6585 75.636 73.9142 75.692C73.7524 75.7074 73.5969 75.7627 73.4618 75.853C73.3266 75.9433 73.216 76.0657 73.1398 76.2093C73.0637 76.3529 73.0244 76.5132 73.0254 76.6757C73.0265 76.8382 73.0679 76.998 73.1459 77.1406Z" fill="#B55B52"/>
<path d="M64.3047 146.882H65.0783L65.2891 146.544L65.6946 146.885H70.3578C70.3887 146.491 70.3209 146.096 70.1604 145.735C70.1604 145.735 68.7651 145.596 68.2289 144.849C68.2111 144.821 68.1849 144.798 68.1539 144.785C68.1229 144.772 68.0886 144.768 68.0555 144.775C67.5913 144.879 65.7453 145.255 64.7289 144.86C64.7028 144.85 64.6747 144.847 64.6472 144.851C64.6196 144.855 64.5934 144.865 64.5709 144.882C64.5485 144.898 64.5304 144.92 64.5184 144.945C64.5064 144.97 64.5008 144.998 64.5021 145.026C64.4805 145.648 64.4145 146.269 64.3047 146.882Z" fill="#263238"/>
</svg>
