<svg width="34" height="34" viewBox="0 0 34 34" fill="none" xmlns="http://www.w3.org/2000/svg">
<g clip-path="url(#clip0_662_13828)">
<path d="M29.2116 11.9702C27.7241 5.42518 22.0149 2.47852 16.9999 2.47852C16.9999 2.47852 16.9999 2.47852 16.9857 2.47852C11.9849 2.47852 6.26156 5.41102 4.77406 11.956C3.11656 19.266 7.59323 25.4569 11.6449 29.3527C13.1466 30.7977 15.0732 31.5202 16.9999 31.5202C18.9266 31.5202 20.8532 30.7977 22.3407 29.3527C26.3924 25.4569 30.8691 19.2802 29.2116 11.9702ZM16.9999 19.0677C14.5349 19.0677 12.5374 17.0702 12.5374 14.6052C12.5374 12.1402 14.5349 10.1427 16.9999 10.1427C19.4649 10.1427 21.4624 12.1402 21.4624 14.6052C21.4624 17.0702 19.4649 19.0677 16.9999 19.0677Z" fill="#FED631"/>
</g>
<defs>
<clipPath id="clip0_662_13828">
<rect width="34" height="34" fill="white"/>
</clipPath>
</defs>
</svg>
