<svg width="201" height="67" viewBox="0 0 201 67" fill="none" xmlns="http://www.w3.org/2000/svg">
<path opacity="0.997" fill-rule="evenodd" clip-rule="evenodd" d="M26.2988 45.3734C29.862 45.1451 32.7641 43.6518 35.0055 40.8934C37.0356 38.1683 37.7911 35.1193 37.2721 31.7467C36.5543 28.1438 34.6121 25.4281 31.4455 23.6001C28.5663 22.0904 25.5618 21.7793 22.4321 22.6667C18.8415 23.8662 16.3482 26.2262 14.9521 29.7467C14.5708 30.7905 14.3442 31.8659 14.2721 32.9734C14.2456 32.4537 14.2367 31.9291 14.2455 31.4001C14.3136 26.9577 16.0469 23.3176 19.4455 20.4801C22.6374 18.0063 26.2464 17.0285 30.2721 17.5467C34.3737 18.2303 37.5871 20.2792 39.9121 23.6934C42.1375 27.215 42.742 31.0017 41.7255 35.0534C40.6617 38.7382 38.4884 41.5603 35.2055 43.5201C33.2487 44.6403 31.142 45.2537 28.8855 45.3601C28.0233 45.3734 27.1611 45.3779 26.2988 45.3734Z" fill="#2AB7C9"/>
<path fill-rule="evenodd" clip-rule="evenodd" d="M26.3001 45.3733C22.2823 45.3779 18.2645 45.3733 14.2468 45.36C14.2201 41.4997 14.2113 37.6373 14.2201 33.7733C14.2466 33.5112 14.2644 33.2445 14.2734 32.9733C14.3455 31.8659 14.5721 30.7904 14.9534 29.7467C16.3495 26.2262 18.8428 23.8662 22.4334 22.6667C25.5631 21.7792 28.5676 22.0903 31.4468 23.6C34.6134 25.428 36.5556 28.1437 37.2734 31.7467C37.7924 35.1192 37.0369 38.1683 35.0068 40.8933C32.7654 43.6517 29.8633 45.1451 26.3001 45.3733Z" fill="#FDD531"/>
<path opacity="0.99" fill-rule="evenodd" clip-rule="evenodd" d="M83.6586 24.0935C84.5031 24.089 85.3476 24.0935 86.1919 24.1068C86.3511 24.1414 86.4623 24.2347 86.5252 24.3868C86.5604 26.7412 86.5783 29.0967 86.5786 31.4535C87.4274 30.5689 88.4631 30.0401 89.6852 29.8668C90.9426 29.6868 92.125 29.9001 93.2319 30.5068C94.2036 31.1593 94.8482 32.0527 95.1652 33.1868C95.3146 33.7009 95.4036 34.2255 95.4319 34.7601C95.4498 37.5247 95.4498 40.2889 95.4319 43.0535C95.3855 43.2953 95.2388 43.4244 94.9919 43.4401C94.2098 43.458 93.4274 43.458 92.6452 43.4401C92.3588 43.4292 92.2034 43.2825 92.1786 43.0001C92.1698 40.4223 92.1607 37.8447 92.1519 35.2668C91.9892 33.6599 91.105 32.7975 89.4986 32.6801C87.8036 32.7972 86.8303 33.6951 86.5786 35.3735C86.5698 37.9247 86.5607 40.4756 86.5519 43.0268C86.5151 43.2945 86.3596 43.4324 86.0852 43.4401C85.3119 43.458 84.5386 43.458 83.7652 43.4401C83.5052 43.4329 83.3498 43.3041 83.2986 43.0535C83.2807 36.858 83.2807 30.6623 83.2986 24.4668C83.3527 24.2751 83.4727 24.1506 83.6586 24.0935Z" fill="white"/>
<path opacity="0.991" fill-rule="evenodd" clip-rule="evenodd" d="M125.314 24.0935C126.159 24.089 127.003 24.0935 127.848 24.1068C128.007 24.1414 128.118 24.2347 128.181 24.3868C128.212 25.1191 128.225 25.8524 128.221 26.5868C128.198 28.218 128.198 29.8492 128.221 31.4801C129.667 30.2404 131.347 29.6937 133.261 29.8401C135.855 30.1471 137.708 31.4759 138.821 33.8268C139.488 35.4225 139.604 37.0583 139.168 38.7335C138.509 40.9743 137.091 42.5167 134.914 43.3601C133.055 43.958 131.25 43.8247 129.501 42.9601C128.859 42.61 128.295 42.1612 127.808 41.6135C127.658 42.1073 127.515 42.6052 127.381 43.1068C127.296 43.2983 127.15 43.4092 126.941 43.4401C126.426 43.458 125.91 43.458 125.394 43.4401C125.134 43.4329 124.979 43.3041 124.928 43.0535C124.922 36.8713 124.93 30.6759 124.954 24.4668C124.999 24.2665 125.119 24.142 125.314 24.0935ZM131.794 32.7335C133.643 32.6908 134.981 33.4908 135.808 35.1335C136.478 36.8729 136.163 38.4063 134.861 39.7335C133.591 40.8105 132.169 41.0681 130.594 40.5068C129.004 39.7679 128.169 38.5188 128.088 36.7601C128.166 35.0689 128.957 33.8468 130.461 33.0935C130.888 32.8991 131.333 32.7791 131.794 32.7335Z" fill="white"/>
<path opacity="0.99" fill-rule="evenodd" clip-rule="evenodd" d="M49.8458 25.5876C50.6903 25.5832 51.5348 25.5876 52.3791 25.6009C52.5815 25.6522 52.7015 25.781 52.7391 25.9876C52.7524 27.3564 52.757 28.7255 52.7524 30.0943C53.6607 30.0815 54.5674 30.0948 55.4724 30.1343C55.6148 30.1879 55.6991 30.29 55.7258 30.4409C55.7436 31.0988 55.7436 31.7564 55.7258 32.4143C55.6786 32.5593 55.5852 32.6615 55.4458 32.7209C54.5492 32.7601 53.6516 32.7735 52.7524 32.7609C52.7479 35.0897 52.7524 37.4188 52.7658 39.7476C52.8735 40.6575 53.3844 41.0617 54.2991 40.9609C54.586 40.9239 54.8706 40.8751 55.1524 40.8143C55.4087 40.8257 55.5642 40.9591 55.6191 41.2143C55.7892 41.7929 55.945 42.3753 56.0858 42.9609C56.0844 43.2023 55.969 43.3623 55.7391 43.4409C54.8679 43.6988 53.9788 43.7876 53.0724 43.7076C51.9951 43.6332 51.0839 43.2111 50.3391 42.4409C49.8026 41.7743 49.5183 41.0097 49.4858 40.1476C49.4724 37.6855 49.4679 35.2231 49.4724 32.7609C49.0634 32.7655 48.6546 32.7609 48.2458 32.7476C48.0164 32.7049 47.8876 32.5673 47.8591 32.3343C47.8412 31.7297 47.8412 31.1255 47.8591 30.5209C47.885 30.2996 48.005 30.162 48.2191 30.1076C48.6367 30.0943 49.0546 30.0897 49.4724 30.0943C49.4679 28.7164 49.4724 27.3388 49.4858 25.9609C49.5308 25.7604 49.6508 25.6359 49.8458 25.5876Z" fill="white"/>
<path opacity="0.99" fill-rule="evenodd" clip-rule="evenodd" d="M180.54 25.5857C181.393 25.5812 182.246 25.5857 183.1 25.599C183.326 25.6569 183.446 25.8035 183.46 26.039C183.473 27.3902 183.478 28.7411 183.473 30.0923C184.381 30.0795 185.288 30.0929 186.193 30.1323C186.328 30.2049 186.412 30.3158 186.446 30.4657C186.464 31.1057 186.464 31.7457 186.446 32.3857C186.411 32.5457 186.317 32.6569 186.166 32.719C185.27 32.7579 184.372 32.7713 183.473 32.759C183.469 35.1145 183.473 37.4702 183.486 39.8257C183.548 40.3905 183.846 40.7593 184.38 40.9323C184.609 40.9726 184.841 40.9814 185.073 40.959C185.337 40.9155 185.599 40.8665 185.86 40.8123C186.135 40.8203 186.295 40.9627 186.34 41.239C186.508 41.8134 186.664 42.3913 186.806 42.9723C186.766 43.2822 186.588 43.4555 186.273 43.4923C185.442 43.7078 184.597 43.779 183.74 43.7057C182.598 43.6193 181.66 43.1438 180.926 42.279C180.492 41.675 180.252 40.9995 180.206 40.2523C180.193 37.7545 180.189 35.2569 180.193 32.759C179.793 32.7635 179.393 32.759 178.993 32.7457C178.773 32.7209 178.635 32.6009 178.58 32.3857C178.562 31.7457 178.562 31.1057 178.58 30.4657C178.621 30.2809 178.732 30.1609 178.913 30.1057C179.34 30.0923 179.766 30.0878 180.193 30.0923C180.189 28.7057 180.193 27.319 180.206 25.9323C180.251 25.7497 180.362 25.6342 180.54 25.5857Z" fill="white"/>
<path opacity="0.991" fill-rule="evenodd" clip-rule="evenodd" d="M62.2466 29.8266C63.7445 29.7093 65.1402 30.0247 66.4333 30.7733C68.0968 31.8893 69.061 33.4493 69.3266 35.4533C69.393 35.9418 69.4109 36.4306 69.38 36.9199C69.3258 37.0983 69.2058 37.2005 69.02 37.2266C65.8021 37.2354 62.5845 37.2445 59.3666 37.2533C59.4189 38.3626 59.8544 39.2871 60.6733 40.0266C61.9002 40.8922 63.2245 41.0701 64.6466 40.5599C65.4301 40.265 66.1056 39.8117 66.6733 39.1999C66.8845 39.069 67.089 39.0781 67.2866 39.2266C67.7256 39.7279 68.1746 40.2213 68.6333 40.7066C68.7298 40.8949 68.712 41.0725 68.58 41.2399C66.5816 43.3194 64.1594 44.0882 61.3133 43.5466C58.8522 42.9167 57.2389 41.3922 56.4733 38.9733C56 37.1522 56.1066 35.3655 56.7933 33.6133C57.8944 31.3266 59.7122 30.0642 62.2466 29.8266ZM62.6466 32.5199C63.8373 32.4378 64.7928 32.8645 65.5133 33.7999C65.7421 34.1439 65.9066 34.5173 66.0066 34.9199C63.8733 34.9554 61.74 34.9554 59.6066 34.9199C60.1098 33.4743 61.1232 32.6743 62.6466 32.5199Z" fill="white"/>
<path opacity="0.99" fill-rule="evenodd" clip-rule="evenodd" d="M76.2472 29.8268C78.2414 29.6903 80.0102 30.2458 81.5539 31.4935C81.9171 31.7943 82.2326 32.1364 82.5006 32.5202C82.5667 32.7396 82.5179 32.9306 82.3539 33.0935C81.8422 33.5228 81.3355 33.9583 80.8339 34.4002C80.6347 34.5839 80.4126 34.6194 80.1672 34.5068C78.8902 32.845 77.2547 32.3562 75.2606 33.0402C73.84 33.7154 73.0534 34.8399 72.9006 36.4135C72.8046 37.8154 73.2712 38.9842 74.3006 39.9202C75.5955 40.8698 76.991 41.0476 78.4872 40.4535C79.1078 40.1442 79.6235 39.7087 80.0339 39.1468C80.3152 38.9106 80.5907 38.9194 80.8606 39.1735C81.3238 39.5924 81.795 40.0012 82.2739 40.4002C82.623 40.6986 82.6275 41.0052 82.2872 41.3202C81.0022 42.7426 79.3976 43.5383 77.4739 43.7068C75.4294 43.8607 73.6072 43.3095 72.0072 42.0535C70.596 40.8178 69.8182 39.2578 69.6739 37.3735C69.5312 35.482 70.0379 33.793 71.1939 32.3068C72.1766 31.1743 73.399 30.4231 74.8606 30.0535C75.3224 29.9514 75.7846 29.8759 76.2472 29.8268Z" fill="white"/>
<path opacity="0.992" fill-rule="evenodd" clip-rule="evenodd" d="M103.473 29.8263C104.616 29.7215 105.691 29.9394 106.7 30.4796C107.677 31.1202 108.331 32.0047 108.66 33.133C108.835 33.7156 108.933 34.3111 108.953 34.9196C108.979 37.6583 108.971 40.3962 108.926 43.133C108.855 43.322 108.718 43.4242 108.513 43.4396C107.731 43.4575 106.948 43.4575 106.166 43.4396C105.922 43.4314 105.767 43.3114 105.7 43.0796C105.691 40.5108 105.682 37.9418 105.673 35.373C105.632 34.5314 105.308 33.8247 104.7 33.253C103.938 32.7052 103.103 32.554 102.193 32.7996C101.047 33.1548 100.358 33.9236 100.126 35.1063C100.099 35.301 100.081 35.4964 100.073 35.693C100.064 38.1642 100.055 40.6351 100.046 43.1063C99.9778 43.3167 99.8311 43.4279 99.6063 43.4396C98.833 43.4575 98.0596 43.4575 97.2863 43.4396C97.0364 43.4383 96.881 43.3183 96.8196 43.0796C96.793 38.838 96.802 34.598 96.8463 30.3596C96.9084 30.2284 97.0106 30.1439 97.153 30.1063C97.7308 30.0884 98.3084 30.0884 98.8863 30.1063C99.081 30.141 99.2098 30.2519 99.273 30.4396C99.3842 30.8487 99.4954 31.2578 99.6063 31.6663C100.692 30.63 101.981 30.0167 103.473 29.8263Z" fill="white"/>
<path opacity="0.99" fill-rule="evenodd" clip-rule="evenodd" d="M116.168 29.8269C117.798 29.7059 119.327 30.0392 120.754 30.8269C122.806 32.1243 123.895 33.9952 124.021 36.4403C124.116 38.6003 123.392 40.4269 121.847 41.9203C120.601 42.9917 119.153 43.5872 117.501 43.7069C115.7 43.8568 114.046 43.4389 112.541 42.4536C110.657 41.0413 109.706 39.148 109.688 36.7736C109.689 34.6115 110.498 32.8248 112.114 31.4136C113.305 30.4789 114.655 29.9501 116.168 29.8269ZM116.514 32.7336C117.955 32.652 119.123 33.1675 120.021 34.2803C120.816 35.5541 120.976 36.9051 120.501 38.3336C119.831 39.904 118.635 40.7307 116.914 40.8136C115.392 40.8021 114.241 40.1533 113.461 38.8669C112.874 37.6493 112.803 36.4048 113.248 35.1336C113.87 33.7 114.959 32.9 116.514 32.7336Z" fill="white"/>
<path opacity="0.991" fill-rule="evenodd" clip-rule="evenodd" d="M146.22 29.8273C147.877 29.7083 149.423 30.0593 150.86 30.8806C152.774 32.1174 153.828 33.8817 154.02 36.1739C154.17 38.1038 153.646 39.8193 152.446 41.3206C151.14 42.7617 149.509 43.5571 147.553 43.7073C145.706 43.8633 144.017 43.4278 142.486 42.4006C140.79 41.1281 139.87 39.4259 139.726 37.2939C139.584 35.195 140.224 33.3817 141.646 31.8539C142.927 30.6385 144.451 29.963 146.22 29.8273ZM146.54 32.7339C147.954 32.6481 149.105 33.1459 149.993 34.2273C150.792 35.4398 150.988 36.7465 150.58 38.1473C149.949 39.8747 148.709 40.7638 146.86 40.8139C145.123 40.7667 143.919 39.9489 143.246 38.3606C142.792 37.0321 142.898 35.7521 143.566 34.5206C144.267 33.4438 145.258 32.8481 146.54 32.7339Z" fill="white"/>
<path opacity="0.991" fill-rule="evenodd" clip-rule="evenodd" d="M160.804 29.8275C162.753 29.6758 164.513 30.1691 166.084 31.3075C167.547 32.5038 168.387 34.0462 168.604 35.9342C168.82 37.8977 168.332 39.6577 167.138 41.2142C165.888 42.6502 164.31 43.4726 162.404 43.6809C160.384 43.9179 158.553 43.447 156.911 42.2675C155.435 41.0899 154.587 39.5566 154.364 37.6675C154.129 35.6462 154.636 33.8417 155.884 32.2542C157.199 30.795 158.839 29.9862 160.804 29.8275ZM161.124 32.7342C162.732 32.6467 163.972 33.2689 164.844 34.6009C165.448 35.7867 165.545 37.0134 165.138 38.2809C164.649 39.5494 163.747 40.3539 162.431 40.6942C161.143 40.9737 159.979 40.7158 158.938 39.9209C157.906 38.9507 157.457 37.755 157.591 36.3342C157.864 34.2371 159.042 33.0371 161.124 32.7342Z" fill="white"/>
<path opacity="0.99" fill-rule="evenodd" clip-rule="evenodd" d="M173.233 29.8264C174.745 29.7643 176.212 29.991 177.633 30.5064C177.74 30.5912 177.793 30.7024 177.793 30.8398C177.612 31.5115 177.412 32.1782 177.193 32.8398C177.06 33.1064 176.851 33.191 176.567 33.0931C175.702 32.7648 174.809 32.5648 173.887 32.4931C173.427 32.4734 173.005 32.5846 172.62 32.8264C172.173 33.3288 172.2 33.8088 172.7 34.2664C172.913 34.444 173.144 34.5952 173.393 34.7198C174.297 35.1454 175.195 35.5811 176.087 36.0264C176.698 36.3616 177.245 36.7838 177.727 37.2931C178.452 38.2019 178.709 39.2328 178.5 40.3864C178.328 41.4907 177.773 42.3395 176.833 42.9331C176.014 43.3934 175.134 43.6512 174.193 43.7064C172.546 43.7838 170.937 43.5704 169.367 43.0664C169.107 42.9603 169.013 42.7691 169.087 42.4931C169.311 41.8291 169.551 41.1715 169.807 40.5198C169.938 40.3944 170.093 40.3544 170.273 40.3998C171.311 40.8096 172.387 41.0451 173.5 41.1064C173.93 41.1192 174.339 41.0347 174.727 40.8531C175.149 40.5542 175.305 40.1496 175.193 39.6398C175.077 39.408 174.913 39.2168 174.7 39.0664C174.478 38.911 174.247 38.7686 174.007 38.6398C173.167 38.2336 172.341 37.807 171.527 37.3598C170.874 36.9827 170.292 36.516 169.78 35.9598C169.094 35.0288 168.89 33.9976 169.167 32.8664C169.488 31.6291 170.239 30.7624 171.42 30.2664C172.007 30.0352 172.612 29.8886 173.233 29.8264Z" fill="white"/>
<path opacity="0.02" fill-rule="evenodd" clip-rule="evenodd" d="M14.2468 31.4004C14.238 31.9295 14.2468 32.454 14.2734 32.9737C14.2644 33.2449 14.2466 33.5116 14.2201 33.7737C14.2113 32.978 14.2201 32.1871 14.2468 31.4004Z" fill="#2DCBC5"/>
</svg>
