<svg width="346" height="346" viewBox="0 0 346 346" fill="none" xmlns="http://www.w3.org/2000/svg">
<path fill-rule="evenodd" clip-rule="evenodd" d="M0.0100708 174.886C0.00335693 174.258 0 173.63 0 173C0 77.4547 77.4547 0 173 0C268.545 0 346 77.4547 346 173C346 268.545 268.545 346 173 346C165.091 346 157.306 345.469 149.678 344.441H0.0100708V174.886Z" fill="url(#paint0_linear_934_1770)"/>
<g filter="url(#filter0_d_934_1770)">
<path d="M35.39 221.35C31.75 221.35 28.4367 220.65 25.45 219.25C22.51 217.85 19.9667 215.96 17.82 213.58C15.72 211.153 14.0867 208.447 12.92 205.46C11.7533 202.427 11.17 199.323 11.17 196.15C11.17 192.837 11.7767 189.687 12.99 186.7C14.25 183.667 15.9533 180.983 18.1 178.65C20.2933 176.27 22.86 174.403 25.8 173.05C28.7867 171.65 32.0533 170.95 35.6 170.95C39.1933 170.95 42.46 171.673 45.4 173.12C48.3867 174.567 50.93 176.503 53.03 178.93C55.13 181.357 56.7633 184.063 57.93 187.05C59.0967 190.037 59.68 193.117 59.68 196.29C59.68 199.557 59.0733 202.707 57.86 205.74C56.6467 208.727 54.9433 211.41 52.75 213.79C50.6033 216.123 48.0367 217.967 45.05 219.32C42.11 220.673 38.89 221.35 35.39 221.35ZM20.97 196.15C20.97 198.297 21.2967 200.373 21.95 202.38C22.6033 204.387 23.5367 206.183 24.75 207.77C26.01 209.31 27.5267 210.547 29.3 211.48C31.12 212.367 33.1733 212.81 35.46 212.81C37.7933 212.81 39.87 212.343 41.69 211.41C43.51 210.43 45.0267 209.147 46.24 207.56C47.4533 205.927 48.3633 204.13 48.97 202.17C49.6233 200.163 49.95 198.157 49.95 196.15C49.95 194.003 49.6 191.95 48.9 189.99C48.2467 187.983 47.29 186.21 46.03 184.67C44.8167 183.083 43.3 181.847 41.48 180.96C39.7067 180.027 37.7 179.56 35.46 179.56C33.08 179.56 30.98 180.05 29.16 181.03C27.3867 181.963 25.8933 183.223 24.68 184.81C23.4667 186.397 22.5333 188.17 21.88 190.13C21.2733 192.09 20.97 194.097 20.97 196.15ZM65.8302 207.28V184.32H75.2102V205.25C75.2102 208.05 75.7235 210.173 76.7502 211.62C77.7768 213.02 79.2935 213.72 81.3002 213.72C82.5135 213.72 83.7035 213.487 84.8702 213.02C86.0835 212.507 87.1802 211.76 88.1602 210.78C89.1868 209.8 90.0502 208.563 90.7502 207.07V184.32H100.13V210.5C100.13 211.48 100.293 212.18 100.62 212.6C100.993 213.02 101.577 213.277 102.37 213.37V221C101.437 221.14 100.643 221.233 99.9902 221.28C99.3835 221.373 98.8235 221.42 98.3102 221.42C96.6302 221.42 95.2535 221.047 94.1802 220.3C93.1535 219.507 92.5468 218.433 92.3602 217.08L92.1502 214.14C90.5168 216.613 88.4168 218.503 85.8502 219.81C83.2835 221.07 80.4602 221.7 77.3802 221.7C73.6002 221.7 70.7302 220.487 68.7702 218.06C66.8102 215.587 65.8302 211.993 65.8302 207.28ZM131.292 192.44C128.445 192.44 125.902 193 123.662 194.12C121.422 195.193 119.812 196.757 118.832 198.81V221H109.452V184.32H118.062V192.16C119.368 189.64 121.025 187.657 123.032 186.21C125.038 184.763 127.162 183.97 129.402 183.83C129.915 183.83 130.312 183.83 130.592 183.83C130.872 183.83 131.105 183.853 131.292 183.9V192.44Z" fill="white" shape-rendering="crispEdges"/>
<path d="M25.45 219.25L25.0201 220.153L25.0256 220.155L25.45 219.25ZM17.82 213.58L17.0638 214.234L17.0706 214.242L17.0774 214.25L17.82 213.58ZM12.92 205.46L11.9866 205.819L11.9885 205.824L12.92 205.46ZM12.99 186.7L12.0665 186.316L12.0635 186.324L12.99 186.7ZM18.1 178.65L17.3646 177.972L17.3641 177.973L18.1 178.65ZM25.8 173.05L26.2182 173.958L26.2244 173.955L25.8 173.05ZM45.4 173.12L44.9585 174.017L44.9641 174.02L45.4 173.12ZM53.03 178.93L52.2738 179.584L53.03 178.93ZM57.93 187.05L58.8615 186.686V186.686L57.93 187.05ZM57.86 205.74L58.7865 206.116L58.7885 206.111L57.86 205.74ZM52.75 213.79L52.0146 213.112L52.0141 213.113L52.75 213.79ZM45.05 219.32L44.6373 218.409L44.6319 218.412L45.05 219.32ZM21.95 202.38L20.9991 202.69H20.9991L21.95 202.38ZM24.75 207.77L23.9556 208.377L23.9656 208.391L23.976 208.403L24.75 207.77ZM29.3 211.48L28.8343 212.365L28.848 212.372L28.862 212.379L29.3 211.48ZM41.69 211.41L42.1463 212.3L42.1553 212.295L42.1641 212.29L41.69 211.41ZM46.24 207.56L47.0344 208.168L47.0427 208.156L46.24 207.56ZM48.97 202.17L48.0191 201.86L48.0169 201.867L48.0147 201.874L48.97 202.17ZM48.9 189.99L47.9491 190.3L47.9535 190.313L47.9583 190.326L48.9 189.99ZM46.03 184.67L45.2356 185.277L45.2456 185.291L45.256 185.303L46.03 184.67ZM41.48 180.96L41.0143 181.845L41.028 181.852L41.042 181.859L41.48 180.96ZM29.16 181.03L29.6258 181.915L29.6341 181.91L29.16 181.03ZM24.68 184.81L23.8856 184.203H23.8856L24.68 184.81ZM21.88 190.13L20.9313 189.814L20.9279 189.824L20.9247 189.834L21.88 190.13ZM35.39 220.35C31.8814 220.35 28.715 219.676 25.8744 218.345L25.0256 220.155C28.1583 221.624 31.6186 222.35 35.39 222.35V220.35ZM25.8799 218.347C23.0565 217.003 20.6199 215.191 18.5626 212.91L17.0774 214.25C19.3134 216.729 21.9635 218.697 25.0201 220.153L25.8799 218.347ZM18.5762 212.926C16.5507 210.585 14.9766 207.977 13.8515 205.096L11.9885 205.824C13.1967 208.917 14.8893 211.722 17.0638 214.234L18.5762 212.926ZM13.8533 205.101C12.7297 202.179 12.17 199.198 12.17 196.15H10.17C10.17 199.449 10.777 202.674 11.9867 205.819L13.8533 205.101ZM12.17 196.15C12.17 192.962 12.7531 189.94 13.9165 187.076L12.0635 186.324C10.8003 189.433 10.17 192.711 10.17 196.15H12.17ZM13.9135 187.084C15.1303 184.154 16.7713 181.571 18.8359 179.327L17.3641 177.973C15.1354 180.395 13.3697 183.179 12.0665 186.316L13.9135 187.084ZM18.8354 179.328C20.9392 177.045 23.3981 175.257 26.2181 173.958L25.3819 172.142C22.3219 173.55 19.6474 175.495 17.3646 177.972L18.8354 179.328ZM26.2244 173.955C29.0685 172.622 32.1888 171.95 35.6 171.95V169.95C31.9179 169.95 28.5049 170.678 25.3756 172.145L26.2244 173.955ZM35.6 171.95C39.0553 171.95 42.1687 172.645 44.9585 174.017L45.8415 172.223C42.7513 170.702 39.3314 169.95 35.6 169.95V171.95ZM44.9641 174.02C47.8327 175.409 50.2658 177.264 52.2738 179.584L53.7862 178.276C51.5942 175.743 48.9407 173.724 45.8359 172.22L44.9641 174.02ZM52.2738 179.584C54.2993 181.925 55.8734 184.533 56.9985 187.414L58.8615 186.686C57.6533 183.593 55.9607 180.788 53.7862 178.276L52.2738 179.584ZM56.9985 187.414C58.1204 190.286 58.68 193.242 58.68 196.29H60.68C60.68 192.991 60.0729 189.788 58.8615 186.686L56.9985 187.414ZM58.68 196.29C58.68 199.429 58.0976 202.453 56.9315 205.369L58.7885 206.111C60.0491 202.96 60.68 199.684 60.68 196.29H58.68ZM56.9335 205.364C55.7655 208.239 54.1271 210.82 52.0146 213.112L53.4854 214.468C55.7596 212 57.5278 209.215 58.7865 206.116L56.9335 205.364ZM52.0141 213.113C49.9615 215.344 47.5059 217.109 44.6373 218.409L45.4627 220.231C48.5675 218.824 51.2452 216.903 53.4859 214.467L52.0141 213.113ZM44.6319 218.412C41.8334 219.7 38.7576 220.35 35.39 220.35V222.35C39.0224 222.35 42.3866 221.647 45.4681 220.228L44.6319 218.412ZM19.97 196.15C19.97 198.4 20.3127 200.581 20.9991 202.69L22.9009 202.07C22.2807 200.165 21.97 198.193 21.97 196.15H19.97ZM20.9991 202.69C21.6854 204.798 22.6699 206.696 23.9556 208.377L25.5444 207.163C24.4034 205.671 23.5212 203.976 22.9009 202.07L20.9991 202.69ZM23.976 208.403C25.3215 210.048 26.9432 211.37 28.8343 212.365L29.7657 210.595C28.1101 209.724 26.6985 208.572 25.524 207.137L23.976 208.403ZM28.862 212.379C30.8352 213.34 33.0413 213.81 35.46 213.81V211.81C33.3053 211.81 31.4048 211.393 29.738 210.581L28.862 212.379ZM35.46 213.81C37.9295 213.81 40.1664 213.315 42.1463 212.3L41.2337 210.52C39.5736 211.371 37.6571 211.81 35.46 211.81V213.81ZM42.1641 212.29C44.1045 211.246 45.7318 209.871 47.0344 208.167L45.4456 206.953C44.3215 208.423 42.9155 209.614 41.2159 210.53L42.1641 212.29ZM47.0427 208.156C48.3241 206.431 49.2854 204.533 49.9253 202.466L48.0147 201.874C47.4412 203.727 46.5825 205.422 45.4373 206.964L47.0427 208.156ZM49.9209 202.48C50.6051 200.378 50.95 198.267 50.95 196.15H48.95C48.95 198.046 48.6416 199.949 48.0191 201.86L49.9209 202.48ZM50.95 196.15C50.95 193.892 50.5815 191.725 49.8417 189.654L47.9583 190.326C48.6185 192.175 48.95 194.114 48.95 196.15H50.95ZM49.8509 189.68C49.1615 187.563 48.1472 185.678 46.804 184.037L45.256 185.303C46.4328 186.742 47.3318 188.404 47.9491 190.3L49.8509 189.68ZM46.8244 184.063C45.5152 182.351 43.8759 181.015 41.918 180.061L41.042 181.859C42.7241 182.678 44.1181 183.816 45.2356 185.277L46.8244 184.063ZM41.9457 180.075C40.0126 179.058 37.8429 178.56 35.46 178.56V180.56C37.5571 180.56 39.4008 180.996 41.0143 181.845L41.9457 180.075ZM35.46 178.56C32.9398 178.56 30.6723 179.08 28.6859 180.15L29.6341 181.91C31.2877 181.02 33.2202 180.56 35.46 180.56V178.56ZM28.6943 180.145C26.793 181.146 25.1874 182.5 23.8856 184.203L25.4744 185.417C26.5993 183.946 27.9803 182.781 29.6257 181.915L28.6943 180.145ZM23.8856 184.203C22.6028 185.88 21.6184 187.752 20.9313 189.814L22.8287 190.446C23.4483 188.588 24.3305 186.913 25.4744 185.417L23.8856 184.203ZM20.9247 189.834C20.2884 191.89 19.97 193.996 19.97 196.15H21.97C21.97 194.197 22.2583 192.29 22.8353 190.426L20.9247 189.834ZM65.8302 184.32V183.32H64.8302V184.32H65.8302ZM75.2102 184.32H76.2102V183.32H75.2102V184.32ZM76.7502 211.62L75.9346 212.199L75.9392 212.205L75.9437 212.211L76.7502 211.62ZM84.8702 213.02L85.2415 213.948L85.2507 213.945L85.2598 213.941L84.8702 213.02ZM88.1602 210.78L87.4697 210.057L87.4613 210.065L87.453 210.073L88.1602 210.78ZM90.7502 207.07L91.6556 207.494L91.7502 207.293V207.07H90.7502ZM90.7502 184.32V183.32H89.7502V184.32H90.7502ZM100.13 184.32H101.13V183.32H100.13V184.32ZM100.62 212.6L99.8308 213.214L99.851 213.24L99.8727 213.264L100.62 212.6ZM102.37 213.37H103.37V212.481L102.487 212.377L102.37 213.37ZM102.37 221L102.519 221.989L103.37 221.861V221H102.37ZM99.9902 221.28L99.9189 220.283L99.8783 220.285L99.8381 220.292L99.9902 221.28ZM94.1802 220.3L93.5687 221.091L93.5885 221.107L93.6091 221.121L94.1802 220.3ZM92.3602 217.08L91.3627 217.151L91.365 217.184L91.3695 217.217L92.3602 217.08ZM92.1502 214.14L93.1476 214.069L92.9379 211.132L91.3157 213.589L92.1502 214.14ZM85.8502 219.81L86.2908 220.708L86.2974 220.704L86.3038 220.701L85.8502 219.81ZM68.7702 218.06L67.9864 218.681L67.9922 218.688L68.7702 218.06ZM66.8302 207.28V184.32H64.8302V207.28H66.8302ZM65.8302 185.32H75.2102V183.32H65.8302V185.32ZM74.2102 184.32V205.25H76.2102V184.32H74.2102ZM74.2102 205.25C74.2102 208.146 74.7367 210.511 75.9346 212.199L77.5657 211.041C76.7103 209.836 76.2102 207.954 76.2102 205.25H74.2102ZM75.9437 212.211C77.19 213.911 79.0316 214.72 81.3002 214.72V212.72C79.5553 212.72 78.3637 212.129 77.5566 211.029L75.9437 212.211ZM81.3002 214.72C82.6452 214.72 83.961 214.461 85.2415 213.948L84.4988 212.092C83.4459 212.513 82.3817 212.72 81.3002 212.72V214.72ZM85.2598 213.941C86.5978 213.375 87.801 212.553 88.8673 211.487L87.453 210.073C86.5593 210.967 85.5691 211.638 84.4805 212.099L85.2598 213.941ZM88.8506 211.503C89.9801 210.425 90.9115 209.082 91.6556 207.494L89.8447 206.646C89.1889 208.045 88.3935 209.175 87.4697 210.057L88.8506 211.503ZM91.7502 207.07V184.32H89.7502V207.07H91.7502ZM90.7502 185.32H100.13V183.32H90.7502V185.32ZM99.1302 184.32V210.5H101.13V184.32H99.1302ZM99.1302 210.5C99.1302 211.539 99.293 212.523 99.8308 213.214L101.41 211.986C101.294 211.837 101.13 211.421 101.13 210.5H99.1302ZM99.8727 213.264C100.466 213.932 101.318 214.253 102.253 214.363L102.487 212.377C101.835 212.3 101.521 212.108 101.368 211.936L99.8727 213.264ZM101.37 213.37V221H103.37V213.37H101.37ZM102.222 220.011C101.304 220.149 100.538 220.238 99.9189 220.283L100.061 222.277C100.749 222.228 101.57 222.131 102.519 221.989L102.222 220.011ZM99.8381 220.292C99.2723 220.379 98.7639 220.42 98.3102 220.42V222.42C98.8831 222.42 99.4946 222.368 100.142 222.268L99.8381 220.292ZM98.3102 220.42C96.7763 220.42 95.6149 220.08 94.7512 219.479L93.6091 221.121C94.8921 222.013 96.484 222.42 98.3102 222.42V220.42ZM94.7916 219.509C93.984 218.885 93.5038 218.052 93.3508 216.943L91.3695 217.217C91.5899 218.814 92.3229 220.129 93.5687 221.091L94.7916 219.509ZM93.3576 217.009L93.1476 214.069L91.1527 214.211L91.3627 217.151L93.3576 217.009ZM91.3157 213.589C89.7748 215.922 87.8043 217.693 85.3965 218.919L86.3038 220.701C89.0293 219.314 91.2588 217.304 92.9846 214.691L91.3157 213.589ZM85.4095 218.912C82.9904 220.1 80.3194 220.7 77.3802 220.7V222.7C80.6009 222.7 83.5766 222.04 86.2908 220.708L85.4095 218.912ZM77.3802 220.7C73.8315 220.7 71.2778 219.573 69.5481 217.432L67.9922 218.688C70.1825 221.4 73.3688 222.7 77.3802 222.7V220.7ZM69.5539 217.439C67.7883 215.211 66.8302 211.875 66.8302 207.28H64.8302C64.8302 212.112 65.832 215.962 67.9864 218.681L69.5539 217.439ZM131.292 192.44V193.44H132.292V192.44H131.292ZM123.662 194.12L124.094 195.022L124.101 195.018L124.109 195.014L123.662 194.12ZM118.832 198.81L117.929 198.379L117.832 198.584V198.81H118.832ZM118.832 221V222H119.832V221H118.832ZM109.452 221H108.452V222H109.452V221ZM109.452 184.32V183.32H108.452V184.32H109.452ZM118.062 184.32H119.062V183.32H118.062V184.32ZM118.062 192.16H117.062L118.949 192.62L118.062 192.16ZM123.032 186.21L123.616 187.021L123.032 186.21ZM129.402 183.83V182.83H129.37L129.339 182.832L129.402 183.83ZM131.292 183.9H132.292V183.119L131.534 182.93L131.292 183.9ZM131.292 191.44C128.311 191.44 125.611 192.027 123.214 193.226L124.109 195.014C126.192 193.973 128.579 193.44 131.292 193.44V191.44ZM123.23 193.218C120.804 194.381 119.017 196.1 117.929 198.379L119.734 199.241C120.607 197.413 122.04 196.006 124.094 195.022L123.23 193.218ZM117.832 198.81V221H119.832V198.81H117.832ZM118.832 220H109.452V222H118.832V220ZM110.452 221V184.32H108.452V221H110.452ZM109.452 185.32H118.062V183.32H109.452V185.32ZM117.062 184.32V192.16H119.062V184.32H117.062ZM118.949 192.62C120.195 190.219 121.754 188.364 123.616 187.021L122.447 185.399C120.296 186.95 118.542 189.061 117.174 191.7L118.949 192.62ZM123.616 187.021C125.486 185.673 127.431 184.955 129.464 184.828L129.339 182.832C126.892 182.985 124.59 183.854 122.447 185.399L123.616 187.021ZM129.402 184.83C129.403 184.83 129.404 184.83 129.405 184.83C129.406 184.83 129.407 184.83 129.408 184.83C129.409 184.83 129.41 184.83 129.411 184.83C129.412 184.83 129.413 184.83 129.414 184.83C129.415 184.83 129.416 184.83 129.417 184.83C129.418 184.83 129.419 184.83 129.42 184.83C129.421 184.83 129.422 184.83 129.423 184.83C129.424 184.83 129.425 184.83 129.426 184.83C129.427 184.83 129.428 184.83 129.429 184.83C129.43 184.83 129.431 184.83 129.432 184.83C129.433 184.83 129.434 184.83 129.435 184.83C129.436 184.83 129.437 184.83 129.438 184.83C129.439 184.83 129.44 184.83 129.441 184.83C129.442 184.83 129.442 184.83 129.443 184.83C129.444 184.83 129.445 184.83 129.446 184.83C129.447 184.83 129.448 184.83 129.449 184.83C129.45 184.83 129.451 184.83 129.452 184.83C129.453 184.83 129.454 184.83 129.455 184.83C129.456 184.83 129.457 184.83 129.458 184.83C129.459 184.83 129.46 184.83 129.461 184.83C129.462 184.83 129.463 184.83 129.464 184.83C129.465 184.83 129.466 184.83 129.467 184.83C129.468 184.83 129.469 184.83 129.47 184.83C129.471 184.83 129.472 184.83 129.473 184.83C129.474 184.83 129.475 184.83 129.476 184.83C129.477 184.83 129.478 184.83 129.479 184.83C129.48 184.83 129.481 184.83 129.482 184.83C129.483 184.83 129.484 184.83 129.485 184.83C129.486 184.83 129.487 184.83 129.488 184.83C129.489 184.83 129.49 184.83 129.491 184.83C129.492 184.83 129.493 184.83 129.494 184.83C129.495 184.83 129.496 184.83 129.497 184.83C129.497 184.83 129.498 184.83 129.499 184.83C129.5 184.83 129.501 184.83 129.502 184.83C129.503 184.83 129.504 184.83 129.505 184.83C129.506 184.83 129.507 184.83 129.508 184.83C129.509 184.83 129.51 184.83 129.511 184.83C129.512 184.83 129.513 184.83 129.514 184.83C129.515 184.83 129.516 184.83 129.517 184.83C129.518 184.83 129.519 184.83 129.52 184.83C129.521 184.83 129.522 184.83 129.523 184.83C129.524 184.83 129.525 184.83 129.526 184.83C129.527 184.83 129.528 184.83 129.529 184.83C129.529 184.83 129.53 184.83 129.531 184.83C129.532 184.83 129.533 184.83 129.534 184.83C129.535 184.83 129.536 184.83 129.537 184.83C129.538 184.83 129.539 184.83 129.54 184.83C129.541 184.83 129.542 184.83 129.543 184.83C129.544 184.83 129.545 184.83 129.546 184.83C129.547 184.83 129.548 184.83 129.549 184.83C129.55 184.83 129.551 184.83 129.552 184.83C129.553 184.83 129.553 184.83 129.554 184.83C129.555 184.83 129.556 184.83 129.557 184.83C129.558 184.83 129.559 184.83 129.56 184.83C129.561 184.83 129.562 184.83 129.563 184.83C129.564 184.83 129.565 184.83 129.566 184.83C129.567 184.83 129.568 184.83 129.569 184.83C129.57 184.83 129.571 184.83 129.572 184.83C129.573 184.83 129.574 184.83 129.574 184.83C129.575 184.83 129.576 184.83 129.577 184.83C129.578 184.83 129.579 184.83 129.58 184.83C129.581 184.83 129.582 184.83 129.583 184.83C129.584 184.83 129.585 184.83 129.586 184.83C129.587 184.83 129.588 184.83 129.589 184.83C129.59 184.83 129.591 184.83 129.592 184.83C129.592 184.83 129.593 184.83 129.594 184.83C129.595 184.83 129.596 184.83 129.597 184.83C129.598 184.83 129.599 184.83 129.6 184.83C129.601 184.83 129.602 184.83 129.603 184.83C129.604 184.83 129.605 184.83 129.606 184.83C129.607 184.83 129.608 184.83 129.608 184.83C129.609 184.83 129.61 184.83 129.611 184.83C129.612 184.83 129.613 184.83 129.614 184.83C129.615 184.83 129.616 184.83 129.617 184.83C129.618 184.83 129.619 184.83 129.62 184.83C129.621 184.83 129.622 184.83 129.623 184.83C129.623 184.83 129.624 184.83 129.625 184.83C129.626 184.83 129.627 184.83 129.628 184.83C129.629 184.83 129.63 184.83 129.631 184.83C129.632 184.83 129.633 184.83 129.634 184.83C129.635 184.83 129.636 184.83 129.637 184.83C129.637 184.83 129.638 184.83 129.639 184.83C129.64 184.83 129.641 184.83 129.642 184.83C129.643 184.83 129.644 184.83 129.645 184.83C129.646 184.83 129.647 184.83 129.648 184.83C129.649 184.83 129.65 184.83 129.65 184.83C129.651 184.83 129.652 184.83 129.653 184.83C129.654 184.83 129.655 184.83 129.656 184.83C129.657 184.83 129.658 184.83 129.659 184.83C129.66 184.83 129.661 184.83 129.662 184.83C129.662 184.83 129.663 184.83 129.664 184.83C129.665 184.83 129.666 184.83 129.667 184.83C129.668 184.83 129.669 184.83 129.67 184.83C129.671 184.83 129.672 184.83 129.673 184.83C129.674 184.83 129.674 184.83 129.675 184.83C129.676 184.83 129.677 184.83 129.678 184.83C129.679 184.83 129.68 184.83 129.681 184.83C129.682 184.83 129.683 184.83 129.684 184.83C129.685 184.83 129.685 184.83 129.686 184.83C129.687 184.83 129.688 184.83 129.689 184.83C129.69 184.83 129.691 184.83 129.692 184.83C129.693 184.83 129.694 184.83 129.695 184.83C129.695 184.83 129.696 184.83 129.697 184.83C129.698 184.83 129.699 184.83 129.7 184.83C129.701 184.83 129.702 184.83 129.703 184.83C129.704 184.83 129.705 184.83 129.705 184.83C129.706 184.83 129.707 184.83 129.708 184.83C129.709 184.83 129.71 184.83 129.711 184.83C129.712 184.83 129.713 184.83 129.714 184.83C129.715 184.83 129.715 184.83 129.716 184.83C129.717 184.83 129.718 184.83 129.719 184.83C129.72 184.83 129.721 184.83 129.722 184.83C129.723 184.83 129.724 184.83 129.724 184.83C129.725 184.83 129.726 184.83 129.727 184.83C129.728 184.83 129.729 184.83 129.73 184.83C129.731 184.83 129.732 184.83 129.733 184.83C129.733 184.83 129.734 184.83 129.735 184.83C129.736 184.83 129.737 184.83 129.738 184.83C129.739 184.83 129.74 184.83 129.741 184.83C129.742 184.83 129.742 184.83 129.743 184.83C129.744 184.83 129.745 184.83 129.746 184.83C129.747 184.83 129.748 184.83 129.749 184.83C129.75 184.83 129.751 184.83 129.751 184.83C129.752 184.83 129.753 184.83 129.754 184.83C129.755 184.83 129.756 184.83 129.757 184.83C129.758 184.83 129.759 184.83 129.759 184.83C129.76 184.83 129.761 184.83 129.762 184.83C129.763 184.83 129.764 184.83 129.765 184.83C129.766 184.83 129.767 184.83 129.767 184.83C129.768 184.83 129.769 184.83 129.77 184.83C129.771 184.83 129.772 184.83 129.773 184.83C129.774 184.83 129.775 184.83 129.775 184.83C129.776 184.83 129.777 184.83 129.778 184.83C129.779 184.83 129.78 184.83 129.781 184.83C129.782 184.83 129.782 184.83 129.783 184.83C129.784 184.83 129.785 184.83 129.786 184.83C129.787 184.83 129.788 184.83 129.789 184.83C129.79 184.83 129.79 184.83 129.791 184.83C129.792 184.83 129.793 184.83 129.794 184.83C129.795 184.83 129.796 184.83 129.797 184.83C129.797 184.83 129.798 184.83 129.799 184.83C129.8 184.83 129.801 184.83 129.802 184.83C129.803 184.83 129.804 184.83 129.804 184.83C129.805 184.83 129.806 184.83 129.807 184.83C129.808 184.83 129.809 184.83 129.81 184.83C129.811 184.83 129.811 184.83 129.812 184.83C129.813 184.83 129.814 184.83 129.815 184.83C129.816 184.83 129.817 184.83 129.818 184.83C129.818 184.83 129.819 184.83 129.82 184.83C129.821 184.83 129.822 184.83 129.823 184.83C129.824 184.83 129.825 184.83 129.825 184.83C129.826 184.83 129.827 184.83 129.828 184.83C129.829 184.83 129.83 184.83 129.831 184.83C129.831 184.83 129.832 184.83 129.833 184.83C129.834 184.83 129.835 184.83 129.836 184.83C129.837 184.83 129.838 184.83 129.838 184.83C129.839 184.83 129.84 184.83 129.841 184.83C129.842 184.83 129.843 184.83 129.844 184.83C129.844 184.83 129.845 184.83 129.846 184.83C129.847 184.83 129.848 184.83 129.849 184.83C129.85 184.83 129.85 184.83 129.851 184.83C129.852 184.83 129.853 184.83 129.854 184.83C129.855 184.83 129.856 184.83 129.856 184.83C129.857 184.83 129.858 184.83 129.859 184.83C129.86 184.83 129.861 184.83 129.862 184.83C129.862 184.83 129.863 184.83 129.864 184.83C129.865 184.83 129.866 184.83 129.867 184.83C129.868 184.83 129.868 184.83 129.869 184.83C129.87 184.83 129.871 184.83 129.872 184.83C129.873 184.83 129.874 184.83 129.874 184.83C129.875 184.83 129.876 184.83 129.877 184.83C129.878 184.83 129.879 184.83 129.879 184.83C129.88 184.83 129.881 184.83 129.882 184.83C129.883 184.83 129.884 184.83 129.885 184.83C129.885 184.83 129.886 184.83 129.887 184.83C129.888 184.83 129.889 184.83 129.89 184.83C129.891 184.83 129.891 184.83 129.892 184.83C129.893 184.83 129.894 184.83 129.895 184.83C129.896 184.83 129.896 184.83 129.897 184.83C129.898 184.83 129.899 184.83 129.9 184.83C129.901 184.83 129.901 184.83 129.902 184.83C129.903 184.83 129.904 184.83 129.905 184.83C129.906 184.83 129.907 184.83 129.907 184.83C129.908 184.83 129.909 184.83 129.91 184.83C129.911 184.83 129.912 184.83 129.912 184.83C129.913 184.83 129.914 184.83 129.915 184.83C129.916 184.83 129.917 184.83 129.917 184.83C129.918 184.83 129.919 184.83 129.92 184.83C129.921 184.83 129.922 184.83 129.922 184.83C129.923 184.83 129.924 184.83 129.925 184.83C129.926 184.83 129.927 184.83 129.927 184.83C129.928 184.83 129.929 184.83 129.93 184.83C129.931 184.83 129.932 184.83 129.932 184.83C129.933 184.83 129.934 184.83 129.935 184.83C129.936 184.83 129.937 184.83 129.937 184.83C129.938 184.83 129.939 184.83 129.94 184.83C129.941 184.83 129.942 184.83 129.942 184.83C129.943 184.83 129.944 184.83 129.945 184.83C129.946 184.83 129.946 184.83 129.947 184.83C129.948 184.83 129.949 184.83 129.95 184.83C129.951 184.83 129.951 184.83 129.952 184.83C129.953 184.83 129.954 184.83 129.955 184.83C129.956 184.83 129.956 184.83 129.957 184.83C129.958 184.83 129.959 184.83 129.96 184.83C129.96 184.83 129.961 184.83 129.962 184.83C129.963 184.83 129.964 184.83 129.965 184.83C129.965 184.83 129.966 184.83 129.967 184.83C129.968 184.83 129.969 184.83 129.97 184.83C129.97 184.83 129.971 184.83 129.972 184.83C129.973 184.83 129.974 184.83 129.974 184.83C129.975 184.83 129.976 184.83 129.977 184.83C129.978 184.83 129.978 184.83 129.979 184.83C129.98 184.83 129.981 184.83 129.982 184.83C129.983 184.83 129.983 184.83 129.984 184.83C129.985 184.83 129.986 184.83 129.987 184.83C129.987 184.83 129.988 184.83 129.989 184.83C129.99 184.83 129.991 184.83 129.991 184.83C129.992 184.83 129.993 184.83 129.994 184.83C129.995 184.83 129.996 184.83 129.996 184.83C129.997 184.83 129.998 184.83 129.999 184.83C130 184.83 130 184.83 130.001 184.83C130.002 184.83 130.003 184.83 130.004 184.83C130.004 184.83 130.005 184.83 130.006 184.83C130.007 184.83 130.008 184.83 130.008 184.83C130.009 184.83 130.01 184.83 130.011 184.83C130.012 184.83 130.012 184.83 130.013 184.83C130.014 184.83 130.015 184.83 130.016 184.83C130.016 184.83 130.017 184.83 130.018 184.83C130.019 184.83 130.02 184.83 130.02 184.83C130.021 184.83 130.022 184.83 130.023 184.83C130.024 184.83 130.024 184.83 130.025 184.83C130.026 184.83 130.027 184.83 130.028 184.83C130.028 184.83 130.029 184.83 130.03 184.83C130.031 184.83 130.032 184.83 130.032 184.83C130.033 184.83 130.034 184.83 130.035 184.83C130.036 184.83 130.036 184.83 130.037 184.83C130.038 184.83 130.039 184.83 130.039 184.83C130.04 184.83 130.041 184.83 130.042 184.83C130.043 184.83 130.043 184.83 130.044 184.83C130.045 184.83 130.046 184.83 130.047 184.83C130.047 184.83 130.048 184.83 130.049 184.83C130.05 184.83 130.051 184.83 130.051 184.83C130.052 184.83 130.053 184.83 130.054 184.83C130.054 184.83 130.055 184.83 130.056 184.83C130.057 184.83 130.058 184.83 130.058 184.83C130.059 184.83 130.06 184.83 130.061 184.83C130.062 184.83 130.062 184.83 130.063 184.83C130.064 184.83 130.065 184.83 130.065 184.83C130.066 184.83 130.067 184.83 130.068 184.83C130.069 184.83 130.069 184.83 130.07 184.83C130.071 184.83 130.072 184.83 130.072 184.83C130.073 184.83 130.074 184.83 130.075 184.83C130.076 184.83 130.076 184.83 130.077 184.83C130.078 184.83 130.079 184.83 130.079 184.83C130.08 184.83 130.081 184.83 130.082 184.83C130.083 184.83 130.083 184.83 130.084 184.83C130.085 184.83 130.086 184.83 130.086 184.83C130.087 184.83 130.088 184.83 130.089 184.83C130.09 184.83 130.09 184.83 130.091 184.83C130.092 184.83 130.093 184.83 130.093 184.83C130.094 184.83 130.095 184.83 130.096 184.83C130.096 184.83 130.097 184.83 130.098 184.83C130.099 184.83 130.1 184.83 130.1 184.83C130.101 184.83 130.102 184.83 130.103 184.83C130.103 184.83 130.104 184.83 130.105 184.83C130.106 184.83 130.106 184.83 130.107 184.83C130.108 184.83 130.109 184.83 130.11 184.83C130.11 184.83 130.111 184.83 130.112 184.83C130.113 184.83 130.113 184.83 130.114 184.83C130.115 184.83 130.116 184.83 130.116 184.83C130.117 184.83 130.118 184.83 130.119 184.83C130.119 184.83 130.12 184.83 130.121 184.83C130.122 184.83 130.123 184.83 130.123 184.83C130.124 184.83 130.125 184.83 130.126 184.83C130.126 184.83 130.127 184.83 130.128 184.83C130.129 184.83 130.129 184.83 130.13 184.83C130.131 184.83 130.132 184.83 130.132 184.83C130.133 184.83 130.134 184.83 130.135 184.83C130.135 184.83 130.136 184.83 130.137 184.83C130.138 184.83 130.138 184.83 130.139 184.83C130.14 184.83 130.141 184.83 130.141 184.83C130.142 184.83 130.143 184.83 130.144 184.83C130.144 184.83 130.145 184.83 130.146 184.83C130.147 184.83 130.147 184.83 130.148 184.83C130.149 184.83 130.15 184.83 130.15 184.83C130.151 184.83 130.152 184.83 130.153 184.83C130.153 184.83 130.154 184.83 130.155 184.83C130.156 184.83 130.156 184.83 130.157 184.83C130.158 184.83 130.159 184.83 130.159 184.83C130.16 184.83 130.161 184.83 130.162 184.83C130.162 184.83 130.163 184.83 130.164 184.83C130.165 184.83 130.165 184.83 130.166 184.83C130.167 184.83 130.168 184.83 130.168 184.83C130.169 184.83 130.17 184.83 130.171 184.83C130.171 184.83 130.172 184.83 130.173 184.83C130.173 184.83 130.174 184.83 130.175 184.83C130.176 184.83 130.176 184.83 130.177 184.83C130.178 184.83 130.179 184.83 130.179 184.83C130.18 184.83 130.181 184.83 130.182 184.83C130.182 184.83 130.183 184.83 130.184 184.83C130.185 184.83 130.185 184.83 130.186 184.83C130.187 184.83 130.188 184.83 130.188 184.83C130.189 184.83 130.19 184.83 130.19 184.83C130.191 184.83 130.192 184.83 130.193 184.83C130.193 184.83 130.194 184.83 130.195 184.83C130.196 184.83 130.196 184.83 130.197 184.83C130.198 184.83 130.198 184.83 130.199 184.83C130.2 184.83 130.201 184.83 130.201 184.83C130.202 184.83 130.203 184.83 130.204 184.83C130.204 184.83 130.205 184.83 130.206 184.83C130.206 184.83 130.207 184.83 130.208 184.83C130.209 184.83 130.209 184.83 130.21 184.83C130.211 184.83 130.212 184.83 130.212 184.83C130.213 184.83 130.214 184.83 130.214 184.83C130.215 184.83 130.216 184.83 130.217 184.83C130.217 184.83 130.218 184.83 130.219 184.83C130.22 184.83 130.22 184.83 130.221 184.83C130.222 184.83 130.222 184.83 130.223 184.83C130.224 184.83 130.225 184.83 130.225 184.83C130.226 184.83 130.227 184.83 130.227 184.83C130.228 184.83 130.229 184.83 130.23 184.83C130.23 184.83 130.231 184.83 130.232 184.83C130.232 184.83 130.233 184.83 130.234 184.83C130.235 184.83 130.235 184.83 130.236 184.83C130.237 184.83 130.237 184.83 130.238 184.83C130.239 184.83 130.24 184.83 130.24 184.83C130.241 184.83 130.242 184.83 130.242 184.83C130.243 184.83 130.244 184.83 130.245 184.83C130.245 184.83 130.246 184.83 130.247 184.83C130.247 184.83 130.248 184.83 130.249 184.83C130.25 184.83 130.25 184.83 130.251 184.83C130.252 184.83 130.252 184.83 130.253 184.83C130.254 184.83 130.254 184.83 130.255 184.83C130.256 184.83 130.257 184.83 130.257 184.83C130.258 184.83 130.259 184.83 130.259 184.83C130.26 184.83 130.261 184.83 130.262 184.83C130.262 184.83 130.263 184.83 130.264 184.83C130.264 184.83 130.265 184.83 130.266 184.83C130.266 184.83 130.267 184.83 130.268 184.83C130.269 184.83 130.269 184.83 130.27 184.83C130.271 184.83 130.271 184.83 130.272 184.83C130.273 184.83 130.273 184.83 130.274 184.83C130.275 184.83 130.276 184.83 130.276 184.83C130.277 184.83 130.278 184.83 130.278 184.83C130.279 184.83 130.28 184.83 130.28 184.83C130.281 184.83 130.282 184.83 130.283 184.83C130.283 184.83 130.284 184.83 130.285 184.83C130.285 184.83 130.286 184.83 130.287 184.83C130.287 184.83 130.288 184.83 130.289 184.83C130.289 184.83 130.29 184.83 130.291 184.83C130.292 184.83 130.292 184.83 130.293 184.83C130.294 184.83 130.294 184.83 130.295 184.83C130.296 184.83 130.296 184.83 130.297 184.83C130.298 184.83 130.298 184.83 130.299 184.83C130.3 184.83 130.3 184.83 130.301 184.83C130.302 184.83 130.303 184.83 130.303 184.83C130.304 184.83 130.305 184.83 130.305 184.83C130.306 184.83 130.307 184.83 130.307 184.83C130.308 184.83 130.309 184.83 130.309 184.83C130.31 184.83 130.311 184.83 130.311 184.83C130.312 184.83 130.313 184.83 130.313 184.83C130.314 184.83 130.315 184.83 130.316 184.83C130.316 184.83 130.317 184.83 130.318 184.83C130.318 184.83 130.319 184.83 130.32 184.83C130.32 184.83 130.321 184.83 130.322 184.83C130.322 184.83 130.323 184.83 130.324 184.83C130.324 184.83 130.325 184.83 130.326 184.83C130.326 184.83 130.327 184.83 130.328 184.83C130.328 184.83 130.329 184.83 130.33 184.83C130.33 184.83 130.331 184.83 130.332 184.83C130.332 184.83 130.333 184.83 130.334 184.83C130.334 184.83 130.335 184.83 130.336 184.83C130.336 184.83 130.337 184.83 130.338 184.83C130.338 184.83 130.339 184.83 130.34 184.83C130.34 184.83 130.341 184.83 130.342 184.83C130.342 184.83 130.343 184.83 130.344 184.83C130.344 184.83 130.345 184.83 130.346 184.83C130.346 184.83 130.347 184.83 130.348 184.83C130.348 184.83 130.349 184.83 130.35 184.83C130.35 184.83 130.351 184.83 130.352 184.83C130.352 184.83 130.353 184.83 130.354 184.83C130.354 184.83 130.355 184.83 130.356 184.83C130.356 184.83 130.357 184.83 130.358 184.83C130.358 184.83 130.359 184.83 130.36 184.83C130.36 184.83 130.361 184.83 130.362 184.83C130.362 184.83 130.363 184.83 130.364 184.83C130.364 184.83 130.365 184.83 130.366 184.83C130.366 184.83 130.367 184.83 130.368 184.83C130.368 184.83 130.369 184.83 130.37 184.83C130.37 184.83 130.371 184.83 130.372 184.83C130.372 184.83 130.373 184.83 130.374 184.83C130.374 184.83 130.375 184.83 130.376 184.83C130.376 184.83 130.377 184.83 130.378 184.83C130.378 184.83 130.379 184.83 130.379 184.83C130.38 184.83 130.381 184.83 130.381 184.83C130.382 184.83 130.383 184.83 130.383 184.83C130.384 184.83 130.385 184.83 130.385 184.83C130.386 184.83 130.387 184.83 130.387 184.83C130.388 184.83 130.389 184.83 130.389 184.83C130.39 184.83 130.39 184.83 130.391 184.83C130.392 184.83 130.392 184.83 130.393 184.83C130.394 184.83 130.394 184.83 130.395 184.83C130.396 184.83 130.396 184.83 130.397 184.83C130.398 184.83 130.398 184.83 130.399 184.83C130.4 184.83 130.4 184.83 130.401 184.83C130.401 184.83 130.402 184.83 130.403 184.83C130.403 184.83 130.404 184.83 130.405 184.83C130.405 184.83 130.406 184.83 130.407 184.83C130.407 184.83 130.408 184.83 130.408 184.83C130.409 184.83 130.41 184.83 130.41 184.83C130.411 184.83 130.412 184.83 130.412 184.83C130.413 184.83 130.414 184.83 130.414 184.83C130.415 184.83 130.415 184.83 130.416 184.83C130.417 184.83 130.417 184.83 130.418 184.83C130.419 184.83 130.419 184.83 130.42 184.83C130.421 184.83 130.421 184.83 130.422 184.83C130.422 184.83 130.423 184.83 130.424 184.83C130.424 184.83 130.425 184.83 130.426 184.83C130.426 184.83 130.427 184.83 130.428 184.83C130.428 184.83 130.429 184.83 130.429 184.83C130.43 184.83 130.431 184.83 130.431 184.83C130.432 184.83 130.433 184.83 130.433 184.83C130.434 184.83 130.434 184.83 130.435 184.83C130.436 184.83 130.436 184.83 130.437 184.83C130.438 184.83 130.438 184.83 130.439 184.83C130.439 184.83 130.44 184.83 130.441 184.83C130.441 184.83 130.442 184.83 130.443 184.83C130.443 184.83 130.444 184.83 130.444 184.83C130.445 184.83 130.446 184.83 130.446 184.83C130.447 184.83 130.448 184.83 130.448 184.83C130.449 184.83 130.449 184.83 130.45 184.83C130.451 184.83 130.451 184.83 130.452 184.83C130.452 184.83 130.453 184.83 130.454 184.83C130.454 184.83 130.455 184.83 130.456 184.83C130.456 184.83 130.457 184.83 130.457 184.83C130.458 184.83 130.459 184.83 130.459 184.83C130.46 184.83 130.46 184.83 130.461 184.83C130.462 184.83 130.462 184.83 130.463 184.83C130.464 184.83 130.464 184.83 130.465 184.83C130.465 184.83 130.466 184.83 130.467 184.83C130.467 184.83 130.468 184.83 130.468 184.83C130.469 184.83 130.47 184.83 130.47 184.83C130.471 184.83 130.471 184.83 130.472 184.83C130.473 184.83 130.473 184.83 130.474 184.83C130.475 184.83 130.475 184.83 130.476 184.83C130.476 184.83 130.477 184.83 130.478 184.83C130.478 184.83 130.479 184.83 130.479 184.83C130.48 184.83 130.481 184.83 130.481 184.83C130.482 184.83 130.482 184.83 130.483 184.83C130.484 184.83 130.484 184.83 130.485 184.83C130.485 184.83 130.486 184.83 130.487 184.83C130.487 184.83 130.488 184.83 130.488 184.83C130.489 184.83 130.49 184.83 130.49 184.83C130.491 184.83 130.491 184.83 130.492 184.83C130.493 184.83 130.493 184.83 130.494 184.83C130.494 184.83 130.495 184.83 130.496 184.83C130.496 184.83 130.497 184.83 130.497 184.83C130.498 184.83 130.499 184.83 130.499 184.83C130.5 184.83 130.5 184.83 130.501 184.83C130.502 184.83 130.502 184.83 130.503 184.83C130.503 184.83 130.504 184.83 130.504 184.83C130.505 184.83 130.506 184.83 130.506 184.83C130.507 184.83 130.507 184.83 130.508 184.83C130.509 184.83 130.509 184.83 130.51 184.83C130.51 184.83 130.511 184.83 130.512 184.83C130.512 184.83 130.513 184.83 130.513 184.83C130.514 184.83 130.515 184.83 130.515 184.83C130.516 184.83 130.516 184.83 130.517 184.83C130.517 184.83 130.518 184.83 130.519 184.83C130.519 184.83 130.52 184.83 130.52 184.83C130.521 184.83 130.522 184.83 130.522 184.83C130.523 184.83 130.523 184.83 130.524 184.83C130.524 184.83 130.525 184.83 130.526 184.83C130.526 184.83 130.527 184.83 130.527 184.83C130.528 184.83 130.529 184.83 130.529 184.83C130.53 184.83 130.53 184.83 130.531 184.83C130.531 184.83 130.532 184.83 130.533 184.83C130.533 184.83 130.534 184.83 130.534 184.83C130.535 184.83 130.535 184.83 130.536 184.83C130.537 184.83 130.537 184.83 130.538 184.83C130.538 184.83 130.539 184.83 130.539 184.83C130.54 184.83 130.541 184.83 130.541 184.83C130.542 184.83 130.542 184.83 130.543 184.83C130.544 184.83 130.544 184.83 130.545 184.83C130.545 184.83 130.546 184.83 130.546 184.83C130.547 184.83 130.548 184.83 130.548 184.83C130.549 184.83 130.549 184.83 130.55 184.83C130.55 184.83 130.551 184.83 130.551 184.83C130.552 184.83 130.553 184.83 130.553 184.83C130.554 184.83 130.554 184.83 130.555 184.83C130.555 184.83 130.556 184.83 130.557 184.83C130.557 184.83 130.558 184.83 130.558 184.83C130.559 184.83 130.559 184.83 130.56 184.83C130.561 184.83 130.561 184.83 130.562 184.83C130.562 184.83 130.563 184.83 130.563 184.83C130.564 184.83 130.564 184.83 130.565 184.83C130.566 184.83 130.566 184.83 130.567 184.83C130.567 184.83 130.568 184.83 130.568 184.83C130.569 184.83 130.57 184.83 130.57 184.83C130.571 184.83 130.571 184.83 130.572 184.83C130.572 184.83 130.573 184.83 130.573 184.83C130.574 184.83 130.575 184.83 130.575 184.83C130.576 184.83 130.576 184.83 130.577 184.83C130.577 184.83 130.578 184.83 130.578 184.83C130.579 184.83 130.58 184.83 130.58 184.83C130.581 184.83 130.581 184.83 130.582 184.83C130.582 184.83 130.583 184.83 130.583 184.83C130.584 184.83 130.585 184.83 130.585 184.83C130.586 184.83 130.586 184.83 130.587 184.83C130.587 184.83 130.588 184.83 130.588 184.83C130.589 184.83 130.589 184.83 130.59 184.83C130.591 184.83 130.591 184.83 130.592 184.83V182.83C130.591 182.83 130.591 182.83 130.59 182.83C130.589 182.83 130.589 182.83 130.588 182.83C130.588 182.83 130.587 182.83 130.587 182.83C130.586 182.83 130.586 182.83 130.585 182.83C130.585 182.83 130.584 182.83 130.583 182.83C130.583 182.83 130.582 182.83 130.582 182.83C130.581 182.83 130.581 182.83 130.58 182.83C130.58 182.83 130.579 182.83 130.578 182.83C130.578 182.83 130.577 182.83 130.577 182.83C130.576 182.83 130.576 182.83 130.575 182.83C130.575 182.83 130.574 182.83 130.573 182.83C130.573 182.83 130.572 182.83 130.572 182.83C130.571 182.83 130.571 182.83 130.57 182.83C130.57 182.83 130.569 182.83 130.568 182.83C130.568 182.83 130.567 182.83 130.567 182.83C130.566 182.83 130.566 182.83 130.565 182.83C130.564 182.83 130.564 182.83 130.563 182.83C130.563 182.83 130.562 182.83 130.562 182.83C130.561 182.83 130.561 182.83 130.56 182.83C130.559 182.83 130.559 182.83 130.558 182.83C130.558 182.83 130.557 182.83 130.557 182.83C130.556 182.83 130.555 182.83 130.555 182.83C130.554 182.83 130.554 182.83 130.553 182.83C130.553 182.83 130.552 182.83 130.551 182.83C130.551 182.83 130.55 182.83 130.55 182.83C130.549 182.83 130.549 182.83 130.548 182.83C130.548 182.83 130.547 182.83 130.546 182.83C130.546 182.83 130.545 182.83 130.545 182.83C130.544 182.83 130.544 182.83 130.543 182.83C130.542 182.83 130.542 182.83 130.541 182.83C130.541 182.83 130.54 182.83 130.539 182.83C130.539 182.83 130.538 182.83 130.538 182.83C130.537 182.83 130.537 182.83 130.536 182.83C130.535 182.83 130.535 182.83 130.534 182.83C130.534 182.83 130.533 182.83 130.533 182.83C130.532 182.83 130.531 182.83 130.531 182.83C130.53 182.83 130.53 182.83 130.529 182.83C130.529 182.83 130.528 182.83 130.527 182.83C130.527 182.83 130.526 182.83 130.526 182.83C130.525 182.83 130.524 182.83 130.524 182.83C130.523 182.83 130.523 182.83 130.522 182.83C130.522 182.83 130.521 182.83 130.52 182.83C130.52 182.83 130.519 182.83 130.519 182.83C130.518 182.83 130.517 182.83 130.517 182.83C130.516 182.83 130.516 182.83 130.515 182.83C130.515 182.83 130.514 182.83 130.513 182.83C130.513 182.83 130.512 182.83 130.512 182.83C130.511 182.83 130.51 182.83 130.51 182.83C130.509 182.83 130.509 182.83 130.508 182.83C130.507 182.83 130.507 182.83 130.506 182.83C130.506 182.83 130.505 182.83 130.504 182.83C130.504 182.83 130.503 182.83 130.503 182.83C130.502 182.83 130.502 182.83 130.501 182.83C130.5 182.83 130.5 182.83 130.499 182.83C130.499 182.83 130.498 182.83 130.497 182.83C130.497 182.83 130.496 182.83 130.496 182.83C130.495 182.83 130.494 182.83 130.494 182.83C130.493 182.83 130.493 182.83 130.492 182.83C130.491 182.83 130.491 182.83 130.49 182.83C130.49 182.83 130.489 182.83 130.488 182.83C130.488 182.83 130.487 182.83 130.487 182.83C130.486 182.83 130.485 182.83 130.485 182.83C130.484 182.83 130.484 182.83 130.483 182.83C130.482 182.83 130.482 182.83 130.481 182.83C130.481 182.83 130.48 182.83 130.479 182.83C130.479 182.83 130.478 182.83 130.478 182.83C130.477 182.83 130.476 182.83 130.476 182.83C130.475 182.83 130.475 182.83 130.474 182.83C130.473 182.83 130.473 182.83 130.472 182.83C130.471 182.83 130.471 182.83 130.47 182.83C130.47 182.83 130.469 182.83 130.468 182.83C130.468 182.83 130.467 182.83 130.467 182.83C130.466 182.83 130.465 182.83 130.465 182.83C130.464 182.83 130.464 182.83 130.463 182.83C130.462 182.83 130.462 182.83 130.461 182.83C130.46 182.83 130.46 182.83 130.459 182.83C130.459 182.83 130.458 182.83 130.457 182.83C130.457 182.83 130.456 182.83 130.456 182.83C130.455 182.83 130.454 182.83 130.454 182.83C130.453 182.83 130.452 182.83 130.452 182.83C130.451 182.83 130.451 182.83 130.45 182.83C130.449 182.83 130.449 182.83 130.448 182.83C130.448 182.83 130.447 182.83 130.446 182.83C130.446 182.83 130.445 182.83 130.444 182.83C130.444 182.83 130.443 182.83 130.443 182.83C130.442 182.83 130.441 182.83 130.441 182.83C130.44 182.83 130.439 182.83 130.439 182.83C130.438 182.83 130.438 182.83 130.437 182.83C130.436 182.83 130.436 182.83 130.435 182.83C130.434 182.83 130.434 182.83 130.433 182.83C130.433 182.83 130.432 182.83 130.431 182.83C130.431 182.83 130.43 182.83 130.429 182.83C130.429 182.83 130.428 182.83 130.428 182.83C130.427 182.83 130.426 182.83 130.426 182.83C130.425 182.83 130.424 182.83 130.424 182.83C130.423 182.83 130.422 182.83 130.422 182.83C130.421 182.83 130.421 182.83 130.42 182.83C130.419 182.83 130.419 182.83 130.418 182.83C130.417 182.83 130.417 182.83 130.416 182.83C130.415 182.83 130.415 182.83 130.414 182.83C130.414 182.83 130.413 182.83 130.412 182.83C130.412 182.83 130.411 182.83 130.41 182.83C130.41 182.83 130.409 182.83 130.408 182.83C130.408 182.83 130.407 182.83 130.407 182.83C130.406 182.83 130.405 182.83 130.405 182.83C130.404 182.83 130.403 182.83 130.403 182.83C130.402 182.83 130.401 182.83 130.401 182.83C130.4 182.83 130.4 182.83 130.399 182.83C130.398 182.83 130.398 182.83 130.397 182.83C130.396 182.83 130.396 182.83 130.395 182.83C130.394 182.83 130.394 182.83 130.393 182.83C130.392 182.83 130.392 182.83 130.391 182.83C130.39 182.83 130.39 182.83 130.389 182.83C130.389 182.83 130.388 182.83 130.387 182.83C130.387 182.83 130.386 182.83 130.385 182.83C130.385 182.83 130.384 182.83 130.383 182.83C130.383 182.83 130.382 182.83 130.381 182.83C130.381 182.83 130.38 182.83 130.379 182.83C130.379 182.83 130.378 182.83 130.378 182.83C130.377 182.83 130.376 182.83 130.376 182.83C130.375 182.83 130.374 182.83 130.374 182.83C130.373 182.83 130.372 182.83 130.372 182.83C130.371 182.83 130.37 182.83 130.37 182.83C130.369 182.83 130.368 182.83 130.368 182.83C130.367 182.83 130.366 182.83 130.366 182.83C130.365 182.83 130.364 182.83 130.364 182.83C130.363 182.83 130.362 182.83 130.362 182.83C130.361 182.83 130.36 182.83 130.36 182.83C130.359 182.83 130.358 182.83 130.358 182.83C130.357 182.83 130.356 182.83 130.356 182.83C130.355 182.83 130.354 182.83 130.354 182.83C130.353 182.83 130.352 182.83 130.352 182.83C130.351 182.83 130.35 182.83 130.35 182.83C130.349 182.83 130.348 182.83 130.348 182.83C130.347 182.83 130.346 182.83 130.346 182.83C130.345 182.83 130.344 182.83 130.344 182.83C130.343 182.83 130.342 182.83 130.342 182.83C130.341 182.83 130.34 182.83 130.34 182.83C130.339 182.83 130.338 182.83 130.338 182.83C130.337 182.83 130.336 182.83 130.336 182.83C130.335 182.83 130.334 182.83 130.334 182.83C130.333 182.83 130.332 182.83 130.332 182.83C130.331 182.83 130.33 182.83 130.33 182.83C130.329 182.83 130.328 182.83 130.328 182.83C130.327 182.83 130.326 182.83 130.326 182.83C130.325 182.83 130.324 182.83 130.324 182.83C130.323 182.83 130.322 182.83 130.322 182.83C130.321 182.83 130.32 182.83 130.32 182.83C130.319 182.83 130.318 182.83 130.318 182.83C130.317 182.83 130.316 182.83 130.316 182.83C130.315 182.83 130.314 182.83 130.313 182.83C130.313 182.83 130.312 182.83 130.311 182.83C130.311 182.83 130.31 182.83 130.309 182.83C130.309 182.83 130.308 182.83 130.307 182.83C130.307 182.83 130.306 182.83 130.305 182.83C130.305 182.83 130.304 182.83 130.303 182.83C130.303 182.83 130.302 182.83 130.301 182.83C130.3 182.83 130.3 182.83 130.299 182.83C130.298 182.83 130.298 182.83 130.297 182.83C130.296 182.83 130.296 182.83 130.295 182.83C130.294 182.83 130.294 182.83 130.293 182.83C130.292 182.83 130.292 182.83 130.291 182.83C130.29 182.83 130.289 182.83 130.289 182.83C130.288 182.83 130.287 182.83 130.287 182.83C130.286 182.83 130.285 182.83 130.285 182.83C130.284 182.83 130.283 182.83 130.283 182.83C130.282 182.83 130.281 182.83 130.28 182.83C130.28 182.83 130.279 182.83 130.278 182.83C130.278 182.83 130.277 182.83 130.276 182.83C130.276 182.83 130.275 182.83 130.274 182.83C130.273 182.83 130.273 182.83 130.272 182.83C130.271 182.83 130.271 182.83 130.27 182.83C130.269 182.83 130.269 182.83 130.268 182.83C130.267 182.83 130.266 182.83 130.266 182.83C130.265 182.83 130.264 182.83 130.264 182.83C130.263 182.83 130.262 182.83 130.262 182.83C130.261 182.83 130.26 182.83 130.259 182.83C130.259 182.83 130.258 182.83 130.257 182.83C130.257 182.83 130.256 182.83 130.255 182.83C130.254 182.83 130.254 182.83 130.253 182.83C130.252 182.83 130.252 182.83 130.251 182.83C130.25 182.83 130.25 182.83 130.249 182.83C130.248 182.83 130.247 182.83 130.247 182.83C130.246 182.83 130.245 182.83 130.245 182.83C130.244 182.83 130.243 182.83 130.242 182.83C130.242 182.83 130.241 182.83 130.24 182.83C130.24 182.83 130.239 182.83 130.238 182.83C130.237 182.83 130.237 182.83 130.236 182.83C130.235 182.83 130.235 182.83 130.234 182.83C130.233 182.83 130.232 182.83 130.232 182.83C130.231 182.83 130.23 182.83 130.23 182.83C130.229 182.83 130.228 182.83 130.227 182.83C130.227 182.83 130.226 182.83 130.225 182.83C130.225 182.83 130.224 182.83 130.223 182.83C130.222 182.83 130.222 182.83 130.221 182.83C130.22 182.83 130.22 182.83 130.219 182.83C130.218 182.83 130.217 182.83 130.217 182.83C130.216 182.83 130.215 182.83 130.214 182.83C130.214 182.83 130.213 182.83 130.212 182.83C130.212 182.83 130.211 182.83 130.21 182.83C130.209 182.83 130.209 182.83 130.208 182.83C130.207 182.83 130.206 182.83 130.206 182.83C130.205 182.83 130.204 182.83 130.204 182.83C130.203 182.83 130.202 182.83 130.201 182.83C130.201 182.83 130.2 182.83 130.199 182.83C130.198 182.83 130.198 182.83 130.197 182.83C130.196 182.83 130.196 182.83 130.195 182.83C130.194 182.83 130.193 182.83 130.193 182.83C130.192 182.83 130.191 182.83 130.19 182.83C130.19 182.83 130.189 182.83 130.188 182.83C130.188 182.83 130.187 182.83 130.186 182.83C130.185 182.83 130.185 182.83 130.184 182.83C130.183 182.83 130.182 182.83 130.182 182.83C130.181 182.83 130.18 182.83 130.179 182.83C130.179 182.83 130.178 182.83 130.177 182.83C130.176 182.83 130.176 182.83 130.175 182.83C130.174 182.83 130.173 182.83 130.173 182.83C130.172 182.83 130.171 182.83 130.171 182.83C130.17 182.83 130.169 182.83 130.168 182.83C130.168 182.83 130.167 182.83 130.166 182.83C130.165 182.83 130.165 182.83 130.164 182.83C130.163 182.83 130.162 182.83 130.162 182.83C130.161 182.83 130.16 182.83 130.159 182.83C130.159 182.83 130.158 182.83 130.157 182.83C130.156 182.83 130.156 182.83 130.155 182.83C130.154 182.83 130.153 182.83 130.153 182.83C130.152 182.83 130.151 182.83 130.15 182.83C130.15 182.83 130.149 182.83 130.148 182.83C130.147 182.83 130.147 182.83 130.146 182.83C130.145 182.83 130.144 182.83 130.144 182.83C130.143 182.83 130.142 182.83 130.141 182.83C130.141 182.83 130.14 182.83 130.139 182.83C130.138 182.83 130.138 182.83 130.137 182.83C130.136 182.83 130.135 182.83 130.135 182.83C130.134 182.83 130.133 182.83 130.132 182.83C130.132 182.83 130.131 182.83 130.13 182.83C130.129 182.83 130.129 182.83 130.128 182.83C130.127 182.83 130.126 182.83 130.126 182.83C130.125 182.83 130.124 182.83 130.123 182.83C130.123 182.83 130.122 182.83 130.121 182.83C130.12 182.83 130.119 182.83 130.119 182.83C130.118 182.83 130.117 182.83 130.116 182.83C130.116 182.83 130.115 182.83 130.114 182.83C130.113 182.83 130.113 182.83 130.112 182.83C130.111 182.83 130.11 182.83 130.11 182.83C130.109 182.83 130.108 182.83 130.107 182.83C130.106 182.83 130.106 182.83 130.105 182.83C130.104 182.83 130.103 182.83 130.103 182.83C130.102 182.83 130.101 182.83 130.1 182.83C130.1 182.83 130.099 182.83 130.098 182.83C130.097 182.83 130.096 182.83 130.096 182.83C130.095 182.83 130.094 182.83 130.093 182.83C130.093 182.83 130.092 182.83 130.091 182.83C130.09 182.83 130.09 182.83 130.089 182.83C130.088 182.83 130.087 182.83 130.086 182.83C130.086 182.83 130.085 182.83 130.084 182.83C130.083 182.83 130.083 182.83 130.082 182.83C130.081 182.83 130.08 182.83 130.079 182.83C130.079 182.83 130.078 182.83 130.077 182.83C130.076 182.83 130.076 182.83 130.075 182.83C130.074 182.83 130.073 182.83 130.072 182.83C130.072 182.83 130.071 182.83 130.07 182.83C130.069 182.83 130.069 182.83 130.068 182.83C130.067 182.83 130.066 182.83 130.065 182.83C130.065 182.83 130.064 182.83 130.063 182.83C130.062 182.83 130.062 182.83 130.061 182.83C130.06 182.83 130.059 182.83 130.058 182.83C130.058 182.83 130.057 182.83 130.056 182.83C130.055 182.83 130.054 182.83 130.054 182.83C130.053 182.83 130.052 182.83 130.051 182.83C130.051 182.83 130.05 182.83 130.049 182.83C130.048 182.83 130.047 182.83 130.047 182.83C130.046 182.83 130.045 182.83 130.044 182.83C130.043 182.83 130.043 182.83 130.042 182.83C130.041 182.83 130.04 182.83 130.039 182.83C130.039 182.83 130.038 182.83 130.037 182.83C130.036 182.83 130.036 182.83 130.035 182.83C130.034 182.83 130.033 182.83 130.032 182.83C130.032 182.83 130.031 182.83 130.03 182.83C130.029 182.83 130.028 182.83 130.028 182.83C130.027 182.83 130.026 182.83 130.025 182.83C130.024 182.83 130.024 182.83 130.023 182.83C130.022 182.83 130.021 182.83 130.02 182.83C130.02 182.83 130.019 182.83 130.018 182.83C130.017 182.83 130.016 182.83 130.016 182.83C130.015 182.83 130.014 182.83 130.013 182.83C130.012 182.83 130.012 182.83 130.011 182.83C130.01 182.83 130.009 182.83 130.008 182.83C130.008 182.83 130.007 182.83 130.006 182.83C130.005 182.83 130.004 182.83 130.004 182.83C130.003 182.83 130.002 182.83 130.001 182.83C130 182.83 130 182.83 129.999 182.83C129.998 182.83 129.997 182.83 129.996 182.83C129.996 182.83 129.995 182.83 129.994 182.83C129.993 182.83 129.992 182.83 129.991 182.83C129.991 182.83 129.99 182.83 129.989 182.83C129.988 182.83 129.987 182.83 129.987 182.83C129.986 182.83 129.985 182.83 129.984 182.83C129.983 182.83 129.983 182.83 129.982 182.83C129.981 182.83 129.98 182.83 129.979 182.83C129.978 182.83 129.978 182.83 129.977 182.83C129.976 182.83 129.975 182.83 129.974 182.83C129.974 182.83 129.973 182.83 129.972 182.83C129.971 182.83 129.97 182.83 129.97 182.83C129.969 182.83 129.968 182.83 129.967 182.83C129.966 182.83 129.965 182.83 129.965 182.83C129.964 182.83 129.963 182.83 129.962 182.83C129.961 182.83 129.96 182.83 129.96 182.83C129.959 182.83 129.958 182.83 129.957 182.83C129.956 182.83 129.956 182.83 129.955 182.83C129.954 182.83 129.953 182.83 129.952 182.83C129.951 182.83 129.951 182.83 129.95 182.83C129.949 182.83 129.948 182.83 129.947 182.83C129.946 182.83 129.946 182.83 129.945 182.83C129.944 182.83 129.943 182.83 129.942 182.83C129.942 182.83 129.941 182.83 129.94 182.83C129.939 182.83 129.938 182.83 129.937 182.83C129.937 182.83 129.936 182.83 129.935 182.83C129.934 182.83 129.933 182.83 129.932 182.83C129.932 182.83 129.931 182.83 129.93 182.83C129.929 182.83 129.928 182.83 129.927 182.83C129.927 182.83 129.926 182.83 129.925 182.83C129.924 182.83 129.923 182.83 129.922 182.83C129.922 182.83 129.921 182.83 129.92 182.83C129.919 182.83 129.918 182.83 129.917 182.83C129.917 182.83 129.916 182.83 129.915 182.83C129.914 182.83 129.913 182.83 129.912 182.83C129.912 182.83 129.911 182.83 129.91 182.83C129.909 182.83 129.908 182.83 129.907 182.83C129.907 182.83 129.906 182.83 129.905 182.83C129.904 182.83 129.903 182.83 129.902 182.83C129.901 182.83 129.901 182.83 129.9 182.83C129.899 182.83 129.898 182.83 129.897 182.83C129.896 182.83 129.896 182.83 129.895 182.83C129.894 182.83 129.893 182.83 129.892 182.83C129.891 182.83 129.891 182.83 129.89 182.83C129.889 182.83 129.888 182.83 129.887 182.83C129.886 182.83 129.885 182.83 129.885 182.83C129.884 182.83 129.883 182.83 129.882 182.83C129.881 182.83 129.88 182.83 129.879 182.83C129.879 182.83 129.878 182.83 129.877 182.83C129.876 182.83 129.875 182.83 129.874 182.83C129.874 182.83 129.873 182.83 129.872 182.83C129.871 182.83 129.87 182.83 129.869 182.83C129.868 182.83 129.868 182.83 129.867 182.83C129.866 182.83 129.865 182.83 129.864 182.83C129.863 182.83 129.862 182.83 129.862 182.83C129.861 182.83 129.86 182.83 129.859 182.83C129.858 182.83 129.857 182.83 129.856 182.83C129.856 182.83 129.855 182.83 129.854 182.83C129.853 182.83 129.852 182.83 129.851 182.83C129.85 182.83 129.85 182.83 129.849 182.83C129.848 182.83 129.847 182.83 129.846 182.83C129.845 182.83 129.844 182.83 129.844 182.83C129.843 182.83 129.842 182.83 129.841 182.83C129.84 182.83 129.839 182.83 129.838 182.83C129.838 182.83 129.837 182.83 129.836 182.83C129.835 182.83 129.834 182.83 129.833 182.83C129.832 182.83 129.831 182.83 129.831 182.83C129.83 182.83 129.829 182.83 129.828 182.83C129.827 182.83 129.826 182.83 129.825 182.83C129.825 182.83 129.824 182.83 129.823 182.83C129.822 182.83 129.821 182.83 129.82 182.83C129.819 182.83 129.818 182.83 129.818 182.83C129.817 182.83 129.816 182.83 129.815 182.83C129.814 182.83 129.813 182.83 129.812 182.83C129.811 182.83 129.811 182.83 129.81 182.83C129.809 182.83 129.808 182.83 129.807 182.83C129.806 182.83 129.805 182.83 129.804 182.83C129.804 182.83 129.803 182.83 129.802 182.83C129.801 182.83 129.8 182.83 129.799 182.83C129.798 182.83 129.797 182.83 129.797 182.83C129.796 182.83 129.795 182.83 129.794 182.83C129.793 182.83 129.792 182.83 129.791 182.83C129.79 182.83 129.79 182.83 129.789 182.83C129.788 182.83 129.787 182.83 129.786 182.83C129.785 182.83 129.784 182.83 129.783 182.83C129.782 182.83 129.782 182.83 129.781 182.83C129.78 182.83 129.779 182.83 129.778 182.83C129.777 182.83 129.776 182.83 129.775 182.83C129.775 182.83 129.774 182.83 129.773 182.83C129.772 182.83 129.771 182.83 129.77 182.83C129.769 182.83 129.768 182.83 129.767 182.83C129.767 182.83 129.766 182.83 129.765 182.83C129.764 182.83 129.763 182.83 129.762 182.83C129.761 182.83 129.76 182.83 129.759 182.83C129.759 182.83 129.758 182.83 129.757 182.83C129.756 182.83 129.755 182.83 129.754 182.83C129.753 182.83 129.752 182.83 129.751 182.83C129.751 182.83 129.75 182.83 129.749 182.83C129.748 182.83 129.747 182.83 129.746 182.83C129.745 182.83 129.744 182.83 129.743 182.83C129.742 182.83 129.742 182.83 129.741 182.83C129.74 182.83 129.739 182.83 129.738 182.83C129.737 182.83 129.736 182.83 129.735 182.83C129.734 182.83 129.733 182.83 129.733 182.83C129.732 182.83 129.731 182.83 129.73 182.83C129.729 182.83 129.728 182.83 129.727 182.83C129.726 182.83 129.725 182.83 129.724 182.83C129.724 182.83 129.723 182.83 129.722 182.83C129.721 182.83 129.72 182.83 129.719 182.83C129.718 182.83 129.717 182.83 129.716 182.83C129.715 182.83 129.715 182.83 129.714 182.83C129.713 182.83 129.712 182.83 129.711 182.83C129.71 182.83 129.709 182.83 129.708 182.83C129.707 182.83 129.706 182.83 129.705 182.83C129.705 182.83 129.704 182.83 129.703 182.83C129.702 182.83 129.701 182.83 129.7 182.83C129.699 182.83 129.698 182.83 129.697 182.83C129.696 182.83 129.695 182.83 129.695 182.83C129.694 182.83 129.693 182.83 129.692 182.83C129.691 182.83 129.69 182.83 129.689 182.83C129.688 182.83 129.687 182.83 129.686 182.83C129.685 182.83 129.685 182.83 129.684 182.83C129.683 182.83 129.682 182.83 129.681 182.83C129.68 182.83 129.679 182.83 129.678 182.83C129.677 182.83 129.676 182.83 129.675 182.83C129.674 182.83 129.674 182.83 129.673 182.83C129.672 182.83 129.671 182.83 129.67 182.83C129.669 182.83 129.668 182.83 129.667 182.83C129.666 182.83 129.665 182.83 129.664 182.83C129.663 182.83 129.662 182.83 129.662 182.83C129.661 182.83 129.66 182.83 129.659 182.83C129.658 182.83 129.657 182.83 129.656 182.83C129.655 182.83 129.654 182.83 129.653 182.83C129.652 182.83 129.651 182.83 129.65 182.83C129.65 182.83 129.649 182.83 129.648 182.83C129.647 182.83 129.646 182.83 129.645 182.83C129.644 182.83 129.643 182.83 129.642 182.83C129.641 182.83 129.64 182.83 129.639 182.83C129.638 182.83 129.637 182.83 129.637 182.83C129.636 182.83 129.635 182.83 129.634 182.83C129.633 182.83 129.632 182.83 129.631 182.83C129.63 182.83 129.629 182.83 129.628 182.83C129.627 182.83 129.626 182.83 129.625 182.83C129.624 182.83 129.623 182.83 129.623 182.83C129.622 182.83 129.621 182.83 129.62 182.83C129.619 182.83 129.618 182.83 129.617 182.83C129.616 182.83 129.615 182.83 129.614 182.83C129.613 182.83 129.612 182.83 129.611 182.83C129.61 182.83 129.609 182.83 129.608 182.83C129.608 182.83 129.607 182.83 129.606 182.83C129.605 182.83 129.604 182.83 129.603 182.83C129.602 182.83 129.601 182.83 129.6 182.83C129.599 182.83 129.598 182.83 129.597 182.83C129.596 182.83 129.595 182.83 129.594 182.83C129.593 182.83 129.592 182.83 129.592 182.83C129.591 182.83 129.59 182.83 129.589 182.83C129.588 182.83 129.587 182.83 129.586 182.83C129.585 182.83 129.584 182.83 129.583 182.83C129.582 182.83 129.581 182.83 129.58 182.83C129.579 182.83 129.578 182.83 129.577 182.83C129.576 182.83 129.575 182.83 129.574 182.83C129.574 182.83 129.573 182.83 129.572 182.83C129.571 182.83 129.57 182.83 129.569 182.83C129.568 182.83 129.567 182.83 129.566 182.83C129.565 182.83 129.564 182.83 129.563 182.83C129.562 182.83 129.561 182.83 129.56 182.83C129.559 182.83 129.558 182.83 129.557 182.83C129.556 182.83 129.555 182.83 129.554 182.83C129.553 182.83 129.553 182.83 129.552 182.83C129.551 182.83 129.55 182.83 129.549 182.83C129.548 182.83 129.547 182.83 129.546 182.83C129.545 182.83 129.544 182.83 129.543 182.83C129.542 182.83 129.541 182.83 129.54 182.83C129.539 182.83 129.538 182.83 129.537 182.83C129.536 182.83 129.535 182.83 129.534 182.83C129.533 182.83 129.532 182.83 129.531 182.83C129.53 182.83 129.529 182.83 129.529 182.83C129.528 182.83 129.527 182.83 129.526 182.83C129.525 182.83 129.524 182.83 129.523 182.83C129.522 182.83 129.521 182.83 129.52 182.83C129.519 182.83 129.518 182.83 129.517 182.83C129.516 182.83 129.515 182.83 129.514 182.83C129.513 182.83 129.512 182.83 129.511 182.83C129.51 182.83 129.509 182.83 129.508 182.83C129.507 182.83 129.506 182.83 129.505 182.83C129.504 182.83 129.503 182.83 129.502 182.83C129.501 182.83 129.5 182.83 129.499 182.83C129.498 182.83 129.497 182.83 129.497 182.83C129.496 182.83 129.495 182.83 129.494 182.83C129.493 182.83 129.492 182.83 129.491 182.83C129.49 182.83 129.489 182.83 129.488 182.83C129.487 182.83 129.486 182.83 129.485 182.83C129.484 182.83 129.483 182.83 129.482 182.83C129.481 182.83 129.48 182.83 129.479 182.83C129.478 182.83 129.477 182.83 129.476 182.83C129.475 182.83 129.474 182.83 129.473 182.83C129.472 182.83 129.471 182.83 129.47 182.83C129.469 182.83 129.468 182.83 129.467 182.83C129.466 182.83 129.465 182.83 129.464 182.83C129.463 182.83 129.462 182.83 129.461 182.83C129.46 182.83 129.459 182.83 129.458 182.83C129.457 182.83 129.456 182.83 129.455 182.83C129.454 182.83 129.453 182.83 129.452 182.83C129.451 182.83 129.45 182.83 129.449 182.83C129.448 182.83 129.447 182.83 129.446 182.83C129.445 182.83 129.444 182.83 129.443 182.83C129.442 182.83 129.442 182.83 129.441 182.83C129.44 182.83 129.439 182.83 129.438 182.83C129.437 182.83 129.436 182.83 129.435 182.83C129.434 182.83 129.433 182.83 129.432 182.83C129.431 182.83 129.43 182.83 129.429 182.83C129.428 182.83 129.427 182.83 129.426 182.83C129.425 182.83 129.424 182.83 129.423 182.83C129.422 182.83 129.421 182.83 129.42 182.83C129.419 182.83 129.418 182.83 129.417 182.83C129.416 182.83 129.415 182.83 129.414 182.83C129.413 182.83 129.412 182.83 129.411 182.83C129.41 182.83 129.409 182.83 129.408 182.83C129.407 182.83 129.406 182.83 129.405 182.83C129.404 182.83 129.403 182.83 129.402 182.83V184.83ZM130.592 184.83C130.823 184.83 130.969 184.85 131.049 184.87L131.534 182.93C131.241 182.857 130.92 182.83 130.592 182.83V184.83ZM130.292 183.9V192.44H132.292V183.9H130.292Z" fill="black" fill-opacity="0.3"/>
</g>
<g filter="url(#filter1_d_934_1770)">
<path d="M52.96 283V253.39L42.25 274.95H35.95L25.24 253.39V283H13.76V233.3H26.22L39.1 259.27L52.05 233.3H64.44V283H52.96ZM73.0746 283V246.25H84.2746V283H73.0746ZM73.0746 242.05V231.9H84.2746V242.05H73.0746ZM106.012 283.7C102.885 283.7 99.8285 283.187 96.8418 282.16C93.8551 281.133 91.3351 279.617 89.2818 277.61L93.1318 270.54C95.3718 272.173 97.5418 273.41 99.6418 274.25C101.788 275.09 103.795 275.51 105.662 275.51C107.108 275.51 108.228 275.277 109.022 274.81C109.815 274.343 110.212 273.62 110.212 272.64C110.212 271.94 109.978 271.403 109.512 271.03C109.045 270.61 108.322 270.237 107.342 269.91C106.408 269.583 105.242 269.233 103.842 268.86C101.042 267.927 98.7085 267.017 96.8418 266.13C94.9751 265.243 93.5751 264.17 92.6418 262.91C91.7085 261.603 91.2418 259.923 91.2418 257.87C91.2418 255.397 91.8485 253.25 93.0618 251.43C94.3218 249.563 96.0951 248.117 98.3818 247.09C100.668 246.063 103.398 245.55 106.572 245.55C109.092 245.55 111.542 245.947 113.922 246.74C116.348 247.533 118.612 248.863 120.712 250.73L116.372 257.73C114.272 256.283 112.405 255.233 110.772 254.58C109.138 253.927 107.552 253.6 106.012 253.6C105.218 253.6 104.495 253.693 103.842 253.88C103.188 254.067 102.652 254.393 102.232 254.86C101.858 255.28 101.672 255.84 101.672 256.54C101.672 257.24 101.858 257.8 102.232 258.22C102.652 258.64 103.282 259.013 104.122 259.34C105.008 259.62 106.105 259.97 107.412 260.39C110.445 261.277 112.965 262.187 114.972 263.12C116.978 264.007 118.472 265.127 119.452 266.48C120.478 267.787 120.992 269.537 120.992 271.73C120.992 275.463 119.638 278.403 116.932 280.55C114.272 282.65 110.632 283.7 106.012 283.7ZM140.807 283.7C137.68 283.7 134.623 283.187 131.637 282.16C128.65 281.133 126.13 279.617 124.077 277.61L127.927 270.54C130.167 272.173 132.337 273.41 134.437 274.25C136.583 275.09 138.59 275.51 140.457 275.51C141.903 275.51 143.023 275.277 143.817 274.81C144.61 274.343 145.007 273.62 145.007 272.64C145.007 271.94 144.773 271.403 144.307 271.03C143.84 270.61 143.117 270.237 142.137 269.91C141.203 269.583 140.037 269.233 138.637 268.86C135.837 267.927 133.503 267.017 131.637 266.13C129.77 265.243 128.37 264.17 127.437 262.91C126.503 261.603 126.037 259.923 126.037 257.87C126.037 255.397 126.643 253.25 127.857 251.43C129.117 249.563 130.89 248.117 133.177 247.09C135.463 246.063 138.193 245.55 141.367 245.55C143.887 245.55 146.337 245.947 148.717 246.74C151.143 247.533 153.407 248.863 155.507 250.73L151.167 257.73C149.067 256.283 147.2 255.233 145.567 254.58C143.933 253.927 142.347 253.6 140.807 253.6C140.013 253.6 139.29 253.693 138.637 253.88C137.983 254.067 137.447 254.393 137.027 254.86C136.653 255.28 136.467 255.84 136.467 256.54C136.467 257.24 136.653 257.8 137.027 258.22C137.447 258.64 138.077 259.013 138.917 259.34C139.803 259.62 140.9 259.97 142.207 260.39C145.24 261.277 147.76 262.187 149.767 263.12C151.773 264.007 153.267 265.127 154.247 266.48C155.273 267.787 155.787 269.537 155.787 271.73C155.787 275.463 154.433 278.403 151.727 280.55C149.067 282.65 145.427 283.7 140.807 283.7ZM161.532 283V246.25H172.732V283H161.532ZM161.532 242.05V231.9H172.732V242.05H161.532ZM197.899 283.7C194.772 283.7 191.972 283.187 189.499 282.16C187.072 281.133 185.019 279.733 183.339 277.96C181.659 276.187 180.375 274.157 179.489 271.87C178.649 269.583 178.229 267.18 178.229 264.66C178.229 262.093 178.649 259.667 179.489 257.38C180.375 255.093 181.659 253.063 183.339 251.29C185.019 249.517 187.072 248.117 189.499 247.09C191.972 246.063 194.772 245.55 197.899 245.55C201.025 245.55 203.802 246.063 206.229 247.09C208.655 248.117 210.709 249.517 212.389 251.29C214.069 253.063 215.352 255.093 216.239 257.38C217.125 259.667 217.569 262.093 217.569 264.66C217.569 267.18 217.125 269.583 216.239 271.87C215.352 274.157 214.069 276.187 212.389 277.96C210.709 279.733 208.655 281.133 206.229 282.16C203.802 283.187 201.025 283.7 197.899 283.7ZM189.709 264.66C189.709 266.573 190.059 268.253 190.759 269.7C191.505 271.147 192.485 272.267 193.699 273.06C194.912 273.853 196.312 274.25 197.899 274.25C199.439 274.25 200.815 273.853 202.029 273.06C203.289 272.22 204.269 271.077 204.969 269.63C205.669 268.183 206.019 266.527 206.019 264.66C206.019 262.747 205.669 261.067 204.969 259.62C204.269 258.173 203.289 257.053 202.029 256.26C200.815 255.467 199.439 255.07 197.899 255.07C196.312 255.07 194.912 255.467 193.699 256.26C192.485 257.053 191.505 258.173 190.759 259.62C190.059 261.067 189.709 262.747 189.709 264.66ZM258.543 283H247.343V262.35C247.343 259.923 246.877 258.173 245.943 257.1C245.057 255.98 243.867 255.42 242.373 255.42C241.347 255.42 240.297 255.7 239.223 256.26C238.15 256.82 237.17 257.59 236.283 258.57C235.443 259.55 234.79 260.67 234.323 261.93V283H223.123V246.25H233.203V252.41C234.137 250.963 235.303 249.727 236.703 248.7C238.103 247.673 239.713 246.903 241.533 246.39C243.353 245.83 245.337 245.55 247.483 245.55C249.863 245.55 251.777 245.993 253.223 246.88C254.717 247.72 255.837 248.84 256.583 250.24C257.377 251.64 257.89 253.157 258.123 254.79C258.403 256.377 258.543 257.94 258.543 259.48V283Z" fill="white" shape-rendering="crispEdges"/>
<path d="M52.96 283H51.96V284H52.96V283ZM52.96 253.39H53.96L52.0644 252.945L52.96 253.39ZM42.25 274.95V275.95H42.8698L43.1456 275.395L42.25 274.95ZM35.95 274.95L35.0544 275.395L35.3302 275.95H35.95V274.95ZM25.24 253.39L26.1356 252.945L24.24 253.39H25.24ZM25.24 283V284H26.24V283H25.24ZM13.76 283H12.76V284H13.76V283ZM13.76 233.3V232.3H12.76V233.3H13.76ZM26.22 233.3L27.1159 232.856L26.8403 232.3H26.22V233.3ZM39.1 259.27L38.2041 259.714L39.0976 261.516L39.9949 259.716L39.1 259.27ZM52.05 233.3V232.3H51.4312L51.1551 232.854L52.05 233.3ZM64.44 233.3H65.44V232.3H64.44V233.3ZM64.44 283V284H65.44V283H64.44ZM53.96 283V253.39H51.96V283H53.96ZM52.0644 252.945L41.3544 274.505L43.1456 275.395L53.8556 253.835L52.0644 252.945ZM42.25 273.95H35.95V275.95H42.25V273.95ZM36.8456 274.505L26.1356 252.945L24.3444 253.835L35.0544 275.395L36.8456 274.505ZM24.24 253.39V283H26.24V253.39H24.24ZM25.24 282H13.76V284H25.24V282ZM14.76 283V233.3H12.76V283H14.76ZM13.76 234.3H26.22V232.3H13.76V234.3ZM25.3241 233.744L38.2041 259.714L39.9959 258.826L27.1159 232.856L25.3241 233.744ZM39.9949 259.716L52.9449 233.746L51.1551 232.854L38.2051 258.824L39.9949 259.716ZM52.05 234.3H64.44V232.3H52.05V234.3ZM63.44 233.3V283H65.44V233.3H63.44ZM64.44 282H52.96V284H64.44V282ZM73.0746 283H72.0746V284H73.0746V283ZM73.0746 246.25V245.25H72.0746V246.25H73.0746ZM84.2746 246.25H85.2746V245.25H84.2746V246.25ZM84.2746 283V284H85.2746V283H84.2746ZM73.0746 242.05H72.0746V243.05H73.0746V242.05ZM73.0746 231.9V230.9H72.0746V231.9H73.0746ZM84.2746 231.9H85.2746V230.9H84.2746V231.9ZM84.2746 242.05V243.05H85.2746V242.05H84.2746ZM74.0746 283V246.25H72.0746V283H74.0746ZM73.0746 247.25H84.2746V245.25H73.0746V247.25ZM83.2746 246.25V283H85.2746V246.25H83.2746ZM84.2746 282H73.0746V284H84.2746V282ZM74.0746 242.05V231.9H72.0746V242.05H74.0746ZM73.0746 232.9H84.2746V230.9H73.0746V232.9ZM83.2746 231.9V242.05H85.2746V231.9H83.2746ZM84.2746 241.05H73.0746V243.05H84.2746V241.05ZM96.8418 282.16L96.5167 283.106L96.8418 282.16ZM89.2818 277.61L88.4036 277.132L88.0417 277.796L88.5829 278.325L89.2818 277.61ZM93.1318 270.54L93.721 269.732L92.7992 269.06L92.2536 270.062L93.1318 270.54ZM99.6418 274.25L99.2704 275.179L99.2774 275.181L99.6418 274.25ZM109.022 274.81L109.529 275.672L109.022 274.81ZM109.512 271.03L108.843 271.773L108.864 271.793L108.887 271.811L109.512 271.03ZM107.342 269.91L107.011 270.854L107.018 270.856L107.026 270.859L107.342 269.91ZM103.842 268.86L103.526 269.809L103.555 269.818L103.584 269.826L103.842 268.86ZM96.8418 266.13L96.4127 267.033L96.8418 266.13ZM92.6418 262.91L91.8281 263.491L91.8331 263.498L91.8382 263.505L92.6418 262.91ZM93.0618 251.43L92.2329 250.871L92.2297 250.875L93.0618 251.43ZM98.3818 247.09L98.7914 248.002V248.002L98.3818 247.09ZM113.922 246.74L113.606 247.689L113.611 247.69L113.922 246.74ZM120.712 250.73L121.562 251.257L122.005 250.542L121.376 249.983L120.712 250.73ZM116.372 257.73L115.804 258.554L116.669 259.149L117.222 258.257L116.372 257.73ZM110.772 254.58L110.4 255.508L110.772 254.58ZM103.842 253.88L104.117 254.842L103.842 253.88ZM102.232 254.86L101.488 254.191L101.484 254.196L102.232 254.86ZM102.232 258.22L101.484 258.884L101.504 258.906L101.525 258.927L102.232 258.22ZM104.122 259.34L103.759 260.272L103.79 260.284L103.821 260.294L104.122 259.34ZM107.412 260.39L107.106 261.342L107.118 261.346L107.131 261.35L107.412 260.39ZM114.972 263.12L114.55 264.027L114.559 264.031L114.568 264.035L114.972 263.12ZM119.452 266.48L118.642 267.067L118.653 267.082L118.665 267.098L119.452 266.48ZM116.932 280.55L117.551 281.335L117.553 281.333L116.932 280.55ZM106.012 282.7C102.997 282.7 100.05 282.205 97.1669 281.214L96.5167 283.106C99.6069 284.168 102.773 284.7 106.012 284.7V282.7ZM97.1669 281.214C94.3062 280.231 91.9178 278.788 89.9807 276.895L88.5829 278.325C90.7524 280.445 93.4041 282.036 96.5167 283.106L97.1669 281.214ZM90.16 278.088L94.01 271.018L92.2536 270.062L88.4036 277.132L90.16 278.088ZM92.5426 271.348C94.8354 273.02 97.078 274.302 99.2704 275.178L100.013 273.322C98.0056 272.518 95.9082 271.327 93.721 269.732L92.5426 271.348ZM99.2774 275.181C101.514 276.056 103.645 276.51 105.662 276.51V274.51C103.945 274.51 102.063 274.124 100.006 273.319L99.2774 275.181ZM105.662 276.51C107.194 276.51 108.518 276.267 109.529 275.672L108.515 273.948C107.939 274.287 107.023 274.51 105.662 274.51V276.51ZM109.529 275.672C110.651 275.012 111.212 273.946 111.212 272.64H109.212C109.212 273.294 108.979 273.675 108.515 273.948L109.529 275.672ZM111.212 272.64C111.212 271.694 110.882 270.846 110.136 270.249L108.887 271.811C109.075 271.961 109.212 272.186 109.212 272.64H111.212ZM110.181 270.287C109.567 269.734 108.695 269.307 107.658 268.961L107.026 270.859C107.949 271.166 108.524 271.486 108.843 271.773L110.181 270.287ZM107.672 268.966C106.707 268.628 105.514 268.271 104.099 267.894L103.584 269.826C104.97 270.196 106.11 270.538 107.011 270.854L107.672 268.966ZM104.158 267.911C101.382 266.986 99.0891 266.09 97.2709 265.227L96.4127 267.033C98.3279 267.943 100.702 268.867 103.526 269.809L104.158 267.911ZM97.2709 265.227C95.507 264.389 94.2549 263.408 93.4454 262.315L91.8382 263.505C92.8953 264.932 94.4433 266.098 96.4127 267.033L97.2709 265.227ZM93.4555 262.329C92.6733 261.234 92.2418 259.773 92.2418 257.87H90.2418C90.2418 260.074 90.7437 261.973 91.8281 263.491L93.4555 262.329ZM92.2418 257.87C92.2418 255.567 92.8039 253.62 93.8938 251.985L92.2297 250.875C90.893 252.88 90.2418 255.226 90.2418 257.87H92.2418ZM93.8906 251.989C95.035 250.294 96.6548 248.962 98.7914 248.002L97.9722 246.178C95.5354 247.272 93.6086 248.832 92.2329 250.871L93.8906 251.989ZM98.7914 248.002C100.92 247.047 103.503 246.55 106.572 246.55V244.55C103.294 244.55 100.417 245.08 97.9722 246.178L98.7914 248.002ZM106.572 246.55C108.985 246.55 111.328 246.929 113.606 247.689L114.238 245.791C111.756 244.964 109.199 244.55 106.572 244.55V246.55ZM113.611 247.69C115.895 248.437 118.04 249.693 120.047 251.477L121.376 249.983C119.184 248.034 116.802 246.63 114.233 245.79L113.611 247.69ZM119.862 250.203L115.522 257.203L117.222 258.257L121.562 251.257L119.862 250.203ZM116.939 256.906C114.803 255.435 112.869 254.342 111.143 253.652L110.4 255.508C111.942 256.125 113.741 257.132 115.804 258.554L116.939 256.906ZM111.143 253.652C109.408 252.958 107.696 252.6 106.012 252.6V254.6C107.408 254.6 108.869 254.896 110.4 255.508L111.143 253.652ZM106.012 252.6C105.141 252.6 104.323 252.702 103.567 252.918L104.117 254.842C104.667 254.684 105.296 254.6 106.012 254.6V252.6ZM103.567 252.918C102.749 253.152 102.044 253.573 101.489 254.191L102.975 255.529C103.259 255.213 103.628 254.981 104.117 254.842L103.567 252.918ZM101.484 254.196C100.911 254.841 100.672 255.658 100.672 256.54H102.672C102.672 256.022 102.806 255.719 102.979 255.524L101.484 254.196ZM100.672 256.54C100.672 257.422 100.911 258.239 101.484 258.884L102.979 257.556C102.806 257.361 102.672 257.058 102.672 256.54H100.672ZM101.525 258.927C102.08 259.482 102.851 259.919 103.759 260.272L104.484 258.408C103.713 258.108 103.224 257.798 102.939 257.513L101.525 258.927ZM103.821 260.294C104.705 260.573 105.8 260.922 107.106 261.342L107.718 259.438C106.41 259.018 105.312 258.667 104.423 258.386L103.821 260.294ZM107.131 261.35C110.135 262.228 112.604 263.121 114.55 264.027L115.394 262.213C113.326 261.252 110.755 260.326 107.692 259.43L107.131 261.35ZM114.568 264.035C116.462 264.872 117.793 265.895 118.642 267.067L120.262 265.893C119.15 264.359 117.495 263.142 115.376 262.205L114.568 264.035ZM118.665 267.098C119.515 268.179 119.992 269.689 119.992 271.73H121.992C121.992 269.384 121.442 267.394 120.238 265.862L118.665 267.098ZM119.992 271.73C119.992 275.186 118.757 277.826 116.31 279.767L117.553 281.333C120.52 278.98 121.992 275.74 121.992 271.73H119.992ZM116.312 279.765C113.883 281.683 110.488 282.7 106.012 282.7V284.7C110.776 284.7 114.66 283.617 117.551 281.335L116.312 279.765ZM131.637 282.16L131.312 283.106L131.637 282.16ZM124.077 277.61L123.198 277.132L122.837 277.796L123.378 278.325L124.077 277.61ZM127.927 270.54L128.516 269.732L127.594 269.06L127.048 270.062L127.927 270.54ZM134.437 274.25L134.065 275.179L134.072 275.181L134.437 274.25ZM143.817 274.81L144.324 275.672L143.817 274.81ZM144.307 271.03L143.638 271.773L143.659 271.793L143.682 271.811L144.307 271.03ZM142.137 269.91L141.806 270.854L141.813 270.856L141.82 270.859L142.137 269.91ZM138.637 268.86L138.32 269.809L138.35 269.818L138.379 269.826L138.637 268.86ZM131.637 266.13L131.208 267.033L131.637 266.13ZM127.437 262.91L126.623 263.491L126.628 263.498L126.633 263.505L127.437 262.91ZM127.857 251.43L127.028 250.871L127.025 250.875L127.857 251.43ZM133.177 247.09L133.586 248.002V248.002L133.177 247.09ZM148.717 246.74L148.4 247.689L148.406 247.69L148.717 246.74ZM155.507 250.73L156.357 251.257L156.8 250.542L156.171 249.983L155.507 250.73ZM151.167 257.73L150.599 258.554L151.464 259.149L152.017 258.257L151.167 257.73ZM145.567 254.58L145.195 255.508L145.567 254.58ZM138.637 253.88L138.911 254.842L138.637 253.88ZM137.027 254.86L136.283 254.191L136.279 254.196L137.027 254.86ZM137.027 258.22L136.279 258.884L136.299 258.906L136.32 258.927L137.027 258.22ZM138.917 259.34L138.554 260.272L138.585 260.284L138.616 260.294L138.917 259.34ZM142.207 260.39L141.901 261.342L141.913 261.346L141.926 261.35L142.207 260.39ZM149.767 263.12L149.345 264.027L149.354 264.031L149.363 264.035L149.767 263.12ZM154.247 266.48L153.437 267.067L153.448 267.082L153.46 267.098L154.247 266.48ZM151.727 280.55L152.346 281.335L152.348 281.333L151.727 280.55ZM140.807 282.7C137.792 282.7 134.845 282.205 131.962 281.214L131.312 283.106C134.402 284.168 137.568 284.7 140.807 284.7V282.7ZM131.962 281.214C129.101 280.231 126.713 278.788 124.776 276.895L123.378 278.325C125.547 280.445 128.199 282.036 131.312 283.106L131.962 281.214ZM124.955 278.088L128.805 271.018L127.048 270.062L123.198 277.132L124.955 278.088ZM127.338 271.348C129.63 273.02 131.873 274.302 134.065 275.178L134.808 273.322C132.8 272.518 130.703 271.327 128.516 269.732L127.338 271.348ZM134.072 275.181C136.309 276.056 138.44 276.51 140.457 276.51V274.51C138.74 274.51 136.858 274.124 134.801 273.319L134.072 275.181ZM140.457 276.51C141.989 276.51 143.313 276.267 144.324 275.672L143.31 273.948C142.734 274.287 141.818 274.51 140.457 274.51V276.51ZM144.324 275.672C145.446 275.012 146.007 273.946 146.007 272.64H144.007C144.007 273.294 143.774 273.675 143.31 273.948L144.324 275.672ZM146.007 272.64C146.007 271.694 145.677 270.846 144.931 270.249L143.682 271.811C143.869 271.961 144.007 272.186 144.007 272.64H146.007ZM144.976 270.287C144.362 269.734 143.49 269.307 142.453 268.961L141.82 270.859C142.744 271.166 143.318 271.486 143.638 271.773L144.976 270.287ZM142.467 268.966C141.502 268.628 140.309 268.271 138.894 267.894L138.379 269.826C139.765 270.196 140.905 270.538 141.806 270.854L142.467 268.966ZM138.953 267.911C136.177 266.986 133.884 266.09 132.066 265.227L131.208 267.033C133.123 267.943 135.497 268.867 138.32 269.809L138.953 267.911ZM132.066 265.227C130.302 264.389 129.05 263.408 128.24 262.315L126.633 263.505C127.69 264.932 129.238 266.098 131.208 267.033L132.066 265.227ZM128.25 262.329C127.468 261.234 127.037 259.773 127.037 257.87H125.037C125.037 260.074 125.539 261.973 126.623 263.491L128.25 262.329ZM127.037 257.87C127.037 255.567 127.599 253.62 128.689 251.985L127.025 250.875C125.688 252.88 125.037 255.226 125.037 257.87H127.037ZM128.686 251.989C129.83 250.294 131.45 248.962 133.586 248.002L132.767 246.178C130.33 247.272 128.404 248.832 127.028 250.871L128.686 251.989ZM133.586 248.002C135.715 247.047 138.298 246.55 141.367 246.55V244.55C138.088 244.55 135.212 245.08 132.767 246.178L133.586 248.002ZM141.367 246.55C143.78 246.55 146.123 246.929 148.4 247.689L149.033 245.791C146.551 244.964 143.994 244.55 141.367 244.55V246.55ZM148.406 247.69C150.689 248.437 152.835 249.693 154.842 251.477L156.171 249.983C153.979 248.034 151.597 246.63 149.027 245.79L148.406 247.69ZM154.657 250.203L150.317 257.203L152.017 258.257L156.357 251.257L154.657 250.203ZM151.734 256.906C149.598 255.435 147.664 254.342 145.938 253.652L145.195 255.508C146.736 256.125 148.536 257.132 150.599 258.554L151.734 256.906ZM145.938 253.652C144.203 252.958 142.491 252.6 140.807 252.6V254.6C142.203 254.6 143.663 254.896 145.195 255.508L145.938 253.652ZM140.807 252.6C139.936 252.6 139.118 252.702 138.362 252.918L138.911 254.842C139.462 254.684 140.091 254.6 140.807 254.6V252.6ZM138.362 252.918C137.544 253.152 136.839 253.573 136.283 254.191L137.77 255.529C138.054 255.213 138.423 254.981 138.911 254.842L138.362 252.918ZM136.279 254.196C135.706 254.841 135.467 255.658 135.467 256.54H137.467C137.467 256.022 137.601 255.719 137.774 255.524L136.279 254.196ZM135.467 256.54C135.467 257.422 135.706 258.239 136.279 258.884L137.774 257.556C137.601 257.361 137.467 257.058 137.467 256.54H135.467ZM136.32 258.927C136.875 259.482 137.645 259.919 138.554 260.272L139.279 258.408C138.508 258.108 138.018 257.798 137.734 257.513L136.32 258.927ZM138.616 260.294C139.5 260.573 140.595 260.922 141.901 261.342L142.513 259.438C141.205 259.018 140.107 258.667 139.218 258.386L138.616 260.294ZM141.926 261.35C144.93 262.228 147.399 263.121 149.345 264.027L150.188 262.213C148.121 261.252 145.55 260.326 142.487 259.43L141.926 261.35ZM149.363 264.035C151.257 264.872 152.588 265.895 153.437 267.067L155.057 265.893C153.945 264.359 152.29 263.142 150.171 262.205L149.363 264.035ZM153.46 267.098C154.31 268.179 154.787 269.689 154.787 271.73H156.787C156.787 269.384 156.237 267.394 155.033 265.862L153.46 267.098ZM154.787 271.73C154.787 275.186 153.551 277.826 151.105 279.767L152.348 281.333C155.315 278.98 156.787 275.74 156.787 271.73H154.787ZM151.107 279.765C148.678 281.683 145.283 282.7 140.807 282.7V284.7C145.571 284.7 149.455 283.617 152.346 281.335L151.107 279.765ZM161.532 283H160.532V284H161.532V283ZM161.532 246.25V245.25H160.532V246.25H161.532ZM172.732 246.25H173.732V245.25H172.732V246.25ZM172.732 283V284H173.732V283H172.732ZM161.532 242.05H160.532V243.05H161.532V242.05ZM161.532 231.9V230.9H160.532V231.9H161.532ZM172.732 231.9H173.732V230.9H172.732V231.9ZM172.732 242.05V243.05H173.732V242.05H172.732ZM162.532 283V246.25H160.532V283H162.532ZM161.532 247.25H172.732V245.25H161.532V247.25ZM171.732 246.25V283H173.732V246.25H171.732ZM172.732 282H161.532V284H172.732V282ZM162.532 242.05V231.9H160.532V242.05H162.532ZM161.532 232.9H172.732V230.9H161.532V232.9ZM171.732 231.9V242.05H173.732V231.9H171.732ZM172.732 241.05H161.532V243.05H172.732V241.05ZM189.499 282.16L189.109 283.081L189.115 283.084L189.499 282.16ZM183.339 277.96L182.613 278.648L183.339 277.96ZM179.489 271.87L178.55 272.215L178.553 272.223L178.556 272.232L179.489 271.87ZM179.489 257.38L178.556 257.018L178.553 257.027L178.55 257.035L179.489 257.38ZM183.339 251.29L184.065 251.978L183.339 251.29ZM189.499 247.09L189.115 246.166L189.109 246.169L189.499 247.09ZM206.229 247.09L205.839 248.011L206.229 247.09ZM212.389 251.29L211.663 251.978L212.389 251.29ZM216.239 257.38L217.171 257.018L216.239 257.38ZM216.239 271.87L215.306 271.508L216.239 271.87ZM212.389 277.96L211.663 277.272L212.389 277.96ZM206.229 282.16L206.618 283.081L206.229 282.16ZM190.759 269.7L189.859 270.136L189.864 270.147L189.87 270.159L190.759 269.7ZM193.699 273.06L193.152 273.897L193.699 273.06ZM202.029 273.06L202.576 273.897L202.584 273.892L202.029 273.06ZM204.969 269.63L204.069 269.194L204.969 269.63ZM204.969 259.62L204.069 260.056L204.969 259.62ZM202.029 256.26L201.482 257.097L201.489 257.102L201.496 257.106L202.029 256.26ZM193.699 256.26L193.152 255.423L193.699 256.26ZM190.759 259.62L189.87 259.161L189.864 259.173L189.859 259.184L190.759 259.62ZM197.899 282.7C194.882 282.7 192.215 282.205 189.882 281.236L189.115 283.084C191.729 284.168 194.662 284.7 197.899 284.7V282.7ZM189.888 281.239C187.579 280.262 185.643 278.938 184.065 277.272L182.613 278.648C184.395 280.529 186.566 282.005 189.109 283.081L189.888 281.239ZM184.065 277.272C182.474 275.594 181.261 273.675 180.421 271.508L178.556 272.232C179.49 274.639 180.843 276.78 182.613 278.648L184.065 277.272ZM180.428 271.525C179.629 269.353 179.229 267.066 179.229 264.66H177.229C177.229 267.294 177.668 269.814 178.55 272.215L180.428 271.525ZM179.229 264.66C179.229 262.205 179.63 259.895 180.428 257.725L178.55 257.035C177.667 259.438 177.229 261.982 177.229 264.66H179.229ZM180.421 257.742C181.261 255.575 182.474 253.656 184.065 251.978L182.613 250.602C180.843 252.47 179.49 254.611 178.556 257.018L180.421 257.742ZM184.065 251.978C185.643 250.312 187.579 248.988 189.888 248.011L189.109 246.169C186.566 247.245 184.395 248.721 182.613 250.602L184.065 251.978ZM189.882 248.014C192.215 247.045 194.882 246.55 197.899 246.55V244.55C194.662 244.55 191.729 245.082 189.115 246.166L189.882 248.014ZM197.899 246.55C200.916 246.55 203.557 247.045 205.839 248.011L206.618 246.169C204.048 245.081 201.135 244.55 197.899 244.55V246.55ZM205.839 248.011C208.149 248.988 210.085 250.312 211.663 251.978L213.115 250.602C211.333 248.721 209.162 247.245 206.618 246.169L205.839 248.011ZM211.663 251.978C213.253 253.656 214.467 255.575 215.306 257.742L217.171 257.018C216.238 254.611 214.884 252.47 213.115 250.602L211.663 251.978ZM215.306 257.742C216.146 259.908 216.569 262.211 216.569 264.66H218.569C218.569 261.976 218.105 259.426 217.171 257.018L215.306 257.742ZM216.569 264.66C216.569 267.06 216.147 269.34 215.306 271.508L217.171 272.232C218.104 269.826 218.569 267.3 218.569 264.66H216.569ZM215.306 271.508C214.467 273.675 213.253 275.594 211.663 277.272L213.115 278.648C214.884 276.78 216.238 274.639 217.171 272.232L215.306 271.508ZM211.663 277.272C210.085 278.938 208.149 280.262 205.839 281.239L206.618 283.081C209.162 282.005 211.333 280.529 213.115 278.648L211.663 277.272ZM205.839 281.239C203.557 282.205 200.916 282.7 197.899 282.7V284.7C201.135 284.7 204.048 284.169 206.618 283.081L205.839 281.239ZM188.709 264.66C188.709 266.696 189.082 268.53 189.859 270.136L191.659 269.264C191.036 267.977 190.709 266.451 190.709 264.66H188.709ZM189.87 270.159C190.686 271.74 191.777 272.998 193.152 273.897L194.246 272.223C193.194 271.535 192.325 270.554 191.647 269.241L189.87 270.159ZM193.152 273.897C194.543 274.807 196.137 275.25 197.899 275.25V273.25C196.487 273.25 195.281 272.9 194.246 272.223L193.152 273.897ZM197.899 275.25C199.62 275.25 201.19 274.803 202.576 273.897L201.482 272.223C200.441 272.903 199.257 273.25 197.899 273.25V275.25ZM202.584 273.892C204.001 272.947 205.096 271.663 205.869 270.066L204.069 269.194C203.441 270.491 202.576 271.493 201.474 272.228L202.584 273.892ZM205.869 270.066C206.645 268.463 207.019 266.653 207.019 264.66H205.019C205.019 266.4 204.693 267.904 204.069 269.194L205.869 270.066ZM207.019 264.66C207.019 262.624 206.646 260.79 205.869 259.184L204.069 260.056C204.692 261.343 205.019 262.869 205.019 264.66H207.019ZM205.869 259.184C205.094 257.583 203.993 256.315 202.562 255.414L201.496 257.106C202.585 257.792 203.444 258.764 204.069 260.056L205.869 259.184ZM202.576 255.423C201.19 254.517 199.62 254.07 197.899 254.07V256.07C199.257 256.07 200.441 256.417 201.482 257.097L202.576 255.423ZM197.899 254.07C196.137 254.07 194.543 254.513 193.152 255.423L194.246 257.097C195.281 256.42 196.487 256.07 197.899 256.07V254.07ZM193.152 255.423C191.777 256.322 190.686 257.58 189.87 259.161L191.647 260.079C192.325 258.766 193.194 257.785 194.246 257.097L193.152 255.423ZM189.859 259.184C189.082 260.79 188.709 262.624 188.709 264.66H190.709C190.709 262.869 191.036 261.343 191.659 260.056L189.859 259.184ZM258.543 283V284H259.543V283H258.543ZM247.343 283H246.343V284H247.343V283ZM245.943 257.1L245.159 257.721L245.174 257.739L245.189 257.756L245.943 257.1ZM239.223 256.26L238.761 255.373L239.223 256.26ZM236.283 258.57L235.542 257.899L235.533 257.909L235.524 257.919L236.283 258.57ZM234.323 261.93L233.386 261.583L233.323 261.751V261.93H234.323ZM234.323 283V284H235.323V283H234.323ZM223.123 283H222.123V284H223.123V283ZM223.123 246.25V245.25H222.123V246.25H223.123ZM233.203 246.25H234.203V245.25H233.203V246.25ZM233.203 252.41H232.203V255.805L234.044 252.952L233.203 252.41ZM236.703 248.7L237.295 249.506L236.703 248.7ZM241.533 246.39L241.805 247.352L241.816 247.349L241.828 247.346L241.533 246.39ZM253.223 246.88L252.701 247.733L252.717 247.742L252.733 247.752L253.223 246.88ZM256.583 250.24L255.701 250.711L255.707 250.722L255.713 250.733L256.583 250.24ZM258.123 254.79L257.133 254.931L257.136 254.948L257.139 254.964L258.123 254.79ZM258.543 282H247.343V284H258.543V282ZM248.343 283V262.35H246.343V283H248.343ZM248.343 262.35C248.343 259.838 247.869 257.79 246.698 256.444L245.189 257.756C245.885 258.557 246.343 260.008 246.343 262.35H248.343ZM246.727 256.479C245.641 255.107 244.156 254.42 242.373 254.42V256.42C243.577 256.42 244.472 256.853 245.159 257.721L246.727 256.479ZM242.373 254.42C241.159 254.42 239.951 254.752 238.761 255.373L239.686 257.147C240.642 256.648 241.534 256.42 242.373 256.42V254.42ZM238.761 255.373C237.573 255.993 236.501 256.839 235.542 257.899L237.025 259.241C237.839 258.341 238.727 257.647 239.686 257.147L238.761 255.373ZM235.524 257.919C234.604 258.993 233.892 260.216 233.386 261.583L235.261 262.277C235.688 261.124 236.283 260.107 237.043 259.221L235.524 257.919ZM233.323 261.93V283H235.323V261.93H233.323ZM234.323 282H223.123V284H234.323V282ZM224.123 283V246.25H222.123V283H224.123ZM223.123 247.25H233.203V245.25H223.123V247.25ZM232.203 246.25V252.41H234.203V246.25H232.203ZM234.044 252.952C234.91 251.609 235.992 250.462 237.295 249.506L236.112 247.894C234.615 248.992 233.363 250.318 232.363 251.868L234.044 252.952ZM237.295 249.506C238.59 248.557 240.09 247.836 241.805 247.352L241.262 245.428C239.337 245.97 237.617 246.79 236.112 247.894L237.295 249.506ZM241.828 247.346C243.541 246.819 245.424 246.55 247.483 246.55V244.55C245.25 244.55 243.166 244.841 241.239 245.434L241.828 247.346ZM247.483 246.55C249.75 246.55 251.463 246.974 252.701 247.733L253.746 246.027C252.091 245.013 249.977 244.55 247.483 244.55V246.55ZM252.733 247.752C254.074 248.506 255.051 249.492 255.701 250.711L257.466 249.769C256.622 248.188 255.359 246.934 253.714 246.008L252.733 247.752ZM255.713 250.733C256.444 252.022 256.917 253.419 257.133 254.931L259.113 254.649C258.863 252.895 258.31 251.258 257.453 249.747L255.713 250.733ZM257.139 254.964C257.409 256.496 257.543 258.001 257.543 259.48H259.543C259.543 257.879 259.398 256.258 259.108 254.616L257.139 254.964ZM257.543 259.48V283H259.543V259.48H257.543Z" fill="black" fill-opacity="0.3"/>
</g>
<defs>
<filter id="filter0_d_934_1770" x="7.16992" y="170.95" width="128.122" height="58.75" filterUnits="userSpaceOnUse" color-interpolation-filters="sRGB">
<feFlood flood-opacity="0" result="BackgroundImageFix"/>
<feColorMatrix in="SourceAlpha" type="matrix" values="0 0 0 0 0 0 0 0 0 0 0 0 0 0 0 0 0 0 127 0" result="hardAlpha"/>
<feOffset dy="4"/>
<feGaussianBlur stdDeviation="2"/>
<feComposite in2="hardAlpha" operator="out"/>
<feColorMatrix type="matrix" values="0 0 0 0 0 0 0 0 0 0 0 0 0 0 0 0 0 0 0.25 0"/>
<feBlend mode="normal" in2="BackgroundImageFix" result="effect1_dropShadow_934_1770"/>
<feBlend mode="normal" in="SourceGraphic" in2="effect1_dropShadow_934_1770" result="shape"/>
</filter>
<filter id="filter1_d_934_1770" x="9.75977" y="231.9" width="252.784" height="59.7998" filterUnits="userSpaceOnUse" color-interpolation-filters="sRGB">
<feFlood flood-opacity="0" result="BackgroundImageFix"/>
<feColorMatrix in="SourceAlpha" type="matrix" values="0 0 0 0 0 0 0 0 0 0 0 0 0 0 0 0 0 0 127 0" result="hardAlpha"/>
<feOffset dy="4"/>
<feGaussianBlur stdDeviation="2"/>
<feComposite in2="hardAlpha" operator="out"/>
<feColorMatrix type="matrix" values="0 0 0 0 0 0 0 0 0 0 0 0 0 0 0 0 0 0 0.25 0"/>
<feBlend mode="normal" in2="BackgroundImageFix" result="effect1_dropShadow_934_1770"/>
<feBlend mode="normal" in="SourceGraphic" in2="effect1_dropShadow_934_1770" result="shape"/>
</filter>
<linearGradient id="paint0_linear_934_1770" x1="367.431" y1="10.8707" x2="-8.07541" y2="338.235" gradientUnits="userSpaceOnUse">
<stop offset="0.270407" stop-color="#2AB7CA"/>
<stop offset="0.66957" stop-color="#FFCD00"/>
</linearGradient>
</defs>
</svg>
