<svg width="281" height="250" viewBox="0 0 281 250" fill="none" xmlns="http://www.w3.org/2000/svg">
<g clip-path="url(#clip0_500_1424)">
<rect width="281" height="250" rx="6.77507" fill="white"/>
<path d="M75.4621 85.2429H85.4532V150H75.4621V143.339C71.7001 148.582 66.3036 151.203 59.2729 151.203C52.9205 151.203 47.4932 148.859 42.9911 144.172C38.4889 139.423 36.2379 133.657 36.2379 126.872C36.2379 120.027 38.4889 114.26 42.9911 109.573C47.4932 104.886 52.9205 102.542 59.2729 102.542C66.3036 102.542 71.7001 105.133 75.4621 110.313V85.2429ZM50.3919 137.511C53.1672 140.286 56.6517 141.674 60.8455 141.674C65.0393 141.674 68.5239 140.286 71.2992 137.511C74.0745 134.674 75.4621 131.128 75.4621 126.872C75.4621 122.617 74.0745 119.102 71.2992 116.326C68.5239 113.489 65.0393 112.071 60.8455 112.071C56.6517 112.071 53.1672 113.489 50.3919 116.326C47.6166 119.102 46.2289 122.617 46.2289 126.872C46.2289 131.128 47.6166 134.674 50.3919 137.511ZM106.535 94.9565C105.301 96.19 103.821 96.8067 102.094 96.8067C100.367 96.8067 98.8563 96.19 97.5612 94.9565C96.3277 93.6614 95.711 92.1504 95.711 90.4235C95.711 88.6966 96.3277 87.2165 97.5612 85.983C98.7947 84.6879 100.306 84.0403 102.094 84.0403C103.883 84.0403 105.394 84.6879 106.627 85.983C107.861 87.2165 108.477 88.6966 108.477 90.4235C108.477 92.1504 107.83 93.6614 106.535 94.9565ZM97.0986 150V103.745H107.09V150H97.0986ZM144.501 113.366H133.029V135.568C133.029 137.48 133.461 138.868 134.325 139.731C135.188 140.533 136.452 140.996 138.117 141.119C139.844 141.181 141.972 141.15 144.501 141.027V150C136.853 150.925 131.364 150.278 128.034 148.057C124.704 145.775 123.038 141.612 123.038 135.568V113.366H114.527V103.745H123.038V93.7539L133.029 90.7935V103.745H144.501V113.366Z" fill="black"/>
<path d="M218.946 116.511C218.946 118.053 219.779 119.287 221.444 120.212C223.171 121.075 225.237 121.846 227.642 122.525C230.109 123.141 232.576 123.881 235.043 124.745C237.51 125.608 239.576 127.088 241.241 129.185C242.968 131.22 243.831 133.811 243.831 136.956C243.831 141.397 242.105 144.881 238.651 147.41C235.259 149.938 230.972 151.203 225.792 151.203C221.228 151.203 217.312 150.247 214.043 148.335C210.774 146.423 208.4 143.771 206.92 140.379L215.523 135.383C217.127 139.824 220.55 142.044 225.792 142.044C231.034 142.044 233.655 140.317 233.655 136.864C233.655 135.383 232.792 134.181 231.065 133.256C229.4 132.331 227.334 131.56 224.867 130.943C222.462 130.265 220.025 129.494 217.558 128.63C215.092 127.767 212.995 126.348 211.268 124.375C209.603 122.339 208.77 119.78 208.77 116.696C208.77 112.441 210.374 109.018 213.581 106.428C216.849 103.837 220.889 102.542 225.699 102.542C229.523 102.542 232.915 103.406 235.875 105.133C238.897 106.798 241.21 109.141 242.814 112.163L234.395 116.881C232.792 113.366 229.893 111.608 225.699 111.608C223.788 111.608 222.184 112.04 220.889 112.903C219.594 113.705 218.946 114.908 218.946 116.511Z" fill="black"/>
<g filter="url(#filter0_d_500_1424)">
<path d="M149.201 144.265L153.49 98.3306C153.712 95.9536 155.707 94.1363 158.094 94.1363H160.146C161.567 94.1363 162.718 95.2882 162.718 96.7091C162.718 97.9359 161.941 99.3239 161.494 100.466C160.523 102.951 160.534 107.359 166.584 107.359C172.737 107.359 172.261 102.501 170.99 99.78C170.685 99.1284 170.451 98.4346 170.451 97.7154C170.451 95.7387 172.053 94.1363 174.03 94.1363H178.879C180.172 94.1363 181.22 95.1846 181.22 96.4778C181.22 97.7709 180.286 99.4032 179.988 100.662C179.379 103.23 180.107 107.553 185.363 107.359C190.887 107.155 190.538 102.69 189.434 100.056C189.162 99.4064 188.953 98.7223 188.953 98.0174C188.953 95.8739 190.69 94.1363 192.834 94.1363H193.889C196.419 94.1363 198.539 96.0491 198.799 98.5657L203.509 144.211C203.847 147.485 201.279 150.332 197.988 150.332H154.728C151.458 150.332 148.897 147.52 149.201 144.265Z" fill="#0079E9"/>
<path d="M166.308 104.88C163.921 104.709 163.745 102.987 164.17 101.526C164.493 100.413 164.928 99.2978 164.928 98.1387V86.6987C165.296 83.0258 167.855 75.6249 175.145 75.4045C181.959 75.1985 185.283 80.2709 186.29 83.3338C186.422 83.7355 186.471 84.1575 186.478 84.5802L186.722 98.663C186.736 99.4912 186.967 100.296 187.221 101.084C187.787 102.839 187.716 104.88 184.81 104.88C182.068 104.88 181.899 103.043 182.398 101.476C182.741 100.4 183.154 99.3186 183.151 98.1894C183.139 93.2543 183.073 85.5077 182.877 83.944C182.601 81.7403 179.564 79.2611 175.145 78.9856C172.12 78.797 169.958 81.5544 168.936 83.5621C168.629 84.1653 168.518 84.8419 168.518 85.5188V96.7623C168.518 98.8667 169.636 101.509 168.897 103.48C168.577 104.332 167.825 104.988 166.308 104.88Z" fill="#0079E9"/>
</g>
<g filter="url(#filter1_d_500_1424)">
<path d="M188.592 139.618C185.376 142.793 181.448 144.38 176.811 144.38C172.174 144.38 168.247 142.793 165.03 139.618C161.855 136.401 160.267 132.474 160.267 127.836C160.267 123.199 161.855 119.293 165.03 116.118C168.247 112.901 172.174 111.292 176.811 111.292C181.448 111.292 185.376 112.901 188.592 116.118C191.809 119.293 193.418 123.199 193.418 127.836C193.418 132.474 191.809 136.401 188.592 139.618ZM170.732 134.04C172.362 135.67 174.388 136.484 176.811 136.484C179.234 136.484 181.26 135.67 182.89 134.04C184.519 132.411 185.334 130.343 185.334 127.836C185.334 125.33 184.519 123.262 182.89 121.632C181.26 120.003 179.234 119.188 176.811 119.188C174.388 119.188 172.362 120.003 170.732 121.632C169.145 123.262 168.351 125.33 168.351 127.836C168.351 130.343 169.145 132.411 170.732 134.04Z" fill="white"/>
</g>
<rect x="-96" y="40.9453" width="248" height="82" transform="rotate(-28.1353 -96 40.9453)" fill="#0079E9"/>
<rect x="110" y="260.945" width="248" height="82" transform="rotate(-28.1353 110 260.945)" fill="#0079E9"/>
</g>
<defs>
<filter id="filter0_d_500_1424" x="145.475" y="75.3984" width="61.7641" height="82.3344" filterUnits="userSpaceOnUse" color-interpolation-filters="sRGB">
<feFlood flood-opacity="0" result="BackgroundImageFix"/>
<feColorMatrix in="SourceAlpha" type="matrix" values="0 0 0 0 0 0 0 0 0 0 0 0 0 0 0 0 0 0 127 0" result="hardAlpha"/>
<feOffset dy="3.7004"/>
<feGaussianBlur stdDeviation="1.8502"/>
<feComposite in2="hardAlpha" operator="out"/>
<feColorMatrix type="matrix" values="0 0 0 0 0 0 0 0 0 0 0 0 0 0 0 0 0 0 0.25 0"/>
<feBlend mode="normal" in2="BackgroundImageFix" result="effect1_dropShadow_500_1424"/>
<feBlend mode="normal" in="SourceGraphic" in2="effect1_dropShadow_500_1424" result="shape"/>
</filter>
<filter id="filter1_d_500_1424" x="156.567" y="111.292" width="40.5512" height="40.4887" filterUnits="userSpaceOnUse" color-interpolation-filters="sRGB">
<feFlood flood-opacity="0" result="BackgroundImageFix"/>
<feColorMatrix in="SourceAlpha" type="matrix" values="0 0 0 0 0 0 0 0 0 0 0 0 0 0 0 0 0 0 127 0" result="hardAlpha"/>
<feOffset dy="3.7004"/>
<feGaussianBlur stdDeviation="1.8502"/>
<feComposite in2="hardAlpha" operator="out"/>
<feColorMatrix type="matrix" values="0 0 0 0 0 0 0 0 0 0 0 0 0 0 0 0 0 0 0.25 0"/>
<feBlend mode="normal" in2="BackgroundImageFix" result="effect1_dropShadow_500_1424"/>
<feBlend mode="normal" in="SourceGraphic" in2="effect1_dropShadow_500_1424" result="shape"/>
</filter>
<clipPath id="clip0_500_1424">
<rect width="281" height="250" rx="6.77507" fill="white"/>
</clipPath>
</defs>
</svg>
