<svg width="281" height="250" viewBox="0 0 281 250" fill="none" xmlns="http://www.w3.org/2000/svg">
<g clip-path="url(#clip0_696_1671)">
<rect width="281" height="250" rx="6.77507" fill="white"/>
<path d="M270.524 -35C270.524 -35 256.53 -16.9816 256.057 -16.3684C255.584 -15.7553 254.937 -14.9062 254.249 -13.9888L270.524 24V-35Z" fill="#92C13D"/>
<path d="M250.632 -8.86403C248.975 -5.69038 248.279 -3.63985 248.049 -0.0657883C247.996 0.756145 247.985 1.23437 248.02 2.04307L270.524 24L254.249 -13.9888L250.632 -8.86403Z" fill="#3AA94A"/>
<path d="M249.599 9.76754C250.84 12.8935 251.96 14.5521 254.249 17.0132C256.258 19.1725 257.58 20.3032 260.191 21.6711C263.163 23.2279 267.425 24 268.458 24H270.524L248.02 2.04307C248.144 4.91341 248.463 6.90621 249.599 9.76754Z" fill="#088E45"/>
<path d="M280.341 -22.0614L275.175 -29.0482C273.387 -31.3948 270.524 -35 270.524 -35V24L286.284 -14.7047C284.246 -17.1511 280.341 -22.0614 280.341 -22.0614Z" fill="#209731"/>
<path d="M289.642 -10.9342C288.529 -12.5629 287.773 -13.4127 286.284 -14.7047L270.524 24L292.991 2.04307C292.849 -1.80168 292.592 -6.61367 289.642 -10.9342Z" fill="#36A94C"/>
<path d="M270.524 24C272.936 23.655 276.816 23.4336 280.341 21.6711C284.811 19.4361 287.059 17.1563 289.642 12.8728C291.835 9.23447 293 2.52193 293 2.52193C293 2.37059 292.997 2.21068 292.991 2.04307L270.524 24Z" fill="#029334"/>
<g opacity="0.2">
<path d="M283.557 46C283.557 46 250.904 87.8394 249.801 89.2632C248.697 90.6869 247.187 92.6584 245.582 94.7887L283.557 183V46Z" fill="#92C13D"/>
<path d="M237.142 106.689C233.276 114.058 231.65 118.819 231.114 127.118C230.991 129.027 230.966 130.137 231.047 132.015L283.557 183L245.582 94.7887L237.142 106.689Z" fill="#3AA94A"/>
<path d="M234.731 149.952C237.626 157.21 240.24 161.062 245.582 166.776C250.269 171.79 253.354 174.416 259.446 177.592C266.381 181.207 276.325 183 278.736 183H283.557L231.047 132.015C231.336 138.68 232.081 143.308 234.731 149.952Z" fill="#088E45"/>
<path d="M306.463 76.0439L294.407 59.8202C290.237 54.3714 283.557 46 283.557 46V183L320.328 93.1264C315.574 87.4458 306.463 76.0439 306.463 76.0439Z" fill="#209731"/>
<path d="M328.164 101.882C325.569 98.0997 323.803 96.1263 320.328 93.1264L283.557 183L335.978 132.015C335.649 123.088 335.048 111.914 328.164 101.882Z" fill="#36A94C"/>
<path d="M283.557 183C289.183 182.199 298.238 181.685 306.463 177.592C316.893 172.402 322.137 167.109 328.164 157.162C333.282 148.714 336 133.127 336 133.127C336 132.776 335.993 132.404 335.978 132.015L283.557 183Z" fill="#029334"/>
</g>
<g opacity="0.2">
<path d="M14.543 173C14.543 173 -10.0243 204.456 -10.8547 205.526C-11.685 206.597 -12.8216 208.079 -14.0287 209.681L14.543 276V173Z" fill="#92C13D"/>
<path d="M-20.3788 218.627C-23.2877 224.168 -24.5108 227.747 -24.9141 233.987C-25.0068 235.422 -25.0258 236.257 -24.9646 237.668L14.543 276L-14.0287 209.681L-20.3788 218.627Z" fill="#3AA94A"/>
<path d="M-22.1929 251.154C-20.0148 256.611 -18.0479 259.506 -14.0287 263.803C-10.5022 267.572 -8.18133 269.546 -3.59752 271.934C1.61963 274.652 9.1013 276 10.9154 276H14.543L-24.9646 237.668C-24.7475 242.679 -24.1866 246.158 -22.1929 251.154Z" fill="#088E45"/>
<path d="M31.7771 195.588L22.7065 183.39C19.5689 179.294 14.543 173 14.543 173V276L42.2089 208.431C38.6322 204.16 31.7771 195.588 31.7771 195.588Z" fill="#209731"/>
<path d="M48.1041 215.013C46.1517 212.17 44.8229 210.686 42.2089 208.431L14.543 276L53.9837 237.668C53.7356 230.956 53.2835 222.556 48.1041 215.013Z" fill="#36A94C"/>
<path d="M14.543 276C18.7759 275.398 25.5887 275.011 31.7771 271.934C39.624 268.032 43.5701 264.053 48.1041 256.575C51.9553 250.223 54 238.504 54 238.504C54 238.24 53.9945 237.961 53.9837 237.668L14.543 276Z" fill="#029334"/>
</g>
</g>
<g clip-path="url(#clip1_696_1671)">
<g filter="url(#filter0_d_696_1671)">
<g clip-path="url(#clip2_696_1671)">
<path d="M99.177 52.9023C99.177 52.9023 71.7307 88.2792 70.803 89.483C69.8754 90.6868 68.6056 92.3538 67.257 94.155L99.177 168.741V52.9023Z" fill="#92C13D"/>
<path d="M60.1628 104.217C56.913 110.448 55.5465 114.474 55.096 121.491C54.9924 123.105 54.9712 124.044 55.0395 125.632L99.177 168.741L67.257 94.155L60.1628 104.217Z" fill="#3AA94A"/>
<path d="M58.1361 140.798C60.5694 146.935 62.7668 150.191 67.257 155.023C71.1968 159.263 73.7897 161.483 78.9107 164.168C84.7392 167.225 93.0977 168.741 95.1244 168.741H99.177L55.0395 125.632C55.282 131.267 55.9087 135.18 58.1361 140.798Z" fill="#088E45"/>
<path d="M118.431 78.3056L108.297 64.5878C104.792 59.9807 99.177 52.9023 99.177 52.9023V168.741L130.085 92.7495C126.089 87.9463 118.431 78.3056 118.431 78.3056Z" fill="#209731"/>
<path d="M136.671 100.152C134.49 96.9546 133.006 95.2861 130.085 92.7495L99.177 168.741L143.24 125.632C142.963 118.083 142.458 108.635 136.671 100.152Z" fill="#36A94C"/>
<path d="M99.177 168.741C103.906 168.064 111.517 167.629 118.431 164.168C127.197 159.78 131.606 155.304 136.671 146.894C140.974 139.751 143.258 126.572 143.258 126.572C143.258 126.275 143.252 125.961 143.24 125.632L99.177 168.741Z" fill="#029334"/>
</g>
</g>
<path d="M117.419 120.951V124.872H109.599V120.951H111.359L114.411 111.07H112.083V107.149H123.122L127.077 120.951H128.825V124.872H118.856V120.951H120.304L119.825 119.057H115.803L115.302 120.951H117.419ZM119.29 116.362L117.998 110.937L116.371 116.362H119.29ZM139.542 124.872H129.549V120.951H131.699V111.07H129.85V107.127H138.907C140.377 107.127 141.632 107.246 142.672 107.483C143.689 107.728 144.499 108.196 145.1 108.887C145.702 109.57 146.002 110.539 146.002 111.794C146.002 112.678 145.746 113.447 145.234 114.1C144.721 114.754 144.072 115.225 143.284 115.515C144.317 115.96 145.078 116.536 145.568 117.242C146.066 117.947 146.314 118.916 146.314 120.149C146.314 121.656 145.724 122.822 144.543 123.647C143.37 124.464 141.703 124.872 139.542 124.872ZM137.403 111.07V114.29H138.015C138.862 114.29 139.486 114.171 139.887 113.933C140.295 113.695 140.5 113.25 140.5 112.596C140.5 112.143 140.358 111.776 140.076 111.494C139.794 111.211 139.426 111.07 138.973 111.07H137.403ZM137.403 117.208V120.951H137.804C138.702 120.951 139.393 120.825 139.876 120.572C140.366 120.32 140.611 119.8 140.611 119.013C140.611 117.795 139.868 117.186 138.383 117.186C138.22 117.186 138.056 117.19 137.893 117.197C137.73 117.197 137.566 117.201 137.403 117.208ZM157.231 125.195C155.382 125.195 153.782 124.798 152.43 124.003C151.086 123.209 150.061 122.117 149.355 120.728C148.657 119.339 148.308 117.754 148.308 115.972C148.308 114.122 148.657 112.511 149.355 111.137C150.054 109.756 151.071 108.69 152.408 107.94C153.752 107.183 155.36 106.804 157.231 106.804C159.095 106.804 160.699 107.179 162.043 107.929C163.38 108.686 164.398 109.756 165.096 111.137C165.801 112.518 166.154 114.13 166.154 115.972C166.154 117.754 165.805 119.339 165.107 120.728C164.409 122.117 163.384 123.209 162.032 124.003C160.688 124.798 159.088 125.195 157.231 125.195ZM157.231 121.241C158.033 121.241 158.646 120.754 159.069 119.781C159.5 118.808 159.715 117.509 159.715 115.883C159.715 114.301 159.507 113.049 159.091 112.128C158.683 111.208 158.063 110.747 157.231 110.747C156.392 110.747 155.768 111.208 155.36 112.128C154.951 113.049 154.747 114.301 154.747 115.883C154.747 117.509 154.959 118.808 155.382 119.781C155.805 120.754 156.422 121.241 157.231 121.241ZM177.137 125.195C174.494 125.195 172.589 124.504 171.423 123.123C170.264 121.734 169.685 119.7 169.685 117.019V111.07H167.88V107.149H177.55V111.07H175.912V118.534C175.912 119.261 176.09 119.859 176.447 120.327C176.803 120.788 177.364 121.018 178.129 121.018C178.767 121.018 179.272 120.828 179.644 120.45C180.015 120.064 180.201 119.544 180.201 118.89V111.07H178.374V107.149H185.648V111.07H183.944V118.734C183.944 120.153 183.658 121.345 183.086 122.31C182.521 123.268 181.731 123.988 180.713 124.471C179.696 124.954 178.504 125.195 177.137 125.195ZM200.263 120.862V124.872H190.338V120.862H192.165V111.07H190.594L190.115 114.122H186.985V107.149H203.66V114.122H200.541L200.062 111.07H198.436V120.862H200.263Z" fill="#088E45"/>
<path d="M143.708 139.123L134.863 166.727H121.808L113.787 139.123H110.089V131.281H129.338V139.123H126.798L131.254 155.231L135.175 139.123H132.256V131.281H147.74V139.123H143.708ZM180.914 151.621V166.727H150.993V158.884H155.293V139.123H150.993V131.281H180.914V145.383H175.21L173.071 139.123H166.7V144.915H172.403V150.753H166.7V158.884H173.071L175.21 151.621H180.914ZM202.368 167.373C198.729 167.373 195.425 166.697 192.454 165.345C189.454 164.009 187.055 161.929 185.258 159.107C183.461 156.285 182.562 152.728 182.562 148.436C182.562 145.019 183.268 141.96 184.679 139.257C186.09 136.553 188.139 134.437 190.828 132.907C193.531 131.362 196.709 130.59 200.363 130.59C201.908 130.59 203.408 130.85 204.864 131.37C206.334 131.89 207.492 132.647 208.339 133.642L209.074 131.281H216.783V144.358H209.899C209.438 142.487 208.554 141.069 207.247 140.103C205.94 139.138 204.574 138.655 203.148 138.655C200.772 138.655 198.893 139.524 197.511 141.262C196.13 142.999 195.44 145.391 195.44 148.436C195.44 151.51 196.123 153.924 197.489 155.676C198.856 157.414 200.786 158.283 203.282 158.283C203.876 158.283 204.515 158.223 205.198 158.105C205.703 158.015 206.178 157.897 206.624 157.748C207.069 157.585 207.366 157.488 207.515 157.459V154.317H203.237V147.7H217.518V163.63C215.231 164.848 212.78 165.776 210.166 166.415C207.552 167.053 204.953 167.373 202.368 167.373Z" fill="#088E45"/>
<path d="M114.185 95.5976V97.9678H109.458V95.5976H110.522L112.367 89.6249H110.959V87.2547H117.632L120.023 95.5976H121.08V97.9678H115.053V95.5976H115.929L115.639 94.4529H113.208L112.905 95.5976H114.185ZM115.316 92.8233L114.535 89.5441L113.552 92.8233H115.316ZM130.567 93.1937V97.9678H121.962V95.5572H123.039V89.6249H121.962V87.2547H127.557V89.6249H126.487V95.5572H128.211L128.857 93.1937H130.567ZM140.237 93.1937V97.9678H131.631V95.5572H132.709V89.6249H131.631V87.2547H137.227V89.6249H136.156V95.5572H137.88L138.526 93.1937H140.237Z" fill="black"/>
</g>
<defs>
<filter id="filter0_d_696_1671" x="54.0806" y="52.9033" width="55.1612" height="129.629" filterUnits="userSpaceOnUse" color-interpolation-filters="sRGB">
<feFlood flood-opacity="0" result="BackgroundImageFix"/>
<feColorMatrix in="SourceAlpha" type="matrix" values="0 0 0 0 0 0 0 0 0 0 0 0 0 0 0 0 0 0 127 0" result="hardAlpha"/>
<feOffset dx="4.59677" dy="8.27419"/>
<feGaussianBlur stdDeviation="2.75806"/>
<feComposite in2="hardAlpha" operator="out"/>
<feColorMatrix type="matrix" values="0 0 0 0 0 0 0 0 0 0 0 0 0 0 0 0 0 0 0.25 0"/>
<feBlend mode="normal" in2="BackgroundImageFix" result="effect1_dropShadow_696_1671"/>
<feBlend mode="normal" in="SourceGraphic" in2="effect1_dropShadow_696_1671" result="shape"/>
</filter>
<clipPath id="clip0_696_1671">
<rect width="281" height="250" rx="6.77507" fill="white"/>
</clipPath>
<clipPath id="clip1_696_1671">
<rect width="171" height="107.269" fill="white" transform="translate(55 63)"/>
</clipPath>
<clipPath id="clip2_696_1671">
<path d="M55 52.9033H55.9194C79.7834 52.9033 99.129 72.2489 99.129 96.113V168.742C74.7572 168.742 55 148.985 55 124.613V52.9033Z" fill="white"/>
</clipPath>
</defs>
</svg>
