<svg width="281" height="250" viewBox="0 0 281 250" fill="none" xmlns="http://www.w3.org/2000/svg">
<g clip-path="url(#clip0_500_2936)">
<rect width="281" height="250" rx="6.77507" fill="white"/>
<path fill-rule="evenodd" clip-rule="evenodd" d="M243.086 280.259C221.034 269.644 186.021 288.752 173.596 267.674C161.755 247.584 185.355 224.311 198.954 205.386C210.564 189.229 225.332 176.718 243.971 169.738C264.693 161.977 288.518 153.527 307.643 164.68C326.624 175.75 326.291 201.757 334.088 222.293C343.258 246.445 367.448 269.999 356.512 293.391C345.5 316.945 313.133 325.392 287.284 322.4C266.265 319.966 262.154 289.438 243.086 280.259Z" fill="#655EE0"/>
<g clip-path="url(#clip1_500_2936)">
<circle cx="71.002" cy="125.002" r="46.002" fill="#7150FF"/>
<g filter="url(#filter0_d_500_2936)">
<rect x="54.2305" y="104.875" width="13.4173" height="56.065" fill="white"/>
</g>
<g filter="url(#filter1_d_500_2936)">
<path d="M69.3743 142.181C71.8191 142.394 74.2822 142.125 76.6228 141.387C78.9634 140.649 81.1357 139.457 83.0157 137.879C84.8957 136.302 86.4466 134.37 87.5798 132.193C88.713 130.016 89.4064 127.637 89.6203 125.192C89.8342 122.747 89.5644 120.284 88.8265 117.944C88.0885 115.603 86.8967 113.431 85.3192 111.551C83.7416 109.671 81.8093 108.12 79.6324 106.987C77.4555 105.853 75.0767 105.16 72.6319 104.946L71.0031 123.563L69.3743 142.181Z" fill="white"/>
</g>
<g filter="url(#filter2_d_500_2936)">
<ellipse cx="60.9391" cy="95.5312" rx="6.70863" ry="6.94822" fill="white"/>
</g>
</g>
<path d="M139.982 113.847C143.435 113.847 145.706 111.505 145.706 108.17C145.706 104.788 143.459 102.517 139.982 102.517H133.146V119.808H136.174V113.847H139.982ZM139.391 105.214C141.401 105.214 142.537 106.254 142.537 108.147C142.537 110.039 141.425 111.151 139.343 111.151H136.174V105.214H139.391ZM148.819 119.808L150.215 115.81H156.672L158.067 119.808H161.261L155.016 102.517H151.918L145.673 119.808H148.819ZM153.077 107.674C153.242 107.201 153.384 106.68 153.455 106.349C153.502 106.704 153.668 107.224 153.81 107.674L155.797 113.256H151.113L153.077 107.674ZM166.456 119.808V113.35H170.17L173.103 119.808H176.414L173.126 112.712C175.161 111.884 176.249 110.228 176.249 107.91C176.249 104.504 173.954 102.517 170.028 102.517H163.429V119.808H166.456ZM166.456 105.214H170.028C171.944 105.214 173.079 106.183 173.079 107.91C173.079 109.66 171.944 110.678 170.028 110.678H166.456V105.214ZM190.013 119.808V117.017H182.302V112.428H189.209V109.755H182.302V105.308H190.013V102.517H179.274V119.808H190.013ZM196.276 119.808V107.555L204.412 119.808H207.392V102.517H204.412V114.77L196.299 102.517H193.295V119.808H196.276ZM209.706 105.308H214.768V119.808H217.795V105.308H222.857V102.517H209.706V105.308Z" fill="black"/>
<path d="M136.765 147.808V142.911C136.765 140.996 136.742 139.529 136.529 138.228L140.219 147.808H143.719L147.433 138.228C147.244 139.529 147.244 140.357 147.244 144.141V147.808H150.957V130.304H147.196L141.969 143.361L136.765 130.304H133.052V147.808H136.765ZM156.992 147.808L158.245 144.118H163.898L165.128 147.808H169.197L162.976 130.304H159.239L152.994 147.808H156.992ZM160.611 137.164C160.824 136.525 161.013 135.863 161.084 135.461C161.155 135.886 161.368 136.572 161.557 137.164L162.81 140.901H159.357L160.611 137.164ZM182.351 147.808V144.26H175.066V140.641H181.523V137.282H175.066V133.852H182.351V130.304H171.234V147.808H182.351ZM184.516 135.39C184.516 138.252 186.124 140.026 189.247 140.664L191.919 141.208C193.078 141.445 193.528 141.942 193.528 142.911C193.528 144.023 192.44 144.709 190.713 144.709C189.01 144.709 188.064 143.999 188.064 142.722H184.256C184.256 146.01 186.787 148.115 190.689 148.115C194.71 148.115 197.359 145.915 197.359 142.533C197.359 139.766 195.869 138.275 192.747 137.637L190.122 137.093C188.892 136.833 188.348 136.312 188.348 135.248C188.348 134.089 189.341 133.379 190.902 133.379C192.345 133.379 193.268 134.136 193.268 135.366H197.076C197.076 132.055 194.71 129.973 190.95 129.973C187.189 129.973 184.516 132.22 184.516 135.39ZM198.32 133.852H203.287V147.808H207.119V133.852H212.086V130.304H198.32V133.852ZM218.214 147.808V141.681H221.171L223.796 147.808H227.983L224.908 140.854C226.847 139.86 227.817 138.252 227.817 135.981C227.817 132.362 225.404 130.304 221.147 130.304H214.382V147.808H218.214ZM218.214 133.71H221.147C222.85 133.71 223.772 134.515 223.772 135.981C223.772 137.471 222.803 138.323 221.123 138.323H218.214V133.71ZM246.845 139.032C246.845 133.687 243.345 129.997 238.259 129.997C233.198 129.997 229.697 133.71 229.697 139.056C229.697 144.402 233.174 148.091 238.236 148.091C243.321 148.091 246.845 144.378 246.845 139.032ZM242.801 139.032C242.801 142.344 241.098 144.402 238.283 144.402C235.445 144.402 233.742 142.391 233.742 139.032C233.742 135.697 235.445 133.687 238.283 133.687C241.098 133.687 242.801 135.697 242.801 139.032Z" fill="#7150FF"/>
<line x1="126.202" y1="98.2849" x2="126.202" y2="152.096" stroke="#7150FF" stroke-width="0.591325" stroke-linecap="round"/>
<g clip-path="url(#clip2_500_2936)">
<path d="M236.421 207.171C243.727 209.142 251.032 211.114 258.338 213.085C260.411 213.643 262.483 214.213 264.564 214.744C264.849 214.819 265.213 214.749 265.124 214.385C265.036 214.022 264.505 213.762 264.178 213.669C256.896 211.603 249.561 209.703 242.255 207.731L236.023 206.049C235.726 205.968 235.345 206.05 235.439 206.426C235.533 206.801 236.086 207.081 236.43 207.174L236.421 207.171Z" fill="white"/>
<path d="M263.817 213.749C257.589 219.898 251.3 225.988 244.953 232.014C243.141 233.736 241.32 235.45 239.499 237.163C239.016 237.616 240.399 238.522 240.79 238.155C247.173 232.165 253.494 226.113 259.759 219.999C261.547 218.253 263.332 216.498 265.111 214.744C265.585 214.276 264.197 213.376 263.82 213.751L263.817 213.749Z" fill="white"/>
<path d="M235.51 206.238C237.135 214.376 237.728 222.665 238.477 230.915C238.688 233.229 238.913 235.545 239.174 237.855C239.215 238.224 239.601 238.494 239.925 238.619C240.085 238.683 240.728 238.83 240.687 238.46C239.751 230.149 239.306 221.782 238.145 213.496C237.819 211.181 237.437 208.875 236.978 206.581C236.874 206.067 235.36 205.473 235.513 206.235L235.51 206.238Z" fill="white"/>
<path d="M263.907 213.502C256.85 213.912 249.801 214.434 242.763 215.062C240.758 215.241 238.752 215.431 236.747 215.628C236.356 215.666 236.572 216.108 236.725 216.276C236.984 216.562 237.408 216.751 237.793 216.713C244.827 216.023 251.87 215.435 258.923 214.964C260.932 214.829 262.944 214.704 264.956 214.584C265.355 214.561 265.121 214.095 264.978 213.936C264.71 213.642 264.3 213.479 263.91 213.499L263.907 213.502Z" fill="white"/>
<path d="M261.827 212.947C255.465 215.448 249.148 218.081 242.897 220.851C241.124 221.635 239.356 222.43 237.591 223.235C237.252 223.388 237.705 223.859 237.845 223.973C238.112 224.185 238.546 224.383 238.885 224.23C245.106 221.39 251.384 218.677 257.718 216.102C259.516 215.372 261.314 214.653 263.121 213.942C263.469 213.804 262.995 213.307 262.867 213.204C262.585 212.984 262.178 212.812 261.827 212.947Z" fill="white"/>
<path d="M237.727 222.835C235.723 223.239 233.706 223.536 231.69 223.874C231.332 223.933 231.506 224.317 231.667 224.487C231.918 224.752 232.312 224.942 232.682 224.901C234.714 224.672 236.736 224.286 238.74 223.882C239.101 223.809 238.933 223.437 238.763 223.257C238.524 223.01 238.088 222.762 237.727 222.835Z" fill="white"/>
<path d="M236.687 216.433C234.568 219.122 232.359 221.765 230.341 224.536C230.027 224.968 231.359 225.752 231.723 225.324C233.94 222.708 235.991 219.939 238.11 217.244C238.436 216.83 237.057 215.963 236.687 216.433Z" fill="white"/>
<path d="M232.665 225.889C233.624 225.924 234.581 225.998 235.534 226.11C236.488 226.222 237.392 226.415 238.364 226.557C238.654 226.596 238.81 226.373 238.684 226.125C238.525 225.81 238.15 225.599 237.821 225.515C236.852 225.264 235.83 225.137 234.838 225.017C233.845 224.896 232.901 224.828 231.93 224.793C231.811 224.787 231.637 224.809 231.572 224.928C231.508 225.047 231.574 225.206 231.64 225.307C231.843 225.619 232.289 225.877 232.668 225.892L232.665 225.889Z" fill="white"/>
<path d="M235.402 225.185C236.092 225.195 236.782 225.212 237.474 225.219C237.587 225.218 237.741 225.205 237.805 225.092C237.869 224.98 237.806 224.835 237.743 224.744C237.636 224.59 237.487 224.461 237.324 224.376C237.16 224.292 236.979 224.207 236.793 224.205C236.1 224.186 235.407 224.173 234.715 224.159C234.599 224.157 234.443 224.173 234.378 224.286C234.314 224.399 234.377 224.549 234.44 224.641C234.547 224.794 234.699 224.926 234.865 225.014C235.032 225.101 235.216 225.183 235.402 225.185Z" fill="white"/>
<path d="M233.502 224.41L233.342 224.358C233.164 224.3 233.457 224.396 233.315 224.349L233.649 225.285C234.886 225.224 236.123 225.21 237.364 225.217C237.476 225.216 237.63 225.203 237.694 225.091C237.759 224.978 237.696 224.833 237.633 224.742C237.436 224.459 237.037 224.207 236.679 224.2C235.442 224.173 234.202 224.201 232.965 224.269C232.864 224.275 232.687 224.276 232.634 224.395C232.591 224.493 232.615 224.588 232.663 224.682C232.822 224.986 233.163 225.176 233.484 225.263C233.608 225.297 233.727 225.338 233.845 225.373C234.068 225.44 234.467 225.369 234.346 225.05C234.211 224.705 233.828 224.515 233.499 224.407L233.502 224.41Z" fill="white"/>
<path d="M236.406 225.388C237.006 225.245 237.606 225.102 238.203 224.944C238.318 224.911 238.413 224.851 238.424 224.72C238.435 224.59 238.315 224.425 238.226 224.337C238.083 224.196 237.91 224.073 237.72 224.003C237.566 223.945 237.388 223.892 237.223 223.929C236.617 224.06 236.014 224.212 235.411 224.358C235.293 224.388 235.199 224.454 235.188 224.584C235.177 224.715 235.299 224.883 235.389 224.971C235.535 225.115 235.71 225.241 235.903 225.308C236.057 225.366 236.241 225.424 236.409 225.385L236.406 225.388Z" fill="white"/>
<path d="M236.946 224.526C236.912 224.881 236.879 225.237 236.855 225.595C236.855 225.66 236.874 225.725 236.912 225.781C236.945 225.855 236.993 225.919 237.053 225.978C237.124 226.049 237.199 226.111 237.282 226.163C237.368 226.225 237.46 226.275 237.558 226.312L237.742 226.37C237.846 226.396 237.949 226.405 238.056 226.386L238.168 226.344C238.233 226.302 238.268 226.243 238.27 226.163C238.313 225.81 238.346 225.455 238.379 225.105C238.378 225.034 238.36 224.975 238.322 224.919C238.288 224.846 238.238 224.778 238.178 224.719C238.107 224.648 238.029 224.584 237.946 224.531C237.86 224.47 237.768 224.42 237.667 224.379L237.483 224.321C237.379 224.295 237.273 224.29 237.166 224.302L237.048 224.345C236.98 224.389 236.945 224.449 236.943 224.529L236.946 224.526Z" fill="white"/>
<path d="M227.445 206.439L224.699 206.456C224.586 206.457 224.435 206.467 224.371 206.58C224.313 206.687 224.37 206.837 224.432 206.923C224.537 207.073 224.683 207.199 224.846 207.284C225.01 207.369 225.188 207.457 225.368 207.452L228.118 207.438C228.23 207.437 228.381 207.427 228.446 207.314C228.504 207.207 228.447 207.057 228.384 206.971C228.279 206.821 228.134 206.695 227.97 206.61C227.807 206.525 227.629 206.437 227.448 206.442L227.445 206.439Z" fill="white"/>
<path d="M229.427 213.212L224.416 213.248C224.304 213.248 224.153 213.258 224.086 213.374C224.027 213.481 224.084 213.632 224.147 213.723C224.338 214 224.743 214.264 225.092 214.261L230.105 214.229C230.218 214.228 230.372 214.216 230.436 214.103C230.498 213.993 230.437 213.845 230.375 213.754C230.183 213.477 229.776 213.21 229.424 213.215L229.427 213.212Z" fill="white"/>
<path d="M232.026 228.312C230.383 228.402 228.738 228.496 227.099 228.589C226.984 228.593 226.833 228.597 226.769 228.716C226.707 228.825 226.77 228.976 226.83 229.064C227.015 229.33 227.438 229.623 227.784 229.606C229.429 229.518 231.074 229.425 232.716 229.334C232.834 229.328 232.982 229.327 233.053 229.208C233.114 229.098 233.054 228.944 232.991 228.853C232.803 228.585 232.378 228.289 232.031 228.306L232.026 228.312Z" fill="white"/>
<path d="M236.941 238.456C235.405 238.439 233.871 238.425 232.335 238.408C232.223 238.409 232.066 238.419 232.002 238.532C231.937 238.645 232 238.795 232.066 238.884C232.263 239.167 232.664 239.421 233.023 239.428C234.562 239.448 236.098 239.464 237.634 239.481C237.75 239.483 237.907 239.468 237.971 239.355C238.035 239.242 237.972 239.091 237.909 239C237.709 238.714 237.305 238.456 236.944 238.453L236.941 238.456Z" fill="white"/>
</g>
<path fill-rule="evenodd" clip-rule="evenodd" d="M44.2257 -39.6445C66.0909 -28.6493 101.544 -47.3204 113.554 -25.9575C125.001 -5.59776 100.892 17.4289 86.8867 36.2368C74.9298 52.294 59.8849 64.6409 41.0774 71.3738C20.1675 78.8592 -3.86352 86.9903 -22.7865 75.4985C-41.568 64.0926 -40.7025 37.9699 -48.09 17.2228C-56.7788 -7.17879 -80.5203 -31.2055 -69.0901 -54.5404C-57.5804 -78.0379 -24.9952 -86.0386 0.827828 -82.644C21.827 -79.8836 25.3185 -49.1523 44.2257 -39.6445Z" fill="#655EE0"/>
</g>
<defs>
<filter id="filter0_d_500_2936" x="52.3137" y="104.875" width="17.2515" height="59.8989" filterUnits="userSpaceOnUse" color-interpolation-filters="sRGB">
<feFlood flood-opacity="0" result="BackgroundImageFix"/>
<feColorMatrix in="SourceAlpha" type="matrix" values="0 0 0 0 0 0 0 0 0 0 0 0 0 0 0 0 0 0 127 0" result="hardAlpha"/>
<feOffset dy="1.91675"/>
<feGaussianBlur stdDeviation="0.958376"/>
<feComposite in2="hardAlpha" operator="out"/>
<feColorMatrix type="matrix" values="0 0 0 0 0 0 0 0 0 0 0 0 0 0 0 0 0 0 0.25 0"/>
<feBlend mode="normal" in2="BackgroundImageFix" result="effect1_dropShadow_500_2936"/>
<feBlend mode="normal" in="SourceGraphic" in2="effect1_dropShadow_500_2936" result="shape"/>
</filter>
<filter id="filter1_d_500_2936" x="67.4582" y="104.946" width="24.1499" height="41.1392" filterUnits="userSpaceOnUse" color-interpolation-filters="sRGB">
<feFlood flood-opacity="0" result="BackgroundImageFix"/>
<feColorMatrix in="SourceAlpha" type="matrix" values="0 0 0 0 0 0 0 0 0 0 0 0 0 0 0 0 0 0 127 0" result="hardAlpha"/>
<feOffset dy="1.91675"/>
<feGaussianBlur stdDeviation="0.958376"/>
<feComposite in2="hardAlpha" operator="out"/>
<feColorMatrix type="matrix" values="0 0 0 0 0 0 0 0 0 0 0 0 0 0 0 0 0 0 0.25 0"/>
<feBlend mode="normal" in2="BackgroundImageFix" result="effect1_dropShadow_500_2936"/>
<feBlend mode="normal" in="SourceGraphic" in2="effect1_dropShadow_500_2936" result="shape"/>
</filter>
<filter id="filter2_d_500_2936" x="52.3137" y="88.583" width="17.2515" height="17.73" filterUnits="userSpaceOnUse" color-interpolation-filters="sRGB">
<feFlood flood-opacity="0" result="BackgroundImageFix"/>
<feColorMatrix in="SourceAlpha" type="matrix" values="0 0 0 0 0 0 0 0 0 0 0 0 0 0 0 0 0 0 127 0" result="hardAlpha"/>
<feOffset dy="1.91675"/>
<feGaussianBlur stdDeviation="0.958376"/>
<feComposite in2="hardAlpha" operator="out"/>
<feColorMatrix type="matrix" values="0 0 0 0 0 0 0 0 0 0 0 0 0 0 0 0 0 0 0.25 0"/>
<feBlend mode="normal" in2="BackgroundImageFix" result="effect1_dropShadow_500_2936"/>
<feBlend mode="normal" in="SourceGraphic" in2="effect1_dropShadow_500_2936" result="shape"/>
</filter>
<clipPath id="clip0_500_2936">
<rect width="281" height="250" rx="6.77507" fill="white"/>
</clipPath>
<clipPath id="clip1_500_2936">
<rect width="92.0041" height="92.0041" fill="white" transform="translate(25 79)"/>
</clipPath>
<clipPath id="clip2_500_2936">
<rect width="34.734" height="40.8965" fill="white" transform="translate(240.73 190) rotate(44.628)"/>
</clipPath>
</defs>
</svg>
