<svg width="193" height="193" viewBox="0 0 193 193" fill="none" xmlns="http://www.w3.org/2000/svg">
<circle cx="96.5" cy="96.5" r="96.5" fill="#FED631"/>
<path d="M19.9896 108.965C19.9896 108.965 17.5605 109.402 19.1434 114.692C20.7264 119.983 22.0073 122.698 22.0073 122.698C22.0073 122.698 22.239 123.901 21.2627 123.901C20.2864 123.901 18.2609 123.188 17.6178 124.271C16.9748 125.354 17.6178 126.681 19.2085 128.001C20.7993 129.321 24.1551 132.334 24.4675 132.607C24.78 132.88 25.0091 133.461 24.3426 133.57C23.6761 133.68 18.8987 133.31 18.8597 135.583C18.8206 137.856 23.8401 140.805 24.3842 141.139C24.9284 141.472 25.0221 141.743 24.9049 142.055C24.7878 142.367 23.2049 142.091 21.8406 142.042C20.4764 141.993 18.8909 142.175 18.9768 143.49C19.0627 144.804 21.7782 148.035 29.3907 150.219L32.9783 151.001L35.5011 148.311C40.5518 142.227 40.9684 138.038 40.2967 136.903C39.625 135.768 38.2139 136.515 37.1152 137.322C36.0166 138.129 34.8554 139.259 34.5925 139.061C34.3295 138.863 34.2514 138.585 34.5144 138.004C34.7773 137.423 37.261 132.159 35.9463 130.3C34.6315 128.441 30.8929 131.441 30.2811 131.727C29.6693 132.013 29.5417 131.396 29.6354 131.006C29.7292 130.615 30.8148 126.218 31.3824 124.237C31.9499 122.256 31.7677 120.811 30.6013 120.256C29.4688 119.72 28.2009 121.451 27.3939 122C26.5868 122.55 26.0921 121.425 26.0921 121.425C26.0921 121.425 25.6001 118.457 23.9234 113.198C22.2468 107.939 19.9427 108.978 19.9427 108.978" fill="#EBEBEB"/>
<path d="M32.583 150.324C31.3645 146.452 29.7191 141.089 27.9384 135.158C26.1576 129.228 24.5278 123.864 23.3302 119.988C22.734 118.054 22.2472 116.486 21.9113 115.398C21.7447 114.859 21.6145 114.44 21.526 114.148C21.4844 114.01 21.4531 113.901 21.4297 113.823C21.4174 113.786 21.407 113.749 21.3984 113.711C21.4146 113.746 21.4285 113.781 21.4401 113.818L21.5494 114.141C21.6458 114.43 21.7811 114.849 21.9582 115.382C22.3097 116.46 22.8069 118.025 23.4161 119.962C24.6346 123.833 26.28 129.194 28.0607 135.122C29.8415 141.05 31.4739 146.418 32.6689 150.298" fill="#E0E0E0"/>
<path d="M20.4062 125.387C20.4903 125.415 20.5707 125.454 20.6458 125.501C20.7968 125.582 21.0103 125.704 21.2732 125.858C21.7939 126.168 22.5151 126.613 23.2961 127.121L25.2878 128.422L25.8918 128.815C25.9695 128.859 26.042 128.912 26.1079 128.972C26.0232 128.943 25.942 128.904 25.8657 128.857C25.7147 128.776 25.5013 128.654 25.2383 128.498C24.7176 128.183 24.0069 127.717 23.2284 127.222L21.2289 125.92L20.6197 125.53C20.5431 125.491 20.4715 125.443 20.4062 125.387Z" fill="#E0E0E0"/>
<path d="M26.3973 128.791C26.3661 128.775 27.22 127.257 28.3031 125.406C29.3861 123.555 30.2895 122.066 30.3181 122.084C30.3468 122.102 29.4954 123.618 28.4124 125.469C27.3294 127.32 26.426 128.809 26.3973 128.791Z" fill="#E0E0E0"/>
<path d="M28.7324 138.02C28.7866 137.947 28.8486 137.881 28.9173 137.822L29.4536 137.314C29.9014 136.884 30.521 136.291 31.1823 135.609C31.8436 134.927 32.4241 134.294 32.8381 133.833C33.0334 133.617 33.1974 133.435 33.3302 133.284C33.3877 133.214 33.4523 133.15 33.5228 133.094C33.4817 133.174 33.4301 133.248 33.3692 133.315C33.2625 133.456 33.1089 133.651 32.9058 133.89C32.5075 134.369 31.9373 135.015 31.2734 135.697C30.6095 136.379 29.9717 136.965 29.5135 137.379C29.2792 137.585 29.0865 137.749 28.9511 137.858C28.885 137.921 28.8116 137.975 28.7324 138.02Z" fill="#E0E0E0"/>
<path d="M22.6367 136.133C22.72 136.137 22.8023 136.153 22.8814 136.18L23.5401 136.354C24.0947 136.505 24.8601 136.724 25.701 136.971C26.5419 137.218 27.3074 137.461 27.8515 137.627C28.1118 137.713 28.3461 137.786 28.4997 137.838C28.5807 137.859 28.6586 137.891 28.7315 137.932C28.6429 137.929 28.5553 137.913 28.4711 137.885C28.3149 137.846 28.091 137.789 27.8124 137.711C27.2579 137.56 26.4951 137.341 25.6515 137.093C24.808 136.846 24.0504 136.612 23.5037 136.437C23.2277 136.352 23.0064 136.279 22.8554 136.227C22.7787 136.205 22.7052 136.173 22.6367 136.133Z" fill="#E0E0E0"/>
<path d="M23.6641 144.543C23.7708 144.554 23.8762 144.575 23.9791 144.605L24.8252 144.827C25.536 145.017 26.5175 145.29 27.5979 145.608C28.6784 145.925 29.6573 146.204 30.3628 146.415L31.1985 146.675C31.3017 146.701 31.4021 146.738 31.4979 146.785C31.3917 146.776 31.2868 146.755 31.1855 146.722L30.3394 146.501C29.6286 146.311 28.6471 146.037 27.5641 145.72C26.481 145.402 25.5047 145.126 24.7992 144.913L23.9661 144.652C23.8621 144.626 23.761 144.589 23.6641 144.543Z" fill="#E0E0E0"/>
<path d="M31.3242 146.67C31.3914 146.576 31.4682 146.488 31.5533 146.41L32.2094 145.743C32.7587 145.178 33.5111 144.397 34.3338 143.51C35.1565 142.622 35.8673 141.804 36.3854 141.208L36.9972 140.503C37.0669 140.408 37.1463 140.32 37.2341 140.242C37.1752 140.341 37.1081 140.435 37.0336 140.523C36.9009 140.698 36.703 140.948 36.4531 141.255C35.9532 141.867 35.2451 142.697 34.4276 143.585C33.6101 144.473 32.8394 145.246 32.2719 145.795C31.9855 146.069 31.7512 146.287 31.5898 146.436C31.5088 146.522 31.4199 146.601 31.3242 146.67Z" fill="#E0E0E0"/>
<path d="M135.795 54.8189L125.233 49.3672C124.991 49.671 124.66 49.8919 124.287 49.9992C123.914 50.1065 123.517 50.0949 123.15 49.966L117.467 60.9709C117.761 61.145 118.002 61.3965 118.164 61.6981C118.326 61.9997 118.401 62.3397 118.383 62.6814L122.314 64.7121C122.587 64.5468 122.897 64.4542 123.216 64.4431C123.534 64.4321 123.85 64.503 124.133 64.649C124.417 64.7951 124.658 65.0114 124.833 65.2773C125.009 65.5431 125.113 65.8496 125.137 66.1674L129.143 68.2346C129.313 67.9467 129.557 67.7098 129.85 67.5486C130.142 67.3874 130.473 67.3078 130.807 67.3181L136.295 56.683C136.049 56.4476 135.873 56.1494 135.785 55.8207C135.697 55.4921 135.7 55.1456 135.795 54.8189Z" fill="#E0E0E0"/>
<path d="M134.958 55.6565L124.929 50.4802C124.586 50.3034 124.165 50.4377 123.989 50.7802L118.812 60.8092C118.635 61.1516 118.77 61.5725 119.112 61.7492L129.141 66.9255C129.484 67.1023 129.905 66.968 130.081 66.6255L135.258 56.5966C135.434 56.2541 135.3 55.8333 134.958 55.6565Z" fill="#F5F5F5"/>
<path d="M129.404 67.1003C129.254 67.1008 129.105 67.0651 128.972 66.9962L126.019 65.4706C126.004 65.4631 125.99 65.4526 125.979 65.4397C125.968 65.4268 125.959 65.4118 125.954 65.3955C125.948 65.3792 125.946 65.362 125.948 65.345C125.949 65.3279 125.954 65.3113 125.962 65.2961C125.978 65.2653 126.006 65.242 126.039 65.2313C126.072 65.2206 126.108 65.2233 126.139 65.2388L129.089 66.7645C129.25 66.8461 129.437 66.862 129.61 66.8087C129.696 66.7811 129.775 66.7368 129.844 66.6783C129.913 66.6197 129.97 66.5482 130.011 66.4677L135.093 56.6526C135.134 56.5724 135.16 56.4848 135.167 56.3949C135.175 56.3049 135.165 56.2143 135.138 56.1282C135.11 56.0421 135.066 55.9623 135.008 55.8932C134.95 55.8242 134.879 55.7673 134.798 55.7257L124.97 50.6594C124.809 50.5762 124.621 50.5605 124.447 50.6156C124.274 50.6708 124.13 50.7923 124.046 50.9536L118.977 60.7713C118.895 60.9334 118.88 61.1214 118.935 61.2944C118.991 61.4675 119.113 61.6116 119.274 61.6955L122.398 63.3097C122.413 63.3175 122.427 63.3283 122.438 63.3414C122.449 63.3545 122.457 63.3696 122.462 63.3859C122.468 63.4023 122.47 63.4194 122.468 63.4365C122.467 63.4536 122.462 63.4702 122.454 63.4854C122.446 63.5006 122.435 63.5141 122.422 63.5252C122.409 63.5362 122.394 63.5446 122.378 63.5498C122.361 63.555 122.344 63.5569 122.327 63.5555C122.31 63.554 122.294 63.5492 122.278 63.5414L119.154 61.9272C118.931 61.8117 118.763 61.6125 118.687 61.3734C118.611 61.1342 118.633 60.8746 118.748 60.6515L123.814 50.8338C123.93 50.611 124.129 50.4431 124.368 50.3669C124.607 50.2908 124.867 50.3126 125.09 50.4277L134.908 55.494C135.131 55.6102 135.299 55.8094 135.376 56.0486C135.414 56.1674 135.428 56.2925 135.417 56.4167C135.407 56.5409 135.372 56.6618 135.314 56.7723L130.248 66.5874C130.191 66.6983 130.112 66.7969 130.017 66.8773C129.922 66.9577 129.812 67.0185 129.693 67.0561C129.6 67.0862 129.502 67.1011 129.404 67.1003Z" fill="#EBEBEB"/>
<path d="M123.817 57.0753C123.889 56.9275 123.99 56.796 124.115 56.6889C124.24 56.5818 124.385 56.5014 124.543 56.4527C124.7 56.4039 124.865 56.3878 125.028 56.4053C125.192 56.4228 125.35 56.4736 125.493 56.5546C125.641 56.6248 125.773 56.7252 125.88 56.8495C125.986 56.9737 126.066 57.1189 126.113 57.2757L125.894 57.346C125.856 57.2204 125.792 57.1042 125.707 57.0047C125.621 56.9052 125.515 56.8246 125.397 56.768C125.28 56.7002 125.151 56.6567 125.017 56.6403C124.884 56.6239 124.748 56.6348 124.618 56.6725C124.489 56.7103 124.368 56.7739 124.264 56.8596C124.16 56.9454 124.075 57.0514 124.013 57.1712C123.951 57.291 123.914 57.4222 123.904 57.5567C123.895 57.6913 123.913 57.8263 123.957 57.9537C124.001 58.0811 124.071 58.1982 124.162 58.2978C124.253 58.3974 124.363 58.4775 124.486 58.5332C124.601 58.5973 124.728 58.6365 124.859 58.6482C124.99 58.6598 125.122 58.6437 125.246 58.6009L125.316 58.8196C125.161 58.8712 124.997 58.8897 124.834 58.8741C124.671 58.8584 124.514 58.8088 124.371 58.7285C124.224 58.6592 124.092 58.5608 123.983 58.4391C123.875 58.3174 123.792 58.175 123.74 58.0205C123.688 57.866 123.669 57.7025 123.682 57.54C123.695 57.3776 123.741 57.2195 123.817 57.0753Z" fill="#E0E0E0"/>
<path d="M128.038 58.8368C127.804 59.2898 127.333 59.394 126.791 59.1154L126.219 58.8186L125.872 59.4929L125.648 59.3757L126.747 57.2461L127.544 57.647C128.085 57.9282 128.273 58.3708 128.038 58.8368ZM127.812 58.7223C127.989 58.3812 127.864 58.0688 127.437 57.8501L126.872 57.5351L126.323 58.6025L126.888 58.8941C127.315 59.1232 127.64 59.0451 127.804 58.7118L127.812 58.7223Z" fill="#E0E0E0"/>
<path d="M128.265 59.5648L128.895 58.3438L129.119 58.4609L128.494 59.6715C128.234 60.1766 128.351 60.5307 128.755 60.7442C129.158 60.9576 129.536 60.8509 129.796 60.3458L130.423 59.1352L130.642 59.2472L130.012 60.4682C129.697 61.08 129.205 61.2258 128.658 60.9446C128.112 60.6634 127.95 60.1766 128.265 59.5648Z" fill="#E0E0E0"/>
<path d="M174.705 115.76C174.749 115.606 174.801 115.454 174.861 115.305C175.098 114.567 175.076 113.771 174.799 113.047C174.73 112.902 174.67 112.752 174.619 112.6C174.734 112.717 174.822 112.857 174.879 113.011C175.047 113.374 175.139 113.767 175.15 114.167C175.161 114.566 175.091 114.964 174.945 115.336C174.897 115.493 174.815 115.638 174.705 115.76Z" fill="#EBEBEB"/>
<path d="M175.908 115.716C175.869 115.716 175.999 115.073 176.046 114.282C176.092 113.49 176.046 112.844 176.092 112.842C176.271 113.797 176.208 114.782 175.908 115.706V115.716Z" fill="#EBEBEB"/>
<path d="M176.952 115.904C176.935 115.405 176.963 114.905 177.035 114.412C177.063 113.914 177.136 113.42 177.254 112.936C177.271 113.434 177.243 113.934 177.171 114.427C177.143 114.925 177.07 115.419 176.952 115.904Z" fill="#EBEBEB"/>
<path d="M178.379 115.964C178.31 114.991 178.38 114.013 178.585 113.059C178.596 113.545 178.573 114.031 178.515 114.514C178.502 115 178.457 115.484 178.379 115.964Z" fill="#EBEBEB"/>
<path d="M52.2281 50.9435L54.6988 50.8003L59.208 44L71.0851 51.8781L59.1429 69.8838L45.7324 60.9903L49.609 55.1481L51.1398 56.1634L52.8425 53.5964L51.1919 52.503L52.2281 50.9435Z" fill="#EBEBEB"/>
<path d="M59.4658 66.0717C59.4476 66.1029 57.2398 64.6762 54.54 62.885C51.8402 61.0939 49.6689 59.6177 49.6975 59.5864C49.7262 59.5552 51.9235 60.9819 54.6233 62.7731C57.3231 64.5643 59.4866 66.0405 59.4658 66.0717Z" fill="#E0E0E0"/>
<path d="M54.6816 57.537L55.2596 57.1725C55.4166 57.5645 55.6889 57.8995 56.0407 58.1332C56.4468 58.3935 56.7045 58.3779 56.8217 58.1956C57.1914 57.6385 55.2075 56.8731 55.9417 55.7692C56.2776 55.2641 56.9649 55.1131 57.811 55.6729C58.1768 55.9068 58.4727 56.2351 58.6676 56.6231L58.1078 57.0032C57.9547 56.6903 57.7244 56.4215 57.4387 56.2222C57.03 55.9619 56.7722 56.0009 56.6577 56.1884C56.2958 56.7377 58.277 57.5057 57.5507 58.5992C57.22 59.0964 56.5275 59.2474 55.6762 58.6825C55.2358 58.4108 54.8888 58.0112 54.6816 57.537Z" fill="#E0E0E0"/>
<path d="M59.4012 56.7969L60.7524 57.6925C61.7261 58.3381 62.0046 59.3665 61.4084 60.2673C60.8123 61.1681 59.7526 61.3087 58.7789 60.6682L57.4277 59.77L59.4012 56.7969ZM59.12 60.0799C59.711 60.473 60.3332 60.3767 60.7107 59.8195C61.0882 59.2624 60.9346 58.6401 60.3436 58.2574L59.7162 57.8383L58.4926 59.6841L59.12 60.0799Z" fill="#E0E0E0"/>
<g opacity="0.4">
<path d="M60.0085 46.2615L59.4141 45.8672L56.8551 49.7246L57.4496 50.1189L60.0085 46.2615Z" fill="white"/>
</g>
<g opacity="0.4">
<path d="M61.0417 46.949L60.4473 46.5547L57.8883 50.412L58.4828 50.8064L61.0417 46.949Z" fill="white"/>
</g>
<g opacity="0.4">
<path d="M62.0866 47.6385L61.4922 47.2441L58.9332 51.1015L59.5277 51.4959L62.0866 47.6385Z" fill="white"/>
</g>
<g opacity="0.4">
<path d="M63.1179 48.3299L62.5234 47.9355L59.9645 51.7929L60.5589 52.1873L63.1179 48.3299Z" fill="white"/>
</g>
<g opacity="0.4">
<path d="M64.1589 49.0193L63.5645 48.625L61.0055 52.4824L61.5999 52.8767L64.1589 49.0193Z" fill="white"/>
</g>
<g opacity="0.4">
<path d="M65.196 49.7068L64.6016 49.3125L62.0426 53.1699L62.6371 53.5642L65.196 49.7068Z" fill="white"/>
</g>
<g opacity="0.4">
<path d="M66.239 50.3943L65.6445 50L63.0856 53.8574L63.68 54.2517L66.239 50.3943Z" fill="white"/>
</g>
<g opacity="0.4">
<path d="M67.2761 51.0838L66.6816 50.6895L64.1227 54.5468L64.7171 54.9412L67.2761 51.0838Z" fill="white"/>
</g>
<g opacity="0.4">
<path d="M68.3112 51.7733L67.7168 51.3789L65.1579 55.2363L65.7523 55.6306L68.3112 51.7733Z" fill="white"/>
</g>
<g opacity="0.4">
<path d="M69.3503 52.4627L68.7559 52.0684L66.1969 55.9257L66.7914 56.3201L69.3503 52.4627Z" fill="white"/>
</g>
<path d="M167.989 57.9193L136.563 57.8984C135.663 57.8981 134.773 58.0749 133.942 58.4189C133.111 58.7628 132.355 59.2671 131.719 59.903C131.083 60.5388 130.579 61.2938 130.234 62.1247C129.89 62.9556 129.713 63.8462 129.713 64.7456L129.697 143.535C129.697 145.35 130.418 147.09 131.701 148.374C132.984 149.658 134.724 150.38 136.539 150.382L167.966 150.4C168.865 150.401 169.756 150.224 170.587 149.88C171.418 149.537 172.173 149.033 172.809 148.397C173.445 147.761 173.95 147.007 174.294 146.176C174.638 145.345 174.815 144.455 174.815 143.555L174.831 64.7664C174.832 63.8675 174.655 62.9772 174.312 62.1465C173.968 61.3158 173.464 60.5609 172.829 59.9251C172.194 59.2892 171.439 58.7847 170.609 58.4406C169.778 58.0964 168.888 57.9193 167.989 57.9193ZM152.241 71.9936C152.13 71.9936 152.022 71.9608 151.93 71.8993C151.838 71.8378 151.766 71.7504 151.724 71.6481C151.681 71.5458 151.67 71.4333 151.692 71.3247C151.713 71.2161 151.767 71.1164 151.845 71.0381C151.923 70.9598 152.023 70.9065 152.132 70.8849C152.24 70.8633 152.353 70.8744 152.455 70.9168C152.557 70.9591 152.645 71.0309 152.706 71.1229C152.768 71.215 152.8 71.3232 152.8 71.4339C152.801 71.5075 152.787 71.5805 152.759 71.6485C152.731 71.7166 152.689 71.7784 152.637 71.8305C152.585 71.8825 152.523 71.9237 152.455 71.9517C152.387 71.9798 152.314 71.994 152.241 71.9936ZM152.264 69.739C151.814 69.739 151.374 69.6055 151 69.3554C150.625 69.1052 150.334 68.7497 150.162 68.3338C149.99 67.9178 149.945 67.4602 150.033 67.0187C150.121 66.5773 150.338 66.1718 150.656 65.8537C150.975 65.5356 151.38 65.3191 151.822 65.2316C152.263 65.1441 152.721 65.1895 153.137 65.3621C153.552 65.5347 153.908 65.8268 154.157 66.2013C154.407 66.5759 154.54 67.0161 154.54 67.4662C154.539 68.0692 154.299 68.6473 153.872 69.0735C153.446 69.4997 152.867 69.739 152.264 69.739Z" fill="#263238"/>
<path d="M153.926 76.6298C153.926 77.3797 153.926 77.9863 153.902 77.9863C153.879 77.9863 153.879 77.3797 153.879 76.6298C153.879 75.88 153.879 75.2734 153.902 75.2734C153.926 75.2734 153.926 75.8827 153.926 76.6298Z" fill="black"/>
<path d="M167.955 60.918H161.86H144.066H136.589C135.959 60.9173 135.335 61.0408 134.753 61.2814C134.171 61.522 133.642 61.8749 133.197 62.3201C132.752 62.7653 132.398 63.2939 132.157 63.8758C131.916 64.4576 131.793 65.0812 131.793 65.711L131.777 142.615C131.777 143.886 132.282 145.105 133.18 146.004C134.078 146.903 135.297 147.409 136.568 147.411L167.934 147.429C168.564 147.429 169.188 147.305 169.769 147.065C170.351 146.824 170.88 146.471 171.325 146.026C171.771 145.581 172.124 145.052 172.365 144.471C172.606 143.889 172.73 143.265 172.73 142.636L172.746 65.7318C172.748 65.1008 172.627 64.4756 172.387 63.8918C172.148 63.3081 171.795 62.7773 171.35 62.3301C170.905 61.8828 170.376 61.5279 169.793 61.2855C169.211 61.0432 168.586 60.9183 167.955 60.918ZM152.238 71.9984C152.127 71.9984 152.019 71.9655 151.927 71.904C151.835 71.8425 151.763 71.7551 151.721 71.6528C151.679 71.5505 151.667 71.438 151.689 71.3294C151.711 71.2208 151.764 71.1211 151.842 71.0428C151.921 70.9645 152.02 70.9112 152.129 70.8896C152.237 70.868 152.35 70.8791 152.452 70.9215C152.555 70.9638 152.642 71.0356 152.703 71.1276C152.765 71.2197 152.798 71.3279 152.798 71.4386C152.797 71.5118 152.783 71.5842 152.754 71.6516C152.726 71.7191 152.685 71.7803 152.633 71.8318C152.581 71.8833 152.519 71.9241 152.451 71.9517C152.384 71.9794 152.311 71.9935 152.238 71.9932V71.9984ZM152.261 69.7438C151.811 69.7438 151.371 69.6102 150.997 69.3601C150.623 69.1099 150.331 68.7544 150.159 68.3385C149.987 67.9226 149.942 67.4649 150.03 67.0234C150.118 66.582 150.335 66.1765 150.653 65.8584C150.972 65.5403 151.378 65.3238 151.819 65.2363C152.261 65.1488 152.718 65.1942 153.134 65.3668C153.55 65.5395 153.905 65.8315 154.155 66.206C154.404 66.5806 154.537 67.0208 154.537 67.4709C154.535 68.073 154.294 68.6498 153.868 69.0749C153.441 69.4999 152.864 69.7386 152.261 69.7385V69.7438Z" fill="#455A64"/>
<path d="M171.419 137.642H133.08V82.9355H171.419V137.642ZM133.34 137.382H171.159V83.1959H133.34V137.382Z" fill="#263238"/>
<path d="M168.333 144.82C168.333 144.82 168.38 144.82 168.468 144.82H168.635L168.862 144.781C169.074 144.741 169.282 144.679 169.481 144.596C169.752 144.475 170.005 144.318 170.234 144.13C170.548 143.864 170.803 143.535 170.983 143.164C171.162 142.793 171.262 142.389 171.275 141.977C171.275 141.003 171.259 139.881 171.252 138.629L171.291 138.668L136.191 138.697H133.212L133.28 138.629C133.28 139.329 133.28 140.024 133.293 140.712C133.293 141.059 133.293 141.406 133.293 141.753C133.286 142.089 133.33 142.423 133.426 142.745C133.627 143.382 134.037 143.932 134.589 144.307C135.147 144.649 135.799 144.804 136.451 144.75H144.001L156.714 144.765L165.225 144.786L167.529 144.799H165.225L156.714 144.82L144.001 144.836H136.451C135.77 144.871 135.095 144.689 134.524 144.315C133.948 143.926 133.518 143.355 133.306 142.693C133.206 142.359 133.159 142.013 133.165 141.665V140.623C133.165 139.929 133.161 139.235 133.152 138.54V138.473H136.198L171.298 138.501H171.338V138.54C171.338 139.793 171.353 140.912 171.338 141.888C171.324 142.308 171.221 142.72 171.036 143.097C170.85 143.473 170.587 143.806 170.262 144.073C169.862 144.407 169.381 144.629 168.867 144.716L168.638 144.747H168.471L168.333 144.82Z" fill="#263238"/>
<path d="M155.687 69.5468C155.687 69.5468 155.708 69.4479 155.737 69.2604C155.775 68.986 155.796 68.7095 155.799 68.4325C155.805 67.9972 155.778 67.5621 155.718 67.1308C155.643 66.5568 155.49 65.9955 155.265 65.462C155.007 64.8106 154.543 64.2619 153.943 63.8999C153.289 63.5276 152.433 63.499 151.618 63.6942C151.199 63.798 150.804 63.981 150.454 64.2331C150.089 64.4971 149.784 64.834 149.556 65.2225C149.333 65.6298 149.173 66.0687 149.082 66.5242C148.979 66.9964 148.924 67.4779 148.918 67.9613C148.908 68.4447 148.953 68.9276 149.051 69.401C149.155 69.8594 149.308 70.3054 149.507 70.7314C149.884 71.5395 150.344 72.3064 150.879 73.0199C151.139 73.3635 151.399 73.6968 151.636 74.0118C151.849 74.3306 152.164 74.5675 152.529 74.6835C152.615 74.6965 152.702 74.6921 152.787 74.6706C152.871 74.6492 152.95 74.611 153.019 74.5585C153.16 74.4545 153.285 74.3309 153.391 74.1914C153.593 73.9225 153.773 73.6378 153.93 73.3401C154.445 72.4583 154.904 71.5444 155.302 70.6038C155.44 70.2706 155.534 70.005 155.593 69.8228L155.661 69.6171C155.667 69.5928 155.676 69.5693 155.687 69.5468C155.686 69.5716 155.681 69.596 155.674 69.6197C155.674 69.6666 155.646 69.7395 155.619 69.8306C155.567 70.0128 155.481 70.2836 155.359 70.6116C154.978 71.5624 154.531 72.4854 154.021 73.3739C153.865 73.6779 153.685 73.9687 153.482 74.2435C153.37 74.3926 153.237 74.5242 153.086 74.634C153.006 74.6952 152.915 74.7396 152.817 74.7647C152.72 74.7897 152.618 74.7949 152.519 74.7798C152.125 74.663 151.784 74.4138 151.553 74.0743C151.292 73.754 151.032 73.426 150.787 73.0797C150.242 72.3625 149.774 71.5892 149.392 70.7731C149.19 70.3387 149.034 69.884 148.929 69.4167C148.826 68.9341 148.78 68.4414 148.791 67.9483C148.796 67.4553 148.851 66.9641 148.957 66.4825C149.008 66.246 149.075 66.013 149.155 65.7848C149.229 65.5577 149.328 65.3395 149.449 65.1339C149.686 64.7258 150.005 64.3712 150.386 64.0925C150.751 63.8343 151.161 63.6463 151.594 63.538C152.399 63.3111 153.258 63.3929 154.005 63.7671C154.623 64.1443 155.1 64.7142 155.362 65.3891C155.585 65.9323 155.733 66.5034 155.802 67.0865C155.857 67.5251 155.876 67.9674 155.859 68.4091C155.851 68.6887 155.821 68.9672 155.77 69.2422C155.75 69.3359 155.734 69.4062 155.721 69.4531C155.714 69.4858 155.703 69.5173 155.687 69.5468Z" fill="#263238"/>
<path d="M168.051 62.4271C168.051 62.4271 168.176 62.4271 168.421 62.4427C168.782 62.4815 169.134 62.58 169.462 62.7343C169.703 62.8482 169.93 62.9907 170.137 63.1586C170.382 63.3666 170.598 63.6065 170.78 63.872C170.988 64.1852 171.139 64.5324 171.228 64.8978C171.313 65.3146 171.346 65.7406 171.324 66.1657C171.324 69.7532 171.324 74.9237 171.347 81.2658V81.3179H171.285L136.398 81.4507H133.222H133.154V81.383C133.154 77.7251 133.154 74.1635 133.154 70.7295C133.154 69.0113 133.154 67.3277 133.154 65.6788C133.15 64.8491 133.458 64.0481 134.017 63.4351C134.576 62.822 135.345 62.4417 136.172 62.3698C142.467 62.3464 148.098 62.3698 152.834 62.3698L163.993 62.3906H167.015L163.993 62.4036L152.834 62.4245L136.193 62.4531C135.385 62.5192 134.634 62.891 134.092 63.4924C133.549 64.0938 133.257 64.8795 133.274 65.6892V70.74C133.274 74.1739 133.274 77.7355 133.274 81.3934L133.206 81.3257H136.383L171.285 81.2242L171.233 81.2788C171.233 74.9368 171.248 69.7663 171.254 66.1787C171.278 65.7583 171.249 65.3365 171.165 64.9238C171.081 64.5634 170.933 64.2206 170.73 63.911C170.555 63.6466 170.342 63.4082 170.1 63.2029C169.898 63.034 169.676 62.8906 169.439 62.7759C169.116 62.6203 168.769 62.5174 168.413 62.4713C168.293 62.4557 168.2 62.4557 168.153 62.4505L168.051 62.4271Z" fill="#263238"/>
<path d="M164.131 101.494H127.766C127.023 101.494 126.42 102.097 126.42 102.84V148.737C126.42 149.48 127.023 150.083 127.766 150.083H164.131C164.875 150.083 165.477 149.48 165.477 148.737V102.84C165.477 102.097 164.875 101.494 164.131 101.494Z" fill="#263238"/>
<path d="M165.475 105.523C165.475 105.559 156.714 105.59 145.91 105.59C135.105 105.59 126.342 105.559 126.342 105.523C126.342 105.486 135.102 105.455 145.91 105.455C156.717 105.455 165.475 105.484 165.475 105.523Z" fill="#455A64"/>
<path d="M137.35 105.469C137.282 104.819 137.259 104.165 137.282 103.511C137.259 102.857 137.282 102.202 137.35 101.551C137.417 102.202 137.44 102.857 137.418 103.511C137.44 104.165 137.417 104.819 137.35 105.469Z" fill="#455A64"/>
<path d="M152.13 105.523C152.064 104.892 152.041 104.257 152.063 103.623C152.041 102.989 152.063 102.355 152.13 101.725C152.199 102.355 152.222 102.989 152.198 103.623C152.222 104.257 152.199 104.892 152.13 105.523Z" fill="#455A64"/>
<path d="M157.58 101.494H156.57V104.676H157.58V101.494Z" fill="#E0E0E0"/>
<path d="M159.149 101.494H158.139V104.676H159.149V101.494Z" fill="#E0E0E0"/>
<path d="M160.711 101.494H159.701V104.676H160.711V101.494Z" fill="#E0E0E0"/>
<path d="M148.361 118.793L143.492 126.249H146.655L144.51 132.781L150.634 124.312H147.371L148.361 118.793Z" fill="#E0E0E0"/>
<path d="M147.072 137.235C144.807 137.235 142.592 136.563 140.708 135.304C138.824 134.046 137.356 132.256 136.489 130.163C135.622 128.07 135.395 125.767 135.837 123.545C136.279 121.323 137.37 119.281 138.972 117.679C140.574 116.077 142.616 114.986 144.838 114.544C147.06 114.102 149.363 114.329 151.456 115.196C153.549 116.063 155.338 117.531 156.597 119.415C157.856 121.299 158.528 123.514 158.528 125.78C158.528 128.818 157.321 131.731 155.173 133.88C153.024 136.028 150.111 137.235 147.072 137.235ZM147.072 114.603C144.858 114.603 142.694 115.259 140.853 116.489C139.012 117.72 137.577 119.468 136.73 121.514C135.882 123.559 135.661 125.81 136.093 127.982C136.525 130.153 137.591 132.148 139.156 133.714C140.722 135.279 142.717 136.346 144.888 136.778C147.06 137.21 149.311 136.988 151.357 136.141C153.402 135.293 155.151 133.858 156.381 132.017C157.611 130.176 158.267 128.012 158.267 125.798C158.267 122.829 157.088 119.981 154.988 117.882C152.889 115.782 150.042 114.603 147.072 114.603Z" fill="#E0E0E0"/>
<path d="M135.393 63.9753H129.301C129.102 63.9793 128.906 64.0225 128.724 64.1023C128.542 64.1821 128.378 64.2969 128.24 64.4403C128.103 64.5837 127.995 64.7527 127.922 64.9378C127.85 65.1229 127.815 65.3205 127.819 65.5191V66.6256C127.824 66.8242 127.789 67.0218 127.717 67.2071C127.645 67.3923 127.538 67.5616 127.4 67.7052C127.263 67.8488 127.099 67.964 126.917 68.0441C126.735 68.1242 126.539 68.1677 126.34 68.1721H114.463C114.265 68.1677 114.069 68.1242 113.887 68.0441C113.705 67.964 113.541 67.8488 113.404 67.7052C113.266 67.5616 113.159 67.3923 113.087 67.2071C113.015 67.0218 112.98 66.8242 112.985 66.6256V65.5191C112.993 65.1177 112.842 64.7293 112.564 64.4394C112.286 64.1494 111.905 63.9815 111.503 63.9727H104.029C103.399 63.9723 102.775 64.096 102.193 64.3367C101.611 64.5774 101.082 64.9303 100.637 65.3754C100.191 65.8205 99.8378 66.349 99.5965 66.9307C99.3552 67.5124 99.2308 68.1359 99.2305 68.7657V82.8426L102.482 86.2089V105.93H99.2227V145.67C99.2227 146.941 99.7275 148.161 100.626 149.06C101.525 149.959 102.744 150.465 104.016 150.465L135.38 150.484C136.01 150.485 136.634 150.361 137.216 150.121C137.798 149.88 138.327 149.528 138.773 149.082C139.219 148.637 139.572 148.108 139.813 147.526C140.054 146.944 140.178 146.32 140.178 145.691L140.194 68.7865C140.196 68.155 140.073 67.5293 139.833 66.9453C139.592 66.3613 139.239 65.8306 138.793 65.3835C138.347 64.9365 137.817 64.582 137.233 64.3403C136.65 64.0986 136.024 63.9746 135.393 63.9753ZM103.37 66.6178C103.545 66.6173 103.717 66.6687 103.862 66.7657C104.008 66.8626 104.122 67.0007 104.19 67.1624C104.257 67.3241 104.275 67.5022 104.241 67.6741C104.207 67.8459 104.123 68.0039 103.999 68.128C103.876 68.252 103.718 68.3366 103.546 68.3709C103.374 68.4053 103.196 68.3879 103.034 68.321C102.873 68.2541 102.734 68.1406 102.637 67.995C102.539 67.8494 102.487 67.6781 102.487 67.503C102.487 67.27 102.579 67.0464 102.743 66.8807C102.907 66.715 103.129 66.6205 103.362 66.6178H103.37ZM102.638 83.254C102.531 83.254 102.427 83.2222 102.338 83.1627C102.249 83.1032 102.179 83.0187 102.138 82.9197C102.097 82.8208 102.086 82.7119 102.107 82.6068C102.128 82.5018 102.18 82.4053 102.255 82.3296C102.331 82.2538 102.428 82.2022 102.533 82.1814C102.638 82.1605 102.747 82.1712 102.846 82.2122C102.945 82.2532 103.029 82.3226 103.089 82.4116C103.148 82.5007 103.18 82.6054 103.18 82.7125C103.18 82.7842 103.166 82.8553 103.138 82.9215C103.11 82.9877 103.07 83.0478 103.019 83.0982C102.967 83.1486 102.907 83.1883 102.84 83.215C102.774 83.2418 102.702 83.255 102.631 83.254H102.638ZM105.185 146.065C105.062 146.258 104.885 146.409 104.676 146.501C104.468 146.593 104.236 146.621 104.012 146.581C103.787 146.542 103.58 146.437 103.415 146.279C103.25 146.121 103.136 145.918 103.086 145.696C103.037 145.473 103.054 145.241 103.137 145.028C103.219 144.816 103.363 144.632 103.55 144.501C103.736 144.37 103.958 144.298 104.186 144.293C104.414 144.287 104.638 144.35 104.831 144.472C105.088 144.638 105.269 144.898 105.333 145.197C105.398 145.496 105.342 145.808 105.177 146.065H105.185ZM123.409 77.3988H117.181V71.1817H123.399L123.409 77.3988ZM136.14 146.365C136.018 146.558 135.841 146.71 135.632 146.802C135.424 146.894 135.192 146.922 134.967 146.883C134.743 146.844 134.535 146.738 134.369 146.581C134.204 146.423 134.09 146.22 134.04 145.997C133.991 145.775 134.008 145.542 134.091 145.329C134.174 145.117 134.317 144.933 134.504 144.802C134.691 144.671 134.913 144.599 135.141 144.594C135.369 144.589 135.593 144.651 135.786 144.774C136.043 144.939 136.225 145.198 136.291 145.496C136.357 145.794 136.303 146.107 136.14 146.365ZM136.843 76.5058C136.68 76.5058 136.52 76.4574 136.384 76.3667C136.249 76.276 136.143 76.1471 136.08 75.9963C136.018 75.8455 136.002 75.6796 136.033 75.5195C136.065 75.3594 136.144 75.2123 136.259 75.0969C136.375 74.9815 136.522 74.9029 136.682 74.871C136.842 74.8392 137.008 74.8555 137.159 74.918C137.31 74.9805 137.438 75.0863 137.529 75.222C137.62 75.3577 137.668 75.5173 137.668 75.6805C137.668 75.79 137.646 75.8984 137.604 75.9994C137.562 76.1003 137.5 76.1919 137.422 76.2687C137.344 76.3455 137.251 76.406 137.15 76.4467C137.048 76.4874 136.939 76.5075 136.83 76.5058H136.843Z" fill="#595959"/>
<path d="M118.921 68.1641H118.221V69.9188H118.921V68.1641Z" fill="#F5F5F5"/>
<path d="M120.63 68.1641H119.93V69.9188H120.63V68.1641Z" fill="#F5F5F5"/>
<path d="M122.341 68.1641H121.641V69.9188H122.341V68.1641Z" fill="#F5F5F5"/>
<g opacity="0.3">
<path d="M110.451 63.957H105.533V75.6805H110.451V63.957Z" fill="black"/>
</g>
<g opacity="0.3">
<path d="M135.168 72.7812H126.887V85.1009H135.168V72.7812Z" fill="black"/>
</g>
<g opacity="0.3">
<path d="M125.015 93.4961H121.781V96.7296H125.015V93.4961Z" fill="black"/>
</g>
<g opacity="0.3">
<path d="M112.084 88.3828H109.918V90.5489H112.084V88.3828Z" fill="black"/>
</g>
<g opacity="0.3">
<path d="M112.084 85.2773H109.918V87.4434H112.084V85.2773Z" fill="black"/>
</g>
<g opacity="0.3">
<path d="M113.207 82.1719H108.789V84.338H113.207V82.1719Z" fill="black"/>
</g>
<g opacity="0.3">
<path d="M117.178 91.5469H112.471V100.677H117.178V91.5469Z" fill="black"/>
</g>
<g opacity="0.1">
<path d="M126.886 85.1016L131.676 91.5478V96.1143H125.014V96.7287H131.028V127.481H135.167V91.0088V85.1016H126.886Z" fill="black"/>
</g>
<g opacity="0.1">
<path d="M108.789 82.1701L115.045 80.2852L118.971 81.6416V92.7636L117.177 95.9399V91.5478V82.7116L114.824 81.3604L113.207 82.1701H108.789Z" fill="black"/>
</g>
<path d="M136.793 133.162H131.037V133.904H136.793V133.162Z" fill="#F5F5F5"/>
<path d="M136.793 134.941H131.037V135.683H136.793V134.941Z" fill="#F5F5F5"/>
<g opacity="0.3">
<path d="M118.404 124.781H107.303V140.879H118.404V124.781Z" fill="black"/>
</g>
<path d="M108.868 124.209C108.908 124.209 108.936 124.324 108.936 124.469C108.936 124.615 108.908 124.73 108.868 124.73C108.829 124.73 108.801 124.615 108.801 124.469C108.801 124.324 108.832 124.209 108.868 124.209Z" fill="white"/>
<path d="M110.992 124.209C111.031 124.209 111.059 124.324 111.059 124.469C111.059 124.615 111.031 124.73 110.992 124.73C110.952 124.73 110.924 124.615 110.924 124.469C110.924 124.324 110.955 124.209 110.992 124.209Z" fill="white"/>
<path d="M113.115 124.209C113.152 124.209 113.183 124.324 113.183 124.469C113.183 124.615 113.152 124.73 113.115 124.73C113.079 124.73 113.045 124.615 113.045 124.469C113.045 124.324 113.076 124.209 113.115 124.209Z" fill="white"/>
<path d="M115.238 124.209C115.274 124.209 115.305 124.324 115.305 124.469C115.305 124.615 115.274 124.73 115.238 124.73C115.201 124.73 115.17 124.615 115.17 124.469C115.17 124.324 115.199 124.209 115.238 124.209Z" fill="white"/>
<path d="M117.361 124.209C117.397 124.209 117.428 124.324 117.428 124.469C117.428 124.615 117.397 124.73 117.361 124.73C117.324 124.73 117.293 124.615 117.293 124.469C117.293 124.324 117.322 124.209 117.361 124.209Z" fill="white"/>
<path d="M108.868 140.945C108.908 140.945 108.936 141.06 108.936 141.206C108.936 141.351 108.908 141.466 108.868 141.466C108.829 141.466 108.801 141.349 108.801 141.206C108.801 141.062 108.832 140.945 108.868 140.945Z" fill="white"/>
<path d="M110.992 140.945C111.031 140.945 111.059 141.06 111.059 141.206C111.059 141.351 111.031 141.466 110.992 141.466C110.952 141.466 110.924 141.349 110.924 141.206C110.924 141.062 110.955 140.945 110.992 140.945Z" fill="white"/>
<path d="M113.115 140.945C113.152 140.945 113.183 141.06 113.183 141.206C113.183 141.351 113.152 141.466 113.115 141.466C113.079 141.466 113.045 141.349 113.045 141.206C113.045 141.062 113.076 140.945 113.115 140.945Z" fill="white"/>
<path d="M115.238 140.945C115.274 140.945 115.305 141.06 115.305 141.206C115.305 141.351 115.274 141.466 115.238 141.466C115.201 141.466 115.17 141.349 115.17 141.206C115.17 141.062 115.199 140.945 115.238 140.945Z" fill="white"/>
<path d="M117.361 140.945C117.397 140.945 117.428 141.06 117.428 141.206C117.428 141.351 117.397 141.466 117.361 141.466C117.324 141.466 117.293 141.349 117.293 141.206C117.293 141.062 117.322 140.945 117.361 140.945Z" fill="white"/>
<g opacity="0.3">
<path d="M124.061 121.086H119.805V127.259H124.061V121.086Z" fill="black"/>
</g>
<path d="M120.404 120.867C120.443 120.867 120.471 120.911 120.471 120.966C120.471 121.021 120.443 121.065 120.404 121.065C120.365 121.065 120.336 121.021 120.336 120.966C120.336 120.911 120.367 120.867 120.404 120.867Z" fill="white"/>
<path d="M121.218 120.867C121.255 120.867 121.286 120.911 121.286 120.966C121.286 121.021 121.255 121.065 121.218 121.065C121.182 121.065 121.15 121.021 121.15 120.966C121.15 120.911 121.179 120.867 121.218 120.867Z" fill="white"/>
<path d="M122.033 120.867C122.072 120.867 122.1 120.911 122.1 120.966C122.1 121.021 122.072 121.065 122.033 121.065C121.993 121.065 121.965 121.021 121.965 120.966C121.965 120.911 121.996 120.867 122.033 120.867Z" fill="white"/>
<path d="M122.861 120.867C122.897 120.867 122.928 120.911 122.928 120.966C122.928 121.021 122.897 121.065 122.861 121.065C122.824 121.065 122.793 121.021 122.793 120.966C122.793 120.911 122.809 120.867 122.861 120.867Z" fill="white"/>
<path d="M123.659 120.867C123.699 120.867 123.727 120.911 123.727 120.966C123.727 121.021 123.699 121.065 123.659 121.065C123.62 121.065 123.592 121.021 123.592 120.966C123.592 120.911 123.623 120.867 123.659 120.867Z" fill="white"/>
<path d="M120.404 127.285C120.443 127.285 120.471 127.329 120.471 127.384C120.471 127.439 120.443 127.483 120.404 127.483C120.365 127.483 120.336 127.439 120.336 127.384C120.336 127.329 120.367 127.285 120.404 127.285Z" fill="white"/>
<path d="M121.218 127.285C121.255 127.285 121.286 127.329 121.286 127.384C121.286 127.439 121.255 127.483 121.218 127.483C121.182 127.483 121.15 127.439 121.15 127.384C121.15 127.329 121.179 127.285 121.218 127.285Z" fill="white"/>
<path d="M122.033 127.285C122.072 127.285 122.1 127.329 122.1 127.384C122.1 127.439 122.072 127.483 122.033 127.483C121.993 127.483 121.965 127.439 121.965 127.384C121.965 127.329 121.996 127.285 122.033 127.285Z" fill="white"/>
<path d="M122.861 127.285C122.897 127.285 122.928 127.329 122.928 127.384C122.928 127.439 122.897 127.483 122.861 127.483C122.824 127.483 122.793 127.439 122.793 127.384C122.793 127.329 122.809 127.285 122.861 127.285Z" fill="white"/>
<path d="M123.659 127.285C123.699 127.285 123.727 127.329 123.727 127.384C123.727 127.439 123.699 127.483 123.659 127.483C123.62 127.483 123.592 127.439 123.592 127.384C123.592 127.329 123.623 127.285 123.659 127.285Z" fill="white"/>
<path d="M99.2201 121.551H116.395V122.358H99.2148L99.2201 121.551Z" fill="#F5F5F5"/>
<path d="M122.582 91.5474C122.583 91.6275 122.56 91.7058 122.516 91.7726C122.471 91.8394 122.408 91.8915 122.335 91.9223C122.261 91.9532 122.179 91.9614 122.101 91.9459C122.022 91.9304 121.95 91.892 121.894 91.8354C121.837 91.7788 121.799 91.7066 121.783 91.6281C121.768 91.5496 121.776 91.4682 121.807 91.3944C121.837 91.3206 121.89 91.2576 121.956 91.2134C122.023 91.1693 122.101 91.146 122.182 91.1465C122.288 91.1465 122.39 91.1887 122.465 91.2639C122.54 91.3391 122.582 91.4411 122.582 91.5474Z" fill="#F5F5F5"/>
<path d="M120.208 95.5142C120.208 95.5935 120.185 95.671 120.141 95.737C120.097 95.8029 120.034 95.8543 119.961 95.8846C119.887 95.915 119.807 95.9229 119.729 95.9074C119.651 95.892 119.58 95.8538 119.524 95.7977C119.468 95.7417 119.429 95.6702 119.414 95.5924C119.398 95.5147 119.406 95.434 119.437 95.3608C119.467 95.2875 119.519 95.2249 119.584 95.1809C119.65 95.1368 119.728 95.1133 119.807 95.1133C119.914 95.1133 120.016 95.1555 120.091 95.2307C120.166 95.3059 120.208 95.4079 120.208 95.5142Z" fill="#F5F5F5"/>
<path d="M119.403 98.2449C119.398 98.1659 119.416 98.087 119.455 98.0182C119.495 97.9495 119.553 97.8939 119.624 97.8586C119.695 97.8232 119.775 97.8096 119.854 97.8196C119.932 97.8295 120.006 97.8625 120.066 97.9144C120.126 97.9662 120.169 98.0347 120.19 98.1111C120.211 98.1874 120.209 98.2683 120.184 98.3435C120.159 98.4187 120.112 98.4848 120.05 98.5335C119.987 98.5822 119.912 98.6113 119.833 98.6172C119.78 98.6211 119.727 98.6145 119.677 98.5979C119.627 98.5813 119.581 98.5549 119.541 98.5203C119.501 98.4857 119.468 98.4436 119.445 98.3963C119.421 98.349 119.407 98.2976 119.403 98.2449Z" fill="#F5F5F5"/>
<path d="M110.453 75.6797H105.535V75.9192H110.453V75.6797Z" fill="#F5F5F5"/>
<path d="M106.212 68.5156H105.535V70.9889H106.212V68.5156Z" fill="#F5F5F5"/>
<path d="M109.286 92.3105H108.869V109.306H109.286V92.3105Z" fill="#F5F5F5"/>
<g opacity="0.1">
<path d="M131.036 133.536V138.272L122.845 145.447H115.236L118.404 140.881H107.303L113.663 146.601H124.061L132.442 139.113L136.79 135.315V133.164L131.036 133.536Z" fill="black"/>
</g>
<path d="M96.6851 150.479L65.256 150.461C64.3572 150.461 63.4672 150.283 62.6369 149.939C61.8066 149.595 61.0523 149.09 60.4169 148.455C59.7816 147.819 59.2777 147.064 58.9341 146.233C58.5904 145.403 58.4137 144.513 58.4141 143.614L58.4297 64.825C58.4297 63.9257 58.6069 63.0353 58.9512 62.2045C59.2955 61.3738 59.8001 60.619 60.4362 59.9833C61.0724 59.3477 61.8275 58.8436 62.6585 58.5C63.4896 58.1563 64.3801 57.9798 65.2794 57.9805L96.7086 57.9987C98.52 58.0001 100.257 58.7192 101.54 59.9986C102.822 61.2781 103.545 63.0135 103.55 64.825L103.535 143.614C103.537 144.515 103.362 145.407 103.019 146.24C102.675 147.073 102.171 147.831 101.535 148.468C100.899 149.106 100.143 149.612 99.3104 149.957C98.4782 150.302 97.5861 150.48 96.6851 150.479Z" fill="#455A64"/>
<path d="M96.6746 60.7721H90.5773C90.1763 60.7817 89.7955 60.9499 89.5183 61.2397C89.2411 61.5296 89.0901 61.9176 89.0985 62.3186V63.4225C89.1069 63.8239 88.9556 64.2123 88.6778 64.5022C88.4001 64.7922 88.0186 64.9601 87.6171 64.9689H75.7401C75.3391 64.9594 74.9583 64.7912 74.6811 64.5013C74.4039 64.2114 74.2529 63.8235 74.2613 63.4225V62.316C74.2658 62.1173 74.2311 61.9198 74.1592 61.7345C74.0873 61.5493 73.9797 61.38 73.8423 61.2364C73.705 61.0928 73.5407 60.9776 73.3589 60.8975C73.177 60.8174 72.9812 60.7739 72.7825 60.7695H70.6399H65.308C64.678 60.7692 64.0541 60.893 63.472 61.1338C62.8898 61.3747 62.3609 61.7279 61.9153 62.1732C61.4697 62.6186 61.1162 63.1473 60.8751 63.7293C60.6339 64.3113 60.5098 64.9351 60.5098 65.5651L60.4941 142.469C60.4941 143.741 60.999 144.96 61.8978 145.859C62.7966 146.759 64.0157 147.264 65.2871 147.265L96.6512 147.283C97.9229 147.283 99.1425 146.778 100.042 145.879C100.942 144.981 101.448 143.762 101.449 142.49L101.462 65.5834C101.464 64.9529 101.342 64.3283 101.103 63.7452C100.863 63.162 100.511 62.6319 100.066 62.185C99.6214 61.7382 99.093 61.3833 98.511 61.1409C97.9291 60.8985 97.3051 60.7732 96.6746 60.7721Z" fill="#EBEBEB"/>
<path d="M68.092 63.9128H61.9998C61.8012 63.9168 61.6053 63.96 61.4233 64.0398C61.2413 64.1196 61.0769 64.2344 60.9393 64.3778C60.8017 64.5212 60.6938 64.6902 60.6215 64.8753C60.5493 65.0604 60.5143 65.258 60.5184 65.4566V66.5631C60.5229 66.7617 60.4883 66.9593 60.4164 67.1446C60.3445 67.3298 60.2368 67.4991 60.0995 67.6427C59.9621 67.7863 59.7979 67.9015 59.616 67.9816C59.4342 68.0617 59.2383 68.1052 59.0397 68.1096H47.1626C46.964 68.1052 46.7681 68.0617 46.5863 67.9816C46.4044 67.9015 46.2402 67.7863 46.1028 67.6427C45.9655 67.4991 45.8578 67.3298 45.7859 67.1446C45.714 66.9593 45.6794 66.7617 45.6838 66.5631V65.4566C45.6922 65.0556 45.5413 64.6676 45.2641 64.3778C44.9869 64.0879 44.6061 63.9197 44.2051 63.9102H36.7279C36.0981 63.9098 35.4745 64.0335 34.8925 64.2742C34.3105 64.5149 33.7817 64.8678 33.3361 65.3129C32.8906 65.758 32.537 66.2865 32.2957 66.8682C32.0544 67.4499 31.93 68.0734 31.9297 68.7032V145.607C31.929 146.237 32.0524 146.86 32.2928 147.442C32.5333 148.024 32.886 148.553 33.3309 148.998C33.7758 149.443 34.3041 149.797 34.8857 150.038C35.4672 150.279 36.0906 150.403 36.7201 150.403L68.0841 150.421C68.7148 150.421 69.3392 150.297 69.9216 150.055C70.504 149.813 71.0329 149.458 71.4779 149.012C71.923 148.565 72.2755 148.035 72.5151 147.451C72.7548 146.868 72.8769 146.243 72.8745 145.612V68.7084C72.8745 67.4387 72.3711 66.2209 71.4745 65.322C70.578 64.423 69.3616 63.9162 68.092 63.9128Z" fill="white"/>
<path d="M68.0908 63.9131H68.2548C68.4177 63.9146 68.5803 63.9268 68.7417 63.9496C69.3784 64.0283 69.9914 64.2403 70.5406 64.5718C70.9478 64.8099 71.3164 65.1084 71.6341 65.457C72.0206 65.8768 72.33 66.3615 72.5479 66.8889C72.7963 67.5076 72.9184 68.1697 72.9072 68.8363C72.9072 69.5444 72.9072 70.2977 72.9072 71.0961C72.9072 77.485 72.9072 86.717 72.9228 98.1488C72.9385 109.581 72.9228 123.168 72.9228 138.268V145.454C72.9304 145.948 72.8682 146.441 72.738 146.917C72.6048 147.396 72.3985 147.852 72.1262 148.268C71.8474 148.684 71.5107 149.057 71.1264 149.377C70.3389 150.016 69.3711 150.392 68.3589 150.453C67.3514 150.481 66.3543 150.453 65.3441 150.466H59.2494H46.7163H40.3065H37.0704C35.9623 150.528 34.8645 150.225 33.9462 149.601C33.0326 148.968 32.3615 148.042 32.0431 146.977C31.8922 146.45 31.8254 145.903 31.8452 145.355V137.318C31.8452 133.074 31.8452 128.897 31.8452 124.785C31.8452 116.566 31.8452 108.643 31.8452 101.093C31.8452 93.5433 31.8452 86.3655 31.8452 79.6511C31.8452 76.2926 31.8452 73.0531 31.8452 69.9324V68.7686C31.8452 68.5759 31.8634 68.3807 31.8738 68.188C31.8843 67.9954 31.9207 67.8027 31.9702 67.6153C32.1438 66.8688 32.4897 66.1733 32.9803 65.5846C33.4559 65.017 34.0551 64.5659 34.7321 64.2658C35.409 63.9657 36.1456 63.8246 36.8855 63.8532H44.0607C44.3948 63.8351 44.7258 63.9265 45.0032 64.1136C45.2756 64.306 45.4805 64.5792 45.5889 64.8946C45.6809 65.2016 45.7145 65.523 45.6879 65.8423V66.3083C45.683 66.4612 45.6873 66.6142 45.7009 66.7665C45.7388 67.0634 45.8638 67.3425 46.0602 67.5684C46.2509 67.7924 46.5066 67.9517 46.7918 68.024C46.9335 68.0561 47.0787 68.0701 47.2239 68.0657H49.4421H55.7633H58.5543C58.7729 68.0657 58.9968 68.0657 59.2051 68.0657C59.4141 68.0419 59.6152 67.9716 59.7935 67.86C60.1312 67.6422 60.3689 67.2996 60.4548 66.9071C60.489 66.7147 60.5013 66.5191 60.4912 66.3239C60.4912 66.1313 60.4912 65.9386 60.4912 65.7512C60.4829 65.5642 60.4917 65.3768 60.5173 65.1914C60.5463 65.0087 60.6071 64.8325 60.6969 64.6707C60.8656 64.363 61.1363 64.1237 61.4623 63.9938C61.77 63.8966 62.094 63.8621 62.4152 63.8923C62.0991 63.8613 61.7801 63.8959 61.478 63.9938C61.1624 64.1208 60.901 64.3537 60.7386 64.6525C60.6513 64.8066 60.5923 64.975 60.5641 65.1498C60.5405 65.3327 60.5326 65.5174 60.5407 65.7017V66.2745C60.5505 66.4731 60.5382 66.6722 60.5043 66.8681C60.4615 67.0732 60.378 67.2677 60.2586 67.4399C60.1392 67.6121 59.9863 67.7585 59.8091 67.8704C59.6247 67.987 59.4166 68.0609 59.1999 68.0865C58.9786 68.1073 58.7625 68.0865 58.5412 68.0865H47.2604C47.1089 68.0937 46.9572 68.0788 46.81 68.0422C46.5061 67.9678 46.233 67.8003 46.0289 67.5632C45.8225 67.3255 45.6912 67.032 45.6514 66.7197C45.6359 66.564 45.6307 66.4074 45.6358 66.251V65.785C45.6614 65.4755 45.6296 65.164 45.5421 64.866C45.4372 64.5707 45.2424 64.3157 44.9849 64.137C44.7239 63.9547 44.4101 63.8632 44.0919 63.8767H36.922C36.2071 63.8579 35.4967 63.9938 34.8392 64.275C34.168 64.5722 33.5726 65.0172 33.0975 65.5767C32.619 66.1541 32.282 66.8352 32.1134 67.5658C32.0639 67.748 32.0509 67.9381 32.017 68.1255C31.9832 68.313 31.9936 68.503 31.991 68.6957V69.8595C31.991 72.9836 31.991 76.2232 31.991 79.5782C31.991 86.2926 31.991 93.4678 31.991 101.02V124.712C31.991 128.82 31.991 132.998 31.991 137.245V145.274C31.9725 145.809 32.0375 146.343 32.1837 146.857C32.4926 147.893 33.1445 148.792 34.0321 149.409C34.9275 150.016 35.9982 150.311 37.0782 150.247H40.3143H46.7241H59.2572H65.3623C66.3699 150.247 67.3774 150.263 68.3694 150.234C69.3541 150.176 70.2962 149.812 71.0639 149.193C71.4387 148.883 71.7659 148.52 72.035 148.115C72.3005 147.71 72.5016 147.266 72.6312 146.8C72.7613 146.335 72.8218 145.853 72.8109 145.371C72.8109 144.886 72.8109 144.402 72.8109 143.918C72.8109 141.984 72.8109 140.075 72.8109 138.19C72.8109 123.09 72.8265 109.492 72.8317 98.0707C72.8369 86.6493 72.8525 77.4069 72.8577 71.018C72.8577 70.2187 72.8577 69.4559 72.8577 68.7582C72.8615 68.1245 72.743 67.496 72.5089 66.9071C72.2963 66.3823 71.9912 65.8999 71.6081 65.483C71.2945 65.1342 70.9293 64.8357 70.525 64.5978C69.9808 64.2641 69.3722 64.0494 68.739 63.9678C68.579 63.9406 68.4171 63.9258 68.2548 63.9235L68.0908 63.9131Z" fill="#263238"/>
<path d="M69.0166 71.6784C69.0166 71.6992 68.2356 71.7226 67.2489 71.7304C66.2622 71.7382 65.4785 71.7304 65.4785 71.707C65.4785 71.6836 66.2596 71.6627 67.2463 71.6549C68.233 71.6471 69.0166 71.6575 69.0166 71.6784Z" fill="#263238"/>
<path d="M69.0251 72.5846C69.0251 72.6054 68.2441 72.6289 67.2547 72.6367C66.2654 72.6445 65.487 72.6367 65.4844 72.6133C65.4818 72.5898 66.2654 72.569 67.2547 72.5612C68.2441 72.5534 69.0251 72.5638 69.0251 72.5846Z" fill="#263238"/>
<path d="M69.0349 73.4909C69.0349 73.5091 68.2538 73.5325 67.2645 73.5429C66.2752 73.5534 65.4941 73.5429 65.4941 73.5195C65.4941 73.4961 66.2752 73.4752 67.2645 73.4674C68.2538 73.4596 69.0349 73.47 69.0349 73.4909Z" fill="#263238"/>
<path d="M36.8203 74.5257H36.8958H37.0989L37.8565 74.5075L37.8357 74.5284C37.8357 74.3617 37.8357 74.1795 37.8357 73.9816C37.8357 73.8801 37.8357 73.7838 37.8357 73.6666C37.8482 73.6048 37.8803 73.5487 37.9272 73.5065C37.974 73.4643 38.0332 73.4383 38.096 73.4323C38.2184 73.4323 38.3251 73.4323 38.4579 73.4323C38.5297 73.44 38.5961 73.4741 38.6442 73.528C38.6923 73.5819 38.7187 73.6517 38.7182 73.7239C38.7182 73.9842 38.7182 74.2446 38.7182 74.5231L38.6818 74.4867H39.6347L39.5982 74.5231C39.5982 74.1378 39.5982 73.7421 39.5982 73.336C39.5982 73.2344 39.5982 73.1329 39.5982 73.0314C39.5938 72.9866 39.5797 72.9433 39.5567 72.9046C39.5338 72.866 39.5026 72.8328 39.4654 72.8075L39.0281 72.3753C38.8901 72.2399 38.7677 72.1149 38.6245 71.9795L38.4293 71.7869C38.3794 71.7201 38.3117 71.6687 38.234 71.6385C38.1967 71.6288 38.1578 71.6276 38.12 71.6348C38.0822 71.642 38.0464 71.6575 38.0153 71.6802C37.9554 71.7296 37.8955 71.7973 37.8357 71.8546L37.4946 72.2008C37.2785 72.4247 37.0546 72.6278 36.8932 72.8205C36.8442 72.9325 36.8271 73.056 36.8437 73.1771V73.513C36.8437 73.7187 36.8437 73.8983 36.8437 74.0545C36.8437 74.2107 36.8437 74.3149 36.8437 74.4008C36.8473 74.4424 36.8473 74.4842 36.8437 74.5257C36.8437 74.5257 36.8437 74.4867 36.8437 74.4112C36.8437 74.3357 36.8437 74.2055 36.8437 74.0701C36.8437 73.9348 36.8437 73.7317 36.8437 73.5234C36.8437 73.4167 36.8437 73.3021 36.8437 73.1824C36.8437 73.1199 36.8437 73.0574 36.8437 72.9949C36.8431 72.9247 36.8611 72.8555 36.8958 72.7944C37.0728 72.5783 37.2837 72.3857 37.4998 72.1566L37.8383 71.8077C37.9008 71.7478 37.9502 71.688 38.0231 71.6255C38.0623 71.5967 38.1074 71.5772 38.1552 71.5681C38.203 71.5591 38.2521 71.5609 38.2991 71.5734C38.3894 71.6041 38.4689 71.6602 38.5282 71.7348L38.7235 71.9275C38.8562 72.0577 38.9838 72.1878 39.127 72.3232L39.5462 72.732C39.5849 72.768 39.6206 72.8072 39.6529 72.8491C39.6836 72.8975 39.7007 72.9532 39.7024 73.0105C39.7024 73.1095 39.7024 73.211 39.7024 73.3125C39.7024 73.7213 39.7024 74.117 39.7024 74.5023V74.5388H39.6659H38.7104H38.6766V74.5049C38.6766 74.229 38.6766 73.9608 38.6766 73.7057C38.6774 73.6504 38.6584 73.5967 38.6231 73.5542C38.5877 73.5117 38.5384 73.4833 38.4839 73.4739C38.3746 73.4739 38.2444 73.4739 38.1377 73.4739C38.0881 73.4786 38.0413 73.499 38.0042 73.5323C37.9672 73.5656 37.9419 73.61 37.932 73.6588C37.932 73.7551 37.932 73.8645 37.932 73.9634V74.5336H37.9112H37.1301H36.8698L36.8203 74.5257Z" fill="#263238"/>
<path d="M66.2678 79.3086H37.9629C36.5466 79.3086 35.3984 80.4567 35.3984 81.873V82.8259C35.3984 84.2422 36.5466 85.3903 37.9629 85.3903H66.2678C67.6841 85.3903 68.8323 84.2422 68.8323 82.8259V81.873C68.8323 80.4567 67.6841 79.3086 66.2678 79.3086Z" fill="#F5F5F5"/>
<path d="M66.2695 85.3929L66.4622 85.3773C66.6491 85.3592 66.8339 85.3234 67.0141 85.2705C67.3044 85.1758 67.5765 85.0323 67.8186 84.8462C68.1485 84.5926 68.4098 84.2606 68.5788 83.8803C68.6821 83.6559 68.7505 83.4171 68.7819 83.1721C68.8058 82.8995 68.8136 82.6256 68.8053 82.352C68.8157 82.0546 68.8018 81.7568 68.7636 81.4616C68.7116 81.1464 68.5993 80.8441 68.433 80.5712C68.2493 80.2686 68.0043 80.0078 67.7138 79.8056C67.4232 79.6033 67.0935 79.4642 66.7459 79.3971C66.3598 79.3517 65.9707 79.3369 65.5822 79.3528H64.3481L37.9671 79.371C37.34 79.3726 36.7362 79.6089 36.2746 80.0334C35.813 80.458 35.527 81.0399 35.473 81.6647C35.4522 81.9693 35.473 82.2895 35.473 82.5968C35.4565 82.9018 35.4881 83.2076 35.5667 83.5028C35.733 84.0843 36.1026 84.5869 36.6081 84.9191C36.8549 85.0824 37.1292 85.1997 37.4178 85.2653C37.7074 85.3224 38.0029 85.3442 38.2978 85.3304H43.5047L55.3662 85.3434L63.3614 85.3642L55.3662 85.3825L43.5047 85.3955H38.2978C37.9942 85.4091 37.69 85.3863 37.3918 85.3278C37.0884 85.2598 36.7999 85.1372 36.5404 84.9659C36.0127 84.617 35.6276 84.0905 35.4548 83.4819C35.372 83.1759 35.3377 82.8587 35.3532 82.5421C35.3532 82.2297 35.3532 81.9251 35.3532 81.6022C35.4092 80.9456 35.7092 80.3339 36.1941 79.8876C36.6789 79.4413 37.3134 79.1929 37.9723 79.1914L64.3534 79.2096H65.5848C65.9786 79.1933 66.3731 79.2098 66.7642 79.2591C67.285 79.3614 67.7621 79.6205 68.1316 80.0016C68.5011 80.3827 68.7452 80.8676 68.8313 81.3913C68.8668 81.6902 68.8781 81.9915 68.8652 82.2921C68.8729 82.5684 68.8633 82.845 68.8365 83.1201C68.8042 83.37 68.733 83.6133 68.6257 83.8412C68.4517 84.2273 68.1831 84.5631 67.8446 84.8175C67.4483 85.1256 66.9684 85.307 66.4674 85.3382C66.3346 85.3929 66.2695 85.3929 66.2695 85.3929Z" fill="#263238"/>
<path d="M66.7831 82.208C66.7831 82.208 66.7831 82.1091 66.7258 81.9477C66.659 81.7157 66.5171 81.5124 66.3223 81.3697C66.1671 81.2558 65.9834 81.1872 65.7916 81.1714C65.5998 81.1557 65.4073 81.1934 65.2356 81.2803C65.0639 81.3673 64.9197 81.5002 64.8189 81.6642C64.7182 81.8281 64.6648 82.0169 64.6648 82.2093C64.6648 82.4018 64.7182 82.5905 64.8189 82.7545C64.9197 82.9185 65.0639 83.0513 65.2356 83.1383C65.4073 83.2253 65.5998 83.263 65.7916 83.2472C65.9834 83.2314 66.1671 83.1628 66.3223 83.0489C66.5163 82.9066 66.6581 82.7045 66.7258 82.4736C66.7727 82.307 66.7727 82.2132 66.7831 82.2132C66.7935 82.2132 66.7831 82.2367 66.7831 82.2835C66.7847 82.3518 66.7777 82.42 66.7623 82.4866C66.7085 82.7387 66.5675 82.9637 66.364 83.1218C66.2126 83.2414 66.0333 83.3206 65.843 83.352C65.6527 83.3834 65.4575 83.366 65.2757 83.3015C65.0505 83.2217 64.8556 83.0741 64.7177 82.879C64.5799 82.6839 64.5059 82.4508 64.5059 82.2119C64.5059 81.973 64.5799 81.74 64.7177 81.5449C64.8556 81.3498 65.0505 81.2022 65.2757 81.1224C65.4575 81.0578 65.6527 81.0404 65.843 81.0719C66.0333 81.1033 66.2126 81.1825 66.364 81.302C66.5675 81.4602 66.7085 81.6852 66.7623 81.9373C66.7776 82.0038 66.7846 82.072 66.7831 82.1403C66.7909 82.182 66.7883 82.208 66.7831 82.208Z" fill="#263238"/>
<path d="M67.391 84.1045C67.004 83.8072 66.6704 83.4462 66.4043 83.0371C66.6107 83.1692 66.7929 83.3356 66.9432 83.5292C67.1245 83.6938 67.276 83.8884 67.391 84.1045Z" fill="#263238"/>
<path d="M39.9146 81.7461H39.3184V81.5898H40.6904V81.7461H40.0942V83.2873H39.9146V81.7461Z" fill="#E0E0E0"/>
<path d="M41.9152 82.7004H40.8504C40.854 82.7627 40.8699 82.8236 40.8972 82.8797C40.9244 82.9358 40.9625 82.986 41.0092 83.0274C41.0558 83.0687 41.1102 83.1005 41.1692 83.1208C41.2282 83.1411 41.2906 83.1495 41.3528 83.1456C41.426 83.1469 41.4986 83.1327 41.5658 83.1039C41.6331 83.0752 41.6936 83.0327 41.7433 82.979L41.8397 83.0884C41.7784 83.1578 41.7025 83.2127 41.6174 83.2492C41.5323 83.2856 41.4401 83.3027 41.3476 83.2992C41.26 83.3043 41.1722 83.2911 41.0899 83.2605C41.0077 83.2298 40.9327 83.1824 40.8697 83.1211C40.8068 83.0599 40.7573 82.9863 40.7244 82.9049C40.6915 82.8235 40.6758 82.7361 40.6785 82.6484C40.6743 82.5643 40.6872 82.4803 40.7167 82.4014C40.7461 82.3226 40.7913 82.2506 40.8496 82.1898C40.9079 82.1291 40.978 82.081 41.0556 82.0483C41.1332 82.0157 41.2166 81.9993 41.3008 82.0001C41.385 81.9985 41.4687 82.0144 41.5465 82.0468C41.6243 82.0792 41.6946 82.1273 41.7528 82.1883C41.8111 82.2492 41.856 82.3216 41.8849 82.4007C41.9137 82.4799 41.9258 82.5643 41.9204 82.6484C41.9178 82.664 41.9152 82.6822 41.9152 82.7004ZM40.8478 82.5729H41.7538C41.7538 82.4527 41.706 82.3375 41.6211 82.2526C41.5361 82.1676 41.4209 82.1199 41.3008 82.1199C41.1806 82.1199 41.0654 82.1676 40.9804 82.2526C40.8955 82.3375 40.8478 82.4527 40.8478 82.5729Z" fill="#E0E0E0"/>
<path d="M43.0466 83.2861L42.6405 82.7654L42.2343 83.2861H42.0391L42.5441 82.63L42.0651 82.0078H42.2578L42.6405 82.5077L43.0232 82.0078H43.2132L42.7342 82.6274L43.2549 83.2835L43.0466 83.2861Z" fill="#E0E0E0"/>
<path d="M44.1977 83.2073C44.1239 83.2665 44.032 83.2987 43.9373 83.2984C43.887 83.3037 43.8362 83.2977 43.7885 83.2809C43.7408 83.2641 43.6975 83.2368 43.6616 83.2012C43.6257 83.1656 43.5982 83.1224 43.581 83.0748C43.5639 83.0272 43.5575 82.9764 43.5624 82.9261V82.1451H43.3359V82.0071H43.5624V81.7285H43.7343V82.0071H44.1222V82.1529H43.7343V82.9131C43.7298 82.9438 43.7324 82.9751 43.7418 83.0046C43.7511 83.0341 43.767 83.0612 43.7883 83.0837C43.8096 83.1063 43.8357 83.1237 43.8646 83.1347C43.8936 83.1457 43.9247 83.1501 43.9556 83.1474C44.0245 83.1483 44.0917 83.1253 44.1456 83.0823L44.1977 83.2073Z" fill="#E0E0E0"/>
<path d="M44.127 90.4473H36.8086V97.7656H44.127V90.4473Z" fill="#595959"/>
<g opacity="0.4">
<path d="M44.125 90.4473H36.8066V97.7656H44.125V90.4473Z" fill="black"/>
</g>
<path d="M58.2061 91.1836C58.2061 91.2174 55.7588 91.2461 52.7388 91.2461C49.7188 91.2461 47.2715 91.2174 47.2715 91.1836C47.2715 91.1497 49.7161 91.1211 52.7388 91.1211C55.7614 91.1211 58.2061 91.1497 58.2061 91.1836Z" fill="#595959"/>
<path d="M66.9232 93.4251C66.9232 93.4616 62.5233 93.4876 57.1003 93.4876C51.6772 93.4876 47.2773 93.4616 47.2773 93.4251C47.2773 93.3887 51.6746 93.3652 57.1003 93.3652C62.5259 93.3652 66.9232 93.3913 66.9232 93.4251Z" fill="#263238"/>
<path d="M66.6915 95.0234C66.6915 95.0573 62.3437 95.0859 56.9831 95.0859C51.6225 95.0859 47.2773 95.0573 47.2773 95.0234C47.2773 94.9896 51.6225 94.9609 56.9831 94.9609C62.3437 94.9609 66.6915 94.9948 66.6915 95.0234Z" fill="#263238"/>
<path d="M58.7404 96.5586C58.7404 96.5924 56.1734 96.6211 53.0128 96.6211C49.8522 96.6211 47.2852 96.5924 47.2852 96.5586C47.2852 96.5247 49.8496 96.4961 53.0128 96.4961C56.176 96.4961 58.7404 96.5247 58.7404 96.5586Z" fill="#263238"/>
<path d="M44.127 102.586H36.8086V109.904H44.127V102.586Z" fill="#595959"/>
<path d="M58.2061 103.375C58.2061 103.409 55.7588 103.437 52.7388 103.437C49.7188 103.437 47.2715 103.409 47.2715 103.375C47.2715 103.341 49.7161 103.312 52.7388 103.312C55.7614 103.312 58.2061 103.354 58.2061 103.375Z" fill="#595959"/>
<path d="M66.9232 105.621C66.9232 105.655 62.5233 105.681 57.1003 105.681C51.6772 105.681 47.2773 105.655 47.2773 105.621C47.2773 105.587 51.6746 105.559 57.1003 105.559C62.5259 105.559 66.9232 105.585 66.9232 105.621Z" fill="#263238"/>
<path d="M66.6915 107.221C66.6915 107.255 62.3437 107.283 56.9831 107.283C51.6225 107.283 47.2773 107.255 47.2773 107.221C47.2773 107.187 51.6225 107.158 56.9831 107.158C62.3437 107.158 66.6915 107.187 66.6915 107.221Z" fill="#263238"/>
<path d="M58.7404 108.75C58.7404 108.784 56.1734 108.812 53.0128 108.812C49.8522 108.812 47.2852 108.784 47.2852 108.75C47.2852 108.716 49.8496 108.688 53.0128 108.688C56.176 108.688 58.7404 108.716 58.7404 108.75Z" fill="#263238"/>
<path d="M44.127 114.781H36.8086V122.1H44.127V114.781Z" fill="#595959"/>
<path d="M58.2061 115.568C58.2061 115.602 55.7588 115.631 52.7388 115.631C49.7188 115.631 47.2715 115.602 47.2715 115.568C47.2715 115.534 49.7161 115.506 52.7388 115.506C55.7614 115.506 58.2061 115.534 58.2061 115.568Z" fill="#595959"/>
<path d="M66.9232 117.812C66.9232 117.846 62.5233 117.875 57.1003 117.875C51.6772 117.875 47.2773 117.846 47.2773 117.812C47.2773 117.779 51.6746 117.75 57.1003 117.75C62.5259 117.75 66.9232 117.776 66.9232 117.812Z" fill="#263238"/>
<path d="M66.6915 119.414C66.6915 119.448 62.3437 119.477 56.9831 119.477C51.6225 119.477 47.2773 119.448 47.2773 119.414C47.2773 119.38 51.6225 119.352 56.9831 119.352C62.3437 119.352 66.6915 119.38 66.6915 119.414Z" fill="#263238"/>
<path d="M58.7404 120.941C58.7404 120.975 56.1734 121.004 53.0128 121.004C49.8522 121.004 47.2852 120.975 47.2852 120.941C47.2852 120.908 49.8496 120.879 53.0128 120.879C56.176 120.879 58.7404 120.908 58.7404 120.941Z" fill="#263238"/>
<path d="M44.127 126.975H36.8086V134.293H44.127V126.975Z" fill="#595959"/>
<path d="M58.2061 127.76C58.2061 127.794 55.7588 127.822 52.7388 127.822C49.7188 127.822 47.2715 127.794 47.2715 127.76C47.2715 127.726 49.7161 127.697 52.7388 127.697C55.7614 127.697 58.2061 127.726 58.2061 127.76Z" fill="#455A64"/>
<path d="M66.9232 130.004C66.9232 130.038 62.5233 130.066 57.1003 130.066C51.6772 130.066 47.2773 130.038 47.2773 130.004C47.2773 129.97 51.6746 129.941 57.1003 129.941C62.5259 129.941 66.9232 129.97 66.9232 130.004Z" fill="#263238"/>
<path d="M66.6915 131.605C66.6915 131.639 62.3437 131.668 56.9831 131.668C51.6225 131.668 47.2773 131.639 47.2773 131.605C47.2773 131.572 51.6225 131.543 56.9831 131.543C62.3437 131.543 66.6915 131.572 66.6915 131.605Z" fill="#263238"/>
<path d="M58.7404 133.133C58.7404 133.167 56.1734 133.195 53.0128 133.195C49.8522 133.195 47.2852 133.167 47.2852 133.133C47.2852 133.099 49.8496 133.07 53.0128 133.07C56.176 133.07 58.7404 133.099 58.7404 133.133Z" fill="#263238"/>
<path d="M44.127 139.166H36.8086V146.484H44.127V139.166Z" fill="#E0E0E0"/>
<path d="M58.2061 139.953C58.2061 139.987 55.7588 140.016 52.7388 140.016C49.7188 140.016 47.2715 139.987 47.2715 139.953C47.2715 139.919 49.7161 139.891 52.7388 139.891C55.7614 139.891 58.2061 139.919 58.2061 139.953Z" fill="#E0E0E0"/>
<path d="M66.9232 142.195C66.9232 142.229 62.5233 142.258 57.1003 142.258C51.6772 142.258 47.2773 142.229 47.2773 142.195C47.2773 142.161 51.6746 142.133 57.1003 142.133C62.5259 142.133 66.9232 142.161 66.9232 142.195Z" fill="#EBEBEB"/>
<path d="M66.6915 143.797C66.6915 143.833 62.3437 143.859 56.9831 143.859C51.6225 143.859 47.2773 143.833 47.2773 143.797C47.2773 143.76 51.6225 143.734 56.9831 143.734C62.3437 143.734 66.6915 143.763 66.6915 143.797Z" fill="#EBEBEB"/>
<path d="M58.7404 145.324C58.7404 145.361 56.1734 145.387 53.0128 145.387C49.8522 145.387 47.2852 145.361 47.2852 145.324C47.2852 145.288 49.8496 145.262 53.0128 145.262C56.176 145.262 58.7404 145.29 58.7404 145.324Z" fill="#EBEBEB"/>
<g opacity="0.3">
<path d="M44.125 126.975H36.8066V134.293H44.125V126.975Z" fill="black"/>
</g>
<g opacity="0.3">
<path d="M44.125 102.586H36.8066V109.904H44.125V102.586Z" fill="black"/>
</g>
<path d="M45.6207 81.0573L37.0682 85.8138L31.0282 76.9125L31.0438 76.6314C31.0438 76.4778 31.0646 76.3085 31.0829 76.1107C31.1065 75.889 31.1663 75.6726 31.2599 75.4702C31.368 75.2147 31.5099 74.9748 31.6817 74.7569C31.8587 74.5746 31.7285 74.2726 31.5046 74.3117C31.2807 74.3507 30.7835 74.8324 30.5023 75.6134C30.2211 76.3945 29.815 75.176 29.6588 74.7386C29.5025 74.3013 28.9584 72.9683 28.7866 72.9162C28.5262 72.8355 28.3987 73.0959 28.5653 73.5306C28.7319 73.9654 29.1381 75.3036 28.9037 75.3791C28.6694 75.4546 27.9092 73.213 27.9092 73.213C27.9092 73.213 27.8233 72.7053 27.5525 72.786C27.0605 72.9292 28.0472 75.2515 28.1461 75.4676C28.2164 75.6212 27.9665 75.7123 27.8858 75.5457C27.8051 75.3791 27.175 73.2885 26.6752 73.4317C26.2899 73.541 27.4562 75.3479 27.3651 75.8607C27.274 76.3736 26.6101 74.395 26.2456 74.5147C26.1102 74.559 26.0165 74.6111 26.5528 75.6889C26.8958 76.4516 27.2791 77.1955 27.7009 77.9175L33.6733 89.5889C34.0457 90.3182 34.6836 90.877 35.4556 91.1501C36.2277 91.4233 37.075 91.39 37.8233 91.0572L45.7222 87.5634L45.6207 81.0573Z" fill="#FFBE9D"/>
<path d="M29.9981 77.7994C29.9981 77.7994 29.9043 77.7447 29.821 77.5989C29.7143 77.4091 29.6595 77.1944 29.6622 76.9767C29.6646 76.7579 29.7238 76.5435 29.834 76.3544C29.9199 76.2139 30.0033 76.1488 30.0137 76.1618C29.8761 76.4123 29.8027 76.6929 29.8 76.9786C29.7973 77.2644 29.8653 77.5463 29.9981 77.7994Z" fill="#EB996E"/>
<path d="M16.4774 79.1817L27.0397 82.8266C27.252 82.9006 27.4851 82.8874 27.6876 82.7898C27.8902 82.6921 28.0458 82.5181 28.1201 82.3059L30.8928 74.2794C30.9669 74.067 30.9536 73.834 30.856 73.6314C30.7584 73.4289 30.5843 73.2733 30.3721 73.1989L21.1871 70.0331C20.9305 69.9466 20.6504 69.9634 20.406 70.08L18.7138 70.9027C18.591 70.9648 18.4818 71.0506 18.3925 71.1552C18.3031 71.2597 18.2353 71.381 18.1931 71.5119L16.0036 78.1924C15.9367 78.3865 15.9489 78.5991 16.0376 78.7842C16.1262 78.9694 16.2842 79.1122 16.4774 79.1817Z" fill="#595959"/>
<path d="M19.9895 71.9828L17.7422 78.4837C17.6548 78.7365 17.7889 79.0122 18.0417 79.0996L26.5996 82.0581C26.8524 82.1454 27.1281 82.0114 27.2155 81.7586L29.4628 75.2577C29.5502 75.0049 29.4161 74.7292 29.1634 74.6418L20.6054 71.6834C20.3526 71.596 20.0769 71.7301 19.9895 71.9828Z" fill="#EBEBEB"/>
<path d="M23.2758 72.6055C23.3123 72.6186 22.7551 74.2874 22.0574 76.3363C21.3597 78.3853 20.7557 80.0359 20.7114 80.0228C20.6672 80.0098 21.2321 78.341 21.9298 76.2921C22.6276 74.2431 23.2394 72.5925 23.2758 72.6055Z" fill="#595959"/>
<path d="M21.4367 77.8064C21.4367 77.8064 21.4705 77.8064 21.533 77.8064L21.5174 77.848C21.3039 77.8011 20.6817 77.6085 19.9553 77.356C19.4029 77.1883 18.8641 76.9785 18.3438 76.7285C18.9083 76.8502 19.462 77.0174 19.9996 77.2284C20.7233 77.4887 21.3325 77.71 21.5304 77.8064L21.5148 77.848C21.4601 77.8428 21.4367 77.8142 21.4367 77.8064Z" fill="#595959"/>
<path d="M22.5844 74.7823C22.034 74.6642 21.4942 74.5014 20.9703 74.2954C20.4342 74.1331 19.9119 73.9285 19.4082 73.6836C19.9576 73.8013 20.4965 73.9632 21.0198 74.1678C21.5569 74.3306 22.0801 74.5361 22.5844 74.7823Z" fill="#595959"/>
<path d="M26.8557 73.8634C26.8921 73.8634 26.335 75.54 25.6424 77.5837C24.9499 79.6274 24.3407 81.2728 24.299 81.2598C24.2574 81.2468 24.8197 79.5832 25.5149 77.5395C26.21 75.4957 26.8218 73.8503 26.8557 73.8634Z" fill="#595959"/>
<path d="M28.9498 77.0896C28.4528 76.9889 27.9658 76.8443 27.4944 76.6574C27.0088 76.5143 26.5373 76.3269 26.0859 76.0977C26.582 76.2033 27.068 76.3514 27.5387 76.5402C28.0247 76.6803 28.497 76.8642 28.9498 77.0896Z" fill="#595959"/>
<path d="M28.1105 80.2224C27.5782 80.1067 27.0559 79.9492 26.5484 79.7511C26.0251 79.5906 25.5158 79.3877 25.0254 79.1445C25.5583 79.2566 26.0809 79.4134 26.5875 79.6132C27.1116 79.7726 27.6211 79.9764 28.1105 80.2224Z" fill="#595959"/>
<path d="M15.3741 77.1736C15.3221 76.6294 15.7048 76.567 15.7048 76.567C15.6828 76.3986 15.7006 76.2273 15.7568 76.0671C15.7854 75.9808 15.8356 75.9031 15.9025 75.8416C15.9695 75.7801 16.0511 75.7367 16.1396 75.7156C16.1409 75.5033 16.188 75.2937 16.2775 75.1012C16.4051 74.919 17.0221 74.8252 17.0221 74.8252V75.2704L16.9388 75.4136C16.9388 75.4136 17.3085 76.304 17.5012 75.7521C17.7615 74.971 18.2822 74.4868 18.5035 74.4503C18.7248 74.4139 18.8576 74.7107 18.6805 74.8981C18.5077 75.1153 18.3657 75.3553 18.2588 75.6115C18.1637 75.8124 18.1038 76.0281 18.0817 76.2493C18.0609 76.442 18.0505 76.6112 18.0427 76.77L18.0271 77.0486L24.0671 85.9499L32.6195 81.1959L35.7958 86.3196L24.83 91.1881C24.082 91.5211 23.2349 91.5547 22.4629 91.282C21.691 91.0094 21.0529 90.4512 20.68 89.7223L15.5121 79.0325C15.5121 79.0325 14.8977 77.9911 15.0149 77.5667C15.0338 77.4749 15.0772 77.3899 15.1404 77.3207C15.2037 77.2515 15.2844 77.2007 15.3741 77.1736Z" fill="#FFBE9D"/>
<path d="M27.7912 83.8711C27.7197 83.9332 27.641 83.9865 27.5569 84.0299C27.4007 84.1236 27.1742 84.2564 26.893 84.4178C26.3306 84.7407 25.5496 85.1806 24.68 85.6571L24.1281 85.9591H24.1437C23.9041 86.2057 23.7225 86.5026 23.6122 86.8282C23.5019 87.1538 23.4655 87.5 23.5059 87.8414C23.5491 88.1176 23.6224 88.3882 23.7246 88.6485C23.6727 88.5925 23.6321 88.5271 23.6048 88.4558C23.5149 88.265 23.4518 88.0626 23.4174 87.8544C23.3671 87.5378 23.383 87.2142 23.4642 86.9041C23.5679 86.5135 23.7685 86.1553 24.0474 85.8628L24.5993 85.5607C25.4689 85.0817 26.2577 84.6573 26.8331 84.3553C27.1195 84.2043 27.3538 84.095 27.5152 84.0039C27.6007 83.9471 27.6935 83.9025 27.7912 83.8711Z" fill="#EB996E"/>
<path d="M16.4001 76.3299C16.3766 76.3586 16.2334 76.2726 16.1397 76.093C16.046 75.9134 16.1137 75.7598 16.1423 75.7598C16.171 75.7598 16.21 75.8977 16.2777 76.0488C16.3454 76.1998 16.4261 76.3013 16.4001 76.3299Z" fill="#EB996E"/>
<path d="M15.9673 77.2935C15.9386 77.3169 15.7981 77.1867 15.7069 76.9706C15.6158 76.7545 15.634 76.5671 15.6705 76.5645C15.7069 76.5619 15.7564 76.7285 15.8319 76.9212C15.9074 77.1138 15.9985 77.27 15.9673 77.2935Z" fill="#EB996E"/>
<path d="M15.562 77.8098C15.536 77.8333 15.4032 77.7213 15.3407 77.5235C15.2782 77.3256 15.3199 77.159 15.3563 77.1642C15.3928 77.1694 15.4136 77.3152 15.4683 77.4844C15.523 77.6536 15.5907 77.7838 15.562 77.8098Z" fill="#EB996E"/>
<path d="M59.3675 148.613L50.5391 103.461C50.5235 103.393 50.5052 103.331 50.4896 103.263C49.1514 97.9573 48.097 96.6582 48.097 96.6582L35.0588 97.0123C34.0357 98.8503 33.9055 103.261 33.9055 103.261C33.7649 103.802 35.7748 147.692 35.7748 147.692L41.177 147.676L42.6688 106.046L54.3297 148.686L59.3675 148.613Z" fill="#263238"/>
<path d="M46.1116 104.636C46.1116 104.678 44.6693 105.092 42.8703 105.558C41.0713 106.024 39.6003 106.368 39.5899 106.323C39.5795 106.279 41.0296 105.868 42.8286 105.402C44.6276 104.936 46.0986 104.595 46.1116 104.636Z" fill="#455A64"/>
<path d="M36.2869 147.668L35.4355 150.516L40.4785 150.456L40.7284 147.668H36.2869Z" fill="#595959"/>
<path d="M40.5859 149.977C40.3443 150.025 40.0979 150.044 39.8517 150.034C39.3961 150.034 38.7687 150.034 38.0762 150.034L36.3058 149.977C36.0606 149.984 35.8154 149.965 35.5742 149.92C35.816 149.873 36.0624 149.855 36.3084 149.865C36.7614 149.852 37.3888 149.865 38.0814 149.865L39.8517 149.922C40.0977 149.914 40.3438 149.933 40.5859 149.977Z" fill="#263238"/>
<path d="M38.4119 147.836C38.4562 147.836 38.4666 148.315 38.4328 148.901C38.3989 149.487 38.339 149.958 38.2948 149.955C38.2505 149.953 38.2401 149.476 38.2739 148.893C38.3078 148.31 38.3677 147.833 38.4119 147.836Z" fill="#263238"/>
<g opacity="0.6">
<path d="M35.4362 150.518L40.4791 150.458L40.5234 149.979L35.5195 149.914L35.4336 150.461" fill="white"/>
</g>
<path d="M59.3034 149.246V148.613L54.3333 148.686L54.3125 150.407L54.6197 150.425C55.9943 150.49 61.61 150.67 62.5265 150.407C63.5366 150.115 59.3034 149.246 59.3034 149.246Z" fill="#595959"/>
<g opacity="0.6">
<path d="M56.1043 150.365C56.022 149.967 55.7923 149.616 55.4613 149.381C55.1239 149.136 54.7108 149.018 54.2949 149.047V150.349L56.1043 150.365Z" fill="white"/>
</g>
<g opacity="0.6">
<path d="M61.3699 149.738C61.3699 149.738 62.8538 150.131 62.6716 150.358C62.4894 150.584 56.806 150.618 54.2988 150.407V150.303L60.9273 150.337C60.9273 150.337 61.0783 149.751 61.3699 149.738Z" fill="white"/>
</g>
<path d="M54.2305 150.299H54.3164H54.5767L55.4801 150.331C56.2456 150.354 57.3026 150.375 58.4689 150.372C59.6353 150.37 60.6897 150.344 61.4551 150.318L62.3585 150.281L62.6032 150.266H62.6892H62.3585L61.4525 150.286C60.6897 150.302 59.6301 150.32 58.4663 150.323C57.3026 150.326 56.2456 150.323 55.4827 150.299L54.5767 150.284H54.2305V150.299Z" fill="#263238"/>
<path d="M60.9346 150.407C60.9738 150.267 61.0298 150.133 61.1013 150.006C61.1895 149.887 61.2917 149.779 61.4059 149.684C61.2553 149.735 61.1286 149.84 61.0492 149.978C60.9558 150.1 60.9146 150.255 60.9346 150.407Z" fill="#263238"/>
<path d="M59.4612 149.72C59.4769 149.72 59.5446 149.65 59.6175 149.543C59.6904 149.436 59.7346 149.342 59.7216 149.335C59.7086 149.327 59.6383 149.405 59.5654 149.512C59.4925 149.618 59.4482 149.712 59.4612 149.72Z" fill="#263238"/>
<path d="M59.069 149.522C59.069 149.535 59.1575 149.486 59.2434 149.413C59.3294 149.34 59.3892 149.275 59.3762 149.262C59.3632 149.249 59.2877 149.301 59.2018 149.371C59.1159 149.441 59.0456 149.512 59.069 149.522Z" fill="#263238"/>
<path d="M58.8105 149.087C58.8942 149.116 58.9829 149.126 59.0709 149.119C59.1587 149.128 59.2476 149.119 59.3312 149.09C59.1596 149.053 58.9822 149.053 58.8105 149.09V149.087Z" fill="#263238"/>
<path d="M58.709 148.78C58.7973 148.832 58.8981 148.858 59.0006 148.858C59.1021 148.874 59.206 148.86 59.3 148.819C59.2018 148.804 59.1025 148.798 59.0032 148.8C58.906 148.785 58.8075 148.778 58.709 148.78Z" fill="#263238"/>
<path d="M59.627 149.317C59.7331 149.333 59.841 149.333 59.9472 149.317C60.0616 149.302 60.1747 149.279 60.2856 149.247C60.3533 149.229 60.4187 149.203 60.4809 149.171C60.5172 149.15 60.5449 149.117 60.559 149.077C60.5634 149.055 60.5611 149.031 60.5523 149.01C60.5435 148.989 60.5286 148.971 60.5095 148.958C60.3876 148.902 60.2507 148.888 60.1199 148.917C59.9892 148.947 59.8718 149.019 59.7858 149.122C59.7366 149.179 59.701 149.247 59.6816 149.32C59.6816 149.369 59.6816 149.4 59.6816 149.4C59.7111 149.305 59.7598 149.216 59.8248 149.14C59.8945 149.061 59.9846 149.004 60.0852 148.973C60.2113 148.934 60.3475 148.942 60.4679 148.997C60.5173 149.033 60.4991 149.088 60.4418 149.119C60.3845 149.149 60.3243 149.174 60.2622 149.192C60.1551 149.227 60.0454 149.254 59.9342 149.273C59.7493 149.307 59.627 149.307 59.627 149.317Z" fill="#263238"/>
<path d="M59.7123 149.331C59.7488 149.269 59.7609 149.195 59.7462 149.125C59.7359 149.046 59.7054 148.972 59.6577 148.909C59.6298 148.864 59.5915 148.827 59.5462 148.801C59.5008 148.775 59.4497 148.76 59.3973 148.758C59.3818 148.76 59.367 148.766 59.3537 148.774C59.3404 148.783 59.3289 148.794 59.3199 148.806C59.3109 148.819 59.3046 148.834 59.3014 148.849C59.2981 148.865 59.298 148.88 59.301 148.896C59.3084 148.944 59.3271 148.989 59.3556 149.029C59.4002 149.094 59.4517 149.154 59.5093 149.208C59.5609 149.261 59.623 149.301 59.6915 149.328C59.6915 149.328 59.629 149.273 59.5405 149.18C59.489 149.126 59.4436 149.066 59.4051 149.003C59.3609 148.94 59.3296 148.826 59.4051 148.812C59.4806 148.799 59.5665 148.88 59.616 148.937C59.6593 148.995 59.6904 149.06 59.7071 149.13C59.7157 149.197 59.7175 149.264 59.7123 149.331Z" fill="#263238"/>
<path d="M54.3223 149.034C54.3223 149.034 54.4655 149.021 54.6894 149.034C54.9792 149.064 55.2563 149.169 55.4938 149.338C55.7212 149.505 55.8964 149.734 55.9989 149.997C56.077 150.195 56.0848 150.328 56.0978 150.325C56.1032 150.295 56.1032 150.264 56.0978 150.234C56.0874 150.145 56.0683 150.058 56.0406 149.973C55.9418 149.696 55.76 149.455 55.5199 149.284C55.2746 149.108 54.9852 149.004 54.6841 148.984C54.5933 148.974 54.5016 148.974 54.4108 148.984C54.3788 148.996 54.3489 149.012 54.3223 149.034Z" fill="#263238"/>
<path d="M56.7285 149.912C57.2102 149.994 57.7022 149.994 58.1839 149.912C58.1839 149.897 57.8558 149.912 57.4549 149.912C57.0539 149.912 56.7285 149.894 56.7285 149.912Z" fill="#263238"/>
<path d="M55.752 149.912C55.752 149.925 55.7806 149.977 55.8144 150.044C55.8483 150.112 55.8665 150.177 55.8821 150.175C55.8977 150.172 55.9082 150.102 55.8691 150.024C55.8301 149.946 55.7624 149.901 55.752 149.912Z" fill="#263238"/>
<path d="M55.3837 149.488C55.3706 149.501 55.4045 149.548 55.4566 149.598C55.5086 149.647 55.5607 149.676 55.5711 149.665C55.5815 149.655 55.5503 149.606 55.4982 149.556C55.4461 149.507 55.3967 149.478 55.3837 149.488Z" fill="#263238"/>
<path d="M54.8538 149.295C54.8538 149.31 54.9241 149.31 54.997 149.334C55.0699 149.357 55.1245 149.394 55.1375 149.383C55.1506 149.373 55.1089 149.31 55.0178 149.282C54.9267 149.253 54.8486 149.282 54.8538 149.295Z" fill="#263238"/>
<path d="M54.4805 149.206C54.4805 149.219 54.5039 149.243 54.5456 149.258C54.5872 149.274 54.6263 149.274 54.6315 149.258C54.6367 149.243 54.608 149.219 54.5664 149.206C54.5247 149.193 54.4883 149.19 54.4805 149.206Z" fill="#263238"/>
<path d="M47.9973 85.3654L46.5732 92.7385C49.5282 96.8493 49.7963 100.374 49.7963 100.374L33.9151 102.236C33.9151 99.3565 35.9979 94.6989 35.9979 94.6989L34.6441 87.4091L30.0854 89.3878L27.6512 83.4362C27.5913 83.5898 31.0357 81.3821 33.7173 79.9606C34.9904 79.2863 35.8521 78.6745 37.2918 78.6719H44.0088C44.3146 78.7051 44.6169 78.7652 44.9122 78.8515C44.9122 78.8515 48.2629 78.6719 48.2629 81.895C48.2373 83.0569 48.146 84.2164 47.9895 85.368" fill="#595959"/>
<path d="M40.1973 93.1793C40.3128 92.6138 40.5185 92.0705 40.8065 91.5703C40.7687 91.8571 40.687 92.1363 40.5644 92.3982C40.4821 92.6756 40.3584 92.939 40.1973 93.1793Z" fill="#FAFAFA"/>
<path d="M40.4515 96.0179C40.0388 95.6931 39.6864 95.2983 39.4102 94.8516C39.6319 94.9963 39.8266 95.1787 39.9855 95.3905C40.1752 95.5718 40.3328 95.7839 40.4515 96.0179Z" fill="#FAFAFA"/>
<path d="M43.6858 93.5378C43.4501 93.6419 43.1982 93.7044 42.9412 93.7227C42.6909 93.7838 42.432 93.8014 42.1758 93.7748C42.4116 93.6706 42.6634 93.6072 42.9204 93.5873C43.1704 93.5247 43.4298 93.5079 43.6858 93.5378Z" fill="#FAFAFA"/>
<path d="M43.9914 91.0991C43.8155 90.8324 43.6779 90.5423 43.5826 90.2374C43.4467 89.9481 43.3513 89.6415 43.2988 89.3262C43.4758 89.5922 43.6135 89.8825 43.7076 90.1879C43.8445 90.4768 43.94 90.7836 43.9914 91.0991Z" fill="#FAFAFA"/>
<path d="M46.3585 90.541C46.251 90.7939 46.1033 91.0278 45.9211 91.2335C45.7756 91.4668 45.5916 91.6736 45.377 91.8454C45.4853 91.5929 45.6329 91.3591 45.8143 91.1528C45.9616 90.921 46.1454 90.7144 46.3585 90.541Z" fill="#FAFAFA"/>
<path d="M46.1801 94.9905C45.8237 94.5339 45.5408 94.0244 45.3418 93.4805C45.6971 93.9378 45.9799 94.4471 46.1801 94.9905Z" fill="#FAFAFA"/>
<path d="M43.7615 97.1077C43.5841 96.9272 43.4388 96.7176 43.3319 96.4881C43.1873 96.2797 43.0814 96.0468 43.0195 95.8008C43.1977 95.9807 43.3431 96.1904 43.4491 96.4204C43.5938 96.6288 43.6996 96.8617 43.7615 97.1077Z" fill="#FAFAFA"/>
<path d="M41.6272 99.4636C41.3617 99.4291 41.1001 99.3689 40.8461 99.284C40.5845 99.2409 40.3274 99.1738 40.0781 99.0835C40.3469 99.0405 40.6222 99.0638 40.88 99.1512C41.1505 99.1939 41.4068 99.3011 41.6272 99.4636Z" fill="#FAFAFA"/>
<path d="M46.1891 98.168C46.0144 98.4145 45.8137 98.6414 45.5903 98.8449C45.4008 99.0796 45.1851 99.2919 44.9473 99.4775C45.0833 99.2038 45.2687 98.9576 45.494 98.7511C45.6868 98.5146 45.9227 98.3167 46.1891 98.168Z" fill="#FAFAFA"/>
<path d="M48.2913 99.3583C48.2647 99.0969 48.2823 98.8329 48.3434 98.5773C48.3601 98.3139 48.4236 98.0556 48.5308 97.8145C48.5574 98.0759 48.5398 98.3399 48.4787 98.5955C48.4601 98.8586 48.3967 99.1165 48.2913 99.3583Z" fill="#FAFAFA"/>
<path d="M37.0702 98.6699C37.0267 99.3316 36.8927 99.9842 36.6719 100.61C36.7153 99.9478 36.8494 99.2952 37.0702 98.6699Z" fill="#FAFAFA"/>
<path d="M37.8446 96.5388C37.5634 96.4068 37.2949 96.2491 37.0428 96.0676C36.7651 95.9214 36.5034 95.7469 36.2617 95.5469C36.5667 95.6238 36.8546 95.7571 37.1105 95.94C37.3926 96.0888 37.6422 96.2924 37.8446 96.5388Z" fill="#FAFAFA"/>
<path d="M38.2123 92.4004C38.2383 92.429 38.0326 92.6607 37.7567 92.9393C37.6019 93.1182 37.4157 93.2674 37.2073 93.3793C37.1813 93.3507 37.3844 93.119 37.6603 92.8404C37.8157 92.6611 38.0028 92.5119 38.2123 92.4004Z" fill="#FAFAFA"/>
<path d="M37.098 90.0362C36.888 89.9113 36.7027 89.749 36.5513 89.5571C36.3673 89.3962 36.2153 89.2018 36.1035 88.9844C36.3128 89.1102 36.498 89.2725 36.6502 89.4634C36.8343 89.6244 36.9862 89.8187 37.098 90.0362Z" fill="#FAFAFA"/>
<path d="M40.5452 88.4316C40.3625 88.6217 40.1352 88.7631 39.8839 88.843C39.6475 88.9615 39.3854 89.0197 39.1211 89.0122C39.3482 88.892 39.5862 88.7935 39.8318 88.718C40.0597 88.5995 40.2986 88.5036 40.5452 88.4316Z" fill="#FAFAFA"/>
<path d="M45.6699 87.6754C45.7427 87.4346 45.8468 87.2043 45.9797 86.9907C46.0722 86.7568 46.1938 86.5355 46.3416 86.332C46.25 86.8346 46.017 87.3006 45.6699 87.6754Z" fill="#FAFAFA"/>
<path d="M41.7324 86.1379C41.7663 86.1171 41.9537 86.3748 42.2063 86.6742C42.3775 86.8421 42.5279 87.03 42.6541 87.234C42.6306 87.2626 42.3625 87.0699 42.1021 86.7601C41.9288 86.5869 41.8017 86.373 41.7324 86.1379Z" fill="#FAFAFA"/>
<path d="M33.3553 85.5957C33.2493 86.0537 33.0557 86.4869 32.7852 86.8714C32.8926 86.4139 33.0861 85.9809 33.3553 85.5957Z" fill="#FAFAFA"/>
<path d="M30.7485 86.2378C30.5576 85.9622 30.4036 85.6629 30.2903 85.3474C30.1375 85.0487 30.0254 84.7308 29.957 84.4023C30.1479 84.6779 30.3019 84.9773 30.4152 85.2927C30.5681 85.5914 30.6801 85.9093 30.7485 86.2378Z" fill="#FAFAFA"/>
<path d="M32.3395 83.2485C32.0738 83.2109 31.8161 83.13 31.5766 83.009C31.3201 82.9284 31.0789 82.8052 30.8633 82.6445C31.1298 82.682 31.3884 82.7629 31.6287 82.8841C31.8847 82.964 32.1251 83.0873 32.3395 83.2485Z" fill="#FAFAFA"/>
<path d="M34.8284 79.8906C34.6477 80.1392 34.431 80.3594 34.1854 80.5441C33.97 80.765 33.7225 80.9519 33.4512 81.0986C33.6337 80.85 33.8512 80.629 34.0968 80.4426C34.3126 80.224 34.559 80.0381 34.8284 79.8906Z" fill="#FAFAFA"/>
<path d="M38.0465 66.0854C36.7265 66.6842 36.1954 68.1422 36.0652 69.4856C35.935 70.829 36.0652 72.2218 35.5445 73.4767C35.1097 74.5363 34.2141 75.5022 34.3131 76.6347C34.3886 77.4808 35.0186 78.2228 35.1332 79.0664C35.3571 80.6961 33.6258 82.1567 33.9408 83.7734C34.084 84.5154 35.7059 86.3326 36.3854 86.77L40.0069 86.153L40.4963 84.4894L40.84 86.0723L44.0735 85.6531L44.2375 83.8932L44.8884 85.4553L46.1615 85.6636C46.592 85.6814 47.0216 85.6117 47.4244 85.4586C47.8271 85.3056 48.1946 85.0724 48.5046 84.7732C48.789 84.4868 48.9855 84.125 49.0708 83.7306C49.1562 83.3361 49.1268 82.9255 48.9863 82.5472C48.5645 81.5058 47.2602 80.8289 47.0597 79.7354C46.8775 78.7435 47.6845 77.7646 47.432 76.7857C47.1482 75.6949 45.6903 75.1221 45.3362 74.0495C44.9144 72.7633 46.2656 71.3887 45.7397 70.1442C45.4299 69.4049 44.5395 68.9362 44.2974 68.1786C44.1334 67.6579 44.2974 67.0956 44.1933 66.5671C43.9876 65.6506 42.9566 65.057 41.9517 64.8488C40.7137 64.577 39.4192 64.7619 38.3068 65.3695C37.7951 65.6522 37.3576 66.0519 37.03 66.5361C36.7024 67.0203 36.494 67.5751 36.4219 68.1552" fill="#263238"/>
<path d="M40.0156 65.1541C40.6208 64.9231 41.2691 64.8269 41.9153 64.8723C42.5614 64.9177 43.1899 65.1035 43.7569 65.4168C44.3238 65.7302 44.8155 66.1635 45.1977 66.6865C45.5799 67.2094 45.8434 67.8095 45.9698 68.4449C46.1728 69.4654 46.0218 70.5719 46.4644 71.5118C46.9487 72.5349 48.0786 73.2379 48.2504 74.3548C48.4222 75.4716 47.61 76.4167 47.4433 77.4972C47.2663 78.6192 47.7974 79.757 47.6698 80.8817C47.6078 81.4464 47.3837 81.9812 47.0246 82.4214C46.6654 82.8617 46.1866 83.1886 45.6458 83.3629C45.105 83.5371 44.5253 83.5511 43.9767 83.4033C43.4281 83.2554 42.934 82.952 42.554 82.5297" fill="#263238"/>
<path d="M41.6996 73.7819C41.6202 73.8338 41.532 73.8709 41.4393 73.8912C41.2031 73.9669 40.958 74.0115 40.7103 74.024C40.3431 74.0438 39.9749 74.0114 39.6169 73.9277C39.1814 73.8179 38.7577 73.6662 38.3516 73.4747C37.9394 73.2985 37.5439 73.0859 37.1696 72.8394C36.8606 72.6376 36.5834 72.3911 36.3469 72.1078C36.19 71.9141 36.0676 71.6948 35.985 71.4596C35.9562 71.3756 35.9396 71.2879 35.9355 71.1992C35.9793 71.2815 36.0125 71.369 36.0345 71.4596C36.1345 71.6791 36.2651 71.8833 36.4224 72.0662C36.6624 72.3313 36.9375 72.5626 37.2399 72.7535C37.6116 72.9899 38.0016 73.1963 38.4062 73.3705C38.8053 73.5575 39.22 73.7091 39.6455 73.8235C39.9927 73.9109 40.3498 73.952 40.7077 73.9459C41.0429 73.9237 41.3751 73.8687 41.6996 73.7819Z" fill="#455A64"/>
<path d="M41.7467 72.8503C41.651 72.8572 41.5547 72.852 41.4603 72.8347C41.2017 72.799 40.9482 72.7326 40.7053 72.6368C39.903 72.3105 39.1944 71.7898 38.6434 71.1216C38.1028 70.4574 37.6145 69.7523 37.1828 69.0128C37.0162 68.7316 36.886 68.4921 36.8001 68.3385C36.7488 68.257 36.7077 68.1696 36.6777 68.0781C36.7431 68.1478 36.7991 68.2257 36.8444 68.3098L37.2661 68.9607C37.716 69.6846 38.2098 70.3801 38.7449 71.0435C39.2858 71.6948 39.9689 72.2131 40.7418 72.5587C41.0692 72.6803 41.405 72.7778 41.7467 72.8503Z" fill="#455A64"/>
<path d="M42.6058 73.4449C42.6189 73.4449 42.6787 73.5906 42.8662 73.8119C43.1176 74.1244 43.4539 74.3577 43.8347 74.4836C44.0939 74.5727 44.3685 74.6082 44.6418 74.5878C44.9536 74.5598 45.2526 74.4503 45.5087 74.2702C45.8126 74.0755 46.0556 73.7994 46.21 73.4732C46.3644 73.147 46.4239 72.784 46.3819 72.4256C46.3398 72.0672 46.1977 71.7279 45.972 71.4464C45.7462 71.1649 45.4459 70.9525 45.1052 70.8336C44.8146 70.7174 44.4983 70.6805 44.1888 70.7268C43.9174 70.7684 43.6576 70.8659 43.4259 71.0132C43.0876 71.2256 42.8166 71.5299 42.6449 71.8906C42.5251 72.1509 42.5017 72.3097 42.4887 72.3045C42.4829 72.2666 42.4829 72.2279 42.4887 72.19C42.5092 72.0801 42.5415 71.9727 42.585 71.8697C42.746 71.4864 43.018 71.16 43.3661 70.9325C43.6073 70.7736 43.8783 70.6655 44.1627 70.6149C44.4922 70.5603 44.8303 70.5954 45.1416 70.7164C45.5062 70.8409 45.828 71.066 46.07 71.3657C46.3121 71.6653 46.4643 72.0274 46.5093 72.41C46.5542 72.7925 46.4899 73.18 46.3239 73.5276C46.1579 73.8752 45.897 74.1687 45.5712 74.3743C45.2956 74.563 44.9749 74.6753 44.6418 74.6997C44.2912 74.7182 43.9415 74.6499 43.6236 74.501C43.3057 74.352 43.0295 74.127 42.8193 73.8458C42.7539 73.7555 42.698 73.6587 42.6527 73.5568C42.6328 73.5214 42.617 73.4839 42.6058 73.4449Z" fill="#455A64"/>
<path d="M43.4058 74.3456C43.2498 74.3126 43.1052 74.239 42.9867 74.1322C42.6794 73.8931 42.4567 73.5619 42.3513 73.1871C42.2459 72.8123 42.2632 72.4136 42.4009 72.0494C42.4451 71.8962 42.5296 71.7578 42.6456 71.6484C42.6639 71.6615 42.5701 71.8125 42.492 72.0806C42.3881 72.4273 42.3853 72.7964 42.484 73.1447C42.5827 73.4929 42.7788 73.8057 43.0492 74.0462C43.2548 74.2467 43.4137 74.3248 43.4058 74.3456Z" fill="#595959"/>
<path d="M45.9857 69.668C46.0352 69.7772 46.062 69.8953 46.0647 70.0152C46.0674 70.1351 46.0458 70.2543 46.0013 70.3657C45.9794 70.4837 45.9334 70.5959 45.8662 70.6953C45.799 70.7947 45.7121 70.8793 45.6108 70.9437C45.5796 70.9176 45.7722 70.6833 45.8712 70.3266C45.9701 69.97 45.9441 69.6732 45.9857 69.668Z" fill="#455A64"/>
<path d="M46.2757 71.7838C46.1961 71.9806 46.0753 72.1581 45.9216 72.3045C45.5713 72.6887 45.1263 72.9741 44.631 73.1322C44.1357 73.2903 43.6075 73.3155 43.0995 73.2053C42.8878 73.1742 42.6853 73.0979 42.5059 72.9814C42.5059 72.9606 42.7376 73.0517 43.1177 73.1116C43.61 73.1916 44.1143 73.1541 44.5894 73.0021C45.0645 72.85 45.4969 72.5878 45.8513 72.2368C46.1273 71.9764 46.2549 71.7708 46.2757 71.7838Z" fill="#455A64"/>
<path d="M42.9554 84.2527C42.9554 84.2527 42.9242 84.2292 42.8799 84.1772C42.8133 84.1013 42.7516 84.0213 42.695 83.9377C42.4881 83.6275 42.3251 83.2902 42.2108 82.9353C42.0416 82.4088 41.9478 81.861 41.9322 81.3081C41.9182 80.6339 41.9626 79.9597 42.065 79.2931C42.1613 78.5849 42.2759 77.9132 42.341 77.3014C42.4054 76.7607 42.4271 76.2157 42.4061 75.6716C42.3893 75.3055 42.3414 74.9414 42.2629 74.5834C42.2056 74.323 42.1613 74.1902 42.1717 74.1876C42.1822 74.185 42.1926 74.2189 42.216 74.284C42.2546 74.3771 42.2867 74.4728 42.3123 74.5703C42.4134 74.9282 42.4771 75.2955 42.5024 75.6664C42.5383 76.2158 42.5261 76.7672 42.4659 77.3144C42.4061 77.934 42.2941 78.6161 42.2056 79.3113C42.1049 79.9703 42.0579 80.6363 42.065 81.3029C42.0747 81.846 42.1571 82.3854 42.3097 82.9067C42.4563 83.3851 42.674 83.8389 42.9554 84.2527Z" fill="#455A64"/>
<path d="M47.481 82.5767C47.481 82.5767 47.4497 82.5767 47.3846 82.5976C47.2918 82.6138 47.1975 82.619 47.1035 82.6132C46.7551 82.5991 46.4147 82.5047 46.1089 82.3372C45.6534 82.0889 45.2668 81.731 44.9842 81.2958C44.6505 80.7668 44.397 80.1912 44.2318 79.5879C43.9028 78.5081 43.6676 77.4018 43.5289 76.2815C43.4768 75.8494 43.4508 75.5005 43.4378 75.2584C43.427 75.1328 43.427 75.0065 43.4378 74.8809C43.4683 75.0028 43.4866 75.1275 43.4924 75.2532C43.5211 75.4927 43.5627 75.8415 43.6252 76.2685C43.7882 77.381 44.0327 78.48 44.3568 79.5567C44.5201 80.1494 44.7674 80.7158 45.091 81.2385C45.3598 81.6601 45.7258 82.011 46.1584 82.2617C46.4505 82.4309 46.7754 82.5356 47.1113 82.5689C47.356 82.5819 47.4784 82.5637 47.481 82.5767Z" fill="#455A64"/>
</svg>
