<svg width="113" height="68" viewBox="0 0 113 68" fill="none" xmlns="http://www.w3.org/2000/svg">
<path d="M55.3905 0.321348C55.3317 0.595753 54.9593 2.26178 54.5869 4.0454C54.2341 5.82903 53.6069 8.76907 53.2149 10.6115C52.8229 12.4343 52.4309 14.3748 52.3133 14.9236C52.2153 15.4528 51.6861 17.9224 51.1569 20.4116C50.6277 22.8813 50.1769 25.1353 50.1377 25.4097L50.0789 25.8997L55.5277 25.9585C60.369 25.9977 60.957 25.9781 60.957 25.7037C60.957 25.5273 60.467 23.0773 59.879 20.2548C57.723 10.1019 57.233 7.80866 56.449 4.0454C55.5081 -0.443064 55.5473 -0.305861 55.3905 0.321348Z" fill="white"/>
<path d="M34.9144 9.24424C34.9439 9.45396 35.112 10.7312 35.3106 12.0919C35.5231 13.4474 35.841 15.6936 36.041 17.101C36.2359 18.4945 36.4613 19.9713 36.5202 20.3908C36.588 20.7912 36.8534 22.6787 37.1238 24.58C37.3892 26.4675 37.6542 28.1818 37.6976 28.3864L37.783 28.749L41.6599 27.3776C45.101 26.15 45.5127 25.9836 45.4415 25.7891C45.3958 25.6641 44.4131 24.0549 43.2645 22.2071C39.1037 15.5708 38.1617 14.0727 36.6302 11.609C34.7995 8.67201 34.8629 8.75908 34.9144 9.24424Z" fill="white"/>
<path d="M78.0277 11.2579C77.8858 11.4151 77.0137 12.3634 76.0973 13.3885C75.1938 14.4211 73.6745 16.1059 72.7231 17.1621C71.7791 18.2055 70.7908 19.3257 70.5068 19.64C70.2431 19.9489 68.9654 21.3632 67.6803 22.7904C66.4025 24.2047 65.2574 25.5077 65.1283 25.6723L64.9049 25.9703L68.4438 28.0648C71.593 29.9171 71.9847 30.1262 72.0883 29.9468C72.1548 29.8316 72.759 28.0454 73.4397 25.979C75.8616 18.53 76.4067 16.8464 77.3143 14.0911C78.393 10.8027 78.3669 10.9072 78.0277 11.2579Z" fill="white"/>
<path d="M96.0416 6.57447C92.6507 7.61329 91.3767 11.7881 93.6503 14.4342C96.022 17.2174 100.432 16.6294 101.941 13.3562C102.392 12.3762 102.431 10.3769 102 9.37731C101.098 7.22128 98.2956 5.88846 96.0416 6.57447ZM99.354 7.47608C100.138 7.86809 100.961 8.7501 101.353 9.63212C102.588 12.2978 100.393 15.6102 97.4136 15.6102C95.1987 15.6102 93.1015 13.4738 93.1015 11.2197C93.1015 9.67132 94.5911 7.75049 96.1788 7.24088C97.0216 6.96648 98.6092 7.08408 99.354 7.47608Z" fill="white"/>
<path d="M95.6492 11.2968V13.8448H96.1392C96.6096 13.8448 96.6292 13.786 96.6292 12.7472C96.6292 11.6888 96.6488 11.6692 97.1584 11.728C97.5308 11.7672 97.864 12.0612 98.3736 12.806C98.9224 13.6488 99.1772 13.8448 99.6084 13.8448C99.9024 13.8448 100.157 13.786 100.157 13.688C100.157 13.6096 99.8044 13.0804 99.3732 12.512C98.9224 11.924 98.7068 11.4928 98.8636 11.4928C99.3144 11.4928 99.7652 10.7872 99.7652 10.062C99.7652 9.02318 99.2556 8.74877 97.276 8.74877H95.6492V11.2968ZM98.7264 9.84639C98.942 10.4344 98.5108 10.8068 97.5308 10.8656L96.6292 10.9244V10.2384V9.53278H97.6092C98.354 9.53278 98.6284 9.61119 98.7264 9.84639Z" fill="white"/>
<path d="M20.5804 27.9573C20.8548 28.1729 21.4232 28.5845 21.8544 28.8785C22.2856 29.1725 22.952 29.6625 23.3244 29.9369C25.304 31.4265 31.2037 35.6406 31.4389 35.719C31.6153 35.7778 32.3209 35.1898 33.2617 34.2098C34.1046 33.3278 34.9474 32.4261 35.1434 32.2301C35.3982 31.9557 35.4178 31.8381 35.2414 31.7793C35.1042 31.7401 31.9485 30.8581 28.2245 29.8193C24.5004 28.7805 21.2664 27.8593 21.0116 27.7417C20.2667 27.4477 20.0511 27.5457 20.5804 27.9573Z" fill="white"/>
<path d="M87.9076 28.644C85.9672 29.2124 82.4784 30.2316 80.1655 30.898C77.8527 31.5644 75.8927 32.172 75.8143 32.2504C75.7163 32.3288 76.6767 33.1912 77.9115 34.1909L80.1459 35.9745L83.7328 33.4069C87.9076 30.408 88.2408 30.1728 90.2401 28.7616C91.0633 28.1932 91.7297 27.6836 91.7297 27.6444C91.7297 27.5268 91.6317 27.5464 87.9076 28.644Z" fill="white"/>
<path d="M15.5823 44.8721C14.3083 45.2053 13.4263 45.6757 13.0539 46.2245C12.5443 46.9497 12.6815 46.9693 13.8771 46.4205C14.8767 45.9501 15.2099 45.8913 17.1896 45.8913C18.4048 45.9109 19.424 45.9501 19.4828 46.0089C19.6788 46.1853 17.6208 49.9094 17.3268 49.9094C16.974 49.9094 16.974 50.223 17.3464 50.3602C18.0324 50.6346 16.6604 52.8886 15.5235 53.3786C14.6807 53.7314 13.2499 53.5942 12.0151 53.0454C11.1331 52.6534 10.9371 52.771 11.5251 53.3002C12.0543 53.7706 13.2303 54.2214 13.9947 54.2214C15.3079 54.2214 17.1504 53.4766 18.2088 52.5358C18.7772 52.0262 19.2476 51.6538 19.2868 51.693C19.3064 51.7322 19.5808 52.1046 19.8748 52.4966C20.6784 53.5746 22.2856 54.2998 23.5205 54.1626C24.0497 54.1038 24.7357 53.9078 25.0297 53.751L25.5785 53.457L24.6965 53.4374C23.5793 53.4178 23.2069 53.2022 22.0504 51.9086C21.5408 51.3402 20.8548 50.7326 20.5608 50.5758C20.2472 50.419 19.9924 50.223 19.9924 50.1446C19.9924 50.0662 20.502 49.7526 21.1292 49.4586C22.6384 48.753 23.5793 47.9493 24.6377 46.4989L25.5197 45.3033L24.6965 45.1661C23.7165 44.9897 23.6185 45.0289 23.2069 45.8521C22.7168 46.7929 21.3448 48.459 20.7372 48.8118L20.208 49.145L20.796 47.4201C21.1292 46.4793 21.4624 45.5777 21.5604 45.3817C21.8348 44.8917 21.4232 44.7937 18.8164 44.7153C17.3268 44.6565 16.2291 44.7153 15.5823 44.8721Z" fill="white"/>
<path d="M70.9533 45.1277C69.3853 45.853 68.3661 46.7938 67.6409 48.1266C66.2885 50.6942 66.7785 53.0855 68.8757 54.0459C70.0125 54.5555 72.2862 54.5359 74.011 54.0067C75.2458 53.6343 75.4026 53.6147 76.2454 53.8891C76.951 54.1243 77.3626 54.1439 78.1662 53.9871C78.9111 53.8303 79.3423 53.8303 79.6951 54.0067C80.4007 54.3203 81.6551 54.2811 82.4391 53.9087C83.0663 53.6147 83.1447 53.6147 83.4779 53.9087C84.2619 54.6339 85.1243 54.1635 85.928 52.5562L86.4964 51.4586L86.908 51.8506C87.1432 52.0662 87.6136 52.3602 87.9664 52.4778C88.378 52.615 88.5936 52.8307 88.5936 53.0659C88.5936 53.2619 88.7896 53.6147 89.0444 53.8303C89.4168 54.2027 89.6128 54.2419 90.5536 54.1243C91.1416 54.0459 91.9256 54.0067 92.2784 54.0263C93.7877 54.0655 95.3949 54.0851 95.8457 54.0263C96.1201 54.0067 97.1001 54.0459 98.0409 54.1243C99.4522 54.2615 99.9226 54.2223 100.648 53.9479C101.138 53.7519 101.628 53.4383 101.726 53.2227C101.922 52.8699 101.922 52.8699 101.295 53.2423C100.942 53.4383 100.256 53.6735 99.7658 53.7519L98.8837 53.8891L99.5502 53.1443C100.158 52.4582 100.197 52.321 100.099 51.4586C100.021 50.8118 100.079 50.3218 100.275 49.9298C100.648 49.185 100.471 48.5774 99.8442 48.4206C98.9425 48.1854 98.0017 49.5574 98.0017 51.1058C98.0017 52.2034 94.7089 54.1047 94.3757 53.1835C94.3169 53.0659 94.9441 51.145 95.7477 48.9302C96.5513 46.735 97.1785 44.8925 97.1393 44.8729C97.1001 44.8337 96.6101 44.8729 96.0417 44.9513L95.0029 45.1081L93.6113 49.2046C92.1412 53.5167 91.9844 53.7911 91.0044 53.4187C90.632 53.2815 90.5536 53.1051 90.5536 52.419C90.5732 51.4194 90.9652 50.2434 91.4748 49.675C91.6708 49.4594 92.1804 49.1066 92.6117 48.9106L93.3957 48.5382H92.5529C92.102 48.5382 91.416 48.6558 91.0632 48.8126C90.2988 49.1262 89.1816 50.4002 88.8876 51.3018C88.6132 52.1054 87.986 52.2818 87.5548 51.6546C87.202 51.1646 87.3588 50.5766 88.1232 49.577C88.7112 48.8126 88.7112 48.7342 88.1428 48.7342C87.4764 48.7342 86.908 49.3614 86.2024 50.851C85.4379 52.4778 85.3203 52.2426 85.928 50.3022L86.3984 48.8322L85.6143 48.7734C85.1635 48.7342 84.7519 48.7734 84.6735 48.8714C84.5951 48.9498 84.2031 49.8906 83.7915 50.949C82.9683 53.0855 82.4783 53.6343 81.7335 53.2423C81.1455 52.9287 81.2827 52.027 82.1255 50.165C82.4979 49.381 82.7527 48.695 82.6939 48.6558C82.6547 48.597 82.2627 48.6362 81.8315 48.7342C81.2435 48.8714 80.8123 48.8322 80.1655 48.597C79.6167 48.401 79.0483 48.3226 78.715 48.4206C77.5586 48.7146 75.6574 51.0666 75.6574 52.223C75.6574 52.9287 75.1478 53.2815 73.5994 53.6343C71.6785 54.1047 70.7965 54.1243 69.8165 53.7127C68.5425 53.2227 68.3269 52.223 68.9933 50.067C69.4441 48.5774 70.6005 46.735 71.6001 45.853C72.835 44.7749 74.4618 44.7945 74.8734 45.8922C75.4026 47.3034 73.3642 50.6942 71.5217 51.4782C70.8357 51.7722 69.9733 51.439 69.9733 50.8902C69.9733 50.4786 71.8941 48.401 73.0114 47.5974C73.5406 47.225 73.5602 47.1858 73.1682 47.1662C72.6194 47.1662 70.9141 48.5186 70.1693 49.5574C69.4637 50.5178 69.3853 51.5566 69.9537 51.8702C70.5025 52.1446 71.9725 52.1054 72.737 51.7918C74.6382 50.9882 76.167 48.0678 75.6574 46.2058C75.2262 44.5985 73.129 44.1085 70.9533 45.1277ZM80.2047 49.1262C80.4203 49.4594 79.3423 52.6739 78.8523 53.1443C78.4406 53.5755 77.6762 53.5167 77.5194 53.0659C77.4018 52.6739 78.3622 50.1062 78.9503 49.1654C79.2835 48.6754 79.9107 48.6558 80.2047 49.1262ZM99.9618 49.6554C99.6678 50.2826 99.4718 49.969 99.6678 49.185C99.7462 48.8126 99.8442 48.7342 100.001 48.891C100.177 49.0674 100.158 49.2634 99.9618 49.6554ZM98.3937 52.7523C98.3937 53.4579 98.0997 53.6147 97.3157 53.3207C97.0413 53.2031 97.0805 53.1051 97.5313 52.6346C98.2369 51.8898 98.3937 51.929 98.3937 52.7523Z" fill="white"/>
<path d="M60.8588 45.6764C60.016 46.5192 58.8008 48.6753 58.5264 49.7729C58.4284 50.2237 58.3108 50.3021 57.9972 50.2041C57.4876 50.0277 57.076 50.4001 56.7036 51.3213C56.4292 51.9877 56.3312 52.0661 55.7236 52.0661C55.1355 52.0661 55.0571 52.0073 55.1747 51.7133C55.2727 51.5369 55.3707 50.8313 55.4296 50.1649C55.5276 48.8125 55.1747 47.9501 54.5279 47.9501C53.9595 47.9697 51.5291 48.8909 51.1175 49.2633C50.5295 49.7729 49.7847 51.5565 49.7847 52.4581C49.7847 54.3593 52.7835 54.8298 54.2731 53.1441C54.7827 52.5561 54.9787 52.4581 55.7628 52.4581C56.5076 52.4581 56.6448 52.5169 56.6448 52.8305C56.6448 53.2225 57.0368 53.7321 57.4288 53.8693C57.566 53.9085 57.5072 54.3593 57.272 55.163L56.88 56.3782H57.8012H58.742L58.9968 55.3002C59.232 54.3397 59.3104 54.2221 59.7612 54.2221C60.4864 54.2221 61.584 53.8889 62.0348 53.5361C62.4073 53.2617 62.3877 53.2617 61.878 53.4381C61.29 53.6537 59.3888 53.7125 59.3888 53.5165C59.3888 53.4577 59.526 52.9285 59.6828 52.3601C59.918 51.5565 60.1924 51.1645 60.9568 50.5177C62.4073 49.3025 63.4069 46.7936 63.0345 45.304C62.8189 44.4808 61.9172 44.6376 60.8588 45.6764ZM61.9368 47.6364C61.3096 49.2633 61.0548 49.6945 60.8196 49.4397C60.6824 49.3025 61.7016 46.2056 61.9956 45.8332C62.1132 45.6764 62.2701 45.6568 62.3877 45.7744C62.5053 45.892 62.3289 46.578 61.9368 47.6364ZM54.4887 49.7141C54.4887 50.9489 54.2339 51.2429 53.9007 50.3805C53.6851 49.8121 53.6459 48.8517 53.8419 48.6753C53.9007 48.5969 54.0771 48.5381 54.2339 48.5381C54.4103 48.5381 54.4887 48.8713 54.4887 49.7141ZM53.3127 50.2237C53.4499 50.7137 53.6851 51.1645 53.8419 51.2233C54.1751 51.3605 54.0183 51.9093 53.3715 52.9089C52.9599 53.5557 52.8227 53.6537 52.2739 53.5949C51.6663 53.5361 51.6467 53.4969 51.6663 52.6541C51.6663 51.8113 52.6071 49.3221 52.9207 49.3221C52.9991 49.3221 53.1755 49.7337 53.3127 50.2237ZM57.9188 52.2229C57.5856 53.3597 57.1152 53.6341 57.2916 52.5953C57.468 51.5565 57.8208 50.8117 58.0168 51.0077C58.154 51.1449 58.1148 51.5761 57.9188 52.2229Z" fill="white"/>
<path d="M28.0481 45.7746C27.5385 46.2842 27.5189 46.8134 27.9893 47.225C28.4989 47.6758 29.1261 47.6366 29.4789 47.127C29.8514 46.5978 29.871 46.3626 29.5574 45.951C29.1261 45.4021 28.4793 45.3433 28.0481 45.7746Z" fill="white"/>
<path d="M34.3203 49.0492C33.8891 49.4216 33.2619 50.1664 32.9091 50.7152C32.5759 51.2444 32.2623 51.656 32.2035 51.6168C32.1643 51.558 32.3407 50.97 32.6151 50.284C32.9091 49.6176 33.1247 48.9904 33.1247 48.8924C33.1247 48.814 32.6935 48.7356 32.1643 48.7356H31.2039L30.4003 50.8916C29.9691 52.0872 29.5967 53.1848 29.5967 53.322C29.5967 53.4592 29.7731 53.7337 29.9887 53.9297C30.7139 54.5765 31.4195 54.0473 33.0659 51.5384C35.1044 48.4612 35.2416 48.422 34.3007 51.1268C33.8303 52.44 33.7519 52.93 33.8891 53.322C34.2615 54.2825 35.3788 54.4785 36.8096 53.8317C37.8484 53.3612 37.868 53.2436 36.8488 53.4984C36.202 53.6748 36.006 53.6552 35.7512 53.42C35.4964 53.1456 35.516 52.9692 35.9668 51.6168C36.2412 50.8132 36.4568 49.8332 36.4568 49.4804C36.4568 48.1672 35.4964 47.9712 34.3203 49.0492Z" fill="white"/>
<path d="M40.6708 48.5773C39.0244 49.1653 37.5152 51.8113 38.0444 53.1833C38.2404 53.7321 39.2792 54.2221 40.22 54.2221H40.8472L39.9848 54.6533C38.554 55.3786 38.7304 56.3782 40.2788 56.3782C41.2392 56.3782 42.2977 55.751 42.6897 54.9474C42.8269 54.6533 43.1797 54.3593 43.4737 54.3005C44.2969 54.1045 45.8649 53.2617 45.8649 53.0265C45.8649 52.8697 45.7865 52.8697 45.6101 53.0069C45.2965 53.2617 43.2973 54.0653 43.1993 53.9673C43.1405 53.9281 43.4149 52.9285 43.7873 51.7525C44.1597 50.5765 44.5125 49.4201 44.5713 49.1849C44.6889 48.8125 44.6105 48.7537 43.7677 48.6557C43.2581 48.5969 42.4741 48.5185 42.0429 48.4597C41.6117 48.4009 41.004 48.4597 40.6708 48.5773ZM42.3957 50.1257C42.3369 52.0857 41.1412 54.0849 40.2396 53.7517C39.8084 53.5753 40.0044 52.0661 40.6708 50.5961C41.298 49.1457 41.5137 48.8909 42.0233 48.9693C42.3957 49.0281 42.4349 49.1457 42.3957 50.1257ZM40.6512 55.6138C40.22 56.0842 39.338 56.1234 39.436 55.653C39.4948 55.3002 40.8276 54.7514 40.9452 55.0454C40.9648 55.1434 40.8472 55.3982 40.6512 55.6138Z" fill="white"/>
<path d="M26.1078 50.2613C25.1278 53.3385 25.8726 54.7105 28.2051 54.0833C28.6559 53.9657 28.6363 53.9657 28.0483 53.7109C27.5387 53.4953 27.4407 53.3581 27.4407 52.7897C27.4407 51.9469 27.8523 50.7709 28.4991 49.7321L29.0087 48.9284H27.7739H26.539L26.1078 50.2613Z" fill="white"/>
<path d="M5.48803 59.554C5.48803 59.5932 5.21362 60.9652 4.90002 62.6117C4.56682 64.2777 4.31201 65.7085 4.31201 65.8261C4.31201 65.9241 4.54722 65.9829 4.86082 65.9437C5.33123 65.8849 5.40963 65.7869 5.62523 64.7285C5.88003 63.3957 6.40924 62.5725 7.05605 62.4941C7.48726 62.4157 7.50686 62.4549 7.36966 63.5721C7.31086 64.1993 7.19325 65.0029 7.13445 65.3557C7.01685 65.9437 7.03645 65.9829 7.58526 65.9829C8.15367 65.9829 8.15367 65.9633 8.50647 64.1993C8.80048 62.5725 8.82008 62.3765 8.52607 61.9453C8.17327 61.3964 7.19325 61.2984 6.54644 61.7688C6.13484 62.0433 6.13484 62.0237 6.27204 61.318C6.35044 60.926 6.48764 60.3576 6.56604 60.044C6.70325 59.554 6.66405 59.5148 6.09564 59.5148C5.76243 59.5148 5.48803 59.5344 5.48803 59.554Z" fill="white"/>
<path d="M27.8323 59.652C27.8323 59.75 27.5579 61.0828 27.2443 62.6313C26.9111 64.1797 26.6562 65.5713 26.6562 65.7281C26.6562 65.8849 26.8719 65.9829 27.2051 65.9829H27.7539L28.2831 63.1801C28.5771 61.6512 28.8711 60.2008 28.9299 59.946C29.0475 59.5736 28.9887 59.5148 28.4399 59.5148C28.1067 59.5148 27.8323 59.5736 27.8323 59.652Z" fill="white"/>
<path d="M88.809 62.5912C88.4758 64.2964 88.2014 65.7664 88.2014 65.8448C88.2014 65.9428 88.4366 65.982 88.7502 65.9428C89.2206 65.884 89.299 65.786 89.5146 64.7276C89.7498 63.4928 90.279 62.5912 90.8475 62.4932C91.4747 62.356 91.5531 62.7284 91.2395 64.2376C90.8671 66.08 90.8475 65.982 91.5139 65.982C92.0627 65.982 92.0823 65.9428 92.3959 64.316C92.7291 62.6696 92.6899 61.9051 92.2391 61.6307C91.8667 61.3759 90.9651 61.4543 90.475 61.7679L90.0046 62.0815L90.279 60.9447C90.6319 59.4551 90.6319 59.5139 89.985 59.5139H89.4362L88.809 62.5912Z" fill="white"/>
<path d="M30.0671 60.0046C29.8907 60.4554 30.1259 60.8866 30.5375 60.8866C30.9883 60.8866 31.3607 60.5142 31.3607 60.0634C31.3607 59.6126 30.2239 59.5538 30.0671 60.0046Z" fill="white"/>
<path d="M44.5715 60.0046C44.3951 60.4554 44.6303 60.8866 45.0419 60.8866C45.4927 60.8866 45.8651 60.5142 45.8651 60.0634C45.8651 59.6126 44.7283 59.5538 44.5715 60.0046Z" fill="white"/>
<path d="M56.5275 60.0046C56.3511 60.4554 56.5863 60.8866 56.9979 60.8866C57.4487 60.8866 57.8211 60.5142 57.8211 60.0634C57.8211 59.6126 56.6843 59.5538 56.5275 60.0046Z" fill="white"/>
<path d="M70.6396 60.0046C70.4632 60.4554 70.6984 60.8866 71.1296 60.8866C71.5608 60.8866 72.0312 60.2202 71.8352 59.9066C71.6392 59.593 70.7572 59.6714 70.6396 60.0046Z" fill="white"/>
<path d="M0.137202 60.0434C0.0588009 60.1022 0 60.3374 0 60.5334C0 60.8078 0.156802 60.8862 0.784011 60.8862C1.21522 60.8862 1.56802 60.945 1.56802 61.0038C1.56802 61.1214 0.862413 64.7475 0.68601 65.5511C0.588009 65.9235 0.66641 65.9823 1.15642 65.9823C1.82283 65.9823 1.78363 66.0999 2.37163 63.0815L2.80284 60.8862H3.62605C4.42966 60.8862 4.70407 60.6706 4.70407 60.0826C4.70407 59.8866 0.333205 59.8278 0.137202 60.0434Z" fill="white"/>
<path d="M59.1341 60.4344C59.0557 60.4932 58.9969 60.7284 58.9969 60.9244C58.9969 61.1204 58.8401 61.3556 58.6637 61.4144C58.0168 61.6496 57.762 62.4532 58.3109 62.4532C58.6637 62.4532 58.6833 62.708 58.3893 63.982C58.0952 65.2365 58.2717 65.9421 58.9185 66.0989C59.5849 66.2753 60.3689 65.8833 60.3689 65.4129C60.3689 65.1385 60.2709 65.06 59.9965 65.1385C59.4281 65.2757 59.3301 64.8836 59.5849 63.6096C59.8201 62.5316 59.8789 62.4532 60.3885 62.4532C60.8589 62.4532 60.9569 62.3748 60.9569 61.9632C60.9569 61.5712 60.8589 61.4732 60.5061 61.4732C60.1141 61.4732 60.0553 61.3948 60.1337 60.8852C60.2121 60.3756 60.1533 60.2972 59.7417 60.2972C59.4673 60.2972 59.1929 60.356 59.1341 60.4344Z" fill="white"/>
<path d="M67.5623 60.415C67.4839 60.4934 67.4251 60.7286 67.4251 60.9246C67.4251 61.1402 67.2095 61.3754 66.9351 61.4734C66.3863 61.689 66.2491 62.4534 66.7587 62.4534C66.9939 62.4534 67.0527 62.571 66.9547 62.9042C66.8959 63.159 66.7979 63.8451 66.7195 64.4331C66.6215 65.3151 66.6607 65.5895 66.9351 65.8443C67.3467 66.2559 68.0915 66.2755 68.4836 65.8639C68.9736 65.3935 68.8756 65.0407 68.2876 65.1583L67.7583 65.2563L67.9151 64.1195C68.1111 62.473 68.1307 62.4534 69.2088 62.4534H70.1692L70.0516 63.0806C69.9928 63.4334 69.8556 64.0411 69.7576 64.4135C69.6596 64.7859 69.5812 65.2955 69.5812 65.5503C69.5812 65.9227 69.6792 66.0011 70.1104 65.9423C70.62 65.8835 70.6592 65.7855 70.9924 64.2175C71.1688 63.2962 71.3256 62.3162 71.3452 62.0026V61.4734H69.8948H68.4248L68.464 60.9442C68.5032 60.5326 68.4052 60.3758 68.1111 60.3366C67.8759 60.2974 67.6407 60.3366 67.5623 60.415Z" fill="white"/>
<path d="M10.5059 62.082C9.58466 62.866 9.19265 64.4144 9.68266 65.3552C9.91786 65.806 10.1727 66.002 10.6823 66.1C11.6819 66.2764 12.8187 65.9628 12.8971 65.4728C12.9559 65.0808 12.8775 65.0612 11.9367 65.1592C10.8979 65.2572 10.5843 65.0808 10.5843 64.3556C10.5843 64.0812 10.7607 64.0224 11.4663 64.0224C12.4659 64.0224 13.4067 63.6304 13.6027 63.1404C13.9751 62.1408 13.3479 61.4744 12.0151 61.4744C11.3683 61.4744 11.0351 61.6116 10.5059 62.082ZM12.5051 62.6896C12.4659 63.0032 12.2699 63.16 11.7603 63.258C10.9175 63.4344 10.7019 63.258 11.0939 62.6896C11.2899 62.4152 11.6035 62.2584 11.9759 62.2584C12.4855 62.2584 12.5639 62.3172 12.5051 62.6896Z" fill="white"/>
<path d="M17.6793 61.8667C16.9149 62.3371 16.4641 63.2975 16.4641 64.4147C16.4641 65.7671 17.5617 66.4335 19.0317 66.0023C20.051 65.6887 20.7566 64.7479 20.9134 63.4739C21.0114 62.5919 20.9722 62.4351 20.5214 61.9843C19.8746 61.3375 18.6201 61.2983 17.6793 61.8667ZM19.6002 62.6703C19.855 63.1211 19.6982 64.1011 19.2866 64.7479C18.9141 65.3555 17.9145 65.3751 17.7381 64.7871C17.2677 63.2975 18.9337 61.4159 19.6002 62.6703Z" fill="white"/>
<path d="M22.2664 61.9051C22.2076 62.1599 22.0312 62.9831 21.8548 63.7671C21.4236 65.8055 21.4432 66.0211 22.09 65.9427C22.58 65.8839 22.6388 65.7663 22.8741 64.6295C23.1485 63.2771 23.7169 62.4539 24.3637 62.4539C24.7165 62.4539 24.7361 62.5519 24.6381 63.4731C24.5597 64.0415 24.4617 64.8451 24.3833 65.2567C24.2461 66.0015 24.2657 66.0211 24.7949 65.9427C25.3045 65.8839 25.3829 65.7663 25.5985 64.8059C25.9513 63.3163 25.9905 62.1403 25.6769 61.7679C25.3241 61.3367 24.2461 61.3955 23.6385 61.8855C23.1289 62.2775 23.1093 62.2775 23.1681 61.9443C23.2661 61.3563 22.384 61.3171 22.2664 61.9051Z" fill="white"/>
<path d="M29.9106 61.6512C29.793 61.808 29.009 65.5125 29.009 65.8261C29.009 65.9241 29.2638 65.9829 29.5578 65.9829C30.1066 65.9829 30.1262 65.9437 30.4791 64.1601C30.6751 63.1801 30.8711 62.1609 30.9299 61.9061C31.0083 61.5532 30.9299 61.4748 30.5183 61.4748C30.2439 61.4748 29.9694 61.5532 29.9106 61.6512Z" fill="white"/>
<path d="M32.2429 61.71C32.1645 61.9453 31.3608 65.7673 31.3608 65.9241C31.3608 65.9437 31.6156 65.9829 31.9488 65.9829C32.4585 65.9829 32.5369 65.9045 32.6349 65.2381C32.9485 63.4349 33.4973 62.4549 34.2029 62.4549C34.5557 62.4549 34.6929 62.5529 34.6929 62.8273C34.6929 63.2193 34.3597 65.1009 34.1833 65.6301C34.1049 65.9045 34.2029 65.9829 34.6537 65.9829C35.2025 65.9829 35.2613 65.9241 35.4769 64.9441C36.0845 62.1021 35.9473 61.4748 34.7125 61.4748C34.2813 61.4748 33.8501 61.5924 33.7129 61.7688C33.5757 61.9257 33.3993 62.0629 33.3013 62.0629C33.2033 62.0629 33.1249 61.9257 33.1249 61.7688C33.1249 61.416 32.3605 61.3768 32.2429 61.71Z" fill="white"/>
<path d="M37.7305 61.9056C36.6721 62.7288 36.2605 64.9828 37.0445 65.6884C37.8285 66.394 39.9845 66.1784 40.1413 65.3748C40.1805 65.1592 39.9649 65.1004 39.0633 65.1004C37.9657 65.1004 37.9265 65.0808 37.8677 64.5516C37.8089 64.042 37.8481 64.0224 38.6517 64.0224C39.5337 64.0224 40.7489 63.4344 40.7881 63.0032C40.8861 61.984 40.3569 61.4743 39.2005 61.4743C38.5537 61.4743 38.1225 61.592 37.7305 61.9056ZM39.6513 62.5328C39.7885 62.9052 39.4749 63.16 38.6713 63.3364C37.9461 63.4932 37.8089 63.1992 38.3577 62.6112C38.7301 62.1996 39.5141 62.1408 39.6513 62.5328Z" fill="white"/>
<path d="M44.4146 61.6512C44.297 61.8276 43.5129 65.4733 43.5129 65.8065C43.5129 65.9045 43.7677 65.9829 44.0617 65.9829C44.6106 65.9829 44.6106 65.9437 44.9634 64.1601C45.1398 63.1801 45.3554 62.1609 45.4142 61.9061C45.4926 61.5532 45.4338 61.4748 45.0222 61.4748C44.7478 61.4748 44.4734 61.5532 44.4146 61.6512Z" fill="white"/>
<path d="M46.7664 61.6313C46.688 61.7685 45.8647 65.6494 45.8647 65.9042C45.8647 65.9434 46.1195 65.9826 46.4528 65.9826C46.9624 65.9826 47.0408 65.9042 47.1388 65.2378C47.4524 63.4346 48.0012 62.4546 48.7068 62.4546C49.2948 62.4546 49.3144 62.7682 48.9028 64.5126C48.5304 66.0414 48.5108 65.9826 49.1968 65.9826C49.7064 65.9826 49.7848 65.9042 49.8828 65.2378C49.9612 64.8458 50.0984 64.199 50.1964 63.8266C50.4512 62.8074 50.412 62.1214 50.0592 61.7881C49.6672 61.3961 48.5304 61.3765 48.2168 61.7685C48.0796 61.9254 47.9032 62.0626 47.8052 62.0626C47.7072 62.0626 47.6288 61.9254 47.6288 61.7685C47.6288 61.4745 46.9428 61.3569 46.7664 61.6313Z" fill="white"/>
<path d="M51.1562 61.71C51.1759 62.1413 51.5287 64.8657 51.6659 65.4341C51.7639 65.9045 51.8815 65.9829 52.4303 65.9829C53.2339 65.9829 53.8023 65.3361 54.6843 63.3761C55.4095 61.7688 55.4291 61.4748 54.7627 61.4748C54.3707 61.4748 54.2139 61.6316 53.9787 62.2001C52.9007 64.9637 52.5675 65.2381 52.5087 63.4349C52.4695 62.0237 52.2931 61.5728 51.6855 61.514C51.3523 61.4748 51.1562 61.5336 51.1562 61.71Z" fill="white"/>
<path d="M56.1743 61.9061C56.1351 62.1609 55.9587 63.0625 55.7823 63.9249C55.3707 65.9829 55.3707 65.9829 56.0175 65.9829C56.5663 65.9829 56.5859 65.9633 56.9191 64.0621C57.3895 61.4356 57.4091 61.5728 56.8015 61.514C56.3703 61.4552 56.2527 61.5336 56.1743 61.9061Z" fill="white"/>
<path d="M62.3486 61.7881C61.2706 62.5525 60.7806 65.0221 61.545 65.7865C62.0546 66.2961 62.6034 66.2765 63.4267 65.7669C63.9951 65.4337 64.0735 65.4141 63.9755 65.6885C63.8579 65.9433 63.9559 66.0021 64.3871 65.9433C64.9359 65.8845 64.9555 65.8257 65.3671 63.7677C65.7395 61.9253 65.7591 61.6117 65.5043 61.5136C65.3475 61.4548 65.0731 61.5136 64.8771 61.6313C64.6811 61.7489 64.4459 61.7685 64.2695 61.6509C63.8383 61.3764 62.8386 61.4548 62.3486 61.7881ZM64.2499 63.0817C64.3871 64.1989 62.9955 65.7081 62.5054 64.9829C62.231 64.5909 62.427 63.2777 62.8386 62.8269C63.3483 62.2585 64.1715 62.3957 64.2499 63.0817Z" fill="white"/>
<path d="M73.2855 61.806C72.5995 62.2372 72.1487 63.0212 72.0115 64.0993C71.8939 64.9029 71.9331 65.0401 72.5015 65.6085C73.0699 66.1573 73.2071 66.2161 74.0107 66.1181C75.4611 65.9613 76.4412 64.7657 76.4412 63.178C76.4412 62.0216 75.8728 61.4728 74.6575 61.4728C74.1871 61.4728 73.5599 61.6296 73.2855 61.806ZM75.0691 62.5508C75.4023 62.9428 75.2063 64.3345 74.7555 64.8245C74.3635 65.2753 73.6383 65.3145 73.3051 64.9029C72.9523 64.4913 73.2267 63.2956 73.7951 62.7272C74.3439 62.1784 74.7163 62.1392 75.0691 62.5508Z" fill="white"/>
<path d="M77.5386 63.1801C77.3622 64.1405 77.1662 65.1401 77.1074 65.4537C77.0094 65.9437 77.0486 65.9829 77.5778 65.9829C78.1266 65.9829 78.1658 65.9241 78.401 64.7677C78.6558 63.3957 79.2242 62.4549 79.773 62.4549C80.361 62.4549 80.4002 62.7293 80.067 64.2973C79.9102 65.1009 79.773 65.8261 79.773 65.8849C79.773 65.9437 80.0278 65.9829 80.3414 65.9829C80.8902 65.9829 80.9098 65.9437 81.2234 64.3561C81.3998 63.4741 81.537 62.5921 81.537 62.4157C81.537 61.5532 80.1062 61.1612 79.2242 61.7884C78.8322 62.0629 78.793 62.0629 78.793 61.7884C78.793 61.5924 78.6166 61.4748 78.3226 61.4748C77.911 61.4748 77.8326 61.612 77.5386 63.1801Z" fill="white"/>
<path d="M85.144 61.9649C84.458 62.6509 84.5756 63.3761 85.4576 63.9837C86.4964 64.6697 86.3788 65.1009 85.1636 65.1009C84.3992 65.1009 84.1836 65.1793 84.1248 65.4341C84.0856 65.6693 84.2424 65.8653 84.6148 66.0025C85.8104 66.4533 87.4176 65.6693 87.4176 64.6305C87.4176 63.9641 87.2608 63.7485 86.4768 63.3565C85.536 62.8665 85.6928 62.3569 86.7708 62.3765C87.3196 62.3765 87.6332 62.2981 87.7116 62.1021C87.888 61.6317 87.6136 61.4749 86.614 61.4749C85.83 61.4749 85.536 61.5729 85.144 61.9649Z" fill="white"/>
<path d="M94.395 62.0613C93.2778 63.0609 93.0426 65.0013 93.9442 65.7461C94.4734 66.1773 95.5515 66.2557 96.3159 65.8833C97.2763 65.4129 97.8055 64.5113 97.8055 63.2569C97.8055 61.9045 97.3743 61.4732 96.0415 61.4732C95.2378 61.4732 94.9634 61.5712 94.395 62.0613ZM96.3159 62.3749C96.7863 62.5513 96.7275 64.0409 96.2179 64.6877C95.7083 65.3345 94.9242 65.3737 94.689 64.7661C94.4734 64.1585 94.7674 63.0021 95.277 62.5905C95.7279 62.2181 95.8651 62.1985 96.3159 62.3749Z" fill="white"/>
<path d="M99.2755 61.7101C99.2167 61.8473 98.9227 63.2389 98.6287 64.8069L98.0603 67.649L98.5503 67.7078C99.0991 67.7862 99.3735 67.4922 99.3735 66.767C99.3931 65.9438 99.6087 65.7674 100.275 66.0222C100.746 66.179 100.981 66.179 101.432 65.9634C102.941 65.2381 103.588 62.3961 102.431 61.6317C102.078 61.3769 101.236 61.4553 100.824 61.7689C100.334 62.1413 100.158 62.1413 100.158 61.7689C100.158 61.4161 99.3931 61.3769 99.2755 61.7101ZM101.804 62.7685C101.98 63.2193 101.588 64.4933 101.157 64.8853C100.746 65.2577 100.079 65.1793 99.9027 64.7481C99.7655 64.3757 100.295 62.9841 100.687 62.7097C101.138 62.3569 101.667 62.3961 101.804 62.7685Z" fill="white"/>
<path d="M104.391 61.7094C104.234 62.1799 103.293 67.0799 103.293 67.4131C103.293 67.6287 103.45 67.7463 103.764 67.7463C104.254 67.7463 104.332 67.6287 104.567 66.4135C104.665 65.9039 104.763 65.7863 105.018 65.9039C105.9 66.2763 106.371 66.2175 107.057 65.6099C108.154 64.6495 108.566 62.6307 107.802 61.8663C107.331 61.3958 106.469 61.3566 105.92 61.7683C105.449 62.1211 105.234 62.1407 105.312 61.8271C105.371 61.4938 104.489 61.3762 104.391 61.7094ZM106.978 63.0815C107.057 63.7871 106.488 64.9631 106.018 65.1003C104.842 65.4727 104.763 63.4343 105.92 62.5915C106.371 62.2975 106.92 62.5523 106.978 63.0815Z" fill="white"/>
<path d="M110.076 61.8651C109.35 62.3355 109.017 62.9627 108.86 64.0995C108.704 65.256 109.096 65.9028 110.076 66.0988C110.997 66.2752 112.31 65.8832 112.31 65.4324C112.31 65.1384 112.134 65.0992 111.193 65.0992C110.115 65.0992 110.056 65.0796 109.997 64.5896C109.938 64.0995 109.978 64.0603 111.056 63.9819C111.977 63.9035 112.271 63.7859 112.643 63.3547C113.153 62.7667 113.114 62.1591 112.545 61.7083C112.075 61.3555 110.722 61.4143 110.076 61.8651ZM111.84 62.4727C112.016 62.7863 111.546 63.1783 110.801 63.3351C110.076 63.4723 110.017 63.3351 110.468 62.6883C110.781 62.2375 111.604 62.1003 111.84 62.4727Z" fill="white"/>
</svg>
