<svg width="67" height="43" viewBox="0 0 67 43" fill="none" xmlns="http://www.w3.org/2000/svg">
<g clip-path="url(#clip0_131_1202)">
<path d="M14.7503 0C14.7503 0 6.60897 10.4828 6.24252 10.9583C5.87606 11.4339 5.3745 12.0924 4.84178 12.8039L17.4508 42.2669L14.7503 0Z" fill="#F8F8F8" fill-opacity="0.38"/>
<path d="M1.23881 31.2286C2.20003 33.653 3.06804 34.9393 4.84178 36.8481C6.39804 38.5228 7.42229 39.3998 9.44518 40.4606C11.7476 41.668 15.0493 42.2669 15.8499 42.2669H17.4508L0.0156083 25.2377C0.111415 27.4639 0.358962 29.0094 1.23881 31.2286Z" fill="#F2F2F2" fill-opacity="0.15"/>
<path d="M17.4508 42.2669C17.184 42.2669 16.4904 42.2669 15.8499 42.2669M17.4508 42.2669C17.4508 24.397 14.7503 0 14.7503 0M17.4508 42.2669C12.5267 30.7608 4.84178 12.8039 4.84178 12.8039M17.4508 42.2669C10.6419 35.6166 0.0156083 25.2377 0.0156083 25.2377M17.4508 42.2669L4.84178 12.8039M17.4508 42.2669L14.7503 0M17.4508 42.2669L0.0156083 25.2377M17.4508 42.2669H15.8499M14.7503 0C14.7503 0 6.60897 10.4828 6.24252 10.9583C5.87606 11.4339 5.3745 12.0924 4.84178 12.8039M15.8499 42.2669C15.0493 42.2669 11.7476 41.668 9.44518 40.4606C7.42229 39.3998 6.39804 38.5228 4.84178 36.8481C3.06804 34.9393 2.20003 33.653 1.23881 31.2286C0.358962 29.0094 0.111415 27.4639 0.0156083 25.2377M4.84178 12.8039L2.0394 16.7785C0.755668 19.2399 0.215875 20.8302 0.0379229 23.6022C-0.0030012 24.2396 -0.0113845 24.6105 0.0156083 25.2377" stroke="white" stroke-opacity="0.7" stroke-width="0.536374"/>
<path d="M24.6585 23.1225V24.6714H21.5695V23.1225H22.2648L23.4705 19.2194H22.5508V17.6705H26.9115L28.4736 23.1225H29.1645V24.6714H25.2262V23.1225H25.7982L25.609 22.3744H24.0205L23.8225 23.1225H24.6585ZM25.3978 21.3095L24.8874 19.1666L24.2449 21.3095H25.3978ZM33.3976 24.6714H29.4505V23.1225H30.2998V19.2194H29.5693V17.6617H33.1468C33.7276 17.6617 34.2234 17.7086 34.6341 17.8025C35.036 17.8993 35.3557 18.0841 35.5933 18.3569C35.831 18.6268 35.9498 19.0096 35.9498 19.5054C35.9498 19.8545 35.8486 20.1581 35.6461 20.4163C35.4437 20.6744 35.187 20.8607 34.8761 20.9751C35.2838 21.1511 35.5845 21.3785 35.7782 21.6572C35.9747 21.9359 36.073 22.3187 36.073 22.8057C36.073 23.4012 35.8398 23.8617 35.3733 24.1874C34.9098 24.51 34.2512 24.6714 33.3976 24.6714ZM32.5527 19.2194V20.4911H32.7947C33.1292 20.4911 33.3756 20.4441 33.534 20.3503C33.6953 20.2564 33.776 20.0804 33.776 19.8222C33.776 19.6433 33.7203 19.4981 33.6088 19.3866C33.4973 19.2751 33.3521 19.2194 33.1732 19.2194H32.5527ZM32.5527 21.644V23.1225H32.7111C33.0661 23.1225 33.3389 23.0726 33.5296 22.9729C33.7232 22.8731 33.82 22.6678 33.82 22.3568C33.82 21.8757 33.5267 21.6352 32.9399 21.6352C32.8754 21.6352 32.8109 21.6366 32.7463 21.6396C32.6818 21.6396 32.6173 21.641 32.5527 21.644ZM40.3853 24.799C39.6548 24.799 39.0227 24.6421 38.4887 24.3282C37.9578 24.0143 37.5529 23.583 37.2743 23.0345C36.9985 22.4859 36.8606 21.8596 36.8606 21.1555C36.8606 20.4251 36.9985 19.7885 37.2743 19.2458C37.55 18.7002 37.9519 18.2792 38.4799 17.9829C39.0109 17.6837 39.646 17.5341 40.3853 17.5341C41.1216 17.5341 41.7553 17.6822 42.2862 17.9785C42.8143 18.2777 43.2162 18.7002 43.4919 19.2458C43.7706 19.7914 43.9099 20.428 43.9099 21.1555C43.9099 21.8596 43.7721 22.4859 43.4963 23.0345C43.2206 23.583 42.8157 24.0143 42.2818 24.3282C41.7509 24.6421 41.1187 24.799 40.3853 24.799ZM40.3853 23.2369C40.7021 23.2369 40.9441 23.0447 41.1113 22.6604C41.2815 22.2761 41.3666 21.7628 41.3666 21.1203C41.3666 20.4955 41.2844 20.0012 41.1201 19.6374C40.9588 19.2737 40.7138 19.0918 40.3853 19.0918C40.0538 19.0918 39.8074 19.2737 39.646 19.6374C39.4847 20.0012 39.404 20.4955 39.404 21.1203C39.404 21.7628 39.4876 22.2761 39.6548 22.6604C39.822 23.0447 40.0655 23.2369 40.3853 23.2369ZM48.2487 24.799C47.2043 24.799 46.4519 24.5262 45.9913 23.9805C45.5337 23.432 45.3048 22.6282 45.3048 21.5692V19.2194H44.592V17.6705H48.4115V19.2194H47.7646V22.1676C47.7646 22.4551 47.835 22.6912 47.9758 22.8761C48.1166 23.0579 48.3381 23.1489 48.6403 23.1489C48.8926 23.1489 49.0921 23.0741 49.2387 22.9245C49.3854 22.7719 49.4587 22.5666 49.4587 22.3084V19.2194H48.7371V17.6705H51.6105V19.2194H50.9373V22.2468C50.9373 22.8071 50.8243 23.278 50.5984 23.6593C50.3755 24.0377 50.0631 24.3223 49.6612 24.513C49.2593 24.7037 48.7884 24.799 48.2487 24.799ZM57.3837 23.0873V24.6714H53.463V23.0873H54.1847V19.2194H53.5642L53.375 20.4251H52.1385V17.6705H58.7258V20.4251H57.4937L57.3045 19.2194H56.6621V23.0873H57.3837Z" fill="white"/>
<path d="M35.0433 30.9327L31.5494 41.8367H26.3923L23.224 30.9327H21.7631V27.8349H29.3669V30.9327H28.3636L30.1237 37.2955L31.6727 30.9327H30.5198V27.8349H36.6362V30.9327H35.0433ZM49.7404 35.8698V41.8367H37.9211V38.7388H39.6196V30.9327H37.9211V27.8349H49.7404V33.4057H47.4874L46.6425 30.9327H44.1256V33.2208H46.3785V35.5266H44.1256V38.7388H46.6425L47.4874 35.8698H49.7404ZM58.2154 42.0919C56.7779 42.0919 55.4725 41.8249 54.2991 41.291C53.1139 40.763 52.1664 39.9416 51.4565 38.8269C50.7466 37.7121 50.3916 36.3069 50.3916 34.6113C50.3916 33.2619 50.6703 32.0533 51.2277 30.9855C51.785 29.9177 52.5947 29.0816 53.6567 28.4773C54.7245 27.8671 55.98 27.562 57.4233 27.562C58.0335 27.562 58.6261 27.6647 59.2011 27.8701C59.7819 28.0754 60.2395 28.3746 60.574 28.7677L60.8644 27.8349H63.9094V33.0008H61.19C61.0081 32.2616 60.659 31.7013 60.1427 31.3199C59.6264 30.9385 59.0866 30.7479 58.5234 30.7479C57.5847 30.7479 56.8425 31.0911 56.2968 31.7775C55.7512 32.464 55.4784 33.4086 55.4784 34.6113C55.4784 35.8258 55.7483 36.7792 56.288 37.4716C56.8278 38.158 57.5905 38.5012 58.5762 38.5012C58.8109 38.5012 59.0632 38.4778 59.3331 38.4308C59.5325 38.3956 59.7203 38.3487 59.8963 38.29C60.0723 38.2255 60.1897 38.1873 60.2483 38.1756V36.9347H58.5586V34.3209H64.1998V40.6134C63.2963 41.0945 62.3282 41.4612 61.2956 41.7135C60.263 41.9657 59.2363 42.0919 58.2154 42.0919Z" fill="white"/>
<path d="M23.3811 13.2964V14.2327H21.5138V13.2964H21.9341L22.6629 10.9371H22.107V10.0008H24.7429L25.6872 13.2964H26.1048V14.2327H23.7242V13.2964H24.07L23.9556 12.8442H22.9954L22.8757 13.2964H23.3811ZM23.8279 12.2005L23.5194 10.9051L23.131 12.2005H23.8279ZM29.8526 12.3468V14.2327H26.4532V13.2804H26.8788V10.9371H26.4532V10.0008H28.6636V10.9371H28.2407V13.2804H28.9216L29.177 12.3468H29.8526ZM33.6722 12.3468V14.2327H30.2728V13.2804H30.6984V10.9371H30.2728V10.0008H32.4832V10.9371H32.0603V13.2804H32.7412L32.9966 12.3468H33.6722Z" fill="white"/>
</g>
<defs>
<clipPath id="clip0_131_1202">
<rect width="67" height="43" fill="white"/>
</clipPath>
</defs>
</svg>
