<svg width="188" height="46" viewBox="0 0 188 46" fill="none" xmlns="http://www.w3.org/2000/svg">
<path d="M41.4347 11.7535H44.5229V16.827H47.4245V19.3213H44.5229V31.1821C44.5229 31.8156 44.7378 32.2398 45.1677 32.4548C45.4053 32.5792 45.8012 32.6414 46.3555 32.6414C46.5025 32.6414 46.6609 32.6414 46.8306 32.6414C47.0003 32.6301 47.1982 32.6131 47.4245 32.5905V35C47.0738 35.1018 46.7062 35.1753 46.3215 35.2206C45.9482 35.2658 45.541 35.2885 45.0998 35.2885C43.6745 35.2885 42.7073 34.9265 42.1983 34.2025C41.6892 33.4672 41.4347 32.517 41.4347 31.3518V19.3213H38.9743V16.827H41.4347V11.7535ZM50.5806 16.827H53.4822V19.9661C53.7197 19.3553 54.3023 18.6143 55.2299 17.7433C56.1575 16.8609 57.2265 16.4197 58.4369 16.4197C58.4934 16.4197 58.5896 16.4254 58.7253 16.4367C58.8611 16.448 59.093 16.4707 59.421 16.5046V19.7286C59.2401 19.6946 59.0704 19.672 58.912 19.6607C58.7649 19.6494 58.6009 19.6437 58.4199 19.6437C56.8815 19.6437 55.6993 20.1415 54.8736 21.1369C54.0478 22.1211 53.6349 23.258 53.6349 24.5475V35H50.5806V16.827ZM65.1224 16.827V28.8914C65.1224 29.819 65.2694 30.5769 65.5636 31.1652C66.1065 32.2511 67.119 32.7941 68.6009 32.7941C70.7276 32.7941 72.1755 31.8439 72.9448 29.9435C73.3633 28.9254 73.5726 27.5283 73.5726 25.7523V16.827H76.6269V35H73.7423L73.7762 32.319C73.3803 33.0091 72.8882 33.5916 72.3 34.0667C71.1348 35.017 69.7208 35.4921 68.0579 35.4921C65.4674 35.4921 63.7027 34.6267 62.7638 32.8959C62.2547 31.9683 62.0002 30.7297 62.0002 29.1799V16.827H65.1224ZM88.9798 16.4197C90.2694 16.4197 91.5194 16.7252 92.7298 17.336C93.9402 17.9356 94.8621 18.7161 95.4956 19.6777C96.1064 20.5939 96.5137 21.6629 96.7173 22.8847C96.8983 23.7218 96.9888 25.0566 96.9888 26.8892H83.6687C83.7253 28.7331 84.1608 30.2149 84.9753 31.3349C85.7897 32.4434 87.051 32.9977 88.7592 32.9977C90.3542 32.9977 91.6268 32.4717 92.577 31.4197C93.12 30.8088 93.5046 30.1018 93.7309 29.2987H96.7343C96.6551 29.9661 96.3892 30.7127 95.9368 31.5385C95.4956 32.353 94.9978 33.0204 94.4436 33.5407C93.516 34.4457 92.3678 35.0566 90.999 35.3733C90.2637 35.5543 89.4323 35.6448 88.5047 35.6448C86.2422 35.6448 84.3248 34.8247 82.7524 33.1844C81.18 31.5328 80.3938 29.2251 80.3938 26.2613C80.3938 23.3428 81.1857 20.9729 82.7694 19.1516C84.3531 17.3304 86.4232 16.4197 88.9798 16.4197ZM93.8497 24.4627C93.7252 23.1392 93.4368 22.0815 92.9843 21.2896C92.1472 19.8191 90.7501 19.0838 88.7931 19.0838C87.3904 19.0838 86.2139 19.5928 85.2637 20.6109C84.3135 21.6177 83.8101 22.9016 83.7535 24.4627H93.8497ZM102.249 16.827L107.102 31.6233L112.175 16.827H115.518L108.663 35H105.405L98.7026 16.827H102.249ZM118.131 16.9118H121.236V35H118.131V16.9118ZM118.131 10.0736H121.236V13.5351H118.131V10.0736ZM127.684 29.2987C127.775 30.3168 128.029 31.0973 128.448 31.6403C129.217 32.6244 130.552 33.1165 132.452 33.1165C133.584 33.1165 134.579 32.8733 135.439 32.3869C136.299 31.8892 136.728 31.1256 136.728 30.0962C136.728 29.3156 136.383 28.7217 135.693 28.3145C135.252 28.0656 134.381 27.7772 133.08 27.4491L130.654 26.8383C129.104 26.4536 127.962 26.0238 127.226 25.5487C125.914 24.7229 125.258 23.5804 125.258 22.1211C125.258 20.4016 125.874 19.0102 127.107 17.9469C128.352 16.8835 130.02 16.3519 132.113 16.3519C134.851 16.3519 136.825 17.155 138.035 18.7614C138.793 19.7795 139.161 20.8767 139.138 22.0532H136.253C136.197 21.3632 135.954 20.7353 135.524 20.1697C134.822 19.3666 133.606 18.965 131.876 18.965C130.722 18.965 129.845 19.1856 129.245 19.6268C128.657 20.0679 128.363 20.6505 128.363 21.3745C128.363 22.1663 128.753 22.7998 129.534 23.2749C129.986 23.5577 130.654 23.8066 131.536 24.0215L133.555 24.5136C135.75 25.0453 137.221 25.56 137.967 26.0577C139.155 26.8383 139.749 28.0656 139.749 29.7398C139.749 31.3575 139.132 32.7545 137.899 33.931C136.678 35.1075 134.811 35.6957 132.3 35.6957C129.596 35.6957 127.679 35.0848 126.548 33.8631C125.428 32.6301 124.828 31.1086 124.749 29.2987H127.684ZM146.299 16.827V28.8914C146.299 29.819 146.446 30.5769 146.74 31.1652C147.283 32.2511 148.295 32.7941 149.777 32.7941C151.904 32.7941 153.352 31.8439 154.121 29.9435C154.539 28.9254 154.749 27.5283 154.749 25.7523V16.827H157.803V35H154.918L154.952 32.319C154.556 33.0091 154.064 33.5916 153.476 34.0667C152.311 35.017 150.897 35.4921 149.234 35.4921C146.644 35.4921 144.879 34.6267 143.94 32.8959C143.431 31.9683 143.176 30.7297 143.176 29.1799V16.827H146.299ZM164.93 30.164C164.93 31.0464 165.252 31.7421 165.897 32.2511C166.542 32.7602 167.305 33.0147 168.188 33.0147C169.262 33.0147 170.303 32.7658 171.31 32.2681C173.007 31.4423 173.855 30.0905 173.855 28.2127V25.7523C173.482 25.9899 173.001 26.1878 172.413 26.3462C171.825 26.5046 171.248 26.6177 170.682 26.6855L168.832 26.9231C167.724 27.0702 166.892 27.3021 166.338 27.6188C165.399 28.1505 164.93 28.9989 164.93 30.164ZM172.328 23.9876C173.029 23.8971 173.499 23.603 173.736 23.1052C173.872 22.8338 173.94 22.4435 173.94 21.9344C173.94 20.8937 173.567 20.1415 172.82 19.6777C172.085 19.2025 171.027 18.965 169.647 18.965C168.052 18.965 166.921 19.3949 166.253 20.2546C165.88 20.7297 165.637 21.4367 165.524 22.3756H162.673C162.73 20.1358 163.453 18.5804 164.845 17.7093C166.248 16.827 167.871 16.3858 169.715 16.3858C171.853 16.3858 173.589 16.793 174.924 17.6075C176.248 18.422 176.909 19.689 176.909 21.4084V31.8778C176.909 32.1946 176.972 32.4491 177.096 32.6414C177.232 32.8337 177.509 32.9299 177.927 32.9299C178.063 32.9299 178.216 32.9242 178.386 32.9129C178.555 32.8903 178.736 32.862 178.929 32.8281V35.0848C178.453 35.2206 178.091 35.3054 177.843 35.3394C177.594 35.3733 177.254 35.3903 176.824 35.3903C175.772 35.3903 175.009 35.017 174.534 34.2704C174.285 33.8744 174.11 33.3145 174.008 32.5905C173.386 33.405 172.492 34.112 171.327 34.7115C170.162 35.3111 168.878 35.6109 167.475 35.6109C165.789 35.6109 164.409 35.1018 163.335 34.0837C162.271 33.0543 161.74 31.7704 161.74 30.2319C161.74 28.5464 162.266 27.2398 163.318 26.3122C164.37 25.3846 165.75 24.8134 167.458 24.5985L172.328 23.9876ZM182.017 10.0736H185.071V35H182.017V10.0736Z" fill="white"/>
<path d="M6.02197 26.3439L26.797 18.7893L13.1988 40.3198" stroke="white" stroke-width="4.53274" stroke-linecap="round"/>
<path d="M5.2413 12.7875C5.05562 11.5497 3.90164 10.6967 2.66381 10.8824C1.42597 11.0681 0.573029 12.2221 0.758704 13.4599L5.2413 12.7875ZM30.2053 13.7464L32.3389 12.9821L30.8103 8.7149L28.6767 9.47918L30.2053 13.7464ZM4.99867 20.3682L4.23439 18.2346L4.99867 20.3682ZM0.758704 13.4599L1.75551 20.1053L6.23811 19.4329L5.2413 12.7875L0.758704 13.4599ZM5.76295 22.5019L30.2053 13.7464L28.6767 9.47918L4.23439 18.2346L5.76295 22.5019ZM1.75551 20.1053C2.03796 21.9883 3.97042 23.144 5.76295 22.5019L4.23439 18.2346C5.13065 17.9136 6.09688 18.4914 6.23811 19.4329L1.75551 20.1053Z" fill="white"/>
</svg>
