<svg width="149" height="45" viewBox="0 0 149 45" fill="none" xmlns="http://www.w3.org/2000/svg">
<g clip-path="url(#clip0_169_1195)">
<path d="M61.3775 13.2702H58.3555V18.0002H55.953V4.27942H61.3775C64.1366 4.27942 65.9198 6.08133 65.9198 8.76542C65.9198 11.412 64.1179 13.2702 61.3775 13.2702ZM60.9082 6.41919H58.3555V11.1304H60.8707C62.5224 11.1304 63.4046 10.2482 63.4046 8.74665C63.4046 7.24506 62.5037 6.41919 60.9082 6.41919ZM68.3901 18.0002H65.8937L70.8489 4.27942H73.3078L78.263 18.0002H75.7291L74.6216 14.8281H69.4975L68.3901 18.0002ZM71.7686 8.37125L70.2107 12.8009H73.9272L72.3505 8.37125C72.2379 8.01462 72.1065 7.60169 72.0689 7.32014C72.0126 7.58292 71.9 7.99585 71.7686 8.37125ZM82.3861 18.0002H79.9835V4.27942H85.2203C88.3361 4.27942 90.1568 5.85609 90.1568 8.55895C90.1568 10.3984 89.2934 11.7123 87.6791 12.3692L90.2882 18.0002H87.6604L85.3329 12.876H82.3861V18.0002ZM82.3861 6.41919V10.755H85.2203C86.7407 10.755 87.6416 9.94792 87.6416 8.55895C87.6416 7.18875 86.7407 6.41919 85.2203 6.41919H82.3861ZM101.079 18.0002H92.5578V4.27942H101.079V6.49427H94.9604V10.023H100.441V12.144H94.9604V15.7853H101.079V18.0002ZM106.049 18.0002H103.684V4.27942H106.068L112.506 14.0022V4.27942H114.871V18.0002H112.506L106.049 8.2774V18.0002ZM116.707 6.49427V4.27942H127.143V6.49427H123.126V18.0002H120.724V6.49427H116.707ZM58.8248 40.0002H55.8779V26.1105H58.8248L62.9541 36.4715L67.1023 26.1105H70.0867V40.0002H67.1398V37.0909C67.1398 34.0877 67.1398 33.4307 67.29 32.3984L64.3431 40.0002H61.5652L58.6371 32.3984C58.806 33.4307 58.8248 34.5945 58.8248 36.1148V40.0002ZM74.8755 40.0002H71.7034L76.6586 26.1105H79.6242L84.5607 40.0002H81.3323L80.3563 37.0721H75.8703L74.8755 40.0002ZM77.7473 31.5538L76.7525 34.5194H79.4929L78.4981 31.5538C78.3479 31.0845 78.179 30.5402 78.1227 30.2023C78.0663 30.5214 77.9162 31.047 77.7473 31.5538ZM94.9991 40.0002H86.1773V26.1105H94.9991V28.926H89.218V31.6476H94.3422V34.3129H89.218V37.1847H94.9991V40.0002ZM96.7173 30.146C96.7173 27.6309 98.8383 25.8477 101.823 25.8477C104.807 25.8477 106.684 27.4995 106.684 30.1272H103.662C103.662 29.1512 102.93 28.5506 101.785 28.5506C100.546 28.5506 99.758 29.1137 99.758 30.0334C99.758 30.878 100.19 31.291 101.166 31.4974L103.249 31.9291C105.727 32.4359 106.909 33.6184 106.909 35.8145C106.909 38.4986 104.807 40.2442 101.616 40.2442C98.5192 40.2442 96.5108 38.5737 96.5108 35.9647H99.5327C99.5327 36.9782 100.284 37.5413 101.635 37.5413C103.005 37.5413 103.869 36.997 103.869 36.1148C103.869 35.3453 103.512 34.9511 102.592 34.7634L100.471 34.3317C97.9936 33.8249 96.7173 32.4172 96.7173 30.146ZM107.672 28.926V26.1105H118.596V28.926H114.654V40.0002H111.613V28.926H107.672ZM123.458 40.0002H120.418V26.1105H125.786C129.164 26.1105 131.079 27.7435 131.079 30.6153C131.079 32.4172 130.309 33.6935 128.77 34.4818L131.21 40.0002H127.888L125.805 35.1388H123.458V40.0002ZM123.458 28.8134V32.4735H125.767C127.1 32.4735 127.869 31.7978 127.869 30.6153C127.869 29.4515 127.137 28.8134 125.786 28.8134H123.458ZM146.179 33.0366C146.179 37.2786 143.382 40.2254 139.347 40.2254C135.33 40.2254 132.571 37.2973 132.571 33.0553C132.571 28.8134 135.349 25.8665 139.365 25.8665C143.401 25.8665 146.179 28.7946 146.179 33.0366ZM142.969 33.0366C142.969 30.39 141.618 28.7946 139.384 28.7946C137.132 28.7946 135.78 30.39 135.78 33.0366C135.78 35.7019 137.132 37.2973 139.384 37.2973C141.618 37.2973 142.969 35.6643 142.969 33.0366Z" fill="white"/>
<rect width="45.0476" height="45.0476" fill="white" fill-opacity="0.2"/>
<g filter="url(#filter0_d_169_1195)">
<rect x="15.9133" y="13.104" width="6.27966" height="26.24" fill="white"/>
</g>
<g filter="url(#filter1_d_169_1195)">
<path d="M23.0003 30.564C24.1445 30.6641 25.2973 30.5379 26.3928 30.1925C27.4882 29.8471 28.505 29.2893 29.3849 28.551C30.2648 27.8126 30.9906 26.9082 31.521 25.8894C32.0514 24.8706 32.3759 23.7572 32.476 22.613C32.5761 21.4687 32.4499 20.3159 32.1045 19.2205C31.7591 18.125 31.2013 17.1083 30.4629 16.2284C29.7246 15.3485 28.8202 14.6226 27.8014 14.0922C26.7825 13.5619 25.6692 13.2374 24.5249 13.1372L23.7626 21.8506L23.0003 30.564Z" fill="white"/>
</g>
<g filter="url(#filter2_d_169_1195)">
<ellipse cx="19.0532" cy="8.73036" rx="3.13983" ry="3.25197" fill="white"/>
</g>
</g>
<defs>
<filter id="filter0_d_169_1195" x="15.0162" y="13.104" width="8.07373" height="28.0342" filterUnits="userSpaceOnUse" color-interpolation-filters="sRGB">
<feFlood flood-opacity="0" result="BackgroundImageFix"/>
<feColorMatrix in="SourceAlpha" type="matrix" values="0 0 0 0 0 0 0 0 0 0 0 0 0 0 0 0 0 0 127 0" result="hardAlpha"/>
<feOffset dy="0.897095"/>
<feGaussianBlur stdDeviation="0.448547"/>
<feComposite in2="hardAlpha" operator="out"/>
<feColorMatrix type="matrix" values="0 0 0 0 0 0 0 0 0 0 0 0 0 0 0 0 0 0 0.25 0"/>
<feBlend mode="normal" in2="BackgroundImageFix" result="effect1_dropShadow_169_1195"/>
<feBlend mode="normal" in="SourceGraphic" in2="effect1_dropShadow_169_1195" result="shape"/>
</filter>
<filter id="filter1_d_169_1195" x="22.1031" y="13.1372" width="11.3032" height="19.2543" filterUnits="userSpaceOnUse" color-interpolation-filters="sRGB">
<feFlood flood-opacity="0" result="BackgroundImageFix"/>
<feColorMatrix in="SourceAlpha" type="matrix" values="0 0 0 0 0 0 0 0 0 0 0 0 0 0 0 0 0 0 127 0" result="hardAlpha"/>
<feOffset dy="0.897095"/>
<feGaussianBlur stdDeviation="0.448547"/>
<feComposite in2="hardAlpha" operator="out"/>
<feColorMatrix type="matrix" values="0 0 0 0 0 0 0 0 0 0 0 0 0 0 0 0 0 0 0.25 0"/>
<feBlend mode="normal" in2="BackgroundImageFix" result="effect1_dropShadow_169_1195"/>
<feBlend mode="normal" in="SourceGraphic" in2="effect1_dropShadow_169_1195" result="shape"/>
</filter>
<filter id="filter2_d_169_1195" x="15.0162" y="5.47839" width="8.07373" height="8.29813" filterUnits="userSpaceOnUse" color-interpolation-filters="sRGB">
<feFlood flood-opacity="0" result="BackgroundImageFix"/>
<feColorMatrix in="SourceAlpha" type="matrix" values="0 0 0 0 0 0 0 0 0 0 0 0 0 0 0 0 0 0 127 0" result="hardAlpha"/>
<feOffset dy="0.897095"/>
<feGaussianBlur stdDeviation="0.448547"/>
<feComposite in2="hardAlpha" operator="out"/>
<feColorMatrix type="matrix" values="0 0 0 0 0 0 0 0 0 0 0 0 0 0 0 0 0 0 0.25 0"/>
<feBlend mode="normal" in2="BackgroundImageFix" result="effect1_dropShadow_169_1195"/>
<feBlend mode="normal" in="SourceGraphic" in2="effect1_dropShadow_169_1195" result="shape"/>
</filter>
<clipPath id="clip0_169_1195">
<rect width="149" height="45" fill="white"/>
</clipPath>
</defs>
</svg>
