<svg width="27" height="27" viewBox="0 0 27 27" fill="none" xmlns="http://www.w3.org/2000/svg">
<rect width="27" height="27" fill="white" fill-opacity="0.2"/>
<path fill-rule="evenodd" clip-rule="evenodd" d="M7.22282 5.4337C6.9829 5.21014 6.66557 5.08844 6.33769 5.09422C6.00981 5.10001 5.69697 5.23283 5.46508 5.46472C5.2332 5.6966 5.10037 6.00944 5.09459 6.33732C5.0888 6.66521 5.21051 6.98253 5.43407 7.22245L11.7116 13.5L5.43407 19.7775C5.30972 19.8933 5.20999 20.033 5.14082 20.1883C5.07164 20.3435 5.03445 20.5111 5.03145 20.6811C5.02845 20.851 5.05971 21.0198 5.12336 21.1774C5.18702 21.335 5.28176 21.4781 5.40194 21.5983C5.52212 21.7185 5.66528 21.8133 5.82287 21.8769C5.98047 21.9406 6.14927 21.9718 6.3192 21.9688C6.48914 21.9658 6.65673 21.9286 6.81198 21.8595C6.96723 21.7903 7.10695 21.6905 7.22282 21.5662L13.5003 15.2887L19.7778 21.5662C19.8937 21.6905 20.0334 21.7903 20.1887 21.8595C20.3439 21.9286 20.5115 21.9658 20.6814 21.9688C20.8514 21.9718 21.0202 21.9406 21.1778 21.8769C21.3354 21.8133 21.4785 21.7185 21.5987 21.5983C21.7189 21.4781 21.8136 21.335 21.8773 21.1774C21.9409 21.0198 21.9722 20.851 21.9692 20.6811C21.9662 20.5111 21.929 20.3435 21.8598 20.1883C21.7907 20.033 21.6909 19.8933 21.5666 19.7775L15.2891 13.5L21.5666 7.22245C21.7901 6.98253 21.9118 6.66521 21.9061 6.33732C21.9003 6.00944 21.7674 5.6966 21.5356 5.46472C21.3037 5.23283 20.9908 5.10001 20.663 5.09422C20.3351 5.08844 20.0177 5.21014 19.7778 5.4337L13.5003 11.7112L7.22282 5.4337Z" fill="white"/>
</svg>
