<svg width="107" height="56" viewBox="0 0 107 56" fill="none" xmlns="http://www.w3.org/2000/svg">
<path d="M21.0266 8.93332H25.974V41H21.0266V37.7017C19.1637 40.2976 16.4914 41.5955 13.0099 41.5955C9.86432 41.5955 7.17683 40.435 4.94743 38.114C2.71803 35.7624 1.60333 32.907 1.60333 29.5476C1.60333 26.1577 2.71803 23.3022 4.94743 20.9812C7.17683 18.6602 9.86432 17.4997 13.0099 17.4997C16.4914 17.4997 19.1637 18.7824 21.0266 21.3477V8.93332ZM8.61219 34.8157C9.98648 36.19 11.712 36.8771 13.7887 36.8771C15.8654 36.8771 17.5909 36.19 18.9652 34.8157C20.3394 33.4109 21.0266 31.6549 21.0266 29.5476C21.0266 27.4404 20.3394 25.6996 18.9652 24.3253C17.5909 22.9205 15.8654 22.2181 13.7887 22.2181C11.712 22.2181 9.98648 22.9205 8.61219 24.3253C7.23791 25.6996 6.55077 27.4404 6.55077 29.5476C6.55077 31.6549 7.23791 33.4109 8.61219 34.8157ZM36.4132 13.7433C35.8024 14.3541 35.0695 14.6595 34.2144 14.6595C33.3593 14.6595 32.611 14.3541 31.9697 13.7433C31.3589 13.102 31.0535 12.3538 31.0535 11.4987C31.0535 10.6435 31.3589 9.91059 31.9697 9.29979C32.5805 8.65846 33.3287 8.33779 34.2144 8.33779C35.1 8.33779 35.8482 8.65846 36.459 9.29979C37.0698 9.91059 37.3752 10.6435 37.3752 11.4987C37.3752 12.3538 37.0546 13.102 36.4132 13.7433ZM31.7406 41V18.0952H36.6881V41H31.7406ZM55.2134 22.8594H49.533V33.8537C49.533 34.8004 49.7468 35.4876 50.1743 35.9151C50.6019 36.3122 51.228 36.5412 52.0525 36.6023C52.9076 36.6328 53.9613 36.6176 55.2134 36.5565V41C51.4265 41.4581 48.7084 41.1374 47.0593 40.038C45.4101 38.908 44.5856 36.8466 44.5856 33.8537V22.8594H40.3711V18.0952H44.5856V13.1478L49.533 11.6819V18.0952H55.2134V22.8594Z" fill="white"/>
<path d="M92.0771 24.4169C92.0771 25.1804 92.4894 25.7912 93.3139 26.2493C94.1691 26.6769 95.1921 27.0586 96.3832 27.3946C97.6048 27.7 98.8264 28.0664 100.048 28.494C101.27 28.9216 102.293 29.6545 103.117 30.6929C103.972 31.7007 104.4 32.9833 104.4 34.5409C104.4 36.7397 103.545 38.4652 101.835 39.7173C100.155 40.9695 98.0323 41.5955 95.467 41.5955C93.2071 41.5955 91.2678 41.1222 89.6492 40.1754C88.0306 39.2287 86.8548 37.9155 86.1218 36.2358L90.3821 33.7621C91.1762 35.961 92.8711 37.0604 95.467 37.0604C98.0629 37.0604 99.3608 36.2053 99.3608 34.495C99.3608 33.7621 98.9332 33.1666 98.0781 32.7085C97.2536 32.2504 96.2305 31.8686 95.0089 31.5632C93.8178 31.2273 92.6115 30.8456 91.3899 30.418C90.1684 29.9904 89.13 29.288 88.2749 28.3108C87.4503 27.3029 87.038 26.0355 87.038 24.5086C87.038 22.4013 87.8321 20.7064 89.4201 19.4237C91.0387 18.141 93.0391 17.4997 95.4212 17.4997C97.3146 17.4997 98.9943 17.9273 100.46 18.7824C101.957 19.6069 103.102 20.7675 103.896 22.2639L99.7273 24.6002C98.9332 22.8594 97.4979 21.989 95.4212 21.989C94.4745 21.989 93.6804 22.2028 93.0391 22.6304C92.3978 23.0274 92.0771 23.6229 92.0771 24.4169Z" fill="white"/>
<g filter="url(#filter0_d_131_1197)">
<path d="M57.5427 37.7664L59.6664 15.0205C59.7763 13.8434 60.7642 12.9435 61.9464 12.9435H62.9622C63.6658 12.9435 64.2362 13.5139 64.2362 14.2175C64.2362 14.825 63.8513 15.5123 63.63 16.0781C63.1489 17.3085 63.1547 19.491 66.1506 19.491C69.1973 19.491 68.9617 17.0857 68.332 15.7382C68.1813 15.4155 68.0651 15.0719 68.0651 14.7158C68.0651 13.737 68.8585 12.9435 69.8374 12.9435H72.2386C72.879 12.9435 73.3981 13.4626 73.3981 14.1029C73.3981 14.7433 72.9355 15.5516 72.7878 16.1747C72.4863 17.4464 72.8465 19.5872 75.4493 19.491C78.1848 19.39 78.0122 17.1792 77.4656 15.8751C77.3307 15.5532 77.227 15.2144 77.227 14.8654C77.227 13.8039 78.0874 12.9435 79.1488 12.9435H79.6713C80.9241 12.9435 81.974 13.8907 82.1026 15.1369L84.4352 37.7398C84.6024 39.3608 83.3307 40.7705 81.7011 40.7705H60.2794C58.6604 40.7705 57.3922 39.3783 57.5427 37.7664Z" fill="white"/>
<path d="M66.0139 18.2634C64.8315 18.1791 64.7445 17.3264 64.9548 16.6026C65.115 16.0514 65.3302 15.4994 65.3302 14.9254V9.2605C65.5125 7.44174 66.7797 3.77693 70.3897 3.66781C73.764 3.56581 75.41 6.07758 75.9084 7.59426C75.9737 7.79317 75.9981 8.00213 76.0017 8.21147L76.1222 15.1851C76.1293 15.5952 76.2436 15.9935 76.3696 16.3838C76.65 17.253 76.6145 18.2634 75.1758 18.2634C73.818 18.2634 73.734 17.3541 73.9814 16.5779C74.1513 16.0451 74.3556 15.5097 74.3542 14.9505C74.3481 12.5067 74.3156 8.67072 74.2186 7.89643C74.0818 6.80517 72.5776 5.57751 70.3897 5.4411C68.8917 5.3477 67.821 6.71314 67.3149 7.70731C67.1628 8.00599 67.1078 8.34106 67.1078 8.67622V14.2439C67.1078 15.2859 67.6619 16.5945 67.2957 17.5701C67.1372 17.9924 66.765 18.3169 66.0139 18.2634Z" fill="white"/>
</g>
<g filter="url(#filter1_d_131_1197)">
<path d="M77.0502 34.7354C75.4573 36.3076 73.5126 37.0937 71.2163 37.0937C68.92 37.0937 66.9754 36.3076 65.3824 34.7354C63.8102 33.1424 63.024 31.1978 63.024 28.9015C63.024 26.6051 63.8102 24.6708 65.3824 23.0986C66.9754 21.5056 68.92 20.7092 71.2163 20.7092C73.5126 20.7092 75.4573 21.5056 77.0502 23.0986C78.6432 24.6708 79.4396 26.6051 79.4396 28.9015C79.4396 31.1978 78.6432 33.1424 77.0502 34.7354ZM68.2063 31.9736C69.0131 32.7804 70.0164 33.1838 71.2163 33.1838C72.4162 33.1838 73.4195 32.7804 74.2264 31.9736C75.0332 31.1667 75.4366 30.1427 75.4366 28.9015C75.4366 27.6602 75.0332 26.6362 74.2264 25.8293C73.4195 25.0225 72.4162 24.6191 71.2163 24.6191C70.0164 24.6191 69.0131 25.0225 68.2063 25.8293C67.4201 26.6362 67.0271 27.6602 67.0271 28.9015C67.0271 30.1427 67.4201 31.1667 68.2063 31.9736Z" fill="#0079E9"/>
</g>
<defs>
<filter id="filter0_d_131_1197" x="55.6981" y="3.66479" width="30.5842" height="40.7705" filterUnits="userSpaceOnUse" color-interpolation-filters="sRGB">
<feFlood flood-opacity="0" result="BackgroundImageFix"/>
<feColorMatrix in="SourceAlpha" type="matrix" values="0 0 0 0 0 0 0 0 0 0 0 0 0 0 0 0 0 0 127 0" result="hardAlpha"/>
<feOffset dy="1.83238"/>
<feGaussianBlur stdDeviation="0.916191"/>
<feComposite in2="hardAlpha" operator="out"/>
<feColorMatrix type="matrix" values="0 0 0 0 0 0 0 0 0 0 0 0 0 0 0 0 0 0 0.25 0"/>
<feBlend mode="normal" in2="BackgroundImageFix" result="effect1_dropShadow_131_1197"/>
<feBlend mode="normal" in="SourceGraphic" in2="effect1_dropShadow_131_1197" result="shape"/>
</filter>
<filter id="filter1_d_131_1197" x="61.1915" y="20.7092" width="20.0805" height="20.0493" filterUnits="userSpaceOnUse" color-interpolation-filters="sRGB">
<feFlood flood-opacity="0" result="BackgroundImageFix"/>
<feColorMatrix in="SourceAlpha" type="matrix" values="0 0 0 0 0 0 0 0 0 0 0 0 0 0 0 0 0 0 127 0" result="hardAlpha"/>
<feOffset dy="1.83238"/>
<feGaussianBlur stdDeviation="0.916191"/>
<feComposite in2="hardAlpha" operator="out"/>
<feColorMatrix type="matrix" values="0 0 0 0 0 0 0 0 0 0 0 0 0 0 0 0 0 0 0.25 0"/>
<feBlend mode="normal" in2="BackgroundImageFix" result="effect1_dropShadow_131_1197"/>
<feBlend mode="normal" in="SourceGraphic" in2="effect1_dropShadow_131_1197" result="shape"/>
</filter>
</defs>
</svg>
