<svg width="132" height="56" viewBox="0 0 132 56" fill="none" xmlns="http://www.w3.org/2000/svg">
<path d="M49.7911 21.4557V23.8894H39.7648V21.4557H49.7911ZM43.1584 16.9481H46.3291V35.4068C46.3291 36.0352 46.4262 36.5094 46.6204 36.8293C46.8147 37.1492 47.066 37.3606 47.3745 37.4634C47.683 37.5663 48.0144 37.6177 48.3686 37.6177C48.6314 37.6177 48.9056 37.5948 49.1913 37.5491C49.4883 37.492 49.7112 37.4463 49.8597 37.412L49.8768 40C49.6255 40.08 49.2941 40.1543 48.8828 40.2228C48.4829 40.3028 47.9973 40.3428 47.426 40.3428C46.649 40.3428 45.9349 40.1885 45.2836 39.88C44.6323 39.5715 44.1124 39.0574 43.7239 38.3375C43.3469 37.6063 43.1584 36.6236 43.1584 35.3896V16.9481ZM56.681 24.3693V40H53.5103V21.4557H56.5953L56.681 24.3693ZM62.474 21.3528L62.4568 24.3007C62.194 24.2436 61.9427 24.2093 61.7027 24.1979C61.4742 24.175 61.2114 24.1636 60.9143 24.1636C60.1831 24.1636 59.5375 24.2779 58.9776 24.5064C58.4177 24.7349 57.9436 25.0548 57.5551 25.4662C57.1666 25.8775 56.8581 26.3688 56.6296 26.9401C56.4125 27.5 56.2697 28.117 56.2011 28.7911L55.3099 29.3053C55.3099 28.1855 55.4184 27.1344 55.6355 26.1517C55.864 25.1691 56.2125 24.3007 56.681 23.5466C57.1495 22.7811 57.7436 22.1869 58.4634 21.7642C59.1947 21.33 60.0631 21.1129 61.0686 21.1129C61.2971 21.1129 61.5599 21.1414 61.857 21.1986C62.154 21.2443 62.3597 21.2957 62.474 21.3528ZM68.8497 21.4557V40H65.6618V21.4557H68.8497ZM65.4219 16.5368C65.4219 16.0226 65.5761 15.5884 65.8846 15.2342C66.2045 14.88 66.673 14.7029 67.29 14.7029C67.8956 14.7029 68.3583 14.88 68.6783 15.2342C69.0096 15.5884 69.1753 16.0226 69.1753 16.5368C69.1753 17.0281 69.0096 17.4508 68.6783 17.8051C68.3583 18.1478 67.8956 18.3192 67.29 18.3192C66.673 18.3192 66.2045 18.1478 65.8846 17.8051C65.5761 17.4508 65.4219 17.0281 65.4219 16.5368ZM77.1106 25.0206V47.1298H73.9228V21.4557H76.8364L77.1106 25.0206ZM89.6049 30.5736V30.9335C89.6049 32.2818 89.445 33.5329 89.125 34.6869C88.8051 35.8295 88.3366 36.8236 87.7196 37.6691C87.1141 38.5146 86.3657 39.1716 85.4744 39.6401C84.5832 40.1085 83.5606 40.3428 82.4066 40.3428C81.2297 40.3428 80.1899 40.1485 79.2873 39.7601C78.3846 39.3716 77.6191 38.806 76.9907 38.0633C76.3622 37.3206 75.8595 36.4294 75.4824 35.3896C75.1168 34.3499 74.8654 33.1787 74.7283 31.8761V29.9566C74.8654 28.5855 75.1225 27.3572 75.4996 26.2717C75.8766 25.1862 76.3737 24.2607 76.9907 23.4952C77.6191 22.7182 78.3789 22.1298 79.2701 21.7299C80.1614 21.3185 81.1897 21.1129 82.3551 21.1129C83.5206 21.1129 84.5546 21.3414 85.4573 21.7984C86.3599 22.244 87.1198 22.8839 87.7368 23.718C88.3538 24.5521 88.8165 25.5519 89.125 26.7173C89.445 27.8713 89.6049 29.1568 89.6049 30.5736ZM86.4171 30.9335V30.5736C86.4171 29.6481 86.32 28.7797 86.1257 27.9685C85.9315 27.1458 85.6287 26.4259 85.2174 25.8089C84.8174 25.1805 84.3033 24.6892 83.6748 24.335C83.0464 23.9694 82.298 23.7865 81.4296 23.7865C80.6298 23.7865 79.9328 23.9237 79.3387 24.1979C78.756 24.4721 78.2589 24.8435 77.8476 25.3119C77.4363 25.769 77.0992 26.2945 76.8364 26.8887C76.585 27.4714 76.3965 28.077 76.2708 28.7054V33.1444C76.4993 33.9442 76.8193 34.6984 77.2306 35.4068C77.6419 36.1037 78.1904 36.6693 78.8759 37.1035C79.5615 37.5263 80.4242 37.7377 81.4639 37.7377C82.3209 37.7377 83.0578 37.5606 83.6748 37.2064C84.3033 36.8407 84.8174 36.3437 85.2174 35.7153C85.6287 35.0868 85.9315 34.367 86.1257 33.5558C86.32 32.7331 86.4171 31.859 86.4171 30.9335ZM98.3801 40H95.2094V19.5018C95.2094 18.165 95.4493 17.0395 95.9292 16.1254C96.4205 15.1999 97.1232 14.5029 98.0373 14.0345C98.9514 13.5546 100.037 13.3146 101.294 13.3146C101.659 13.3146 102.025 13.3375 102.391 13.3832C102.768 13.4289 103.133 13.4975 103.487 13.5889L103.316 16.1769C103.076 16.1197 102.802 16.0797 102.493 16.0569C102.196 16.034 101.899 16.0226 101.602 16.0226C100.928 16.0226 100.345 16.1597 99.854 16.4339C99.3741 16.6967 99.0085 17.0852 98.7571 17.5994C98.5058 18.1136 98.3801 18.7477 98.3801 19.5018V40ZM102.322 21.4557V23.8894H92.2786V21.4557H102.322ZM117.199 35.7153V21.4557H120.386V40H117.353L117.199 35.7153ZM117.799 31.8076L119.118 31.7733C119.118 33.0073 118.987 34.1499 118.724 35.2011C118.473 36.2409 118.061 37.1435 117.49 37.909C116.919 38.6746 116.17 39.2745 115.245 39.7086C114.319 40.1314 113.194 40.3428 111.868 40.3428C110.966 40.3428 110.137 40.2114 109.383 39.9486C108.641 39.6858 108.001 39.2802 107.464 38.7317C106.927 38.1833 106.51 37.4691 106.213 36.5893C105.927 35.7095 105.784 34.6526 105.784 33.4186V21.4557H108.955V33.4529C108.955 34.287 109.046 34.9783 109.229 35.5267C109.423 36.0638 109.68 36.4922 110 36.8122C110.332 37.1207 110.697 37.3377 111.097 37.4634C111.509 37.5891 111.931 37.652 112.365 37.652C113.714 37.652 114.782 37.3949 115.57 36.8807C116.359 36.3551 116.924 35.6524 117.267 34.7726C117.621 33.8814 117.799 32.893 117.799 31.8076ZM128.665 13.6746V40H125.477V13.6746H128.665Z" fill="white"/>
<circle cx="67.3399" cy="15.7954" r="2.45704" fill="white"/>
<circle cx="21.0076" cy="29.8357" r="13.6892" fill="white"/>
<path d="M30.6444 21.5696L18.6094 23.1274L23.2076 26.3466L22.2337 28.8892L24.8117 28.3067L26.345 33.3796L30.6444 21.5696Z" fill="#F5A761" stroke="#F4A261" stroke-width="0.685862"/>
<path d="M21.1321 29.6807C-5.54119 51.511 40.4659 26.7276 0.999989 38.5502" stroke="#F4A261" stroke-width="0.702012" stroke-linecap="round" stroke-dasharray="1.4 1.4"/>
</svg>
