<svg width="128" height="51" viewBox="0 0 128 51" fill="none" xmlns="http://www.w3.org/2000/svg">
<path d="M51.2261 1.16064C51.2261 1.41611 51.5837 1.62049 51.9925 1.62049C52.5545 1.62049 52.7589 2.23363 52.7589 4.17524C52.7589 5.5548 53.0144 6.72998 53.2699 6.72998C53.5764 6.72998 53.7808 5.5548 53.7808 4.17524C53.7808 2.13144 53.9341 1.62049 54.6494 1.62049C55.1093 1.62049 55.3137 1.46721 55.1093 1.26283C54.5472 0.700783 51.2261 0.598593 51.2261 1.16064Z" fill="white"/>
<path d="M62.1089 3.66406C62.1089 5.50347 62.2111 6.37208 62.3133 5.55457C62.5176 4.43048 62.7731 4.175 63.9994 4.175C65.2257 4.175 65.4811 4.43048 65.6855 5.55457C65.7877 6.37208 65.8899 5.50347 65.8899 3.66406C65.8899 1.82464 65.7877 0.956026 65.6855 1.72245C65.4811 2.89763 65.2257 3.15311 63.9994 3.15311C62.7731 3.15311 62.5176 2.89763 62.3133 1.72245C62.2111 0.956026 62.1089 1.82464 62.1089 3.66406Z" fill="white"/>
<path d="M73.197 3.76648V6.72998H74.9853C75.9561 6.72998 76.7737 6.47451 76.7737 6.21903C76.7737 5.91246 76.1094 5.70808 75.2408 5.70808C74.2189 5.70808 73.708 5.45261 73.708 4.94166C73.708 4.43071 74.2189 4.17524 75.2919 4.17524C76.1605 4.17524 76.7226 3.97086 76.5182 3.66429C76.3649 3.35772 75.6496 3.15334 74.9342 3.15334C74.1678 3.15334 73.708 2.84677 73.708 2.38691C73.708 1.87597 74.2189 1.62049 75.343 1.62049C77.3357 1.62049 76.8248 0.956258 74.7299 0.905163C73.197 0.854068 73.197 0.854068 73.197 3.76648Z" fill="white"/>
<path d="M0.641373 8.62043C3.19612 9.08029 3.19612 9.18248 3.19612 21.0365C3.19612 32.8394 3.19612 32.9416 0.641373 33.4526C-0.0739552 33.6058 3.04283 33.6569 7.53918 33.6058C16.4297 33.4526 17.9114 33.0949 20.0063 30.438C21.2326 28.9051 21.437 25.9416 20.4662 23.8467C19.7509 22.3139 16.6852 20.5255 14.5903 20.4745L13.1596 20.4234L14.6925 20.0657C18.3202 19.146 20.0574 17.3066 20.0574 14.2409C20.0574 12.708 19.6998 11.9416 18.5246 10.8175C16.4297 8.87591 13.1596 8.26277 5.59758 8.31386C2.17422 8.36496 -0.0739552 8.51824 0.641373 8.62043ZM12.8531 9.74452C14.6414 11.5328 14.6414 17.1533 12.8531 19.2993C12.5465 19.708 11.4735 20.0146 10.5538 20.0146H8.81656V14.3942V8.77372H10.3494C11.218 8.77372 12.291 9.18248 12.8531 9.74452ZM13.7728 21.7518C15.1012 22.8759 15.1523 23.2336 15.1523 26.9124C15.1523 30.5912 15.1012 30.9489 13.7728 32.073C12.8531 32.8394 11.6779 33.2993 10.5538 33.2993H8.81656V26.9124V20.5255H10.5538C11.6779 20.5255 12.8531 20.9854 13.7728 21.7518Z" fill="white"/>
<path d="M24.9123 8.67123L26.4452 9.02889V21.0362V33.0435L24.9123 33.3501C23.5839 33.6566 23.6861 33.7077 25.6788 33.7588L27.978 33.8099L26.1386 35.5982C24.7591 37.0289 23.7372 37.4887 21.4379 37.8975C19.854 38.153 17.708 38.2552 16.635 38.1019C14.9999 37.8464 14.8467 37.8975 15.6642 38.4596C16.3284 38.8683 17.7591 38.9705 20.1605 38.715L23.6861 38.4085L21.9999 39.8391C21.0802 40.6055 19.6496 41.7296 18.8321 42.3428C17.2992 43.4158 17.2992 43.4158 14.9999 42.3939C12.1386 41.1676 9.17512 41.3209 8.86855 42.7004C8.76636 43.2625 9.12403 44.0289 9.63497 44.3866C10.708 45.153 14.5912 45.2552 15.9707 44.5398C16.6861 44.1822 17.6058 44.2844 19.5474 45.0508C22.7664 46.3282 25.4233 46.3282 27.7226 45.1019C29.3065 44.2844 29.562 44.2844 30.0729 44.9486C30.8904 46.0727 32.781 44.8464 33.1897 42.9559C33.4452 41.5763 33.5985 41.4231 34.8248 41.7807C35.5401 42.0362 37.124 42.1895 38.2992 42.2406C40.2919 42.2406 40.3941 42.2917 40.1386 43.569C39.7299 45.6128 40.9561 46.0216 42.3868 44.3355C42.9999 43.569 43.562 42.496 43.562 41.9851C43.562 41.0654 43.6642 41.0654 45.4525 41.7807C46.4744 42.2406 48.1094 42.496 49.0291 42.3939C49.9488 42.2917 50.7153 42.2917 50.7153 42.3428C50.7153 42.445 49.8466 43.7223 48.7226 45.2041C46.3211 48.4231 45.4014 50.1603 45.8612 50.569C46.0145 50.7734 46.781 50.1092 47.5474 49.1384C48.3138 48.1676 49.7956 46.3793 50.9196 45.153C52.8612 43.0581 52.9123 43.007 53.4744 44.08C54.4963 46.1238 55.5693 46.4304 58.4817 45.3574C61.2919 44.3866 66.7591 41.4741 66.4014 41.1676C66.2992 41.0654 64.4087 41.934 62.1605 43.0581C57.9707 45.2041 55.0072 45.715 54.2408 44.4887C53.9342 43.9778 54.2919 43.569 55.8248 42.9048C58.124 41.934 59.3503 40.1968 58.0729 39.7369C56.9999 39.3282 54.6496 40.6566 51.8394 43.1603C50.3576 44.5398 49.7445 44.8975 50.1532 44.1822C50.4598 43.569 51.5839 42.3428 52.6569 41.5252C53.6788 40.6566 56.2846 38.5617 58.3795 36.8756L62.2116 33.7588L65.7883 33.861C67.781 33.861 70.5401 33.9121 71.9196 33.861C74.3211 33.7588 74.4233 33.7077 73.2481 33.0946C72.0729 32.4304 72.0729 32.4304 74.0145 31.6639C76.7737 30.5909 79.3284 30.08 79.3284 30.5909C79.3284 31.153 76.5182 33.299 75.7518 33.299C75.4963 33.299 75.2919 33.5033 75.3941 33.7077C75.5985 34.4231 67.9342 42.445 66.4014 43.0581C64.6131 43.8245 63.6934 45.3574 64.5109 46.3282C64.8685 46.788 64.9196 47.0946 64.5109 47.3501C64.2554 47.5033 63.9999 47.9121 63.9999 48.2187C63.9999 48.5763 64.2554 48.5252 64.7153 48.1676C65.124 47.8099 67.0145 47.5033 68.9561 47.4012C73.197 47.1968 77.5912 45.5617 79.5839 43.5179C80.6058 42.445 81.3722 42.0873 82.0875 42.2406C83.1094 42.5471 83.1094 42.496 82.2919 41.8318C81.781 41.4231 81.3722 40.5544 81.3722 39.8391C81.3722 39.1749 81.1167 38.3574 80.8102 38.0508C80.4014 37.642 80.5547 37.3355 81.4233 36.8756C83.5182 35.8026 85.9707 33.1457 85.9707 31.9705C85.9707 30.3866 84.7955 29.6201 81.832 29.4158C79.5839 29.2625 75.905 30.08 72.635 31.4595C71.9707 31.7661 71.562 31.153 70.6934 28.7004C69.6715 25.8902 69.6204 25.5325 70.3357 24.5106C71.8175 22.4158 70.8977 20.4741 69.2116 22.1603C68.5474 22.8245 68.8029 23.2844 65.7883 14.9048C64.7153 11.9413 63.7445 9.23327 63.6423 8.87561C63.489 8.56904 62.6204 8.26247 61.7007 8.26247C60.3211 8.26247 59.9123 8.51794 59.5036 9.64203C54.2408 24.153 51.5328 31.2041 50.9196 32.1749C50.3065 33.0946 49.7445 33.3501 48.2627 33.1968C46.5766 33.0435 46.1678 32.6858 44.5328 30.2333C43.5109 28.7004 41.978 26.0946 41.0583 24.5106L39.4233 21.5982L41.0072 20.7807C44.124 19.1457 45.4525 15.007 43.8175 11.8902C42.4379 9.18217 40.1386 8.56904 31.2992 8.41575C26.9561 8.36466 24.0948 8.46685 24.9123 8.67123ZM37.2262 10.1019C38.4525 11.3282 38.5547 11.6347 38.3503 15.5179C38.197 19.0435 38.0437 19.7077 36.9707 20.5763C36.3065 21.0873 35.0291 21.5471 34.0583 21.5471H32.3211V15.1603V8.77342H34.1094C35.3868 8.77342 36.3576 9.18217 37.2262 10.1019ZM61.5474 17.9705C62.416 20.6274 63.2335 23.1311 63.3357 23.4377C63.5401 23.9486 62.5182 24.1019 59.197 24.1019C56.7956 24.1019 54.8029 23.9997 54.8029 23.8975C54.8029 23.7442 58.5839 13.372 59.2481 11.8391C59.5036 11.226 59.6058 11.2771 59.8102 12.0946C59.9123 12.6566 60.7299 15.3136 61.5474 17.9705ZM36.7664 26.7588C40.3941 33.4522 40.4452 33.4522 49.2846 33.6055C53.3211 33.6566 55.7737 33.6055 54.8029 33.4522C51.7883 33.0435 51.635 32.6347 53.1167 28.3939L54.4963 24.6128H59.197C65.4817 24.6128 65.5328 25.0216 60.0656 31.2041C57.7153 33.8099 54.9561 37.08 53.8831 38.4596C51.5839 41.4231 49.5912 42.2917 46.6788 41.4741C45.5547 41.1676 44.5839 40.6566 44.4306 40.299C44.2773 39.8391 43.8685 39.8902 42.7445 40.5033C41.9269 40.9632 40.5985 41.5252 39.7299 41.6785C37.9415 42.0362 34.8758 41.2698 34.2627 40.3501C33.854 39.5836 33.8029 39.6347 29.8175 42.8537C26.5474 45.5106 24.6569 45.9194 20.7737 44.7953L17.7591 43.9267L19.2919 42.8537C20.1605 42.2406 21.8977 40.7588 23.1751 39.5836C24.4525 38.3574 25.7299 37.3866 26.0364 37.3866C26.2919 37.3866 27.8248 36.569 29.4598 35.5982C31.0948 34.6274 33.1897 33.7588 34.0583 33.7588C35.3357 33.7077 35.3868 33.6055 34.4671 33.4522C33.6496 33.299 33.343 32.9924 33.5474 32.4814C33.7007 32.0727 34.0072 31.4085 34.1605 30.9486C34.416 30.4377 34.1605 30.08 33.3941 29.8756C32.4233 29.6201 32.3211 29.2625 32.3211 25.8391C32.3211 22.5179 32.4233 22.0581 33.2408 22.0581C33.905 22.0581 34.978 23.4887 36.7664 26.7588ZM70.1313 23.5909C69.6204 24.5106 69.416 24.6128 69.0583 24.0508C68.7518 23.5909 68.905 23.1311 69.4671 22.7223C70.5912 21.8537 70.8466 22.2114 70.1313 23.5909ZM64.9707 28.2917C65.3284 29.2625 65.0729 29.8245 63.5401 31.4085C61.2408 33.9121 54.0875 39.788 54.343 39.0727C54.5474 38.5106 64.1021 27.2698 64.4087 27.2187C64.4598 27.1676 64.7664 27.6785 64.9707 28.2917ZM32.8831 31.9194C32.4744 32.3282 32.3211 32.2771 32.3211 31.715C32.3211 30.6931 32.9853 29.9778 33.2408 30.7442C33.3941 31.1019 33.1897 31.6128 32.8831 31.9194ZM84.9488 30.9997C85.9196 32.1749 85.051 33.7077 82.2919 35.5471C80.2481 36.9778 79.3795 37.2333 77.8977 37.0289C75.8539 36.7734 73.197 37.5398 73.197 38.4085C73.197 39.0727 76.3138 39.0727 78.1021 38.4085C79.7372 37.7442 80.9634 38.5617 80.7591 40.0946C80.6058 41.0143 80.2481 41.1165 76.7737 41.0143C74.6788 40.9632 72.1751 41.1676 71.3065 41.4231C70.3868 41.6785 69.6204 41.7296 69.6204 41.5763C69.6204 41.372 71.3065 39.5325 73.3503 37.4887L77.0291 33.8099L80.8612 33.7077C83.0583 33.6566 83.8247 33.5544 82.6496 33.4522C80.5036 33.2479 79.2262 32.1749 79.6861 30.9486C80.0437 29.9778 84.1313 29.9778 84.9488 30.9997ZM65.9415 31.8683C65.8393 32.7369 65.3795 33.0946 64.2554 33.1968L62.7226 33.4012L63.9488 32.0727C65.4817 30.4377 66.1459 30.3866 65.9415 31.8683ZM30.7883 34.0143C30.7883 34.2698 27.2627 36.3647 26.854 36.3647C26.6496 36.3647 27.0583 35.8026 27.7226 35.0873C28.7445 34.0143 30.7883 33.299 30.7883 34.0143ZM77.0291 37.8975C76.8758 38.153 76.1094 38.4085 75.343 38.3574C74.1167 38.3574 74.0656 38.3063 74.9853 37.8975C76.416 37.2844 77.3868 37.2844 77.0291 37.8975ZM57.562 41.0143C57.2554 41.5763 54.1897 43.007 53.4233 43.007C53.2189 42.9559 53.7299 42.3939 54.5474 41.7296C56.0802 40.4523 58.2262 39.9413 57.562 41.0143ZM32.8321 42.1895C32.8321 43.2625 30.9926 45.3063 30.635 44.6931C30.4306 44.3866 30.7883 43.569 31.3503 42.8026C32.5255 41.2698 32.8321 41.1676 32.8321 42.1895ZM43.051 41.934C43.051 42.7004 41.1094 44.7953 40.7518 44.4377C40.2919 43.9778 41.8248 41.4741 42.5401 41.4741C42.8466 41.4741 43.051 41.6785 43.051 41.934ZM79.5328 41.934C80.708 43.8245 69.0072 48.1676 66.708 46.6858C66.2481 46.3793 66.4014 45.8172 67.3211 44.4377C68.2919 43.007 69.0583 42.496 70.9999 42.0873C74.1678 41.4231 79.1751 41.3209 79.5328 41.934ZM14.3357 42.7515C15.8175 43.4158 16.0729 43.6712 15.4598 44.0289C13.5182 45.2552 8.61308 44.0289 9.53279 42.5982C10.0437 41.7296 12.0875 41.8318 14.3357 42.7515ZM66.197 44.8464C65.7372 45.6128 65.2262 45.9194 65.124 45.6128C64.9196 44.9486 65.9415 43.5179 66.6058 43.5179C66.8612 43.5179 66.708 44.1311 66.197 44.8464ZM48.978 46.4814C48.0583 47.299 48.0583 47.299 48.6715 46.1749C48.978 45.5106 49.3868 45.1019 49.5912 45.2552C49.7445 45.4596 49.489 45.9705 48.978 46.4814Z" fill="white"/>
<path d="M76.5168 8.62052C77.3854 8.77381 78.5095 9.33585 79.0716 9.94899C79.6847 10.5621 83.5168 16.1826 87.6555 22.4161C93.2759 31.0512 95.3708 33.8103 96.1373 33.8103C97.1592 33.8103 97.2103 33.4526 97.3124 21.3942L97.4657 9.02928L99.5095 8.72271C100.787 8.51833 99.7139 8.41614 96.6993 8.41614C93.3781 8.41614 92.5606 8.51833 94.1446 8.72271L96.4438 9.02928L96.5971 18.2264L96.6993 27.4234L90.4657 17.8687L84.1811 8.26286L79.5825 8.36505C77.0789 8.36505 75.6993 8.51833 76.5168 8.62052Z" fill="white"/>
<path d="M104.619 8.67139L106.152 9.02905L106.305 20.4743C106.459 32.4305 106.357 33.0436 104.211 33.4524C103.597 33.5546 104.977 33.7079 107.327 33.759L111.517 33.8101L108.451 37.5911C106.05 40.4524 104.926 41.4232 103.7 41.6787C101.809 42.0364 98.7434 41.2699 98.1814 40.3502C97.8748 39.8393 97.4149 39.8904 96.1376 40.6568C94.4003 41.6787 91.7434 41.9342 89.2909 41.2699C88.1668 41.0145 87.9113 41.0655 88.3201 41.4743C88.6266 41.7809 90.0062 42.1385 91.4368 42.3429C93.8383 42.5984 94.0427 42.7517 93.9916 43.9269C93.9405 44.6422 94.1449 45.3064 94.5025 45.4086C95.3711 45.7152 97.2106 43.5181 97.2106 42.1896C97.2106 41.0145 97.2617 41.0145 99.1011 41.7809C100.123 42.2407 101.758 42.4962 102.678 42.394C103.597 42.2918 104.364 42.2918 104.364 42.394C104.364 42.4962 103.597 43.6714 102.627 44.9999C100.532 47.9123 99.1011 50.6714 99.6631 50.6714C99.9186 50.6714 101.605 48.8831 103.342 46.7371C106.305 43.1604 106.612 42.905 106.97 43.9269C107.685 45.8174 109.524 46.3283 112.335 45.3575C115.043 44.4889 120.459 41.5254 120.101 41.1677C119.948 41.0655 118.517 41.6787 116.933 42.5473C115.298 43.4159 112.999 44.4378 111.773 44.7955C109.882 45.4086 109.422 45.3575 108.451 44.6933C107.327 43.9269 107.327 43.9269 109.32 43.0072C111.67 41.9853 112.897 40.6057 112.181 39.8904C111.517 39.2261 109.32 40.0947 106.868 42.0364C105.743 42.905 104.875 43.3648 104.875 43.0582C104.875 42.7517 106.203 41.5765 107.838 40.4013C109.422 39.2261 112.028 37.1823 113.561 35.8539C115.503 34.2188 117.035 33.3502 118.415 33.1458C121.327 32.686 124.291 30.3867 125.773 27.4232C126.897 25.2772 127.101 24.2042 127.101 20.4743C127.101 16.4889 126.948 15.8758 125.568 13.6276C124.495 11.8393 123.269 10.7663 121.481 9.84657C119.13 8.62029 118.415 8.5181 111.006 8.41591C106.663 8.36482 103.802 8.46701 104.619 8.67139ZM117.342 9.48891C119.743 10.5108 120.868 13.1677 121.123 18.6349L121.378 23.1823L118.824 25.7882C117.444 27.2699 115.349 29.5181 114.174 30.8466L112.028 33.2991V21.0364V8.77358H113.816C114.838 8.77358 116.371 9.08015 117.342 9.48891ZM120.919 26.5035C120.51 28.6495 115.605 33.4524 114.072 33.1969C113.101 33.0436 113.408 32.5327 116.882 28.8028C119.079 26.4524 120.919 24.6641 121.021 24.7663C121.123 24.8685 121.072 25.686 120.919 26.5035ZM119.692 30.3867C119.692 30.4889 119.181 30.9999 118.568 31.5619L117.393 32.5327L118.364 31.3575C119.284 30.2845 119.692 29.978 119.692 30.3867ZM114.327 34.321C114.174 34.5765 112.59 35.905 110.853 37.2334C109.167 38.5619 108.043 39.175 108.451 38.613C110.955 35.1385 112.386 33.8101 113.459 33.8101C114.123 33.8101 114.481 34.0145 114.327 34.321ZM111.211 41.0145C110.802 41.6787 107.43 43.1604 107.072 42.8539C106.765 42.5473 110.086 40.4524 110.904 40.4524C111.262 40.4524 111.415 40.7079 111.211 41.0145ZM96.6996 42.1385C96.6996 43.1093 95.1668 45.102 94.6047 44.7955C94.3493 44.5911 94.5025 43.8247 94.9113 42.9561C95.7288 41.4232 96.6996 40.9634 96.6996 42.1385ZM103.597 45.4597L102.167 46.8393L103.342 45.1531C103.955 44.2334 104.619 43.5692 104.773 43.7736C104.926 43.9269 104.415 44.6933 103.597 45.4597Z" fill="white"/>
<path d="M79.5325 20.0144C79.5325 24.9195 79.6347 26.9633 79.6858 24.4596C79.7879 22.0071 79.7879 18.0217 79.6858 15.518C79.6347 13.0655 79.5325 15.1093 79.5325 20.0144Z" fill="white"/>
<path d="M66.2471 35.9561L64.7654 37.54L66.707 36.1094C68.6486 34.6787 68.9552 34.3211 68.1887 34.3211C67.9333 34.3211 67.1157 35.0364 66.2471 35.9561Z" fill="white"/>
<path d="M85.4079 41.4234C83.9262 42.9563 83.4663 44.6935 84.4371 45.3066C85.5101 45.9709 86.6853 44.438 87.7072 41.0658C88.2181 39.4818 87.2473 39.6351 85.4079 41.4234ZM86.6342 42.4453C86.4809 43.0074 85.9189 43.8249 85.4079 44.3358C84.4882 45.1533 84.4371 45.1533 84.4371 44.2847C84.4371 43.3139 85.8167 41.4745 86.532 41.4745C86.7364 41.4745 86.7875 41.9344 86.6342 42.4453Z" fill="white"/>
</svg>
