<svg width="154" height="25" viewBox="0 0 154 25" fill="none" xmlns="http://www.w3.org/2000/svg">
<path d="M8.62399 24.64H0L3.696 16.8373H12.6464L7.80266 8.62399L12.7307 0L27.104 24.64H17.248L12.6909 16.9128L8.62399 24.64Z" fill="white"/>
<path d="M27.9253 24.2293H35.728V14.3733L40.2453 24.2293H47.2266L51.3333 14.3733V24.2293H59.5466V1.64267H48.2442L43.1199 11.4987L38.4095 1.44946H28.2636L27.9253 24.2293Z" fill="white"/>
<path d="M61.5999 24.2293H81.7226V18.0693H69.8133V15.1947H81.7226V9.856H69.8133V7.392H81.3119V1.64267H61.5999V24.2293Z" fill="white"/>
<path d="M90.7572 24.2293H98.9706V7.80267H106.363V1.64267H83.7759V7.392H90.7572V24.2293Z" fill="white"/>
<path d="M128.128 24.2293V18.0693H116.219V15.1947H128.128V9.856H116.219V7.392H128.128V1.64267H108.416V24.2293H128.128Z" fill="white"/>
<path d="M130.592 24.2293V1.64267H138.395V6.98133L143.733 1.64267H152.768L144.965 10.6773L154 24.2293H144.555L139.216 16.4267V24.2293H130.592Z" fill="white"/>
</svg>
