<svg width="45" height="56" viewBox="0 0 45 56" fill="none" xmlns="http://www.w3.org/2000/svg">
<path d="M14.9737 20.5498C14.8286 20.5498 9.43271 23.0397 9.11341 29.1725C8.81991 34.8167 12.7176 40.1658 13.2208 39.8159C13.8368 39.3821 12.7902 35.8698 13.9884 31.8511C14.4125 30.4255 16.2703 29.1612 16.2703 29.1612L14.9737 20.5498Z" fill="black"/>
<path opacity="0.1" d="M16.2717 29.1564C15.7291 29.5407 15.2333 29.9872 14.7945 30.4868C13.9882 28.6952 12.4949 25.3506 11.5273 23.1832C13.1077 21.3561 14.8913 20.5498 14.9735 20.5498L16.2717 29.1564Z" fill="black"/>
<path d="M28.7076 20.5596C28.8511 20.5596 34.2437 23.0575 34.5549 29.1904C34.8404 34.8346 30.933 40.1788 30.4314 39.824C29.8154 39.3886 30.8685 35.8779 29.6767 31.8576C29.2542 30.4321 27.3965 29.1646 27.3965 29.1646L28.7076 20.5596Z" fill="black"/>
<path opacity="0.1" d="M32.1702 23.2224C31.193 25.4091 29.6932 28.7601 28.8998 30.5308C28.455 30.0188 27.9511 29.5613 27.3984 29.1681L28.7079 20.5615C28.7901 20.5583 30.5882 21.3759 32.1702 23.2224Z" fill="black"/>
<path d="M25.9206 34.6586H17.7784C17.7784 34.6586 13.9436 27.8001 14.3919 19.6241C14.6209 15.5425 15.682 11.4335 16.9721 8.03251C18.7428 3.33008 20.9279 0 21.8713 0C22.8147 0 24.9966 3.33492 26.7608 8.03412C28.0364 11.4352 29.0975 15.5474 29.32 19.6289C29.7732 27.805 25.9206 34.6586 25.9206 34.6586Z" fill="#EBEBEB"/>
<path d="M26.7318 18.569C26.7308 19.4978 26.4545 20.4054 25.9377 21.1771C25.4209 21.9488 24.6869 22.55 23.8284 22.9045C22.97 23.259 22.0257 23.3511 21.1149 23.1689C20.2042 22.9868 19.3679 22.5387 18.7118 21.8813C18.0558 21.2239 17.6094 20.3867 17.4291 19.4755C17.2489 18.5644 17.3428 17.6203 17.6992 16.7626C18.0555 15.9049 18.6581 15.1721 19.4309 14.6569C20.2037 14.1417 21.1119 13.8672 22.0407 13.8682C22.6574 13.8686 23.268 13.9905 23.8376 14.227C24.4072 14.4636 24.9246 14.81 25.3603 15.2465C25.7959 15.6831 26.1413 16.2012 26.3766 16.7713C26.612 17.3414 26.7326 17.9522 26.7318 18.569Z" fill="#C7C7C7"/>
<path d="M26.5677 18.0928C26.5671 19.0214 26.2911 19.929 25.7748 20.7008C25.2584 21.4726 24.5247 22.074 23.6666 22.429C22.8085 22.7839 21.8644 22.8764 20.9536 22.6949C20.0429 22.5133 19.2065 22.0658 18.5501 21.4089C17.8936 20.7521 17.4467 19.9153 17.2658 19.0045C17.0848 18.0936 17.178 17.1496 17.5336 16.2917C17.8891 15.4338 18.491 14.7006 19.2631 14.1847C20.0353 13.6689 20.9431 13.3936 21.8718 13.3936C22.4888 13.3933 23.0998 13.5148 23.6698 13.7509C24.2399 13.987 24.7578 14.3332 25.1939 14.7696C25.6301 15.2061 25.9759 15.7242 26.2116 16.2944C26.4474 16.8647 26.5684 17.4757 26.5677 18.0928Z" fill="black"/>
<path d="M25.1146 18.4134C25.2925 16.624 23.9863 15.0292 22.1969 14.8512C20.4075 14.6732 18.8127 15.9795 18.6347 17.7689C18.4568 19.5582 19.7631 21.1531 21.5524 21.331C23.3418 21.509 24.9366 20.2027 25.1146 18.4134Z" fill="white"/>
<path d="M25.1267 18.088C25.1276 18.4918 25.0527 18.8922 24.9058 19.2684L23.0513 21.1261C22.3961 21.3792 21.6767 21.4143 21 21.2261L25.0074 17.2188C25.0865 17.5017 25.1266 17.7941 25.1267 18.088Z" fill="#EBEBEB"/>
<path d="M22.3539 14.8667L18.6449 18.5661C18.6213 18.4059 18.6094 18.2442 18.6094 18.0823C18.6124 17.2198 18.9573 16.3936 19.5686 15.7851C20.1799 15.1765 21.0076 14.8352 21.8701 14.8361C22.0319 14.8345 22.1936 14.8448 22.3539 14.8667Z" fill="#EBEBEB"/>
<path d="M24.7219 16.5113L20.2952 20.9364C20.2095 20.8873 20.1266 20.8335 20.0469 20.7751L24.5622 16.2598C24.6219 16.3404 24.6735 16.4243 24.7219 16.5113Z" fill="#EBEBEB"/>
<path d="M26.7636 8.03412H16.9766C18.7424 3.33008 20.9275 0 21.8709 0C22.8143 0 24.9994 3.33492 26.7636 8.03412Z" fill="black"/>
<path d="M18.6616 7.01634C18.6616 7.07056 18.6455 7.12356 18.6154 7.16864C18.5852 7.21373 18.5424 7.24886 18.4923 7.26961C18.4422 7.29036 18.3871 7.29579 18.3339 7.28521C18.2808 7.27464 18.2319 7.24853 18.1936 7.21019C18.1552 7.17185 18.1291 7.123 18.1185 7.06982C18.108 7.01664 18.1134 6.96152 18.1341 6.91142C18.1549 6.86133 18.19 6.81851 18.2351 6.78839C18.2802 6.75827 18.3332 6.74219 18.3874 6.74219C18.4234 6.74219 18.4591 6.74928 18.4923 6.76306C18.5256 6.77683 18.5558 6.79703 18.5813 6.82248C18.6067 6.84794 18.6269 6.87816 18.6407 6.91142C18.6545 6.94468 18.6616 6.98033 18.6616 7.01634Z" fill="white"/>
<path d="M20.4038 7.01829C20.4038 7.07251 20.3877 7.12551 20.3576 7.1706C20.3274 7.21568 20.2846 7.25082 20.2345 7.27157C20.1844 7.29232 20.1293 7.29774 20.0761 7.28717C20.023 7.27659 19.9741 7.25048 19.9358 7.21214C19.8974 7.1738 19.8713 7.12495 19.8607 7.07177C19.8502 7.01859 19.8556 6.96347 19.8763 6.91338C19.8971 6.86328 19.9322 6.82047 19.9773 6.79034C20.0224 6.76022 20.0754 6.74414 20.1296 6.74414C20.1656 6.74414 20.2013 6.75123 20.2345 6.76501C20.2678 6.77879 20.298 6.79898 20.3235 6.82444C20.3489 6.84989 20.3691 6.88012 20.3829 6.91338C20.3967 6.94664 20.4038 6.98229 20.4038 7.01829Z" fill="white"/>
<path d="M22.144 7.0199C22.1437 7.07412 22.1273 7.12703 22.0969 7.17194C22.0665 7.21684 22.0235 7.25173 21.9733 7.27218C21.9231 7.29263 21.8679 7.29774 21.8148 7.28685C21.7617 7.27596 21.713 7.24956 21.6749 7.21099C21.6367 7.17243 21.6109 7.12343 21.6007 7.07019C21.5904 7.01695 21.5961 6.96186 21.6172 6.91189C21.6382 6.86192 21.6736 6.81931 21.7189 6.78945C21.7641 6.75959 21.8172 6.74383 21.8715 6.74415C21.9075 6.74436 21.9431 6.75166 21.9762 6.76563C22.0094 6.7796 22.0395 6.79997 22.0648 6.82558C22.0901 6.85119 22.1102 6.88153 22.1237 6.91487C22.1373 6.94821 22.1442 6.9839 22.144 7.0199Z" fill="white"/>
<path d="M23.8842 7.02024C23.8842 7.07446 23.8682 7.12747 23.838 7.17255C23.8079 7.21763 23.7651 7.25277 23.715 7.27352C23.6649 7.29427 23.6098 7.2997 23.5566 7.28912C23.5034 7.27854 23.4546 7.25243 23.4162 7.21409C23.3779 7.17575 23.3518 7.1269 23.3412 7.07372C23.3306 7.02054 23.3361 6.96542 23.3568 6.91533C23.3776 6.86524 23.4127 6.82242 23.4578 6.7923C23.5029 6.76217 23.5559 6.74609 23.6101 6.74609C23.6828 6.74609 23.7525 6.77498 23.8039 6.82639C23.8554 6.8778 23.8842 6.94753 23.8842 7.02024Z" fill="white"/>
<path d="M25.6264 7.02122C25.6264 7.07544 25.6103 7.12844 25.5802 7.17353C25.5501 7.21861 25.5073 7.25375 25.4572 7.2745C25.4071 7.29525 25.352 7.30068 25.2988 7.2901C25.2456 7.27952 25.1968 7.25341 25.1584 7.21507C25.1201 7.17673 25.094 7.12788 25.0834 7.0747C25.0728 7.02152 25.0782 6.9664 25.099 6.91631C25.1197 6.86621 25.1549 6.8234 25.2 6.79327C25.245 6.76315 25.298 6.74707 25.3523 6.74707C25.425 6.74707 25.4947 6.77595 25.5461 6.82737C25.5975 6.87878 25.6264 6.94851 25.6264 7.02122Z" fill="white"/>
<path d="M18.646 33.4001C18.646 33.4543 18.6299 33.5073 18.5997 33.5524C18.5696 33.5975 18.5268 33.6326 18.4767 33.6534C18.4266 33.6741 18.3715 33.6796 18.3183 33.669C18.2651 33.6584 18.2163 33.6323 18.178 33.594C18.1396 33.5556 18.1135 33.5068 18.1029 33.4536C18.0923 33.4004 18.0978 33.3453 18.1185 33.2952C18.1393 33.2451 18.1744 33.2023 18.2195 33.1722C18.2646 33.1421 18.3176 33.126 18.3718 33.126C18.4445 33.126 18.5142 33.1549 18.5657 33.2063C18.6171 33.2577 18.646 33.3274 18.646 33.4001Z" fill="#C7C7C7"/>
<path d="M20.392 33.4021C20.392 33.4563 20.376 33.5093 20.3458 33.5544C20.3157 33.5995 20.2729 33.6346 20.2228 33.6554C20.1727 33.6761 20.1176 33.6815 20.0644 33.671C20.0112 33.6604 19.9624 33.6343 19.924 33.5959C19.8857 33.5576 19.8596 33.5087 19.849 33.4556C19.8384 33.4024 19.8439 33.3473 19.8646 33.2972C19.8854 33.2471 19.9205 33.2043 19.9656 33.1741C20.0107 33.144 20.0637 33.1279 20.1179 33.1279C20.1906 33.1279 20.2603 33.1568 20.3117 33.2082C20.3632 33.2596 20.392 33.3294 20.392 33.4021Z" fill="#C7C7C7"/>
<path d="M22.1323 33.404C22.1323 33.4583 22.1162 33.5114 22.086 33.5565C22.0558 33.6016 22.0129 33.6368 21.9627 33.6575C21.9125 33.6782 21.8573 33.6835 21.8041 33.6728C21.7508 33.6621 21.702 33.6358 21.6637 33.5973C21.6254 33.5588 21.5995 33.5098 21.5891 33.4565C21.5787 33.4032 21.5843 33.3481 21.6053 33.298C21.6263 33.2479 21.6617 33.2052 21.707 33.1753C21.7523 33.1454 21.8055 33.1296 21.8597 33.1299C21.8957 33.1299 21.9312 33.137 21.9644 33.1508C21.9976 33.1646 22.0277 33.1848 22.053 33.2103C22.0784 33.2358 22.0984 33.266 22.112 33.2992C22.1256 33.3325 22.1325 33.3681 22.1323 33.404Z" fill="#C7C7C7"/>
<path d="M23.8745 33.404C23.8745 33.4583 23.8584 33.5113 23.8283 33.5563C23.7981 33.6014 23.7553 33.6366 23.7052 33.6573C23.6551 33.6781 23.6 33.6835 23.5468 33.6729C23.4937 33.6623 23.4448 33.6362 23.4065 33.5979C23.3681 33.5595 23.342 33.5107 23.3314 33.4575C23.3209 33.4043 23.3263 33.3492 23.347 33.2991C23.3678 33.249 23.4029 33.2062 23.448 33.1761C23.4931 33.146 23.5461 33.1299 23.6003 33.1299C23.673 33.1299 23.7428 33.1588 23.7942 33.2102C23.8456 33.2616 23.8745 33.3313 23.8745 33.404Z" fill="#C7C7C7"/>
<path d="M25.6147 33.406C25.6147 33.4602 25.5986 33.5132 25.5685 33.5583C25.5384 33.6034 25.4956 33.6385 25.4455 33.6593C25.3954 33.68 25.3403 33.6854 25.2871 33.6749C25.2339 33.6643 25.185 33.6382 25.1467 33.5998C25.1084 33.5615 25.0823 33.5126 25.0717 33.4595C25.0611 33.4063 25.0665 33.3512 25.0873 33.3011C25.108 33.251 25.1432 33.2082 25.1882 33.178C25.2333 33.1479 25.2863 33.1318 25.3406 33.1318C25.4133 33.1318 25.483 33.1607 25.5344 33.2121C25.5858 33.2635 25.6147 33.3333 25.6147 33.406Z" fill="#C7C7C7"/>
<path d="M25.1674 37.1061L18.546 37.0997L18.2363 34.6533L25.4803 34.6582L25.1674 37.1061Z" fill="black"/>
<path opacity="0.1" d="M25.4806 34.6598L25.3274 35.8499L18.356 35.5886L18.2383 34.6533L25.4806 34.6598Z" fill="black"/>
<path opacity="0.6" d="M6.74847 49.0246C6.74847 49.2559 6.6799 49.4819 6.55143 49.6742C6.42296 49.8664 6.24037 50.0163 6.02673 50.1048C5.81309 50.1933 5.57801 50.2164 5.35122 50.1713C5.12443 50.1262 4.9161 50.0149 4.75259 49.8513C4.58908 49.6878 4.47773 49.4795 4.43262 49.2527C4.38751 49.0259 4.41066 48.7908 4.49915 48.5772C4.58764 48.3636 4.7375 48.181 4.92977 48.0525C5.12203 47.924 5.34808 47.8555 5.57931 47.8555C5.88939 47.8555 6.18677 47.9786 6.40603 48.1979C6.62529 48.4172 6.74847 48.7145 6.74847 49.0246Z" fill="black"/>
<path opacity="0.6" d="M7.59855 47.3582C7.91295 47.3582 8.16781 47.1034 8.16781 46.789C8.16781 46.4746 7.91295 46.2197 7.59855 46.2197C7.28416 46.2197 7.0293 46.4746 7.0293 46.789C7.0293 47.1034 7.28416 47.3582 7.59855 47.3582Z" fill="black"/>
<path opacity="0.6" d="M33.1756 48.4566C33.1753 48.5691 33.1416 48.679 33.0789 48.7724C33.0162 48.8658 32.9271 48.9385 32.8231 48.9814C32.7191 49.0242 32.6046 49.0353 32.4943 49.0131C32.384 48.991 32.2827 48.9366 32.2033 48.857C32.1238 48.7773 32.0698 48.6758 32.0479 48.5655C32.0261 48.4551 32.0375 48.3407 32.0806 48.2368C32.1237 48.1329 32.1967 48.044 32.2903 47.9816C32.3839 47.9191 32.4938 47.8857 32.6064 47.8857C32.6813 47.8857 32.7554 47.9005 32.8246 47.9292C32.8938 47.9579 32.9566 48 33.0095 48.053C33.0623 48.1061 33.1042 48.169 33.1328 48.2383C33.1613 48.3075 33.1758 48.3817 33.1756 48.4566Z" fill="black"/>
<path opacity="0.6" d="M44.5819 53.6552C44.5819 53.7678 44.5485 53.8778 44.4859 53.9715C44.4234 54.0651 44.3345 54.138 44.2305 54.1811C44.1264 54.2242 44.012 54.2355 43.9016 54.2135C43.7911 54.1915 43.6897 54.1373 43.6101 54.0577C43.5305 53.9781 43.4763 53.8767 43.4543 53.7663C43.4323 53.6558 43.4436 53.5414 43.4867 53.4374C43.5298 53.3333 43.6027 53.2444 43.6964 53.1819C43.79 53.1193 43.9 53.0859 44.0126 53.0859C44.1635 53.0864 44.308 53.1465 44.4147 53.2531C44.5213 53.3598 44.5814 53.5043 44.5819 53.6552Z" fill="black"/>
<path opacity="0.6" d="M43.7103 55.3206C43.7103 55.4099 43.6927 55.4983 43.6585 55.5808C43.6243 55.6633 43.5741 55.7382 43.5109 55.8013C43.4477 55.8643 43.3726 55.9143 43.2901 55.9483C43.2075 55.9823 43.1191 55.9997 43.0298 55.9995H0.678915C0.498856 55.9995 0.326171 55.928 0.19885 55.8007C0.0715281 55.6734 0 55.5007 0 55.3206C0 55.1406 0.0715281 54.9679 0.19885 54.8406C0.326171 54.7132 0.498856 54.6417 0.678915 54.6417C0.733256 54.6416 0.787409 54.6481 0.840178 54.661C0.839764 54.3948 0.918792 54.1344 1.06715 53.9133C1.21551 53.6921 1.42646 53.5203 1.67302 53.4197C1.91958 53.3191 2.19054 53.2943 2.45125 53.3485C2.71196 53.4028 2.95057 53.5335 3.13656 53.7241H3.14946C3.14946 53.6419 3.13656 53.5629 3.13656 53.4742C3.13656 52.8035 3.40297 52.1604 3.87717 51.6862C4.35138 51.212 4.99454 50.9456 5.66516 50.9456C6.05102 50.9445 6.43188 51.0328 6.77788 51.2036C6.802 50.7925 6.966 50.402 7.24264 50.097C7.51929 49.792 7.89194 49.5907 8.29872 49.5267C8.7055 49.4627 9.12195 49.5397 9.47892 49.745C9.83589 49.9503 10.1119 50.2715 10.2612 50.6553C10.534 50.2245 10.9307 49.8862 11.3992 49.6847C11.8677 49.4833 12.3861 49.4281 12.8865 49.5264C12.8513 49.3317 12.8341 49.1341 12.8349 48.9362C12.8337 48.2812 13.0205 47.6397 13.3731 47.0877C13.7258 46.5357 14.2294 46.0966 14.8242 45.8223C15.419 45.5481 16.08 45.4503 16.7287 45.5406C17.3775 45.631 17.9867 45.9056 18.484 46.3318C18.5412 46.2212 18.6277 46.1284 18.7341 46.0636C18.8404 45.9988 18.9625 45.9644 19.0871 45.9641C19.1767 45.9644 19.2654 45.9819 19.3483 46.0157L19.9885 37.0898H23.7202L24.3555 46.0109C24.437 45.9777 24.524 45.9602 24.6119 45.9593C24.7365 45.9595 24.8586 45.9939 24.9649 46.0588C25.0713 46.1236 25.1578 46.2164 25.2151 46.327C25.7498 45.8664 26.4138 45.5825 27.1162 45.514C27.8185 45.4455 28.5249 45.5958 29.1385 45.9444C29.7521 46.2929 30.243 46.8227 30.5438 47.4611C30.8446 48.0994 30.9407 48.8152 30.819 49.5103C30.9783 49.479 31.1403 49.4634 31.3027 49.4635C31.7306 49.4629 32.1517 49.571 32.5263 49.7778C32.9009 49.9846 33.2168 50.2832 33.4443 50.6456C33.5936 50.2618 33.8696 49.9406 34.2266 49.7353C34.5835 49.53 35 49.453 35.4067 49.517C35.8135 49.5811 36.1862 49.7823 36.4628 50.0873C36.7395 50.3923 36.9035 50.7828 36.9276 51.1939C37.2736 51.0231 37.6544 50.9348 38.0403 50.9359C38.3734 50.9348 38.7035 50.9996 39.0116 51.1265C39.3196 51.2534 39.5995 51.4399 39.8352 51.6753C40.0709 51.9108 40.2578 52.1904 40.3851 52.4983C40.5124 52.8062 40.5776 53.1362 40.577 53.4693C40.577 53.5532 40.577 53.6306 40.5641 53.7193H40.577C40.7639 53.5297 41.0031 53.4002 41.2641 53.3472C41.525 53.2943 41.7958 53.3205 42.0418 53.4223C42.2878 53.5241 42.4979 53.6969 42.6452 53.9187C42.7924 54.1406 42.8702 54.4013 42.8685 54.6675C42.9213 54.6545 42.9754 54.648 43.0298 54.6482C43.2089 54.6481 43.3808 54.7187 43.5082 54.8446C43.6356 54.9705 43.7082 55.1415 43.7103 55.3206Z" fill="black"/>
<path d="M32.9728 49.7304L32.0923 49.8933L31.8956 50.8222L31.6989 49.8933L30.8184 49.7304L31.694 49.5159L31.8956 48.6387L32.0956 49.5159L32.9728 49.7304Z" fill="#FDFDFD"/>
<path d="M24.4061 42.2851L23.5256 42.448L23.3288 43.3769L23.1305 42.448L22.25 42.2851L23.1273 42.0706L23.3288 41.1934L23.5288 42.0706L24.4061 42.2851Z" fill="#FDFDFD"/>
<path d="M11.607 51.4973L11.1135 51.5892L11.0039 52.1085L10.8942 51.5892L10.4023 51.4973L10.8926 51.3779L11.0039 50.8877L11.1167 51.3779L11.607 51.4973Z" fill="#FDFDFD"/>
<path d="M38.0933 53.0461L37.5998 53.138L37.4902 53.6557L37.3805 53.138L36.8887 53.0461L37.3789 52.9268L37.4902 52.4365L37.6031 52.9268L38.0933 53.0461Z" fill="#FDFDFD"/>
<path d="M4.83159 54.8645L4.33812 54.9548L4.22847 55.474L4.11881 54.9548L3.62695 54.8645L4.11719 54.7451L4.22847 54.2549L4.33973 54.7451L4.83159 54.8645Z" fill="#FDFDFD"/>
<path d="M26.2437 54.4328L25.7518 54.5247L25.6422 55.0424L25.5309 54.5247L25.0391 54.4328L25.5293 54.3135L25.6422 53.8232L25.7535 54.3135L26.2437 54.4328Z" fill="#FDFDFD"/>
<path d="M22.6382 40.8729L22.1464 40.9632L22.0367 41.4825L21.9271 40.9632L21.4336 40.8713L21.9238 40.752L22.0367 40.2617L22.148 40.752L22.6382 40.8729Z" fill="#FDFDFD"/>
<path d="M39.2592 54.168C39.224 54.1717 39.1914 54.1884 39.1677 54.2147C39.144 54.2411 39.1309 54.2753 39.1309 54.3107C39.1309 54.3461 39.144 54.3803 39.1677 54.4067C39.1914 54.433 39.224 54.4497 39.2592 54.4534C39.2944 54.4497 39.327 54.433 39.3507 54.4067C39.3744 54.3803 39.3875 54.3461 39.3875 54.3107C39.3875 54.2753 39.3744 54.2411 39.3507 54.2147C39.327 54.1884 39.2944 54.1717 39.2592 54.168Z" fill="#FDFDFD"/>
<path d="M20.7436 39.0723C20.7083 39.076 20.6757 39.0927 20.652 39.119C20.6283 39.1454 20.6152 39.1795 20.6152 39.215C20.6152 39.2504 20.6283 39.2846 20.652 39.3109C20.6757 39.3373 20.7083 39.3539 20.7436 39.3577C20.7788 39.3539 20.8114 39.3373 20.8351 39.3109C20.8588 39.2846 20.8719 39.2504 20.8719 39.215C20.8719 39.1795 20.8588 39.1454 20.8351 39.119C20.8114 39.0927 20.7788 39.076 20.7436 39.0723Z" fill="#FDFDFD"/>
<path d="M8.55997 54.8643C8.52474 54.868 8.49214 54.8847 8.46844 54.911C8.44475 54.9374 8.43164 54.9715 8.43164 55.007C8.43164 55.0424 8.44475 55.0766 8.46844 55.1029C8.49214 55.1293 8.52474 55.1459 8.55997 55.1497C8.59521 55.1459 8.62781 55.1293 8.6515 55.1029C8.6752 55.0766 8.68831 55.0424 8.68831 55.007C8.68831 54.9715 8.6752 54.9374 8.6515 54.911C8.62781 54.8847 8.59521 54.868 8.55997 54.8643Z" fill="#FDFDFD"/>
<path d="M17.6049 52.9033C17.5697 52.9071 17.5371 52.9237 17.5134 52.9501C17.4897 52.9764 17.4766 53.0106 17.4766 53.046C17.4766 53.0815 17.4897 53.1157 17.5134 53.142C17.5371 53.1684 17.5697 53.185 17.6049 53.1888C17.6401 53.185 17.6727 53.1684 17.6964 53.142C17.7201 53.1157 17.7332 53.0815 17.7332 53.046C17.7332 53.0106 17.7201 52.9764 17.6964 52.9501C17.6727 52.9237 17.6401 52.9071 17.6049 52.9033Z" fill="#FDFDFD"/>
<path d="M35.6826 51.6045C35.658 51.6076 35.6355 51.6196 35.6191 51.6381C35.6028 51.6567 35.5938 51.6805 35.5938 51.7053C35.5938 51.73 35.6028 51.7539 35.6191 51.7725C35.6355 51.791 35.658 51.803 35.6826 51.8061C35.7071 51.803 35.7297 51.791 35.746 51.7725C35.7624 51.7539 35.7714 51.73 35.7714 51.7053C35.7714 51.6805 35.7624 51.6567 35.746 51.6381C35.7297 51.6196 35.7071 51.6076 35.6826 51.6045Z" fill="#FDFDFD"/>
<path d="M23.209 50.0889C23.1821 50.0889 23.1562 50.0996 23.1372 50.1186C23.1181 50.1377 23.1074 50.1635 23.1074 50.1905C23.1074 50.2174 23.1181 50.2432 23.1372 50.2623C23.1562 50.2814 23.1821 50.2921 23.209 50.2921C23.236 50.2921 23.2618 50.2814 23.2809 50.2623C23.2999 50.2432 23.3106 50.2174 23.3106 50.1905C23.3106 50.1635 23.2999 50.1377 23.2809 50.1186C23.2618 50.0996 23.236 50.0889 23.209 50.0889Z" fill="#FDFDFD"/>
<path d="M14.0791 48.1162C14.0545 48.1193 14.032 48.1313 14.0156 48.1498C13.9993 48.1684 13.9902 48.1923 13.9902 48.217C13.9902 48.2417 13.9993 48.2656 14.0156 48.2842C14.032 48.3027 14.0545 48.3147 14.0791 48.3178C14.1036 48.3147 14.1262 48.3027 14.1425 48.2842C14.1589 48.2656 14.1679 48.2417 14.1679 48.217C14.1679 48.1923 14.1589 48.1684 14.1425 48.1498C14.1262 48.1313 14.1036 48.1193 14.0791 48.1162Z" fill="#FDFDFD"/>
<path d="M29.6999 48.5273C29.6272 48.5273 29.5575 48.5562 29.5061 48.6076C29.4547 48.659 29.4258 48.7288 29.4258 48.8015C29.4258 48.8742 29.4547 48.9439 29.5061 48.9953C29.5575 49.0468 29.6272 49.0756 29.6999 49.0756C29.7726 49.0756 29.8424 49.0468 29.8938 48.9953C29.9452 48.9439 29.9741 48.8742 29.9741 48.8015C29.9741 48.7288 29.9452 48.659 29.8938 48.6076C29.8424 48.5562 29.7726 48.5273 29.6999 48.5273Z" fill="#FDFDFD"/>
<path d="M15.3698 47.1875C15.2971 47.1875 15.2274 47.2164 15.176 47.2678C15.1246 47.3192 15.0957 47.3889 15.0957 47.4616C15.0957 47.5344 15.1246 47.6041 15.176 47.6555C15.2274 47.7069 15.2971 47.7358 15.3698 47.7358C15.4426 47.7358 15.5123 47.7069 15.5637 47.6555C15.6151 47.6041 15.644 47.5344 15.644 47.4616C15.644 47.3889 15.6151 47.3192 15.5637 47.2678C15.5123 47.2164 15.4426 47.1875 15.3698 47.1875Z" fill="#FDFDFD"/>
</svg>
