<svg width="135" height="135" viewBox="0 0 135 135" fill="none" xmlns="http://www.w3.org/2000/svg">
<circle cx="67.5" cy="67.5" r="67.5" fill="#2AB7CA"/>
<path d="M55.1369 49.4395C54.8732 49.4395 45.0697 53.9633 44.4896 65.1058C43.9563 75.3605 51.038 85.0791 51.9521 84.4433C53.0713 83.6552 51.1698 77.2738 53.3467 69.9724C54.1173 67.3823 57.4926 65.0853 57.4926 65.0853L55.1369 49.4395Z" fill="black"/>
<path opacity="0.1" d="M57.4948 65.0765C56.5089 65.7747 55.6082 66.5859 54.811 67.4937C53.3461 64.2385 50.633 58.1618 48.875 54.224C51.7463 50.9044 54.9868 49.4395 55.1363 49.4395L57.4948 65.0765Z" fill="black"/>
<path d="M80.0891 49.458C80.3498 49.458 90.1475 53.9965 90.713 65.139C91.2316 75.3937 84.1324 85.1035 83.2211 84.4589C82.1019 83.6679 84.0152 77.2894 81.8499 69.9851C81.0823 67.395 77.707 65.0921 77.707 65.0921L80.0891 49.458Z" fill="black"/>
<path opacity="0.1" d="M86.3806 54.2953C84.6051 58.2683 81.8802 64.3567 80.4387 67.5738C79.6306 66.6435 78.715 65.8124 77.7109 65.098L80.09 49.461C80.2395 49.4551 83.5063 50.9406 86.3806 54.2953Z" fill="black"/>
<path d="M75.026 75.0735H60.2328C60.2328 75.0735 53.2654 62.6125 54.0799 47.7578C54.496 40.3422 56.4238 32.8767 58.7678 26.6975C61.9848 18.1538 65.9549 12.1035 67.6689 12.1035C69.3829 12.1035 73.3471 18.1626 76.5525 26.7004C78.87 32.8796 80.7979 40.351 81.2022 47.7666C82.0256 62.6213 75.026 75.0735 75.026 75.0735Z" fill="#EBEBEB"/>
<path d="M76.4994 45.8405C76.4977 47.528 75.9956 49.1771 75.0567 50.5792C74.1177 51.9813 72.7841 53.0735 71.2244 53.7176C69.6647 54.3618 67.9491 54.529 66.2944 54.198C64.6397 53.8671 63.1203 53.053 61.9283 51.8585C60.7363 50.6641 59.9253 49.143 59.5978 47.4876C59.2703 45.8323 59.441 44.1169 60.0884 42.5586C60.7357 41.0003 61.8307 39.6689 63.2347 38.7328C64.6387 37.7968 66.2888 37.2981 67.9763 37.2998C69.0968 37.3006 70.2062 37.5221 71.2411 37.9518C72.276 38.3815 73.2161 39.011 74.0076 39.8041C74.7991 40.5973 75.4266 41.5386 75.8541 42.5744C76.2817 43.6101 76.501 44.72 76.4994 45.8405Z" fill="#C7C7C7"/>
<path d="M76.2006 44.9753C76.1995 46.6625 75.6981 48.3115 74.7599 49.7138C73.8217 51.1161 72.4888 52.2088 70.9296 52.8536C69.3705 53.4985 67.6552 53.6666 66.0006 53.3367C64.3459 53.0069 62.8262 52.1938 61.6336 51.0004C60.441 49.8069 59.629 48.2867 59.3002 46.6318C58.9715 44.9769 59.1408 43.2617 59.7867 41.7031C60.4327 40.1444 61.5262 38.8122 62.9292 37.875C64.3321 36.9377 65.9815 36.4375 67.6687 36.4375C68.7897 36.4371 69.8998 36.6577 70.9355 37.0867C71.9712 37.5157 72.9122 38.1447 73.7046 38.9377C74.497 39.7306 75.1253 40.672 75.5536 41.708C75.9819 42.744 76.2018 43.8543 76.2006 44.9753Z" fill="black"/>
<path d="M73.5616 45.5579C73.8849 42.3069 71.5116 39.4093 68.2606 39.0859C65.0095 38.7626 62.1119 41.1359 61.7886 44.387C61.4653 47.638 63.8386 50.5356 67.0896 50.8589C70.3406 51.1823 73.2382 48.8089 73.5616 45.5579Z" fill="white"/>
<path d="M73.5836 44.9669C73.5853 45.7007 73.4491 46.4282 73.1822 47.1116L69.8128 50.4869C68.6224 50.9467 67.3154 51.0104 66.0859 50.6686L73.3668 43.3877C73.5105 43.9018 73.5834 44.4331 73.5836 44.9669Z" fill="#EBEBEB"/>
<path d="M68.5455 39.1136L61.8066 45.8348C61.7638 45.5438 61.7422 45.25 61.7422 44.9558C61.7476 43.3887 62.3744 41.8877 63.485 40.7821C64.5956 39.6764 66.0994 39.0563 67.6665 39.0579C67.9605 39.055 68.2542 39.0737 68.5455 39.1136Z" fill="#EBEBEB"/>
<path d="M72.8493 42.1026L64.8067 50.1423C64.6509 50.0532 64.5003 49.9553 64.3555 49.8493L72.5593 41.6455C72.6677 41.792 72.7614 41.9444 72.8493 42.1026Z" fill="#EBEBEB"/>
<path d="M76.5571 26.7004H58.7754C61.9837 18.1538 65.9537 12.1035 67.6677 12.1035C69.3817 12.1035 73.3518 18.1626 76.5571 26.7004Z" fill="black"/>
<path d="M61.838 24.8516C61.838 24.9501 61.8088 25.0464 61.754 25.1283C61.6993 25.2102 61.6215 25.2741 61.5305 25.3118C61.4395 25.3495 61.3393 25.3593 61.2427 25.3401C61.1461 25.3209 61.0573 25.2735 60.9877 25.2038C60.918 25.1341 60.8706 25.0454 60.8514 24.9488C60.8321 24.8522 60.842 24.752 60.8797 24.661C60.9174 24.57 60.9813 24.4922 61.0632 24.4375C61.1451 24.3827 61.2414 24.3535 61.3399 24.3535C61.4053 24.3535 61.4701 24.3664 61.5305 24.3914C61.5909 24.4165 61.6458 24.4532 61.6921 24.4994C61.7383 24.5457 61.775 24.6006 61.8001 24.661C61.8251 24.7214 61.838 24.7862 61.838 24.8516Z" fill="white"/>
<path d="M65.002 24.8555C65.002 24.954 64.9728 25.0503 64.9181 25.1322C64.8634 25.2141 64.7856 25.278 64.6946 25.3157C64.6035 25.3534 64.5034 25.3632 64.4068 25.344C64.3102 25.3248 64.2214 25.2774 64.1517 25.2077C64.0821 25.1381 64.0346 25.0493 64.0154 24.9527C63.9962 24.8561 64.0061 24.7559 64.0438 24.6649C64.0815 24.5739 64.1453 24.4961 64.2272 24.4414C64.3091 24.3866 64.4054 24.3574 64.5039 24.3574C64.5694 24.3574 64.6341 24.3703 64.6946 24.3953C64.755 24.4204 64.8099 24.4571 64.8561 24.5033C64.9024 24.5496 64.9391 24.6045 64.9641 24.6649C64.9892 24.7253 65.002 24.7901 65.002 24.8555Z" fill="white"/>
<path d="M68.1641 24.8584C68.1636 24.957 68.1338 25.0531 68.0786 25.1347C68.0234 25.2163 67.9452 25.2796 67.854 25.3168C67.7627 25.354 67.6625 25.3632 67.566 25.3434C67.4695 25.3237 67.381 25.2757 67.3118 25.2056C67.2425 25.1356 67.1956 25.0465 67.177 24.9498C67.1583 24.8531 67.1688 24.753 67.207 24.6622C67.2452 24.5714 67.3095 24.494 67.3918 24.4397C67.474 24.3855 67.5705 24.3569 67.669 24.3574C67.7344 24.3578 67.7991 24.3711 67.8594 24.3965C67.9197 24.4219 67.9743 24.4589 68.0203 24.5054C68.0663 24.5519 68.1027 24.607 68.1273 24.6676C68.152 24.7282 68.1645 24.793 68.1641 24.8584Z" fill="white"/>
<path d="M71.3263 24.8584C71.3263 24.957 71.297 25.0533 71.2423 25.1352C71.1876 25.2171 71.1098 25.2809 71.0188 25.3186C70.9278 25.3563 70.8276 25.3662 70.731 25.347C70.6344 25.3277 70.5456 25.2803 70.476 25.2106C70.4063 25.141 70.3589 25.0522 70.3396 24.9556C70.3204 24.859 70.3303 24.7588 70.368 24.6678C70.4057 24.5768 70.4695 24.499 70.5514 24.4443C70.6334 24.3896 70.7297 24.3604 70.8282 24.3604C70.9603 24.3604 71.087 24.4128 71.1804 24.5062C71.2738 24.5996 71.3263 24.7263 71.3263 24.8584Z" fill="white"/>
<path d="M74.4923 24.8604C74.4923 24.9589 74.4631 25.0552 74.4083 25.1371C74.3536 25.219 74.2758 25.2829 74.1848 25.3206C74.0938 25.3583 73.9936 25.3681 73.897 25.3489C73.8004 25.3297 73.7116 25.2823 73.642 25.2126C73.5723 25.1429 73.5249 25.0542 73.5057 24.9576C73.4864 24.8609 73.4963 24.7608 73.534 24.6698C73.5717 24.5788 73.6356 24.501 73.7175 24.4462C73.7994 24.3915 73.8957 24.3623 73.9942 24.3623C74.1263 24.3623 74.253 24.4148 74.3464 24.5082C74.4398 24.6016 74.4923 24.7283 74.4923 24.8604Z" fill="white"/>
<path d="M61.8087 72.7871C61.8087 72.8857 61.7795 72.982 61.7247 73.0639C61.67 73.1458 61.5922 73.2096 61.5012 73.2473C61.4102 73.285 61.31 73.2949 61.2134 73.2757C61.1168 73.2564 61.028 73.209 60.9584 73.1393C60.8887 73.0697 60.8413 72.9809 60.8221 72.8843C60.8029 72.7877 60.8127 72.6876 60.8504 72.5965C60.8881 72.5055 60.952 72.4277 61.0339 72.373C61.1158 72.3183 61.2121 72.2891 61.3106 72.2891C61.4427 72.2891 61.5694 72.3415 61.6628 72.4349C61.7562 72.5284 61.8087 72.655 61.8087 72.7871Z" fill="#C7C7C7"/>
<path d="M64.9825 72.7911C64.9825 72.8896 64.9533 72.9859 64.8986 73.0678C64.8438 73.1497 64.766 73.2135 64.675 73.2512C64.584 73.2889 64.4839 73.2988 64.3872 73.2796C64.2906 73.2604 64.2019 73.2129 64.1322 73.1433C64.0626 73.0736 64.0151 72.9848 63.9959 72.8882C63.9767 72.7916 63.9865 72.6915 64.0242 72.6004C64.0619 72.5094 64.1258 72.4316 64.2077 72.3769C64.2896 72.3222 64.3859 72.293 64.4844 72.293C64.6165 72.293 64.7432 72.3454 64.8366 72.4389C64.93 72.5323 64.9825 72.659 64.9825 72.7911Z" fill="#C7C7C7"/>
<path d="M68.1427 72.794C68.1427 72.8926 68.1134 72.989 68.0585 73.071C68.0036 73.153 67.9257 73.2168 67.8345 73.2544C67.7433 73.292 67.643 73.3017 67.5463 73.2823C67.4496 73.2628 67.3609 73.2151 67.2913 73.1451C67.2218 73.0752 67.1746 72.9862 67.1557 72.8894C67.1368 72.7925 67.1471 72.6923 67.1852 72.6013C67.2234 72.5104 67.2877 72.4328 67.37 72.3784C67.4523 72.324 67.5489 72.2953 67.6475 72.2959C67.7128 72.2959 67.7774 72.3088 67.8377 72.3339C67.8979 72.3589 67.9527 72.3957 67.9987 72.442C68.0447 72.4883 68.0811 72.5432 68.1058 72.6036C68.1305 72.664 68.143 72.7287 68.1427 72.794Z" fill="#C7C7C7"/>
<path d="M71.3087 72.794C71.3087 72.8925 71.2795 72.9888 71.2247 73.0707C71.17 73.1526 71.0922 73.2165 71.0012 73.2542C70.9102 73.2919 70.81 73.3017 70.7134 73.2825C70.6168 73.2633 70.528 73.2158 70.4584 73.1462C70.3887 73.0765 70.3413 72.9878 70.3221 72.8912C70.3029 72.7945 70.3127 72.6944 70.3504 72.6034C70.3881 72.5124 70.452 72.4346 70.5339 72.3798C70.6158 72.3251 70.7121 72.2959 70.8106 72.2959C70.9427 72.2959 71.0694 72.3484 71.1628 72.4418C71.2562 72.5352 71.3087 72.6619 71.3087 72.794Z" fill="#C7C7C7"/>
<path d="M74.4708 72.7979C74.4708 72.8964 74.4416 72.9927 74.3868 73.0746C74.3321 73.1565 74.2543 73.2204 74.1633 73.2581C74.0723 73.2958 73.9721 73.3056 73.8755 73.2864C73.7789 73.2672 73.6902 73.2197 73.6205 73.1501C73.5508 73.0804 73.5034 72.9917 73.4842 72.8951C73.465 72.7984 73.4748 72.6983 73.5125 72.6073C73.5502 72.5163 73.6141 72.4385 73.696 72.3837C73.7779 72.329 73.8742 72.2998 73.9727 72.2998C74.1048 72.2998 74.2315 72.3523 74.3249 72.4457C74.4183 72.5391 74.4708 72.6658 74.4708 72.7979Z" fill="#C7C7C7"/>
<path d="M73.6573 79.5199L61.627 79.5082L61.0645 75.0635L74.2257 75.0723L73.6573 79.5199Z" fill="black"/>
<path opacity="0.1" d="M74.2267 75.0752L73.9483 77.2375L61.2822 76.7628L61.0684 75.0635L74.2267 75.0752Z" fill="black"/>
<path opacity="0.6" d="M40.1918 101.175C40.1918 101.595 40.0672 102.006 39.8338 102.355C39.6004 102.704 39.2686 102.977 38.8805 103.137C38.4923 103.298 38.0652 103.34 37.6531 103.258C37.2411 103.176 36.8626 102.974 36.5655 102.677C36.2684 102.38 36.0661 102.001 35.9842 101.589C35.9022 101.177 35.9443 100.75 36.1051 100.362C36.2658 99.9739 36.5381 99.6422 36.8874 99.4088C37.2367 99.1754 37.6474 99.0508 38.0676 99.0508C38.6309 99.0508 39.1712 99.2746 39.5696 99.6729C39.968 100.071 40.1918 100.612 40.1918 101.175Z" fill="black"/>
<path opacity="0.6" d="M41.7374 98.1467C42.3086 98.1467 42.7717 97.6836 42.7717 97.1124C42.7717 96.5412 42.3086 96.0781 41.7374 96.0781C41.1662 96.0781 40.7031 96.5412 40.7031 97.1124C40.7031 97.6836 41.1662 98.1467 41.7374 98.1467Z" fill="black"/>
<path opacity="0.6" d="M88.2072 100.143C88.2066 100.347 88.1455 100.547 88.0315 100.716C87.9175 100.886 87.7557 101.018 87.5667 101.096C87.3777 101.174 87.1698 101.194 86.9694 101.154C86.7689 101.114 86.5849 101.015 86.4406 100.87C86.2962 100.725 86.198 100.541 86.1583 100.34C86.1187 100.14 86.1393 99.9321 86.2177 99.7433C86.296 99.5544 86.4286 99.3931 86.5986 99.2796C86.7687 99.166 86.9685 99.1055 87.1729 99.1055C87.309 99.1055 87.4437 99.1323 87.5694 99.1845C87.6951 99.2366 87.8092 99.3131 87.9053 99.4094C88.0014 99.5058 88.0775 99.6201 88.1293 99.746C88.1811 99.8718 88.2076 100.007 88.2072 100.143Z" fill="black"/>
<path opacity="0.6" d="M108.93 109.588C108.93 109.793 108.869 109.992 108.756 110.163C108.642 110.333 108.48 110.465 108.291 110.544C108.102 110.622 107.894 110.642 107.694 110.602C107.493 110.562 107.309 110.464 107.164 110.319C107.02 110.175 106.921 109.99 106.881 109.79C106.841 109.589 106.862 109.381 106.94 109.192C107.018 109.003 107.151 108.842 107.321 108.728C107.491 108.614 107.691 108.554 107.896 108.554C108.17 108.554 108.432 108.664 108.626 108.857C108.82 109.051 108.929 109.314 108.93 109.588Z" fill="black"/>
<path opacity="0.6" d="M107.347 112.614C107.347 112.776 107.315 112.937 107.253 113.087C107.191 113.237 107.1 113.373 106.985 113.487C106.87 113.602 106.734 113.693 106.584 113.754C106.434 113.816 106.273 113.848 106.111 113.848H29.1651C28.838 113.848 28.5242 113.718 28.2929 113.486C28.0616 113.255 27.9316 112.941 27.9316 112.614C27.9316 112.287 28.0616 111.973 28.2929 111.742C28.5242 111.511 28.838 111.381 29.1651 111.381C29.2639 111.38 29.3623 111.392 29.4581 111.416C29.4574 110.932 29.601 110.459 29.8705 110.057C30.1401 109.655 30.5233 109.343 30.9713 109.16C31.4193 108.978 31.9116 108.933 32.3852 109.031C32.8589 109.13 33.2924 109.367 33.6303 109.713H33.6538C33.6538 109.564 33.6303 109.42 33.6303 109.259C33.6303 108.041 34.1144 106.872 34.9759 106.011C35.8375 105.149 37.006 104.665 38.2245 104.665C38.9255 104.663 39.6175 104.824 40.2461 105.134C40.29 104.387 40.5879 103.678 41.0905 103.123C41.5932 102.569 42.2702 102.204 43.0093 102.087C43.7484 101.971 44.505 102.111 45.1536 102.484C45.8021 102.857 46.3036 103.44 46.5748 104.138C47.0705 103.355 47.7913 102.74 48.6425 102.374C49.4936 102.008 50.4355 101.908 51.3447 102.087C51.2808 101.733 51.2494 101.374 51.2509 101.014C51.2488 99.8244 51.5882 98.6588 52.2288 97.656C52.8695 96.6531 53.7845 95.8552 54.8652 95.3569C55.9459 94.8587 57.1468 94.6811 58.3255 94.8452C59.5042 95.0093 60.611 95.5082 61.5145 96.2826C61.6185 96.0817 61.7757 95.9131 61.9689 95.7953C62.1621 95.6775 62.384 95.615 62.6103 95.6146C62.773 95.6151 62.9342 95.647 63.0849 95.7084L64.2481 79.4912H71.0279L72.1823 95.6996C72.3303 95.6393 72.4884 95.6074 72.6482 95.6058C72.8745 95.6062 73.0963 95.6687 73.2895 95.7865C73.4828 95.9043 73.64 96.0729 73.744 96.2738C74.7155 95.4371 75.9219 94.9212 77.198 94.7967C78.4741 94.6723 79.7575 94.9454 80.8723 95.5787C81.9872 96.212 82.879 97.1745 83.4255 98.3343C83.9721 99.4941 84.1467 100.795 83.9255 102.058C84.215 102.001 84.5094 101.972 84.8045 101.973C85.5819 101.971 86.3469 102.168 87.0275 102.543C87.7082 102.919 88.2821 103.462 88.6954 104.12C88.9666 103.423 89.4681 102.839 90.1166 102.466C90.7652 102.093 91.5218 101.953 92.2609 102.07C93 102.186 93.677 102.552 94.1796 103.106C94.6823 103.66 94.9802 104.369 95.0241 105.116C95.6527 104.806 96.3447 104.646 97.0457 104.648C97.651 104.646 98.2507 104.763 98.8103 104.994C99.37 105.224 99.8786 105.563 100.307 105.991C100.735 106.419 101.075 106.927 101.306 107.486C101.537 108.046 101.656 108.645 101.654 109.25C101.654 109.403 101.654 109.543 101.631 109.705H101.654C101.994 109.36 102.429 109.125 102.903 109.029C103.377 108.933 103.869 108.98 104.316 109.165C104.763 109.35 105.145 109.664 105.412 110.067C105.68 110.47 105.821 110.944 105.818 111.427C105.914 111.404 106.012 111.392 106.111 111.392C106.436 111.392 106.749 111.52 106.98 111.749C107.212 111.978 107.343 112.289 107.347 112.614Z" fill="black"/>
<path d="M87.8382 102.457L86.2385 102.753L85.881 104.441L85.5236 102.753L83.9238 102.457L85.5148 102.068L85.881 100.474L86.2443 102.068L87.8382 102.457Z" fill="#FDFDFD"/>
<path d="M72.2747 88.9298L70.675 89.2258L70.3175 90.9134L69.9572 89.2258L68.3574 88.9298L69.9513 88.5402L70.3175 86.9463L70.6809 88.5402L72.2747 88.9298Z" fill="#FDFDFD"/>
<path d="M49.0187 105.667L48.1222 105.834L47.9229 106.778L47.7237 105.834L46.8301 105.667L47.7208 105.45L47.9229 104.56L48.128 105.45L49.0187 105.667Z" fill="#FDFDFD"/>
<path d="M97.1418 108.482L96.2452 108.649L96.046 109.589L95.8467 108.649L94.9531 108.482L95.8438 108.265L96.046 107.374L96.2511 108.265L97.1418 108.482Z" fill="#FDFDFD"/>
<path d="M36.7101 111.785L35.8136 111.949L35.6144 112.893L35.4151 111.949L34.5215 111.785L35.4122 111.568L35.6144 110.678L35.8165 111.568L36.7101 111.785Z" fill="#FDFDFD"/>
<path d="M75.6144 111L74.7208 111.167L74.5216 112.108L74.3194 111.167L73.4258 111L74.3165 110.783L74.5216 109.893L74.7237 110.783L75.6144 111Z" fill="#FDFDFD"/>
<path d="M69.0617 86.3634L68.1681 86.5274L67.9688 87.4709L67.7696 86.5274L66.873 86.3604L67.7637 86.1436L67.9688 85.2529L68.171 86.1436L69.0617 86.3634Z" fill="#FDFDFD"/>
<path d="M99.2605 110.52C99.1965 110.526 99.1373 110.557 99.0942 110.604C99.0512 110.652 99.0273 110.714 99.0273 110.779C99.0273 110.843 99.0512 110.905 99.0942 110.953C99.1373 111.001 99.1965 111.031 99.2605 111.038C99.3245 111.031 99.3838 111.001 99.4268 110.953C99.4698 110.905 99.4937 110.843 99.4937 110.779C99.4937 110.714 99.4698 110.652 99.4268 110.604C99.3838 110.557 99.3245 110.526 99.2605 110.52Z" fill="#FDFDFD"/>
<path d="M65.6199 83.0918C65.5559 83.0986 65.4966 83.1289 65.4536 83.1767C65.4105 83.2246 65.3867 83.2867 65.3867 83.3511C65.3867 83.4155 65.4105 83.4776 65.4536 83.5254C65.4966 83.5733 65.5559 83.6036 65.6199 83.6104C65.6839 83.6036 65.7431 83.5733 65.7862 83.5254C65.8292 83.4776 65.8531 83.4155 65.8531 83.3511C65.8531 83.2867 65.8292 83.2246 65.7862 83.1767C65.7431 83.1289 65.6839 83.0986 65.6199 83.0918Z" fill="#FDFDFD"/>
<path d="M43.4832 111.784C43.4191 111.791 43.3599 111.821 43.3169 111.869C43.2738 111.917 43.25 111.979 43.25 112.043C43.25 112.108 43.2738 112.17 43.3169 112.218C43.3599 112.266 43.4191 112.296 43.4832 112.303C43.5472 112.296 43.6064 112.266 43.6495 112.218C43.6925 112.17 43.7163 112.108 43.7163 112.043C43.7163 111.979 43.6925 111.917 43.6495 111.869C43.6064 111.821 43.5472 111.791 43.4832 111.784Z" fill="#FDFDFD"/>
<path d="M59.9187 108.222C59.8547 108.228 59.7955 108.259 59.7524 108.307C59.7094 108.354 59.6855 108.417 59.6855 108.481C59.6855 108.545 59.7094 108.607 59.7524 108.655C59.7955 108.703 59.8547 108.733 59.9187 108.74C59.9827 108.733 60.042 108.703 60.085 108.655C60.1281 108.607 60.1519 108.545 60.1519 108.481C60.1519 108.417 60.1281 108.354 60.085 108.307C60.042 108.259 59.9827 108.228 59.9187 108.222Z" fill="#FDFDFD"/>
<path d="M92.761 105.861C92.7164 105.867 92.6754 105.889 92.6457 105.922C92.616 105.956 92.5996 106 92.5996 106.044C92.5996 106.089 92.616 106.133 92.6457 106.166C92.6754 106.2 92.7164 106.222 92.761 106.228C92.8056 106.222 92.8465 106.2 92.8763 106.166C92.906 106.133 92.9224 106.089 92.9224 106.044C92.9224 106 92.906 105.956 92.8763 105.922C92.8465 105.889 92.8056 105.867 92.761 105.861Z" fill="#FDFDFD"/>
<path d="M70.1006 103.108C70.0516 103.108 70.0047 103.128 69.9701 103.162C69.9355 103.197 69.916 103.244 69.916 103.293C69.916 103.342 69.9355 103.389 69.9701 103.424C70.0047 103.458 70.0516 103.478 70.1006 103.478C70.1495 103.478 70.1965 103.458 70.2311 103.424C70.2657 103.389 70.2852 103.342 70.2852 103.293C70.2852 103.244 70.2657 103.197 70.2311 103.162C70.1965 103.128 70.1495 103.108 70.1006 103.108Z" fill="#FDFDFD"/>
<path d="M53.511 99.5244C53.4664 99.5301 53.4254 99.5518 53.3957 99.5855C53.366 99.6192 53.3496 99.6626 53.3496 99.7075C53.3496 99.7525 53.366 99.7959 53.3957 99.8296C53.4254 99.8633 53.4664 99.885 53.511 99.8907C53.5556 99.885 53.5966 99.8633 53.6263 99.8296C53.656 99.7959 53.6724 99.7525 53.6724 99.7075C53.6724 99.6626 53.656 99.6192 53.6263 99.5855C53.5966 99.5518 53.5556 99.5301 53.511 99.5244Z" fill="#FDFDFD"/>
<path d="M81.8907 100.271C81.7586 100.271 81.6319 100.323 81.5385 100.416C81.4451 100.51 81.3926 100.636 81.3926 100.769C81.3926 100.901 81.4451 101.027 81.5385 101.121C81.6319 101.214 81.7586 101.267 81.8907 101.267C82.0228 101.267 82.1495 101.214 82.2429 101.121C82.3363 101.027 82.3888 100.901 82.3888 100.769C82.3888 100.636 82.3363 100.51 82.2429 100.416C82.1495 100.323 82.0228 100.271 81.8907 100.271Z" fill="#FDFDFD"/>
<path d="M55.8575 97.8369C55.7254 97.8369 55.5987 97.8894 55.5053 97.9828C55.4118 98.0762 55.3594 98.2029 55.3594 98.335C55.3594 98.4671 55.4118 98.5938 55.5053 98.6872C55.5987 98.7806 55.7254 98.8331 55.8575 98.8331C55.9896 98.8331 56.1163 98.7806 56.2097 98.6872C56.3031 98.5938 56.3555 98.4671 56.3555 98.335C56.3555 98.2029 56.3031 98.0762 56.2097 97.9828C56.1163 97.8894 55.9896 97.8369 55.8575 97.8369Z" fill="#FDFDFD"/>
</svg>
