<svg width="41" height="53" viewBox="0 0 41 53" fill="none" xmlns="http://www.w3.org/2000/svg">
<g filter="url(#filter0_d_441_392)">
<rect x="4" width="33" height="45" rx="2" fill="white" shape-rendering="crispEdges"/>
<path d="M15.3 29V26.2C15.3 25.5867 15.3933 25.0533 15.58 24.6C15.78 24.1467 16.1 23.7467 16.54 23.4C16.9933 23.04 17.5867 22.7 18.32 22.38L20.8 21.28C21.4133 21 21.88 20.66 22.2 20.26C22.5333 19.8467 22.7 19.32 22.7 18.68C22.7 17.9733 22.4867 17.4133 22.06 17C21.6467 16.5733 21.0533 16.36 20.28 16.36C19.5067 16.36 18.9067 16.5733 18.48 17C18.0667 17.4267 17.86 18.02 17.86 18.78H15.12C15.12 17.8733 15.3133 17.06 15.7 16.34C16.0867 15.6067 16.66 15.0333 17.42 14.62C18.18 14.1933 19.1333 13.98 20.28 13.98C21.4267 13.98 22.38 14.1867 23.14 14.6C23.9 15.0133 24.4733 15.5667 24.86 16.26C25.2467 16.94 25.44 17.7 25.44 18.54V18.8C25.44 19.8933 25.1333 20.8067 24.52 21.54C23.9067 22.26 23.0067 22.8867 21.82 23.42L19.34 24.52C18.8733 24.72 18.5467 24.9333 18.36 25.16C18.1733 25.3733 18.08 25.6667 18.08 26.04V27.32L17.4 26.58H25.5V29H15.3Z" fill="black"/>
</g>
<defs>
<filter id="filter0_d_441_392" x="0" y="0" width="41" height="53" filterUnits="userSpaceOnUse" color-interpolation-filters="sRGB">
<feFlood flood-opacity="0" result="BackgroundImageFix"/>
<feColorMatrix in="SourceAlpha" type="matrix" values="0 0 0 0 0 0 0 0 0 0 0 0 0 0 0 0 0 0 127 0" result="hardAlpha"/>
<feOffset dy="4"/>
<feGaussianBlur stdDeviation="2"/>
<feComposite in2="hardAlpha" operator="out"/>
<feColorMatrix type="matrix" values="0 0 0 0 0 0 0 0 0 0 0 0 0 0 0 0 0 0 0.25 0"/>
<feBlend mode="normal" in2="BackgroundImageFix" result="effect1_dropShadow_441_392"/>
<feBlend mode="normal" in="SourceGraphic" in2="effect1_dropShadow_441_392" result="shape"/>
</filter>
</defs>
</svg>
