<svg width="145" height="145" viewBox="0 0 145 145" fill="none" xmlns="http://www.w3.org/2000/svg">
<path d="M0 72.5C0 112.541 32.4594 145 72.5 145C112.541 145 145 112.541 145 72.5C145 32.4594 112.541 0 72.5 0C32.4594 0 0 32.4594 0 72.5Z" fill="url(#paint0_linear_785_5638)"/>
<path d="M60.2053 59.3359C59.9416 59.3359 50.1381 63.8597 49.5579 75.0023C49.0247 85.257 56.1063 94.9756 57.0205 94.3398C58.1397 93.5516 56.2382 87.1703 58.4151 79.8689C59.1857 77.2788 62.5609 74.9818 62.5609 74.9818L60.2053 59.3359Z" fill="black"/>
<path opacity="0.1" d="M62.5632 74.973C61.5773 75.6712 60.6766 76.4824 59.8794 77.3902C58.4144 74.135 55.7013 68.0583 53.9434 64.1205C56.8147 60.8009 60.0552 59.3359 60.2046 59.3359L62.5632 74.973Z" fill="black"/>
<path d="M85.1574 59.3555C85.4182 59.3555 95.2159 63.8939 95.7813 75.0364C96.2999 85.2912 89.2007 95.001 88.2895 94.3564C87.1703 93.5653 89.0835 87.1869 86.9183 79.8825C86.1507 77.2925 82.7754 74.9896 82.7754 74.9896L85.1574 59.3555Z" fill="black"/>
<path opacity="0.1" d="M91.449 64.1918C89.6734 68.1648 86.9486 74.2532 85.5071 77.4703C84.699 76.5399 83.7833 75.7089 82.7793 74.9945L85.1584 59.3574C85.3078 59.3516 88.5747 60.8371 91.449 64.1918Z" fill="black"/>
<path d="M80.0943 84.97H65.3011C65.3011 84.97 58.3337 72.509 59.1483 57.6543C59.5643 50.2386 61.4922 42.7732 63.8361 36.594C67.0532 28.0503 71.0233 22 72.7373 22C74.4513 22 78.4155 28.0591 81.6208 36.5969C83.9384 42.7761 85.8663 50.2474 86.2706 57.6631C87.0939 72.5178 80.0943 84.97 80.0943 84.97Z" fill="#EBEBEB"/>
<path d="M81.5678 55.7361C81.5661 57.4235 81.064 59.0726 80.125 60.4747C79.1861 61.8768 77.8524 62.969 76.2928 63.6131C74.7331 64.2573 73.0174 64.4245 71.3627 64.0936C69.708 63.7626 68.1886 62.9485 66.9966 61.754C65.8047 60.5596 64.9936 59.0385 64.6661 57.3831C64.3386 55.7278 64.5094 54.0125 65.1567 52.4541C65.8041 50.8958 66.899 49.5644 68.3031 48.6283C69.7071 47.6923 71.3572 47.1936 73.0446 47.1953C74.1652 47.1961 75.2746 47.4177 76.3095 47.8474C77.3443 48.2771 78.2844 48.9065 79.0759 49.6996C79.8675 50.4928 80.4949 51.4341 80.9225 52.4699C81.3501 53.5057 81.5693 54.6155 81.5678 55.7361Z" fill="#C7C7C7"/>
<path d="M81.269 54.8718C81.2678 56.559 80.7664 58.208 79.8282 59.6103C78.89 61.0126 77.5571 62.1052 75.998 62.7501C74.4389 63.395 72.7236 63.5631 71.0689 63.2332C69.4143 62.9034 67.8946 62.0903 66.702 60.8969C65.5093 59.7034 64.6973 58.1832 64.3686 56.5283C64.0399 54.8734 64.2092 53.1582 64.8551 51.5995C65.501 50.0409 66.5946 48.7087 67.9975 47.7715C69.4005 46.8342 71.0498 46.334 72.737 46.334C73.8581 46.3336 74.9682 46.5542 76.0039 46.9832C77.0396 47.4122 77.9805 48.0412 78.773 48.8341C79.5654 49.6271 80.1937 50.5685 80.622 51.6045C81.0503 52.6405 81.2701 53.7508 81.269 54.8718Z" fill="black"/>
<path d="M78.6299 55.4544C78.9533 52.2034 76.5799 49.3058 73.3289 48.9824C70.0779 48.6591 67.1803 51.0324 66.857 54.2834C66.5336 57.5345 68.907 60.432 72.158 60.7554C75.409 61.0787 78.3066 58.7054 78.6299 55.4544Z" fill="white"/>
<path d="M78.652 54.8644C78.6536 55.5981 78.5175 56.3256 78.2506 57.0091L74.8812 60.3844C73.6907 60.8441 72.3838 60.9078 71.1543 60.566L78.4352 53.2852C78.5788 53.7993 78.6518 54.3306 78.652 54.8644Z" fill="#EBEBEB"/>
<path d="M73.6138 49.0091L66.875 55.7303C66.8321 55.4393 66.8106 55.1455 66.8105 54.8514C66.816 53.2842 67.4427 51.7832 68.5533 50.6776C69.6639 49.5719 71.1677 48.9518 72.7349 48.9534C73.0288 48.9506 73.3226 48.9692 73.6138 49.0091Z" fill="#EBEBEB"/>
<path d="M77.9177 52L69.875 60.0398C69.7193 59.9506 69.5686 59.8528 69.4238 59.7468L77.6276 51.543C77.736 51.6895 77.8298 51.8418 77.9177 52Z" fill="#EBEBEB"/>
<path d="M81.6255 36.5969H63.8438C67.052 28.0503 71.0221 22 72.7361 22C74.4501 22 78.4201 28.0591 81.6255 36.5969Z" fill="black"/>
<path d="M66.9063 34.7481C66.9063 34.8466 66.8771 34.9429 66.8224 35.0248C66.7677 35.1067 66.6899 35.1706 66.5989 35.2083C66.5078 35.246 66.4077 35.2558 66.3111 35.2366C66.2145 35.2174 66.1257 35.1699 66.056 35.1003C65.9864 35.0306 65.9389 34.9419 65.9197 34.8453C65.9005 34.7486 65.9104 34.6485 65.9481 34.5575C65.9858 34.4665 66.0496 34.3887 66.1315 34.3339C66.2134 34.2792 66.3097 34.25 66.4082 34.25C66.4737 34.25 66.5384 34.2629 66.5989 34.2879C66.6593 34.3129 66.7142 34.3496 66.7604 34.3959C66.8067 34.4421 66.8434 34.497 66.8684 34.5575C66.8934 34.6179 66.9063 34.6827 66.9063 34.7481Z" fill="white"/>
<path d="M70.0704 34.752C70.0704 34.8505 70.0412 34.9468 69.9864 35.0287C69.9317 35.1106 69.8539 35.1745 69.7629 35.2122C69.6719 35.2499 69.5718 35.2597 69.4751 35.2405C69.3785 35.2213 69.2898 35.1739 69.2201 35.1042C69.1504 35.0345 69.103 34.9458 69.0838 34.8492C69.0646 34.7525 69.0744 34.6524 69.1121 34.5614C69.1498 34.4704 69.2137 34.3926 69.2956 34.3378C69.3775 34.2831 69.4738 34.2539 69.5723 34.2539C69.6377 34.2539 69.7025 34.2668 69.7629 34.2918C69.8233 34.3169 69.8783 34.3535 69.9245 34.3998C69.9708 34.446 70.0074 34.501 70.0325 34.5614C70.0575 34.6218 70.0704 34.6866 70.0704 34.752Z" fill="white"/>
<path d="M73.2325 34.7549C73.2319 34.8534 73.2021 34.9496 73.1469 35.0312C73.0917 35.1127 73.0135 35.1761 72.9223 35.2133C72.8311 35.2504 72.7309 35.2597 72.6344 35.2399C72.5379 35.2201 72.4494 35.1722 72.3801 35.1021C72.3109 35.0321 72.264 34.943 72.2453 34.8463C72.2267 34.7496 72.2371 34.6495 72.2754 34.5587C72.3136 34.4679 72.3779 34.3905 72.4601 34.3362C72.5424 34.282 72.6388 34.2533 72.7373 34.2539C72.8027 34.2543 72.8674 34.2676 72.9277 34.2929C72.988 34.3183 73.0427 34.3553 73.0887 34.4019C73.1347 34.4484 73.171 34.5035 73.1957 34.5641C73.2204 34.6247 73.2329 34.6895 73.2325 34.7549Z" fill="white"/>
<path d="M76.3946 34.7559C76.3946 34.8544 76.3654 34.9507 76.3107 35.0326C76.2559 35.1145 76.1782 35.1784 76.0871 35.2161C75.9961 35.2538 75.896 35.2636 75.7994 35.2444C75.7027 35.2252 75.614 35.1778 75.5443 35.1081C75.4747 35.0384 75.4272 34.9497 75.408 34.8531C75.3888 34.7565 75.3987 34.6563 75.4364 34.5653C75.4741 34.4743 75.5379 34.3965 75.6198 34.3418C75.7017 34.287 75.798 34.2578 75.8965 34.2578C76.0286 34.2578 76.1553 34.3103 76.2487 34.4037C76.3421 34.4971 76.3946 34.6238 76.3946 34.7559Z" fill="white"/>
<path d="M79.5606 34.7579C79.5606 34.8564 79.5314 34.9527 79.4767 35.0346C79.422 35.1165 79.3442 35.1803 79.2532 35.218C79.1621 35.2557 79.062 35.2656 78.9654 35.2464C78.8687 35.2272 78.78 35.1797 78.7103 35.1101C78.6407 35.0404 78.5932 34.9516 78.574 34.855C78.5548 34.7584 78.5647 34.6583 78.6024 34.5672C78.6401 34.4762 78.7039 34.3984 78.7858 34.3437C78.8677 34.289 78.964 34.2598 79.0625 34.2598C79.1946 34.2598 79.3213 34.3122 79.4147 34.4057C79.5082 34.4991 79.5606 34.6258 79.5606 34.7579Z" fill="white"/>
<path d="M66.877 82.6836C66.877 82.7821 66.8478 82.8784 66.7931 82.9604C66.7384 83.0423 66.6606 83.1061 66.5696 83.1438C66.4785 83.1815 66.3784 83.1914 66.2818 83.1721C66.1852 83.1529 66.0964 83.1055 66.0267 83.0358C65.9571 82.9662 65.9096 82.8774 65.8904 82.7808C65.8712 82.6842 65.8811 82.584 65.9188 82.493C65.9565 82.402 66.0203 82.3242 66.1022 82.2695C66.1841 82.2148 66.2804 82.1855 66.3789 82.1855C66.5111 82.1855 66.6377 82.238 66.7311 82.3314C66.8246 82.4248 66.877 82.5515 66.877 82.6836Z" fill="#C7C7C7"/>
<path d="M70.0509 82.6875C70.0509 82.7861 70.0217 82.8824 69.9669 82.9643C69.9122 83.0462 69.8344 83.11 69.7434 83.1477C69.6524 83.1854 69.5522 83.1953 69.4556 83.1761C69.359 83.1568 69.2702 83.1094 69.2006 83.0397C69.1309 82.9701 69.0835 82.8813 69.0643 82.7847C69.045 82.6881 69.0549 82.5879 69.0926 82.4969C69.1303 82.4059 69.1941 82.3281 69.2761 82.2734C69.358 82.2187 69.4543 82.1895 69.5528 82.1895C69.6849 82.1895 69.8116 82.2419 69.905 82.3353C69.9984 82.4288 70.0509 82.5554 70.0509 82.6875Z" fill="#C7C7C7"/>
<path d="M73.211 82.6895C73.211 82.7881 73.1817 82.8846 73.1269 82.9665C73.072 83.0485 72.994 83.1123 72.9029 83.1499C72.8117 83.1876 72.7114 83.1973 72.6147 83.1778C72.518 83.1583 72.4292 83.1106 72.3597 83.0407C72.2902 82.9707 72.2429 82.8817 72.2241 82.7849C72.2052 82.6881 72.2155 82.5878 72.2536 82.4969C72.2918 82.4059 72.356 82.3283 72.4383 82.2739C72.5206 82.2195 72.6172 82.1908 72.7159 82.1914C72.7811 82.1914 72.8458 82.2043 72.906 82.2294C72.9663 82.2544 73.021 82.2912 73.067 82.3375C73.1131 82.3838 73.1495 82.4387 73.1742 82.4991C73.1989 82.5595 73.2114 82.6242 73.211 82.6895Z" fill="#C7C7C7"/>
<path d="M76.377 82.6895C76.377 82.788 76.3478 82.8843 76.2931 82.9662C76.2384 83.0481 76.1606 83.112 76.0696 83.1497C75.9785 83.1874 75.8784 83.1972 75.7818 83.178C75.6852 83.1588 75.5964 83.1114 75.5267 83.0417C75.4571 82.972 75.4096 82.8833 75.3904 82.7867C75.3712 82.69 75.3811 82.5899 75.4188 82.4989C75.4565 82.4079 75.5203 82.3301 75.6022 82.2753C75.6841 82.2206 75.7804 82.1914 75.8789 82.1914C76.011 82.1914 76.1377 82.2439 76.2311 82.3373C76.3246 82.4307 76.377 82.5574 76.377 82.6895Z" fill="#C7C7C7"/>
<path d="M79.5391 82.6934C79.5391 82.7919 79.5099 82.8882 79.4552 82.9701C79.4005 83.052 79.3227 83.1159 79.2317 83.1536C79.1407 83.1913 79.0405 83.2011 78.9439 83.1819C78.8473 83.1627 78.7585 83.1153 78.6889 83.0456C78.6192 82.9759 78.5718 82.8872 78.5525 82.7906C78.5333 82.694 78.5432 82.5938 78.5809 82.5028C78.6186 82.4118 78.6824 82.334 78.7643 82.2793C78.8462 82.2245 78.9425 82.1953 79.0411 82.1953C79.1732 82.1953 79.2998 82.2478 79.3933 82.3412C79.4867 82.4346 79.5391 82.5613 79.5391 82.6934Z" fill="#C7C7C7"/>
<path d="M78.7256 89.4174L66.6954 89.4056L66.1328 84.9609L79.2941 84.9697L78.7256 89.4174Z" fill="black"/>
<path opacity="0.1" d="M79.295 84.9727L79.0167 87.1349L66.3506 86.6603L66.1367 84.9609L79.295 84.9727Z" fill="black"/>
<path opacity="0.6" d="M45.2601 111.071C45.2601 111.492 45.1355 111.902 44.9021 112.252C44.6687 112.601 44.337 112.873 43.9488 113.034C43.5607 113.195 43.1336 113.237 42.7215 113.155C42.3095 113.073 41.931 112.871 41.6339 112.573C41.3368 112.276 41.1345 111.898 41.0525 111.486C40.9706 111.074 41.0126 110.647 41.1734 110.259C41.3342 109.87 41.6065 109.539 41.9558 109.305C42.3051 109.072 42.7158 108.947 43.1359 108.947C43.6993 108.947 44.2396 109.171 44.638 109.569C45.0363 109.968 45.2601 110.508 45.2601 111.071Z" fill="black"/>
<path opacity="0.6" d="M46.8057 108.043C47.377 108.043 47.84 107.58 47.84 107.009C47.84 106.438 47.377 105.975 46.8057 105.975C46.2345 105.975 45.7715 106.438 45.7715 107.009C45.7715 107.58 46.2345 108.043 46.8057 108.043Z" fill="black"/>
<path opacity="0.6" d="M93.2756 110.039C93.275 110.244 93.2138 110.443 93.0998 110.613C92.9858 110.783 92.8241 110.915 92.6351 110.993C92.446 111.07 92.2382 111.09 92.0377 111.05C91.8373 111.01 91.6533 110.911 91.5089 110.767C91.3646 110.622 91.2664 110.437 91.2267 110.237C91.187 110.036 91.2077 109.829 91.286 109.64C91.3644 109.451 91.497 109.29 91.667 109.176C91.837 109.063 92.0369 109.002 92.2413 109.002C92.3774 109.002 92.5121 109.029 92.6378 109.081C92.7634 109.133 92.8776 109.21 92.9737 109.306C93.0697 109.402 93.1459 109.517 93.1977 109.642C93.2495 109.768 93.2759 109.903 93.2756 110.039Z" fill="black"/>
<path opacity="0.6" d="M113.998 119.483C113.998 119.688 113.938 119.888 113.824 120.058C113.71 120.228 113.549 120.361 113.36 120.439C113.171 120.517 112.963 120.538 112.762 120.498C112.562 120.458 112.377 120.359 112.233 120.215C112.088 120.07 111.989 119.886 111.95 119.685C111.91 119.485 111.93 119.277 112.008 119.088C112.087 118.899 112.219 118.737 112.389 118.624C112.559 118.51 112.759 118.449 112.964 118.449C113.238 118.45 113.501 118.559 113.694 118.753C113.888 118.947 113.997 119.209 113.998 119.483Z" fill="black"/>
<path opacity="0.6" d="M112.416 122.51C112.416 122.672 112.384 122.832 112.322 122.982C112.259 123.132 112.168 123.268 112.053 123.383C111.939 123.497 111.802 123.588 111.652 123.65C111.502 123.712 111.341 123.743 111.179 123.743H34.2335C33.9064 123.743 33.5926 123.613 33.3613 123.382C33.13 123.15 33 122.837 33 122.51C33 122.182 33.13 121.869 33.3613 121.637C33.5926 121.406 33.9064 121.276 34.2335 121.276C34.3322 121.276 34.4306 121.288 34.5265 121.311C34.5257 120.827 34.6693 120.354 34.9389 119.953C35.2084 119.551 35.5917 119.239 36.0396 119.056C36.4876 118.873 36.9799 118.828 37.4536 118.927C37.9273 119.025 38.3608 119.263 38.6987 119.609H38.7221C38.7221 119.459 38.6987 119.316 38.6987 119.155C38.6987 117.936 39.1827 116.768 40.0443 115.906C40.9059 115.045 42.0744 114.561 43.2928 114.561C43.9939 114.559 44.6859 114.719 45.3145 115.029C45.3583 114.283 45.6563 113.573 46.1589 113.019C46.6615 112.465 47.3386 112.099 48.0776 111.983C48.8167 111.866 49.5733 112.006 50.2219 112.379C50.8705 112.752 51.372 113.336 51.6431 114.033C52.1389 113.251 52.8596 112.636 53.7108 112.27C54.562 111.904 55.5039 111.804 56.413 111.982C56.3491 111.628 56.3177 111.27 56.3193 110.91C56.3171 109.72 56.6565 108.554 57.2972 107.551C57.9378 106.549 58.8528 105.751 59.9335 105.252C61.0142 104.754 62.2152 104.577 63.3939 104.741C64.5725 104.905 65.6793 105.404 66.5828 106.178C66.6869 105.977 66.844 105.809 67.0373 105.691C67.2305 105.573 67.4523 105.511 67.6786 105.51C67.8414 105.511 68.0025 105.542 68.1533 105.604L69.3165 89.3867H76.0963L77.2507 105.595C77.3987 105.535 77.5568 105.503 77.7166 105.501C77.9428 105.502 78.1647 105.564 78.3579 105.682C78.5511 105.8 78.7083 105.968 78.8123 106.169C79.7838 105.333 80.9903 104.817 82.2664 104.692C83.5425 104.568 84.8259 104.841 85.9407 105.474C87.0555 106.108 87.9473 107.07 88.4939 108.23C89.0405 109.39 89.2151 110.69 88.9938 111.953C89.2834 111.896 89.5778 111.868 89.8728 111.868C90.6503 111.867 91.4152 112.063 92.0959 112.439C92.7765 112.815 93.3505 113.357 93.7638 114.016C94.0349 113.318 94.5364 112.735 95.185 112.362C95.8336 111.989 96.5902 111.849 97.3293 111.965C98.0683 112.082 98.7454 112.447 99.248 113.001C99.7506 113.556 100.049 114.265 100.092 115.012C100.721 114.702 101.413 114.541 102.114 114.543C102.719 114.541 103.319 114.659 103.879 114.889C104.438 115.12 104.947 115.459 105.375 115.887C105.803 116.314 106.143 116.822 106.374 117.382C106.606 117.941 106.724 118.541 106.723 119.146C106.723 119.298 106.723 119.439 106.699 119.6H106.723C107.062 119.256 107.497 119.02 107.971 118.924C108.445 118.828 108.937 118.876 109.384 119.06C109.831 119.245 110.213 119.56 110.48 119.963C110.748 120.366 110.889 120.839 110.886 121.323C110.982 121.299 111.081 121.288 111.179 121.288C111.505 121.288 111.817 121.416 112.048 121.645C112.28 121.873 112.412 122.184 112.416 122.51Z" fill="black"/>
<path d="M92.9066 112.355L91.3068 112.651L90.9494 114.338L90.5919 112.651L88.9922 112.355L90.5831 111.965L90.9494 110.371L91.3127 111.965L92.9066 112.355Z" fill="#FDFDFD"/>
<path d="M77.3431 98.8273L75.7434 99.1232L75.3859 100.811L75.0255 99.1232L73.4258 98.8273L75.0197 98.4376L75.3859 96.8438L75.7492 98.4376L77.3431 98.8273Z" fill="#FDFDFD"/>
<path d="M54.0871 115.565L53.1905 115.732L52.9913 116.675L52.7921 115.732L51.8984 115.565L52.7891 115.348L52.9913 114.457L53.1964 115.348L54.0871 115.565Z" fill="#FDFDFD"/>
<path d="M102.21 118.377L101.314 118.544L101.114 119.485L100.915 118.544L100.021 118.377L100.912 118.16L101.114 117.27L101.319 118.16L102.21 118.377Z" fill="#FDFDFD"/>
<path d="M41.7785 121.682L40.8819 121.846L40.6827 122.789L40.4835 121.846L39.5898 121.682L40.4805 121.465L40.6827 120.574L40.8849 121.465L41.7785 121.682Z" fill="#FDFDFD"/>
<path d="M80.6828 120.897L79.7892 121.064L79.5899 122.004L79.3878 121.064L78.4941 120.897L79.3848 120.68L79.5899 119.789L79.7921 120.68L80.6828 120.897Z" fill="#FDFDFD"/>
<path d="M74.1301 96.2589L73.2364 96.4229L73.0372 97.3664L72.838 96.4229L71.9414 96.2559L72.8321 96.0391L73.0372 95.1484L73.2394 96.0391L74.1301 96.2589Z" fill="#FDFDFD"/>
<path d="M104.329 120.416C104.265 120.423 104.206 120.453 104.163 120.501C104.12 120.549 104.096 120.611 104.096 120.675C104.096 120.74 104.12 120.802 104.163 120.85C104.206 120.898 104.265 120.928 104.329 120.935C104.393 120.928 104.452 120.898 104.495 120.85C104.538 120.802 104.562 120.74 104.562 120.675C104.562 120.611 104.538 120.549 104.495 120.501C104.452 120.453 104.393 120.423 104.329 120.416Z" fill="#FDFDFD"/>
<path d="M70.6882 92.9883C70.6242 92.9951 70.565 93.0254 70.5219 93.0732C70.4789 93.1211 70.4551 93.1832 70.4551 93.2476C70.4551 93.312 70.4789 93.3741 70.5219 93.4219C70.565 93.4698 70.6242 93.5001 70.6882 93.5069C70.7523 93.5001 70.8115 93.4698 70.8545 93.4219C70.8976 93.3741 70.9214 93.312 70.9214 93.2476C70.9214 93.1832 70.8976 93.1211 70.8545 93.0732C70.8115 93.0254 70.7523 92.9951 70.6882 92.9883Z" fill="#FDFDFD"/>
<path d="M48.5515 121.682C48.4875 121.688 48.4283 121.719 48.3852 121.767C48.3422 121.814 48.3184 121.877 48.3184 121.941C48.3184 122.005 48.3422 122.067 48.3852 122.115C48.4283 122.163 48.4875 122.193 48.5515 122.2C48.6155 122.193 48.6748 122.163 48.7178 122.115C48.7609 122.067 48.7847 122.005 48.7847 121.941C48.7847 121.877 48.7609 121.814 48.7178 121.767C48.6748 121.719 48.6155 121.688 48.5515 121.682Z" fill="#FDFDFD"/>
<path d="M64.9871 118.117C64.923 118.124 64.8638 118.154 64.8208 118.202C64.7777 118.25 64.7539 118.312 64.7539 118.376C64.7539 118.441 64.7777 118.503 64.8208 118.551C64.8638 118.599 64.923 118.629 64.9871 118.636C65.0511 118.629 65.1103 118.599 65.1534 118.551C65.1964 118.503 65.2202 118.441 65.2202 118.376C65.2202 118.312 65.1964 118.25 65.1534 118.202C65.1103 118.154 65.0511 118.124 64.9871 118.117Z" fill="#FDFDFD"/>
<path d="M97.8293 115.758C97.7848 115.763 97.7438 115.785 97.7141 115.819C97.6844 115.853 97.668 115.896 97.668 115.941C97.668 115.986 97.6844 116.029 97.7141 116.063C97.7438 116.097 97.7848 116.118 97.8293 116.124C97.8739 116.118 97.9149 116.097 97.9446 116.063C97.9743 116.029 97.9907 115.986 97.9907 115.941C97.9907 115.896 97.9743 115.853 97.9446 115.819C97.9149 115.785 97.8739 115.763 97.8293 115.758Z" fill="#FDFDFD"/>
<path d="M75.169 113.004C75.12 113.004 75.0731 113.023 75.0384 113.058C75.0038 113.093 74.9844 113.14 74.9844 113.188C74.9844 113.237 75.0038 113.284 75.0384 113.319C75.0731 113.354 75.12 113.373 75.169 113.373C75.2179 113.373 75.2649 113.354 75.2995 113.319C75.3341 113.284 75.3535 113.237 75.3535 113.188C75.3535 113.14 75.3341 113.093 75.2995 113.058C75.2649 113.023 75.2179 113.004 75.169 113.004Z" fill="#FDFDFD"/>
<path d="M58.5793 109.42C58.5348 109.426 58.4938 109.447 58.4641 109.481C58.4344 109.515 58.418 109.558 58.418 109.603C58.418 109.648 58.4344 109.691 58.4641 109.725C58.4938 109.759 58.5348 109.781 58.5793 109.786C58.6239 109.781 58.6649 109.759 58.6946 109.725C58.7243 109.691 58.7407 109.648 58.7407 109.603C58.7407 109.558 58.7243 109.515 58.6946 109.481C58.6649 109.447 58.6239 109.426 58.5793 109.42Z" fill="#FDFDFD"/>
<path d="M86.959 110.168C86.8269 110.168 86.7002 110.22 86.6068 110.314C86.5134 110.407 86.4609 110.534 86.4609 110.666C86.4609 110.798 86.5134 110.925 86.6068 111.018C86.7002 111.112 86.8269 111.164 86.959 111.164C87.0911 111.164 87.2178 111.112 87.3112 111.018C87.4046 110.925 87.4571 110.798 87.4571 110.666C87.4571 110.534 87.4046 110.407 87.3112 110.314C87.2178 110.22 87.0911 110.168 86.959 110.168Z" fill="#FDFDFD"/>
<path d="M60.9258 107.734C60.7937 107.734 60.667 107.787 60.5736 107.88C60.4802 107.974 60.4277 108.1 60.4277 108.232C60.4277 108.365 60.4802 108.491 60.5736 108.585C60.667 108.678 60.7937 108.731 60.9258 108.731C61.0579 108.731 61.1846 108.678 61.278 108.585C61.3714 108.491 61.4239 108.365 61.4239 108.232C61.4239 108.1 61.3714 107.974 61.278 107.88C61.1846 107.787 61.0579 107.734 60.9258 107.734Z" fill="#FDFDFD"/>
<defs>
<linearGradient id="paint0_linear_785_5638" x1="153.981" y1="4.55566" x2="-3.3842" y2="141.746" gradientUnits="userSpaceOnUse">
<stop offset="0.270407" stop-color="#2AB7CA"/>
<stop offset="0.66957" stop-color="#FFCD00"/>
</linearGradient>
</defs>
</svg>
