<svg width="145" height="145" viewBox="0 0 145 145" fill="none" xmlns="http://www.w3.org/2000/svg">
<path d="M0 72.5C0 112.541 32.4594 145 72.5 145C112.541 145 145 112.541 145 72.5C145 32.4594 112.541 0 72.5 0C32.4594 0 0 32.4594 0 72.5Z" fill="url(#paint0_linear_785_5639)"/>
<path d="M104.828 45.5907L106.276 43.2562L105.556 42.8144C105.455 42.7495 105.373 42.6574 105.32 42.5485C105.268 42.4396 105.247 42.3182 105.26 42.198C105.271 42.0645 105.275 41.9304 105.272 41.7964C105.269 41.6739 105.3 41.5529 105.362 41.4469C105.423 41.3409 105.513 41.254 105.621 41.1958L106.363 40.7994L105.064 38.3776L104.324 38.774C104.219 38.8309 104.101 38.8578 103.983 38.8516C103.864 38.8455 103.749 38.8065 103.652 38.7391C103.533 38.6541 103.409 38.5771 103.28 38.5086C103.174 38.4528 103.086 38.3687 103.026 38.2657C102.965 38.1627 102.935 38.0448 102.937 37.9254L102.964 37.0856L100.219 37L100.196 37.8399C100.192 37.959 100.155 38.0747 100.089 38.1742C100.024 38.2737 99.932 38.3531 99.8241 38.4038C99.7595 38.4335 99.6949 38.465 99.6321 38.4981L99.447 38.6046C99.3459 38.6667 99.2295 38.6996 99.1109 38.6996C98.9922 38.6996 98.8759 38.6667 98.7747 38.6046L98.0554 38.1576L96.6061 40.4921L97.3273 40.9391C97.4289 41.004 97.5106 41.0958 97.5633 41.2043C97.616 41.3128 97.6377 41.4337 97.6258 41.5537C97.6142 41.6867 97.6095 41.8202 97.6119 41.9536C97.6158 42.0751 97.586 42.1953 97.526 42.301C97.4659 42.4067 97.3778 42.4937 97.2714 42.5525L96.5293 42.9506L97.8284 45.3724L98.5705 44.9743C98.6784 44.918 98.7999 44.8928 98.9213 44.9014C99.0428 44.9101 99.1595 44.9522 99.2584 45.0232C99.369 45.0977 99.4825 45.1675 99.5989 45.2327C99.7058 45.2884 99.7951 45.3728 99.8568 45.4765C99.9185 45.5801 99.9501 45.6988 99.9481 45.8194L99.9219 46.668L102.668 46.7535L102.695 45.9102C102.699 45.7898 102.737 45.6731 102.805 45.5732C102.872 45.4733 102.966 45.394 103.075 45.3445C103.136 45.3148 103.198 45.2851 103.25 45.2519C103.302 45.2187 103.367 45.1873 103.425 45.1524C103.528 45.0891 103.647 45.0556 103.768 45.0556C103.889 45.0556 104.007 45.0891 104.111 45.1524L104.828 45.5907ZM102.752 43.7032C102.37 43.9775 101.912 44.1253 101.441 44.1256C100.971 44.1259 100.512 43.9789 100.129 43.705C99.747 43.4312 99.4599 43.0443 99.3085 42.5989C99.1572 42.1535 99.1493 41.6718 99.2858 41.2216C99.4224 40.7714 99.6966 40.3753 100.07 40.089C100.443 39.8027 100.897 39.6406 101.367 39.6254C101.837 39.6102 102.3 39.7428 102.691 40.0044C103.082 40.266 103.381 40.6436 103.547 41.0841C103.721 41.5472 103.737 42.0548 103.593 42.5282C103.45 43.0017 103.154 43.4146 102.752 43.7032Z" fill="#EBEBEB"/>
<path d="M20.0255 58.3857C20.0987 58.4286 20.1585 58.491 20.1983 58.5659C20.238 58.6408 20.2562 58.7253 20.2507 58.81C20.2507 58.8571 20.2507 58.9043 20.2507 58.9514C20.2507 58.9986 20.2507 59.0474 20.2507 59.0946C20.2565 59.1788 20.2386 59.263 20.1991 59.3377C20.1596 59.4123 20.1001 59.4745 20.0272 59.5171L19.5156 59.8122L20.4777 61.4797L20.9893 61.1846C21.0626 61.1423 21.1464 61.1215 21.231 61.1245C21.3156 61.1276 21.3977 61.1545 21.4677 61.2021C21.548 61.2527 21.6301 61.3016 21.7157 61.3453C21.7916 61.383 21.8555 61.4409 21.9005 61.5127C21.9455 61.5845 21.9698 61.6674 21.9706 61.7521V62.3405H23.8913V61.7521C23.8916 61.6677 23.9152 61.585 23.9596 61.5132C24.004 61.4414 24.0673 61.3833 24.1427 61.3453C24.2283 61.3016 24.3173 61.2527 24.3906 61.2021C24.461 61.1546 24.5434 61.1277 24.6282 61.1246C24.7131 61.1215 24.7972 61.1423 24.8708 61.1846L25.3824 61.4797L26.3445 59.8122L25.8312 59.5154C25.7583 59.4727 25.6988 59.4106 25.6593 59.3359C25.6198 59.2613 25.6019 59.1771 25.6077 59.0928C25.6077 59.0457 25.6077 58.9986 25.6077 58.9514C25.6077 58.9043 25.6077 58.8571 25.6077 58.81C25.602 58.7253 25.62 58.6407 25.6598 58.5657C25.6996 58.4908 25.7596 58.4284 25.8329 58.3857L26.3445 58.0906L25.3824 56.4231L24.8726 56.7182C24.7988 56.76 24.715 56.7806 24.6303 56.7778C24.5456 56.7751 24.4632 56.749 24.3924 56.7025C24.3124 56.6498 24.2296 56.6014 24.1445 56.5576C24.0686 56.5199 24.0048 56.462 23.9601 56.3901C23.9154 56.3182 23.8915 56.2354 23.8913 56.1507V55.5605H21.9706V56.149C21.9699 56.2335 21.946 56.3162 21.9013 56.388C21.8566 56.4598 21.793 56.5179 21.7174 56.5558C21.6317 56.5997 21.5483 56.6481 21.4677 56.7007C21.3972 56.7473 21.3152 56.7734 21.2307 56.7762C21.1463 56.7789 21.0627 56.7583 20.9893 56.7164L20.4795 56.4214L19.5174 58.0889L20.0255 58.3857ZM22.9309 57.3747C23.2417 57.3747 23.5456 57.4669 23.804 57.6395C24.0624 57.8122 24.2638 58.0577 24.3828 58.3448C24.5017 58.6319 24.5328 58.9479 24.4722 59.2527C24.4116 59.5576 24.2619 59.8376 24.0421 60.0574C23.8224 60.2771 23.5423 60.4268 23.2375 60.4874C22.9327 60.5481 22.6167 60.517 22.3296 60.398C22.0424 60.2791 21.797 60.0777 21.6243 59.8192C21.4516 59.5608 21.3595 59.257 21.3595 58.9462C21.3595 58.5294 21.525 58.1297 21.8197 57.835C22.1144 57.5403 22.5142 57.3747 22.9309 57.3747Z" fill="#EBEBEB"/>
<path d="M121.82 63.4953C121.893 63.5385 121.952 63.601 121.992 63.6759C122.031 63.7508 122.049 63.8351 122.044 63.9196C122.044 63.9667 122.044 64.0138 122.044 64.0627C122.044 64.1116 122.044 64.157 122.044 64.2042C122.049 64.2886 122.031 64.3729 121.992 64.4478C121.952 64.5227 121.893 64.5852 121.82 64.6285L121.309 64.9235L122.271 66.5893L122.782 66.296C122.856 66.2538 122.94 66.2329 123.025 66.2357C123.109 66.2385 123.192 66.2648 123.262 66.3117C123.342 66.3648 123.425 66.4126 123.51 66.4549C123.586 66.4929 123.649 66.551 123.694 66.6228C123.738 66.6946 123.762 66.7773 123.762 66.8617V67.4519H125.682V66.8617C125.683 66.7771 125.707 66.6944 125.752 66.6226C125.796 66.5508 125.86 66.4928 125.936 66.4549C126.021 66.4122 126.104 66.3644 126.184 66.3117C126.254 66.2648 126.336 66.2384 126.421 66.2356C126.505 66.2329 126.589 66.2538 126.662 66.296L127.174 66.5893L128.136 64.9235L127.622 64.6267C127.55 64.5837 127.49 64.5215 127.451 64.447C127.412 64.3724 127.394 64.2884 127.399 64.2042C127.399 64.1564 127.399 64.1093 127.399 64.0627C127.399 64.0138 127.399 63.9667 127.399 63.9196C127.394 63.8349 127.412 63.7505 127.452 63.6756C127.491 63.6007 127.551 63.5383 127.624 63.4953L128.136 63.2002L127.174 61.5344L126.664 61.8278C126.59 61.87 126.507 61.8909 126.422 61.8881C126.338 61.8853 126.256 61.859 126.185 61.8121C126.105 61.76 126.021 61.7122 125.936 61.6689C125.86 61.6309 125.796 61.5729 125.752 61.5011C125.707 61.4293 125.683 61.3466 125.682 61.262V60.6719H123.765V61.262C123.765 61.3467 123.741 61.4296 123.697 61.5014C123.652 61.5733 123.588 61.6313 123.512 61.6689C123.427 61.7122 123.344 61.76 123.264 61.8121C123.193 61.8589 123.111 61.8852 123.026 61.888C122.942 61.8908 122.858 61.8699 122.784 61.8278L122.274 61.5344L121.312 63.2002L121.82 63.4953ZM124.724 62.4843C125.035 62.4843 125.339 62.5765 125.597 62.7491C125.855 62.9218 126.057 63.1672 126.176 63.4544C126.295 63.7415 126.326 64.0575 126.265 64.3623C126.205 64.6672 126.055 64.9472 125.835 65.1669C125.615 65.3867 125.335 65.5364 125.03 65.597C124.726 65.6577 124.41 65.6265 124.123 65.5076C123.835 65.3887 123.59 65.1872 123.417 64.9288C123.245 64.6704 123.152 64.3666 123.152 64.0558C123.152 63.639 123.318 63.2393 123.613 62.9446C123.907 62.6499 124.307 62.4843 124.724 62.4843Z" fill="#EBEBEB"/>
<path d="M128.714 51.2725H128.457V51.1031H128.543V51.0176H128.714V51.2725Z" fill="#EBEBEB"/>
<path d="M128.117 51.2723H127.782V51.0977H128.122L128.117 51.2723ZM127.436 51.2723H127.096V51.0977H127.433L127.436 51.2723ZM126.757 51.2723H126.408V51.0977H126.757V51.2723ZM126.076 51.2723H125.727V51.0977H126.076V51.2723ZM125.395 51.2723H125.046V51.0977H125.395V51.2723ZM124.714 51.2723H124.374V51.0977H124.714V51.2723ZM124.033 51.2723H123.693V51.0977H124.033V51.2723ZM123.352 51.2723H123.003V51.0977H123.352V51.2723ZM122.671 51.2723H122.322V51.0977H122.671V51.2723ZM121.99 51.2723H121.641V51.0977H121.99V51.2723ZM121.309 51.2723H120.972V51.0977H121.313L121.309 51.2723ZM120.628 51.2723H120.288V51.0977H120.623L120.628 51.2723ZM119.947 51.2723H119.598V51.0977H119.947V51.2723ZM119.266 51.2723H118.917V51.0977H119.266V51.2723ZM118.585 51.2723H118.236V51.0977H118.585V51.2723ZM117.904 51.2723H117.566V51.0977H117.904V51.2723ZM117.225 51.2723H116.885V51.0977H117.225V51.2723Z" fill="#EBEBEB"/>
<path d="M116.546 51.2725H116.289V51.0176H116.46V51.1031H116.546V51.2725Z" fill="#EBEBEB"/>
<path d="M116.458 50.6726H116.283V50.3234H116.458V50.6726ZM116.458 49.9917H116.283V49.6512H116.458V49.9917ZM116.458 49.3107H116.283V48.9615H116.458V49.3107ZM116.458 48.6297H116.283V48.2805H116.458V48.6297ZM116.458 47.9488H116.283V47.5995H116.458V47.9488ZM116.458 47.2678H116.283V46.9186H116.458V47.2678ZM116.458 46.5868H116.283V46.2516H116.458V46.5868ZM116.458 45.9076H116.283V45.5724H116.458V45.9076ZM116.458 45.2266H116.283V44.8774H116.458V45.2266ZM116.458 44.5457H116.283V44.2122H116.458V44.5457ZM116.458 43.8647H116.283V43.5155H116.458V43.8647ZM116.458 43.1837H116.283V42.8345H116.458V43.1837ZM116.458 42.5028H116.283V42.1675H116.458V42.5028ZM116.458 41.8218H116.283V41.4726H116.458V41.8218ZM116.458 41.1408H116.283V40.8056H116.458V41.1408ZM116.458 40.4599H116.283V40.1246H116.458V40.4599ZM116.458 39.7789H116.283V39.4297H116.458V39.7789Z" fill="#EBEBEB"/>
<path d="M116.46 39.1026H116.289V38.8477H116.546V39.0188H116.46V39.1026Z" fill="#EBEBEB"/>
<path d="M128.117 39.0184H127.782V38.8438H128.122L128.117 39.0184ZM127.436 39.0184H127.096V38.8438H127.433L127.436 39.0184ZM126.757 39.0184H126.408V38.8438H126.757V39.0184ZM126.076 39.0184H125.727V38.8438H126.076V39.0184ZM125.395 39.0184H125.046V38.8438H125.395V39.0184ZM124.714 39.0184H124.374V38.8438H124.714V39.0184ZM124.033 39.0184H123.693V38.8438H124.033V39.0184ZM123.352 39.0184H123.003V38.8438H123.352V39.0184ZM122.671 39.0184H122.322V38.8438H122.671V39.0184ZM121.99 39.0184H121.641V38.8438H121.99V39.0184ZM121.309 39.0184H120.972V38.8438H121.313L121.309 39.0184ZM120.628 39.0184H120.288V38.8438H120.623L120.628 39.0184ZM119.947 39.0184H119.598V38.8438H119.947V39.0184ZM119.266 39.0184H118.917V38.8438H119.266V39.0184ZM118.585 39.0184H118.236V38.8438H118.585V39.0184ZM117.904 39.0184H117.566V38.8438H117.904V39.0184ZM117.225 39.0184H116.885V38.8438H117.225V39.0184Z" fill="#EBEBEB"/>
<path d="M128.714 39.1026H128.543V39.0188H128.457V38.8477H128.714V39.1026Z" fill="#EBEBEB"/>
<path d="M128.714 50.6726H128.539V50.3234H128.714V50.6726ZM128.714 49.9917H128.539V49.6512H128.714V49.9917ZM128.714 49.3107H128.539V48.9615H128.714V49.3107ZM128.714 48.6297H128.539V48.2805H128.714V48.6297ZM128.714 47.9488H128.539V47.5995H128.714V47.9488ZM128.714 47.2678H128.539V46.9186H128.714V47.2678ZM128.714 46.5868H128.539V46.2533H128.714V46.5868ZM128.714 45.9076H128.539V45.5724H128.714V45.9076ZM128.714 45.2266H128.539V44.8774H128.714V45.2266ZM128.714 44.5457H128.539V44.2122H128.714V44.5457ZM128.714 43.8647H128.539V43.5155H128.714V43.8647ZM128.714 43.1837H128.539V42.8345H128.714V43.1837ZM128.714 42.5028H128.539V42.1675H128.714V42.5028ZM128.714 41.8218H128.539V41.4726H128.714V41.8218ZM128.714 41.1408H128.539V40.8056H128.714V41.1408ZM128.714 40.4599H128.539V40.1246H128.714V40.4599ZM128.714 39.7789H128.539V39.4297H128.714V39.7789Z" fill="#EBEBEB"/>
<path d="M117.137 50.4238H115.609V51.9516H117.137V50.4238Z" fill="white"/>
<path d="M117.221 52.0368H115.523V50.3379H117.221V52.0368ZM115.695 51.8622H117.051V50.5055H115.695V51.8622Z" fill="#EBEBEB"/>
<path d="M117.143 44.2969H115.615V45.8247H117.143V44.2969Z" fill="white"/>
<path d="M117.221 45.9081H115.523V44.2109H117.221V45.9081ZM115.695 45.7335H117.051V44.3855H115.695V45.7335Z" fill="#EBEBEB"/>
<path d="M117.143 38.168H115.615V39.6958H117.143V38.168Z" fill="white"/>
<path d="M117.221 39.7831H115.523V38.0859H117.221V39.7831ZM115.695 39.6085H117.051V38.2553H115.695V39.6085Z" fill="#EBEBEB"/>
<path d="M129.399 50.4238H127.871V51.9516H129.399V50.4238Z" fill="white"/>
<path d="M129.479 52.0368H127.783V50.3379H129.48L129.479 52.0368ZM127.951 51.8622H129.308V50.5055H127.958L127.951 51.8622Z" fill="#EBEBEB"/>
<path d="M129.399 44.2969H127.871V45.8247H129.399V44.2969Z" fill="white"/>
<path d="M129.479 45.9081H127.783V44.2109H129.48L129.479 45.9081ZM127.951 45.7335H129.308V44.3855H127.958L127.951 45.7335Z" fill="#EBEBEB"/>
<path d="M129.399 38.168H127.871V39.6958H129.399V38.168Z" fill="white"/>
<path d="M129.479 39.7831H127.783V38.0859H129.48L129.479 39.7831ZM127.951 39.6085H129.308V38.2553H127.958L127.951 39.6085Z" fill="#EBEBEB"/>
<path d="M123.274 38.168H121.746V39.6958H123.274V38.168Z" fill="white"/>
<path d="M123.351 39.7831H121.652V38.0859H123.351V39.7831ZM121.823 39.6085H123.18V38.2553H121.823V39.6085Z" fill="#EBEBEB"/>
<path d="M123.266 50.4238H121.738V51.9516H123.266V50.4238Z" fill="white"/>
<path d="M123.351 52.0368H121.652V50.3379H123.351V52.0368ZM121.823 51.8622H123.18V50.5055H121.823V51.8622Z" fill="#EBEBEB"/>
<path d="M125.724 44.0164H125.524C124.954 42.2913 124.628 41.5928 123.669 41.5928H123.542V48.5317H124.438V48.7517H120.596V48.53H121.492V41.5928H121.356C120.395 41.5928 120.037 42.3838 119.498 44.0181H119.299L119.404 41.3711H125.627L125.724 44.0164Z" fill="#EBEBEB"/>
<path d="M20.8616 83.2887C20.9228 83.3492 20.9646 83.4264 20.9818 83.5107C20.999 83.595 20.9909 83.6825 20.9583 83.7621C20.9258 83.8417 20.8704 83.9099 20.7991 83.9581C20.7278 84.0062 20.6438 84.0321 20.5578 84.0325C20.4399 84.0339 20.3259 83.9894 20.24 83.9085L18.3037 81.9424C18.2949 81.9393 18.287 81.934 18.2809 81.9269C18.2748 81.9199 18.2706 81.9114 18.2687 81.9023C18.2624 81.8968 18.2553 81.8921 18.2478 81.8883C18.2391 81.8706 18.2326 81.8518 18.2286 81.8324C18.223 81.8299 18.2182 81.826 18.2146 81.8211C18.2109 81.8162 18.2085 81.8105 18.2076 81.8045C18.2076 81.7905 18.2076 81.7713 18.1937 81.7643C18.1797 81.7574 18.1797 81.7364 18.1797 81.7294V81.6805C18.1797 81.6666 18.1797 81.6596 18.1797 81.6386C18.1797 81.6177 18.1797 81.6124 18.1797 81.6054V81.5566C18.1797 81.5426 18.1937 81.5356 18.1937 81.5286C18.1937 81.5216 18.1937 81.4954 18.2076 81.4745C18.2216 81.4535 18.2076 81.4745 18.2076 81.4605C18.2076 81.4466 18.2286 81.4116 18.2408 81.3977C18.2408 81.394 18.2423 81.3904 18.2449 81.3878C18.2475 81.3852 18.2511 81.3837 18.2548 81.3837C18.2646 81.3647 18.279 81.3485 18.2967 81.3366L20.2348 79.3705C20.3186 79.2906 20.4299 79.2461 20.5456 79.2461C20.6613 79.2461 20.7726 79.2906 20.8564 79.3705C20.8971 79.4112 20.9294 79.4595 20.9514 79.5127C20.9735 79.5658 20.9848 79.6228 20.9848 79.6804C20.9848 79.738 20.9735 79.795 20.9514 79.8481C20.9294 79.9013 20.8971 79.9496 20.8564 79.9903L19.2203 81.6386L20.8616 83.2887Z" fill="#EBEBEB"/>
<path d="M22.6207 83.5097L24.3109 79.4937C24.3307 79.4475 24.3594 79.4056 24.3954 79.3705C24.4314 79.3353 24.4739 79.3076 24.5206 79.289C24.5674 79.2703 24.6173 79.2611 24.6676 79.2618C24.7179 79.2624 24.7675 79.273 24.8137 79.2929C24.9044 79.3324 24.9757 79.4062 25.012 79.4982C25.0483 79.5902 25.0467 79.6928 25.0076 79.7836L23.3174 83.8117C23.2871 83.8792 23.2381 83.9364 23.1762 83.9767C23.1142 84.0169 23.042 84.0385 22.9681 84.0387C22.9209 84.0394 22.8739 84.0305 22.8302 84.0125C22.7824 83.9946 22.7388 83.9671 22.7021 83.9316C22.6653 83.8962 22.6363 83.8536 22.6166 83.8064C22.597 83.7593 22.5872 83.7087 22.5879 83.6576C22.5886 83.6066 22.5998 83.5562 22.6207 83.5097Z" fill="#EBEBEB"/>
<path d="M28.3464 81.8875C28.3318 81.9049 28.3154 81.9207 28.2975 81.9346L26.3594 83.9007C26.3187 83.9415 26.2703 83.9739 26.2171 83.996C26.1639 84.0182 26.1068 84.0296 26.0492 84.0297C25.9915 84.0298 25.9345 84.0185 25.8812 83.9965C25.8279 83.9745 25.7795 83.9423 25.7386 83.9016C25.6978 83.8609 25.6654 83.8125 25.6433 83.7593C25.6212 83.7061 25.6097 83.649 25.6096 83.5914C25.6096 83.5338 25.6208 83.4767 25.6428 83.4234C25.6648 83.3701 25.6971 83.3217 25.7378 83.2808L27.3738 81.6308L25.7378 79.9825C25.6971 79.9418 25.6648 79.8935 25.6427 79.8403C25.6207 79.7872 25.6094 79.7302 25.6094 79.6726C25.6094 79.615 25.6207 79.558 25.6427 79.5049C25.6648 79.4517 25.6971 79.4034 25.7378 79.3627C25.8215 79.2828 25.9328 79.2383 26.0486 79.2383C26.1643 79.2383 26.2756 79.2828 26.3594 79.3627L28.2975 81.3287C28.3154 81.3427 28.3318 81.3585 28.3464 81.3759V81.3899C28.3594 81.4097 28.3705 81.4308 28.3796 81.4527C28.3796 81.4527 28.3796 81.4527 28.3796 81.4667C28.3845 81.4877 28.3915 81.5082 28.4005 81.5278C28.4005 81.5278 28.4005 81.5278 28.4005 81.5487V81.5976C28.4005 81.5976 28.4005 81.6256 28.4005 81.6308C28.4005 81.6361 28.4005 81.6588 28.4005 81.6657V81.7216C28.4005 81.7216 28.4005 81.7216 28.4005 81.7356C28.4005 81.7495 28.3866 81.7827 28.3796 81.7967C28.3726 81.8107 28.3796 81.7967 28.3796 81.8176C28.3796 81.8386 28.3604 81.8595 28.3464 81.8875Z" fill="#EBEBEB"/>
<path d="M18.1152 107.965L32.0436 107.949L45.972 107.942L73.827 107.93L101.682 107.942L115.61 107.947L129.539 107.965L115.61 107.982L101.682 107.987L73.827 108L45.972 107.987L32.0436 107.982L18.1152 107.965Z" fill="#263238"/>
<path d="M118.49 44.2461H28.8105V98.4859H118.49V44.2461Z" fill="white"/>
<path d="M118.49 98.4856L28.81 98.5519H28.7454V98.4856L28.7227 44.2475V44.1602H28.81L118.49 44.1951H118.54V44.2475L118.49 98.4856ZM118.49 98.4856L118.439 44.2475L118.49 44.2981L28.81 44.333L28.8973 44.2475L28.8746 98.4856L28.81 98.421L118.49 98.4856Z" fill="#C7C7C7"/>
<path d="M118.49 44.2461H28.8105V53.0829H118.49V44.2461Z" fill="black"/>
<path d="M34.3771 49.9883H32.5332V50.2956H34.3771V49.9883Z" fill="white"/>
<path d="M34.3771 51.3672H32.5332V51.6745H34.3771V51.3672Z" fill="white"/>
<path d="M34.3771 50.6875H32.5332V50.9948H34.3771V50.6875Z" fill="white"/>
<path opacity="0.1" d="M114.77 49.9629H97.4824V51.7037H114.77V49.9629Z" fill="black"/>
<path d="M114.77 49.9629H113.029V51.7037H114.77V49.9629Z" fill="white"/>
<path d="M114.451 51.3205L114.291 51.4427L113.987 51.0481L113.877 50.9049C113.899 50.896 113.92 50.8843 113.94 50.87C113.977 50.8419 114.006 50.8046 114.024 50.7617L114.139 50.9154L114.451 51.3205Z" fill="black"/>
<path d="M114.133 50.3932C114.082 50.3271 114.013 50.2769 113.934 50.2486C113.856 50.2203 113.771 50.215 113.689 50.2334C113.608 50.2518 113.533 50.2931 113.475 50.3525C113.416 50.4118 113.375 50.4867 113.358 50.5684C113.34 50.65 113.346 50.735 113.375 50.8133C113.404 50.8917 113.455 50.96 113.522 51.0104C113.588 51.0608 113.668 51.0911 113.751 51.0978C113.834 51.1044 113.918 51.0872 113.991 51.048C114.013 51.0368 114.033 51.024 114.053 51.0096C114.087 50.9826 114.118 50.9509 114.143 50.9153C114.198 50.8385 114.226 50.7465 114.224 50.6525C114.222 50.5586 114.19 50.4677 114.133 50.3932ZM113.944 50.8699C113.925 50.8842 113.904 50.896 113.881 50.9048C113.822 50.9294 113.756 50.9316 113.696 50.9109C113.635 50.8902 113.584 50.848 113.553 50.7924C113.521 50.7367 113.511 50.6714 113.524 50.6088C113.538 50.5462 113.573 50.4906 113.625 50.4526C113.679 50.4116 113.747 50.3932 113.814 50.4013C113.882 50.4095 113.943 50.4435 113.986 50.4962C114.008 50.5235 114.023 50.5547 114.032 50.5881C114.041 50.6215 114.044 50.6564 114.039 50.6907C114.035 50.725 114.023 50.7581 114.006 50.7879C113.988 50.8178 113.965 50.8439 113.937 50.8646L113.944 50.8699Z" fill="black"/>
<path d="M97.94 50.3047H97.8457V51.3611H97.94V50.3047Z" fill="white"/>
<path d="M49.6669 51.7617H41.209V49.9004H49.6669V51.7617ZM41.3836 51.5871H49.4923V50.075H41.3836V51.5871Z" fill="white"/>
<path d="M59.7705 51.7617H51.3125V49.9004H59.7705V51.7617ZM51.4871 51.5871H59.5958V50.075H51.4871V51.5871Z" fill="white"/>
<path opacity="0.1" d="M69.7872 49.9902H61.5039V51.6787H69.7872V49.9902Z" fill="black"/>
<path d="M79.9775 51.7637H71.5195V49.9023H79.9775V51.7637ZM71.6941 51.589H79.8029V50.077H71.6941V51.589Z" fill="white"/>
<path d="M90.081 51.7637H81.623V49.9023H90.081V51.7637ZM81.7977 51.589H89.9064V50.077H81.7977V51.589Z" fill="white"/>
<path d="M118.49 44.2461H28.8105V45.6499H118.49V44.2461Z" fill="#37474F"/>
<path d="M29.9289 44.9469C29.9289 45.0159 29.9084 45.0835 29.87 45.1409C29.8317 45.1983 29.7771 45.2431 29.7133 45.2695C29.6495 45.2959 29.5793 45.3028 29.5116 45.2894C29.4438 45.2759 29.3816 45.2426 29.3328 45.1938C29.2839 45.145 29.2507 45.0827 29.2372 45.015C29.2237 44.9473 29.2306 44.877 29.2571 44.8132C29.2835 44.7494 29.3282 44.6949 29.3857 44.6565C29.4431 44.6181 29.5106 44.5977 29.5797 44.5977C29.6723 44.5977 29.7611 44.6344 29.8266 44.6999C29.8921 44.7654 29.9289 44.8543 29.9289 44.9469Z" fill="#C7C7C7"/>
<path d="M31.3488 44.9469C31.3488 45.0159 31.3283 45.0835 31.29 45.1409C31.2516 45.1983 31.1971 45.2431 31.1332 45.2695C31.0694 45.2959 30.9992 45.3028 30.9315 45.2894C30.8637 45.2759 30.8015 45.2426 30.7527 45.1938C30.7038 45.145 30.6706 45.0827 30.6571 45.015C30.6436 44.9473 30.6505 44.877 30.677 44.8132C30.7034 44.7494 30.7482 44.6949 30.8056 44.6565C30.863 44.6181 30.9305 44.5977 30.9996 44.5977C31.0922 44.5977 31.181 44.6344 31.2465 44.6999C31.312 44.7654 31.3488 44.8543 31.3488 44.9469Z" fill="white"/>
<path d="M32.7687 44.9469C32.7687 45.0159 32.7483 45.0835 32.7099 45.1409C32.6715 45.1983 32.617 45.2431 32.5532 45.2695C32.4894 45.2959 32.4191 45.3028 32.3514 45.2894C32.2837 45.2759 32.2214 45.2426 32.1726 45.1938C32.1238 45.145 32.0905 45.0827 32.077 45.015C32.0635 44.9473 32.0705 44.877 32.0969 44.8132C32.1233 44.7494 32.1681 44.6949 32.2255 44.6565C32.2829 44.6181 32.3505 44.5977 32.4195 44.5977C32.5121 44.5977 32.601 44.6344 32.6665 44.6999C32.7319 44.7654 32.7687 44.8543 32.7687 44.9469Z" fill="black"/>
<path d="M118.489 53.084H116.949V98.487H118.489V53.084Z" fill="#DBDBDB"/>
<path d="M117.718 68.8303C117.669 68.8338 117.62 68.8276 117.573 68.8119C117.527 68.7962 117.483 68.7714 117.446 68.7389C117.409 68.7064 117.379 68.6669 117.357 68.6226C117.336 68.5784 117.323 68.5302 117.32 68.4811V53.6919C117.323 53.6428 117.336 53.5947 117.358 53.5506C117.38 53.5064 117.41 53.467 117.447 53.4346C117.484 53.4021 117.527 53.3773 117.573 53.3615C117.62 53.3457 117.669 53.3393 117.718 53.3426C117.768 53.3393 117.817 53.3457 117.863 53.3615C117.91 53.3773 117.953 53.4021 117.99 53.4346C118.027 53.467 118.057 53.5064 118.079 53.5506C118.101 53.5947 118.113 53.6428 118.117 53.6919V68.4811C118.114 68.5302 118.101 68.5784 118.079 68.6226C118.058 68.6669 118.028 68.7064 117.99 68.7389C117.953 68.7714 117.91 68.7962 117.864 68.8119C117.817 68.8276 117.768 68.8338 117.718 68.8303Z" fill="#A6A6A6"/>
<path d="M32.5664 55.2773V61.9316H39.2207V55.2773H32.5664ZM33.0693 61.4287V55.7802H38.7178V61.4287H33.0693Z" fill="#EBEBEB"/>
<path d="M65.1112 56.3945H61.8164V59.6876H65.1112V56.3945Z" fill="black"/>
<path d="M93.8827 56.3945H90.5879V59.6876H93.8827V56.3945Z" fill="black"/>
<path d="M35.5995 73.2461H32.3047V76.5392H35.5995V73.2461Z" fill="black"/>
<path d="M109.699 90.2285V96.8828H116.353V90.2285H109.699ZM110.202 96.3799V90.7314H115.851V96.3799H110.202Z" fill="#EBEBEB"/>
<path d="M45.4964 74.8926H33.9531V77.0507H45.4964V74.8926Z" fill="#455A64"/>
<path d="M65.6722 78.1172H33.9531V78.9239H65.6722V78.1172Z" fill="#DBDBDB"/>
<path d="M65.6722 79.8887H33.9531V80.6954H65.6722V79.8887Z" fill="#DBDBDB"/>
<path d="M65.6722 81.6641H33.9531V82.4707H65.6722V81.6641Z" fill="#DBDBDB"/>
<path d="M65.6722 83.4375H33.9531V84.2442H65.6722V83.4375Z" fill="#DBDBDB"/>
<path d="M65.6722 85.2148H33.9531V86.0215H65.6722V85.2148Z" fill="#DBDBDB"/>
<path d="M75.0042 58.041H63.4609V60.1992H75.0042V58.041Z" fill="#455A64"/>
<path d="M87.1778 61.6875H63.4609V62.4942H87.1778V61.6875Z" fill="#DBDBDB"/>
<path d="M87.1778 63.4609H63.4609V64.2676H87.1778V63.4609Z" fill="#DBDBDB"/>
<path d="M87.1778 65.2344H63.4609V66.0411H87.1778V65.2344Z" fill="#DBDBDB"/>
<path d="M87.1778 67.0117H63.4609V67.8184H87.1778V67.0117Z" fill="#DBDBDB"/>
<path d="M87.1778 69.3711H63.4609V70.1778H87.1778V69.3711Z" fill="#DBDBDB"/>
<path d="M87.1778 71.1465H63.4609V71.9532H87.1778V71.1465Z" fill="#DBDBDB"/>
<path d="M113.344 58.041H92.2344V60.2376H113.344V58.041Z" fill="#455A64"/>
<path d="M113.291 60.2578H92.293V94.6955H113.291V60.2578Z" fill="white"/>
<path d="M113.35 94.7504H92.2344V60.1992H113.35V94.7504ZM92.3514 94.6369H113.233V60.3127H92.3514V94.6369Z" fill="#DBDBDB"/>
<path d="M92.3463 94.7179L92.2363 94.6742L113.235 60.2383L113.343 60.2802L92.3463 94.7179Z" fill="#DBDBDB"/>
<path d="M113.235 94.7179L92.2363 60.2802L92.3463 60.2383L113.343 94.6742L113.235 94.7179Z" fill="#DBDBDB"/>
<path d="M49.7509 58.0801H24.5918V71.9142H49.7509V58.0801Z" fill="white"/>
<path d="M24.5547 71.9528V71.9178V58.0488H24.5879H49.7889V71.9528H49.747H24.5547ZM24.6333 58.1187V71.8812H49.7068V58.1169L24.6333 58.1187Z" fill="#DBDBDB"/>
<path d="M24.6348 58.1172C26.751 59.2259 28.8533 60.3609 30.9538 61.4958L37.2396 64.9164L43.494 68.3736L46.6108 70.1197L49.7135 71.8797L46.5479 70.2L43.3945 68.4976L37.1087 65.077L30.856 61.6181C28.7799 60.4587 26.6986 59.2975 24.6348 58.1172Z" fill="#DBDBDB"/>
<path d="M49.7126 58.1191C47.6505 59.2995 45.5727 60.4606 43.4931 61.6113L37.2387 65.0702L30.9529 68.4908L27.8099 70.188L24.6426 71.8677L27.7314 70.1164L30.8481 68.3703L37.1025 64.9131L43.3884 61.4925C45.4941 60.3628 47.5964 59.2279 49.7126 58.1191Z" fill="#DBDBDB"/>
<path d="M36.9082 91.6574V101.385H88.2443V91.6574H36.9082Z" fill="white"/>
<path d="M88.3293 91.6289V101.407H36.8203V91.6289H88.3293ZM88.1547 101.358V91.683H36.9862V101.358H88.1547Z" fill="black"/>
<path d="M88.274 101.36L88.2094 101.409L36.875 91.6815L36.9379 91.6309L88.274 101.36Z" fill="black"/>
<path d="M88.274 91.6815L36.9379 101.409L36.875 101.36L88.2094 91.6309L88.274 91.6815Z" fill="black"/>
<path d="M69.4269 86.0762H86.3848V75.2733H69.4269V86.0762Z" fill="black"/>
<path d="M68.704 87.0712H68.3984V86.7656H68.4857V86.9839H68.704V87.0712Z" fill="#263238"/>
<path d="M86.5712 87.0703H86.0474V86.9883H86.5712V87.0703ZM85.5236 87.0703H84.9998V86.9883H85.5236V87.0703ZM84.4759 87.0703H83.9521V86.9883H84.4759V87.0703ZM83.4283 87.0703H82.9045V86.9883H83.4283V87.0703ZM82.3807 87.0703H81.8568V86.9883H82.3807V87.0703ZM81.333 87.0703H80.8092V86.9883H81.333V87.0703ZM80.2854 87.0703H79.7616V86.9883H80.2854V87.0703ZM79.2377 87.0703H78.7139V86.9883H79.2377V87.0703ZM78.1901 87.0703H77.6663V86.9883H78.1901V87.0703ZM77.1425 87.0703H76.6186V86.9883H77.1425V87.0703ZM76.0948 87.0703H75.571V86.9883H76.0948V87.0703ZM75.0472 87.0703H74.5234V86.9883H75.0472V87.0703ZM73.9995 87.0703H73.4757V86.9883H73.9995V87.0703ZM72.9519 87.0703H72.4281V86.9883H72.9519V87.0703ZM71.9043 87.0703H71.3804V86.9883H71.9043V87.0703ZM70.8566 87.0703H70.3328V86.9883H70.8566V87.0703ZM69.809 87.0703H69.2852V86.9883H69.809V87.0703Z" fill="#263238"/>
<path d="M87.4091 87.0712H87.1035V86.9839H87.3218V86.7656H87.4091V87.0712Z" fill="#263238"/>
<path d="M87.4096 86.2381H87.3223V85.7143H87.4096V86.2381ZM87.4096 85.1782H87.3223V84.6544H87.4096V85.1782ZM87.4096 84.1184H87.3223V83.5946H87.4096V84.1184ZM87.4096 83.0603H87.3223V82.5364H87.4096V83.0603ZM87.4096 82.0004H87.3223V81.4766H87.4096V82.0004ZM87.4096 80.9405H87.3223V80.4167H87.4096V80.9405ZM87.4096 79.8807H87.3223V79.3568H87.4096V79.8807ZM87.4096 78.8208H87.3223V78.297H87.4096V78.8208ZM87.4096 77.7627H87.3223V77.2389H87.4096V77.7627ZM87.4096 76.7028H87.3223V76.179H87.4096V76.7028ZM87.4096 75.643H87.3223V75.1191H87.4096V75.643Z" fill="#263238"/>
<path d="M87.4091 74.5829H87.3218V74.3646H87.1035V74.2773H87.4091V74.5829Z" fill="#263238"/>
<path d="M86.5712 74.3646H86.0474V74.2773H86.5712V74.3646ZM85.5236 74.3646H84.9998V74.2773H85.5236V74.3646ZM84.4759 74.3646H83.9521V74.2773H84.4759V74.3646ZM83.4283 74.3646H82.9045V74.2773H83.4283V74.3646ZM82.3807 74.3646H81.8568V74.2773H82.3807V74.3646ZM81.333 74.3646H80.8092V74.2773H81.333V74.3646ZM80.2854 74.3646H79.7616V74.2773H80.2854V74.3646ZM79.2377 74.3646H78.7139V74.2773H79.2377V74.3646ZM78.1901 74.3646H77.6663V74.2773H78.1901V74.3646ZM77.1425 74.3646H76.6186V74.2773H77.1425V74.3646ZM76.0948 74.3646H75.571V74.2773H76.0948V74.3646ZM75.0472 74.3646H74.5234V74.2773H75.0472V74.3646ZM73.9995 74.3646H73.4757V74.2773H73.9995V74.3646ZM72.9519 74.3646H72.4281V74.2773H72.9519V74.3646ZM71.9043 74.3646H71.3804V74.2773H71.9043V74.3646ZM70.8566 74.3646H70.3328V74.2773H70.8566V74.3646ZM69.809 74.3646H69.2852V74.2773H69.809V74.3646Z" fill="#263238"/>
<path d="M68.4857 74.5829H68.3984V74.2773H68.704V74.3646H68.4857V74.5829Z" fill="#263238"/>
<path d="M68.4857 86.2361H68.3984V85.7123H68.4857V86.2361ZM68.4857 85.1763H68.3984V84.6525H68.4857V85.1763ZM68.4857 84.1164H68.3984V83.5926H68.4857V84.1164ZM68.4857 83.0583H68.3984V82.5345H68.4857V83.0583ZM68.4857 81.9984H68.3984V81.4746H68.4857V81.9984ZM68.4857 80.9386H68.3984V80.4148H68.4857V80.9386ZM68.4857 79.8787H68.3984V79.3549H68.4857V79.8787ZM68.4857 78.8188H68.3984V78.295H68.4857V78.8188ZM68.4857 77.7607H68.3984V77.2369H68.4857V77.7607ZM68.4857 76.7009H68.3984V76.177H68.4857V76.7009ZM68.4857 75.641H68.3984V75.1172H68.4857V75.641Z" fill="#263238"/>
<g opacity="0.1">
<path d="M75.0195 83.749H86.3829L80.7012 79.0469L75.0195 83.749Z" fill="white"/>
</g>
<path d="M69.4258 83.754H79.5023L74.4649 80.6914L69.4258 83.754Z" fill="black"/>
<g opacity="0.2">
<path d="M69.4238 83.754H79.5004L74.463 80.6914L69.4238 83.754Z" fill="white"/>
</g>
<path d="M86.3836 83.748H69.4258V86.0756H86.3836V83.748Z" fill="black"/>
<g opacity="0.2">
<path d="M86.3816 83.748H69.4238V86.0756H86.3816V83.748Z" fill="black"/>
</g>
<path opacity="0.1" d="M72.4492 79.793C73.3133 79.793 74.0137 79.0926 74.0137 78.2285C74.0137 77.3645 73.3133 76.6641 72.4492 76.6641C71.5852 76.6641 70.8848 77.3645 70.8848 78.2285C70.8848 79.0926 71.5852 79.793 72.4492 79.793Z" fill="black"/>
<path d="M68.9924 73.7695H67.8906V74.8713H68.9924V73.7695Z" fill="#263238"/>
<path d="M68.9924 86.4766H67.8906V87.5783H68.9924V86.4766Z" fill="#263238"/>
<path d="M68.8363 80.2812H68.0488V81.0687H68.8363V80.2812Z" fill="#263238"/>
<path d="M78.2992 73.9277H77.5117V74.7152H78.2992V73.9277Z" fill="#263238"/>
<path d="M78.2992 86.6367H77.5117V87.4242H78.2992V86.6367Z" fill="#263238"/>
<path d="M87.7621 80.2812H86.9746V81.0687H87.7621V80.2812Z" fill="#263238"/>
<path d="M87.9143 73.7695H86.8125V74.8713H87.9143V73.7695Z" fill="#263238"/>
<path d="M87.9143 86.4766H86.8125V87.5783H87.9143V86.4766Z" fill="#263238"/>
<path d="M89.5177 91.0983L90.3436 93.0906L89.5194 93.4311L88.6901 91.4266L87.3281 92.483V86.8711L91.2568 90.8399L89.5177 91.0983Z" fill="#263238"/>
<path d="M87.3747 86.1266C87.3146 86.012 87.2846 85.8841 87.2874 85.7547C87.2837 85.6253 87.3138 85.4971 87.3747 85.3828C87.4321 85.4984 87.462 85.6257 87.462 85.7547C87.462 85.8838 87.4321 86.0111 87.3747 86.1266Z" fill="#263238"/>
<path d="M86.7363 86.3908C86.6127 86.3525 86.501 86.2834 86.4115 86.19C86.3185 86.0999 86.249 85.9884 86.209 85.8652C86.3327 85.9031 86.4446 85.9722 86.5338 86.066C86.6272 86.1558 86.6968 86.2674 86.7363 86.3908Z" fill="#263238"/>
<path d="M86.4704 87.0328C86.3558 87.0929 86.2278 87.1229 86.0985 87.1201C85.969 87.1238 85.8408 87.0937 85.7266 87.0328C85.8412 86.9727 85.9691 86.9427 86.0985 86.9455C86.2277 86.9435 86.3555 86.9735 86.4704 87.0328Z" fill="#263238"/>
<path d="M86.7363 87.6738C86.6968 87.7972 86.6272 87.9088 86.5338 87.9986C86.4446 88.0924 86.3327 88.1616 86.209 88.1994C86.249 88.0762 86.3185 87.9647 86.4115 87.8746C86.501 87.7812 86.6127 87.7121 86.7363 87.6738Z" fill="#263238"/>
<path d="M88.2832 87.0328C88.3981 86.9735 88.5258 86.9435 88.6551 86.9455C88.7845 86.9427 88.9124 86.9727 89.027 87.0328C88.9127 87.0937 88.7846 87.1238 88.6551 87.1201C88.5258 87.1229 88.3978 87.0929 88.2832 87.0328Z" fill="#263238"/>
<path d="M88.0176 86.391C88.0584 86.2691 88.127 86.1584 88.2179 86.0675C88.3088 85.9766 88.4195 85.908 88.5414 85.8672C88.5005 85.9891 88.432 86.0998 88.3411 86.1907C88.2502 86.2816 88.1395 86.3501 88.0176 86.391Z" fill="#263238"/>
<defs>
<linearGradient id="paint0_linear_785_5639" x1="153.981" y1="4.55566" x2="-3.3842" y2="141.746" gradientUnits="userSpaceOnUse">
<stop offset="0.270407" stop-color="#2AB7CA"/>
<stop offset="0.66957" stop-color="#FFCD00"/>
</linearGradient>
</defs>
</svg>
