<svg width="145" height="145" viewBox="0 0 145 145" fill="none" xmlns="http://www.w3.org/2000/svg">
<g clip-path="url(#clip0_785_5641)">
<path d="M-6.19888e-06 72.5C-6.19888e-06 112.541 32.4594 145 72.5 145C112.541 145 145 112.541 145 72.5C145 32.4594 112.541 0 72.5 0C32.4594 0 -6.19888e-06 32.4594 -6.19888e-06 72.5Z" fill="url(#paint0_linear_785_5641)"/>
<path d="M136.18 108.531H139.086" stroke="#263238" stroke-width="0.260655" stroke-linecap="round" stroke-linejoin="round"/>
<path d="M0.0195312 108.531H134.727" stroke="#263238" stroke-width="0.260655" stroke-linecap="round" stroke-linejoin="round"/>
<g opacity="0.2">
<path d="M17.5038 64.3164C16.9607 64.3164 16.4298 64.4775 15.9782 64.7792C15.5267 65.0809 15.1747 65.5098 14.9668 66.0116C14.759 66.5134 14.7046 67.0655 14.8106 67.5982C14.9165 68.1308 15.1781 68.6201 15.5621 69.0042C15.9461 69.3882 16.4354 69.6498 16.9681 69.7557C17.5008 69.8617 18.0529 69.8073 18.5547 69.5994C19.0565 69.3916 19.4854 69.0396 19.7871 68.5881C20.0888 68.1365 20.2499 67.6056 20.2499 67.0624C20.2493 66.3343 19.9598 65.6362 19.445 65.1213C18.9301 64.6064 18.232 64.317 17.5038 64.3164ZM17.7841 68.7395V69.0031H17.317V68.7395C16.9019 68.6565 16.6944 68.341 16.6944 67.8491V67.6H17.2444V67.8865C17.2444 68.1438 17.3586 68.2372 17.5391 68.2372C17.7197 68.2372 17.8339 68.1438 17.8339 67.8865C17.8339 67.1413 16.7213 67.104 16.7213 66.0703C16.7213 65.5846 16.9289 65.2733 17.3212 65.1861V64.9142H17.7882V65.184C18.1909 65.267 18.3984 65.5763 18.3984 66.0682V66.1824H17.8671V66.0309C17.8671 65.7735 17.7633 65.6739 17.5827 65.6739C17.4021 65.6739 17.2984 65.7735 17.2984 66.0309C17.2984 66.776 18.4088 66.8134 18.4088 67.847C18.3984 68.341 18.1867 68.6503 17.7841 68.7395Z" stroke="black" stroke-width="0.260655" stroke-miterlimit="10"/>
<path d="M17.5026 63.2148C16.7414 63.2144 15.9972 63.4398 15.3641 63.8624C14.731 64.285 14.2374 64.8858 13.9459 65.589C13.6543 66.2921 13.5778 67.0659 13.726 67.8125C13.8743 68.5591 14.2406 69.245 14.7787 69.7834C15.3168 70.3218 16.0025 70.6885 16.749 70.8371C17.4956 70.9858 18.2694 70.9097 18.9727 70.6185C19.676 70.3273 20.2771 69.8341 20.7 69.2012C21.123 68.5683 21.3487 67.8242 21.3487 67.063C21.3487 66.0428 20.9436 65.0643 20.2223 64.3427C19.5011 63.6211 18.5228 63.2154 17.5026 63.2148ZM17.5026 70.2221C16.8773 70.2221 16.266 70.0367 15.7461 69.6892C15.2263 69.3418 14.8211 68.8479 14.5819 68.2702C14.3427 67.6924 14.2802 67.0567 14.4023 66.4435C14.5245 65.8302 14.8258 65.267 15.2681 64.8249C15.7104 64.3829 16.2738 64.082 16.8872 63.9603C17.5005 63.8385 18.1362 63.9014 18.7138 64.141C19.2914 64.3806 19.7849 64.7861 20.132 65.3062C20.4791 65.8263 20.6642 66.4377 20.6638 67.063C20.6627 67.9009 20.3292 68.7041 19.7365 69.2964C19.1439 69.8886 18.3405 70.2216 17.5026 70.2221Z" stroke="black" stroke-width="0.260655" stroke-miterlimit="10"/>
</g>
<g opacity="0.2">
<path d="M73.0826 36.375C72.3806 36.3746 71.6941 36.5824 71.1102 36.9722C70.5262 37.3619 70.071 37.9161 69.802 38.5646C69.5331 39.2131 69.4625 39.9268 69.5992 40.6155C69.7359 41.3041 70.0738 41.9367 70.5701 42.4333C71.0664 42.9299 71.6988 43.2681 72.3874 43.4052C73.0759 43.5424 73.7897 43.4722 74.4383 43.2036C75.087 42.935 75.6414 42.4801 76.0315 41.8964C76.4216 41.3127 76.6298 40.6264 76.6298 39.9243C76.6287 38.9837 76.2547 38.0818 75.5898 37.4165C74.9249 36.7512 74.0233 36.3766 73.0826 36.375ZM73.45 42.0871V42.4275H72.8481V42.0871C72.3209 41.9792 72.0531 41.5703 72.0531 40.9351V40.6134H72.7485V40.9829C72.7485 41.317 72.8958 41.4374 73.1304 41.4374C73.3649 41.4374 73.5102 41.317 73.5102 40.9829C73.5102 40.0198 72.0718 39.972 72.0718 38.6333C72.0718 38.0106 72.3333 37.5955 72.8481 37.4896V37.143H73.45V37.4896C73.9731 37.5975 74.2408 37.9981 74.2408 38.6333V38.7806H73.5434V38.5876C73.5434 38.2534 73.4106 38.1247 73.176 38.1247C72.9415 38.1247 72.8086 38.2534 72.8086 38.5876C72.8086 39.5507 74.247 39.5984 74.247 40.9351C74.247 41.5786 73.9731 41.9875 73.45 42.0871Z" stroke="black" stroke-width="0.260655" stroke-miterlimit="10"/>
<path d="M73.083 34.9512C72.0978 34.9512 71.1347 35.2433 70.3155 35.7907C69.4963 36.3381 68.8578 37.1161 68.4808 38.0263C68.1037 38.9366 68.0051 39.9382 68.1973 40.9045C68.3895 41.8708 68.8639 42.7584 69.5606 43.4551C70.2573 44.1517 71.1449 44.6262 72.1112 44.8184C73.0775 45.0106 74.0791 44.912 74.9894 44.5349C75.8996 44.1579 76.6776 43.5194 77.225 42.7002C77.7723 41.881 78.0645 40.9179 78.0645 39.9326C78.0645 38.6115 77.5397 37.3444 76.6055 36.4102C75.6713 35.476 74.4042 34.9512 73.083 34.9512ZM73.083 44.0112C72.2746 44.0116 71.4843 43.7723 70.8119 43.3235C70.1396 42.8746 69.6154 42.2365 69.3058 41.4898C68.9961 40.743 68.9149 39.9212 69.0724 39.1283C69.2298 38.3354 69.6189 37.607 70.1904 37.0352C70.7618 36.4634 71.49 36.074 72.2829 35.9161C73.0757 35.7583 73.8976 35.8391 74.6445 36.1484C75.3914 36.4576 76.0298 36.9814 76.4789 37.6536C76.9281 38.3257 77.1678 39.1159 77.1678 39.9243C77.1667 41.0075 76.7361 42.0461 75.9703 42.8123C75.2046 43.5784 74.1662 44.0096 73.083 44.0112Z" stroke="black" stroke-width="0.260655" stroke-miterlimit="10"/>
</g>
<g opacity="0.2">
<path d="M47.0066 25.0391C46.0022 25.0395 45.0204 25.3377 44.1854 25.896C43.3505 26.4544 42.6998 27.2478 42.3157 28.1759C41.9316 29.104 41.8313 30.1251 42.0275 31.1102C42.2237 32.0953 42.7076 33.0001 43.418 33.7102C44.1284 34.4203 45.0334 34.9039 46.0186 35.0997C47.0038 35.2955 48.0249 35.1948 48.9529 34.8103C49.8808 34.4258 50.6739 33.7748 51.2319 32.9396C51.7899 32.1044 52.0877 31.1225 52.0877 30.1181C52.0866 28.771 51.5509 27.4795 50.5982 26.5272C49.6455 25.5748 48.3537 25.0396 47.0066 25.0391ZM47.5235 33.2232V33.711H46.6621V33.2232C45.9066 33.0696 45.5226 32.4864 45.5226 31.5772V31.1165H46.5189V31.6437C46.5189 32.1231 46.7264 32.2954 47.0648 32.2954C47.4031 32.2954 47.6106 32.1231 47.6106 31.6437C47.6106 30.2655 45.5516 30.1907 45.5516 28.2832C45.5516 27.3824 45.9252 26.8075 46.6621 26.6456V26.1474H47.5235V26.6456C48.2707 26.7992 48.6526 27.3721 48.6526 28.2832V28.4908H47.6584V28.2147C47.6584 27.7374 47.4653 27.5547 47.1312 27.5547C46.797 27.5547 46.604 27.7374 46.604 28.2147C46.604 29.595 48.663 29.6677 48.663 31.5772C48.663 32.4864 48.2707 33.0696 47.5235 33.2232Z" stroke="black" stroke-width="0.260655" stroke-miterlimit="10"/>
<path d="M47.0079 23C45.5999 23.0004 44.2237 23.4183 43.0532 24.2008C41.8827 24.9834 40.9705 26.0954 40.432 27.3963C39.8934 28.6973 39.7527 30.1287 40.0277 31.5095C40.3026 32.8904 40.9808 34.1588 41.9766 35.1542C42.9723 36.1497 44.2409 36.8275 45.6218 37.1021C47.0028 37.3766 48.4341 37.2355 49.7349 36.6966C51.0357 36.1577 52.1475 35.2452 52.9296 34.0744C53.7118 32.9037 54.1293 31.5273 54.1293 30.1193C54.1293 29.1842 53.9451 28.2583 53.5872 27.3944C53.2293 26.5305 52.7047 25.7456 52.0434 25.0845C51.3821 24.4234 50.597 23.899 49.733 23.5413C48.869 23.1837 47.943 22.9997 47.0079 23ZM47.0079 35.9684C45.8511 35.9684 44.7202 35.6254 43.7583 34.9827C42.7965 34.34 42.0468 33.4265 41.6041 32.3577C41.1614 31.2889 41.0455 30.1129 41.2712 28.9783C41.4969 27.8436 42.054 26.8014 42.872 25.9834C43.69 25.1654 44.7322 24.6084 45.8668 24.3827C47.0014 24.157 48.1775 24.2728 49.2462 24.7155C50.315 25.1582 51.2285 25.9079 51.8712 26.8698C52.5139 27.8317 52.857 28.9625 52.857 30.1193C52.8553 31.6701 52.2386 33.1569 51.142 34.2535C50.0454 35.35 48.5587 35.9668 47.0079 35.9684Z" stroke="black" stroke-width="0.260655" stroke-miterlimit="10"/>
</g>
<g opacity="0.2">
<path d="M98.6459 32.627H96.5703V37.4009H98.6459V32.627Z" stroke="black" stroke-width="0.260655" stroke-miterlimit="10"/>
<path d="M101.341 29.7852H99.2656V37.4027H101.341V29.7852Z" stroke="black" stroke-width="0.260655" stroke-miterlimit="10"/>
<path d="M104.044 30.793H101.969V37.3996H104.044V30.793Z" stroke="black" stroke-width="0.260655" stroke-miterlimit="10"/>
<path d="M106.74 29.1523H104.664V37.4029H106.74V29.1523Z" stroke="black" stroke-width="0.260655" stroke-miterlimit="10"/>
<path d="M100.248 27.8128L102.664 30.2267L105.813 27.8834L106.319 27.0012L106.857 27.3126L106.855 25.6562L105.423 26.4865L105.96 26.7958L105.495 27.6011L102.703 29.6809L100.188 27.1652L97.2031 31.5427L97.5456 31.7772L100.248 27.8128Z" stroke="black" stroke-width="0.260655" stroke-miterlimit="10"/>
</g>
<g opacity="0.2">
<path d="M12.1763 35.8164H10.4141V39.868H12.1763V35.8164Z" stroke="black" stroke-width="0.260655" stroke-miterlimit="10"/>
<path d="M14.4692 33.4062H12.707V39.8739H14.4692V33.4062Z" stroke="black" stroke-width="0.260655" stroke-miterlimit="10"/>
<path d="M16.7622 34.2617H15V39.87H16.7622V34.2617Z" stroke="black" stroke-width="0.260655" stroke-miterlimit="10"/>
<path d="M19.0513 32.8711H17.2891V39.8742H19.0513V32.8711Z" stroke="black" stroke-width="0.260655" stroke-miterlimit="10"/>
<path d="M13.5393 31.735L15.588 33.7836L18.2614 31.7931L18.691 31.0459L19.1476 31.3095L19.1456 29.9043L17.9293 30.6079L18.3859 30.8695L17.9915 31.5544L15.6212 33.3187L13.4874 31.185L10.9531 34.9003L11.2437 35.0996L13.5393 31.735Z" stroke="black" stroke-width="0.260655" stroke-miterlimit="10"/>
</g>
<g opacity="0.2">
<path d="M122.896 66.457H119.727V73.7445H122.896V66.457Z" stroke="black" stroke-width="0.260655" stroke-miterlimit="10"/>
<path d="M127.013 62.1172H123.844V73.7468H127.013V62.1172Z" stroke="black" stroke-width="0.260655" stroke-miterlimit="10"/>
<path d="M131.138 63.6602H127.969V73.7456H131.138V63.6602Z" stroke="black" stroke-width="0.260655" stroke-miterlimit="10"/>
<path d="M135.255 61.1523H132.086V73.7451H135.255V61.1523Z" stroke="black" stroke-width="0.260655" stroke-miterlimit="10"/>
<path d="M125.337 59.1083L129.023 62.7925L133.83 59.2142L134.602 57.8692L135.424 58.3424L135.42 55.8164L133.235 57.0825L134.054 57.5537L133.347 58.7845L129.083 61.9581L125.246 58.1183L120.688 64.8017L121.211 65.1587L125.337 59.1083Z" stroke="black" stroke-width="0.260655" stroke-miterlimit="10"/>
</g>
<path d="M30.3199 42.2344H120.175C120.522 42.2344 120.866 42.3028 121.187 42.4357C121.508 42.5686 121.799 42.7633 122.045 43.0089C122.291 43.2544 122.485 43.5459 122.618 43.8668C122.751 44.1876 122.82 44.5314 122.82 44.8787V103.986H27.6797V44.8766C27.6802 44.1764 27.9585 43.505 28.4535 43.0096C28.9484 42.5143 29.6196 42.2355 30.3199 42.2344Z" fill="#263238" stroke="#263238" stroke-width="0.260655" stroke-linecap="round" stroke-linejoin="round"/>
<path d="M108.157 101.012H42.7734V104.233H108.157V101.012Z" fill="#263238" stroke="#263238" stroke-width="0.260655" stroke-linecap="round" stroke-linejoin="round"/>
<path d="M108.157 102.562H42.7734V104.233H108.157V102.562Z" fill="white" stroke="#263238" stroke-width="0.260655" stroke-linecap="round" stroke-linejoin="round"/>
<path d="M19.9844 106.143C19.9844 106.143 21.0595 107.454 24.2809 108.53H126.652C126.652 108.53 129.039 107.932 130.112 106.261L19.9844 106.143Z" fill="#263238" stroke="#263238" stroke-width="0.260655" stroke-linecap="round" stroke-linejoin="round"/>
<path d="M129.541 103.793H20.5668C20.1243 103.793 19.7656 104.152 19.7656 104.594V105.501C19.7656 105.944 20.1243 106.302 20.5668 106.302H129.541C129.983 106.302 130.342 105.944 130.342 105.501V104.594C130.342 104.152 129.983 103.793 129.541 103.793Z" fill="white" stroke="#263238" stroke-width="0.260655" stroke-linecap="round" stroke-linejoin="round"/>
<path d="M76.0628 44.1017C76.0628 43.9375 76.0141 43.777 75.9229 43.6405C75.8317 43.5039 75.702 43.3975 75.5503 43.3347C75.3986 43.2718 75.2317 43.2554 75.0706 43.2874C74.9096 43.3195 74.7616 43.3985 74.6455 43.5147C74.5294 43.6308 74.4503 43.7787 74.4183 43.9398C74.3863 44.1008 74.4027 44.2677 74.4655 44.4194C74.5284 44.5712 74.6348 44.7008 74.7713 44.7921C74.9079 44.8833 75.0684 44.932 75.2326 44.932C75.4528 44.932 75.664 44.8445 75.8197 44.6888C75.9754 44.5331 76.0628 44.3219 76.0628 44.1017Z" fill="#263238"/>
<path d="M28.5746 59.6104C28.5113 59.6104 28.4506 59.5852 28.4059 59.5405C28.3611 59.4957 28.3359 59.435 28.3359 59.3717V52.4516C28.3365 52.3884 28.3618 52.3281 28.4065 52.2834C28.4511 52.2388 28.5115 52.2134 28.5746 52.2129C28.6379 52.2129 28.6987 52.238 28.7434 52.2828C28.7882 52.3276 28.8133 52.3883 28.8133 52.4516V59.3717C28.8136 59.4031 28.8076 59.4343 28.7957 59.4634C28.7838 59.4924 28.7663 59.5189 28.744 59.5411C28.7218 59.5633 28.6954 59.5809 28.6663 59.5928C28.6372 59.6047 28.6061 59.6106 28.5746 59.6104Z" fill="#263238" stroke="white" stroke-width="0.180292" stroke-linejoin="round"/>
<path d="M118.954 47.0586H31.5352V96.4602H118.954V47.0586Z" fill="white" stroke="#263238" stroke-width="0.260655" stroke-linecap="round" stroke-linejoin="round"/>
<path d="M118.954 47.0586H46.0625V49.9811H118.954V47.0586Z" fill="black" stroke="#263238" stroke-width="0.260655" stroke-linecap="round" stroke-linejoin="round"/>
<path d="M35.1367 77.6211H95.6616" stroke="#CCCCCC" stroke-width="0.260655" stroke-linecap="round" stroke-linejoin="round"/>
<path d="M35.1367 76.373H95.6616" stroke="#CCCCCC" stroke-width="0.260655" stroke-linecap="round" stroke-linejoin="round"/>
<path d="M35.1367 75.125H95.6616" stroke="#CCCCCC" stroke-width="0.260655" stroke-linecap="round" stroke-linejoin="round"/>
<path d="M35.1367 73.8789H95.6616" stroke="#CCCCCC" stroke-width="0.260655" stroke-linecap="round" stroke-linejoin="round"/>
<path d="M35.1367 72.623H95.6616" stroke="#CCCCCC" stroke-width="0.260655" stroke-linecap="round" stroke-linejoin="round"/>
<path d="M35.1367 71.375H95.6616" stroke="#CCCCCC" stroke-width="0.260655" stroke-linecap="round" stroke-linejoin="round"/>
<path d="M35.1367 70.127H95.6616" stroke="#CCCCCC" stroke-width="0.260655" stroke-linecap="round" stroke-linejoin="round"/>
<path d="M35.1367 68.8789H95.6616" stroke="#CCCCCC" stroke-width="0.260655" stroke-linecap="round" stroke-linejoin="round"/>
<path d="M35.1367 67.625H95.6616" stroke="#CCCCCC" stroke-width="0.260655" stroke-linecap="round" stroke-linejoin="round"/>
<path d="M35.1367 66.377H95.6616" stroke="#CCCCCC" stroke-width="0.260655" stroke-linecap="round" stroke-linejoin="round"/>
<path d="M35.1367 65.1289H95.6616" stroke="#CCCCCC" stroke-width="0.260655" stroke-linecap="round" stroke-linejoin="round"/>
<path d="M35.1367 63.8809H95.6616" stroke="#CCCCCC" stroke-width="0.260655" stroke-linecap="round" stroke-linejoin="round"/>
<path d="M35.1367 62.6309H95.6616" stroke="#CCCCCC" stroke-width="0.260655" stroke-linecap="round" stroke-linejoin="round"/>
<path d="M35.1367 61.3789H95.6616" stroke="#CCCCCC" stroke-width="0.260655" stroke-linecap="round" stroke-linejoin="round"/>
<path d="M35.1367 60.1289H95.6616" stroke="#CCCCCC" stroke-width="0.260655" stroke-linecap="round" stroke-linejoin="round"/>
<path d="M35.1367 58.8848H95.6616" stroke="#CCCCCC" stroke-width="0.260655" stroke-linecap="round" stroke-linejoin="round"/>
<path d="M39.5787 57.4961H37.2188V77.4863H39.5787V57.4961Z" fill="black"/>
<path d="M42.7037 68.3242H40.3438V77.486H42.7037V68.3242Z" fill="black"/>
<path d="M45.8248 69.9883H43.4648V77.4854H45.8248V69.9883Z" fill="black"/>
<path d="M48.9537 60.4102H46.5938V77.4841H48.9537V60.4102Z" fill="black"/>
<path d="M52.0709 68.8789H49.7109V77.4865H52.0709V68.8789Z" fill="black"/>
<path d="M55.1959 64.9902H52.8359V77.4833H55.1959V64.9902Z" fill="black"/>
<path d="M58.3209 60.1289H55.9609V77.481H58.3209V60.1289Z" fill="black"/>
<path d="M61.4459 54.8555H59.0859V77.4838H61.4459V54.8555Z" fill="black"/>
<path d="M64.567 65.6836H62.207V77.4834H64.567V65.6836Z" fill="black"/>
<path d="M67.692 70.6816H65.332V77.4834H67.692V70.6816Z" fill="black"/>
<path d="M70.8131 73.4609H68.4531V77.4876H70.8131V73.4609Z" fill="black"/>
<path d="M73.9342 70.2656H71.5742V77.4846H73.9342V70.2656Z" fill="black"/>
<path d="M77.0592 63.3262H74.6992V77.486H77.0592V63.3262Z" fill="black"/>
<path d="M80.1803 74.9863H77.8203V77.4854H80.1803V74.9863Z" fill="black"/>
<path d="M83.3053 69.9883H80.9453V77.4854H83.3053V69.9883Z" fill="black"/>
<path d="M86.4342 73.3242H84.0742V77.4879H86.4342V73.3242Z" fill="black"/>
<path d="M89.5553 54.9941H87.1953V77.4834H89.5553V54.9941Z" fill="black"/>
<path d="M92.6764 58.8828H90.3164V77.4844H92.6764V58.8828Z" fill="black"/>
<path d="M36.0577 52.1364V51.9434H36.394V52.1364C36.6845 52.1966 36.834 52.4208 36.834 52.7736V52.8566H36.4458V52.7487C36.4458 52.5619 36.3711 52.4913 36.2383 52.4913C36.1054 52.4913 36.0307 52.5619 36.0307 52.7487C36.0307 53.2842 36.8298 53.3112 36.8298 54.0563C36.8298 54.4092 36.6783 54.6375 36.3877 54.6956V54.8866H36.0515V54.6956C35.7588 54.6375 35.6094 54.4092 35.6094 54.0563V53.8758H35.9954V54.0833C35.9954 54.2701 36.0785 54.3365 36.203 54.3365C36.3275 54.3365 36.4106 54.2701 36.4106 54.0833C36.4106 53.5478 35.6094 53.5208 35.6094 52.7757C35.626 52.4249 35.7713 52.2007 36.0577 52.1364Z" fill="#263238"/>
<path d="M37.7072 52.4653C37.5764 52.4653 37.4996 52.5359 37.4996 52.7227V53.0008H37.1114V52.7476C37.1114 52.3324 37.319 52.0938 37.7217 52.0938C38.1243 52.0938 38.334 52.3304 38.334 52.7476C38.334 53.5674 37.5183 53.8725 37.5183 54.3022C37.5172 54.3209 37.5172 54.3396 37.5183 54.3582H38.2945V54.7298H37.1094V54.4101C37.1094 53.6422 37.9209 53.5155 37.9209 52.7642C37.9189 52.5172 37.8379 52.4653 37.7072 52.4653Z" fill="#263238"/>
<path d="M38.5469 52.7358C38.5469 52.3207 38.7669 52.082 39.1696 52.082C39.5722 52.082 39.7922 52.3186 39.7922 52.7358V54.0933C39.7922 54.5084 39.5722 54.7471 39.1696 54.7471C38.7669 54.7471 38.5469 54.5084 38.5469 54.0933V52.7358ZM38.962 54.1182C38.962 54.305 39.0429 54.3756 39.1696 54.3756C39.2962 54.3756 39.3771 54.305 39.3771 54.1182V52.7109C39.3771 52.5241 39.2962 52.4536 39.1696 52.4536C39.0429 52.4536 38.962 52.5241 38.962 52.7109V54.1182Z" fill="#263238"/>
<path d="M40.453 54.332V54.7264H40.0586V54.332H40.453Z" fill="#263238"/>
<path d="M41.5395 52.7525C41.5395 52.5158 41.4564 52.4536 41.3319 52.4536C41.2074 52.4536 41.1243 52.5241 41.1243 52.7109V52.8791H40.7383V52.7358C40.7383 52.3207 40.9458 52.082 41.3485 52.082C41.7512 52.082 41.9587 52.3186 41.9587 52.7358V52.8043C41.9587 53.0825 41.8695 53.2589 41.6723 53.3399C41.7715 53.3896 41.8525 53.4693 41.9039 53.5677C41.9553 53.666 41.9745 53.778 41.9587 53.8878V54.0954C41.9587 54.5105 41.7512 54.7492 41.3485 54.7492C40.9458 54.7492 40.7383 54.5105 40.7383 54.0954V53.8878H41.1119V54.1244C41.1119 54.3112 41.1949 54.3818 41.3195 54.3818C41.444 54.3818 41.527 54.3175 41.527 54.0871V53.8795C41.527 53.6387 41.444 53.5495 41.2593 53.5495H41.1202V53.1759H41.28C41.4336 53.1759 41.527 53.1095 41.527 52.9019L41.5395 52.7525Z" fill="#263238"/>
<path d="M42.1974 52.7587C42.1974 52.3186 42.405 52.082 42.8201 52.082C43.2352 52.082 43.4303 52.3186 43.4303 52.7358V52.8043H43.0422V52.7109C43.0422 52.5241 42.9612 52.4536 42.8346 52.4536C42.708 52.4536 42.6063 52.5241 42.6063 52.7732V53.2506C42.639 53.178 42.6931 53.117 42.7613 53.0758C42.8295 53.0347 42.9087 53.0153 42.9882 53.0202C43.2892 53.0202 43.4407 53.2278 43.4407 53.6159V54.0933C43.4407 54.5084 43.2227 54.7471 42.818 54.7471C42.4133 54.7471 42.1953 54.5084 42.1953 54.0933L42.1974 52.7587ZM42.6125 53.6491V54.1244C42.6125 54.3112 42.6955 54.3777 42.8201 54.3777C42.9446 54.3777 43.0276 54.3112 43.0276 54.1244V53.6553C43.0276 53.4685 42.9467 53.398 42.8201 53.398C42.6935 53.398 42.6063 53.4623 42.6063 53.6491H42.6125Z" fill="#263238"/>
<path d="M44.2843 54.7498C44.1969 54.7585 44.1087 54.7475 44.0261 54.7175C43.9436 54.6875 43.8688 54.6394 43.8074 54.5766C43.746 54.5138 43.6996 54.438 43.6714 54.3548C43.6433 54.2716 43.6343 54.1831 43.645 54.096V53.8884C43.6328 53.7832 43.65 53.6767 43.6947 53.5807C43.7394 53.4847 43.8099 53.403 43.8982 53.3446C43.8102 53.2905 43.7395 53.2122 43.6946 53.1192C43.6497 53.0261 43.6325 52.922 43.645 52.8195V52.7364C43.64 52.6493 43.6529 52.562 43.6829 52.48C43.7128 52.398 43.7591 52.323 43.8191 52.2595C43.879 52.1961 43.9513 52.1455 44.0315 52.111C44.1117 52.0764 44.198 52.0586 44.2853 52.0586C44.3726 52.0586 44.459 52.0764 44.5392 52.111C44.6193 52.1455 44.6916 52.1961 44.7516 52.2595C44.8115 52.323 44.8579 52.398 44.8878 52.48C44.9177 52.562 44.9306 52.6493 44.9257 52.7364V52.8195C44.9374 52.922 44.9198 53.0257 44.875 53.1187C44.8302 53.2116 44.76 53.2899 44.6724 53.3446C44.7608 53.403 44.8312 53.4847 44.8759 53.5807C44.9206 53.6767 44.9378 53.7832 44.9257 53.8884V54.096C44.936 54.1832 44.9267 54.2717 44.8983 54.3549C44.8699 54.4381 44.8232 54.5138 44.7617 54.5766C44.7001 54.6393 44.6253 54.6875 44.5427 54.7174C44.46 54.7474 44.3718 54.7585 44.2843 54.7498ZM44.0539 52.9004C44.0539 53.108 44.1514 53.1744 44.2843 53.1744C44.4171 53.1744 44.5168 53.108 44.5168 52.9004V52.7551C44.5168 52.5185 44.4151 52.4562 44.2843 52.4562C44.1535 52.4562 44.0539 52.5185 44.0539 52.7551V52.9004ZM44.2843 54.3782C44.4151 54.3782 44.5126 54.3139 44.5168 54.0835V53.8407C44.5168 53.6331 44.4296 53.548 44.2843 53.548C44.139 53.548 44.0539 53.6372 44.0539 53.8407V54.0835C44.0539 54.3139 44.1556 54.3782 44.2843 54.3782Z" fill="#263238"/>
<path d="M45.1719 54.7181V54.332H45.5683V54.6849L45.3877 55.1H45.2217L45.3296 54.7285L45.1719 54.7181Z" fill="#263238"/>
<path d="M46.467 52.4653C46.3363 52.4653 46.2595 52.5359 46.2595 52.7227V53.0008H45.8672V52.7476C45.8672 52.3324 46.0747 52.0938 46.4774 52.0938C46.8801 52.0938 47.1001 52.3304 47.1001 52.7476C47.1001 53.5674 46.2844 53.8725 46.2844 54.3022C46.2834 54.3209 46.2834 54.3396 46.2844 54.3582H47.0607V54.7298H45.8672V54.4101C45.8672 53.6422 46.6788 53.5155 46.6788 52.7642C46.6788 52.5172 46.5978 52.4653 46.467 52.4653Z" fill="#263238"/>
<path d="M48.1319 52.7525C48.1319 52.5158 48.0489 52.4536 47.9243 52.4536C47.7998 52.4536 47.7168 52.5241 47.7168 52.7109V52.8791H47.3203V52.7358C47.3203 52.3207 47.5279 52.082 47.9305 52.082C48.3332 52.082 48.5408 52.3186 48.5408 52.7358V52.8043C48.5408 53.0825 48.4515 53.2589 48.2543 53.3399C48.3535 53.3896 48.4345 53.4693 48.4859 53.5677C48.5373 53.666 48.5565 53.778 48.5408 53.8878V54.0954C48.5408 54.5105 48.3332 54.7492 47.9305 54.7492C47.5279 54.7492 47.3203 54.5105 47.3203 54.0954V53.8878H47.7064V54.1244C47.7064 54.3112 47.7894 54.3818 47.9139 54.3818C48.0385 54.3818 48.1215 54.3175 48.1215 54.0871V53.8795C48.1215 53.6387 48.0385 53.5495 47.8537 53.5495H47.7147V53.1759H47.8745C48.0281 53.1759 48.1215 53.1095 48.1215 52.9019L48.1319 52.7525Z" fill="#263238"/>
<path d="M116.354 52.4492H97.0234V77.5641H116.354V52.4492Z" fill="#263238"/>
<path d="M100.371 53.9883H102.93" stroke="#757575" stroke-width="0.260655" stroke-miterlimit="10"/>
<path d="M104.375 53.9883H106.934" stroke="#757575" stroke-width="0.260655" stroke-miterlimit="10"/>
<path d="M108.371 53.9883H110.93" stroke="#757575" stroke-width="0.260655" stroke-miterlimit="10"/>
<path d="M112.371 53.9883H114.93" stroke="#757575" stroke-width="0.260655" stroke-miterlimit="10"/>
<path d="M103.664 52.8242V77.2168" stroke="white" stroke-width="0.260655" stroke-miterlimit="10"/>
<path d="M99.6562 52.8242V77.2168" stroke="white" stroke-width="0.260655" stroke-miterlimit="10"/>
<path d="M107.734 52.8242V77.2168" stroke="white" stroke-width="0.260655" stroke-miterlimit="10"/>
<path d="M111.797 52.8242V77.2168" stroke="white" stroke-width="0.260655" stroke-miterlimit="10"/>
<path d="M98.4847 53.4922L98.0156 54.3079H98.9559L98.4847 53.4922Z" fill="white"/>
<path d="M100.371 55.8809H102.93" stroke="#757575" stroke-width="0.260655" stroke-miterlimit="10"/>
<path d="M104.375 55.8809H106.934" stroke="#757575" stroke-width="0.260655" stroke-miterlimit="10"/>
<path d="M108.371 55.8809H110.93" stroke="#757575" stroke-width="0.260655" stroke-miterlimit="10"/>
<path d="M112.371 55.8809H114.93" stroke="#757575" stroke-width="0.260655" stroke-miterlimit="10"/>
<path d="M98.4847 56.2024L98.9559 55.3867H98.0156L98.4847 56.2024Z" fill="black"/>
<path d="M100.371 57.7676H102.93" stroke="#757575" stroke-width="0.260655" stroke-miterlimit="10"/>
<path d="M104.375 57.7676H106.934" stroke="#757575" stroke-width="0.260655" stroke-miterlimit="10"/>
<path d="M108.371 57.7676H110.93" stroke="#757575" stroke-width="0.260655" stroke-miterlimit="10"/>
<path d="M112.371 57.7676H114.93" stroke="#757575" stroke-width="0.260655" stroke-miterlimit="10"/>
<path d="M98.4847 57.2734L98.0156 58.0892H98.9559L98.4847 57.2734Z" fill="white"/>
<path d="M100.371 59.6602H102.93" stroke="#757575" stroke-width="0.260655" stroke-miterlimit="10"/>
<path d="M104.375 59.6602H106.934" stroke="#757575" stroke-width="0.260655" stroke-miterlimit="10"/>
<path d="M108.371 59.6602H110.93" stroke="#757575" stroke-width="0.260655" stroke-miterlimit="10"/>
<path d="M112.371 59.6602H114.93" stroke="#757575" stroke-width="0.260655" stroke-miterlimit="10"/>
<path d="M98.4847 59.9816L98.9559 59.168H98.0156L98.4847 59.9816Z" fill="black"/>
<path d="M100.371 61.5547H102.93" stroke="#757575" stroke-width="0.260655" stroke-miterlimit="10"/>
<path d="M104.375 61.5547H106.934" stroke="#757575" stroke-width="0.260655" stroke-miterlimit="10"/>
<path d="M108.371 61.5547H110.93" stroke="#757575" stroke-width="0.260655" stroke-miterlimit="10"/>
<path d="M112.371 61.5547H114.93" stroke="#757575" stroke-width="0.260655" stroke-miterlimit="10"/>
<path d="M98.4847 61.8722L98.9559 61.0586H98.0156L98.4847 61.8722Z" fill="black"/>
<path d="M100.371 63.4414H102.93" stroke="#757575" stroke-width="0.260655" stroke-miterlimit="10"/>
<path d="M104.375 63.4414H106.934" stroke="#757575" stroke-width="0.260655" stroke-miterlimit="10"/>
<path d="M108.371 63.4414H110.93" stroke="#757575" stroke-width="0.260655" stroke-miterlimit="10"/>
<path d="M112.371 63.4414H114.93" stroke="#757575" stroke-width="0.260655" stroke-miterlimit="10"/>
<path d="M98.4847 63.7609L98.9559 62.9473H98.0156L98.4847 63.7609Z" fill="black"/>
<path d="M100.371 65.3359H102.93" stroke="#757575" stroke-width="0.260655" stroke-miterlimit="10"/>
<path d="M104.375 65.3359H106.934" stroke="#757575" stroke-width="0.260655" stroke-miterlimit="10"/>
<path d="M108.371 65.3359H110.93" stroke="#757575" stroke-width="0.260655" stroke-miterlimit="10"/>
<path d="M112.371 65.3359H114.93" stroke="#757575" stroke-width="0.260655" stroke-miterlimit="10"/>
<path d="M98.4847 64.8379L98.0156 65.6536H98.9559L98.4847 64.8379Z" fill="white"/>
<path d="M100.371 67.2227H102.93" stroke="#757575" stroke-width="0.260655" stroke-miterlimit="10"/>
<path d="M104.375 67.2227H106.934" stroke="#757575" stroke-width="0.260655" stroke-miterlimit="10"/>
<path d="M108.371 67.2227H110.93" stroke="#757575" stroke-width="0.260655" stroke-miterlimit="10"/>
<path d="M112.371 67.2227H114.93" stroke="#757575" stroke-width="0.260655" stroke-miterlimit="10"/>
<path d="M98.4847 66.7266L98.0156 67.5423H98.9559L98.4847 66.7266Z" fill="white"/>
<path d="M100.371 69.1133H102.93" stroke="#757575" stroke-width="0.260655" stroke-miterlimit="10"/>
<path d="M104.375 69.1133H106.934" stroke="#757575" stroke-width="0.260655" stroke-miterlimit="10"/>
<path d="M108.371 69.1133H110.93" stroke="#757575" stroke-width="0.260655" stroke-miterlimit="10"/>
<path d="M112.371 69.1133H114.93" stroke="#757575" stroke-width="0.260655" stroke-miterlimit="10"/>
<path d="M98.4847 69.4349L98.9559 68.6191H98.0156L98.4847 69.4349Z" fill="black"/>
<path d="M100.371 71.002H102.93" stroke="#757575" stroke-width="0.260655" stroke-miterlimit="10"/>
<path d="M104.375 71.002H106.934" stroke="#757575" stroke-width="0.260655" stroke-miterlimit="10"/>
<path d="M108.371 71.002H110.93" stroke="#757575" stroke-width="0.260655" stroke-miterlimit="10"/>
<path d="M112.371 71.002H114.93" stroke="#757575" stroke-width="0.260655" stroke-miterlimit="10"/>
<path d="M98.4847 70.5078L98.0156 71.3235H98.9559L98.4847 70.5078Z" fill="white"/>
<path d="M100.371 72.8945H102.93" stroke="#757575" stroke-width="0.260655" stroke-miterlimit="10"/>
<path d="M104.375 72.8945H106.934" stroke="#757575" stroke-width="0.260655" stroke-miterlimit="10"/>
<path d="M108.371 72.8945H110.93" stroke="#757575" stroke-width="0.260655" stroke-miterlimit="10"/>
<path d="M112.371 72.8945H114.93" stroke="#757575" stroke-width="0.260655" stroke-miterlimit="10"/>
<path d="M98.4847 73.214L98.9559 72.4004H98.0156L98.4847 73.214Z" fill="black"/>
<path d="M97.7539 54.8633H115.855" stroke="white" stroke-width="0.260655" stroke-miterlimit="10"/>
<path d="M97.7539 56.7539H115.855" stroke="white" stroke-width="0.260655" stroke-miterlimit="10"/>
<path d="M97.7539 58.6484H115.855" stroke="white" stroke-width="0.260655" stroke-miterlimit="10"/>
<path d="M97.7539 60.5352H115.855" stroke="white" stroke-width="0.260655" stroke-miterlimit="10"/>
<path d="M97.7539 62.4277H115.855" stroke="white" stroke-width="0.260655" stroke-miterlimit="10"/>
<path d="M97.7539 64.3223H115.855" stroke="white" stroke-width="0.260655" stroke-miterlimit="10"/>
<path d="M97.7539 66.207H115.855" stroke="white" stroke-width="0.260655" stroke-miterlimit="10"/>
<path d="M97.7539 68.0957H115.855" stroke="white" stroke-width="0.260655" stroke-miterlimit="10"/>
<path d="M97.7539 69.9883H115.855" stroke="white" stroke-width="0.260655" stroke-miterlimit="10"/>
<path d="M97.7539 71.8828H115.855" stroke="white" stroke-width="0.260655" stroke-miterlimit="10"/>
<path d="M97.7539 73.7695H115.855" stroke="white" stroke-width="0.260655" stroke-miterlimit="10"/>
<path d="M97.7539 75.6602H115.855" stroke="white" stroke-width="0.260655" stroke-miterlimit="10"/>
<path d="M100.371 74.7891H102.93" stroke="#757575" stroke-width="0.260655" stroke-miterlimit="10"/>
<path d="M104.375 74.7891H106.934" stroke="#757575" stroke-width="0.260655" stroke-miterlimit="10"/>
<path d="M108.371 74.7891H110.93" stroke="#757575" stroke-width="0.260655" stroke-miterlimit="10"/>
<path d="M112.371 74.7891H114.93" stroke="#757575" stroke-width="0.260655" stroke-miterlimit="10"/>
<path d="M98.4847 74.291L98.0156 75.1047H98.9559L98.4847 74.291Z" fill="white"/>
<path d="M100.371 76.6758H102.93" stroke="#757575" stroke-width="0.260655" stroke-miterlimit="10"/>
<path d="M104.375 76.6758H106.934" stroke="#757575" stroke-width="0.260655" stroke-miterlimit="10"/>
<path d="M108.371 76.6758H110.93" stroke="#757575" stroke-width="0.260655" stroke-miterlimit="10"/>
<path d="M112.371 76.6758H114.93" stroke="#757575" stroke-width="0.260655" stroke-miterlimit="10"/>
<path d="M98.4847 76.9954L98.9559 76.1797H98.0156L98.4847 76.9954Z" fill="black"/>
<path d="M93.7745 84.7754C93.7745 84.4537 93.9218 84.2793 94.2332 84.2793C94.5445 84.2793 94.6794 84.4536 94.6794 84.7588V84.8086H94.3951V84.7401C94.3951 84.6031 94.337 84.5512 94.2415 84.5512C94.146 84.5512 94.0754 84.6031 94.0754 84.7857V85.1344C94.0987 85.0815 94.1376 85.037 94.187 85.007C94.2364 84.9769 94.2938 84.9627 94.3515 84.9663C94.5736 84.9663 94.6857 85.122 94.6857 85.4022V85.7509C94.6899 85.8133 94.6812 85.8759 94.6602 85.9349C94.6393 85.9938 94.6064 86.0478 94.5637 86.0935C94.5209 86.1392 94.4693 86.1756 94.4119 86.2005C94.3545 86.2255 94.2926 86.2383 94.2301 86.2383C94.1675 86.2383 94.1056 86.2255 94.0482 86.2005C93.9909 86.1756 93.9392 86.1392 93.8965 86.0935C93.8538 86.0478 93.8209 85.9938 93.7999 85.9349C93.7789 85.8759 93.7703 85.8133 93.7745 85.7509V84.7754ZM94.0754 85.4271V85.7696C94.0754 85.9066 94.1336 85.9564 94.229 85.9564C94.3245 85.9564 94.3847 85.9066 94.3847 85.7696V85.4271C94.3847 85.2901 94.3245 85.2382 94.229 85.2382C94.1336 85.2382 94.0754 85.2901 94.0754 85.4271Z" fill="#263238"/>
<path d="M94.8526 84.7608C94.8484 84.6984 94.857 84.6358 94.878 84.5769C94.899 84.5179 94.9319 84.464 94.9746 84.4183C95.0173 84.3726 95.069 84.3361 95.1264 84.3112C95.1837 84.2863 95.2456 84.2734 95.3082 84.2734C95.3707 84.2734 95.4326 84.2863 95.49 84.3112C95.5474 84.3361 95.5991 84.3726 95.6418 84.4183C95.6845 84.464 95.7174 84.5179 95.7384 84.5769C95.7593 84.6358 95.768 84.6984 95.7638 84.7608V85.753C95.768 85.8154 95.7593 85.878 95.7384 85.9369C95.7174 85.9959 95.6845 86.0499 95.6418 86.0956C95.5991 86.1413 95.5474 86.1777 95.49 86.2026C95.4326 86.2275 95.3707 86.2404 95.3082 86.2404C95.2456 86.2404 95.1837 86.2275 95.1264 86.2026C95.069 86.1777 95.0173 86.1413 94.9746 86.0956C94.9319 86.0499 94.899 85.9959 94.878 85.9369C94.857 85.878 94.8484 85.8154 94.8526 85.753V84.7608ZM95.1515 85.7717C95.1515 85.9087 95.2117 85.9605 95.3072 85.9605C95.4026 85.9605 95.4628 85.9087 95.4628 85.7717V84.7339C95.4628 84.5969 95.4026 84.545 95.3072 84.545C95.2117 84.545 95.1515 84.5969 95.1515 84.7339V85.7717Z" fill="#263238"/>
<path d="M95.9385 84.5944C95.9351 84.5543 95.9401 84.514 95.9531 84.4759C95.9661 84.4378 95.9869 84.4029 96.0141 84.3733C96.0413 84.3436 96.0744 84.32 96.1112 84.3038C96.1481 84.2876 96.1878 84.2793 96.2281 84.2793C96.2683 84.2793 96.3081 84.2876 96.3449 84.3038C96.3818 84.32 96.4148 84.3436 96.4421 84.3733C96.4693 84.4029 96.4901 84.4378 96.5031 84.4759C96.5161 84.514 96.521 84.5543 96.5176 84.5944V85.2171C96.521 85.2572 96.5161 85.2975 96.5031 85.3356C96.4901 85.3737 96.4693 85.4086 96.4421 85.4382C96.4148 85.4679 96.3818 85.4915 96.3449 85.5077C96.3081 85.5239 96.2683 85.5322 96.2281 85.5322C96.1878 85.5322 96.1481 85.5239 96.1112 85.5077C96.0744 85.4915 96.0413 85.4679 96.0141 85.4382C95.9869 85.4086 95.9661 85.3737 95.9531 85.3356C95.9401 85.2975 95.9351 85.2572 95.9385 85.2171V84.5944ZM96.1295 85.2358C96.1295 85.3188 96.1648 85.3541 96.2271 85.3541C96.2893 85.3541 96.3267 85.3188 96.3267 85.2358V84.5799C96.3267 84.4948 96.2872 84.4595 96.2271 84.4595C96.1669 84.4595 96.1295 84.4948 96.1295 84.5799V85.2358ZM96.9805 84.3018H97.1548L96.4035 86.2113H96.225L96.9805 84.3018ZM96.885 85.2918C96.8816 85.2517 96.8866 85.2114 96.8996 85.1733C96.9126 85.1353 96.9334 85.1003 96.9606 85.0707C96.9878 85.0411 97.0209 85.0174 97.0577 85.0012C97.0945 84.9851 97.1343 84.9767 97.1746 84.9767C97.2148 84.9767 97.2546 84.9851 97.2914 85.0012C97.3282 85.0174 97.3613 85.0411 97.3885 85.0707C97.4158 85.1003 97.4365 85.1353 97.4495 85.1733C97.4625 85.2114 97.4675 85.2517 97.4641 85.2918V85.9145C97.4675 85.9546 97.4625 85.9949 97.4495 86.033C97.4365 86.0711 97.4158 86.106 97.3885 86.1357C97.3613 86.1653 97.3282 86.1889 97.2914 86.2051C97.2546 86.2213 97.2148 86.2296 97.1746 86.2296C97.1343 86.2296 97.0945 86.2213 97.0577 86.2051C97.0209 86.1889 96.9878 86.1653 96.9606 86.1357C96.9334 86.106 96.9126 86.0711 96.8996 86.033C96.8866 85.9949 96.8816 85.9546 96.885 85.9145V85.2918ZM97.076 85.9332C97.076 86.0183 97.1113 86.0536 97.1735 86.0536C97.2358 86.0536 97.2732 86.0183 97.2732 85.9332V85.2773C97.2732 85.1943 97.2337 85.159 97.1735 85.159C97.1133 85.159 97.076 85.1943 97.076 85.2773V85.9332Z" fill="#263238"/>
<path d="M94.3705 87.7675C94.3705 87.5952 94.3103 87.56 94.2149 87.56C94.1194 87.56 94.0592 87.6098 94.0592 87.7468V87.8692H93.7748V87.7488C93.7647 87.6863 93.7691 87.6222 93.7876 87.5616C93.8061 87.501 93.8382 87.4455 93.8814 87.3992C93.9247 87.3529 93.978 87.3171 94.0372 87.2946C94.0965 87.2721 94.1601 87.2635 94.2232 87.2694C94.5179 87.2694 94.6694 87.4437 94.6694 87.7488V87.7986C94.6816 87.8777 94.668 87.9585 94.6307 88.0292C94.5933 88.0999 94.5341 88.1566 94.4619 88.1909C94.5337 88.228 94.5922 88.2864 94.6294 88.3582C94.6666 88.43 94.6806 88.5115 94.6694 88.5915V88.7431C94.6694 89.0482 94.5179 89.2225 94.2232 89.2225C94.1601 89.2284 94.0965 89.2198 94.0372 89.1973C93.978 89.1748 93.9247 89.139 93.8814 89.0927C93.8382 89.0464 93.8061 88.9909 93.7876 88.9303C93.7691 88.8696 93.7647 88.8056 93.7748 88.7431V88.5832H94.0592V88.7617C94.0592 88.8966 94.1194 88.9485 94.2149 88.9485C94.3103 88.9485 94.3705 88.9029 94.3705 88.741V88.5895C94.3705 88.413 94.3103 88.3466 94.163 88.3466H94.0633V88.0747H94.1796C94.2917 88.0747 94.3602 88.0249 94.3602 87.8671L94.3705 87.7675Z" fill="#263238"/>
<path d="M94.8526 87.7491C94.8484 87.6867 94.857 87.6241 94.878 87.5652C94.899 87.5062 94.9319 87.4522 94.9746 87.4065C95.0173 87.3608 95.069 87.3244 95.1264 87.2995C95.1837 87.2746 95.2456 87.2617 95.3082 87.2617C95.3707 87.2617 95.4326 87.2746 95.49 87.2995C95.5474 87.3244 95.5991 87.3608 95.6418 87.4065C95.6845 87.4522 95.7174 87.5062 95.7384 87.5652C95.7593 87.6241 95.768 87.6867 95.7638 87.7491V88.7433C95.768 88.8058 95.7593 88.8684 95.7384 88.9273C95.7174 88.9862 95.6845 89.0402 95.6418 89.0859C95.5991 89.1316 95.5474 89.1681 95.49 89.193C95.4326 89.2179 95.3707 89.2307 95.3082 89.2307C95.2456 89.2307 95.1837 89.2179 95.1264 89.193C95.069 89.1681 95.0173 89.1316 94.9746 89.0859C94.9319 89.0402 94.899 88.9862 94.878 88.9273C94.857 88.8684 94.8484 88.8058 94.8526 88.7433V87.7491ZM95.1515 88.762C95.1515 88.8969 95.2117 88.9488 95.3072 88.9488C95.4026 88.9488 95.4628 88.8969 95.4628 88.762V87.7242C95.4628 87.5872 95.4026 87.5374 95.3072 87.5374C95.2117 87.5374 95.1515 87.5872 95.1515 87.7242V88.762Z" fill="#263238"/>
<path d="M95.9385 87.5886C95.9351 87.5485 95.9401 87.5081 95.9531 87.4701C95.9661 87.432 95.9869 87.397 96.0141 87.3674C96.0413 87.3378 96.0744 87.3141 96.1112 87.298C96.1481 87.2818 96.1878 87.2734 96.2281 87.2734C96.2683 87.2734 96.3081 87.2818 96.3449 87.298C96.3818 87.3141 96.4148 87.3378 96.4421 87.3674C96.4693 87.397 96.4901 87.432 96.5031 87.4701C96.5161 87.5081 96.521 87.5485 96.5176 87.5886V88.2112C96.521 88.2513 96.5161 88.2917 96.5031 88.3297C96.4901 88.3678 96.4693 88.4028 96.4421 88.4324C96.4148 88.462 96.3818 88.4857 96.3449 88.5018C96.3081 88.518 96.2683 88.5264 96.2281 88.5264C96.1878 88.5264 96.1481 88.518 96.1112 88.5018C96.0744 88.4857 96.0413 88.462 96.0141 88.4324C95.9869 88.4028 95.9661 88.3678 95.9531 88.3297C95.9401 88.2917 95.9351 88.2513 95.9385 88.2112V87.5886ZM96.1295 88.2299C96.1295 88.315 96.1648 88.3503 96.2271 88.3503C96.2893 88.3503 96.3267 88.315 96.3267 88.2299V87.5761C96.3267 87.491 96.2872 87.4557 96.2271 87.4557C96.1669 87.4557 96.1295 87.491 96.1295 87.5761V88.2299ZM96.9805 87.298H97.1548L96.4056 89.2013H96.2271L96.9805 87.298ZM96.885 88.286C96.8816 88.2459 96.8866 88.2055 96.8996 88.1675C96.9126 88.1294 96.9334 88.0944 96.9606 88.0648C96.9878 88.0352 97.0209 88.0115 97.0577 87.9954C97.0945 87.9792 97.1343 87.9708 97.1746 87.9708C97.2148 87.9708 97.2546 87.9792 97.2914 87.9954C97.3282 88.0115 97.3613 88.0352 97.3885 88.0648C97.4158 88.0944 97.4365 88.1294 97.4495 88.1675C97.4625 88.2055 97.4675 88.2459 97.4641 88.286V88.9086C97.4675 88.9487 97.4625 88.9891 97.4495 89.0272C97.4365 89.0652 97.4158 89.1002 97.3885 89.1298C97.3613 89.1594 97.3282 89.1831 97.2914 89.1992C97.2546 89.2154 97.2148 89.2238 97.1746 89.2238C97.1343 89.2238 97.0945 89.2154 97.0577 89.1992C97.0209 89.1831 96.9878 89.1594 96.9606 89.1298C96.9334 89.1002 96.9126 89.0652 96.8996 89.0272C96.8866 88.9891 96.8816 88.9487 96.885 88.9086V88.286ZM97.076 88.9273C97.076 89.0124 97.1113 89.0477 97.1735 89.0477C97.2358 89.0477 97.2732 89.0124 97.2732 88.9273V88.2735C97.2732 88.1884 97.2337 88.1531 97.1735 88.1531C97.1133 88.1531 97.076 88.1884 97.076 88.2735V88.9273Z" fill="#263238"/>
<path d="M94.2344 90.5469C94.1389 90.5469 94.0787 90.5988 94.0787 90.7358V90.9433H93.7944V90.7586C93.7843 90.696 93.7886 90.632 93.8071 90.5714C93.8256 90.5108 93.8577 90.4552 93.901 90.4089C93.9442 90.3627 93.9975 90.3269 94.0568 90.3044C94.116 90.2819 94.1796 90.2733 94.2427 90.2791C94.5354 90.2791 94.689 90.4535 94.689 90.7586C94.689 91.3585 94.0912 91.5888 94.0912 91.896C94.0891 91.9091 94.0891 91.9224 94.0912 91.9355H94.664V92.2095H93.7964V91.9749C93.7964 91.4124 94.3921 91.319 94.3921 90.769C94.3901 90.5925 94.3299 90.5469 94.2344 90.5469Z" fill="#263238"/>
<path d="M94.8526 90.7569C94.8484 90.6945 94.857 90.6319 94.878 90.573C94.899 90.514 94.9319 90.46 94.9746 90.4143C95.0173 90.3686 95.069 90.3322 95.1264 90.3073C95.1837 90.2824 95.2456 90.2695 95.3082 90.2695C95.3707 90.2695 95.4326 90.2824 95.49 90.3073C95.5474 90.3322 95.5991 90.3686 95.6418 90.4143C95.6845 90.46 95.7174 90.514 95.7384 90.573C95.7593 90.6319 95.768 90.6945 95.7638 90.7569V91.7491C95.768 91.8115 95.7593 91.8741 95.7384 91.933C95.7174 91.992 95.6845 92.046 95.6418 92.0917C95.5991 92.1374 95.5474 92.1738 95.49 92.1987C95.4326 92.2236 95.3707 92.2365 95.3082 92.2365C95.2456 92.2365 95.1837 92.2236 95.1264 92.1987C95.069 92.1738 95.0173 92.1374 94.9746 92.0917C94.9319 92.046 94.899 91.992 94.878 91.933C94.857 91.8741 94.8484 91.8115 94.8526 91.7491V90.7569ZM95.1515 91.7678C95.1515 91.9047 95.2117 91.9566 95.3072 91.9566C95.4026 91.9566 95.4628 91.9047 95.4628 91.7678V90.73C95.4628 90.593 95.4026 90.5411 95.3072 90.5411C95.2117 90.5411 95.1515 90.593 95.1515 90.73V91.7678Z" fill="#263238"/>
<path d="M95.9385 90.5925C95.9351 90.5524 95.9401 90.512 95.9531 90.474C95.9661 90.4359 95.9869 90.4009 96.0141 90.3713C96.0413 90.3417 96.0744 90.3181 96.1112 90.3019C96.1481 90.2857 96.1878 90.2773 96.2281 90.2773C96.2683 90.2773 96.3081 90.2857 96.3449 90.3019C96.3818 90.3181 96.4148 90.3417 96.4421 90.3713C96.4693 90.4009 96.4901 90.4359 96.5031 90.474C96.5161 90.512 96.521 90.5524 96.5176 90.5925V91.2152C96.521 91.2552 96.5161 91.2956 96.5031 91.3337C96.4901 91.3717 96.4693 91.4067 96.4421 91.4363C96.4148 91.4659 96.3818 91.4896 96.3449 91.5057C96.3081 91.5219 96.2683 91.5303 96.2281 91.5303C96.1878 91.5303 96.1481 91.5219 96.1112 91.5057C96.0744 91.4896 96.0413 91.4659 96.0141 91.4363C95.9869 91.4067 95.9661 91.3717 95.9531 91.3337C95.9401 91.2956 95.9351 91.2552 95.9385 91.2152V90.5925ZM96.1295 91.2318C96.1295 91.3169 96.1648 91.3521 96.2271 91.3521C96.2893 91.3521 96.3267 91.3169 96.3267 91.2318V90.5779C96.3267 90.4928 96.2872 90.4576 96.2271 90.4576C96.1669 90.4576 96.1295 90.4928 96.1295 90.5779V91.2318ZM96.9805 90.2998H97.1548L96.4035 92.2094H96.225L96.9805 90.2998ZM96.885 91.2816C96.8816 91.2415 96.8866 91.2011 96.8996 91.1631C96.9126 91.125 96.9334 91.09 96.9606 91.0604C96.9878 91.0308 97.0209 91.0072 97.0577 90.991C97.0945 90.9748 97.1343 90.9664 97.1746 90.9664C97.2148 90.9664 97.2546 90.9748 97.2914 90.991C97.3282 91.0072 97.3613 91.0308 97.3885 91.0604C97.4158 91.09 97.4365 91.125 97.4495 91.1631C97.4625 91.2011 97.4675 91.2415 97.4641 91.2816V91.9043C97.4675 91.9443 97.4625 91.9847 97.4495 92.0228C97.4365 92.0608 97.4158 92.0958 97.3885 92.1254C97.3613 92.155 97.3282 92.1787 97.2914 92.1948C97.2546 92.211 97.2148 92.2194 97.1746 92.2194C97.1343 92.2194 97.0945 92.211 97.0577 92.1948C97.0209 92.1787 96.9878 92.155 96.9606 92.1254C96.9334 92.0958 96.9126 92.0608 96.8996 92.0228C96.8866 91.9847 96.8816 91.9443 96.885 91.9043V91.2816ZM97.076 91.9229C97.076 92.008 97.1113 92.0433 97.1735 92.0433C97.2358 92.0433 97.2732 92.008 97.2732 91.9229V91.2816C97.2732 91.1985 97.2337 91.1633 97.1735 91.1633C97.1133 91.1633 97.076 91.1985 97.076 91.2816V91.9229Z" fill="#263238"/>
<path d="M81.0415 92.504C80.5055 92.161 80.0452 91.7122 79.6888 91.1851C79.3324 90.658 79.0874 90.0636 78.9687 89.4385C78.8501 88.8133 78.8603 88.1706 78.9988 87.5495C79.1373 86.9285 79.4011 86.3422 79.7741 85.8267C80.1471 85.3112 80.6214 84.8773 81.168 84.5516C81.7146 84.2258 82.322 84.0151 82.9529 83.9323C83.5838 83.8495 84.2249 83.8964 84.837 84.0701C85.4492 84.2438 86.0194 84.5407 86.5128 84.9425" stroke="#263238" stroke-width="1.56393" stroke-linejoin="round"/>
<path d="M87.2926 91.4102C86.5795 92.3451 85.5405 92.9771 84.3824 93.1806C83.2243 93.3841 82.0321 93.144 81.043 92.5082" stroke="#757575" stroke-width="1.56393" stroke-linejoin="round"/>
<path d="M86.5078 84.9414C87.4524 85.7062 88.0619 86.8087 88.2072 88.0153C88.3525 89.222 88.0221 90.4377 87.2862 91.4049" stroke="black" stroke-width="1.56393" stroke-linejoin="round"/>
<path d="M91.6835 86.1717C92.1214 86.1717 92.4764 85.8167 92.4764 85.3788C92.4764 84.9409 92.1214 84.5859 91.6835 84.5859C91.2456 84.5859 90.8906 84.9409 90.8906 85.3788C90.8906 85.8167 91.2456 86.1717 91.6835 86.1717Z" fill="#263238"/>
<path d="M91.6835 89.078C92.1214 89.078 92.4764 88.723 92.4764 88.2851C92.4764 87.8472 92.1214 87.4922 91.6835 87.4922C91.2456 87.4922 90.8906 87.8472 90.8906 88.2851C90.8906 88.723 91.2456 89.078 91.6835 89.078Z" fill="#C4F0D1"/>
<path d="M91.6835 91.9881C92.1214 91.9881 92.4764 91.6331 92.4764 91.1952C92.4764 90.7573 92.1214 90.4023 91.6835 90.4023C91.2456 90.4023 90.8906 90.7573 90.8906 91.1952C90.8906 91.6331 91.2456 91.9881 91.6835 91.9881Z" fill="#757575"/>
<path d="M97.8664 80.3047H79.5117V80.9336H97.8664V80.3047Z" fill="#CCCCCC"/>
<path d="M37.8711 82.3906H74.4538" stroke="#CCCCCC" stroke-width="0.260655" stroke-linecap="round" stroke-linejoin="round"/>
<path d="M37.8711 84.1035H74.4538" stroke="#CCCCCC" stroke-width="0.260655" stroke-linecap="round" stroke-linejoin="round"/>
<path d="M37.8711 85.8145H74.4538" stroke="#CCCCCC" stroke-width="0.260655" stroke-linecap="round" stroke-linejoin="round"/>
<path d="M37.8711 87.5273H74.4538" stroke="#CCCCCC" stroke-width="0.260655" stroke-linecap="round" stroke-linejoin="round"/>
<path d="M37.8711 89.2383H74.4538" stroke="#CCCCCC" stroke-width="0.260655" stroke-linecap="round" stroke-linejoin="round"/>
<path d="M37.8711 90.9531H74.4538" stroke="#CCCCCC" stroke-width="0.260655" stroke-linecap="round" stroke-linejoin="round"/>
<path d="M37.8711 92.6641H74.4538" stroke="#CCCCCC" stroke-width="0.260655" stroke-linecap="round" stroke-linejoin="round"/>
<path d="M37.8711 94.375H74.4538" stroke="#CCCCCC" stroke-width="0.260655" stroke-linecap="round" stroke-linejoin="round"/>
<path d="M35.2812 82.3906H37.0434" stroke="#CCCCCC" stroke-width="0.260655" stroke-linecap="round" stroke-linejoin="round"/>
<path d="M35.2812 84.1035H37.0434" stroke="#CCCCCC" stroke-width="0.260655" stroke-linecap="round" stroke-linejoin="round"/>
<path d="M35.2812 85.8145H37.0434" stroke="#CCCCCC" stroke-width="0.260655" stroke-linecap="round" stroke-linejoin="round"/>
<path d="M35.2812 87.5273H37.0434" stroke="#CCCCCC" stroke-width="0.260655" stroke-linecap="round" stroke-linejoin="round"/>
<path d="M35.2812 89.2383H37.0434" stroke="#CCCCCC" stroke-width="0.260655" stroke-linecap="round" stroke-linejoin="round"/>
<path d="M35.2812 90.9531H37.0434" stroke="#CCCCCC" stroke-width="0.260655" stroke-linecap="round" stroke-linejoin="round"/>
<path d="M35.2812 92.6641H37.0434" stroke="#CCCCCC" stroke-width="0.260655" stroke-linecap="round" stroke-linejoin="round"/>
<path d="M35.2812 94.375H37.0434" stroke="#CCCCCC" stroke-width="0.260655" stroke-linecap="round" stroke-linejoin="round"/>
<path d="M38.5234 86.3304L38.9593 85.9423L39.2022 86.5255L39.7833 86.1374L39.9784 86.6231L40.5119 85.2158L40.7547 85.6517L40.9 86.5732L41.4334 86.7683L41.6763 87.5924L42.0167 87.9328L42.3073 87.252L42.986 88.6592L43.2766 88.5617L43.9076 92.1525L44.1504 91.619L44.5863 92.6859L45.265 88.5139L45.8483 89.4832L46.334 88.5617L46.6723 89.3379L47.1082 88.9498L47.4486 89.7759L48.2249 88.9498L48.5652 90.0187L49.3395 90.4069L49.7276 89.4832L50.1178 89.4355L50.4561 88.8543H50.7965L51.0373 90.2595L51.4275 88.8045L51.9111 88.709L52.3968 88.3686L52.8327 88.6592L53.1731 89.9689L53.5114 89.7261L54.0947 90.6975L54.433 90.1142L54.7257 90.6975L54.9685 90.5024L55.3567 90.5999L56.0831 89.6306L56.5688 90.164L56.9071 89.1927L57.2953 89.4832L57.6834 87.1565L57.9761 87.4948L58.605 85.3133H58.8478L58.9931 84.2444L59.4788 84.1967L59.6719 83.1298L60.1575 84.4395L60.4481 83.8583L60.7885 86.0398L61.2244 86.1851L61.4673 85.4586L62.2934 84.8754L62.7292 85.9423L62.777 87.8352L63.3602 88.1258L63.8936 87.1565L64.3295 87.3018L64.863 87.252L65.2034 87.9328L65.5915 87.0112H65.8821L66.8037 89.0972L67.0465 88.3686L67.4346 88.4164L67.9183 89.5808L68.4517 88.7568L68.8398 84.8276L69.3733 85.4586L69.5684 82.3535L70.0541 82.9347L70.2969 84.5848L70.8781 84.3419L71.314 85.7015L71.6544 85.8468L71.8474 88.3686L72.1401 87.7875L72.2853 87.1067L73.0616 87.3018L73.3999 87.1067L74.0309 87.9805" stroke="black" stroke-width="0.52131" stroke-miterlimit="10"/>
<path d="M39.8353 79.3633H35.4766V81.5717H39.8353V79.3633Z" fill="white" stroke="#263238" stroke-width="0.260655" stroke-linecap="round" stroke-linejoin="round"/>
<path d="M39.8298 79.3633V79.8884C39.6905 79.8884 39.557 79.8331 39.4585 79.7346C39.36 79.6361 39.3047 79.5026 39.3047 79.3633H39.8298Z" fill="white" stroke="#263238" stroke-width="0.260655" stroke-linecap="round" stroke-linejoin="round"/>
<path d="M39.3125 81.5684C39.3125 81.5455 39.3125 81.5227 39.3125 81.4978C39.3125 81.3585 39.3678 81.2249 39.4663 81.1265C39.5648 81.028 39.6984 80.9727 39.8376 80.9727" fill="white"/>
<path d="M39.3125 81.5684C39.3125 81.5455 39.3125 81.5227 39.3125 81.4978C39.3125 81.3585 39.3678 81.2249 39.4663 81.1265C39.5648 81.028 39.6984 80.9727 39.8376 80.9727" stroke="#263238" stroke-width="0.260655" stroke-linecap="round" stroke-linejoin="round"/>
<path d="M35.4766 79.8884H35.4911C35.6304 79.8884 35.7639 79.8331 35.8624 79.7346C35.9609 79.6361 36.0162 79.5026 36.0162 79.3633" fill="white"/>
<path d="M35.4766 79.8884H35.4911C35.6304 79.8884 35.7639 79.8331 35.8624 79.7346C35.9609 79.6361 36.0162 79.5026 36.0162 79.3633" stroke="#263238" stroke-width="0.260655" stroke-linecap="round" stroke-linejoin="round"/>
<path d="M36.0121 81.4978C36.0121 81.5227 36.0121 81.5455 36.0121 81.5684H35.4766V80.9727H35.4911C35.6296 80.9738 35.7621 81.0296 35.8597 81.1279C35.9573 81.2263 36.0121 81.3592 36.0121 81.4978Z" fill="white" stroke="#263238" stroke-width="0.260655" stroke-linecap="round" stroke-linejoin="round"/>
<path d="M38.3343 80.466C38.3343 80.3313 38.2943 80.1997 38.2195 80.0877C38.1447 79.9758 38.0384 79.8885 37.914 79.837C37.7896 79.7855 37.6527 79.772 37.5206 79.7982C37.3886 79.8245 37.2673 79.8893 37.1721 79.9846C37.0768 80.0798 37.012 80.2011 36.9857 80.3331C36.9595 80.4652 36.973 80.6021 37.0245 80.7265C37.076 80.8509 37.1633 80.9572 37.2752 81.032C37.3872 81.1068 37.5188 81.1468 37.6535 81.1468C37.834 81.1468 38.0072 81.075 38.1349 80.9474C38.2625 80.8197 38.3343 80.6465 38.3343 80.466Z" fill="white" stroke="#263238" stroke-width="0.260655" stroke-linecap="round" stroke-linejoin="round"/>
<path d="M37.5939 80.0448V79.9805H37.706V80.0448C37.8014 80.0635 37.8513 80.1382 37.8513 80.2524V80.2794H37.7226V80.242C37.7226 80.1818 37.6977 80.1569 37.6541 80.1569C37.6105 80.1569 37.5877 80.1818 37.5877 80.242C37.5877 80.4205 37.8513 80.4288 37.8513 80.6758C37.8566 80.7222 37.8448 80.7689 37.818 80.8071C37.7912 80.8454 37.7514 80.8725 37.706 80.8834V80.9456H37.5939V80.902C37.5481 80.8916 37.5078 80.8647 37.4806 80.8264C37.4534 80.7881 37.4413 80.7411 37.4465 80.6945V80.6364H37.5794V80.6945C37.5794 80.7547 37.6063 80.7775 37.6499 80.7775C37.6935 80.7775 37.7205 80.7547 37.7205 80.6945C37.7205 80.516 37.4548 80.5077 37.4548 80.2607C37.4465 80.2138 37.4562 80.1655 37.482 80.1255C37.5078 80.0855 37.5478 80.0566 37.5939 80.0448Z" fill="#263238"/>
<path d="M59.5226 80.3047H41.168V80.9336H59.5226V80.3047Z" fill="#CCCCCC"/>
<path d="M115.932 82.2285H101.559V83.5984H115.932V82.2285Z" fill="#CCCCCC"/>
<path d="M106.144 82.2285H101.559V83.5984H106.144V82.2285Z" fill="black"/>
<path d="M115.932 85.7676H101.559V87.1375H115.932V85.7676Z" fill="#CCCCCC"/>
<path d="M111.171 85.7676H101.559V87.1375H111.171V85.7676Z" fill="black"/>
<path d="M115.932 89.3066H101.559V90.6765H115.932V89.3066Z" fill="#CCCCCC"/>
<path d="M103.586 89.3066H101.559V90.6765H103.586V89.3066Z" fill="black"/>
<path d="M115.932 92.8438H101.559V94.2137H115.932V92.8438Z" fill="#CCCCCC"/>
<path d="M114.168 92.8438H101.559V94.2137H114.168V92.8438Z" fill="black"/>
<path d="M115.842 80.3047H101.512V80.9336H115.842V80.3047Z" fill="#CCCCCC"/>
</g>
<defs>
<linearGradient id="paint0_linear_785_5641" x1="153.981" y1="4.55566" x2="-3.3842" y2="141.746" gradientUnits="userSpaceOnUse">
<stop offset="0.270407" stop-color="#2AB7CA"/>
<stop offset="0.66957" stop-color="#FFCD00"/>
</linearGradient>
<clipPath id="clip0_785_5641">
<rect width="145" height="145" fill="white"/>
</clipPath>
</defs>
</svg>
