<svg width="35" height="35" viewBox="0 0 35 35" fill="none" xmlns="http://www.w3.org/2000/svg">
<path d="M24.791 5.10352H10.2077C5.83268 5.10352 2.91602 7.29102 2.91602 12.3952V22.6035C2.91602 27.7077 5.83268 29.8952 10.2077 29.8952H24.791C29.166 29.8952 32.0827 27.7077 32.0827 22.6035V12.3952C32.0827 7.29102 29.166 5.10352 24.791 5.10352ZM25.4764 13.9848L20.9118 17.6306C19.9493 18.4035 18.7243 18.7827 17.4993 18.7827C16.2743 18.7827 15.0348 18.4035 14.0868 17.6306L9.52227 13.9848C9.0556 13.6056 8.98268 12.9056 9.34727 12.4389C9.72643 11.9723 10.4118 11.8848 10.8785 12.2639L15.4431 15.9098C16.5514 16.7993 18.4327 16.7993 19.541 15.9098L24.1056 12.2639C24.5723 11.8848 25.2723 11.9577 25.6368 12.4389C26.016 12.9056 25.9431 13.6056 25.4764 13.9848Z" fill="#FED631"/>
</svg>
