<svg width="57" height="78" viewBox="0 0 57 78" fill="none" xmlns="http://www.w3.org/2000/svg">
<rect width="56.4828" height="77.4828" rx="3.44828" fill="white"/>
<path d="M27.9318 50.8974C25.9778 50.8974 24.2767 50.541 22.8284 49.8284C21.4031 49.0928 20.3112 48.1043 19.5525 46.8629C18.7939 45.6215 18.4146 44.2192 18.4146 42.656H23.8629C23.8629 43.7135 24.2192 44.5755 24.9318 45.2422C25.6445 45.8859 26.6445 46.2077 27.9318 46.2077C28.7824 46.2077 29.5066 46.0468 30.1043 45.7249C30.702 45.4031 31.1617 44.9663 31.4836 44.4146C31.8054 43.8399 31.9663 43.1962 31.9663 42.4836C31.9663 41.3801 31.61 40.4721 30.8974 39.7594C30.2077 39.0468 29.2192 38.6905 27.9318 38.6905C27.2422 38.6905 26.633 38.7939 26.1043 39.0008C25.5985 39.2077 25.1617 39.4606 24.7939 39.7594L22.2422 35.4491L29.8629 30.4836L29.5525 29.8974H19.4491V25.0698H36.4146V30.3112L27.6215 35.8974L24.8629 35.1387C25.3226 35.0008 25.8054 34.8974 26.3112 34.8284C26.8399 34.7364 27.4031 34.6905 28.0008 34.6905C29.9548 34.6905 31.633 35.0123 33.0353 35.656C34.4376 36.2997 35.5181 37.2077 36.2767 38.3801C37.0583 39.5295 37.4491 40.8744 37.4491 42.4146V42.8284C37.4491 44.3686 37.0583 45.7479 36.2767 46.9663C35.5181 48.1847 34.4261 49.1502 33.0008 49.8629C31.5985 50.5525 29.9089 50.8974 27.9318 50.8974Z" fill="black"/>
</svg>
