<svg width="57" height="78" viewBox="0 0 57 78" fill="none" xmlns="http://www.w3.org/2000/svg">
<rect width="56.4828" height="77.4828" rx="3.44828" fill="white"/>
<path d="M19.3112 50.2422V45.0698C19.3112 43.9893 19.4836 43.0468 19.8284 42.2422C20.1962 41.4376 20.7709 40.7249 21.5525 40.1043C22.3341 39.4606 23.3686 38.8629 24.656 38.3112L28.7249 36.5525C29.7594 36.1157 30.5181 35.5755 31.0008 34.9318C31.5066 34.2882 31.7594 33.4721 31.7594 32.4836C31.7594 31.4721 31.4491 30.6445 30.8284 30.0008C30.2077 29.3571 29.2997 29.0353 28.1043 29.0353C26.9089 29.0353 26.0008 29.3686 25.3801 30.0353C24.7594 30.702 24.4491 31.5985 24.4491 32.7249H18.9663C18.9663 31.1387 19.3112 29.7134 20.0008 28.4491C20.6905 27.1617 21.7135 26.1502 23.0698 25.4146C24.4261 24.679 26.1043 24.3111 28.1043 24.3111C30.1043 24.3111 31.7709 24.6675 33.1043 25.3801C34.4606 26.0928 35.4836 27.0468 36.1732 28.2422C36.8859 29.4376 37.2422 30.7824 37.2422 32.2767V32.6905C37.2422 34.6215 36.7135 36.2192 35.656 37.4836C34.5985 38.7249 32.9663 39.8284 30.7594 40.7939L26.7249 42.5525C26.0353 42.8514 25.541 43.1617 25.2422 43.4836C24.9663 43.8054 24.8284 44.2422 24.8284 44.7939V46.518L23.4836 45.3801H37.2767V50.2422H19.3112Z" fill="black"/>
</svg>
