<svg width="186" height="159" viewBox="0 0 186 159" fill="none" xmlns="http://www.w3.org/2000/svg">
<g clip-path="url(#clip0_286_2348)">
<path d="M104.925 149.987H117.075V116.41H147.632V104.471H117.075V70.8936H104.925V104.471H74.7363V116.41H104.925V149.987Z" fill="white" fill-opacity="0.2"/>
<path d="M48.5971 198.488H58.9055V168.642H86.1493V159.315H58.9055V129.095H48.5971V159.315H21.3533V168.642H48.5971V198.488Z" fill="white" fill-opacity="0.3"/>
<path d="M163.095 90.667H173.403V60.8203H201.015V51.8663H173.403V21.6465H163.095V51.8663H135.851V60.8203H163.095V90.667Z" fill="white" fill-opacity="0.3"/>
<path d="M48.9652 90.667H58.5373V60.4472H86.1493V51.8663H58.5373V21.6465H48.9652V51.8663H21.3533V60.4472H48.9652V90.667Z" fill="white" fill-opacity="0.3"/>
<path d="M194.388 135.437H203.224V114.544H222V106.337H203.224V85.4438H194.388V106.337H175.98V114.544H194.388V135.437Z" fill="white" fill-opacity="0.3"/>
<path fill-rule="evenodd" clip-rule="evenodd" d="M163.095 198.488H173.403V168.642H201.015V159.315H173.403V129.095H163.095V159.315H135.851V168.642H163.095V198.488Z" fill="white" fill-opacity="0.3"/>
<path d="M132.905 26.8699V20.5274H114.498V0.0078125H107.871V20.5274H89.4627V26.8699H107.871V47.3895H114.498V26.8699H132.905ZM18.408 133.945H25.0348V113.425H43.4428V107.083H25.0348V86.9364H18.408V107.083H0V113.798L18.408 113.425V133.945Z" fill="white" fill-opacity="0.3"/>
</g>
<defs>
<clipPath id="clip0_286_2348">
<rect width="222" height="222" fill="white"/>
</clipPath>
</defs>
</svg>
