<svg width="58" height="58" viewBox="0 0 58 58" fill="none" xmlns="http://www.w3.org/2000/svg">
<g clip-path="url(#clip0_282_2215)">
<path d="M27.4129 39.1856H30.587V30.4131H38.5704V27.294H30.587V18.5215H27.4129V27.294H19.5256V30.4131H27.4129V39.1856Z" fill="white"/>
<path d="M12.6966 51.8574H15.3898V44.0596H22.5075V41.6228H15.3898V33.7275H12.6966V41.6228H5.57886V44.0596H12.6966V51.8574Z" fill="white"/>
<path d="M42.6102 23.6877H45.3034V15.8899H52.5173V13.5505H45.3034V5.65527H42.6102V13.5505H35.4924V15.8899H42.6102V23.6877Z" fill="white"/>
<path d="M27.8938 57.9981H30.2022V52.4422H35.1077V50.3953H30.2022V44.8394H27.8938V50.3953H23.0845V52.4422H27.8938V57.9981Z" fill="white"/>
<path d="M12.7928 23.6877H15.2936V15.7924H22.5075V13.5505H15.2936V5.65527H12.7928V13.5505H5.57886V15.7924H12.7928V23.6877Z" fill="white"/>
<path d="M50.7861 35.3845H53.0946V29.9261H58V27.7817H53.0946V22.3232H50.7861V27.7817H45.9768V29.9261H50.7861V35.3845Z" fill="white"/>
<path fill-rule="evenodd" clip-rule="evenodd" d="M42.6102 51.8574H45.3034V44.0596H52.5173V41.6228H45.3034V33.7275H42.6102V41.6228H35.4924V44.0596H42.6102V51.8574Z" fill="white"/>
<path d="M34.723 7.01996V5.36293H29.9138V0.00195312H28.1824V5.36293H23.3731V7.01996H28.1824V12.3809H29.9138V7.01996H34.723ZM4.80929 34.9945H6.54063V29.6336H11.3499V27.9765H6.54063V22.713H4.80929V27.9765H0V29.731L4.80929 29.6336V34.9945Z" fill="white"/>
</g>
<defs>
<clipPath id="clip0_282_2215">
<rect width="58" height="58" fill="white"/>
</clipPath>
</defs>
</svg>
