<svg width="629" height="629" viewBox="0 0 629 629" fill="none" xmlns="http://www.w3.org/2000/svg">
<path fill-rule="evenodd" clip-rule="evenodd" d="M0.0078125 316.74C0.00262451 315.994 0 315.247 0 314.5C0 140.806 140.806 0 314.5 0C488.194 0 629 140.806 629 314.5C629 488.194 488.194 629 314.5 629C300.122 629 285.969 628.035 272.103 626.167H0.0078125V316.74Z" fill="url(#paint0_linear_700_1670)"/>
<path d="M106.375 252.825H89.35V297H79.075V252.825H62.05V243.75H106.375V252.825ZM122.838 297.75C119.688 297.75 116.838 297.225 114.288 296.175C111.738 295.075 109.563 293.6 107.763 291.75C105.963 289.85 104.563 287.7 103.563 285.3C102.613 282.85 102.138 280.275 102.138 277.575C102.138 273.825 102.963 270.4 104.613 267.3C106.313 264.2 108.713 261.725 111.813 259.875C114.963 257.975 118.663 257.025 122.913 257.025C127.213 257.025 130.888 257.975 133.938 259.875C136.988 261.725 139.313 264.2 140.913 267.3C142.563 270.35 143.388 273.65 143.388 277.2C143.388 277.8 143.363 278.425 143.313 279.075C143.263 279.675 143.213 280.175 143.163 280.575H112.788C112.988 282.575 113.563 284.325 114.513 285.825C115.513 287.325 116.763 288.475 118.263 289.275C119.813 290.025 121.463 290.4 123.213 290.4C125.213 290.4 127.088 289.925 128.838 288.975C130.638 287.975 131.863 286.675 132.513 285.075L141.138 287.475C140.188 289.475 138.813 291.25 137.013 292.8C135.263 294.35 133.188 295.575 130.788 296.475C128.388 297.325 125.738 297.75 122.838 297.75ZM112.563 274.2H133.113C132.913 272.2 132.338 270.475 131.388 269.025C130.488 267.525 129.288 266.375 127.788 265.575C126.288 264.725 124.613 264.3 122.763 264.3C120.963 264.3 119.313 264.725 117.813 265.575C116.363 266.375 115.163 267.525 114.213 269.025C113.313 270.475 112.763 272.2 112.563 274.2ZM167.811 297.75C164.611 297.75 161.736 297.225 159.186 296.175C156.636 295.075 154.461 293.575 152.661 291.675C150.861 289.725 149.461 287.525 148.461 285.075C147.511 282.625 147.036 280.05 147.036 277.35C147.036 273.65 147.861 270.275 149.511 267.225C151.211 264.125 153.611 261.65 156.711 259.8C159.811 257.95 163.486 257.025 167.736 257.025C171.986 257.025 175.636 257.95 178.686 259.8C181.736 261.65 184.011 264.075 185.511 267.075L175.686 270.075C174.836 268.625 173.711 267.525 172.311 266.775C170.911 265.975 169.361 265.575 167.661 265.575C165.761 265.575 164.011 266.075 162.411 267.075C160.861 268.025 159.636 269.4 158.736 271.2C157.836 272.95 157.386 275 157.386 277.35C157.386 279.65 157.836 281.7 158.736 283.5C159.686 285.25 160.936 286.65 162.486 287.7C164.036 288.7 165.761 289.2 167.661 289.2C168.861 289.2 169.986 289 171.036 288.6C172.136 288.2 173.111 287.65 173.961 286.95C174.811 286.25 175.436 285.45 175.836 284.55L185.661 287.55C184.761 289.5 183.436 291.25 181.686 292.8C179.986 294.35 177.961 295.575 175.611 296.475C173.311 297.325 170.711 297.75 167.811 297.75ZM228.37 297H218.32V274.95C218.32 271.9 217.72 269.625 216.52 268.125C215.37 266.625 213.77 265.875 211.72 265.875C210.52 265.875 209.245 266.225 207.895 266.925C206.545 267.625 205.32 268.6 204.22 269.85C203.17 271.05 202.395 272.45 201.895 274.05V297H191.845V242.25H201.895V264.975C203.345 262.475 205.32 260.525 207.82 259.125C210.32 257.725 213.045 257.025 215.995 257.025C218.545 257.025 220.62 257.475 222.22 258.375C223.82 259.225 225.07 260.4 225.97 261.9C226.87 263.35 227.495 265 227.845 266.85C228.195 268.65 228.37 270.525 228.37 272.475V297ZM273.633 297H263.583V274.95C263.583 271.8 263.033 269.5 261.933 268.05C260.833 266.6 259.308 265.875 257.358 265.875C256.008 265.875 254.633 266.225 253.233 266.925C251.883 267.625 250.658 268.6 249.558 269.85C248.458 271.05 247.658 272.45 247.158 274.05V297H237.108V257.7H246.183V264.975C247.183 263.275 248.458 261.85 250.008 260.7C251.558 259.5 253.333 258.6 255.333 258C257.383 257.35 259.533 257.025 261.783 257.025C264.233 257.025 266.233 257.475 267.783 258.375C269.383 259.225 270.583 260.4 271.383 261.9C272.233 263.35 272.808 265 273.108 266.85C273.458 268.7 273.633 270.575 273.633 272.475V297ZM300.522 297.75C297.322 297.75 294.447 297.225 291.897 296.175C289.347 295.075 287.172 293.575 285.372 291.675C283.622 289.775 282.272 287.6 281.322 285.15C280.372 282.7 279.897 280.125 279.897 277.425C279.897 274.675 280.372 272.075 281.322 269.625C282.272 267.175 283.622 265 285.372 263.1C287.172 261.2 289.347 259.725 291.897 258.675C294.447 257.575 297.322 257.025 300.522 257.025C303.722 257.025 306.572 257.575 309.072 258.675C311.622 259.725 313.797 261.2 315.597 263.1C317.397 265 318.747 267.175 319.647 269.625C320.597 272.075 321.072 274.675 321.072 277.425C321.072 280.125 320.597 282.7 319.647 285.15C318.747 287.6 317.397 289.775 315.597 291.675C313.847 293.575 311.697 295.075 309.147 296.175C306.597 297.225 303.722 297.75 300.522 297.75ZM290.247 277.425C290.247 279.725 290.697 281.775 291.597 283.575C292.497 285.325 293.722 286.7 295.272 287.7C296.822 288.7 298.572 289.2 300.522 289.2C302.422 289.2 304.147 288.7 305.697 287.7C307.247 286.65 308.472 285.25 309.372 283.5C310.322 281.7 310.797 279.65 310.797 277.35C310.797 275.1 310.322 273.075 309.372 271.275C308.472 269.475 307.247 268.075 305.697 267.075C304.147 266.075 302.422 265.575 300.522 265.575C298.572 265.575 296.822 266.1 295.272 267.15C293.722 268.15 292.497 269.55 291.597 271.35C290.697 273.1 290.247 275.125 290.247 277.425ZM327.78 242.25H337.83V284.4C337.83 286.2 338.13 287.425 338.73 288.075C339.33 288.675 340.155 288.975 341.205 288.975C342.005 288.975 342.83 288.875 343.68 288.675C344.53 288.475 345.28 288.225 345.93 287.925L347.28 295.575C345.93 296.225 344.355 296.725 342.555 297.075C340.755 297.425 339.13 297.6 337.68 297.6C334.53 297.6 332.08 296.775 330.33 295.125C328.63 293.425 327.78 291.025 327.78 287.925V242.25ZM369.809 297.75C366.609 297.75 363.734 297.225 361.184 296.175C358.634 295.075 356.459 293.575 354.659 291.675C352.909 289.775 351.559 287.6 350.609 285.15C349.659 282.7 349.184 280.125 349.184 277.425C349.184 274.675 349.659 272.075 350.609 269.625C351.559 267.175 352.909 265 354.659 263.1C356.459 261.2 358.634 259.725 361.184 258.675C363.734 257.575 366.609 257.025 369.809 257.025C373.009 257.025 375.859 257.575 378.359 258.675C380.909 259.725 383.084 261.2 384.884 263.1C386.684 265 388.034 267.175 388.934 269.625C389.884 272.075 390.359 274.675 390.359 277.425C390.359 280.125 389.884 282.7 388.934 285.15C388.034 287.6 386.684 289.775 384.884 291.675C383.134 293.575 380.984 295.075 378.434 296.175C375.884 297.225 373.009 297.75 369.809 297.75ZM359.534 277.425C359.534 279.725 359.984 281.775 360.884 283.575C361.784 285.325 363.009 286.7 364.559 287.7C366.109 288.7 367.859 289.2 369.809 289.2C371.709 289.2 373.434 288.7 374.984 287.7C376.534 286.65 377.759 285.25 378.659 283.5C379.609 281.7 380.084 279.65 380.084 277.35C380.084 275.1 379.609 273.075 378.659 271.275C377.759 269.475 376.534 268.075 374.984 267.075C373.434 266.075 371.709 265.575 369.809 265.575C367.859 265.575 366.109 266.1 364.559 267.15C363.009 268.15 361.784 269.55 360.884 271.35C359.984 273.1 359.534 275.125 359.534 277.425ZM412.517 297.225C409.917 297.225 407.517 296.725 405.317 295.725C403.167 294.675 401.292 293.225 399.692 291.375C398.142 289.525 396.942 287.4 396.092 285C395.242 282.6 394.817 280.05 394.817 277.35C394.817 274.5 395.267 271.85 396.167 269.4C397.067 266.95 398.317 264.8 399.917 262.95C401.567 261.05 403.492 259.6 405.692 258.6C407.942 257.55 410.417 257.025 413.117 257.025C416.167 257.025 418.842 257.725 421.142 259.125C423.442 260.475 425.342 262.3 426.842 264.6V257.7H435.617V295.125C435.617 299.025 434.667 302.35 432.767 305.1C430.917 307.9 428.342 310.025 425.042 311.475C421.742 312.975 417.992 313.725 413.792 313.725C409.542 313.725 405.942 313 402.992 311.55C400.042 310.15 397.517 308.15 395.417 305.55L400.892 300.225C402.392 302.075 404.267 303.525 406.517 304.575C408.817 305.625 411.242 306.15 413.792 306.15C415.942 306.15 417.892 305.75 419.642 304.95C421.442 304.2 422.867 303 423.917 301.35C425.017 299.75 425.567 297.675 425.567 295.125V290.175C424.267 292.425 422.417 294.175 420.017 295.425C417.667 296.625 415.167 297.225 412.517 297.225ZM415.892 289.2C416.992 289.2 418.042 289.025 419.042 288.675C420.042 288.325 420.967 287.85 421.817 287.25C422.667 286.65 423.417 285.95 424.067 285.15C424.717 284.3 425.217 283.45 425.567 282.6V273.225C424.967 271.675 424.117 270.325 423.017 269.175C421.967 268.025 420.767 267.15 419.417 266.55C418.117 265.9 416.742 265.575 415.292 265.575C413.742 265.575 412.342 265.9 411.092 266.55C409.842 267.2 408.767 268.125 407.867 269.325C406.967 270.475 406.267 271.775 405.767 273.225C405.317 274.625 405.092 276.1 405.092 277.65C405.092 279.25 405.367 280.75 405.917 282.15C406.467 283.55 407.217 284.775 408.167 285.825C409.167 286.875 410.317 287.7 411.617 288.3C412.967 288.9 414.392 289.2 415.892 289.2ZM444.677 297V257.7H454.727V297H444.677ZM444.677 252.225V242.25H454.727V252.225H444.677ZM482.018 297.75C478.868 297.75 476.018 297.225 473.468 296.175C470.918 295.075 468.743 293.6 466.943 291.75C465.143 289.85 463.743 287.7 462.743 285.3C461.793 282.85 461.318 280.275 461.318 277.575C461.318 273.825 462.143 270.4 463.793 267.3C465.493 264.2 467.893 261.725 470.993 259.875C474.143 257.975 477.843 257.025 482.093 257.025C486.393 257.025 490.068 257.975 493.118 259.875C496.168 261.725 498.493 264.2 500.093 267.3C501.743 270.35 502.568 273.65 502.568 277.2C502.568 277.8 502.543 278.425 502.493 279.075C502.443 279.675 502.393 280.175 502.343 280.575H471.968C472.168 282.575 472.743 284.325 473.693 285.825C474.693 287.325 475.943 288.475 477.443 289.275C478.993 290.025 480.643 290.4 482.393 290.4C484.393 290.4 486.268 289.925 488.018 288.975C489.818 287.975 491.043 286.675 491.693 285.075L500.318 287.475C499.368 289.475 497.993 291.25 496.193 292.8C494.443 294.35 492.368 295.575 489.968 296.475C487.568 297.325 484.918 297.75 482.018 297.75ZM471.743 274.2H492.293C492.093 272.2 491.518 270.475 490.568 269.025C489.668 267.525 488.468 266.375 486.968 265.575C485.468 264.725 483.793 264.3 481.943 264.3C480.143 264.3 478.493 264.725 476.993 265.575C475.543 266.375 474.343 267.525 473.393 269.025C472.493 270.475 471.943 272.2 471.743 274.2ZM523.165 297.75C519.815 297.75 516.615 297.2 513.565 296.1C510.515 295 507.89 293.375 505.69 291.225L509.29 284.7C511.64 286.6 513.94 288 516.19 288.9C518.49 289.8 520.69 290.25 522.79 290.25C524.74 290.25 526.29 289.9 527.44 289.2C528.64 288.5 529.24 287.45 529.24 286.05C529.24 285.1 528.915 284.375 528.265 283.875C527.615 283.325 526.665 282.85 525.415 282.45C524.215 282.05 522.74 281.6 520.99 281.1C518.09 280.15 515.665 279.225 513.715 278.325C511.765 277.425 510.29 276.3 509.29 274.95C508.34 273.55 507.865 271.775 507.865 269.625C507.865 267.025 508.515 264.8 509.815 262.95C511.165 261.05 513.015 259.575 515.365 258.525C517.765 257.475 520.565 256.95 523.765 256.95C526.565 256.95 529.215 257.4 531.715 258.3C534.215 259.15 536.49 260.55 538.54 262.5L534.49 268.875C532.49 267.325 530.59 266.2 528.79 265.5C526.99 264.75 525.165 264.375 523.315 264.375C522.265 264.375 521.265 264.5 520.315 264.75C519.415 265 518.665 265.425 518.065 266.025C517.515 266.575 517.24 267.375 517.24 268.425C517.24 269.375 517.49 270.125 517.99 270.675C518.54 271.175 519.34 271.625 520.39 272.025C521.49 272.425 522.815 272.875 524.365 273.375C527.515 274.275 530.165 275.2 532.315 276.15C534.515 277.1 536.165 278.275 537.265 279.675C538.365 281.025 538.915 282.9 538.915 285.3C538.915 289.2 537.49 292.25 534.64 294.45C531.79 296.65 527.965 297.75 523.165 297.75ZM101.2 385L76.15 358.45C74.05 356.2 72.35 354.275 71.05 352.675C69.8 351.025 68.9 349.525 68.35 348.175C67.8 346.825 67.525 345.375 67.525 343.825C67.525 341.275 68.15 339.05 69.4 337.15C70.7 335.2 72.45 333.7 74.65 332.65C76.9 331.6 79.4 331.075 82.15 331.075C84.65 331.075 86.95 331.525 89.05 332.425C91.2 333.275 92.95 334.575 94.3 336.325C95.65 338.075 96.325 340.25 96.325 342.85C96.325 345.2 95.725 347.325 94.525 349.225C93.375 351.125 91.825 352.875 89.875 354.475C87.925 356.075 85.725 357.625 83.275 359.125C81.475 360.275 79.825 361.4 78.325 362.5C76.875 363.6 75.725 364.775 74.875 366.025C74.075 367.225 73.675 368.55 73.675 370C73.675 371.4 74.075 372.7 74.875 373.9C75.675 375.1 76.775 376.075 78.175 376.825C79.625 377.525 81.225 377.875 82.975 377.875C85.125 377.875 87.2 377.35 89.2 376.3C91.25 375.25 93.075 373.775 94.675 371.875C96.275 369.925 97.525 367.6 98.425 364.9C99.375 362.2 99.85 359.175 99.85 355.825H108.025C108.025 360.575 107.3 364.8 105.85 368.5C104.4 372.15 102.45 375.275 100 377.875C97.55 380.425 94.775 382.375 91.675 383.725C88.575 385.075 85.35 385.75 82 385.75C78.35 385.75 75.175 385.025 72.475 383.575C69.775 382.075 67.675 380.125 66.175 377.725C64.725 375.325 64 372.725 64 369.925C64 367.125 64.65 364.675 65.95 362.575C67.25 360.475 68.9 358.625 70.9 357.025C72.9 355.375 74.9 353.925 76.9 352.675C79.1 351.275 80.95 350.1 82.45 349.15C83.95 348.15 85.1 347.175 85.9 346.225C86.7 345.225 87.1 344.15 87.1 343C87.1 341.65 86.625 340.575 85.675 339.775C84.775 338.925 83.6 338.5 82.15 338.5C81.05 338.5 80.075 338.725 79.225 339.175C78.425 339.625 77.8 340.225 77.35 340.975C76.9 341.725 76.675 342.575 76.675 343.525C76.675 344.225 76.875 344.925 77.275 345.625C77.725 346.325 78.475 347.25 79.525 348.4C80.625 349.5 82.125 351.075 84.025 353.125L114.4 385H101.2ZM175.589 340.825H158.564V385H148.289V340.825H131.264V331.75H175.589V340.825ZM191.977 385.75C188.777 385.75 185.902 385.225 183.352 384.175C180.802 383.075 178.627 381.575 176.827 379.675C175.077 377.775 173.727 375.6 172.777 373.15C171.827 370.7 171.352 368.125 171.352 365.425C171.352 362.675 171.827 360.075 172.777 357.625C173.727 355.175 175.077 353 176.827 351.1C178.627 349.2 180.802 347.725 183.352 346.675C185.902 345.575 188.777 345.025 191.977 345.025C195.177 345.025 198.027 345.575 200.527 346.675C203.077 347.725 205.252 349.2 207.052 351.1C208.852 353 210.202 355.175 211.102 357.625C212.052 360.075 212.527 362.675 212.527 365.425C212.527 368.125 212.052 370.7 211.102 373.15C210.202 375.6 208.852 377.775 207.052 379.675C205.302 381.575 203.152 383.075 200.602 384.175C198.052 385.225 195.177 385.75 191.977 385.75ZM181.702 365.425C181.702 367.725 182.152 369.775 183.052 371.575C183.952 373.325 185.177 374.7 186.727 375.7C188.277 376.7 190.027 377.2 191.977 377.2C193.877 377.2 195.602 376.7 197.152 375.7C198.702 374.65 199.927 373.25 200.827 371.5C201.777 369.7 202.252 367.65 202.252 365.35C202.252 363.1 201.777 361.075 200.827 359.275C199.927 357.475 198.702 356.075 197.152 355.075C195.602 354.075 193.877 353.575 191.977 353.575C190.027 353.575 188.277 354.1 186.727 355.15C185.177 356.15 183.952 357.55 183.052 359.35C182.152 361.1 181.702 363.125 181.702 365.425ZM237.46 385.75C234.26 385.75 231.385 385.225 228.835 384.175C226.285 383.075 224.11 381.575 222.31 379.675C220.56 377.775 219.21 375.6 218.26 373.15C217.31 370.7 216.835 368.125 216.835 365.425C216.835 362.675 217.31 360.075 218.26 357.625C219.21 355.175 220.56 353 222.31 351.1C224.11 349.2 226.285 347.725 228.835 346.675C231.385 345.575 234.26 345.025 237.46 345.025C240.66 345.025 243.51 345.575 246.01 346.675C248.56 347.725 250.735 349.2 252.535 351.1C254.335 353 255.685 355.175 256.585 357.625C257.535 360.075 258.01 362.675 258.01 365.425C258.01 368.125 257.535 370.7 256.585 373.15C255.685 375.6 254.335 377.775 252.535 379.675C250.785 381.575 248.635 383.075 246.085 384.175C243.535 385.225 240.66 385.75 237.46 385.75ZM227.185 365.425C227.185 367.725 227.635 369.775 228.535 371.575C229.435 373.325 230.66 374.7 232.21 375.7C233.76 376.7 235.51 377.2 237.46 377.2C239.36 377.2 241.085 376.7 242.635 375.7C244.185 374.65 245.41 373.25 246.31 371.5C247.26 369.7 247.735 367.65 247.735 365.35C247.735 363.1 247.26 361.075 246.31 359.275C245.41 357.475 244.185 356.075 242.635 355.075C241.085 354.075 239.36 353.575 237.46 353.575C235.51 353.575 233.76 354.1 232.21 355.15C230.66 356.15 229.435 357.55 228.535 359.35C227.635 361.1 227.185 363.125 227.185 365.425ZM264.719 330.25H274.769V372.4C274.769 374.2 275.069 375.425 275.669 376.075C276.269 376.675 277.094 376.975 278.144 376.975C278.944 376.975 279.769 376.875 280.619 376.675C281.469 376.475 282.219 376.225 282.869 375.925L284.219 383.575C282.869 384.225 281.294 384.725 279.494 385.075C277.694 385.425 276.069 385.6 274.619 385.6C271.469 385.6 269.019 384.775 267.269 383.125C265.569 381.425 264.719 379.025 264.719 375.925V330.25ZM303.072 385.75C299.722 385.75 296.522 385.2 293.472 384.1C290.422 383 287.797 381.375 285.597 379.225L289.197 372.7C291.547 374.6 293.847 376 296.097 376.9C298.397 377.8 300.597 378.25 302.697 378.25C304.647 378.25 306.197 377.9 307.347 377.2C308.547 376.5 309.147 375.45 309.147 374.05C309.147 373.1 308.822 372.375 308.172 371.875C307.522 371.325 306.572 370.85 305.322 370.45C304.122 370.05 302.647 369.6 300.897 369.1C297.997 368.15 295.572 367.225 293.622 366.325C291.672 365.425 290.197 364.3 289.197 362.95C288.247 361.55 287.772 359.775 287.772 357.625C287.772 355.025 288.422 352.8 289.722 350.95C291.072 349.05 292.922 347.575 295.272 346.525C297.672 345.475 300.472 344.95 303.672 344.95C306.472 344.95 309.122 345.4 311.622 346.3C314.122 347.15 316.397 348.55 318.447 350.5L314.397 356.875C312.397 355.325 310.497 354.2 308.697 353.5C306.897 352.75 305.072 352.375 303.222 352.375C302.172 352.375 301.172 352.5 300.222 352.75C299.322 353 298.572 353.425 297.972 354.025C297.422 354.575 297.147 355.375 297.147 356.425C297.147 357.375 297.397 358.125 297.897 358.675C298.447 359.175 299.247 359.625 300.297 360.025C301.397 360.425 302.722 360.875 304.272 361.375C307.422 362.275 310.072 363.2 312.222 364.15C314.422 365.1 316.072 366.275 317.172 367.675C318.272 369.025 318.822 370.9 318.822 373.3C318.822 377.2 317.397 380.25 314.547 382.45C311.697 384.65 307.872 385.75 303.072 385.75Z" fill="#2AB7CA"/>
<path d="M86.13 421.695H89.805L82.105 440H78.815L75.525 431.74L72.235 440H68.945L61.21 421.695H64.885L70.765 436.255L73.355 429.5L70.205 421.73H73.46L75.525 427.435L77.555 421.73H80.81L77.695 429.5L80.285 436.255L86.13 421.695ZM100.043 440.35C98.6192 440.35 97.3242 440.105 96.1575 439.615C95.0142 439.102 94.0225 438.413 93.1825 437.55C92.3425 436.663 91.6892 435.66 91.2225 434.54C90.7792 433.397 90.5575 432.183 90.5575 430.9C90.5575 429.173 90.9542 427.598 91.7475 426.175C92.5408 424.728 93.6492 423.573 95.0725 422.71C96.4958 421.823 98.1642 421.38 100.078 421.38C101.991 421.38 103.636 421.823 105.013 422.71C106.413 423.573 107.498 424.717 108.268 426.14C109.038 427.563 109.423 429.092 109.423 430.725C109.423 431.005 109.411 431.273 109.388 431.53C109.364 431.763 109.341 431.962 109.318 432.125H94.6525C94.7225 433.198 95.0142 434.143 95.5275 434.96C96.0642 435.753 96.7408 436.383 97.5575 436.85C98.3742 437.293 99.2492 437.515 100.183 437.515C101.209 437.515 102.178 437.258 103.088 436.745C104.021 436.232 104.651 435.555 104.978 434.715L108.268 435.66C107.871 436.547 107.264 437.352 106.448 438.075C105.654 438.775 104.709 439.335 103.613 439.755C102.516 440.152 101.326 440.35 100.043 440.35ZM94.5475 429.57H105.608C105.538 428.52 105.234 427.598 104.698 426.805C104.184 425.988 103.519 425.358 102.703 424.915C101.909 424.448 101.023 424.215 100.043 424.215C99.0858 424.215 98.1992 424.448 97.3825 424.915C96.5892 425.358 95.9358 425.988 95.4225 426.805C94.9092 427.598 94.6175 428.52 94.5475 429.57ZM127.72 440.35C126.18 440.35 124.722 440.105 123.345 439.615C121.969 439.102 120.79 438.343 119.81 437.34L121.245 434.75C122.295 435.683 123.345 436.36 124.395 436.78C125.469 437.2 126.53 437.41 127.58 437.41C128.654 437.41 129.529 437.212 130.205 436.815C130.882 436.395 131.22 435.788 131.22 434.995C131.22 434.412 131.045 433.98 130.695 433.7C130.345 433.42 129.832 433.175 129.155 432.965C128.502 432.755 127.709 432.522 126.775 432.265C125.469 431.868 124.372 431.46 123.485 431.04C122.599 430.597 121.934 430.06 121.49 429.43C121.047 428.8 120.825 427.995 120.825 427.015C120.825 425.825 121.129 424.81 121.735 423.97C122.342 423.13 123.182 422.488 124.255 422.045C125.352 421.602 126.612 421.38 128.035 421.38C129.365 421.38 130.59 421.59 131.71 422.01C132.854 422.407 133.857 423.037 134.72 423.9L133.075 426.455C132.259 425.708 131.419 425.16 130.555 424.81C129.715 424.46 128.805 424.285 127.825 424.285C127.265 424.285 126.729 424.355 126.215 424.495C125.702 424.612 125.27 424.845 124.92 425.195C124.594 425.522 124.43 425.988 124.43 426.595C124.43 427.085 124.57 427.482 124.85 427.785C125.13 428.088 125.55 428.345 126.11 428.555C126.67 428.765 127.359 428.998 128.175 429.255C129.599 429.675 130.812 430.095 131.815 430.515C132.819 430.912 133.589 431.437 134.125 432.09C134.685 432.72 134.965 433.595 134.965 434.715C134.965 436.488 134.3 437.877 132.97 438.88C131.664 439.86 129.914 440.35 127.72 440.35ZM148.798 440.35C147.328 440.35 146.033 440 144.913 439.3C143.793 438.6 142.906 437.69 142.253 436.57V447.455H138.403V421.695H141.798V424.985C142.498 423.888 143.408 423.013 144.528 422.36C145.648 421.707 146.896 421.38 148.273 421.38C149.533 421.38 150.688 421.637 151.738 422.15C152.788 422.64 153.698 423.328 154.468 424.215C155.238 425.102 155.833 426.117 156.253 427.26C156.696 428.38 156.918 429.57 156.918 430.83C156.918 432.58 156.568 434.178 155.868 435.625C155.191 437.072 154.234 438.227 152.998 439.09C151.784 439.93 150.384 440.35 148.798 440.35ZM147.538 437.06C148.354 437.06 149.089 436.885 149.743 436.535C150.419 436.185 150.991 435.718 151.458 435.135C151.948 434.552 152.321 433.887 152.578 433.14C152.834 432.393 152.963 431.623 152.963 430.83C152.963 429.99 152.823 429.197 152.543 428.45C152.263 427.703 151.854 427.05 151.318 426.49C150.804 425.93 150.198 425.487 149.498 425.16C148.821 424.833 148.074 424.67 147.258 424.67C146.768 424.67 146.254 424.763 145.718 424.95C145.181 425.137 144.679 425.393 144.213 425.72C143.746 426.047 143.338 426.432 142.988 426.875C142.638 427.318 142.393 427.785 142.253 428.275V433.07C142.579 433.817 143.011 434.493 143.548 435.1C144.084 435.683 144.703 436.162 145.403 436.535C146.103 436.885 146.814 437.06 147.538 437.06ZM168.675 440.35C167.252 440.35 165.957 440.105 164.79 439.615C163.647 439.102 162.655 438.413 161.815 437.55C160.975 436.663 160.322 435.66 159.855 434.54C159.412 433.397 159.19 432.183 159.19 430.9C159.19 429.173 159.587 427.598 160.38 426.175C161.174 424.728 162.282 423.573 163.705 422.71C165.129 421.823 166.797 421.38 168.71 421.38C170.624 421.38 172.269 421.823 173.645 422.71C175.045 423.573 176.13 424.717 176.9 426.14C177.67 427.563 178.055 429.092 178.055 430.725C178.055 431.005 178.044 431.273 178.02 431.53C177.997 431.763 177.974 431.962 177.95 432.125H163.285C163.355 433.198 163.647 434.143 164.16 434.96C164.697 435.753 165.374 436.383 166.19 436.85C167.007 437.293 167.882 437.515 168.815 437.515C169.842 437.515 170.81 437.258 171.72 436.745C172.654 436.232 173.284 435.555 173.61 434.715L176.9 435.66C176.504 436.547 175.897 437.352 175.08 438.075C174.287 438.775 173.342 439.335 172.245 439.755C171.149 440.152 169.959 440.35 168.675 440.35ZM163.18 429.57H174.24C174.17 428.52 173.867 427.598 173.33 426.805C172.817 425.988 172.152 425.358 171.335 424.915C170.542 424.448 169.655 424.215 168.675 424.215C167.719 424.215 166.832 424.448 166.015 424.915C165.222 425.358 164.569 425.988 164.055 426.805C163.542 427.598 163.25 428.52 163.18 429.57ZM189.491 440.35C188.067 440.35 186.772 440.105 185.606 439.615C184.462 439.102 183.471 438.402 182.631 437.515C181.791 436.628 181.137 435.613 180.671 434.47C180.227 433.327 180.006 432.113 180.006 430.83C180.006 429.103 180.391 427.528 181.161 426.105C181.954 424.682 183.051 423.538 184.451 422.675C185.874 421.812 187.554 421.38 189.491 421.38C191.357 421.38 192.979 421.8 194.356 422.64C195.756 423.457 196.782 424.553 197.436 425.93L193.691 427.12C193.271 426.35 192.676 425.755 191.906 425.335C191.159 424.892 190.331 424.67 189.421 424.67C188.394 424.67 187.461 424.938 186.621 425.475C185.804 425.988 185.151 426.712 184.661 427.645C184.194 428.555 183.961 429.617 183.961 430.83C183.961 431.997 184.206 433.058 184.696 434.015C185.186 434.948 185.839 435.695 186.656 436.255C187.496 436.792 188.429 437.06 189.456 437.06C190.086 437.06 190.692 436.955 191.276 436.745C191.882 436.512 192.407 436.208 192.851 435.835C193.294 435.438 193.609 435.007 193.796 434.54L197.576 435.66C197.179 436.57 196.584 437.375 195.791 438.075C195.021 438.775 194.099 439.335 193.026 439.755C191.976 440.152 190.797 440.35 189.491 440.35ZM200.747 440V421.695H204.597V440H200.747ZM200.747 418.685V414.45H204.597V418.685H200.747ZM207.893 434.645C207.893 433.478 208.22 432.463 208.873 431.6C209.55 430.713 210.471 430.037 211.638 429.57C212.805 429.08 214.158 428.835 215.698 428.835C216.515 428.835 217.343 428.893 218.183 429.01C219.046 429.127 219.805 429.313 220.458 429.57V428.415C220.458 427.132 220.073 426.128 219.303 425.405C218.533 424.682 217.425 424.32 215.978 424.32C214.951 424.32 213.983 424.507 213.073 424.88C212.163 425.23 211.195 425.732 210.168 426.385L208.873 423.795C210.086 422.978 211.3 422.372 212.513 421.975C213.75 421.578 215.045 421.38 216.398 421.38C218.848 421.38 220.773 422.033 222.173 423.34C223.596 424.623 224.308 426.455 224.308 428.835V435.66C224.308 436.103 224.378 436.418 224.518 436.605C224.681 436.792 224.95 436.897 225.323 436.92V440C224.973 440.07 224.658 440.117 224.378 440.14C224.098 440.163 223.865 440.175 223.678 440.175C222.861 440.175 222.243 439.977 221.823 439.58C221.403 439.183 221.158 438.717 221.088 438.18L220.983 437.13C220.19 438.157 219.175 438.95 217.938 439.51C216.701 440.07 215.453 440.35 214.193 440.35C212.98 440.35 211.895 440.105 210.938 439.615C209.981 439.102 209.235 438.413 208.698 437.55C208.161 436.687 207.893 435.718 207.893 434.645ZM219.548 435.765C219.828 435.462 220.05 435.158 220.213 434.855C220.376 434.552 220.458 434.283 220.458 434.05V431.95C219.805 431.693 219.116 431.507 218.393 431.39C217.67 431.25 216.958 431.18 216.258 431.18C214.858 431.18 213.715 431.46 212.828 432.02C211.965 432.58 211.533 433.35 211.533 434.33C211.533 434.867 211.673 435.38 211.953 435.87C212.256 436.36 212.676 436.757 213.213 437.06C213.773 437.363 214.461 437.515 215.278 437.515C216.118 437.515 216.923 437.352 217.693 437.025C218.463 436.698 219.081 436.278 219.548 435.765ZM229.014 414.45H232.864V434.715C232.864 435.648 233.004 436.243 233.284 436.5C233.564 436.757 233.914 436.885 234.334 436.885C234.801 436.885 235.232 436.838 235.629 436.745C236.049 436.652 236.411 436.535 236.714 436.395L237.274 439.44C236.714 439.673 236.049 439.872 235.279 440.035C234.509 440.198 233.821 440.28 233.214 440.28C231.907 440.28 230.881 439.918 230.134 439.195C229.387 438.448 229.014 437.422 229.014 436.115V414.45ZM239.506 440V421.695H243.356V440H239.506ZM239.506 418.685V414.45H243.356V418.685H239.506ZM246.653 437.585L257.503 424.425H247.038V421.695H261.703V424.11L250.923 437.27H261.808V440H246.653V437.585ZM273.231 440.35C271.808 440.35 270.513 440.105 269.346 439.615C268.203 439.102 267.211 438.413 266.371 437.55C265.531 436.663 264.878 435.66 264.411 434.54C263.968 433.397 263.746 432.183 263.746 430.9C263.746 429.173 264.143 427.598 264.936 426.175C265.729 424.728 266.838 423.573 268.261 422.71C269.684 421.823 271.353 421.38 273.266 421.38C275.179 421.38 276.824 421.823 278.201 422.71C279.601 423.573 280.686 424.717 281.456 426.14C282.226 427.563 282.611 429.092 282.611 430.725C282.611 431.005 282.599 431.273 282.576 431.53C282.553 431.763 282.529 431.962 282.506 432.125H267.841C267.911 433.198 268.203 434.143 268.716 434.96C269.253 435.753 269.929 436.383 270.746 436.85C271.563 437.293 272.438 437.515 273.371 437.515C274.398 437.515 275.366 437.258 276.276 436.745C277.209 436.232 277.839 435.555 278.166 434.715L281.456 435.66C281.059 436.547 280.453 437.352 279.636 438.075C278.843 438.775 277.898 439.335 276.801 439.755C275.704 440.152 274.514 440.35 273.231 440.35ZM267.736 429.57H278.796C278.726 428.52 278.423 427.598 277.886 426.805C277.373 425.988 276.708 425.358 275.891 424.915C275.098 424.448 274.211 424.215 273.231 424.215C272.274 424.215 271.388 424.448 270.571 424.915C269.778 425.358 269.124 425.988 268.611 426.805C268.098 427.598 267.806 428.52 267.736 429.57ZM294.399 440V421.695H298.249V440H294.399ZM294.399 418.685V414.45H298.249V418.685H294.399ZM319.29 440H315.44V429.745C315.44 428.042 315.16 426.793 314.6 426C314.064 425.207 313.259 424.81 312.185 424.81C311.439 424.81 310.692 424.997 309.945 425.37C309.222 425.743 308.569 426.257 307.985 426.91C307.402 427.54 306.982 428.275 306.725 429.115V440H302.875V421.695H306.375V425.37C306.842 424.553 307.449 423.853 308.195 423.27C308.965 422.663 309.829 422.197 310.785 421.87C311.742 421.543 312.757 421.38 313.83 421.38C314.927 421.38 315.825 421.578 316.525 421.975C317.249 422.372 317.809 422.92 318.205 423.62C318.625 424.297 318.905 425.09 319.045 426C319.209 426.887 319.29 427.832 319.29 428.835V440Z" fill="#3D3D3D"/>
<path fill-rule="evenodd" clip-rule="evenodd" d="M67.0027 187.47C67.0009 187.313 67 187.157 67 187C67 164.909 84.9086 147 107 147C129.091 147 147 164.909 147 187C147 209.091 129.091 227 107 227C105.171 227 103.371 226.877 101.608 226.64H67.0027V187.47Z" fill="url(#paint1_linear_700_1670)"/>
<defs>
<linearGradient id="paint0_linear_700_1670" x1="667.96" y1="19.7621" x2="-14.6804" y2="614.884" gradientUnits="userSpaceOnUse">
<stop offset="0.270407" stop-color="#2AB7CA" stop-opacity="0.27"/>
<stop offset="0.66957" stop-color="#FFCD00" stop-opacity="0.27"/>
</linearGradient>
<linearGradient id="paint1_linear_700_1670" x1="151.955" y1="149.513" x2="65.1329" y2="225.205" gradientUnits="userSpaceOnUse">
<stop offset="0.270407" stop-color="#2AB7CA"/>
<stop offset="0.66957" stop-color="#FFCD00"/>
</linearGradient>
</defs>
</svg>
