<svg width="515" height="396" viewBox="0 0 515 396" fill="none" xmlns="http://www.w3.org/2000/svg">
<g filter="url(#filter0_d_417_1352)">
<circle cx="267" cy="182" r="161" fill="url(#paint0_linear_417_1352)"/>
</g>
<path fill-rule="evenodd" clip-rule="evenodd" d="M139.419 106.574C139.418 106.507 139.418 106.439 139.418 106.372C139.418 95.417 148.299 86.5361 159.254 86.5361C170.209 86.5361 179.09 95.417 179.09 106.372C179.09 117.327 170.209 126.208 159.254 126.208C158.347 126.208 157.454 126.147 156.58 126.029H139.419V106.574Z" fill="url(#paint1_linear_417_1352)"/>
<path d="M73.1944 252.992C63.9377 252.992 55.2099 251.273 47.0111 247.834C38.8122 244.264 31.6052 239.305 25.3899 232.958C19.1747 226.478 14.2818 218.874 10.7114 210.146C7.27316 201.286 5.55405 191.434 5.55405 180.591C5.55405 170.805 7.33928 161.681 10.9097 153.217C14.4802 144.754 19.4392 137.282 25.7867 130.803C32.1341 124.323 39.5395 119.298 48.0028 115.727C56.5984 112.025 65.8551 110.173 75.7731 110.173C88.7325 110.173 100.171 112.95 110.089 118.504C120.007 124.059 127.346 131.53 132.107 140.919L107.907 159.168C104.733 152.953 100.105 148.06 94.0221 144.489C88.0713 140.919 81.5916 139.134 74.5829 139.134C69.2934 139.134 64.4005 140.258 59.9044 142.506C55.5405 144.622 51.7056 147.663 48.3996 151.63C45.2258 155.465 42.7794 159.961 41.0603 165.119C39.3412 170.276 38.4816 175.83 38.4816 181.781C38.4816 187.864 39.4073 193.484 41.2586 198.641C43.11 203.799 45.6887 208.295 48.9946 212.13C52.3006 215.833 56.2017 218.742 60.6978 220.858C65.3262 222.973 70.4174 224.031 75.9715 224.031C82.7157 224.031 89.1293 222.378 95.2123 219.072C101.428 215.634 107.114 210.609 112.271 203.997V236.131C101.031 247.372 88.0052 252.992 73.1944 252.992ZM110.288 202.014H82.914V178.409H137.264V252H110.288V202.014ZM222.246 175.037C214.576 175.037 207.633 176.293 201.418 178.806C195.203 181.186 190.707 184.756 187.93 189.517V252H156.192V147.862H185.351V168.888C188.921 161.879 193.55 156.391 199.236 152.424C204.922 148.457 210.873 146.407 217.088 146.275C218.543 146.275 219.601 146.275 220.262 146.275C221.055 146.275 221.717 146.341 222.246 146.473V175.037ZM284.428 253.984C275.568 253.984 267.634 252.529 260.625 249.62C253.749 246.71 247.93 242.743 243.169 237.718C238.409 232.693 234.772 226.941 232.26 220.461C229.879 213.981 228.689 207.171 228.689 200.03C228.689 192.757 229.879 185.88 232.26 179.401C234.772 172.921 238.409 167.169 243.169 162.143C247.93 157.118 253.749 153.151 260.625 150.242C267.634 147.333 275.568 145.878 284.428 145.878C293.288 145.878 301.156 147.333 308.033 150.242C314.909 153.151 320.728 157.118 325.488 162.143C330.249 167.169 333.886 172.921 336.398 179.401C338.911 185.88 340.167 192.757 340.167 200.03C340.167 207.171 338.911 213.981 336.398 220.461C333.886 226.941 330.249 232.693 325.488 237.718C320.728 242.743 314.909 246.71 308.033 249.62C301.156 252.529 293.288 253.984 284.428 253.984ZM261.22 200.03C261.22 205.452 262.212 210.212 264.195 214.312C266.311 218.411 269.088 221.585 272.526 223.833C275.965 226.081 279.932 227.205 284.428 227.205C288.792 227.205 292.693 226.081 296.131 223.833C299.702 221.453 302.479 218.213 304.462 214.113C306.446 210.014 307.438 205.32 307.438 200.03C307.438 194.608 306.446 189.848 304.462 185.748C302.479 181.649 299.702 178.475 296.131 176.227C292.693 173.979 288.792 172.855 284.428 172.855C279.932 172.855 275.965 173.979 272.526 176.227C269.088 178.475 266.311 181.649 264.195 185.748C262.212 189.848 261.22 194.608 261.22 200.03ZM480.565 147.862H510.715L467.671 252H441.488L425.619 209.551L409.751 252H383.567L340.523 147.862H370.475L398.444 222.048L408.362 193.087L389.716 147.862H415.701L425.619 179.202L435.537 147.862H461.324L442.876 193.087L452.794 222.048L480.565 147.862Z" fill="white"/>
<path d="M211.233 125.151C210.704 125.416 210.042 125.699 209.249 126.002C208.456 126.304 207.549 126.568 206.529 126.795C205.546 127.022 204.526 127.135 203.468 127.135C202.184 127.135 200.994 126.908 199.898 126.455C198.802 126.002 197.914 125.284 197.234 124.301C196.592 123.281 196.271 121.978 196.271 120.391V101.858H192.36V97.0412H196.271V87.2932H202.505V97.0412H208.966V101.858H202.505V118.407C202.58 119.427 202.902 120.183 203.468 120.674C204.073 121.165 204.81 121.411 205.679 121.411C206.548 121.411 207.379 121.26 208.172 120.958C208.966 120.655 209.551 120.41 209.929 120.221L211.233 125.151ZM228.481 127.248C226.139 127.248 224.042 126.852 222.191 126.058C220.339 125.227 218.733 124.094 217.373 122.658C216.051 121.222 215.031 119.597 214.313 117.784C213.595 115.932 213.236 113.968 213.236 111.89C213.236 109.812 213.595 107.847 214.313 105.996C215.031 104.144 216.051 102.52 217.373 101.122C218.733 99.6859 220.339 98.5714 222.191 97.7779C224.08 96.9467 226.177 96.5311 228.481 96.5311C230.786 96.5311 232.864 96.9467 234.716 97.7779C236.605 98.5714 238.21 99.6859 239.533 101.122C240.893 102.52 241.932 104.144 242.65 105.996C243.368 107.847 243.727 109.812 243.727 111.89C243.727 113.968 243.368 115.932 242.65 117.784C241.932 119.597 240.893 121.222 239.533 122.658C238.21 124.094 236.605 125.227 234.716 126.058C232.864 126.852 230.786 127.248 228.481 127.248ZM219.64 111.946C219.64 113.836 220.037 115.536 220.83 117.047C221.624 118.558 222.682 119.749 224.004 120.618C225.327 121.487 226.819 121.921 228.481 121.921C230.106 121.921 231.58 121.487 232.902 120.618C234.262 119.711 235.339 118.502 236.132 116.99C236.926 115.441 237.323 113.741 237.323 111.89C237.323 110.001 236.926 108.3 236.132 106.789C235.339 105.278 234.262 104.088 232.902 103.219C231.58 102.312 230.106 101.858 228.481 101.858C226.819 101.858 225.327 102.312 224.004 103.219C222.682 104.125 221.624 105.334 220.83 106.846C220.037 108.319 219.64 110.019 219.64 111.946ZM260.987 126.965C258.985 126.965 257.153 126.568 255.49 125.775C253.828 124.944 252.392 123.829 251.183 122.431C250.012 121.033 249.086 119.427 248.406 117.614C247.764 115.8 247.442 113.892 247.442 111.89C247.442 109.774 247.782 107.79 248.463 105.939C249.143 104.088 250.087 102.463 251.296 101.065C252.543 99.6293 253.998 98.5147 255.66 97.7212C257.323 96.9278 259.174 96.5311 261.214 96.5311C263.594 96.5311 265.673 97.0978 267.448 98.2313C269.262 99.3648 270.754 100.838 271.926 102.652V97.0412H277.423V125.832C277.423 128.703 276.724 131.14 275.326 133.142C273.966 135.145 272.096 136.675 269.715 137.733C267.335 138.791 264.652 139.32 261.668 139.32C258.38 139.32 255.66 138.753 253.507 137.62C251.353 136.486 249.52 134.937 248.009 132.972L251.523 129.685C252.656 131.272 254.111 132.481 255.887 133.312C257.7 134.144 259.627 134.559 261.668 134.559C263.368 134.559 264.936 134.238 266.371 133.596C267.845 132.991 269.016 132.028 269.885 130.705C270.754 129.421 271.189 127.796 271.189 125.832V121.298C270.131 123.073 268.676 124.471 266.825 125.491C264.974 126.474 263.028 126.965 260.987 126.965ZM263.028 121.921C263.972 121.921 264.879 121.77 265.748 121.468C266.617 121.128 267.411 120.693 268.128 120.164C268.884 119.597 269.526 118.974 270.055 118.294C270.584 117.576 270.962 116.82 271.189 116.027V108.263C270.698 106.978 269.999 105.863 269.092 104.919C268.185 103.936 267.165 103.181 266.031 102.652C264.898 102.123 263.746 101.858 262.574 101.858C261.214 101.858 259.986 102.161 258.891 102.765C257.833 103.332 256.926 104.107 256.17 105.089C255.415 106.033 254.829 107.11 254.413 108.319C253.998 109.528 253.79 110.775 253.79 112.06C253.79 113.42 254.017 114.686 254.47 115.857C254.961 117.028 255.622 118.086 256.454 119.031C257.285 119.937 258.267 120.655 259.401 121.184C260.534 121.675 261.743 121.921 263.028 121.921ZM298.33 127.248C296.026 127.248 293.929 126.852 292.039 126.058C290.188 125.227 288.582 124.112 287.222 122.714C285.862 121.279 284.804 119.654 284.048 117.841C283.331 115.989 282.972 114.024 282.972 111.946C282.972 109.15 283.614 106.6 284.899 104.295C286.183 101.953 287.978 100.083 290.283 98.6847C292.587 97.249 295.289 96.5311 298.387 96.5311C301.485 96.5311 304.149 97.249 306.378 98.6847C308.645 100.083 310.402 101.934 311.649 104.239C312.896 106.543 313.519 109.018 313.519 111.663C313.519 112.116 313.5 112.551 313.462 112.967C313.424 113.344 313.387 113.666 313.349 113.93H289.603C289.716 115.668 290.188 117.198 291.019 118.521C291.888 119.805 292.984 120.825 294.306 121.581C295.629 122.299 297.046 122.658 298.557 122.658C300.219 122.658 301.787 122.242 303.261 121.411C304.772 120.58 305.792 119.484 306.321 118.124L311.649 119.654C311.006 121.09 310.024 122.393 308.702 123.565C307.417 124.698 305.887 125.605 304.111 126.285C302.335 126.927 300.408 127.248 298.33 127.248ZM289.432 109.793H307.341C307.228 108.093 306.737 106.6 305.868 105.316C305.037 103.993 303.96 102.973 302.638 102.255C301.353 101.5 299.917 101.122 298.33 101.122C296.781 101.122 295.345 101.5 294.023 102.255C292.738 102.973 291.681 103.993 290.849 105.316C290.018 106.6 289.546 108.093 289.432 109.793ZM334.819 125.151C334.291 125.416 333.629 125.699 332.836 126.002C332.042 126.304 331.136 126.568 330.116 126.795C329.133 127.022 328.113 127.135 327.055 127.135C325.771 127.135 324.58 126.908 323.485 126.455C322.389 126.002 321.501 125.284 320.821 124.301C320.179 123.281 319.858 121.978 319.858 120.391V101.858H315.947V97.0412H319.858V87.2932H326.092V97.0412H332.553V101.858H326.092V118.407C326.167 119.427 326.488 120.183 327.055 120.674C327.66 121.165 328.396 121.411 329.265 121.411C330.134 121.411 330.966 121.26 331.759 120.958C332.553 120.655 333.138 120.41 333.516 120.221L334.819 125.151ZM365.717 126.682H359.483V110.076C359.483 107.394 358.992 105.391 358.01 104.069C357.027 102.746 355.648 102.085 353.873 102.085C352.777 102.085 351.643 102.387 350.472 102.992C349.301 103.596 348.262 104.428 347.355 105.486C346.448 106.506 345.787 107.696 345.371 109.056V126.682H339.137V85.3096H345.371V102.992C346.505 100.989 348.054 99.4215 350.019 98.288C351.983 97.1167 354.099 96.5311 356.366 96.5311C358.218 96.5311 359.748 96.8522 360.957 97.4945C362.166 98.1369 363.11 99.0247 363.791 100.158C364.508 101.254 365 102.539 365.264 104.012C365.566 105.448 365.717 106.978 365.717 108.603V126.682ZM386.385 127.248C384.081 127.248 381.984 126.852 380.094 126.058C378.243 125.227 376.637 124.112 375.277 122.714C373.917 121.279 372.859 119.654 372.103 117.841C371.386 115.989 371.027 114.024 371.027 111.946C371.027 109.15 371.669 106.6 372.954 104.295C374.238 101.953 376.033 100.083 378.338 98.6847C380.642 97.249 383.344 96.5311 386.442 96.5311C389.54 96.5311 392.204 97.249 394.433 98.6847C396.7 100.083 398.457 101.934 399.704 104.239C400.95 106.543 401.574 109.018 401.574 111.663C401.574 112.116 401.555 112.551 401.517 112.967C401.479 113.344 401.442 113.666 401.404 113.93H377.657C377.771 115.668 378.243 117.198 379.074 118.521C379.943 119.805 381.039 120.825 382.361 121.581C383.684 122.299 385.101 122.658 386.612 122.658C388.274 122.658 389.842 122.242 391.316 121.411C392.827 120.58 393.847 119.484 394.376 118.124L399.704 119.654C399.061 121.09 398.079 122.393 396.757 123.565C395.472 124.698 393.942 125.605 392.166 126.285C390.39 126.927 388.463 127.248 386.385 127.248ZM377.487 109.793H395.396C395.283 108.093 394.792 106.6 393.923 105.316C393.092 103.993 392.015 102.973 390.692 102.255C389.408 101.5 387.972 101.122 386.385 101.122C384.836 101.122 383.4 101.5 382.078 102.255C380.793 102.973 379.736 103.993 378.904 105.316C378.073 106.6 377.601 108.093 377.487 109.793ZM423.321 102.425C420.903 102.463 418.749 103.011 416.86 104.069C415.009 105.127 413.687 106.619 412.893 108.546V126.682H406.659V97.0412H412.44V103.672C413.46 101.632 414.801 100.007 416.464 98.7981C418.126 97.5512 419.883 96.8711 421.734 96.7578C422.112 96.7578 422.414 96.7578 422.641 96.7578C422.906 96.7578 423.132 96.7767 423.321 96.8145V102.425ZM475.932 97.0412H481.883L469.415 126.682H464.087L458.76 113.307L453.433 126.682H448.105L435.58 97.0412H441.531L451.052 120.618L455.246 109.679L450.146 97.0978H455.416L458.76 106.336L462.047 97.0978H467.318L462.274 109.679L466.468 120.618L475.932 97.0412ZM498.46 127.248C496.155 127.248 494.059 126.852 492.169 126.058C490.318 125.227 488.712 124.112 487.352 122.714C485.992 121.279 484.934 119.654 484.178 117.841C483.461 115.989 483.102 114.024 483.102 111.946C483.102 109.15 483.744 106.6 485.029 104.295C486.313 101.953 488.108 100.083 490.413 98.6847C492.717 97.249 495.419 96.5311 498.517 96.5311C501.615 96.5311 504.279 97.249 506.508 98.6847C508.775 100.083 510.532 101.934 511.779 104.239C513.025 106.543 513.649 109.018 513.649 111.663C513.649 112.116 513.63 112.551 513.592 112.967C513.554 113.344 513.517 113.666 513.479 113.93H489.732C489.846 115.668 490.318 117.198 491.149 118.521C492.018 119.805 493.114 120.825 494.436 121.581C495.759 122.299 497.176 122.658 498.687 122.658C500.349 122.658 501.917 122.242 503.391 121.411C504.902 120.58 505.922 119.484 506.451 118.124L511.779 119.654C511.136 121.09 510.154 122.393 508.832 123.565C507.547 124.698 506.017 125.605 504.241 126.285C502.465 126.927 500.538 127.248 498.46 127.248ZM489.562 109.793H507.471C507.358 108.093 506.867 106.6 505.998 105.316C505.167 103.993 504.09 102.973 502.767 102.255C501.483 101.5 500.047 101.122 498.46 101.122C496.911 101.122 495.475 101.5 494.153 102.255C492.868 102.973 491.81 103.993 490.979 105.316C490.148 106.6 489.676 108.093 489.562 109.793Z" fill="white"/>
<defs>
<filter id="filter0_d_417_1352" x="69" y="0" width="396" height="396" filterUnits="userSpaceOnUse" color-interpolation-filters="sRGB">
<feFlood flood-opacity="0" result="BackgroundImageFix"/>
<feColorMatrix in="SourceAlpha" type="matrix" values="0 0 0 0 0 0 0 0 0 0 0 0 0 0 0 0 0 0 127 0" result="hardAlpha"/>
<feOffset dy="16"/>
<feGaussianBlur stdDeviation="18.5"/>
<feComposite in2="hardAlpha" operator="out"/>
<feColorMatrix type="matrix" values="0 0 0 0 0 0 0 0 0 0 0 0 0 0 0 0 0 0 0.25 0"/>
<feBlend mode="normal" in2="BackgroundImageFix" result="effect1_dropShadow_417_1352"/>
<feBlend mode="normal" in="SourceGraphic" in2="effect1_dropShadow_417_1352" result="shape"/>
</filter>
<linearGradient id="paint0_linear_417_1352" x1="106" y1="343" x2="489.093" y2="232.168" gradientUnits="userSpaceOnUse">
<stop stop-color="#996000"/>
<stop offset="0.178031" stop-color="#02366A"/>
<stop offset="0.566668" stop-color="#031141"/>
<stop offset="1" stop-color="#0A051F"/>
</linearGradient>
<linearGradient id="paint1_linear_417_1352" x1="181.547" y1="87.7826" x2="138.492" y2="125.318" gradientUnits="userSpaceOnUse">
<stop offset="0.270407" stop-color="#2AB7CA"/>
<stop offset="0.66957" stop-color="#FFCD00"/>
</linearGradient>
</defs>
</svg>
