<svg width="4500" height="1500" viewBox="0 0 4500 1500" fill="none" xmlns="http://www.w3.org/2000/svg">
<path opacity="0.997" fill-rule="evenodd" clip-rule="evenodd" d="M580.5 1020.9C660.672 1015.76 725.97 982.164 776.4 920.1C822.078 858.786 839.076 790.182 827.4 714.3C811.247 633.234 767.549 572.131 696.299 531C631.517 497.032 563.917 490.032 493.499 510C412.71 536.989 356.61 590.089 325.199 669.3C316.62 692.784 311.52 716.982 309.899 741.9C309.301 730.206 309.101 718.404 309.299 706.5C310.831 606.546 349.831 524.644 426.299 460.8C498.119 405.141 579.319 383.14 669.9 394.8C762.186 410.181 834.486 456.28 886.799 533.1C936.87 612.336 950.471 697.536 927.599 788.7C903.666 871.608 854.766 935.106 780.9 979.2C736.872 1004.41 689.471 1018.21 638.699 1020.6C619.302 1020.9 599.901 1021 580.5 1020.9Z" fill="#2AB7C9"/>
<path fill-rule="evenodd" clip-rule="evenodd" d="M580.5 1020.9C490.099 1021 399.699 1020.9 309.3 1020.6C308.7 933.744 308.5 846.84 308.7 759.9C309.296 754.002 309.696 748.002 309.9 741.9C311.52 716.982 316.62 692.784 325.2 669.3C356.61 590.088 412.71 536.988 493.5 510C563.917 490.032 631.518 497.032 696.3 531C767.55 572.131 811.248 633.234 827.4 714.3C839.076 790.182 822.078 858.786 776.4 920.1C725.97 982.164 660.672 1015.76 580.5 1020.9Z" fill="#FDD531"/>
<path opacity="0.99" fill-rule="evenodd" clip-rule="evenodd" d="M1871.1 542.1C1890.1 542 1909.1 542.1 1928.1 542.4C1931.68 543.179 1934.18 545.279 1935.6 548.7C1936.39 601.674 1936.79 654.672 1936.8 707.7C1955.9 687.798 1979.2 675.9 2006.7 672C2034.99 667.95 2061.59 672.75 2086.5 686.4C2108.36 701.082 2122.87 721.182 2130 746.7C2133.36 758.268 2135.36 770.07 2136 782.1C2136.4 844.302 2136.4 906.498 2136 968.7C2134.96 974.142 2131.66 977.046 2126.1 977.4C2108.5 977.802 2090.9 977.802 2073.3 977.4C2066.86 977.154 2063.36 973.854 2062.8 967.5C2062.6 909.498 2062.4 851.502 2062.2 793.5C2058.54 757.344 2038.64 737.94 2002.5 735.3C1964.36 737.934 1942.46 758.136 1936.8 795.9C1936.6 853.302 1936.4 910.698 1936.2 968.1C1935.37 974.124 1931.87 977.226 1925.7 977.4C1908.3 977.802 1890.9 977.802 1873.5 977.4C1867.65 977.238 1864.15 974.34 1863 968.7C1862.6 829.302 1862.6 689.898 1863 550.5C1864.22 546.186 1866.92 543.386 1871.1 542.1Z" fill="white"/>
<path opacity="0.991" fill-rule="evenodd" clip-rule="evenodd" d="M2808.3 542.1C2827.3 542 2846.3 542.1 2865.3 542.4C2868.88 543.179 2871.38 545.279 2872.8 548.7C2873.49 565.177 2873.79 581.677 2873.7 598.2C2873.19 634.902 2873.19 671.604 2873.7 708.3C2906.24 680.406 2944.04 668.106 2987.1 671.4C3045.46 678.306 3087.16 708.204 3112.2 761.1C3127.22 797.004 3129.82 833.808 3120 871.5C3105.18 921.918 3073.28 956.622 3024.3 975.6C2982.46 989.052 2941.86 986.052 2902.5 966.6C2888.06 958.722 2875.36 948.624 2864.4 936.3C2861.02 947.412 2857.82 958.614 2854.8 969.9C2852.89 974.208 2849.59 976.704 2844.9 977.4C2833.3 977.802 2821.7 977.802 2810.1 977.4C2804.25 977.238 2800.75 974.34 2799.6 968.7C2799.46 829.602 2799.66 690.204 2800.2 550.5C2801.21 545.992 2803.91 543.192 2808.3 542.1ZM2954.1 736.5C2995.7 735.54 3025.81 753.54 3044.4 790.5C3059.49 829.638 3052.39 864.138 3023.1 894C2994.53 918.234 2962.54 924.03 2927.1 911.4C2891.32 894.774 2872.52 866.67 2870.7 827.1C2872.46 789.048 2890.26 761.55 2924.1 744.6C2933.72 740.226 2943.71 737.526 2954.1 736.5Z" fill="white"/>
<path opacity="0.99" fill-rule="evenodd" clip-rule="evenodd" d="M1110.3 575.701C1129.3 575.6 1148.3 575.701 1167.3 576.001C1171.85 577.153 1174.55 580.053 1175.4 584.701C1175.7 615.499 1175.8 646.303 1175.7 677.101C1196.14 676.813 1216.54 677.113 1236.9 678.001C1240.1 679.207 1242 681.505 1242.6 684.901C1243 699.703 1243 714.499 1242.6 729.301C1241.54 732.565 1239.44 734.863 1236.3 736.201C1216.13 737.083 1195.93 737.383 1175.7 737.101C1175.6 789.499 1175.7 841.903 1176 894.301C1178.42 914.773 1189.92 923.869 1210.5 921.601C1216.96 920.767 1223.36 919.669 1229.7 918.301C1235.47 918.559 1238.96 921.559 1240.2 927.301C1244.03 940.321 1247.53 953.425 1250.7 966.601C1250.67 972.031 1248.07 975.631 1242.9 977.401C1223.3 983.203 1203.29 985.201 1182.9 983.401C1158.66 981.727 1138.16 972.229 1121.4 954.901C1109.33 939.901 1102.93 922.699 1102.2 903.301C1101.9 847.903 1101.8 792.499 1101.9 737.101C1092.7 737.203 1083.5 737.101 1074.3 736.801C1069.14 735.841 1066.24 732.745 1065.6 727.501C1065.2 713.899 1065.2 700.303 1065.6 686.701C1066.18 681.721 1068.88 678.625 1073.7 677.401C1083.1 677.101 1092.5 676.999 1101.9 677.101C1101.8 646.099 1101.9 615.103 1102.2 584.101C1103.21 579.587 1105.91 576.787 1110.3 575.701Z" fill="white"/>
<path opacity="0.99" fill-rule="evenodd" clip-rule="evenodd" d="M4050.9 575.701C4070.1 575.6 4089.3 575.701 4108.5 576.001C4113.6 577.303 4116.3 580.603 4116.6 585.901C4116.9 616.303 4117 646.699 4116.9 677.101C4137.34 676.813 4157.74 677.113 4178.1 678.001C4181.13 679.633 4183.03 682.129 4183.8 685.501C4184.2 699.901 4184.2 714.301 4183.8 728.701C4183 732.301 4180.9 734.803 4177.5 736.201C4157.32 737.077 4137.13 737.377 4116.9 737.101C4116.8 790.099 4116.9 843.103 4117.2 896.101C4118.59 908.809 4125.28 917.107 4137.3 921.001C4142.47 921.907 4147.67 922.105 4152.9 921.601C4158.84 920.623 4164.73 919.519 4170.6 918.301C4176.79 918.481 4180.39 921.685 4181.4 927.901C4185.18 940.825 4188.69 953.827 4191.9 966.901C4190.99 973.873 4186.99 977.773 4179.9 978.601C4161.19 983.449 4142.19 985.051 4122.9 983.401C4097.21 981.457 4076.11 970.759 4059.6 951.301C4049.82 937.711 4044.42 922.513 4043.4 905.701C4043.1 849.499 4043 793.303 4043.1 737.101C4034.1 737.203 4025.1 737.101 4016.1 736.801C4011.15 736.243 4008.04 733.543 4006.8 728.701C4006.4 714.301 4006.4 699.901 4006.8 685.501C4007.73 681.343 4010.23 678.643 4014.3 677.401C4023.9 677.101 4033.5 676.999 4043.1 677.101C4043 645.901 4043.1 614.701 4043.4 583.501C4044.41 579.392 4046.91 576.793 4050.9 575.701Z" fill="white"/>
<path opacity="0.991" fill-rule="evenodd" clip-rule="evenodd" d="M1389.3 671.1C1423 668.46 1454.41 675.558 1483.5 692.4C1520.93 717.51 1542.62 752.61 1548.6 797.7C1550.09 808.692 1550.5 819.69 1549.8 830.7C1548.58 834.714 1545.88 837.012 1541.7 837.6C1469.3 837.798 1396.9 838.002 1324.5 838.2C1325.68 863.16 1335.47 883.962 1353.9 900.6C1381.51 920.076 1411.3 924.078 1443.3 912.6C1460.93 905.964 1476.13 895.764 1488.9 882C1493.65 879.054 1498.25 879.258 1502.7 882.6C1512.58 893.88 1522.68 904.98 1533 915.9C1535.17 920.136 1534.77 924.132 1531.8 927.9C1486.84 974.688 1432.34 991.986 1368.3 979.8C1312.93 965.628 1276.63 931.326 1259.4 876.9C1248.75 835.926 1251.15 795.726 1266.6 756.3C1291.37 704.85 1332.28 676.446 1389.3 671.1ZM1398.3 731.7C1425.09 729.852 1446.59 739.452 1462.8 760.5C1467.95 768.24 1471.65 776.64 1473.9 785.7C1425.9 786.498 1377.9 786.498 1329.9 785.7C1341.22 753.174 1364.02 735.174 1398.3 731.7Z" fill="white"/>
<path opacity="0.99" fill-rule="evenodd" clip-rule="evenodd" d="M1704.3 671.1C1749.17 668.028 1788.97 680.526 1823.7 708.6C1831.87 715.368 1838.97 723.066 1845 731.7C1846.49 736.638 1845.39 740.934 1841.7 744.6C1830.19 754.26 1818.79 764.058 1807.5 774C1803.02 778.134 1798.02 778.932 1792.5 776.4C1763.77 739.008 1726.97 728.01 1682.1 743.4C1650.14 758.592 1632.44 783.894 1629 819.3C1626.84 850.842 1637.34 877.14 1660.5 898.2C1689.64 919.566 1721.03 923.568 1754.7 910.2C1768.66 903.24 1780.27 893.442 1789.5 880.8C1795.83 875.484 1802.03 875.682 1808.1 881.4C1818.52 890.826 1829.12 900.024 1839.9 909C1847.75 915.714 1847.86 922.614 1840.2 929.7C1811.29 961.704 1775.18 979.608 1731.9 983.4C1685.9 986.862 1644.9 974.46 1608.9 946.2C1577.15 918.396 1559.65 883.296 1556.4 840.9C1553.19 798.342 1564.59 760.338 1590.6 726.9C1612.71 701.418 1640.21 684.516 1673.1 676.2C1683.49 673.902 1693.89 672.204 1704.3 671.1Z" fill="white"/>
<path opacity="0.992" fill-rule="evenodd" clip-rule="evenodd" d="M2316.9 671.101C2342.61 668.743 2366.81 673.645 2389.5 685.801C2411.5 700.213 2426.2 720.115 2433.6 745.501C2437.55 758.611 2439.75 772.009 2440.2 785.701C2440.79 847.321 2440.6 908.923 2439.6 970.501C2438 974.755 2434.91 977.053 2430.3 977.401C2412.7 977.803 2395.1 977.803 2377.5 977.401C2372.01 977.215 2368.51 974.515 2367 969.301C2366.8 911.503 2366.6 853.699 2366.4 795.901C2365.48 776.965 2358.18 761.065 2344.5 748.201C2327.36 735.877 2308.57 732.475 2288.1 738.001C2262.31 745.993 2246.81 763.291 2241.6 789.901C2240.99 794.281 2240.59 798.679 2240.4 803.101C2240.2 858.703 2240 914.299 2239.8 969.901C2238.26 974.635 2234.96 977.137 2229.9 977.401C2212.5 977.803 2195.1 977.803 2177.7 977.401C2172.08 977.371 2168.58 974.671 2167.2 969.301C2166.6 873.865 2166.8 778.465 2167.8 683.101C2169.2 680.149 2171.5 678.247 2174.7 677.401C2187.7 676.999 2200.7 676.999 2213.7 677.401C2218.08 678.181 2220.98 680.677 2222.4 684.901C2224.9 694.105 2227.4 703.309 2229.9 712.501C2254.34 689.185 2283.34 675.385 2316.9 671.101Z" fill="white"/>
<path opacity="0.99" fill-rule="evenodd" clip-rule="evenodd" d="M2602.5 671.1C2639.2 668.376 2673.59 675.876 2705.7 693.6C2751.86 722.79 2776.36 764.886 2779.2 819.9C2781.34 868.5 2765.04 909.6 2730.3 943.2C2702.26 967.308 2669.66 980.706 2632.5 983.4C2591.98 986.772 2554.78 977.37 2520.9 955.2C2478.51 923.424 2457.11 880.824 2456.7 827.4C2456.73 778.752 2474.93 738.552 2511.3 706.8C2538.08 685.77 2568.48 673.872 2602.5 671.1ZM2610.3 736.5C2642.71 734.664 2669.01 746.262 2689.2 771.3C2707.08 799.962 2710.68 830.358 2700 862.5C2684.92 897.834 2658.02 916.434 2619.3 918.3C2585.06 918.042 2559.16 903.444 2541.6 874.5C2528.39 847.104 2526.79 819.102 2536.8 790.5C2550.81 758.244 2575.31 740.244 2610.3 736.5Z" fill="white"/>
<path opacity="0.991" fill-rule="evenodd" clip-rule="evenodd" d="M3278.7 671.1C3315.98 668.424 3350.78 676.32 3383.1 694.8C3426.18 722.628 3449.88 762.324 3454.2 813.9C3457.59 857.322 3445.79 895.92 3418.8 929.7C3389.4 962.124 3352.7 980.022 3308.7 983.4C3267.13 986.91 3229.13 977.112 3194.7 954C3156.53 925.368 3135.83 887.07 3132.6 839.1C3129.4 791.874 3143.8 751.074 3175.8 716.7C3204.61 689.352 3238.91 674.154 3278.7 671.1ZM3285.9 736.5C3317.71 734.568 3343.61 745.77 3363.6 770.1C3381.58 797.382 3385.98 826.782 3376.8 858.3C3362.6 897.168 3334.7 917.172 3293.1 918.3C3254.03 917.238 3226.93 898.836 3211.8 863.1C3201.57 833.208 3203.97 804.408 3219 776.7C3234.76 752.472 3257.05 739.068 3285.9 736.5Z" fill="white"/>
<path opacity="0.991" fill-rule="evenodd" clip-rule="evenodd" d="M3606.9 671.099C3650.74 667.685 3690.34 678.785 3725.7 704.399C3758.62 731.315 3777.52 766.019 3782.4 808.499C3787.26 852.677 3776.26 892.277 3749.4 927.299C3721.28 959.609 3685.78 978.113 3642.9 982.799C3597.44 988.133 3556.24 977.537 3519.3 950.999C3486.1 924.503 3467 890.003 3462 847.499C3456.71 802.019 3468.11 761.417 3496.2 725.699C3525.77 692.867 3562.67 674.669 3606.9 671.099ZM3614.1 736.499C3650.26 734.531 3678.16 748.529 3697.8 778.499C3711.37 805.181 3713.57 832.781 3704.4 861.299C3693.41 889.841 3673.12 907.943 3643.5 915.599C3614.53 921.887 3588.33 916.085 3564.9 898.199C3541.69 876.371 3531.59 849.467 3534.6 817.499C3540.75 770.315 3567.25 743.315 3614.1 736.499Z" fill="white"/>
<path opacity="0.99" fill-rule="evenodd" clip-rule="evenodd" d="M3886.5 671.101C3920.53 669.703 3953.53 674.803 3985.5 686.401C3987.91 688.309 3989.11 690.811 3989.1 693.901C3985.03 709.015 3980.53 724.015 3975.6 738.901C3972.61 744.901 3967.91 746.803 3961.5 744.601C3942.05 737.215 3921.95 732.715 3901.2 731.101C3890.87 730.657 3881.37 733.159 3872.7 738.601C3862.64 749.905 3863.24 760.705 3874.5 771.001C3879.29 774.997 3884.49 778.399 3890.1 781.201C3910.45 790.777 3930.65 800.581 3950.7 810.601C3964.46 818.143 3976.76 827.641 3987.6 839.101C4003.91 859.549 4009.71 882.745 4005 908.701C4001.14 933.547 3988.64 952.645 3967.5 966.001C3949.07 976.357 3929.27 982.159 3908.1 983.401C3871.04 985.141 3834.84 980.341 3799.5 969.001C3793.66 966.613 3791.56 962.311 3793.2 956.101C3798.25 941.161 3803.65 926.365 3809.4 911.701C3812.35 908.881 3815.86 907.981 3819.9 909.001C3843.25 918.223 3867.46 923.521 3892.5 924.901C3902.17 925.189 3911.37 923.287 3920.1 919.201C3929.61 912.475 3933.11 903.373 3930.6 891.901C3927.99 886.687 3924.29 882.385 3919.5 879.001C3914.5 875.503 3909.3 872.299 3903.9 869.401C3885.02 860.263 3866.42 850.663 3848.1 840.601C3833.41 832.117 3820.31 821.617 3808.8 809.101C3793.37 788.155 3788.77 764.953 3795 739.501C3802.24 711.661 3819.14 692.161 3845.7 681.001C3858.92 675.799 3872.51 672.499 3886.5 671.101Z" fill="white"/>
<path opacity="0.02" fill-rule="evenodd" clip-rule="evenodd" d="M309.299 706.5C309.101 718.404 309.301 730.206 309.899 741.9C309.696 748.002 309.296 754.002 308.699 759.9C308.501 741.996 308.7 724.2 309.299 706.5Z" fill="#2DCBC5"/>
</svg>
