<svg width="525" height="525" viewBox="0 0 525 525" fill="none" xmlns="http://www.w3.org/2000/svg">
<path fill-rule="evenodd" clip-rule="evenodd" d="M0.00720215 264.465C0.00238037 263.811 0 263.156 0 262.5C0 117.525 117.525 0 262.5 0C407.475 0 525 117.525 525 262.5C525 407.475 407.475 525 262.5 525C250.499 525 238.686 524.195 227.113 522.635H0.00720215V264.465Z" fill="url(#paint0_linear_360_1537)"/>
<path d="M115.85 193.925H142.275L155.225 233.65L168.175 193.925H194.775L173.6 251.675L186.2 284.75L217.35 193.75H248.675L200.2 318H175.35L155.225 269.35L135.275 318H110.25L61.95 193.75H93.1L124.425 284.75L136.675 251.675L115.85 193.925ZM345.745 318H317.745V266.375C317.745 260.425 316.52 256.05 314.07 253.25C311.737 250.45 308.587 249.05 304.62 249.05C302.52 249.05 300.129 249.75 297.445 251.15C294.879 252.433 292.487 254.3 290.27 256.75C288.054 259.2 286.362 262.058 285.195 265.325V318H257.195V190.25H285.195V241.525C288.579 236.042 293.012 231.842 298.495 228.925C304.095 225.892 310.22 224.375 316.87 224.375C323.17 224.375 328.187 225.425 331.92 227.525C335.77 229.625 338.687 232.425 340.67 235.925C342.654 239.308 343.995 243.042 344.695 247.125C345.395 251.208 345.745 255.233 345.745 259.2V318ZM408.099 319.75C400.282 319.75 393.282 318.467 387.099 315.9C381.032 313.333 375.899 309.833 371.699 305.4C367.499 300.967 364.29 295.892 362.074 290.175C359.974 284.458 358.924 278.45 358.924 272.15C358.924 265.733 359.974 259.667 362.074 253.95C364.29 248.233 367.499 243.158 371.699 238.725C375.899 234.292 381.032 230.792 387.099 228.225C393.282 225.658 400.282 224.375 408.099 224.375C415.915 224.375 422.857 225.658 428.924 228.225C434.99 230.792 440.124 234.292 444.324 238.725C448.524 243.158 451.732 248.233 453.949 253.95C456.165 259.667 457.274 265.733 457.274 272.15C457.274 278.45 456.165 284.458 453.949 290.175C451.732 295.892 448.524 300.967 444.324 305.4C440.124 309.833 434.99 313.333 428.924 315.9C422.857 318.467 415.915 319.75 408.099 319.75ZM387.624 272.15C387.624 276.933 388.499 281.133 390.249 284.75C392.115 288.367 394.565 291.167 397.599 293.15C400.632 295.133 404.132 296.125 408.099 296.125C411.949 296.125 415.39 295.133 418.424 293.15C421.574 291.05 424.024 288.192 425.774 284.575C427.524 280.958 428.399 276.817 428.399 272.15C428.399 267.367 427.524 263.167 425.774 259.55C424.024 255.933 421.574 253.133 418.424 251.15C415.39 249.167 411.949 248.175 408.099 248.175C404.132 248.175 400.632 249.167 397.599 251.15C394.565 253.133 392.115 255.933 390.249 259.55C388.499 263.167 387.624 267.367 387.624 272.15Z" fill="white"/>
<path d="M107.4 351.35C107.4 349.683 107.867 348.233 108.8 347C109.767 345.733 111.083 344.767 112.75 344.1C114.417 343.4 116.35 343.05 118.55 343.05C119.717 343.05 120.9 343.133 122.1 343.3C123.333 343.467 124.417 343.733 125.35 344.1V342.45C125.35 340.617 124.8 339.183 123.7 338.15C122.6 337.117 121.017 336.6 118.95 336.6C117.483 336.6 116.1 336.867 114.8 337.4C113.5 337.9 112.117 338.617 110.65 339.55L108.8 335.85C110.533 334.683 112.267 333.817 114 333.25C115.767 332.683 117.617 332.4 119.55 332.4C123.05 332.4 125.8 333.333 127.8 335.2C129.833 337.033 130.85 339.65 130.85 343.05V352.8C130.85 353.433 130.95 353.883 131.15 354.15C131.383 354.417 131.767 354.567 132.3 354.6V359C131.8 359.1 131.35 359.167 130.95 359.2C130.55 359.233 130.217 359.25 129.95 359.25C128.783 359.25 127.9 358.967 127.3 358.4C126.7 357.833 126.35 357.167 126.25 356.4L126.1 354.9C124.967 356.367 123.517 357.5 121.75 358.3C119.983 359.1 118.2 359.5 116.4 359.5C114.667 359.5 113.117 359.15 111.75 358.45C110.383 357.717 109.317 356.733 108.55 355.5C107.783 354.267 107.4 352.883 107.4 351.35ZM124.05 352.95C124.45 352.517 124.767 352.083 125 351.65C125.233 351.217 125.35 350.833 125.35 350.5V347.5C124.417 347.133 123.433 346.867 122.4 346.7C121.367 346.5 120.35 346.4 119.35 346.4C117.35 346.4 115.717 346.8 114.45 347.6C113.217 348.4 112.6 349.5 112.6 350.9C112.6 351.667 112.8 352.4 113.2 353.1C113.633 353.8 114.233 354.367 115 354.8C115.8 355.233 116.783 355.45 117.95 355.45C119.15 355.45 120.3 355.217 121.4 354.75C122.5 354.283 123.383 353.683 124.05 352.95ZM152.223 337.6C150.089 337.633 148.189 338.117 146.523 339.05C144.889 339.983 143.723 341.3 143.023 343V359H137.523V332.85H142.623V338.7C143.523 336.9 144.706 335.467 146.173 334.4C147.639 333.3 149.189 332.7 150.823 332.6C151.156 332.6 151.423 332.6 151.623 332.6C151.856 332.6 152.056 332.617 152.223 332.65V337.6ZM167.586 359.5C165.552 359.5 163.702 359.15 162.036 358.45C160.402 357.717 158.986 356.733 157.786 355.5C156.586 354.233 155.652 352.8 154.986 351.2C154.352 349.567 154.036 347.833 154.036 346C154.036 343.533 154.602 341.283 155.736 339.25C156.869 337.183 158.452 335.533 160.486 334.3C162.519 333.033 164.902 332.4 167.636 332.4C170.369 332.4 172.719 333.033 174.686 334.3C176.686 335.533 178.236 337.167 179.336 339.2C180.436 341.233 180.986 343.417 180.986 345.75C180.986 346.15 180.969 346.533 180.936 346.9C180.902 347.233 180.869 347.517 180.836 347.75H159.886C159.986 349.283 160.402 350.633 161.136 351.8C161.902 352.933 162.869 353.833 164.036 354.5C165.202 355.133 166.452 355.45 167.786 355.45C169.252 355.45 170.636 355.083 171.936 354.35C173.269 353.617 174.169 352.65 174.636 351.45L179.336 352.8C178.769 354.067 177.902 355.217 176.736 356.25C175.602 357.25 174.252 358.05 172.686 358.65C171.119 359.217 169.419 359.5 167.586 359.5ZM159.736 344.1H175.536C175.436 342.6 175.002 341.283 174.236 340.15C173.502 338.983 172.552 338.083 171.386 337.45C170.252 336.783 168.986 336.45 167.586 336.45C166.219 336.45 164.952 336.783 163.786 337.45C162.652 338.083 161.719 338.983 160.986 340.15C160.252 341.283 159.836 342.6 159.736 344.1ZM229.009 332.85H234.259L223.259 359H218.559L213.859 347.2L209.159 359H204.459L193.409 332.85H198.659L207.059 353.65L210.759 344L206.259 332.9H210.909L213.859 341.05L216.759 332.9H221.409L216.959 344L220.659 353.65L229.009 332.85ZM248.884 359.5C246.851 359.5 245.001 359.15 243.334 358.45C241.701 357.717 240.284 356.733 239.084 355.5C237.884 354.233 236.951 352.8 236.284 351.2C235.651 349.567 235.334 347.833 235.334 346C235.334 343.533 235.901 341.283 237.034 339.25C238.168 337.183 239.751 335.533 241.784 334.3C243.818 333.033 246.201 332.4 248.934 332.4C251.668 332.4 254.018 333.033 255.984 334.3C257.984 335.533 259.534 337.167 260.634 339.2C261.734 341.233 262.284 343.417 262.284 345.75C262.284 346.15 262.268 346.533 262.234 346.9C262.201 347.233 262.168 347.517 262.134 347.75H241.184C241.284 349.283 241.701 350.633 242.434 351.8C243.201 352.933 244.168 353.833 245.334 354.5C246.501 355.133 247.751 355.45 249.084 355.45C250.551 355.45 251.934 355.083 253.234 354.35C254.568 353.617 255.468 352.65 255.934 351.45L260.634 352.8C260.068 354.067 259.201 355.217 258.034 356.25C256.901 357.25 255.551 358.05 253.984 358.65C252.418 359.217 250.718 359.5 248.884 359.5ZM241.034 344.1H256.834C256.734 342.6 256.301 341.283 255.534 340.15C254.801 338.983 253.851 338.083 252.684 337.45C251.551 336.783 250.284 336.45 248.884 336.45C247.518 336.45 246.251 336.783 245.084 337.45C243.951 338.083 243.018 338.983 242.284 340.15C241.551 341.283 241.134 342.6 241.034 344.1ZM282.474 347.95C282.474 346.783 282.608 345.717 282.874 344.75C283.141 343.783 283.574 342.9 284.174 342.1C284.774 341.267 285.591 340.533 286.624 339.9C287.191 339.567 287.858 339.2 288.624 338.8C289.391 338.367 290.124 337.867 290.824 337.3C291.524 336.733 292.108 336.067 292.574 335.3C293.074 334.533 293.324 333.633 293.324 332.6C293.324 331.5 293.058 330.583 292.524 329.85C291.991 329.083 291.308 328.517 290.474 328.15C289.674 327.75 288.791 327.55 287.824 327.55C286.791 327.55 285.841 327.767 284.974 328.2C284.108 328.633 283.358 329.183 282.724 329.85C282.091 330.517 281.558 331.217 281.124 331.95L277.524 329.5C278.124 328.133 278.958 326.967 280.024 326C281.091 325.033 282.308 324.3 283.674 323.8C285.041 323.3 286.474 323.05 287.974 323.05C289.208 323.05 290.424 323.25 291.624 323.65C292.858 324.017 293.958 324.6 294.924 325.4C295.891 326.2 296.658 327.217 297.224 328.45C297.824 329.65 298.124 331.1 298.124 332.8C298.124 333.967 297.974 334.983 297.674 335.85C297.408 336.683 297.008 337.433 296.474 338.1C295.941 338.767 295.324 339.367 294.624 339.9C293.924 340.4 293.158 340.883 292.324 341.35C291.491 341.85 290.674 342.367 289.874 342.9C289.074 343.4 288.408 344.033 287.874 344.8C287.341 345.567 287.074 346.617 287.074 347.95H282.474ZM282.624 359V352.7H287.174V359H282.624Z" fill="white"/>
<defs>
<linearGradient id="paint0_linear_360_1537" x1="557.518" y1="16.4946" x2="-12.2531" y2="513.218" gradientUnits="userSpaceOnUse">
<stop offset="0.270407" stop-color="#2AB7CA" stop-opacity="0.73"/>
<stop offset="0.66957" stop-color="#FFCD00" stop-opacity="0.1"/>
</linearGradient>
</defs>
</svg>
