<svg width="173" height="49" viewBox="0 0 173 49" fill="none" xmlns="http://www.w3.org/2000/svg">
<path fill-rule="evenodd" clip-rule="evenodd" d="M125.827 5.86431C134.132 6.2974 140.688 7.98167 147.237 9.84502C168.715 15.9631 175.674 24.5502 160.548 32.2341C137.028 44.1478 82.9754 50.6173 41.4147 45.3474C32.2103 44.1844 19.7353 43.0096 10.7147 38.5643C2.32348 34.431 2.83542 29.8774 6.88705 25.7845C11.0134 21.5872 18.8212 17.8618 25.0176 15.5076C52.1077 5.23802 105.94 -3.09237 154.125 3.92898C155.116 4.06641 156.116 3.92296 156.411 3.61037C156.706 3.29779 156.221 2.93505 155.301 2.80006C105.701 -4.42635 50.1567 4.06383 22.274 14.6326C14.5644 17.5688 4.43796 22.5643 1.40725 27.9887C-0.640087 31.697 0.576632 35.6014 7.84811 39.2113C17.4276 43.9454 30.6801 45.2634 40.4508 46.5008C83.3567 51.9431 139.264 45.2939 163.508 32.9878C179.792 24.7299 172.429 15.4959 149.331 8.91931C142.289 6.89979 135.097 5.11652 126.082 4.64677C125.089 4.5952 124.228 4.82621 124.216 5.16426C124.133 5.49986 124.905 5.81518 125.827 5.86431Z" fill="#FFCD00"/>
</svg>
